<svg xmlns="http://www.w3.org/2000/svg" width="502" height="533" fill="none" viewBox="0 0 502 533"><g filter="url(#a)"><path fill="#ed7c6f" d="M33.1 6.8c12.77-.26 25.53-.37 38.68-.25 2.99.02 2.7.23 3.94.26 2.26.06 6.06-.16 6.6-.16 3.3 0 2 .36 2.45.37 4.96.15 3.53-.26 8.27-.3 6.17-.05 14.1.02 21.53.04 2.61 0 1.45.28 7.08.26 4-.02 16.25-.33 21.89 0 .03.13-.68.27-.98.4 8.08-.53 10.98-.5 22.44-.37 1.81.02 3.53-.2 6.72-.12 3.2.08 3.33.41 9.75.4 2.28 0 3.66-.23 7.15-.24 9.94-.03 28.85.26 37 .27 16.06.02 24.8-.38 39.06-.24 1.1.01-1.32.27.7.27s4.14-.33 4.64-.34c5.39-.09 16.78.37 19.77.31 7.3-.13.11-.28 10.2-.35 9.63-.06 22.9.39 32.44.47 11.04.1 14.6-.54 22.92.13l87.8-.1-.28.4 6.93-.27-1.03.3c4.52-.16 8.83-.29 13.23-.38a24.7 24.7 0 0 1 18.91 8.27c.18.2-.49-.13-.35.03 2.02 2.23 3.98 5.04 4.93 7.53a25 25 0 0 1 1.6 9.61c-.1 3.14-.09 4.95.3 2.53-.15 14.16.09 30.8-.05 44.28-.06 5.84-.48 7.6-.5 10.39s.33 1.37.35 2.36c.08 5.95.06 15.76-.34 16.79l.49 3.68c-.45-.71-.27 17.7-.28 22.52 0 .88-.2 1-.2 1.67.03 7.42.34 9.23.44 15.58.04 2.23-.31-1.22-.16 4.5.01.5.33.23.32 7.07 0 10.91.13 31.8-.03 44.79-.01 1.06-.35-2.18-.27 2.69.02 1.76.27.92.27 5.2 0 16.57-.27 34.23-.04 51.14-.27-.62-.58-6.64-.4 2.41.02 1.45.27.37.27 1.02.08 5.25-.1 9.81 0 15.5.02 1.68.22 2.1.26 4.2.07 3.09-.2 4.46-.09 8.05.18 5.62.44 6.49-.07 13.46.04 39.5.18 78.8-.04 118.17.14 11.38.3 21.88.36 33.75.01 3.49-.33 4.16-.22 9.73.03 1.25.4 10.15-.3 11.45.06 2.48.06 4.04.1 6.17.1-1.61.2-3.28.31-4.83l-.03 5.73a26 26 0 0 1-7.05 18.03c-4.61 4.29-1.43 1.15-4.49 3.45-3.24 2-4.9 2.92-9.64 3.52-1.5.43-2.84.6-4.36.6-2.03 0-4.42-.1-8.23-.11-.7 0-4.74.16-8.12.13-2.43-.03-3.15-.29-7-.25-.64 0-8.79.33-11.39.36-4.04.04-10.46-.29-11.25-.3-11.36-.05-15.74.28-23.8-.26-1.64.32-8.37.5-13.8.48-6.88-.04-20.66-.7-22.54 0-7.95-.31-7.09-.12-16.52-.12-8.58 0-31.3-.26-38.27-.22-6.95.04-3.56.42-6.32.48-4.52.08-2.08-.2-5.18-.2-8.75.01-16.35.07-24.7.2l-1.4-.6-1.3.2-5.47-.01c14.04.87-13.56-.07-21.84-.09-7-.02-18.62.4-26.3.49-1.86.02-.58-.2-.96-.2-4.49.07-5.17.22-11.21.2-3.2-.01-6.46-.28-9.57-.29-22.84-.03-44.89.24-67.58.26-3.86.01-7.19-.32-10.43-.33-4.64 0-7.57.26-11.93.27-4.34 0-10.6-.32-13.54-.27-2.95.05 2.09.36-3.3.27-2.48-.04 1.9-.27-1.16-.28-9.55-.02-23.03.27-33.2 0l1.62.19c-4.94-.01-9.62-.05-14.31-.1a25.6 25.6 0 0 1-16.73-6.41c-3.3-2.55-7.44-9.04-8.15-13.15a21 21 0 0 1-.54-5.94c.04-.95.07-1.9.07-3.04 0-1.27-.2-.77-.19-1.62.05-10.61.4-16.44.37-27.55-.15-40.71-.28-82.7-.41-124.04 0-1.66-.26-2.78-.3-5.2-.06-3.75.17-3.93.18-4.43.05-3.26-.17-1.93-.17-6.3 0-9.64.2-25.18.18-34.78-.04-22.12-.24-40.73-.35-62.42 0-1.56.3-.5.3-3.22.04-19.11-.25-23.16-.17-46.95s.27-68.7.3-96.55h.01c-.57-8.76-.42-20.1 0-29.52 1.4 54.3.78 106.26.84 164.26.05 60.96 1.07 125.95.93 187.72-.01 5.8-.34 8.14-.27 13.03.01.83.26-1.31.29 1.23.25 25.9 0 53.08-.08 79.38a23.9 23.9 0 0 0 13.7 21.6A21.4 21.4 0 0 0 33 516.67c2.28-.07 4.59-.14 8.25-.18-1.43.13-2.36.27-3.61.4 37.13.41 74.32.23 111.94.29 1.7 0 1.91.27 3.7.28 3.55.02 6.96-.28 10.07-.29 4.06 0 4.77.2 8.51.2 1.83-.01 1.28-.22 5.25-.19.34 0 .55.23 3.2.2l28.01-.32c7.66-.07 13.8.26 16.7.28 7.81.06 7.65-.28 14.27-.28 47.11 0 92.16.38 140.4.38 3.02 0 14.23-.37 19.83-.36 1.88 0 11.71.1 13.18.11 5.98.04 11.14.26 14.43.3 6.39.1 13.53-.25 17-.29 5.2-.05 13.84-.02 17.87-.01q1.07-.01 1.66-.05c6.16-.8 4.3-.1 8.5-1.78 1.16-.66-.08-.1 3.83-2.62 3.13-2.33 4.32-3.44 5.98-5.56 1.73-2.14 3.24-6.9 3.52-8.52.5-2.09.7-3.94.73-5.66.1-5.18.24-9.08.25-16.14a5638 5638 0 0 0-.26-46.8c-.4-13.42-.22 8.92-.23 10.18-.09 6.8-.24 5.8.06 12.6-.93 6.07.51 27.23-.59 32.65.35 2.63.45 5.06.44 7.51a22 22 0 0 1-1.76 8.41c-1.62 3.69-2.08 3.98-2.07 4.23-.07.2.18.3-1.67 2.62-1.34 1.97-6.93 5.93-10.29 6.93-2.93 1.03-4.4 1.59-8.1 1.73h-1.33c-8.44.03-15.22-.09-22.31-.4l-3.79.41-14.7-.43 2.35.36-4.3.04-14.19-.52c-13.29.68-9.43.1-16.82 0-7.38-.09-11.66.3-17.36.31-7.69 0-11.22.05-18.97.02-4.5-.01-12.11-.4-5.86.21-14.02.05-33.22.22-45.77-.03-3.7-.07 1.24-.26.6-.28-3.14-.11-5.79.2-9.03.15-5.39-.07-15.89-.31-20.13-.37-6.1-.08-15.7.32-16.69.35-5.49.16-6.96-.17-8.72-.15-10.03.13-12.24.27-15.4-.43-2.6.3-13.48.82-16.11.3-.07.47-9.1.39-14.66.5l-3.11-.4c-11.6.83-34.69.23-49.94.13-.39 0-1.07.34-3.37.27-.14-.01.1-.17-1.45-.19-5.07-.06-24.43-.45-26.66-.45-8.2-.01-9.64.24-14.63.27-6.57.03-7.52-.2-13.77-.17-2.93.02-5.6.32-10.2.28-2.73-.03-3-.27-5.16-.29-7.69-.06-13.33.09-20.15-.23-1.78.77-5.04.2-8.42.15q-4.31-.08-8.95-.09c-11.69.43-22.08-10.17-23.01-19.27a23 23 0 0 1-.31-3.97c.23-35.04.67-66.5.77-101 .02-5.83-.37-7.23-.34-13.34.01-2.74.29-5.57.3-10.06 0-3.61-.15-8.78-.15-13.3 0-1.19.26-1.3.27-3.06.01-13.37-.17-26.44-.3-39.94-.05-5.01.3-8.1-.3-7.26q.21-2.87.42-5.57c-.38-6.89.01-12.51-.08-21.83-.01-1-.43-8.04-.13-12.03-.21-.28-.4.34-.59.22-.08-3.94.17-10 .2-12.66s-.26-4.44-.26-5.24c-.01-3.05.36-2.34.36-2.57.35-14.19.16-12.7-.4-21.26-.13-2.15.27-16.72-.16-19.66.18-.13.33.68.5.91l.14-13.18c-.17.93-.34 2.05-.51 2.9.14-8.97-.25-16.42-.24-23.76 0-4.19.38-3.68.3-6.14-.02-.48-.27.33-.29-1.1-.16-11.66.1-16.77.15-28.45.03-5.47-.43-10.26-.13-18.12.03-.71.44-8.42-.15-13.17.19-1.52.28-2.85.44-3.98-.87-9.64-.02-6.97.18-20 .1-6.74-.04-29.42-.14-36.75-.05-4.37-.4-4.3-.4-5.07-.06-2.95.06-4.04.13-5.53.05-.86.1-1.84.3-3.39.45-4.2 2.47-9.48 5.56-12.73 2.43-2.38.64-.4 4.48-3.53.88-.54-1.92.58 2.76-1.89a23.5 23.5 0 0 1 10.63-2 25 25 0 0 0-10.2 2.71 24 24 0 0 0-8.1 7A23 23 0 0 0 10.31 33c1.28 87.3 1.29 241 1.1 324.8-.01 8.27-.37 13.68-.4 19.07s.3.83.27 5.72c-.03 4.9-.26 8.46-.28 13.03-.14 30.85-.28 61.92-.35 92.52q0 2.52.02 4.86A22.3 22.3 0 0 0 16 507.12c1.7 1.94 1.57 2.21 3 3.42 4 3.2 9.03 4.88 14 4.83 15.57-.1 30.69-.28 46.64-.25 8.88.02 18.48.3 27.28.34 7.25.02 14.77-.18 21.3-.18 3.53 0 5.4.25 6.68.28 4.46.06 2.9-.26 5.18-.26 6.29 0 9.42.4 15.3.36 2.32-.01 2.02-.26 5.38-.3 4.25-.04 2.68.18 5.72.2.19 0-.41-.18 1.2-.2 10.38-.04 23.35-.18 33.36-.16 20.71.02 41.16.36 60.46.43 4.88.01 3.58-.22 5.13-.23 7.45-.05 10.11.22 17.92.13 1.3-.02 6.52-.34 11.51-.26 2.7.05 5.75.24 8.05.29s2.66-.25 5.42-.25c5.03 0 3.57.2 10.75.17 2.9-.01 12.56-.3 20.02-.27 12.17.03 27.27.29 41.63.3 4.92 0 11.25-.3 18.88-.31 9.34 0 26.53.06 36.1.07 4.9 0 5.24.31 5.83.33 3.74.08 2.23-.27 4.74-.25 3.44.02 6.65.28 9.78.3 2 0 2.31-.25 2.75-.26H462c12.32.04 22.46-10.42 22.31-22.39v-6.36c-.16-85.3-.49-171.41-.34-256.55.01-7.14.34-7.4.29-13.68s-.76-12.33.02-17.49c-.16-.16-.27-.15-.41-.31.22-12.96 0-25.93-.04-38.6-.02-9.38 0-17.7.02-26.37.02-7.69.3-7.02-.06-13.67.2-28.94.17-58.15.42-86.97.04-3.8-.9-7.6-2.74-10.94-3.98-5.64-9.61-10.9-19.47-11.26h-.27c-1.31 0 .1.2-3.8.19-4.88-.03-7.41-.35-15.64-.33-2.19 0-18.33.36-24.3.18-5.97-.19-14.63-.3-20.83-.47.88.14 2 .27 2.98.4l-9.3.08-1.33-.5-5.41.47c-3.91-.86.1-.58-8.6-.36-4.36.1-7.82-.04-12.3.05-1.61.03-2.64.28-4.42.32-4.36.07-1.82-.28-4.5-.28-2.72 0-6.61.4-11.47.22 5.07-.68-9.59-.46-10.29.07-1.74 0-3.2-.02-5.13 0 1.78-1.35-7.36-.4-10.99-.21-3.62.18-3.48-.18-4.33-.16-2.44.04-.66.19-2.37.2-11.35.02-22.03-.2-33.23-.22-1.61 0-.18.2-2.06.18s-3.68-.22-6.46-.2c-.75 0-.98.18-2.14.18-24.34-.01-47.46-.17-72.28-.19-2.24 0-4 .32-8.35.3-4.34 0-10.93-.3-16.32-.31-1.43-.01-1.82.26-3.71.25-6.46-.03-12.02-.24-18.72-.28-11.33-.06-23.2.1-34.69-.05-2.18-.03-1.83-.25-4.97-.32-5.42-.1-3.38.22-4.48.26-3.6.14-4.72-.29-8.2-.18-.53.02.23.28-.25.28-7.39.04-7.77-.55-15.63-.23-6.98-.35 4.68-.46 5.88-.65 2.93-.44-4.8-.96-9.36-1.13-3.93-.14-3.9.13-5.46.13-8.27 0-20.58.06-26.87-.07-3.81-.08 3.05-.2 1.1-.29-1.92-.09-3.17.12-5.15-.1-1.98-.23-6.02-.9-5.25-1.22m453.6 254.21c-1.08-12.67-.97-46.3-.87-64.35.09-14.97.93-27.88-.29-24.78 0 16.18.12 29.28.08 46.4 0 1.77-.12 12.4-.14 16.09 0 2.07-.2 2.14-.2 4.97 0 .62.26 4.03.25 5.27-.02 4.28-.43 17-.41 18.77.03 4.92.34 3.03.4 5.16.19 7.13-.28 7.92-.13 14.99.03 1.26.43 5.46.38 10.7-.02 2.13-.23 5.75-.22 7.38.05 8.89.33 18.8.28 26.94-.03 6.67-.35 4.88-.4 8.4-.03 3.53.33 7.8.36 10.2.03 3.86-.18 8.55-.18 9.75.06 23.6.3 44.57.4 67.33.14-15.45.27-30.9.42-46.25-.33-8.72-.02-4.38.08-10.12.08-4.54-.47-5.63-.41-11.6.03-3.07.41-9.74.25-16.3 0-.23-.29-.81-.3-5.72-.02-11.03-.17-27.93-.1-40.34.01-3.65.31-2.9.35-7.21.03-3.15-.25-6.79-.19-11.71.08-6.17.56-9.13-.1-13.38.23-.35.46-.17.7-.59M386.79 8.88c-.87-.03-12.48-.77-9.04.02 15.6.34 32.48.17 48.9.37-5.6-.79-15.1-.48-26.6-.42h-.02c-.54 0 1.73-.2-1.36-.17-1.5.02-7.24.34-11.88.2"/></g><defs><filter id="a" width="500.71" height="532.3" x=".96" y=".5" color-interpolation-filters="sRGB" filterUnits="userSpaceOnUse"><feFlood flood-opacity="0" result="BackgroundImageFix"/><feColorMatrix in="SourceAlpha" result="hardAlpha" values="0 0 0 0 0 0 0 0 0 0 0 0 0 0 0 0 0 0 127 0"/><feOffset dx="4" dy="4"/><feGaussianBlur stdDeviation="5"/><feComposite in2="hardAlpha" operator="out"/><feColorMatrix values="0 0 0 0 0 0 0 0 0 0 0 0 0 0 0 0 0 0 0.25 0"/><feBlend in2="BackgroundImageFix" result="effect1_dropShadow_218_904"/><feBlend in="SourceGraphic" in2="effect1_dropShadow_218_904" result="shape"/></filter></defs></svg>