<svg xmlns="http://www.w3.org/2000/svg" width="292" height="37" fill="none" viewBox="0 0 292 37"><rect width="291" height="36" x=".5" y=".5" fill="#f3727c" stroke="#f3727c" rx="3.5"/><path fill="#fff" d="M23.07 26h-4.49V11.45h4.69q2.12 0 3.62.88 1.5.86 2.31 2.5.8 1.6.8 3.87t-.8 3.91a5.8 5.8 0 0 1-2.36 2.52 7.6 7.6 0 0 1-3.77.87m-2.73-1.56h2.62q1.8 0 2.99-.7a4.3 4.3 0 0 0 1.77-1.98q.57-1.29.58-3.06 0-1.77-.58-3.03A4.2 4.2 0 0 0 26 13.7a5.4 5.4 0 0 0-2.84-.7h-2.82zm16.82 1.79q-1.48 0-2.59-.7a5 5 0 0 1-1.73-1.97 7 7 0 0 1-.62-2.96q0-1.7.62-2.97.63-1.27 1.73-1.98 1.1-.7 2.6-.7 1.47 0 2.58.7a4.7 4.7 0 0 1 1.73 1.98q.63 1.27.63 2.97a6.6 6.6 0 0 1-.63 2.96q-.62 1.27-1.73 1.96-1.1.7-2.59.7m0-1.5q1.13 0 1.85-.58a3.4 3.4 0 0 0 1.07-1.52q.35-.93.35-2.03t-.35-2.04a3.4 3.4 0 0 0-1.07-1.52 3 3 0 0 0-1.85-.59q-1.12 0-1.84.59-.73.59-1.08 1.52-.34.94-.34 2.04 0 1.09.34 2.03a3.4 3.4 0 0 0 1.08 1.52q.72.57 1.84.57m9.6 1.27-3.32-10.9h1.76l2.36 8.34h.11L50 15.1h1.8l2.3 8.32h.1l2.37-8.32h1.76L55 26h-1.64l-2.4-8.38h-.16L48.4 26zm15.46-6.56V26h-1.68V15.1h1.62v1.7h.14q.39-.84 1.17-1.34t2.02-.51q1.1 0 1.93.45.84.45 1.3 1.37.45.9.46 2.3V26H67.5v-6.82q0-1.28-.66-2a2.4 2.4 0 0 0-1.84-.73q-.8 0-1.43.35t-.99 1.02-.36 1.62m11.7-7.99V26h-1.68V11.45zm7.5 14.78q-1.47 0-2.6-.7a5 5 0 0 1-1.73-1.97 7 7 0 0 1-.61-2.96q0-1.7.61-2.97.63-1.27 1.74-1.98 1.1-.7 2.59-.7 1.47 0 2.59.7a4.7 4.7 0 0 1 1.73 1.98q.62 1.27.62 2.97a6.6 6.6 0 0 1-.62 2.96q-.62 1.27-1.73 1.96-1.1.7-2.59.7m0-1.5q1.12 0 1.85-.58a3.4 3.4 0 0 0 1.07-1.52q.35-.93.35-2.03t-.35-2.04a3.4 3.4 0 0 0-1.07-1.52 3 3 0 0 0-1.85-.59q-1.12 0-1.85.59-.72.59-1.07 1.52t-.35 2.04q0 1.09.35 2.03a3.4 3.4 0 0 0 1.07 1.52q.73.57 1.85.57m10.71 1.53q-1.04 0-1.88-.4a3 3 0 0 1-1.34-1.14q-.5-.75-.5-1.82 0-.93.37-1.52t.99-.92q.6-.33 1.36-.5.75-.16 1.51-.27l1.62-.19q.62-.07.9-.23.3-.16.3-.57v-.06q0-1.05-.58-1.63-.56-.58-1.73-.58-1.2 0-1.88.52a3 3 0 0 0-.96 1.12l-1.59-.56a3.8 3.8 0 0 1 2.7-2.33 6.5 6.5 0 0 1 2.89-.1q.68.12 1.32.5.65.38 1.08 1.16.42.77.42 2.07V26h-1.67v-1.48h-.09q-.16.36-.57.76t-1.06.7q-.66.28-1.6.28m.26-1.51q1 0 1.67-.4a2.7 2.7 0 0 0 1.4-2.3v-1.53q-.11.12-.47.23a8 8 0 0 1-.83.18l-1.6.21q-.66.09-1.22.28a2 2 0 0 0-.91.56q-.34.37-.34 1 0 .89.64 1.33.66.45 1.66.44m11.92 1.48a4.3 4.3 0 0 1-4.04-2.65 7 7 0 0 1-.59-3 7 7 0 0 1 .59-2.99q.6-1.27 1.64-1.95 1.05-.7 2.43-.7 1.06 0 1.68.36.63.36.95.8.34.44.52.72h.14v-5.37h1.68V26h-1.62v-1.68h-.2q-.19.3-.52.76-.34.45-.98.8a3.5 3.5 0 0 1-1.68.35m.23-1.5q1 0 1.7-.53a3.3 3.3 0 0 0 1.06-1.47q.36-.95.36-2.18t-.35-2.14a2.8 2.8 0 0 0-2.77-1.95q-1.06 0-1.78.54-.7.54-1.06 1.47-.34.92-.34 2.08a6 6 0 0 0 .35 2.11q.36.94 1.07 1.5.7.56 1.76.56m21.88-9.64a2.2 2.2 0 0 0-1.04-1.68q-.9-.6-2.23-.6-.96 0-1.69.32-.72.31-1.12.86a2.1 2.1 0 0 0-.12 2.24q.29.41.72.7.44.26.93.44l.88.28 1.48.4q.57.15 1.27.4.7.27 1.34.72t1.06 1.16.42 1.72q0 1.18-.61 2.13-.6.96-1.8 1.51-1.16.57-2.84.57a7 7 0 0 1-2.7-.5 4.01 4.01 0 0 1-2.52-3.5h1.8q.09.82.56 1.35a3 3 0 0 0 1.24.8 5 5 0 0 0 1.62.25q1 0 1.8-.32.81-.33 1.28-.93t.47-1.39q0-.72-.4-1.18t-1.07-.73q-.66-.3-1.43-.5l-1.79-.51a7 7 0 0 1-2.7-1.4q-1-.9-1-2.38 0-1.23.67-2.13a4.4 4.4 0 0 1 1.79-1.42q1.13-.51 2.52-.51t2.5.5q1.09.5 1.73 1.36.65.87.68 1.97zm9 11.14q-1.53 0-2.64-.73a4.7 4.7 0 0 1-1.7-2q-.6-1.26-.6-2.9 0-1.65.61-2.93.62-1.28 1.72-2t2.59-.72q1.14 0 2.07.43.93.42 1.51 1.19.6.75.73 1.79h-1.67a2.55 2.55 0 0 0-2.61-1.9q-.99 0-1.72.5-.74.51-1.15 1.43t-.4 2.16q0 1.26.4 2.2.4.93 1.13 1.45.74.52 1.73.52a3 3 0 0 0 1.19-.23 2.5 2.5 0 0 0 1.43-1.67h1.67a3.9 3.9 0 0 1-2.17 2.96q-.9.45-2.12.45m11.32 0a4.67 4.67 0 0 1-4.47-2.66 7 7 0 0 1-.62-2.94q0-1.68.61-2.95.63-1.3 1.72-2 1.1-.73 2.59-.73.85 0 1.68.28a4.2 4.2 0 0 1 2.6 2.6q.4 1.05.4 2.57v.71h-8.4v-1.45h6.7q0-.92-.37-1.64a2.8 2.8 0 0 0-2.61-1.57q-1 0-1.74.5-.72.49-1.11 1.28a4 4 0 0 0-.4 1.7v.96q0 1.23.44 2.1.42.85 1.2 1.3.75.43 1.78.43.66 0 1.2-.18.53-.2.92-.57.39-.38.6-.95l1.62.45a3.6 3.6 0 0 1-.86 1.45q-.6.61-1.49.97-.88.34-2 .34m8.74-6.8V26h-1.68V15.1h1.62v1.7h.15q.38-.84 1.16-1.34t2.02-.51q1.1 0 1.94.45.82.45 1.29 1.37.46.9.46 2.3V26h-1.68v-6.82q0-1.28-.66-2a2.4 2.4 0 0 0-1.84-.73q-.79 0-1.43.35t-.99 1.02q-.36.66-.36 1.62m13.23 6.83q-1.03 0-1.88-.4a3 3 0 0 1-1.34-1.14q-.5-.75-.5-1.82 0-.93.37-1.52.38-.59.99-.92.62-.33 1.36-.5t1.51-.27l1.62-.19q.62-.07.9-.23.3-.16.3-.57v-.06q0-1.05-.58-1.63-.57-.58-1.72-.58-1.2 0-1.89.52a3 3 0 0 0-.95 1.12l-1.6-.56a3.8 3.8 0 0 1 2.7-2.33 6.5 6.5 0 0 1 2.89-.1q.69.12 1.33.5t1.07 1.16q.42.77.42 2.07V26h-1.67v-1.48h-.09q-.17.36-.57.76t-1.05.7-1.62.28m.26-1.51q.99 0 1.68-.4a2.7 2.7 0 0 0 1.39-2.3v-1.53q-.1.12-.47.23a8 8 0 0 1-.82.18l-1.61.21q-.65.09-1.22.28a2 2 0 0 0-.91.56q-.34.37-.34 1 0 .89.65 1.33.64.45 1.65.44m7.8 1.25V15.1h1.62v1.64h.12q.3-.81 1.08-1.32.78-.5 1.76-.5l.88.03v1.7a5 5 0 0 0-1.02-.11q-.79 0-1.43.33-.6.33-.98.91-.35.58-.35 1.32V26zm7.44 0V15.1h1.68V26zm.86-12.73q-.5 0-.85-.33a1 1 0 0 1-.35-.8q0-.47.35-.8.36-.34.85-.34.48 0 .84.33.35.35.35.8 0 .48-.35.8-.36.34-.84.34m8.32 12.96q-1.47 0-2.59-.7a5 5 0 0 1-1.73-1.97 7 7 0 0 1-.62-2.96q0-1.7.62-2.97.63-1.27 1.73-1.98 1.1-.7 2.6-.7 1.47 0 2.58.7a4.7 4.7 0 0 1 1.73 1.98q.63 1.27.63 2.97a6.6 6.6 0 0 1-.63 2.96q-.62 1.27-1.73 1.96-1.1.7-2.59.7m0-1.5q1.13 0 1.85-.58a3.4 3.4 0 0 0 1.07-1.52q.35-.93.35-2.03t-.35-2.04a3.4 3.4 0 0 0-1.07-1.52 3 3 0 0 0-1.85-.59q-1.12 0-1.84.59-.73.59-1.08 1.52-.34.94-.34 2.04 0 1.09.34 2.03.36.94 1.08 1.52.73.57 1.84.57m15.23-7.2-1.5.43a3 3 0 0 0-.42-.73 2 2 0 0 0-.74-.6 3 3 0 0 0-1.2-.23q-1 0-1.67.46-.66.45-.66 1.16 0 .62.45.98.46.38 1.42.6l1.62.4q1.46.36 2.18 1.1.72.72.72 1.86 0 .94-.54 1.68-.53.74-1.5 1.16-.94.43-2.22.43a5 5 0 0 1-2.76-.73 3.2 3.2 0 0 1-1.39-2.11l1.6-.4q.21.89.85 1.32.64.45 1.67.44 1.17 0 1.86-.5t.7-1.2q0-.57-.4-.96a2.5 2.5 0 0 0-1.22-.58l-1.82-.42q-1.5-.36-2.2-1.1t-.7-1.89q0-.92.52-1.63.53-.71 1.43-1.12.91-.4 2.06-.4 1.62 0 2.54.7.93.71 1.32 1.88M217.2 26V11.45h4.91q1.7 0 2.8.62 1.1.61 1.62 1.66t.52 2.33-.52 2.33a4 4 0 0 1-1.6 1.68q-1.1.62-2.8.62h-3.51v-1.57h3.46q1.17 0 1.88-.4.72-.4 1.03-1.1.33-.69.33-1.56t-.33-1.57a2.3 2.3 0 0 0-1.03-1.08 4 4 0 0 0-1.9-.4h-3.1V26zm17.18 0h-4.49V11.45h4.69q2.12 0 3.62.88 1.5.86 2.3 2.5.81 1.6.81 3.87t-.8 3.91a5.8 5.8 0 0 1-2.37 2.52 7.6 7.6 0 0 1-3.76.87m-2.73-1.56h2.62q1.8 0 2.99-.7a4.3 4.3 0 0 0 1.77-1.98q.58-1.29.58-3.06t-.58-3.03a4.3 4.3 0 0 0-1.72-1.96 5.4 5.4 0 0 0-2.84-.7h-2.82zM244.27 26V11.45h8.72v1.57h-6.96v4.91h6.3v1.56h-6.3V26zM261.64 21.86c-.27 0-.5.2-.5.45v.9c0 1.23 1.12 2.24 2.48 2.24H273c1.36 0 2.47-1 2.47-2.24v-.9c0-.25-.22-.45-.5-.45-.27 0-.49.2-.49.45v.9c0 .74-.66 1.34-1.48 1.34h-9.38c-.82 0-1.49-.6-1.49-1.34v-.9c0-.25-.22-.45-.49-.45M268.3 12c-.26 0-.48.2-.48.45v7.66l-2.33-2.12a.6.6 0 0 0-.42-.16q-.15 0-.25.07-.2.12-.22.34 0 .2.15.35l2.38 2.16c.31.28.73.44 1.18.44s.86-.16 1.17-.44l2.39-2.16q.15-.15.14-.36a.4.4 0 0 0-.22-.33c-.18-.12-.48-.08-.66.1l-2.33 2.1v-7.65c0-.25-.22-.45-.5-.45"/></svg>