<svg width="292" height="37" viewBox="0 0 292 37" fill="none" xmlns="http://www.w3.org/2000/svg">
<rect x="0.5" y="0.5" width="291" height="36" rx="3.5" fill="#F3727C" stroke="#F3727C"/>
<path d="M23.0712 26H18.5825V11.4545H23.27C24.681 11.4545 25.8884 11.7457 26.8922 12.3281C27.896 12.9058 28.6654 13.7367 29.2004 14.821C29.7355 15.9006 30.003 17.1932 30.003 18.6989C30.003 20.214 29.7331 21.5185 29.1933 22.6122C28.6535 23.7012 27.8676 24.5393 26.8354 25.1264C25.8032 25.7088 24.5484 26 23.0712 26ZM20.3439 24.4375H22.9575C24.1602 24.4375 25.1569 24.2055 25.9476 23.7415C26.7383 23.2775 27.3278 22.617 27.716 21.7599C28.1043 20.9029 28.2984 19.8826 28.2984 18.6989C28.2984 17.5246 28.1067 16.5137 27.7231 15.6662C27.3396 14.8139 26.7667 14.1605 26.0044 13.706C25.2421 13.2467 24.2928 13.017 23.1564 13.017H20.3439V24.4375ZM37.1621 26.2273C36.1772 26.2273 35.3131 25.9929 34.5697 25.5241C33.8311 25.0554 33.2535 24.3996 32.8368 23.5568C32.4249 22.714 32.2189 21.7292 32.2189 20.6023C32.2189 19.4659 32.4249 18.474 32.8368 17.6264C33.2535 16.7789 33.8311 16.1207 34.5697 15.652C35.3131 15.1832 36.1772 14.9489 37.1621 14.9489C38.1469 14.9489 39.0087 15.1832 39.7473 15.652C40.4907 16.1207 41.0683 16.7789 41.4803 17.6264C41.8969 18.474 42.1053 19.4659 42.1053 20.6023C42.1053 21.7292 41.8969 22.714 41.4803 23.5568C41.0683 24.3996 40.4907 25.0554 39.7473 25.5241C39.0087 25.9929 38.1469 26.2273 37.1621 26.2273ZM37.1621 24.7216C37.9102 24.7216 38.5257 24.5298 39.0087 24.1463C39.4916 23.7628 39.8491 23.2585 40.0811 22.6335C40.3131 22.0085 40.4291 21.3314 40.4291 20.6023C40.4291 19.8731 40.3131 19.1937 40.0811 18.5639C39.8491 17.9342 39.4916 17.4252 39.0087 17.0369C38.5257 16.6487 37.9102 16.4545 37.1621 16.4545C36.414 16.4545 35.7984 16.6487 35.3155 17.0369C34.8325 17.4252 34.475 17.9342 34.243 18.5639C34.011 19.1937 33.895 19.8731 33.895 20.6023C33.895 21.3314 34.011 22.0085 34.243 22.6335C34.475 23.2585 34.8325 23.7628 35.3155 24.1463C35.7984 24.5298 36.414 24.7216 37.1621 24.7216ZM46.7643 26L43.4405 15.0909H45.2018L47.5598 23.4432H47.6734L50.003 15.0909H51.7928L54.0939 23.4148H54.2075L56.5655 15.0909H58.3268L55.003 26H53.3553L50.9689 17.6193H50.7984L48.4121 26H46.7643ZM62.2189 19.4375V26H60.5428V15.0909H62.1621V16.7955H62.3041C62.5598 16.2415 62.9481 15.7964 63.4689 15.4602C63.9897 15.1193 64.6621 14.9489 65.4859 14.9489C66.2246 14.9489 66.8709 15.1004 67.4249 15.4034C67.9788 15.7017 68.4097 16.1562 68.7175 16.767C69.0252 17.3731 69.1791 18.1402 69.1791 19.0682V26H67.503V19.1818C67.503 18.3248 67.2804 17.6572 66.8354 17.179C66.3903 16.696 65.7795 16.4545 65.003 16.4545C64.4679 16.4545 63.9897 16.5705 63.5683 16.8026C63.1517 17.0346 62.8226 17.3731 62.5811 17.8182C62.3396 18.2633 62.2189 18.803 62.2189 19.4375ZM73.9181 11.4545V26H72.242V11.4545H73.9181ZM81.4199 26.2273C80.435 26.2273 79.5709 25.9929 78.8276 25.5241C78.0889 25.0554 77.5113 24.3996 77.0946 23.5568C76.6827 22.714 76.4767 21.7292 76.4767 20.6023C76.4767 19.4659 76.6827 18.474 77.0946 17.6264C77.5113 16.7789 78.0889 16.1207 78.8276 15.652C79.5709 15.1832 80.435 14.9489 81.4199 14.9489C82.4047 14.9489 83.2665 15.1832 84.0051 15.652C84.7485 16.1207 85.3261 16.7789 85.7381 17.6264C86.1547 18.474 86.3631 19.4659 86.3631 20.6023C86.3631 21.7292 86.1547 22.714 85.7381 23.5568C85.3261 24.3996 84.7485 25.0554 84.0051 25.5241C83.2665 25.9929 82.4047 26.2273 81.4199 26.2273ZM81.4199 24.7216C82.168 24.7216 82.7835 24.5298 83.2665 24.1463C83.7494 23.7628 84.1069 23.2585 84.3389 22.6335C84.5709 22.0085 84.6869 21.3314 84.6869 20.6023C84.6869 19.8731 84.5709 19.1937 84.3389 18.5639C84.1069 17.9342 83.7494 17.4252 83.2665 17.0369C82.7835 16.6487 82.168 16.4545 81.4199 16.4545C80.6718 16.4545 80.0562 16.6487 79.5733 17.0369C79.0903 17.4252 78.7329 17.9342 78.5008 18.5639C78.2688 19.1937 78.1528 19.8731 78.1528 20.6023C78.1528 21.3314 78.2688 22.0085 78.5008 22.6335C78.7329 23.2585 79.0903 23.7628 79.5733 24.1463C80.0562 24.5298 80.6718 24.7216 81.4199 24.7216ZM92.1319 26.2557C91.4406 26.2557 90.8132 26.1255 90.2498 25.8651C89.6863 25.5999 89.2389 25.2188 88.9075 24.7216C88.576 24.2197 88.4103 23.6136 88.4103 22.9034C88.4103 22.2784 88.5334 21.7718 88.7796 21.3835C89.0258 20.9905 89.3549 20.6828 89.7668 20.4602C90.1788 20.2377 90.6333 20.072 91.1305 19.9631C91.6324 19.8494 92.1366 19.7595 92.6432 19.6932C93.3061 19.608 93.8435 19.544 94.2555 19.5014C94.6721 19.4541 94.9752 19.3759 95.1646 19.267C95.3587 19.1581 95.4557 18.9687 95.4557 18.6989V18.642C95.4557 17.9413 95.264 17.3968 94.8805 17.0085C94.5017 16.6203 93.9264 16.4261 93.1546 16.4261C92.3544 16.4261 91.7271 16.6013 91.2725 16.9517C90.818 17.3021 90.4984 17.6761 90.3137 18.0739L88.7228 17.5057C89.0069 16.8428 89.3857 16.3267 89.8592 15.9574C90.3374 15.5833 90.8582 15.3229 91.4217 15.1761C91.9898 15.0246 92.5486 14.9489 93.0978 14.9489C93.4482 14.9489 93.8506 14.9915 94.3052 15.0767C94.7645 15.1572 95.2072 15.3253 95.6333 15.581C96.0642 15.8366 96.4217 16.2225 96.7057 16.7386C96.9898 17.2547 97.1319 17.946 97.1319 18.8125V26H95.4557V24.5227H95.3705C95.2569 24.7595 95.0675 25.0128 94.8023 25.2827C94.5372 25.5526 94.1844 25.7822 93.7441 25.9716C93.3038 26.161 92.7664 26.2557 92.1319 26.2557ZM92.3876 24.75C93.0504 24.75 93.6092 24.6198 94.0637 24.3594C94.523 24.099 94.8686 23.7628 95.1006 23.3509C95.3374 22.9389 95.4557 22.5057 95.4557 22.0511V20.517C95.3847 20.6023 95.2285 20.6804 94.987 20.7514C94.7503 20.8177 94.4756 20.8769 94.1631 20.929C93.8554 20.9763 93.5547 21.0189 93.2611 21.0568C92.9723 21.09 92.7379 21.1184 92.558 21.142C92.1224 21.1989 91.7152 21.2912 91.3364 21.419C90.9624 21.5421 90.6593 21.7292 90.4273 21.9801C90.2001 22.2263 90.0864 22.5625 90.0864 22.9886C90.0864 23.571 90.3019 24.0114 90.7327 24.3097C91.1683 24.6032 91.72 24.75 92.3876 24.75ZM104.311 26.2273C103.401 26.2273 102.599 25.9976 101.903 25.5384C101.207 25.0743 100.662 24.4209 100.269 23.5781C99.8763 22.7306 99.6798 21.7292 99.6798 20.5739C99.6798 19.428 99.8763 18.4337 100.269 17.5909C100.662 16.7481 101.209 16.0971 101.91 15.6378C102.611 15.1785 103.42 14.9489 104.339 14.9489C105.049 14.9489 105.61 15.0672 106.022 15.304C106.439 15.536 106.756 15.8011 106.974 16.0994C107.196 16.393 107.369 16.6345 107.492 16.8239H107.634V11.4545H109.311V26H107.691V24.3239H107.492C107.369 24.5227 107.194 24.7737 106.967 25.0767C106.739 25.375 106.415 25.6425 105.994 25.8793C105.572 26.1113 105.011 26.2273 104.311 26.2273ZM104.538 24.7216C105.21 24.7216 105.778 24.5464 106.242 24.196C106.706 23.8409 107.059 23.3509 107.301 22.7259C107.542 22.0961 107.663 21.3693 107.663 20.5455C107.663 19.7311 107.544 19.0185 107.308 18.4077C107.071 17.7921 106.721 17.3139 106.257 16.973C105.793 16.6274 105.22 16.4545 104.538 16.4545C103.828 16.4545 103.236 16.6368 102.762 17.0014C102.293 17.3613 101.941 17.8513 101.704 18.4716C101.472 19.0871 101.356 19.7784 101.356 20.5455C101.356 21.322 101.474 22.0275 101.711 22.6619C101.953 23.2917 102.308 23.7936 102.776 24.1676C103.25 24.5369 103.837 24.7216 104.538 24.7216ZM126.42 15.0909C126.335 14.3712 125.989 13.8125 125.383 13.4148C124.777 13.017 124.034 12.8182 123.153 12.8182C122.509 12.8182 121.945 12.9223 121.462 13.1307C120.984 13.339 120.61 13.6255 120.34 13.9901C120.075 14.3546 119.943 14.7689 119.943 15.233C119.943 15.6212 120.035 15.955 120.22 16.2344C120.409 16.509 120.65 16.7386 120.944 16.9233C121.238 17.1032 121.545 17.2524 121.867 17.3707C122.189 17.4844 122.485 17.5767 122.755 17.6477L124.232 18.0455C124.611 18.1449 125.033 18.2822 125.497 18.4574C125.965 18.6326 126.413 18.8717 126.839 19.1747C127.27 19.473 127.625 19.8565 127.904 20.3253C128.184 20.794 128.323 21.3693 128.323 22.0511C128.323 22.8371 128.117 23.5473 127.705 24.1818C127.298 24.8163 126.702 25.3205 125.916 25.6946C125.134 26.0687 124.185 26.2557 123.068 26.2557C122.026 26.2557 121.124 26.0876 120.362 25.7514C119.604 25.4152 119.007 24.9465 118.572 24.3452C118.141 23.7438 117.897 23.0455 117.84 22.25H119.659C119.706 22.7992 119.891 23.2538 120.212 23.6136C120.539 23.9687 120.951 24.2339 121.448 24.4091C121.95 24.5795 122.49 24.6648 123.068 24.6648C123.74 24.6648 124.344 24.5559 124.879 24.3381C125.414 24.1155 125.837 23.8078 126.15 23.4148C126.462 23.017 126.619 22.553 126.619 22.0227C126.619 21.5398 126.484 21.1468 126.214 20.8438C125.944 20.5407 125.589 20.2945 125.149 20.1051C124.708 19.9157 124.232 19.75 123.721 19.608L121.931 19.0966C120.795 18.7699 119.895 18.3035 119.232 17.6974C118.57 17.0914 118.238 16.2983 118.238 15.3182C118.238 14.5038 118.458 13.7936 118.899 13.1875C119.344 12.5767 119.94 12.1032 120.688 11.767C121.441 11.4261 122.282 11.2557 123.21 11.2557C124.147 11.2557 124.98 11.4238 125.71 11.7599C126.439 12.0914 127.016 12.5459 127.443 13.1236C127.873 13.7012 128.101 14.357 128.124 15.0909H126.42ZM135.424 26.2273C134.401 26.2273 133.52 25.9858 132.782 25.5028C132.043 25.0199 131.475 24.3546 131.077 23.5071C130.679 22.6596 130.481 21.6913 130.481 20.6023C130.481 19.4943 130.684 18.5166 131.091 17.669C131.503 16.8168 132.076 16.1515 132.81 15.6733C133.549 15.1903 134.411 14.9489 135.395 14.9489C136.162 14.9489 136.854 15.0909 137.469 15.375C138.085 15.6591 138.589 16.0568 138.982 16.5682C139.375 17.0795 139.619 17.6761 139.714 18.358H138.037C137.91 17.8608 137.625 17.4205 137.185 17.0369C136.75 16.6487 136.162 16.4545 135.424 16.4545C134.77 16.4545 134.197 16.625 133.705 16.9659C133.217 17.3021 132.836 17.7779 132.562 18.3935C132.292 19.0043 132.157 19.7216 132.157 20.5455C132.157 21.3883 132.289 22.1222 132.554 22.7472C132.824 23.3722 133.203 23.8575 133.691 24.2031C134.183 24.5488 134.761 24.7216 135.424 24.7216C135.859 24.7216 136.255 24.6458 136.61 24.4943C136.965 24.3428 137.266 24.125 137.512 23.8409C137.758 23.5568 137.933 23.2159 138.037 22.8182H139.714C139.619 23.4621 139.384 24.0421 139.01 24.5582C138.641 25.0696 138.151 25.4768 137.54 25.7798C136.934 26.0781 136.229 26.2273 135.424 26.2273ZM146.738 26.2273C145.687 26.2273 144.78 25.9953 144.018 25.5312C143.26 25.0625 142.675 24.4091 142.263 23.571C141.856 22.7282 141.652 21.7481 141.652 20.6307C141.652 19.5133 141.856 18.5284 142.263 17.6761C142.675 16.8191 143.248 16.1515 143.982 15.6733C144.721 15.1903 145.582 14.9489 146.567 14.9489C147.135 14.9489 147.697 15.0436 148.25 15.233C148.804 15.4223 149.309 15.7301 149.763 16.1562C150.218 16.5777 150.58 17.1364 150.85 17.8324C151.12 18.5284 151.255 19.3854 151.255 20.4034V21.1136H142.846V19.6648H149.55C149.55 19.0492 149.427 18.5 149.181 18.017C148.939 17.5341 148.594 17.1529 148.144 16.8736C147.699 16.5942 147.173 16.4545 146.567 16.4545C145.9 16.4545 145.322 16.6203 144.834 16.9517C144.351 17.2784 143.98 17.7045 143.719 18.2301C143.459 18.7557 143.329 19.3191 143.329 19.9205V20.8864C143.329 21.7102 143.471 22.4086 143.755 22.9815C144.044 23.5497 144.444 23.983 144.955 24.2812C145.466 24.5748 146.061 24.7216 146.738 24.7216C147.178 24.7216 147.576 24.66 147.931 24.5369C148.291 24.4091 148.601 24.2197 148.861 23.9688C149.122 23.7131 149.323 23.3958 149.465 23.017L151.084 23.4716C150.914 24.0208 150.627 24.5038 150.225 24.9205C149.822 25.3324 149.325 25.6544 148.733 25.8864C148.142 26.1136 147.476 26.2273 146.738 26.2273ZM155.481 19.4375V26H153.804V15.0909H155.424V16.7955H155.566C155.822 16.2415 156.21 15.7964 156.731 15.4602C157.251 15.1193 157.924 14.9489 158.748 14.9489C159.486 14.9489 160.133 15.1004 160.687 15.4034C161.241 15.7017 161.671 16.1562 161.979 16.767C162.287 17.3731 162.441 18.1402 162.441 19.0682V26H160.765V19.1818C160.765 18.3248 160.542 17.6572 160.097 17.179C159.652 16.696 159.041 16.4545 158.265 16.4545C157.73 16.4545 157.251 16.5705 156.83 16.8026C156.413 17.0346 156.084 17.3731 155.843 17.8182C155.601 18.2633 155.481 18.803 155.481 19.4375ZM168.714 26.2557C168.023 26.2557 167.395 26.1255 166.832 25.8651C166.268 25.5999 165.821 25.2188 165.489 24.7216C165.158 24.2197 164.992 23.6136 164.992 22.9034C164.992 22.2784 165.115 21.7718 165.362 21.3835C165.608 20.9905 165.937 20.6828 166.349 20.4602C166.761 20.2377 167.215 20.072 167.713 19.9631C168.214 19.8494 168.719 19.7595 169.225 19.6932C169.888 19.608 170.426 19.544 170.838 19.5014C171.254 19.4541 171.557 19.3759 171.747 19.267C171.941 19.1581 172.038 18.9687 172.038 18.6989V18.642C172.038 17.9413 171.846 17.3968 171.463 17.0085C171.084 16.6203 170.508 16.4261 169.737 16.4261C168.936 16.4261 168.309 16.6013 167.855 16.9517C167.4 17.3021 167.08 17.6761 166.896 18.0739L165.305 17.5057C165.589 16.8428 165.968 16.3267 166.441 15.9574C166.919 15.5833 167.44 15.3229 168.004 15.1761C168.572 15.0246 169.131 14.9489 169.68 14.9489C170.03 14.9489 170.433 14.9915 170.887 15.0767C171.346 15.1572 171.789 15.3253 172.215 15.581C172.646 15.8366 173.004 16.2225 173.288 16.7386C173.572 17.2547 173.714 17.946 173.714 18.8125V26H172.038V24.5227H171.953C171.839 24.7595 171.65 25.0128 171.384 25.2827C171.119 25.5526 170.766 25.7822 170.326 25.9716C169.886 26.161 169.348 26.2557 168.714 26.2557ZM168.97 24.75C169.632 24.75 170.191 24.6198 170.646 24.3594C171.105 24.099 171.451 23.7628 171.683 23.3509C171.919 22.9389 172.038 22.5057 172.038 22.0511V20.517C171.967 20.6023 171.811 20.6804 171.569 20.7514C171.332 20.8177 171.058 20.8769 170.745 20.929C170.437 20.9763 170.137 21.0189 169.843 21.0568C169.554 21.09 169.32 21.1184 169.14 21.142C168.704 21.1989 168.297 21.2912 167.918 21.419C167.544 21.5421 167.241 21.7292 167.009 21.9801C166.782 22.2263 166.668 22.5625 166.668 22.9886C166.668 23.571 166.884 24.0114 167.315 24.3097C167.75 24.6032 168.302 24.75 168.97 24.75ZM176.773 26V15.0909H178.393V16.7386H178.506C178.705 16.1989 179.065 15.7609 179.586 15.4247C180.107 15.0885 180.694 14.9205 181.347 14.9205C181.47 14.9205 181.624 14.9228 181.809 14.9276C181.993 14.9323 182.133 14.9394 182.228 14.9489V16.6534C182.171 16.6392 182.041 16.6179 181.837 16.5895C181.638 16.5563 181.428 16.5398 181.205 16.5398C180.675 16.5398 180.201 16.651 179.785 16.8736C179.373 17.0914 179.046 17.3944 178.804 17.7827C178.568 18.1662 178.449 18.6042 178.449 19.0966V26H176.773ZM184.215 26V15.0909H185.891V26H184.215ZM185.067 13.2727C184.74 13.2727 184.458 13.1615 184.222 12.9389C183.99 12.7164 183.874 12.4489 183.874 12.1364C183.874 11.8239 183.99 11.5563 184.222 11.3338C184.458 11.1113 184.74 11 185.067 11C185.394 11 185.673 11.1113 185.905 11.3338C186.142 11.5563 186.26 11.8239 186.26 12.1364C186.26 12.4489 186.142 12.7164 185.905 12.9389C185.673 13.1615 185.394 13.2727 185.067 13.2727ZM193.393 26.2273C192.408 26.2273 191.544 25.9929 190.8 25.5241C190.062 25.0554 189.484 24.3996 189.067 23.5568C188.655 22.714 188.449 21.7292 188.449 20.6023C188.449 19.4659 188.655 18.474 189.067 17.6264C189.484 16.7789 190.062 16.1207 190.8 15.652C191.544 15.1832 192.408 14.9489 193.393 14.9489C194.377 14.9489 195.239 15.1832 195.978 15.652C196.721 16.1207 197.299 16.7789 197.711 17.6264C198.127 18.474 198.336 19.4659 198.336 20.6023C198.336 21.7292 198.127 22.714 197.711 23.5568C197.299 24.3996 196.721 25.0554 195.978 25.5241C195.239 25.9929 194.377 26.2273 193.393 26.2273ZM193.393 24.7216C194.141 24.7216 194.756 24.5298 195.239 24.1463C195.722 23.7628 196.08 23.2585 196.312 22.6335C196.544 22.0085 196.66 21.3314 196.66 20.6023C196.66 19.8731 196.544 19.1937 196.312 18.5639C196.08 17.9342 195.722 17.4252 195.239 17.0369C194.756 16.6487 194.141 16.4545 193.393 16.4545C192.644 16.4545 192.029 16.6487 191.546 17.0369C191.063 17.4252 190.706 17.9342 190.474 18.5639C190.242 19.1937 190.125 19.8731 190.125 20.6023C190.125 21.3314 190.242 22.0085 190.474 22.6335C190.706 23.2585 191.063 23.7628 191.546 24.1463C192.029 24.5298 192.644 24.7216 193.393 24.7216ZM208.622 17.5341L207.116 17.9602C207.021 17.7093 206.882 17.4654 206.697 17.2287C206.517 16.9872 206.271 16.7884 205.958 16.6321C205.646 16.4759 205.246 16.3977 204.758 16.3977C204.09 16.3977 203.534 16.5516 203.089 16.8594C202.649 17.1624 202.428 17.5483 202.428 18.017C202.428 18.4337 202.58 18.7628 202.883 19.0043C203.186 19.2457 203.659 19.447 204.303 19.608L205.923 20.0057C206.898 20.2424 207.625 20.6046 208.103 21.0923C208.581 21.5753 208.82 22.1979 208.82 22.9602C208.82 23.5852 208.641 24.1439 208.281 24.6364C207.926 25.1288 207.428 25.517 206.789 25.8011C206.15 26.0852 205.407 26.2273 204.559 26.2273C203.446 26.2273 202.525 25.9858 201.796 25.5028C201.067 25.0199 200.605 24.3144 200.411 23.3864L202.002 22.9886C202.154 23.5758 202.44 24.0161 202.862 24.3097C203.288 24.6032 203.844 24.75 204.531 24.75C205.312 24.75 205.932 24.5843 206.391 24.2528C206.855 23.9167 207.088 23.5142 207.088 23.0455C207.088 22.6667 206.955 22.3494 206.69 22.0938C206.425 21.8333 206.017 21.6392 205.468 21.5114L203.65 21.0852C202.651 20.8485 201.917 20.4815 201.448 19.9844C200.984 19.4825 200.752 18.8551 200.752 18.1023C200.752 17.4867 200.925 16.9422 201.271 16.4688C201.621 15.9953 202.097 15.6236 202.698 15.3537C203.304 15.0838 203.991 14.9489 204.758 14.9489C205.838 14.9489 206.685 15.1856 207.301 15.6591C207.921 16.1326 208.361 16.7576 208.622 17.5341ZM217.196 26V11.4545H222.111C223.252 11.4545 224.184 11.6605 224.909 12.0724C225.638 12.4796 226.178 13.0312 226.528 13.7273C226.879 14.4233 227.054 15.1998 227.054 16.0568C227.054 16.9138 226.879 17.6927 226.528 18.3935C226.183 19.0942 225.648 19.6529 224.923 20.0696C224.199 20.4815 223.271 20.6875 222.139 20.6875H218.616V19.125H222.082C222.863 19.125 223.491 18.9901 223.964 18.7202C224.438 18.4503 224.781 18.0857 224.994 17.6264C225.212 17.1624 225.321 16.6392 225.321 16.0568C225.321 15.4744 225.212 14.9536 224.994 14.4943C224.781 14.035 224.435 13.6752 223.957 13.4148C223.479 13.1496 222.844 13.017 222.054 13.017H218.957V26H217.196ZM234.38 26H229.891V11.4545H234.579C235.99 11.4545 237.197 11.7457 238.201 12.3281C239.205 12.9058 239.974 13.7367 240.509 14.821C241.044 15.9006 241.312 17.1932 241.312 18.6989C241.312 20.214 241.042 21.5185 240.502 22.6122C239.962 23.7012 239.176 24.5393 238.144 25.1264C237.112 25.7088 235.857 26 234.38 26ZM231.652 24.4375H234.266C235.469 24.4375 236.465 24.2055 237.256 23.7415C238.047 23.2775 238.636 22.617 239.025 21.7599C239.413 20.9029 239.607 19.8826 239.607 18.6989C239.607 17.5246 239.415 16.5137 239.032 15.6662C238.648 14.8139 238.075 14.1605 237.313 13.706C236.551 13.2467 235.601 13.017 234.465 13.017H231.652V24.4375ZM244.266 26V11.4545H252.988V13.017H246.027V17.9318H252.334V19.4943H246.027V26H244.266Z" fill="white"/>
<path d="M261.641 21.8633C261.369 21.8633 261.147 22.0647 261.147 22.3116V23.2081C261.147 24.4435 262.255 25.4495 263.617 25.4495H273.002C274.363 25.4495 275.472 24.4435 275.472 23.2081V22.3116C275.472 22.0646 275.25 21.8633 274.978 21.8633C274.705 21.8633 274.484 22.0647 274.484 22.3116V23.2081C274.484 23.9497 273.819 24.5529 273.002 24.5529H263.617C262.8 24.5529 262.135 23.9497 262.135 23.2081V22.3116C262.135 22.0646 261.913 21.8633 261.641 21.8633Z" fill="white"/>
<path d="M268.309 12C268.037 12 267.816 12.2014 267.816 12.4483V20.1075L265.487 17.994C265.376 17.8933 265.225 17.8346 265.074 17.8346C264.977 17.8346 264.891 17.8591 264.819 17.9038C264.693 17.9843 264.619 18.1008 264.604 18.2356C264.591 18.3678 264.643 18.4983 264.747 18.592L267.128 20.7458C267.444 21.0303 267.861 21.1871 268.306 21.1871C268.75 21.1871 269.17 21.0303 269.484 20.7458L271.866 18.5893C271.971 18.4948 272.022 18.3652 272.009 18.233C271.997 18.0964 271.922 17.9817 271.794 17.9012C271.609 17.7821 271.315 17.8224 271.127 17.9905L268.799 20.104L268.8 12.4484C268.8 12.2015 268.579 12.0001 268.307 12.0001L268.309 12Z" fill="white"/>
</svg>
