<svg width="292" height="37" viewBox="0 0 292 37" fill="none" xmlns="http://www.w3.org/2000/svg">
<rect x="0.5" y="0.5" width="291" height="36" rx="3.5" stroke="#F3727C"/>
<path d="M23.0674 26H18.5787V11.4545H23.2662C24.6772 11.4545 25.8846 11.7457 26.8884 12.3281C27.8922 12.9058 28.6616 13.7367 29.1966 14.821C29.7317 15.9006 29.9992 17.1932 29.9992 18.6989C29.9992 20.214 29.7293 21.5185 29.1895 22.6122C28.6498 23.7012 27.8638 24.5393 26.8316 25.1264C25.7994 25.7088 24.5447 26 23.0674 26ZM20.3401 24.4375H22.9537C24.1564 24.4375 25.1531 24.2055 25.9438 23.7415C26.7345 23.2775 27.324 22.617 27.7123 21.7599C28.1005 20.9029 28.2947 19.8826 28.2947 18.6989C28.2947 17.5246 28.1029 16.5137 27.7194 15.6662C27.3358 14.8139 26.7629 14.1605 26.0006 13.706C25.2383 13.2467 24.289 13.017 23.1526 13.017H20.3401V24.4375ZM37.1583 26.2273C36.1734 26.2273 35.3093 25.9929 34.566 25.5241C33.8273 25.0554 33.2497 24.3996 32.833 23.5568C32.4211 22.714 32.2151 21.7292 32.2151 20.6023C32.2151 19.4659 32.4211 18.474 32.833 17.6264C33.2497 16.7789 33.8273 16.1207 34.566 15.652C35.3093 15.1832 36.1734 14.9489 37.1583 14.9489C38.1431 14.9489 39.0049 15.1832 39.7435 15.652C40.4869 16.1207 41.0645 16.7789 41.4765 17.6264C41.8931 18.474 42.1015 19.4659 42.1015 20.6023C42.1015 21.7292 41.8931 22.714 41.4765 23.5568C41.0645 24.3996 40.4869 25.0554 39.7435 25.5241C39.0049 25.9929 38.1431 26.2273 37.1583 26.2273ZM37.1583 24.7216C37.9064 24.7216 38.5219 24.5298 39.0049 24.1463C39.4878 23.7628 39.8453 23.2585 40.0773 22.6335C40.3093 22.0085 40.4253 21.3314 40.4253 20.6023C40.4253 19.8731 40.3093 19.1937 40.0773 18.5639C39.8453 17.9342 39.4878 17.4252 39.0049 17.0369C38.5219 16.6487 37.9064 16.4545 37.1583 16.4545C36.4102 16.4545 35.7947 16.6487 35.3117 17.0369C34.8287 17.4252 34.4713 17.9342 34.2393 18.5639C34.0073 19.1937 33.8912 19.8731 33.8912 20.6023C33.8912 21.3314 34.0073 22.0085 34.2393 22.6335C34.4713 23.2585 34.8287 23.7628 35.3117 24.1463C35.7947 24.5298 36.4102 24.7216 37.1583 24.7216ZM46.7606 26L43.4367 15.0909H45.1981L47.556 23.4432H47.6697L49.9992 15.0909H51.789L54.0901 23.4148H54.2037L56.5617 15.0909H58.3231L54.9992 26H53.3515L50.9651 17.6193H50.7947L48.4083 26H46.7606ZM62.2151 19.4375V26H60.539V15.0909H62.1583V16.7955H62.3003C62.556 16.2415 62.9443 15.7964 63.4651 15.4602C63.9859 15.1193 64.6583 14.9489 65.4822 14.9489C66.2208 14.9489 66.8671 15.1004 67.4211 15.4034C67.9751 15.7017 68.4059 16.1562 68.7137 16.767C69.0215 17.3731 69.1753 18.1402 69.1753 19.0682V26H67.4992V19.1818C67.4992 18.3248 67.2767 17.6572 66.8316 17.179C66.3865 16.696 65.7757 16.4545 64.9992 16.4545C64.4642 16.4545 63.9859 16.5705 63.5645 16.8026C63.1479 17.0346 62.8188 17.3731 62.5773 17.8182C62.3358 18.2633 62.2151 18.803 62.2151 19.4375ZM73.9143 11.4545V26H72.2382V11.4545H73.9143ZM81.4161 26.2273C80.4313 26.2273 79.5671 25.9929 78.8238 25.5241C78.0851 25.0554 77.5075 24.3996 77.0908 23.5568C76.6789 22.714 76.4729 21.7292 76.4729 20.6023C76.4729 19.4659 76.6789 18.474 77.0908 17.6264C77.5075 16.7789 78.0851 16.1207 78.8238 15.652C79.5671 15.1832 80.4313 14.9489 81.4161 14.9489C82.401 14.9489 83.2627 15.1832 84.0013 15.652C84.7447 16.1207 85.3224 16.7789 85.7343 17.6264C86.151 18.474 86.3593 19.4659 86.3593 20.6023C86.3593 21.7292 86.151 22.714 85.7343 23.5568C85.3224 24.3996 84.7447 25.0554 84.0013 25.5241C83.2627 25.9929 82.401 26.2273 81.4161 26.2273ZM81.4161 24.7216C82.1642 24.7216 82.7797 24.5298 83.2627 24.1463C83.7456 23.7628 84.1031 23.2585 84.3351 22.6335C84.5671 22.0085 84.6832 21.3314 84.6832 20.6023C84.6832 19.8731 84.5671 19.1937 84.3351 18.5639C84.1031 17.9342 83.7456 17.4252 83.2627 17.0369C82.7797 16.6487 82.1642 16.4545 81.4161 16.4545C80.668 16.4545 80.0525 16.6487 79.5695 17.0369C79.0866 17.4252 78.7291 17.9342 78.4971 18.5639C78.2651 19.1937 78.1491 19.8731 78.1491 20.6023C78.1491 21.3314 78.2651 22.0085 78.4971 22.6335C78.7291 23.2585 79.0866 23.7628 79.5695 24.1463C80.0525 24.5298 80.668 24.7216 81.4161 24.7216ZM92.1281 26.2557C91.4368 26.2557 90.8095 26.1255 90.246 25.8651C89.6826 25.5999 89.2351 25.2188 88.9037 24.7216C88.5722 24.2197 88.4065 23.6136 88.4065 22.9034C88.4065 22.2784 88.5296 21.7718 88.7758 21.3835C89.022 20.9905 89.3511 20.6828 89.7631 20.4602C90.175 20.2377 90.6295 20.072 91.1267 19.9631C91.6286 19.8494 92.1328 19.7595 92.6395 19.6932C93.3023 19.608 93.8398 19.544 94.2517 19.5014C94.6684 19.4541 94.9714 19.3759 95.1608 19.267C95.3549 19.1581 95.452 18.9687 95.452 18.6989V18.642C95.452 17.9413 95.2602 17.3968 94.8767 17.0085C94.4979 16.6203 93.9226 16.4261 93.1508 16.4261C92.3506 16.4261 91.7233 16.6013 91.2687 16.9517C90.8142 17.3021 90.4946 17.6761 90.3099 18.0739L88.719 17.5057C89.0031 16.8428 89.3819 16.3267 89.8554 15.9574C90.3336 15.5833 90.8544 15.3229 91.4179 15.1761C91.9861 15.0246 92.5448 14.9489 93.094 14.9489C93.4444 14.9489 93.8469 14.9915 94.3014 15.0767C94.7607 15.1572 95.2034 15.3253 95.6295 15.581C96.0604 15.8366 96.4179 16.2225 96.702 16.7386C96.9861 17.2547 97.1281 17.946 97.1281 18.8125V26H95.452V24.5227H95.3667C95.2531 24.7595 95.0637 25.0128 94.7986 25.2827C94.5334 25.5526 94.1807 25.7822 93.7403 25.9716C93.3 26.161 92.7626 26.2557 92.1281 26.2557ZM92.3838 24.75C93.0467 24.75 93.6054 24.6198 94.0599 24.3594C94.5192 24.099 94.8648 23.7628 95.0969 23.3509C95.3336 22.9389 95.452 22.5057 95.452 22.0511V20.517C95.3809 20.6023 95.2247 20.6804 94.9832 20.7514C94.7465 20.8177 94.4719 20.8769 94.1594 20.929C93.8516 20.9763 93.5509 21.0189 93.2574 21.0568C92.9685 21.09 92.7342 21.1184 92.5542 21.142C92.1186 21.1989 91.7114 21.2912 91.3327 21.419C90.9586 21.5421 90.6556 21.7292 90.4236 21.9801C90.1963 22.2263 90.0827 22.5625 90.0827 22.9886C90.0827 23.571 90.2981 24.0114 90.729 24.3097C91.1646 24.6032 91.7162 24.75 92.3838 24.75ZM104.307 26.2273C103.398 26.2273 102.595 25.9976 101.899 25.5384C101.203 25.0743 100.659 24.4209 100.266 23.5781C99.8725 22.7306 99.676 21.7292 99.676 20.5739C99.676 19.428 99.8725 18.4337 100.266 17.5909C100.659 16.7481 101.205 16.0971 101.906 15.6378C102.607 15.1785 103.417 14.9489 104.335 14.9489C105.045 14.9489 105.606 15.0672 106.018 15.304C106.435 15.536 106.752 15.8011 106.97 16.0994C107.193 16.393 107.365 16.6345 107.489 16.8239H107.631V11.4545H109.307V26H107.687V24.3239H107.489C107.365 24.5227 107.19 24.7737 106.963 25.0767C106.736 25.375 106.411 25.6425 105.99 25.8793C105.569 26.1113 105.007 26.2273 104.307 26.2273ZM104.534 24.7216C105.206 24.7216 105.775 24.5464 106.239 24.196C106.703 23.8409 107.055 23.3509 107.297 22.7259C107.538 22.0961 107.659 21.3693 107.659 20.5455C107.659 19.7311 107.541 19.0185 107.304 18.4077C107.067 17.7921 106.717 17.3139 106.253 16.973C105.789 16.6274 105.216 16.4545 104.534 16.4545C103.824 16.4545 103.232 16.6368 102.758 17.0014C102.29 17.3613 101.937 17.8513 101.7 18.4716C101.468 19.0871 101.352 19.7784 101.352 20.5455C101.352 21.322 101.471 22.0275 101.707 22.6619C101.949 23.2917 102.304 23.7936 102.773 24.1676C103.246 24.5369 103.833 24.7216 104.534 24.7216ZM126.416 15.0909C126.331 14.3712 125.985 13.8125 125.379 13.4148C124.773 13.017 124.03 12.8182 123.149 12.8182C122.505 12.8182 121.942 12.9223 121.459 13.1307C120.98 13.339 120.606 13.6255 120.337 13.9901C120.071 14.3546 119.939 14.7689 119.939 15.233C119.939 15.6212 120.031 15.955 120.216 16.2344C120.405 16.509 120.647 16.7386 120.94 16.9233C121.234 17.1032 121.542 17.2524 121.864 17.3707C122.186 17.4844 122.481 17.5767 122.751 17.6477L124.229 18.0455C124.607 18.1449 125.029 18.2822 125.493 18.4574C125.962 18.6326 126.409 18.8717 126.835 19.1747C127.266 19.473 127.621 19.8565 127.9 20.3253C128.18 20.794 128.32 21.3693 128.32 22.0511C128.32 22.8371 128.114 23.5473 127.702 24.1818C127.294 24.8163 126.698 25.3205 125.912 25.6946C125.131 26.0687 124.181 26.2557 123.064 26.2557C122.022 26.2557 121.12 26.0876 120.358 25.7514C119.6 25.4152 119.004 24.9465 118.568 24.3452C118.137 23.7438 117.893 23.0455 117.837 22.25H119.655C119.702 22.7992 119.887 23.2538 120.209 23.6136C120.535 23.9687 120.947 24.2339 121.445 24.4091C121.946 24.5795 122.486 24.6648 123.064 24.6648C123.736 24.6648 124.34 24.5559 124.875 24.3381C125.41 24.1155 125.834 23.8078 126.146 23.4148C126.459 23.017 126.615 22.553 126.615 22.0227C126.615 21.5398 126.48 21.1468 126.21 20.8438C125.94 20.5407 125.585 20.2945 125.145 20.1051C124.704 19.9157 124.229 19.75 123.717 19.608L121.927 19.0966C120.791 18.7699 119.891 18.3035 119.229 17.6974C118.566 17.0914 118.234 16.2983 118.234 15.3182C118.234 14.5038 118.454 13.7936 118.895 13.1875C119.34 12.5767 119.936 12.1032 120.685 11.767C121.437 11.4261 122.278 11.2557 123.206 11.2557C124.143 11.2557 124.977 11.4238 125.706 11.7599C126.435 12.0914 127.013 12.5459 127.439 13.1236C127.87 13.7012 128.097 14.357 128.121 15.0909H126.416ZM135.42 26.2273C134.397 26.2273 133.517 25.9858 132.778 25.5028C132.039 25.0199 131.471 24.3546 131.073 23.5071C130.676 22.6596 130.477 21.6913 130.477 20.6023C130.477 19.4943 130.68 18.5166 131.088 17.669C131.5 16.8168 132.072 16.1515 132.806 15.6733C133.545 15.1903 134.407 14.9489 135.392 14.9489C136.159 14.9489 136.85 15.0909 137.465 15.375C138.081 15.6591 138.585 16.0568 138.978 16.5682C139.371 17.0795 139.615 17.6761 139.71 18.358H138.034C137.906 17.8608 137.622 17.4205 137.181 17.0369C136.746 16.6487 136.159 16.4545 135.42 16.4545C134.767 16.4545 134.194 16.625 133.701 16.9659C133.214 17.3021 132.832 17.7779 132.558 18.3935C132.288 19.0043 132.153 19.7216 132.153 20.5455C132.153 21.3883 132.286 22.1222 132.551 22.7472C132.821 23.3722 133.199 23.8575 133.687 24.2031C134.179 24.5488 134.757 24.7216 135.42 24.7216C135.856 24.7216 136.251 24.6458 136.606 24.4943C136.961 24.3428 137.262 24.125 137.508 23.8409C137.754 23.5568 137.929 23.2159 138.034 22.8182H139.71C139.615 23.4621 139.381 24.0421 139.007 24.5582C138.637 25.0696 138.147 25.4768 137.536 25.7798C136.93 26.0781 136.225 26.2273 135.42 26.2273ZM146.734 26.2273C145.683 26.2273 144.776 25.9953 144.014 25.5312C143.256 25.0625 142.671 24.4091 142.259 23.571C141.852 22.7282 141.649 21.7481 141.649 20.6307C141.649 19.5133 141.852 18.5284 142.259 17.6761C142.671 16.8191 143.244 16.1515 143.978 15.6733C144.717 15.1903 145.579 14.9489 146.563 14.9489C147.132 14.9489 147.693 15.0436 148.247 15.233C148.801 15.4223 149.305 15.7301 149.759 16.1562C150.214 16.5777 150.576 17.1364 150.846 17.8324C151.116 18.5284 151.251 19.3854 151.251 20.4034V21.1136H142.842V19.6648H149.546C149.546 19.0492 149.423 18.5 149.177 18.017C148.936 17.5341 148.59 17.1529 148.14 16.8736C147.695 16.5942 147.17 16.4545 146.563 16.4545C145.896 16.4545 145.318 16.6203 144.831 16.9517C144.348 17.2784 143.976 17.7045 143.715 18.2301C143.455 18.7557 143.325 19.3191 143.325 19.9205V20.8864C143.325 21.7102 143.467 22.4086 143.751 22.9815C144.04 23.5497 144.44 23.983 144.951 24.2812C145.463 24.5748 146.057 24.7216 146.734 24.7216C147.174 24.7216 147.572 24.66 147.927 24.5369C148.287 24.4091 148.597 24.2197 148.858 23.9688C149.118 23.7131 149.319 23.3958 149.461 23.017L151.081 23.4716C150.91 24.0208 150.624 24.5038 150.221 24.9205C149.819 25.3324 149.322 25.6544 148.73 25.8864C148.138 26.1136 147.473 26.2273 146.734 26.2273ZM155.477 19.4375V26H153.801V15.0909H155.42V16.7955H155.562C155.818 16.2415 156.206 15.7964 156.727 15.4602C157.248 15.1193 157.92 14.9489 158.744 14.9489C159.483 14.9489 160.129 15.1004 160.683 15.4034C161.237 15.7017 161.668 16.1562 161.975 16.767C162.283 17.3731 162.437 18.1402 162.437 19.0682V26H160.761V19.1818C160.761 18.3248 160.538 17.6572 160.093 17.179C159.648 16.696 159.037 16.4545 158.261 16.4545C157.726 16.4545 157.248 16.5705 156.826 16.8026C156.41 17.0346 156.081 17.3731 155.839 17.8182C155.598 18.2633 155.477 18.803 155.477 19.4375ZM168.71 26.2557C168.019 26.2557 167.391 26.1255 166.828 25.8651C166.265 25.5999 165.817 25.2188 165.486 24.7216C165.154 24.2197 164.989 23.6136 164.989 22.9034C164.989 22.2784 165.112 21.7718 165.358 21.3835C165.604 20.9905 165.933 20.6828 166.345 20.4602C166.757 20.2377 167.212 20.072 167.709 19.9631C168.211 19.8494 168.715 19.7595 169.222 19.6932C169.884 19.608 170.422 19.544 170.834 19.5014C171.25 19.4541 171.553 19.3759 171.743 19.267C171.937 19.1581 172.034 18.9687 172.034 18.6989V18.642C172.034 17.9413 171.842 17.3968 171.459 17.0085C171.08 16.6203 170.505 16.4261 169.733 16.4261C168.933 16.4261 168.305 16.6013 167.851 16.9517C167.396 17.3021 167.077 17.6761 166.892 18.0739L165.301 17.5057C165.585 16.8428 165.964 16.3267 166.437 15.9574C166.916 15.5833 167.436 15.3229 168 15.1761C168.568 15.0246 169.127 14.9489 169.676 14.9489C170.026 14.9489 170.429 14.9915 170.883 15.0767C171.343 15.1572 171.785 15.3253 172.212 15.581C172.642 15.8366 173 16.2225 173.284 16.7386C173.568 17.2547 173.71 17.946 173.71 18.8125V26H172.034V24.5227H171.949C171.835 24.7595 171.646 25.0128 171.381 25.2827C171.115 25.5526 170.763 25.7822 170.322 25.9716C169.882 26.161 169.345 26.2557 168.71 26.2557ZM168.966 24.75C169.629 24.75 170.187 24.6198 170.642 24.3594C171.101 24.099 171.447 23.7628 171.679 23.3509C171.916 22.9389 172.034 22.5057 172.034 22.0511V20.517C171.963 20.6023 171.807 20.6804 171.565 20.7514C171.329 20.8177 171.054 20.8769 170.741 20.929C170.434 20.9763 170.133 21.0189 169.839 21.0568C169.551 21.09 169.316 21.1184 169.136 21.142C168.701 21.1989 168.293 21.2912 167.915 21.419C167.541 21.5421 167.238 21.7292 167.006 21.9801C166.778 22.2263 166.665 22.5625 166.665 22.9886C166.665 23.571 166.88 24.0114 167.311 24.3097C167.747 24.6032 168.298 24.75 168.966 24.75ZM176.769 26V15.0909H178.389V16.7386H178.502C178.701 16.1989 179.061 15.7609 179.582 15.4247C180.103 15.0885 180.69 14.9205 181.343 14.9205C181.466 14.9205 181.62 14.9228 181.805 14.9276C181.99 14.9323 182.129 14.9394 182.224 14.9489V16.6534C182.167 16.6392 182.037 16.6179 181.833 16.5895C181.634 16.5563 181.424 16.5398 181.201 16.5398C180.671 16.5398 180.197 16.651 179.781 16.8736C179.369 17.0914 179.042 17.3944 178.801 17.7827C178.564 18.1662 178.446 18.6042 178.446 19.0966V26H176.769ZM184.211 26V15.0909H185.887V26H184.211ZM185.063 13.2727C184.736 13.2727 184.455 13.1615 184.218 12.9389C183.986 12.7164 183.87 12.4489 183.87 12.1364C183.87 11.8239 183.986 11.5563 184.218 11.3338C184.455 11.1113 184.736 11 185.063 11C185.39 11 185.669 11.1113 185.901 11.3338C186.138 11.5563 186.256 11.8239 186.256 12.1364C186.256 12.4489 186.138 12.7164 185.901 12.9389C185.669 13.1615 185.39 13.2727 185.063 13.2727ZM193.389 26.2273C192.404 26.2273 191.54 25.9929 190.796 25.5241C190.058 25.0554 189.48 24.3996 189.063 23.5568C188.652 22.714 188.446 21.7292 188.446 20.6023C188.446 19.4659 188.652 18.474 189.063 17.6264C189.48 16.7789 190.058 16.1207 190.796 15.652C191.54 15.1832 192.404 14.9489 193.389 14.9489C194.374 14.9489 195.235 15.1832 195.974 15.652C196.717 16.1207 197.295 16.7789 197.707 17.6264C198.124 18.474 198.332 19.4659 198.332 20.6023C198.332 21.7292 198.124 22.714 197.707 23.5568C197.295 24.3996 196.717 25.0554 195.974 25.5241C195.235 25.9929 194.374 26.2273 193.389 26.2273ZM193.389 24.7216C194.137 24.7216 194.752 24.5298 195.235 24.1463C195.718 23.7628 196.076 23.2585 196.308 22.6335C196.54 22.0085 196.656 21.3314 196.656 20.6023C196.656 19.8731 196.54 19.1937 196.308 18.5639C196.076 17.9342 195.718 17.4252 195.235 17.0369C194.752 16.6487 194.137 16.4545 193.389 16.4545C192.641 16.4545 192.025 16.6487 191.542 17.0369C191.059 17.4252 190.702 17.9342 190.47 18.5639C190.238 19.1937 190.122 19.8731 190.122 20.6023C190.122 21.3314 190.238 22.0085 190.47 22.6335C190.702 23.2585 191.059 23.7628 191.542 24.1463C192.025 24.5298 192.641 24.7216 193.389 24.7216ZM208.618 17.5341L207.112 17.9602C207.017 17.7093 206.878 17.4654 206.693 17.2287C206.513 16.9872 206.267 16.7884 205.954 16.6321C205.642 16.4759 205.242 16.3977 204.754 16.3977C204.087 16.3977 203.53 16.5516 203.085 16.8594C202.645 17.1624 202.425 17.5483 202.425 18.017C202.425 18.4337 202.576 18.7628 202.879 19.0043C203.182 19.2457 203.656 19.447 204.3 19.608L205.919 20.0057C206.894 20.2424 207.621 20.6046 208.099 21.0923C208.578 21.5753 208.817 22.1979 208.817 22.9602C208.817 23.5852 208.637 24.1439 208.277 24.6364C207.922 25.1288 207.425 25.517 206.785 25.8011C206.146 26.0852 205.403 26.2273 204.555 26.2273C203.443 26.2273 202.522 25.9858 201.793 25.5028C201.063 25.0199 200.602 24.3144 200.408 23.3864L201.998 22.9886C202.15 23.5758 202.436 24.0161 202.858 24.3097C203.284 24.6032 203.84 24.75 204.527 24.75C205.308 24.75 205.928 24.5843 206.388 24.2528C206.852 23.9167 207.084 23.5142 207.084 23.0455C207.084 22.6667 206.951 22.3494 206.686 22.0938C206.421 21.8333 206.014 21.6392 205.464 21.5114L203.646 21.0852C202.647 20.8485 201.913 20.4815 201.445 19.9844C200.98 19.4825 200.748 18.8551 200.748 18.1023C200.748 17.4867 200.921 16.9422 201.267 16.4688C201.617 15.9953 202.093 15.6236 202.695 15.3537C203.301 15.0838 203.987 14.9489 204.754 14.9489C205.834 14.9489 206.681 15.1856 207.297 15.6591C207.917 16.1326 208.357 16.7576 208.618 17.5341ZM217.192 26V11.4545H222.107C223.248 11.4545 224.181 11.6605 224.905 12.0724C225.634 12.4796 226.174 13.0312 226.524 13.7273C226.875 14.4233 227.05 15.1998 227.05 16.0568C227.05 16.9138 226.875 17.6927 226.524 18.3935C226.179 19.0942 225.644 19.6529 224.919 20.0696C224.195 20.4815 223.267 20.6875 222.135 20.6875H218.612V19.125H222.078C222.86 19.125 223.487 18.9901 223.96 18.7202C224.434 18.4503 224.777 18.0857 224.99 17.6264C225.208 17.1624 225.317 16.6392 225.317 16.0568C225.317 15.4744 225.208 14.9536 224.99 14.4943C224.777 14.035 224.432 13.6752 223.953 13.4148C223.475 13.1496 222.841 13.017 222.05 13.017H218.953V26H217.192ZM234.376 26H229.887V11.4545H234.575C235.986 11.4545 237.193 11.7457 238.197 12.3281C239.201 12.9058 239.97 13.7367 240.505 14.821C241.04 15.9006 241.308 17.1932 241.308 18.6989C241.308 20.214 241.038 21.5185 240.498 22.6122C239.958 23.7012 239.172 24.5393 238.14 25.1264C237.108 25.7088 235.853 26 234.376 26ZM231.649 24.4375H234.262C235.465 24.4375 236.462 24.2055 237.252 23.7415C238.043 23.2775 238.633 22.617 239.021 21.7599C239.409 20.9029 239.603 19.8826 239.603 18.6989C239.603 17.5246 239.411 16.5137 239.028 15.6662C238.644 14.8139 238.072 14.1605 237.309 13.706C236.547 13.2467 235.598 13.017 234.461 13.017H231.649V24.4375ZM244.262 26V11.4545H252.984V13.017H246.024V17.9318H252.331V19.4943H246.024V26H244.262Z" fill="#F3727C"/>
<path d="M261.641 21.8633C261.369 21.8633 261.147 22.0647 261.147 22.3116V23.2081C261.147 24.4435 262.255 25.4495 263.617 25.4495H273.002C274.363 25.4495 275.472 24.4435 275.472 23.2081V22.3116C275.472 22.0646 275.25 21.8633 274.978 21.8633C274.706 21.8633 274.484 22.0647 274.484 22.3116V23.2081C274.484 23.9497 273.819 24.5529 273.002 24.5529H263.617C262.8 24.5529 262.135 23.9497 262.135 23.2081V22.3116C262.135 22.0646 261.913 21.8633 261.641 21.8633Z" fill="#F3727C"/>
<path d="M268.309 12C268.037 12 267.816 12.2014 267.816 12.4483V20.1075L265.487 17.994C265.376 17.8933 265.225 17.8346 265.074 17.8346C264.977 17.8346 264.891 17.8591 264.819 17.9038C264.693 17.9843 264.619 18.1008 264.604 18.2356C264.591 18.3678 264.643 18.4983 264.747 18.592L267.128 20.7458C267.444 21.0303 267.861 21.1871 268.306 21.1871C268.75 21.1871 269.17 21.0303 269.484 20.7458L271.866 18.5893C271.971 18.4948 272.022 18.3652 272.009 18.233C271.997 18.0964 271.922 17.9817 271.794 17.9012C271.609 17.7821 271.315 17.8224 271.127 17.9905L268.799 20.104L268.8 12.4484C268.8 12.2015 268.579 12.0001 268.307 12.0001L268.309 12Z" fill="#F3727C"/>
</svg>
