<svg width="308" height="308" viewBox="0 0 308 308" fill="none" xmlns="http://www.w3.org/2000/svg">
<path d="M3.05985 0.809198C11.0885 0.543036 19.1065 0.429286 27.3651 0.545214C29.247 0.571429 29.0696 0.777146 29.8433 0.810419C31.2652 0.871871 33.6513 0.649892 33.9859 0.649892C36.0619 0.647063 35.2506 1.00713 35.5301 1.021C38.6452 1.16718 37.7486 0.757053 40.7268 0.717643C44.6052 0.666224 49.582 0.739587 54.2549 0.759758C55.896 0.767823 55.1654 1.04194 58.7073 1.01886C61.2164 1.00273 68.9132 0.690306 72.4573 1.02405C72.4782 1.15007 72.0306 1.28921 71.8424 1.41926C76.9228 0.89402 78.7411 0.917064 85.9438 1.04511C87.0833 1.06527 88.1623 0.849481 90.1696 0.929136C92.176 1.00886 92.2607 1.34151 96.2956 1.33747C97.7267 1.33524 98.5951 1.10066 100.79 1.09058C107.031 1.06135 118.918 1.35272 124.041 1.3628C134.129 1.38296 139.618 0.982589 148.577 1.12171C149.267 1.13179 147.752 1.38888 149.016 1.39393C150.292 1.39897 151.62 1.05836 151.934 1.05029C155.32 0.962622 162.478 1.41893 164.362 1.36372C168.941 1.22861 164.428 1.07851 170.774 1.01398C176.817 0.95257 185.16 1.39604 191.15 1.48274C198.091 1.5835 200.329 0.939337 205.556 1.61183C223.914 1.57251 242.344 1.54845 260.723 1.51417C260.67 1.64823 260.61 1.78235 260.547 1.91641C262 1.82365 263.454 1.73075 264.907 1.63899C264.687 1.73879 264.479 1.83868 264.26 1.93747C271.085 1.5524 277.169 1.35376 285.144 1.45955C285.3 1.46155 284.89 1.72885 285.019 1.73574C286.817 1.78615 288.826 1.58053 290.405 1.62892C294.221 1.74488 300.703 2.32772 297.849 1.61489C300.461 1.65811 303.208 1.66785 306 1.66355L307.331 1.65806L307.336 3C307.347 9.7146 307.438 16.6886 307.341 22.6771C307.281 26.3458 306.859 27.445 306.835 29.2007C306.81 30.9549 307.173 30.0621 307.187 30.6848C307.268 34.4274 307.253 40.5867 306.847 41.2355C307.009 41.9879 307.173 42.7842 307.337 43.5472C306.886 43.1 307.072 54.6651 307.061 57.6994C307.059 58.2535 306.862 58.3307 306.864 58.7489C306.889 63.4095 307.199 64.549 307.301 68.5413C307.338 69.9423 306.99 67.7699 307.14 71.3662C307.153 71.6797 307.466 71.5131 307.464 75.8093C307.461 82.6675 307.585 95.7872 307.431 103.952C307.418 104.621 307.078 102.584 307.157 105.644C307.185 106.752 307.427 106.222 307.429 108.908C307.439 119.321 307.161 130.424 307.392 141.046C307.119 140.659 306.812 136.875 306.984 142.562C307.012 143.471 307.256 142.793 307.265 143.2C307.336 146.503 307.161 149.367 307.255 152.942C307.283 153.998 307.475 154.26 307.52 155.577C307.588 157.521 307.315 158.382 307.431 160.64C307.613 164.171 307.872 164.717 307.364 169.096C307.396 193.914 307.539 218.618 307.316 243.353C307.461 250.503 307.623 257.102 307.678 264.556C307.695 266.751 307.348 267.171 307.463 270.672C307.488 271.456 307.86 277.051 307.159 277.866C307.22 279.423 307.222 280.408 307.259 281.745C307.362 280.731 307.466 279.685 307.57 278.712C307.458 284.358 307.705 288.968 307.822 293.965C307.907 297.644 307.607 295.032 307.637 297.289C307.666 299.548 307.734 300.574 307.374 303.397C307.546 304.312 307.597 305.101 307.597 306L307.603 307.59L306 307.597C304.723 307.597 303.225 307.494 300.827 307.487C300.388 307.486 297.849 307.647 295.727 307.615C294.201 307.592 293.749 307.333 291.325 307.373C290.928 307.379 285.804 307.7 284.173 307.729C281.633 307.775 277.595 307.443 277.104 307.439C269.964 307.381 267.213 307.709 262.142 307.169C261.118 307.49 256.887 307.678 253.469 307.646C249.151 307.607 240.494 306.952 239.312 307.644C234.315 307.336 234.858 307.526 228.932 307.532C223.538 307.538 209.258 307.273 204.886 307.312C200.516 307.349 202.645 307.734 200.91 307.786C198.069 307.871 199.604 307.587 197.66 307.591C192.161 307.603 187.382 307.657 182.134 307.781C181.852 307.582 181.548 307.381 181.256 307.182C180.984 307.248 180.714 307.315 180.442 307.381C179.313 307.379 178.048 307.383 177.002 307.377C185.824 308.253 168.482 307.312 163.275 307.29C158.884 307.272 151.575 307.688 146.756 307.777C145.586 307.799 146.39 307.584 146.15 307.589C143.327 307.65 142.899 307.797 139.104 307.777C137.097 307.766 135.048 307.496 133.094 307.491C118.74 307.455 104.887 307.726 90.6276 307.755C88.2025 307.76 86.1101 307.431 84.0716 307.424C81.1555 307.413 79.3152 307.683 76.5771 307.688C73.8487 307.692 69.9159 307.369 68.0654 307.418C66.2149 307.467 69.3814 307.779 65.9941 307.694C64.4383 307.654 67.1862 307.422 65.2636 307.414C59.263 307.392 50.795 307.681 44.4074 307.401C44.6896 307.471 45.0749 307.533 45.4199 307.6C38.6142 307.573 32.6015 307.405 25.5762 307.381C23.1193 307.372 18.6887 307.577 16.2739 307.576C13.8594 307.575 12.7608 307.353 10.8275 307.347C10.0329 307.344 10.3435 307.542 9.81036 307.538C7.20724 307.518 5.06266 307.451 3 307.38L1.62521 307.386L1.61949 306C1.73028 302.779 1.85216 299.757 1.8276 295.5C1.68039 269.918 1.55327 243.538 1.42018 217.559C1.41491 216.514 1.15604 215.811 1.11774 214.285C1.05846 211.935 1.28729 211.82 1.29536 211.507C1.34572 209.458 1.13391 210.294 1.13391 207.544C1.13392 201.491 1.32156 191.726 1.30543 185.694C1.26812 171.79 1.06637 160.102 0.964537 146.469C0.956471 145.486 1.26294 146.153 1.26697 144.449C1.2992 132.438 1.00577 129.896 1.08844 114.947C1.17112 99.9963 1.35677 71.7788 1.39912 54.2783C1.39983 54.2783 1.40054 54.2783 1.40126 54.2783C0.834657 48.7692 0.975583 41.6415 1.404 35.7245C2.80148 69.8484 2.17956 102.497 2.23502 138.942C2.29251 177.247 3.3079 218.082 3.1698 256.899C3.15669 260.548 2.83399 262.014 2.90154 265.087C2.91297 265.607 3.16166 264.262 3.18689 265.86C3.38898 278.956 3.26881 292.57 3.17232 306L3 305.828C12.0829 305.893 21.0816 305.947 29.7789 305.884C35.5915 305.842 36.5029 305.564 41.6148 305.493C40.7161 305.624 40.1285 305.761 39.3447 305.893C62.6794 306.302 86.0475 306.12 109.685 306.178C110.751 306.181 110.888 306.452 112.006 306.463C114.243 306.484 116.386 306.185 118.34 306.175C120.891 306.162 121.333 306.378 123.685 306.364C124.833 306.356 124.49 306.149 126.986 306.184C127.195 306.187 127.332 306.405 128.993 306.377C133.54 306.299 142.834 306.117 146.599 306.062C151.407 305.993 155.265 306.32 157.085 306.342C161.997 306.399 161.895 306.063 166.054 306.063C195.661 306.061 223.965 306.443 254.273 306.44C256.178 306.44 263.22 306.066 266.743 306.081C267.924 306.087 274.098 306.186 275.023 306.194C278.776 306.226 282.02 306.451 284.09 306.499C288.104 306.592 292.59 306.239 294.775 306.203C298.041 306.15 303.466 306.176 306 306.19L306.191 306.19L306.19 306C306.193 305.558 306.195 305.204 306.196 304.964C306.219 301.075 306.655 302.36 306.553 299.569C306.523 298.744 306.188 299.608 306.188 296.702C306.189 294.268 306.441 293.283 306.487 291.621C306.532 289.959 306.142 286.91 306.152 285.874C306.206 280.459 306.462 278.062 306.475 272.166C306.485 267.27 306.306 244.638 306.214 242.756C305.804 234.329 305.988 248.364 305.975 249.155C305.895 253.431 305.738 252.805 306.038 257.07C305.111 260.886 306.554 274.185 305.455 277.594C306.187 281.117 305.818 284.077 305.671 287.788C305.467 292.918 305.894 289.012 305.897 292.754C305.898 294.229 305.565 298.504 305.612 300.72C305.654 302.712 305.864 303.668 305.916 306L306 305.916C305.739 305.922 305.462 305.926 305.163 305.927C299.864 305.953 295.598 305.834 291.145 305.529C290.33 305.664 289.569 305.799 288.764 305.934C285.69 305.789 282.605 305.645 279.531 305.501C280.022 305.619 280.515 305.738 281.006 305.856C280.107 305.873 279.205 305.889 278.306 305.905C275.316 305.728 272.461 305.563 269.387 305.38C261.036 306.062 263.46 305.472 258.818 305.383C254.178 305.294 251.492 305.689 247.907 305.691C243.077 305.694 240.859 305.744 235.988 305.715C233.165 305.699 228.377 305.318 232.308 305.922C223.494 305.97 211.428 306.139 203.545 305.894C201.218 305.822 204.321 305.632 203.924 305.609C201.949 305.497 200.285 305.805 198.247 305.761C194.86 305.687 188.264 305.447 185.597 305.391C181.76 305.309 175.728 305.708 175.111 305.738C171.663 305.9 170.74 305.568 169.633 305.591C163.329 305.724 161.937 305.864 159.951 305.164C158.319 305.466 151.482 305.975 149.83 305.466C149.788 305.926 144.112 305.849 140.621 305.964C139.972 305.83 139.313 305.698 138.665 305.564C131.378 306.387 116.868 305.789 107.281 305.691C107.041 305.689 106.611 306.034 105.168 305.956C105.077 305.95 105.225 305.795 104.257 305.775C101.069 305.71 88.9022 305.324 87.5022 305.32C82.3481 305.307 81.4473 305.564 78.3109 305.589C74.182 305.621 73.5852 305.389 69.6558 305.422C67.8163 305.437 66.1424 305.742 63.2478 305.699C61.534 305.674 61.3642 305.434 60.0068 305.415C55.1768 305.345 51.6295 305.497 47.3432 305.184C46.2246 305.947 44.1762 305.385 42.054 305.327C33.4398 305.092 22.7036 305.415 15.3122 305.345C11.1317 305.306 7.03684 305.258 3 305.205L3.79488 306C4.03217 287.768 4.36335 270.716 4.45005 252.271C4.46719 248.612 4.08404 247.731 4.10824 243.894C4.11946 242.169 4.39688 240.391 4.40091 237.569C4.40489 235.301 4.26386 232.051 4.2648 229.219C4.2648 228.466 4.52494 228.399 4.52696 227.291C4.54204 218.886 4.35735 210.679 4.23032 202.191C4.18305 199.045 4.52772 197.099 3.92788 197.632C4.07507 196.43 4.20324 195.261 4.34842 194.132C3.97032 189.804 4.36434 186.269 4.26755 180.414C4.25602 179.783 3.8413 175.363 4.14059 172.855C3.92689 172.677 3.74543 173.067 3.55189 172.994C3.47023 170.516 3.71705 166.71 3.74233 165.037C3.7675 163.366 3.48991 162.248 3.48719 161.745C3.48013 159.832 3.84523 160.278 3.85128 160.131C4.20108 151.215 4.00659 152.154 3.45911 146.77C3.32102 145.421 3.7221 136.267 3.28974 134.416C3.46611 134.333 3.62132 134.843 3.78963 134.989C3.835 132.24 3.88159 129.469 3.92696 126.709C3.75757 127.294 3.58801 127.997 3.41761 128.53C3.5648 122.896 3.16566 118.211 3.17865 113.601C3.18672 110.967 3.56093 111.288 3.47926 109.741C3.46308 109.438 3.21023 109.95 3.18994 109.052C3.02559 101.723 3.29273 98.5123 3.34314 91.1731C3.36722 87.7341 2.90764 84.7243 3.21008 79.7903C3.2384 79.3398 3.64649 74.4994 3.06176 71.5098C3.24628 70.5584 3.34321 69.7194 3.49848 69.0085C2.63035 62.9553 3.48116 64.628 3.68282 56.4421C3.78761 52.2061 3.63549 37.9581 3.54274 33.3481C3.48622 30.6024 3.145 30.6525 3.13135 30.1626C3.05271 27.2357 3.38345 27.2334 3.32911 24.5266C3.27466 21.8189 2.90053 18.3982 2.93481 15.6173C2.96121 13.487 3.37215 15.1663 3.22901 12.0203C3.19802 11.3687 2.84929 13.2305 2.98608 9.91202C3.00725 9.38925 3.38446 4.08725 3.46613 3C3.68493 5.79164 3.97038 13.8835 4.05911 16.9257C5.59167 69.3141 5.60762 174.844 5.41504 230.786C5.39785 235.981 5.03889 239.379 5.00762 242.766C4.97636 246.153 5.30524 243.289 5.27801 246.363C5.24978 249.436 5.01772 251.676 4.99755 254.551C4.8763 271.69 4.74878 288.943 4.67697 306L3 304.323C5.23207 304.332 7.46086 304.341 9.68551 304.348C14.6724 304.364 18.6578 304.097 23.1952 304.097C24.9607 304.097 25.0155 304.442 26.2697 304.439C39.7867 304.412 52.2912 304.08 65.7352 304.12C71.3174 304.137 77.3489 304.428 82.8788 304.455C87.4362 304.478 92.1612 304.28 96.259 304.276C98.4834 304.273 99.6568 304.535 100.462 304.556C103.264 304.624 102.284 304.304 103.717 304.304C107.668 304.305 109.633 304.692 113.333 304.662C114.786 304.65 114.599 304.403 116.708 304.364C119.384 304.316 118.394 304.544 120.305 304.552C120.42 304.553 120.045 304.376 121.059 304.369C127.583 304.323 135.728 304.184 142.022 304.196C155.037 304.22 167.885 304.56 180.012 304.627C183.075 304.643 182.262 304.413 183.235 304.402C187.917 304.349 189.59 304.624 194.493 304.526C195.308 304.509 198.592 304.191 201.728 304.272C203.422 304.315 205.344 304.514 206.786 304.56C208.229 304.606 208.46 304.314 210.194 304.314C213.351 304.313 212.433 304.515 216.949 304.479C218.767 304.465 224.841 304.188 229.524 304.209C237.177 304.243 246.661 304.496 255.684 304.501C258.778 304.503 262.753 304.202 267.552 304.199C273.417 304.195 284.223 304.263 290.234 304.267C293.308 304.269 293.53 304.584 293.896 304.597C296.246 304.685 295.297 304.333 296.874 304.347C299.038 304.366 301.057 304.626 303.023 304.643C304.276 304.654 304.475 304.395 304.747 304.392C305.167 304.389 305.584 304.386 306 304.382L304.382 306C304.309 296.452 304.33 287.892 304.303 278.315C304.154 224.715 303.821 170.602 303.971 117.106C303.983 112.621 304.31 112.452 304.259 108.511C304.208 104.569 303.502 100.762 304.282 97.5209C304.124 97.4164 304.012 97.4266 303.869 97.3221C304.091 89.1783 303.861 81.0337 303.833 73.0677C303.812 67.172 303.837 61.9436 303.854 56.4973C303.87 51.6698 304.144 52.0866 303.787 47.907C303.948 32.976 303.965 17.9298 304.1 3L306 4.90029C300.158 4.84745 294.334 4.77656 288.542 4.67192C283.712 5.25773 279.082 4.88864 272.401 4.80193C271.577 4.79096 272.462 5.00471 270.016 4.98656C266.944 4.96424 265.354 4.63767 260.182 4.65574C258.812 4.66078 248.669 5.02285 244.915 4.83733C241.162 4.65183 235.726 4.54295 231.826 4.36551C232.38 4.50564 233.082 4.6397 233.699 4.77782C231.754 4.80202 229.799 4.82534 227.855 4.84954C227.573 4.68115 227.29 4.51263 227.018 4.34323C225.889 4.50354 224.759 4.66188 223.62 4.82421C221.163 3.9592 223.682 4.24133 218.215 4.46012C215.476 4.56901 213.302 4.41788 210.489 4.50559C209.476 4.53783 208.828 4.79254 207.711 4.82512C204.972 4.90375 206.568 4.55318 204.877 4.55503C203.172 4.55806 200.726 4.94312 197.673 4.77171C200.86 4.08522 191.649 4.30916 191.21 4.84252C190.113 4.8435 189.194 4.82133 187.983 4.83641C189.101 3.48934 183.359 4.44529 181.08 4.6298C178.802 4.81405 178.894 4.45211 178.361 4.46622C176.826 4.50557 177.944 4.65586 176.868 4.66093C169.738 4.69118 163.024 4.47021 155.989 4.45005C154.976 4.44718 155.874 4.65172 154.694 4.63163C153.513 4.61147 152.381 4.40786 150.635 4.42197C150.166 4.42555 150.019 4.60522 149.289 4.60539C133.994 4.59732 119.472 4.44425 103.873 4.42106C102.462 4.41904 101.354 4.7385 98.6258 4.72746C95.8977 4.71637 91.758 4.42807 88.3711 4.4058C87.472 4.39975 87.2281 4.66585 86.0363 4.6588C81.9806 4.63455 78.4869 4.41789 74.2743 4.3826C67.1558 4.32317 59.7025 4.48551 52.4795 4.32828C51.1102 4.29904 51.329 4.0771 49.3541 4.01455C45.9459 3.90666 47.2284 4.2303 46.5384 4.27365C44.281 4.4137 43.5717 3.98357 41.388 4.0942C41.0541 4.11131 41.5303 4.3664 41.2308 4.3704C36.5889 4.41476 36.3452 3.81691 31.4106 4.13754C27.0224 3.79379 34.3521 3.67669 35.1047 3.49421C36.943 3.05064 32.0835 2.52939 29.2191 2.36198C26.7524 2.21783 26.7706 2.49399 25.7885 2.49412C20.5931 2.49513 12.856 2.54764 8.90384 2.4166C6.50974 2.33796 10.8252 2.22292 9.60198 2.13217C8.38964 2.04155 7.60478 2.2491 6.36097 2.02231C5.11687 1.79544 2.57894 1.12782 3.05985 0.809198ZM306.705 136.538C305.616 128.572 305.729 107.445 305.833 96.1015C305.92 86.6924 306.759 78.5808 305.543 80.5252C305.535 90.6965 305.657 98.9238 305.62 109.68C305.616 110.799 305.503 117.471 305.483 119.792C305.471 121.098 305.271 121.14 305.273 122.917C305.274 123.304 305.536 125.448 305.529 126.232C305.506 128.918 305.103 136.907 305.115 138.022C305.149 141.115 305.461 139.928 305.518 141.263C305.705 145.748 305.236 146.242 305.389 150.686C305.416 151.48 305.824 154.115 305.771 157.408C305.749 158.746 305.538 161.025 305.548 162.05C305.602 167.632 305.882 173.864 305.835 178.976C305.797 183.167 305.482 182.04 305.439 184.256C305.398 186.472 305.764 189.149 305.785 190.664C305.818 193.089 305.611 196.038 305.614 196.79C305.675 211.615 305.916 224.798 306.003 239.099C306.147 229.387 306.279 219.686 306.428 210.036C306.102 204.558 306.408 207.285 306.51 203.679C306.59 200.825 306.037 200.135 306.098 196.383C306.098 196.386 306.098 196.39 306.098 196.393C306.131 194.459 306.514 190.266 306.354 186.147C306.347 186.001 306.06 185.634 306.05 182.55C306.028 175.619 305.881 164.999 305.942 157.2C305.96 154.91 306.262 155.377 306.299 152.669C306.326 150.694 306.047 148.406 306.11 145.313C306.189 141.434 306.669 139.574 306.003 136.908C306.241 136.688 306.473 136.799 306.705 136.538ZM225.303 2.8753C224.758 2.84896 217.462 2.10503 219.625 2.89941C229.432 3.24424 240.034 3.07296 250.352 3.26654C246.829 2.48109 240.869 2.79066 233.634 2.84814C233.631 2.84814 233.628 2.84814 233.625 2.84814C233.283 2.85081 234.711 2.64553 232.77 2.68273C231.829 2.70087 228.22 3.01545 225.303 2.8753Z" fill="#78A564" fill-opacity="0.5"/>
</svg>
