<svg width="182" height="222" viewBox="0 0 182 222" fill="none" xmlns="http://www.w3.org/2000/svg">
<circle cx="171" cy="214" r="7" fill="#ED7C6F"/>
<rect x="127" width="13" height="13" fill="#F59730"/>
<path d="M14 198L22.6603 213H5.33975L14 198Z" fill="#78A564"/>
<rect x="0.966797" y="62.0586" width="85" height="184" rx="42.5" transform="rotate(-30 0.966797 62.0586)" fill="#78A564" fill-opacity="0.7"/>
<rect x="16.2871" y="48.5938" width="85" height="184" rx="42.5" transform="rotate(-30 16.2871 48.5938)" fill="#78A564" fill-opacity="0.7"/>
<rect x="37.4668" y="125.277" width="85" height="37" transform="rotate(-30 37.4668 125.277)" fill="white"/>
<rect x="52.7871" y="111.812" width="85" height="37" transform="rotate(-30 52.7871 111.812)" fill="white"/>
<rect x="53.8232" y="121.607" width="3" height="40" rx="1" transform="rotate(60 53.8232 121.607)" fill="#ED7C6F"/>
<rect x="148.292" y="83.2324" width="3" height="70" rx="1" transform="rotate(60 148.292 83.2324)" fill="#ED7C6F"/>
<rect x="91.6699" y="125.16" width="3" height="14" rx="1" transform="rotate(60 91.6699 125.16)" fill="#ED7C6F"/>
<rect x="125.105" y="85.0723" width="3" height="28" rx="1" transform="rotate(60 125.105 85.0723)" fill="#F59730"/>
<rect x="68.9209" y="141.758" width="3" height="63" rx="1" transform="rotate(60 68.9209 141.758)" fill="#F59730"/>
<rect x="165.639" y="51.2773" width="3" height="63" rx="1" transform="rotate(60 165.639 51.2773)" fill="#F59730"/>
<rect x="85.7319" y="100.875" width="3" height="28" rx="1" transform="rotate(60 85.7319 100.875)" fill="#78A564"/>
<rect x="81.7056" y="115.902" width="3" height="46" rx="1" transform="rotate(60 81.7056 115.902)" fill="#78A564"/>
<rect x="122.48" y="108.525" width="3" height="14" rx="1" transform="rotate(60 122.48 108.525)" fill="#78A564"/>
<rect x="54.5288" y="140.83" width="3" height="23" rx="1" transform="rotate(60 54.5288 140.83)" fill="#78A564"/>
</svg>
