<svg xmlns="http://www.w3.org/2000/svg" width="308" height="308" fill="none" viewBox="0 0 308 308"><path fill="#78a564" fill-opacity=".8" d="M223.14 233.53c.3 2.74-1.96 4.99-4.72 4.99H91.36a4.6 4.6 0 0 1-4.73-5c3.04-29.14 32.44-52 68.26-52s65.21 22.86 68.25 52M129.68 98.81c1.33 2.42-.06 5.3-2.67 6.22L96.87 115.6 66.73 126.2c-2.61.92-5.5-.45-5.98-3.17-2.78-15.99 7.63-32.65 25.1-38.78s36.01.36 43.83 14.57"/><path fill="#ed7c6f" fill-opacity=".7" d="M136.75 157.04a5 5 0 0 1 2.69 3.66l4.82 29.44a5 5 0 0 1-2.19 5l-26.04 17.05a5 5 0 0 1-7.5-2.64l-9.1-28.1a5 5 0 0 1-.16-2.52l6.06-30.6a5 5 0 0 1 7.15-3.49z"/><path fill="#f59730" fill-opacity=".7" d="M175.5 214.95a5 5 0 0 1-7.47-5.49l24.49-96.54a5 5 0 0 1 9-1.54l38.5 57.85a5 5 0 0 1-1.54 7.03z"/><path fill="#78a564" fill-opacity=".5" d="M3.06.8C11.09.55 19.11.44 27.36.56c1.89.02 1.71.23 2.48.26C31.27.87 33.65.65 34 .65c2.07 0 1.26.36 1.54.37 3.12.15 2.22-.26 5.2-.3 3.88-.05 8.85.02 13.52.04 1.65 0 .92.28 4.46.26 2.5-.02 10.2-.33 13.75 0 .02.13-.43.27-.62.4 5.08-.53 6.9-.5 14.1-.37 1.14.02 2.22-.2 4.23-.12 2 .08 2.1.41 6.13.4 1.43 0 2.3-.23 4.49-.24 6.24-.03 18.13.26 23.25.27 10.09.02 15.58-.38 24.54-.24.69.01-.83.27.44.27s2.6-.33 2.91-.34c3.39-.09 10.55.37 12.43.31 4.58-.13.07-.28 6.41-.35 6.05-.06 14.39.39 20.38.47 6.94.1 9.18-.54 14.4.13l55.17-.1-.17.4 4.36-.27-.65.3c6.82-.39 12.9-.59 20.88-.48.16 0-.25.27-.12.28 1.8.05 3.8-.16 5.38-.11 3.82.11 10.3.7 7.45-.02 2.61.05 5.36.06 8.15.05h1.33V3c.02 6.71.1 13.69.01 19.68-.06 3.67-.48 4.77-.5 6.52s.33.86.35 1.48c.08 3.75.06 9.9-.34 10.56l.49 2.3c-.45-.44-.27 11.13-.28 14.16 0 .55-.2.63-.2 1.05.03 4.66.34 5.8.44 9.8.04 1.4-.31-.78-.16 2.82.01.31.33.14.32 4.44 0 6.86.13 19.98-.03 28.14-.01.67-.35-1.37-.27 1.7.02 1.1.27.57.27 3.26 0 10.41-.27 21.51-.04 32.14-.27-.4-.58-4.18-.4 1.51.02.91.27.23.27.64.08 3.3-.1 6.17 0 9.74.02 1.06.22 1.32.26 2.64.07 1.94-.2 2.8-.09 5.06.18 3.53.44 4.08-.07 8.46.04 24.81.18 49.52-.04 74.25.14 7.15.3 13.75.36 21.2.01 2.2-.33 2.62-.22 6.12.03.79.4 6.38-.3 7.2.06 1.55.06 2.54.1 3.88q.15-1.55.31-3.04c-.11 5.65.13 10.26.25 15.25.09 3.68-.21 1.07-.18 3.33s.1 3.28-.27 6.1c.18.92.23 1.71.23 2.61v1.59H306c-1.28 0-2.77-.1-5.17-.1-.44 0-2.98.16-5.1.13-1.53-.03-1.98-.29-4.4-.25-.4 0-5.53.33-7.16.36-2.54.04-6.57-.29-7.07-.3-7.14-.05-9.89.28-14.96-.26-1.02.32-5.25.5-8.67.48-4.32-.04-12.98-.7-14.16 0-5-.31-4.45-.12-10.38-.12-5.4 0-19.67-.26-24.04-.22s-2.24.42-3.98.48c-2.84.08-1.3-.2-3.25-.2-5.5.01-10.28.07-15.53.2l-.87-.6-.82.2-3.44-.01c8.82.87-8.52-.07-13.72-.09-4.4-.02-11.7.4-16.52.49-1.17.02-.37-.2-.61-.2-2.82.07-3.25.22-7.05.2-2-.01-4.05-.28-6-.29-14.36-.04-28.21.24-42.47.26-2.43.01-4.52-.32-6.56-.33-2.91 0-4.75.26-7.5.27-2.72 0-6.65-.32-8.5-.27-1.86.05 1.31.36-2.08.27-1.55-.04 1.2-.27-.73-.28-6-.02-14.47.27-20.85 0l1.01.19c-6.8-.03-12.82-.2-19.84-.22-2.46 0-6.9.2-9.3.2-2.42 0-3.52-.23-5.45-.23-.8 0-.49.2-1.02.19-2.6-.02-4.75-.09-6.81-.16H1.63L1.62 306c.11-3.22.23-6.24.2-10.5l-.4-77.94c0-1.05-.26-1.75-.3-3.28-.06-2.34.17-2.46.18-2.77.05-2.05-.17-1.22-.17-3.97 0-6.05.2-15.81.18-21.85-.04-13.9-.24-25.59-.35-39.22 0-.98.3-.32.3-2.02.04-12.01-.25-14.55-.17-29.5s.27-43.17.3-60.67h.01c-.57-5.51-.42-12.64 0-18.56 1.4 34.13.78 66.78.84 103.22.05 38.3 1.07 79.14.93 117.96-.01 3.65-.34 5.11-.27 8.19.01.52.26-.83.29.77.2 13.1.08 26.71-.02 40.14l-.17-.17c9.08.06 18.08.12 26.78.05 5.81-.04 6.72-.32 11.83-.39-.9.13-1.48.27-2.27.4 23.34.41 46.7.23 70.35.29 1.06 0 1.2.27 2.32.28 2.23.02 4.38-.27 6.33-.28 2.55-.02 3 .2 5.34.18 1.15 0 .81-.21 3.3-.18.21 0 .35.22 2.01.2l17.6-.32c4.82-.07 8.67.26 10.5.28 4.9.06 4.8-.28 8.96-.28 29.61 0 57.91.38 88.22.38 1.9 0 8.95-.37 12.47-.36 1.18 0 7.36.1 8.28.11 3.76.04 7 .26 9.07.3 4.01.1 8.5-.25 10.69-.29 3.26-.05 8.69-.02 11.22-.01h.2l-.01-.19v-1.04c.03-3.88.46-2.6.36-5.4-.03-.82-.36.05-.36-2.86 0-2.43.25-3.42.3-5.08s-.35-4.71-.34-5.75c.06-5.41.31-7.8.33-13.7 0-4.9-.17-27.53-.27-29.41-.4-8.43-.22 5.6-.23 6.4-.09 4.27-.24 3.65.06 7.91-.93 3.82.51 17.12-.59 20.52.74 3.53.37 6.49.22 10.2-.2 5.13.22 1.22.23 4.96 0 1.48-.33 5.75-.29 7.97.04 2 .25 2.95.3 5.28l.09-.08h-.84c-5.3.03-9.56-.09-14.02-.4l-2.38.41-9.23-.43 1.48.36-2.7.04-8.92-.52c-8.35.68-5.93.1-10.57 0-4.64-.09-7.33.3-10.91.31-4.83 0-7.05.05-11.92.02-2.83-.01-7.61-.4-3.68.21-8.82.05-20.88.22-28.77-.03-2.32-.07.78-.26.38-.28-1.97-.11-3.63.2-5.67.15-3.39-.07-9.99-.31-12.65-.37-3.84-.08-9.87.32-10.49.35-3.45.16-4.37-.17-5.48-.15-6.3.13-7.7.27-9.68-.43-1.63.3-8.47.81-10.12.3-.04.47-5.72.39-9.2.5l-1.97-.4c-7.28.83-21.8.23-31.38.13-.24 0-.67.34-2.11.27-.1-.01.05-.16-.91-.19-3.2-.06-15.36-.45-16.76-.45-5.15-.01-6.05.24-9.19.27-4.13.03-4.72-.2-8.65-.17-1.84.02-3.52.32-6.41.28-1.72-.03-1.89-.27-3.24-.28-4.83-.07-8.38.08-12.67-.24-1.12.77-3.16.2-5.29.15-8.61-.24-19.35.09-26.74.02q-6.26-.07-12.31-.15l.8.8c.23-18.23.56-35.28.65-53.73.02-3.66-.37-4.54-.34-8.38 0-1.72.29-3.5.3-6.32 0-2.27-.15-5.52-.15-8.35 0-.75.26-.82.27-1.93.01-8.4-.17-16.61-.3-25.1-.05-3.15.3-5.1-.3-4.56q.21-1.8.42-3.5c-.38-4.33.01-7.86-.08-13.72-.01-.63-.43-5.05-.13-7.56-.21-.17-.4.22-.59.14-.08-2.47.17-6.28.2-7.95s-.26-2.8-.26-3.3c-.01-1.9.36-1.46.36-1.6.35-8.92.16-7.99-.4-13.37-.13-1.35.27-10.5-.16-12.35.18-.09.33.42.5.57l.14-8.28c-.17.58-.34 1.29-.51 1.82.14-5.63-.25-10.32-.24-14.93 0-2.63.38-2.31.3-3.86-.02-.3-.27.21-.29-.69-.16-7.33.1-10.54.15-17.88.03-3.44-.43-6.45-.13-11.38.03-.45.44-5.3-.15-8.28.19-.95.28-1.8.44-2.5-.87-6.05-.02-4.38.18-12.57.1-4.23-.04-18.48-.14-23.1-.05-2.74-.4-2.69-.4-3.18-.09-2.92.24-2.93.19-5.63-.06-2.71-.43-6.13-.4-8.91.03-2.13.44-.45.3-3.6-.03-.65-.38 1.21-.24-2.1.02-.53.4-5.83.48-6.92.21 2.8.5 10.88.59 13.93C5.59 69.3 5.6 174.84 5.42 230.79c-.02 5.2-.38 8.59-.41 11.98-.03 3.38.3.52.27 3.6-.03 3.07-.26 5.3-.28 8.18-.12 17.14-.25 34.4-.32 51.45L3 304.32l6.69.03c4.98.01 8.97-.25 13.5-.25 1.77 0 1.83.34 3.08.34 13.52-.03 26.02-.36 39.47-.32 5.58.02 11.6.3 17.14.33 4.56.03 9.28-.17 13.38-.17 2.22 0 3.4.26 4.2.28 2.8.06 1.82-.26 3.26-.26 3.95 0 5.91.4 9.61.36 1.46-.01 1.27-.26 3.38-.3 2.67-.04 1.68.18 3.6.2.11 0-.27-.18.75-.2 6.52-.04 14.67-.18 20.96-.16 13.02.02 25.86.36 38 .43 3.05.01 2.24-.22 3.22-.23 4.68-.05 6.35.22 11.25.13.82-.02 4.1-.34 7.24-.26 1.7.05 3.61.24 5.06.29s1.67-.25 3.4-.25c3.16 0 2.24.2 6.76.17 1.82-.02 7.9-.3 12.57-.27 7.66.03 17.14.29 26.16.3 3.1 0 7.07-.3 11.87-.31 5.87 0 16.67.06 22.68.07 3.08 0 3.3.31 3.67.33 2.35.08 1.4-.27 2.97-.25 2.17.02 4.19.28 6.15.3 1.26 0 1.46-.25 1.73-.26H306l-1.62 1.61c-.07-9.55-.05-18.1-.08-27.68-.15-53.6-.48-107.72-.33-161.21.01-4.49.34-4.66.29-8.6s-.76-7.75.02-10.99c-.16-.1-.27-.1-.41-.2.22-8.14 0-16.29-.04-24.25-.02-5.9 0-11.13.02-16.57.02-4.83.3-4.41-.06-8.6.16-14.92.17-29.97.31-44.9l1.9 1.9q-8.77-.07-17.46-.23c-4.83.59-9.46.22-16.14.13-.82 0 .06.2-2.38.19-3.08-.03-4.67-.35-9.84-.33-1.37 0-11.51.36-15.27.18-3.75-.19-9.18-.3-13.08-.47.55.14 1.25.27 1.87.4l-5.84.08-.84-.5-3.4.47c-2.46-.86.06-.58-5.4-.36-2.74.1-4.92-.04-7.73.05-1.01.03-1.66.28-2.78.32-2.74.07-1.14-.28-2.83-.27-1.7 0-4.15.38-7.2.21 3.18-.68-6.03-.46-6.47.07-1.1 0-2.02-.02-3.23 0 1.12-1.35-4.62-.4-6.9-.21-2.28.18-2.19-.18-2.72-.16-1.53.04-.42.19-1.5.2-7.12.02-13.84-.2-20.87-.22-1.01 0-.12.2-1.3.18s-2.3-.22-4.06-.2c-.46 0-.61.18-1.34.18-15.3-.01-29.82-.17-45.42-.19-1.4 0-2.52.32-5.24.3-2.73 0-6.87-.3-10.26-.31-.9-.01-1.14.26-2.33.25-4.06-.03-7.55-.24-11.77-.28-7.11-.06-14.57.1-21.79-.05-1.37-.03-1.15-.25-3.13-.32-3.4-.1-2.12.22-2.81.26-2.26.14-2.97-.29-5.15-.18-.34.02.14.28-.16.28-4.64.04-4.88-.55-9.82-.23-4.39-.35 2.94-.46 3.7-.65 1.83-.44-3.03-.96-5.9-1.13-2.46-.14-2.44.13-3.42.13-5.2 0-12.93.06-16.89-.07-2.39-.08 1.93-.2.7-.29-1.21-.09-2 .12-3.24-.1-1.24-.23-3.78-.9-3.3-1.22m303.65 135.74c-1.1-7.97-.98-29.1-.88-40.44.09-9.4.93-17.52-.29-15.57 0 10.17.12 18.4.08 29.15 0 1.12-.12 7.8-.14 10.11 0 1.3-.2 1.35-.2 3.13 0 .38.26 2.53.25 3.31-.02 2.69-.43 10.68-.41 11.8.03 3.09.34 1.9.4 3.23.19 4.49-.28 4.98-.13 9.43.03.79.43 3.43.38 6.72-.02 1.34-.23 3.62-.22 4.64.05 5.58.33 11.81.28 16.93-.03 4.19-.35 3.06-.4 5.28-.03 2.21.33 4.89.36 6.4.03 2.43-.18 5.38-.18 6.13.06 14.83.3 28 .4 42.3q.2-14.56.42-29.05c-.33-5.48-.02-2.75.08-6.36.08-2.86-.47-3.55-.41-7.3v.01c.03-1.93.41-6.12.25-10.24 0-.15-.29-.52-.3-3.6-.02-6.93-.17-17.55-.1-25.35.01-2.29.31-1.82.35-4.53.03-1.98-.25-4.26-.19-7.36.08-3.88.56-5.74-.1-8.4.23-.22.46-.11.7-.37M225.3 2.88c-.55-.03-7.85-.77-5.69.02 9.81.34 20.41.17 30.73.37-3.52-.79-9.48-.48-16.72-.42-.35 0 1.08-.2-.86-.17-.94.02-4.55.34-7.47.2"/></svg>