<svg width="209" height="215" viewBox="0 0 209 215" fill="none" xmlns="http://www.w3.org/2000/svg">
<rect x="13" y="143" width="87" height="68" rx="5" fill="#ED7C6F" fill-opacity="0.5"/>
<rect x="54" y="154" width="3" height="34" rx="1" transform="rotate(90 54 154)" fill="#ED7C6F"/>
<rect x="60" y="162" width="3" height="40" rx="1" transform="rotate(90 60 162)" fill="#ED7C6F"/>
<rect x="71" y="170" width="3" height="51" rx="1" transform="rotate(90 71 170)" fill="#ED7C6F"/>
<rect x="84" y="178" width="3" height="64" rx="1" transform="rotate(90 84 178)" fill="#ED7C6F"/>
<rect x="90" y="187" width="3" height="70" rx="1" transform="rotate(90 90 187)" fill="#ED7C6F"/>
<rect x="90" y="195" width="3" height="70" rx="1" transform="rotate(90 90 195)" fill="#ED7C6F"/>
<circle cx="173" cy="7" r="7" fill="#ED7C6F"/>
<rect y="90" width="13" height="13" fill="#F59730"/>
<path d="M166 195L174.66 210H157.34L166 195Z" fill="#78A564"/>
<circle cx="118.5" cy="108.5" r="73.5" fill="#F59730" fill-opacity="0.5"/>
<rect x="150" y="65" width="59" height="44" rx="5" fill="#78A564"/>
</svg>
