<svg width="213" height="200" viewBox="0 0 213 200" fill="none" xmlns="http://www.w3.org/2000/svg">
<rect x="213" y="170" width="175" height="133" rx="5" transform="rotate(-180 213 170)" fill="#78A564" fill-opacity="0.5"/>
<path d="M17.3898 70.5679C17.7808 69.8836 18.4254 69.3807 19.1843 69.1678L56.2857 58.7613C57.8113 58.3334 59.4066 59.1657 59.9285 60.6617L72.6088 97.0119C73.289 98.9619 71.8414 101 69.7762 101H5.16954C2.86607 101 1.42197 98.5116 2.56481 96.5116L17.3898 70.5679Z" fill="#ED7C6F"/>
<path d="M184.289 115.046C186.167 113.115 189.44 114.445 189.44 117.138V192.742C189.44 195.343 186.357 196.711 184.428 194.967L145.307 159.587C144.047 158.447 143.984 156.488 145.169 155.27L184.289 115.046Z" fill="#F59730"/>
<path d="M166 47.2727C166 65.3475 138.186 80 123.678 80C109.171 80 107 65.3475 107 47.2727C107 29.198 126.475 0 140.982 0C155.49 0 166 29.198 166 47.2727Z" fill="#78A564" fill-opacity="0.8"/>
<rect x="92" y="121" width="24" height="24" fill="white"/>
</svg>
