<svg xmlns="http://www.w3.org/2000/svg" width="265" height="37" fill="none" viewBox="0 0 265 37"><rect width="264" height="36" x=".5" y=".5" fill="#f3727c" stroke="#f3727c" rx="3.5"/><path fill="#fff" d="M21.6 26h-4.49V11.45h4.7q2.1 0 3.61.88 1.5.86 2.31 2.5.8 1.6.8 3.87t-.8 3.91a5.8 5.8 0 0 1-2.36 2.52 7.6 7.6 0 0 1-3.77.87m-2.72-1.56h2.61q1.8 0 2.99-.7a4.3 4.3 0 0 0 1.77-1.98q.58-1.29.58-3.06t-.57-3.03a4.2 4.2 0 0 0-1.72-1.96 5.4 5.4 0 0 0-2.85-.7h-2.81zm16.81 1.79q-1.47 0-2.59-.7a5 5 0 0 1-1.73-1.97 7 7 0 0 1-.62-2.96q0-1.7.62-2.97.63-1.27 1.73-1.98 1.12-.7 2.6-.7 1.47 0 2.58.7a4.7 4.7 0 0 1 1.73 1.98q.63 1.27.63 2.97 0 1.69-.63 2.96-.61 1.27-1.73 1.96-1.1.7-2.59.7m0-1.5q1.13 0 1.85-.58a3.4 3.4 0 0 0 1.07-1.52q.36-.93.35-2.03 0-1.09-.35-2.04a3.4 3.4 0 0 0-1.07-1.52 3 3 0 0 0-1.85-.59q-1.11 0-1.84.59t-1.07 1.52q-.36.94-.35 2.04 0 1.09.35 2.03a3.4 3.4 0 0 0 1.07 1.52q.72.57 1.84.57M45.3 26l-3.32-10.9h1.76l2.36 8.34h.12l2.33-8.35h1.79l2.3 8.32h.11l2.36-8.32h1.76L53.54 26h-1.65l-2.39-8.38h-.17L46.94 26zm15.46-6.56V26h-1.67V15.1h1.61v1.7h.15q.38-.84 1.16-1.34.79-.51 2.02-.51 1.1 0 1.94.45.82.45 1.29 1.37.45.9.46 2.3V26h-1.67v-6.82q0-1.28-.67-2a2.4 2.4 0 0 0-1.83-.73q-.81 0-1.44.35t-.99 1.02-.36 1.62m11.7-7.99V26h-1.68V11.45zm7.5 14.78q-1.47 0-2.59-.7a5 5 0 0 1-1.73-1.97A7 7 0 0 1 75 20.6q0-1.7.62-2.97t1.73-1.98q1.1-.7 2.6-.7 1.47 0 2.58.7a4.7 4.7 0 0 1 1.73 1.98q.63 1.27.63 2.97 0 1.69-.63 2.96-.62 1.27-1.73 1.96-1.1.7-2.59.7m0-1.5q1.13 0 1.85-.58a3.4 3.4 0 0 0 1.07-1.52q.35-.93.35-2.03t-.35-2.04a3.4 3.4 0 0 0-1.07-1.52 3 3 0 0 0-1.85-.59q-1.12 0-1.84.59-.73.59-1.08 1.52-.34.94-.34 2.04 0 1.09.34 2.03a3.4 3.4 0 0 0 1.08 1.52q.72.57 1.84.57m10.71 1.53q-1.03 0-1.88-.4a3 3 0 0 1-1.34-1.14q-.5-.75-.5-1.82 0-.93.37-1.52t.99-.92 1.36-.5 1.52-.27l1.6-.19q.63-.07.92-.23t.29-.57v-.06q0-1.05-.58-1.63-.57-.58-1.72-.58-1.2 0-1.89.52a3 3 0 0 0-.95 1.12l-1.6-.56a3.8 3.8 0 0 1 2.7-2.33 6.5 6.5 0 0 1 2.89-.1q.69.12 1.33.5t1.07 1.16q.42.77.42 2.07V26H94v-1.48h-.09q-.16.36-.57.76-.39.4-1.05.7-.66.28-1.62.28m.26-1.51q.99 0 1.68-.4a2.7 2.7 0 0 0 1.39-2.3v-1.53q-.1.12-.47.23-.36.1-.82.18l-1.61.21q-.66.09-1.22.28a2 2 0 0 0-.91.56q-.34.37-.34 1 0 .89.65 1.33t1.65.44m11.92 1.48a4.3 4.3 0 0 1-4.04-2.65 7 7 0 0 1-.59-3 7 7 0 0 1 .6-2.99q.58-1.27 1.63-1.95 1.05-.7 2.43-.7 1.06 0 1.69.36t.95.8q.34.44.52.72h.14v-5.37h1.67V26h-1.62v-1.68h-.2q-.19.3-.52.76-.34.45-.97.8-.64.35-1.69.35m.23-1.5q1 0 1.7-.53a3.3 3.3 0 0 0 1.06-1.47q.36-.95.36-2.18a6 6 0 0 0-.35-2.14 2.8 2.8 0 0 0-2.77-1.95q-1.06 0-1.78.54-.7.54-1.05 1.47t-.35 2.08q0 1.16.35 2.11.37.94 1.07 1.5t1.76.56M117.59 26h-1.84l5.34-14.55h1.82L128.25 26h-1.85l-4.34-12.24h-.12zm.69-5.68h7.44v1.56h-7.44zm16.44 5.9q-1.54 0-2.64-.72a4.7 4.7 0 0 1-1.7-2q-.6-1.26-.6-2.9 0-1.65.6-2.93.63-1.28 1.72-2 1.1-.72 2.59-.72 1.16 0 2.07.43.92.42 1.52 1.19.58.75.73 1.79h-1.68a2.6 2.6 0 0 0-2.61-1.9q-.99 0-1.72.5-.74.51-1.14 1.43t-.4 2.16q0 1.26.39 2.2.4.93 1.14 1.45t1.73.52a3 3 0 0 0 1.18-.23 2.5 2.5 0 0 0 1.43-1.67h1.68a3.9 3.9 0 0 1-2.18 2.96q-.9.45-2.11.45M146.2 15.1v1.42h-5.65V15.1zm-4-2.61h1.67v10.4q0 .7.2 1.06.22.35.55.47.33.1.7.11.28 0 .46-.03l.28-.05.34 1.5a3 3 0 0 1-1.25.2q-.7 0-1.4-.3-.66-.3-1.11-.93-.44-.63-.44-1.58zM148.72 26V15.1h1.68V26zm.86-12.73q-.5 0-.85-.33a1 1 0 0 1-.35-.8q0-.47.35-.8.36-.34.85-.34.48 0 .83.33.36.35.36.8 0 .48-.36.8-.34.34-.83.34m12.81 1.82L158.36 26h-1.7l-4.04-10.9h1.82l3 8.68h.12l3.01-8.69zM164.6 26V15.1h1.68V26zm.86-12.73q-.5 0-.85-.33a1 1 0 0 1-.35-.8q0-.47.35-.8.36-.34.84-.34.5 0 .84.33.36.35.36.8 0 .48-.36.8-.34.34-.83.34m8.63 1.82v1.42h-5.65V15.1zm-4-2.61h1.67v10.4q0 .7.2 1.06.22.35.55.47.33.1.7.11.28 0 .46-.03l.28-.05.34 1.5a4 4 0 0 1-1.25.2q-.71 0-1.39-.3t-1.12-.93-.44-1.58zm7.6 17.61a4 4 0 0 1-1.22-.2l.43-1.48q.6.16 1.08.12.47-.05.83-.42.37-.37.67-1.2l.32-.85-4.04-10.97h1.82l3.01 8.7h.12l3-8.7h1.82l-4.63 12.5q-.3.84-.77 1.4-.45.56-1.07.83-.6.27-1.37.27M193.6 26V11.45h4.92q1.72 0 2.8.62 1.1.61 1.62 1.66.53 1.05.53 2.33t-.53 2.33-1.6 1.68q-1.1.62-2.79.62h-3.52v-1.57h3.47q1.17 0 1.88-.4.7-.4 1.03-1.1.33-.69.32-1.56 0-.87-.32-1.57a2.3 2.3 0 0 0-1.04-1.08 4 4 0 0 0-1.9-.4h-3.1V26zm17.2 0h-4.5V11.45h4.7q2.1 0 3.61.88 1.5.86 2.31 2.5.8 1.6.8 3.87t-.8 3.91a5.8 5.8 0 0 1-2.36 2.52 7.6 7.6 0 0 1-3.77.87m-2.73-1.56h2.61q1.8 0 2.99-.7a4.3 4.3 0 0 0 1.77-1.98q.58-1.29.58-3.06a7 7 0 0 0-.57-3.03 4.2 4.2 0 0 0-1.72-1.96 5.4 5.4 0 0 0-2.85-.7h-2.81zM220.67 26V11.45h8.72v1.57h-6.96v4.91h6.3v1.56h-6.3V26zM237.45 21.86c-.25 0-.45.2-.45.45v.9c0 1.23 1 2.24 2.24 2.24h8.52c1.23 0 2.24-1 2.24-2.24v-.9a.45.45 0 0 0-.9 0v.9c0 .74-.6 1.34-1.34 1.34h-8.52c-.74 0-1.34-.6-1.34-1.34v-.9c0-.25-.2-.45-.45-.45M243.5 12c-.25 0-.45.2-.45.45v7.66l-2.11-2.12a.5.5 0 0 0-.38-.16.4.4 0 0 0-.23.07.45.45 0 0 0-.06.69l2.16 2.16a1.5 1.5 0 0 0 2.13 0l2.17-2.16a.45.45 0 0 0-.07-.69c-.17-.12-.43-.08-.6.1l-2.12 2.1v-7.65c0-.25-.2-.45-.44-.45"/></svg>