<svg xmlns="http://www.w3.org/2000/svg" width="470" height="127" fill="none" viewBox="0 0 470 127"><path fill="#78a564" fill-opacity=".5" d="M2.03.3A482 482 0 0 1 25.61.06c1.83.02 1.66.23 2.4.26 1.39.06 3.7-.16 4.03-.16 2.01 0 1.23.36 1.5.37 3.02.15 2.15-.26 5.04-.3 3.76-.05 8.6.02 13.13.04 1.59 0 .88.28 4.32.26 2.43-.02 9.9-.33 13.34 0 .02.13-.42.27-.6.4 4.93-.53 6.7-.5 13.68-.37 1.1.02 2.16-.2 4.1-.12 1.95.08 2.03.41 5.95.4 1.39 0 2.23-.23 4.36-.24 6.05-.03 17.59.26 22.56.27 9.79.02 15.11-.38 23.8-.24.68.01-.8.27.43.27 1.24 0 2.53-.33 2.83-.34 3.29-.09 10.23.37 12.06.31 4.44-.13.07-.28 6.22-.35 5.87-.06 13.96.39 19.77.47 6.74.1 8.91-.54 13.98.13l53.53-.1q-.07.2-.17.4l4.23-.27-.63.3c6.63-.39 12.53-.59 20.27-.48.15 0-.25.27-.12.28 1.74.05 3.69-.16 5.22-.11 3.7.11 10 .7 7.22-.02 8.63.15 18.78-.09 27 .05 3.56.06 4.63.48 6.33.5s.84-.33 1.44-.35c3.64-.08 9.61-.06 10.24.34l2.25-.49c-.44.45 10.78.27 13.73.28.53 0 .61.2 1.02.2 4.52-.03 5.62-.34 9.5-.44 1.36-.04-.75.31 2.74.16.3-.01.14-.33 4.3-.32 6.66 0 19.4-.12 27.32.03.64.01-1.33.35 1.64.27 1.07-.03.56-.27 3.17-.27 10.1 0 20.87.27 31.18.04-.38.27-4.05.58 1.47.4.88-.02.22-.27.62-.28 3.2-.07 5.98.1 9.45.01 1.03-.02 1.28-.21 2.56-.26 1.88-.07 2.72.2 4.91.09 3.43-.18 3.96-.44 8.2.07l10.84-.02 1.38-.01V2.5c.05 20.44.13 40.82-.06 61.21.14 6.94.3 13.34.36 20.58.02 2.13-.33 2.53-.21 5.93.02.76.4 6.2-.3 6.98.05 1.51.05 2.47.1 3.77l.3-2.95c-.11 5.48.14 9.95.25 14.8.09 3.57-.21 1.04-.18 3.23s.1 3.19-.26 5.92c.17.9.22 1.66.22 2.53v1.59h-1.6c-1.24 0-2.69-.1-5.02-.1-.42 0-2.89.16-4.94.13-1.49-.03-1.93-.29-4.28-.25-.38 0-5.35.33-6.94.36-2.46.05-6.38-.29-6.86-.3-6.92-.05-9.6.28-14.51-.26-1 .32-5.1.5-8.42.48-4.19-.04-12.59-.7-13.73 0-4.85-.31-4.33-.12-10.08-.12-5.23 0-19.09-.26-23.33-.22s-2.17.42-3.86.48c-2.75.08-1.26-.2-3.15-.2-5.34.01-9.97.07-15.06.2l-.86-.6-.79.2-3.33-.01c8.56.87-8.27-.07-13.32-.09-4.26-.02-11.36.4-16.03.49-1.14.02-.36-.2-.59-.2-2.74.07-3.15.22-6.84.2-1.94-.01-3.93-.28-5.83-.29-13.93-.03-27.37.24-41.2.27-2.36 0-4.39-.33-6.36-.34-2.83 0-4.62.26-7.28.27-2.64 0-6.46-.32-8.26-.27s1.28.36-2 .27c-1.51-.04 1.15-.27-.71-.28-5.83-.02-14.04.27-20.24 0l.98.19c-6.6-.03-12.44-.2-19.25-.22-2.39 0-6.69.2-9.03.2s-3.4-.23-5.28-.23c-.77 0-.47.2-.99.19-6.47-.05-10.02-.4-16.8-.37-24.82.15-50.41.28-75.62.41-1.02 0-1.7.26-3.18.3-2.28.06-2.39-.17-2.7-.17-1.98-.06-1.17.16-3.84.16-5.87 0-15.35-.2-21.2-.18-13.5.04-24.83.24-38.06.34-.95.01-.3-.3-1.96-.3-6.8-.02-10.48.08-15.25.14H.11v-1.87c-.05-3.4-.08-7.35-.05-13.38.08-14.5.27-41.88.31-58.86-.56-5.35-.42-12.27 0-18 1.27 29.98.88 58.8.84 90.24v.77h10.66c37.17-.06 76.8-1.08 114.46-.94 3.54.01 4.96.34 7.95.27.5-.01-.8-.26.75-.29 21.3-.34 44.01.23 64.93.07 5.64-.04 6.52-.32 11.48-.39-.87.13-1.44.27-2.2.4 22.64.41 45.31.23 68.25.29 1.03 0 1.17.27 2.25.28 2.17.02 4.25-.27 6.15-.28 2.47-.02 2.9.2 5.18.18 1.12 0 .78-.21 3.2-.18.2 0 .34.22 1.95.2l17.09-.32c4.66-.07 8.4.26 10.17.28 4.77.06 4.67-.28 8.7-.28 28.73 0 56.2.38 85.6.38 1.85 0 8.68-.37 12.1-.36 1.15 0 7.14.1 8.04.11 3.64.04 6.78.26 8.8.3 3.89.1 8.24-.25 10.36-.29 3.17-.05 8.43-.02 10.9-.01h.18v-1.19c.03-3.78.47-2.53.37-5.24-.03-.8-.37.04-.37-2.78 0-2.36.25-3.32.3-4.93s-.34-4.57-.33-5.58c.05-5.25.3-7.58.32-13.3 0-4.75-.17-26.71-.26-28.54-.41-8.17-.23 5.45-.24 6.21-.08 4.15-.24 3.55.06 7.68-.93 3.7.52 16.61-.58 19.92.73 3.42.36 6.29.21 9.89-.2 4.98.23 1.19.23 4.82 0 1.43-.33 5.58-.29 7.73.05 1.93.26 2.86.3 5.12l.1-.08h-.82c-5.14.03-9.28-.09-13.6-.4l-2.31.41-8.96-.43 1.43.36-2.62.05-8.65-.53c-8.1.68-5.75.1-10.26 0-4.5-.09-7.1.3-10.58.31-4.7 0-6.84.05-11.57.03-2.74-.02-7.39-.4-3.57.2-8.55.05-20.26.22-27.9-.03-2.27-.07.74-.26.36-.28-1.92-.11-3.53.2-5.51.15-3.29-.07-9.69-.31-12.27-.37-3.73-.08-9.58.32-10.18.35-3.34.16-4.24-.17-5.31-.15-6.12.13-7.47.27-9.4-.43-1.58.3-8.21.81-9.82.3-.04.47-5.55.39-8.93.5l-1.9-.4c-7.07.83-21.15.23-30.45.13-.24 0-.65.34-2.05.27-.1-.01.05-.16-.89-.18-3.1-.07-14.9-.46-16.26-.46-5-.01-5.87.24-8.91.27-4.01.03-4.59-.2-8.4-.17-1.79.02-3.41.32-6.22.28-1.66-.03-1.83-.27-3.14-.28-4.69-.08-8.13.08-12.3-.24-1.08.77-3.06.2-5.12.15-8.36-.24-18.78.09-25.95.02-22.38-.22-42.22-.7-64.08-.8-3.55-.02-4.4.37-8.13.34-1.67 0-3.4-.29-6.14-.3-2.2 0-5.35.15-8.1.14-.73 0-.8-.26-1.87-.26-8.15-.01-16.12.17-24.35.3-3.06.05-4.94-.3-4.43.3q-1.74-.2-3.4-.42c-4.2.38-7.62-.01-13.3.08-.62.01-4.9.43-7.34.13-.17.21.2.4.14.59-2.4.08-6.1-.17-7.72-.2s-2.71.26-3.2.26c-1.85.01-1.42-.36-1.56-.36-8.65-.35-7.74-.16-12.97.4-1.3.13-10.19-.27-11.98.16-.09-.18.4-.33.55-.5l-6.07-.1.9.89q0-.99.03-1.97c-.17.57-.34 1.25-.51 1.77.15-5.47-.25-10.01-.24-14.48 0-2.56.38-2.25.3-3.75-.01-.3-.27.2-.29-.67-.16-7.1.1-10.22.16-17.35.02-3.33-.44-6.25-.14-11.04.03-.44.44-5.13-.15-8.04.19-.92.29-1.73.44-2.42-.87-5.88-.02-4.25.19-12.2.1-4.1-.05-17.93-.14-22.4-.06-2.67-.4-2.62-.42-3.1-.07-2.83.26-2.84.2-5.46s-.43-5.95-.4-8.65c.03-2.06.44-.44.3-3.49-.03-.63-.38 1.18-.24-2.04.02-.51.4-5.66.48-6.71.22 2.7.5 10.56.6 13.51.8 26.74 1.18 67.73 1.34 108.49l-2.4-2.4c36.73-.15 73.28-.1 99.01-.02 5.04.02 8.34.38 11.63.41 3.28.03.5-.3 3.49-.27 2.98.03 5.15.26 7.94.28 18.8.14 37.76.28 56.41.35 4.84.01 8.7-.25 13.1-.25 1.72 0 1.77.34 3 .34 13.1-.03 25.24-.36 38.28-.32 5.42.02 11.27.3 16.64.33 4.42.03 9-.17 12.98-.17 2.16 0 3.3.25 4.08.28 2.72.06 1.77-.26 3.16-.26 3.83 0 5.74.4 9.33.36 1.4-.01 1.23-.26 3.27-.3 2.6-.04 1.64.18 3.5.2.1 0-.26-.18.72-.2 6.34-.04 14.24-.18 20.35-.16 12.62.02 25.09.36 36.86.43 2.97.01 2.18-.22 3.12-.23 4.55-.05 6.17.22 10.93.13.79-.02 3.98-.34 7.02-.26 1.64.05 3.5.24 4.9.29s1.63-.25 3.31-.25c3.07 0 2.18.2 6.56.17 1.76-.02 7.65-.3 12.2-.27 7.42.03 16.63.29 25.38.3 3 0 6.86-.3 11.52-.31 5.69 0 16.17.06 22 .07 2.99 0 3.2.31 3.56.33 2.28.09 1.36-.27 2.89-.25 2.1.02 4.06.28 5.96.3 1.22 0 1.41-.26 1.68-.26h1.21l-1.62 1.61c-.07-9.26-.05-17.57-.08-26.86-.08-31.61-.24-63.4-.32-95.14l2.02 2.02q-30.72.09-61.28 0c-4.35 0-4.52-.33-8.34-.28s-7.52.76-10.66-.02c-.1.16-.1.27-.2.41-7.9-.22-15.8 0-23.53.04-5.72.02-10.8 0-16.08-.02-4.68-.02-4.28-.3-8.33.06-20.16-.22-40.53-.17-60.52-.54-4.68.59-9.18.22-15.66.13-.8 0 .06.2-2.31.19-2.98-.03-4.53-.35-9.55-.33-1.32 0-11.17.36-14.8.18-3.65-.19-8.92-.3-12.7-.47.53.14 1.21.27 1.8.4l-5.66.08-.81-.5-3.3.47c-2.38-.86.06-.58-5.25-.36-2.65.1-4.76-.04-7.5.05-.97.03-1.6.28-2.69.32-2.65.07-1.1-.28-2.75-.27-1.65 0-4.02.38-6.99.21 3.1-.68-5.84-.46-6.27.07-1.06 0-1.95-.02-3.13 0 1.09-1.35-4.49-.4-6.7-.21-2.2.18-2.12-.18-2.63-.16-1.5.04-.41.19-1.45.2-6.92.02-13.44-.2-20.26-.22-.98 0-.11.2-1.26.18s-2.24-.22-3.94-.2c-.45 0-.6.18-1.3.18-14.84-.01-28.93-.17-44.07-.19-1.37 0-2.44.32-5.1.3-2.64 0-6.66-.3-9.94-.31-.87-.01-1.11.26-2.27.25-3.93-.03-7.32-.24-11.41-.28-6.9-.06-14.14.1-21.15-.05-1.33-.03-1.11-.25-3.03-.32-3.3-.1-2.06.22-2.73.26-2.2.14-2.88-.29-5-.18-.32.02.14.28-.15.28-4.5.04-4.74-.55-9.53-.23-4.26-.35 2.85-.46 3.58-.65 1.79-.44-2.93-.96-5.7-1.13-2.4-.14-2.38.13-3.34.13-5.04 0-12.54.06-16.38-.07-2.32-.08 1.87-.2.68-.29-1.18-.09-1.94.12-3.15-.1C4.03 1.3 1.56.62 2.03.3m423.51 1.5c-7.73 1.08-28.23.97-39.23.87-9.13-.09-17-.93-15.12.29 9.87 0 17.86-.12 28.3-.08 1.08 0 7.55.12 9.8.14 1.27 0 1.31.2 3.04.2.37 0 2.45-.26 3.22-.25 2.6.02 10.35.43 11.43.42 3-.04 1.85-.35 3.15-.4 4.35-.2 4.83.27 9.14.12.77-.03 3.33-.43 6.52-.38 1.3.02 3.51.23 4.5.22 5.42-.05 11.47-.33 16.43-.29q.73 0 1.25.03l-.19-.19c-.08 2.6-.33 1.98-.37 3.87-.04 2.15.33 4.75.35 6.22.03 2.35-.18 5.21-.17 5.94.06 14.39.3 27.18.39 41.06q.2-14.15.42-28.2c-.33-5.32-.02-2.67.08-6.17.08-2.77-.47-3.44-.4-7.08.02-1.87.4-5.94.25-9.93-.01-.14-.3-.5-.3-3.5L468 2.5v-.04h-.04c-6.63.04-15.6.15-22.38.1-2.22-.02-1.77-.32-4.4-.36-1.91-.03-4.13.25-7.13.19-3.76-.08-5.57-.56-8.16.1-.21-.23-.1-.46-.36-.7m-207.87.58c-.53-.03-7.6-.77-5.5.02 9.5.34 19.8.17 29.8.37-3.41-.79-9.2-.48-16.21-.42h-.01c-.33 0 1.05-.2-.83-.17-.92.02-4.42.34-7.25.2"/></svg>