<svg width="54" height="73" viewBox="0 0 54 73" fill="none" xmlns="http://www.w3.org/2000/svg">
<path d="M25.6361 18.1476C25.3665 17.8427 25.0616 17.5699 24.7278 17.3356C23.8581 16.7226 22.8504 16.4145 21.8619 16.4434C21.3773 16.4595 21.0339 16.9184 21.1527 17.387C21.2393 17.7336 21.557 17.9679 21.9133 17.9582C22.5744 17.939 23.258 18.154 23.8549 18.5744C24.853 19.2773 25.4788 20.4615 25.62 21.9089H25.6393V30.327C25.6232 30.3879 25.6168 30.4489 25.6168 30.5163C25.6232 32.6858 24.4422 33.6454 23.2516 33.8123C21.7624 34.0241 19.9748 33.0485 19.3137 30.8533C19.2014 30.481 18.8355 30.2499 18.4504 30.3173C18.0011 30.3976 17.7283 30.8501 17.8567 31.2865C18.7521 34.2937 21.3131 35.6127 23.4602 35.311C24.2464 35.1987 25.0103 34.8617 25.6361 34.2969V40.7476C25.5173 41.964 25.0327 42.9139 24.3042 43.3536C23.7586 43.6841 23.075 43.7419 22.2759 43.5205C21.9036 43.4178 21.5153 43.6039 21.3677 43.9569C21.1944 44.3774 21.4255 44.8588 21.8619 44.9775C23.3639 45.3883 24.4294 45.0481 25.0873 44.6469C25.2831 44.5282 25.4628 44.3934 25.6329 44.2361V53.1709C25.6329 53.6427 25.5655 54.1144 25.4339 54.5637C24.8498 56.5696 23.0301 57.9688 21.0082 57.9688C18.9864 57.9688 17.0961 56.4765 16.5537 54.4418C18.5018 54.2621 19.9267 53.5945 20.79 52.4552C21.6373 51.3384 21.9261 49.7851 21.6501 47.8338C21.5891 47.4038 21.1751 47.1117 20.7451 47.2016C20.3567 47.2818 20.0904 47.6509 20.1481 48.0456C20.3696 49.5797 20.177 50.7543 19.5833 51.5374C18.9799 52.3333 17.8984 52.8018 16.3708 52.9334L15.7 52.8853C11.7718 52.6349 8.63952 49.2652 8.54003 45.1925C8.8738 44.4351 9.4258 43.8992 9.95534 43.7868C10.2313 43.7291 10.4464 43.5108 10.5138 43.2381C10.655 42.686 10.1607 42.1822 9.60552 42.3106C8.74542 42.5063 7.93988 43.1482 7.3943 44.1014C7.0862 43.9313 6.79416 43.7227 6.51815 43.482C5.0194 42.1693 4.2973 40.0576 4.61824 38.1641C5.63238 38.7065 6.78774 38.9953 7.93988 38.9953C8.70049 38.9953 9.4611 38.8702 10.1768 38.6102C10.7159 38.4144 11.4124 38.0775 12.096 37.4934C14.0954 36.7777 15.7899 37.1596 16.7527 38.5492C17.7829 40.0351 17.7251 42.1726 16.6821 43.7644C16.4735 44.0821 16.5248 44.5057 16.8104 44.7593C17.1538 45.0609 17.6866 44.9935 17.9401 44.6116C19.3169 42.5127 19.3747 39.6725 17.9979 37.6859C16.9902 36.2321 15.424 35.5228 13.6043 35.6352C13.9895 34.9452 14.3136 34.1075 14.5286 33.0934C14.6185 32.6601 14.3296 32.2429 13.89 32.1819C13.4952 32.1274 13.1261 32.3873 13.0427 32.7789C12.5677 35.0126 11.3835 36.5659 9.66329 37.1885C8.15812 37.7341 6.39941 37.5158 5.04508 36.6654L4.63107 36.3476C2.68301 34.8617 1.52124 32.4772 1.52124 29.9739C1.52124 27.8141 2.38455 25.7505 3.87046 24.2645C4.31014 25.237 4.814 25.9976 5.38847 26.5496C5.70299 26.8513 6.20364 26.8224 6.48606 26.495C6.74922 26.1869 6.72355 25.728 6.43471 25.4488C5.95331 24.9866 5.52005 24.2902 5.13494 23.3691C5.11889 23.3306 5.09963 23.2953 5.07717 23.26L5.09321 23.2472L4.93275 22.7369C4.39358 21.0328 4.71131 19.0141 5.75434 17.4736C6.36411 16.5718 7.16323 15.9075 8.06505 15.5512L8.53682 15.3651C10.0163 14.8163 11.3931 14.8901 12.5709 15.5705C12.8983 15.7598 13.3155 15.6828 13.5498 15.3843C13.8354 15.0185 13.7263 14.4857 13.3251 14.2547C11.9323 13.4523 10.3148 13.2758 8.63631 13.7412C9.13696 10.4388 11.637 7.76863 14.8207 7.16849C15.2475 9.64929 16.1204 11.2283 17.4908 11.9921C18.0653 12.313 18.7136 12.4735 19.4293 12.4735C20.0037 12.4735 20.6231 12.3708 21.281 12.1622C21.7079 12.0274 21.9261 11.5588 21.756 11.148C21.6052 10.7854 21.2008 10.5993 20.8253 10.718C19.763 11.0518 18.8901 11.0389 18.2322 10.6699C17.3175 10.1596 16.6821 8.93041 16.3355 7.01765H16.3932L16.3997 6.3116C16.4221 3.68958 18.4953 1.55859 21.0211 1.55859C23.2451 1.55859 25.1579 3.20498 25.5655 5.46755C25.6168 5.75639 25.6425 6.05485 25.6425 6.35332V18.1508L25.6361 18.1476Z" fill="#C8D7E9"/>
<path d="M7.44889 69.4721C7.01242 68.9971 6.79419 68.413 6.79419 67.7198C6.79419 67.0266 7.01242 66.4457 7.44889 65.9643C7.88536 65.4829 8.44057 65.2422 9.11453 65.2422C9.73393 65.2422 10.2442 65.438 10.6454 65.8263V65.3834H12.2532V70.0498H10.6614V69.5234H10.6422C10.241 69.9663 9.73072 70.1878 9.11132 70.1878C8.44057 70.1878 7.88536 69.9503 7.44568 69.4753L7.44889 69.4721ZM8.81606 66.9271C8.60746 67.1325 8.50155 67.3989 8.50155 67.7198C8.50155 68.0407 8.60104 68.3039 8.80002 68.5061C9.0022 68.7083 9.26537 68.811 9.59272 68.811C9.92007 68.811 10.1672 68.7083 10.3694 68.5029C10.5716 68.2943 10.6743 68.0343 10.6743 67.7198C10.6743 67.4053 10.5684 67.1325 10.3597 66.9271C10.1511 66.7217 9.89439 66.619 9.59272 66.619C9.29104 66.619 9.02467 66.7217 8.81606 66.9271Z" fill="#231F20"/>
<path d="M14.5222 70.0477V62.2266H16.1301V70.0477H14.5222Z" fill="#231F20"/>
<path d="M18.5595 62.7812C18.7488 62.595 18.9735 62.502 19.2302 62.502C19.487 62.502 19.7148 62.595 19.901 62.7812C20.0903 62.9673 20.1834 63.192 20.1834 63.4519C20.1834 63.7119 20.0871 63.9397 19.901 64.1259C19.7148 64.312 19.4902 64.4051 19.2302 64.4051C18.9703 64.4051 18.7456 64.312 18.5595 64.1259C18.3733 63.9365 18.2803 63.7119 18.2803 63.4519C18.2803 63.192 18.3733 62.9673 18.5595 62.7812ZM18.4054 65.3839V70.0503H20.0133V65.3839H18.4054Z" fill="#231F20"/>
<path d="M22.1252 71.196L23.4443 70.5478C23.685 70.9489 24.1086 71.1479 24.7087 71.1479C24.9879 71.1479 25.2479 71.058 25.4854 70.8783C25.7261 70.6986 25.8448 70.4258 25.8448 70.0535V69.7069C25.5592 70.0214 25.0489 70.1787 24.314 70.1787C23.6432 70.1787 23.088 69.9412 22.6484 69.4662C22.2119 68.9912 21.9937 68.4071 21.9937 67.7139C21.9937 67.0207 22.2119 66.4398 22.6484 65.9584C23.0848 65.477 23.64 65.2363 24.314 65.2363C24.9141 65.2363 25.4148 65.4225 25.816 65.7915H25.8448V65.3743H27.4527V70.1658C27.4527 70.9232 27.1992 71.5073 26.6985 71.9213C26.1947 72.3353 25.5303 72.5407 24.7055 72.5407C23.3705 72.5407 22.5104 72.0882 22.122 71.1864L22.1252 71.196ZM24.0219 66.9276C23.8133 67.133 23.7074 67.3994 23.7074 67.7203C23.7074 68.0413 23.8069 68.3044 24.0059 68.5066C24.2081 68.7088 24.4712 68.8115 24.7986 68.8115C25.126 68.8115 25.3731 68.7088 25.5753 68.5034C25.7774 68.2948 25.8801 68.0349 25.8801 67.7203C25.8801 67.4058 25.7742 67.133 25.5656 66.9276C25.357 66.7222 25.1003 66.6195 24.7986 66.6195C24.4969 66.6195 24.2305 66.7222 24.0219 66.9276Z" fill="#231F20"/>
<path d="M29.728 70.0465V65.3802H31.3359V65.8712H31.3552C31.7756 65.4508 32.2185 65.2422 32.6934 65.2422C32.9245 65.2422 33.1524 65.2743 33.377 65.3353C33.6049 65.3962 33.8231 65.4893 34.0349 65.6145C34.2435 65.7428 34.4136 65.9226 34.5452 66.1568C34.6736 66.3911 34.741 66.6607 34.741 66.972V70.0465H33.1331V67.4117C33.1331 67.171 33.0561 66.9592 32.902 66.7762C32.748 66.5933 32.5458 66.5002 32.2987 66.5002C32.0516 66.5002 31.8366 66.5933 31.6376 66.7795C31.4418 66.9656 31.3423 67.1774 31.3423 67.4085V70.0433H29.7344L29.728 70.0465Z" fill="#231F20"/>
<path d="M40.7327 62.5449L43.7591 70.0483H41.9202L41.3682 68.5464H38.5087L37.9534 70.0483H36.1145L39.1441 62.5449H40.7263H40.7327ZM40.7873 67.0476L39.9496 64.8653H39.9304L39.096 67.0476H40.7873Z" fill="#231F20"/>
<path d="M46.9427 62.5449V70.0483H45.2322V62.5449H46.9427Z" fill="#231F20"/>
<path d="M27.0514 5.19574C26.5122 2.20466 23.9736 0.0351562 21.0146 0.0351562C19.3811 0.0351562 17.8438 0.686648 16.6853 1.8741C15.6936 2.89145 15.0774 4.19765 14.9201 5.60975C12.8726 5.9018 10.9823 6.89669 9.54131 8.45642C8.0554 10.0643 7.17925 12.1407 7.04125 14.3455C6.04636 14.8398 5.17343 15.6196 4.49626 16.6209C3.29918 18.3861 2.87555 20.6647 3.34411 22.6833C1.24201 24.4677 0 27.1571 0 29.9717C0 31.4673 0.349816 32.9564 1.00773 34.2786C1.56615 35.3955 2.34601 36.4 3.28314 37.2087C2.53857 39.8051 3.41472 42.7865 5.52003 44.6287C5.98859 45.0395 6.49888 45.3764 7.04125 45.63C7.18567 47.8284 8.06502 49.8952 9.55094 51.4998C11.0016 53.0692 12.9111 54.0641 14.9779 54.3433C15.2186 55.6687 15.8669 56.8787 16.8393 57.8062C17.9786 58.8909 19.4581 59.4878 21.0114 59.4878C22.3626 59.4878 23.6431 59.045 24.715 58.2105C25.7484 57.405 26.5186 56.2625 26.8909 54.9916C27.0642 54.4043 27.1476 53.7945 27.1476 53.1751V6.34789C27.1476 5.95956 27.1123 5.57124 27.0449 5.19254L27.0514 5.19574ZM25.6361 18.1486C25.3665 17.8437 25.0616 17.5709 24.7278 17.3366C23.8581 16.7236 22.8504 16.4155 21.8619 16.4444C21.3773 16.4605 21.0339 16.9194 21.1526 17.388C21.2393 17.7346 21.557 17.9688 21.9132 17.9592C22.5744 17.94 23.258 18.155 23.8549 18.5754C24.853 19.2782 25.4788 20.4625 25.62 21.9099H25.6393V30.3279C25.6232 30.3889 25.6168 30.4499 25.6168 30.5173C25.6232 32.6868 24.4422 33.6464 23.2515 33.8133C21.7624 34.0251 19.9748 33.0494 19.3137 30.8543C19.2014 30.482 18.8355 30.2509 18.4504 30.3183C18.0011 30.3985 17.7283 30.8511 17.8567 31.2875C18.7521 34.2947 21.3131 35.6137 23.4601 35.312C24.2464 35.1997 25.0102 34.8627 25.6361 34.2979V40.7486C25.5173 41.9649 25.0327 42.9149 24.3042 43.3546C23.7586 43.6851 23.075 43.7429 22.2759 43.5215C21.9036 43.4188 21.5153 43.6049 21.3677 43.9579C21.1944 44.3784 21.4254 44.8597 21.8619 44.9785C23.3639 45.3893 24.4294 45.0491 25.0873 44.6479C25.283 44.5292 25.4628 44.3944 25.6328 44.2371V53.1719C25.6328 53.6437 25.5655 54.1154 25.4339 54.5647C24.8498 56.5706 23.0301 57.9698 21.0082 57.9698C18.9863 57.9698 17.0961 56.4775 16.5537 54.4428C18.5017 54.2631 19.9267 53.5955 20.79 52.4562C21.6372 51.3394 21.9261 49.7861 21.6501 47.8348C21.5891 47.4047 21.1751 47.1127 20.7451 47.2026C20.3567 47.2828 20.0904 47.6519 20.1481 48.0466C20.3696 49.5807 20.177 50.7553 19.5833 51.5383C18.9799 52.3343 17.8984 52.8028 16.3707 52.9344L15.7 52.8863C11.7718 52.6359 8.63949 49.2662 8.54 45.1935C8.87377 44.4361 9.42578 43.9002 9.95531 43.7878C10.2313 43.7301 10.4463 43.5118 10.5137 43.239C10.6549 42.687 10.1607 42.1832 9.6055 42.3115C8.7454 42.5073 7.93986 43.1492 7.39428 44.1023C7.08618 43.9323 6.79413 43.7237 6.51813 43.483C5.01938 42.1703 4.29728 40.0586 4.61821 38.1651C5.63236 38.7075 6.78771 38.9963 7.93986 38.9963C8.70047 38.9963 9.46108 38.8712 10.1768 38.6112C10.7159 38.4154 11.4123 38.0785 12.0959 37.4944C14.0953 36.7787 15.7899 37.1606 16.7527 38.5502C17.7828 40.0361 17.7251 42.1735 16.6821 43.7654C16.4734 44.0831 16.5248 44.5067 16.8104 44.7603C17.1538 45.0619 17.6866 44.9945 17.9401 44.6126C19.3169 42.5137 19.3747 39.6735 17.9979 37.6869C16.9901 36.2331 15.424 35.5238 13.6043 35.6362C13.9894 34.9462 14.3136 34.1085 14.5286 33.0944C14.6185 32.6611 14.3296 32.2439 13.8899 32.1829C13.4952 32.1284 13.1261 32.3883 13.0427 32.7799C12.5677 35.0135 11.3835 36.5669 9.66327 37.1895C8.15809 37.7351 6.39939 37.5168 5.04505 36.6664L4.63105 36.3486C2.68299 34.8627 1.52122 32.4782 1.52122 29.9749C1.52122 27.815 2.38453 25.7514 3.87044 24.2655C4.31012 25.238 4.81398 25.9986 5.38845 26.5506C5.70296 26.8522 6.20362 26.8234 6.48604 26.496C6.7492 26.1879 6.72353 25.729 6.43469 25.4498C5.95329 24.9876 5.52003 24.2912 5.13491 23.3701C5.11887 23.3316 5.09961 23.2963 5.07715 23.261L5.09319 23.2482L4.93273 22.7379C4.39356 21.0337 4.71128 19.0151 5.75431 17.4746C6.36408 16.5728 7.1632 15.9085 8.06502 15.5522L8.53679 15.3661C10.0163 14.8173 11.3931 14.8911 12.5709 15.5715C12.8983 15.7608 13.3155 15.6838 13.5498 15.3853C13.8354 15.0195 13.7263 14.4867 13.3251 14.2557C11.9323 13.4533 10.3148 13.2768 8.63628 13.7422C9.13694 10.4398 11.637 7.76962 14.8206 7.16948C15.2475 9.65028 16.1204 11.2293 17.4908 11.9931C18.0653 12.314 18.7136 12.4745 19.4292 12.4745C20.0037 12.4745 20.6231 12.3718 21.281 12.1632C21.7078 12.0284 21.9261 11.5598 21.756 11.149C21.6052 10.7864 21.2008 10.6002 20.8253 10.719C19.763 11.0528 18.8901 11.0399 18.2322 10.6708C17.3175 10.1606 16.6821 8.9314 16.3354 7.01864H16.3932L16.3996 6.31259C16.4221 3.69057 18.4953 1.55958 21.0211 1.55958C23.2451 1.55958 25.1579 3.20597 25.5655 5.46854C25.6168 5.75738 25.6425 6.05584 25.6425 6.35431V18.1518L25.6361 18.1486ZM17.2084 20.5363C17.5197 21.7815 17.4234 23.1808 16.926 24.4196C16.4542 25.5942 15.6422 26.557 14.5992 27.1956C14.2109 27.4331 13.7006 27.2759 13.5209 26.8555L13.5112 26.8298C13.3668 26.4864 13.4984 26.0948 13.8161 25.9023C14.7629 25.3214 15.2603 24.4934 15.5203 23.8547C15.8958 22.9208 15.9696 21.8393 15.7385 20.9022C15.6519 20.5459 15.8412 20.1769 16.1782 20.0324C16.605 19.8495 17.0993 20.0902 17.2116 20.5395L17.2084 20.5363Z" fill="#231F20"/>
<path d="M48.3645 8.93475C44.6513 3.17402 39.6768 0 34.359 0C32.8955 0 31.4642 0.593725 30.4372 1.63354C29.407 2.67016 28.8229 4.10472 28.8357 5.56817C28.8935 13.4535 28.9096 20.8606 28.8807 27.5809C28.8518 34.0926 28.8422 40.5145 28.8261 46.7245C28.8229 49.1122 28.8165 51.5128 28.8101 53.9359C28.8069 55.3993 29.3974 56.8307 30.4308 57.8673C31.4642 58.9039 32.8955 59.4976 34.359 59.4976C39.6897 59.4976 44.6609 56.391 48.3613 50.7522C51.9974 45.2097 54 37.8154 54 29.9333C54 22.0512 52.0006 14.5735 48.3645 8.93475ZM44.632 30.9956L44.0993 30.8223L43.5248 30.7613L42.9503 30.8223L42.4144 30.9956L41.9394 31.2652L41.5286 31.6182L41.1948 32.0387L40.9477 32.5201L40.7905 33.0464L40.7359 33.6048L40.7905 34.1664L40.9477 34.6928L41.1948 35.171L41.5286 35.5946L41.9394 35.9476L42.4144 36.2172L42.9503 36.3905L43.5248 36.4515L44.0993 36.3905L44.632 36.2172L45.1102 35.9476L45.521 35.5946L45.8548 35.171L46.1019 34.6928L46.1982 34.3654H52.2542C51.7022 39.8181 50.136 44.8567 47.6937 48.9486L44.3079 45.3638V44.202L44.632 44.0961L45.1102 43.8265L45.521 43.4735L45.8548 43.0498L46.1019 42.5716L46.2592 42.0453L46.3137 41.4837L46.2592 40.9253L46.1019 40.3989L45.8548 39.9175L45.521 39.4971L45.1102 39.1441L44.632 38.8745L44.0993 38.7012L43.5248 38.6402L42.9503 38.7012L42.4144 38.8745L41.9394 39.1441L41.5286 39.4971L41.1948 39.9175L40.9477 40.3989L40.7905 40.9253L40.7359 41.4837L40.7905 42.0453L40.9477 42.5716L41.1948 43.0498L41.5286 43.4735L41.9394 43.8265L42.4144 44.0961L42.7899 44.218V45.9671L42.8059 45.9832L46.8529 50.2676C44.8952 53.1496 42.5877 55.2806 40.0748 56.5611L36.6087 53.1367V52.0905L36.9585 51.9782L37.4367 51.7054L37.8443 51.3524L38.1781 50.9287L38.4284 50.4505L38.5825 49.9242L38.637 49.3626L38.5825 48.8042L38.4284 48.2778L38.1781 47.7964L37.8443 47.376L37.4367 47.023L36.9585 46.7534L36.4226 46.5801L35.8481 46.5191L35.2736 46.5801L34.7409 46.7534L34.2627 47.023L33.8551 47.376L33.5214 47.7964L33.271 48.2778L33.1138 48.8042L33.0592 49.3626L33.1138 49.9242L33.271 50.4505L33.5214 50.9287L33.8551 51.3524L34.2627 51.7054L34.7409 51.9782L35.0907 52.0905V53.7561H35.1036L35.0875 53.7722L38.576 57.219C37.2089 57.7196 35.7968 57.9764 34.3558 57.9764C33.2935 57.9764 32.2537 57.5463 31.5027 56.7922C30.7517 56.0412 30.3217 55.0014 30.3249 53.9359C30.3281 51.5128 30.3345 49.1155 30.3409 46.7245C30.3409 45.2418 30.3473 43.7495 30.3505 42.2443H33.1715L33.2678 42.5716L33.5181 43.0498L33.8519 43.4735L34.2595 43.8265L34.7377 44.0961L35.2704 44.2694L35.8449 44.3304L36.4194 44.2694L36.9553 44.0961L37.4335 43.8265L37.8411 43.4735L38.1749 43.0498L38.4252 42.5716L38.5792 42.0453L38.6338 41.4837L38.5792 40.9253L38.4252 40.3989L38.1749 39.9175L37.8411 39.4971L37.4335 39.1441L36.9553 38.8745L36.4194 38.7012L35.8449 38.6402L35.2704 38.7012L34.7377 38.8745L34.2595 39.1441L33.8519 39.4971L33.5181 39.9175L33.2678 40.3989L33.1715 40.7231H30.3538C30.3634 36.4098 30.3762 32.0162 30.3955 27.5841C30.3955 27.2183 30.3955 26.8524 30.3987 26.4833H33.1715L33.2678 26.8107L33.5181 27.2889L33.8519 27.7125L34.2595 28.0655L34.7377 28.3351L35.2704 28.5084L35.8449 28.5694L36.4194 28.5084L36.9553 28.3351L37.4335 28.0655L37.8411 27.7125L38.1749 27.2889L38.4252 26.8107L38.5792 26.2843L38.6338 25.7227L38.5792 25.1643L38.4252 24.638L38.1749 24.1566L37.8411 23.7361L37.4335 23.3831L36.9553 23.1135L36.4194 22.9402L35.8449 22.8793L35.2704 22.9402L34.7377 23.1135L34.2595 23.3831L33.8519 23.7361L33.5181 24.1566L33.2678 24.638L33.1715 24.9621H30.4019C30.4115 22.0256 30.4083 18.9671 30.4019 15.8059L32.9533 18.736H39.5677L39.6544 19.0249L39.9047 19.503L40.2385 19.9267L40.6461 20.2797L41.1242 20.5525L41.657 20.7258L42.2315 20.7868L42.8059 20.7258L43.3419 20.5525L43.8201 20.2797L44.2277 19.9267L44.5614 19.503L44.8118 19.0249L44.9658 18.4985L45.0204 17.9401L44.9658 17.3817L44.8118 16.8554L44.5614 16.374L44.2277 15.9535L43.8201 15.6005L43.3419 15.3309L42.8059 15.1576L42.2315 15.0966L41.657 15.1576L41.1242 15.3309L40.6461 15.6005L40.2385 15.9535L39.9047 16.374L39.6544 16.8554L39.5453 17.218H33.6465L30.3923 13.4856C30.3826 10.9021 30.3698 8.25758 30.3473 5.55534C30.3377 4.49305 30.7645 3.45323 31.5091 2.69904C32.2569 1.94806 33.2935 1.5148 34.3526 1.5148C36.6537 1.5148 38.8938 2.19197 40.9798 3.48532L37.1158 7.44242L36.9521 7.34935L36.4162 7.17604L35.8417 7.11507L35.2672 7.17604L34.7345 7.34935L34.2563 7.61893L33.8487 7.97195L33.5149 8.39238L33.2646 8.87377L33.1074 9.4001L33.0528 9.95852L33.1074 10.5202L33.2646 11.0465L33.5149 11.5247L33.8487 11.9451L34.2563 12.2981L34.7345 12.5677L35.2672 12.741L35.8417 12.802L36.4162 12.741L36.9521 12.5677L37.4303 12.2981L37.8379 11.9451L38.1717 11.5247L38.422 11.0465L38.576 10.5202L38.6306 9.95852L38.576 9.4001L38.422 8.87377L38.2198 8.48545L42.2475 4.36147C44.0126 5.71259 45.643 7.52265 47.0807 9.75313C50.2355 14.6506 52.1065 21.0082 52.4243 27.8312H39.051V27.8441L39.0382 27.8344L36.8623 30.9571L36.4194 30.8127L35.8449 30.7517L35.2704 30.8127L34.7377 30.986L34.2595 31.2556L33.8519 31.6086L33.5181 32.029L33.2678 32.5104L33.1106 33.0368L33.056 33.5952L33.1106 34.1568L33.2678 34.6831L33.5181 35.1613L33.8519 35.585L34.2595 35.938L34.7377 36.2076L35.2704 36.3809L35.8449 36.4418L36.4194 36.3809L36.9553 36.2076L37.4335 35.938L37.8411 35.585L38.1749 35.1613L38.4252 34.6831L38.5792 34.1568L38.6338 33.5952L38.5792 33.0368L38.4252 32.5104L38.1749 32.029L38.0625 31.8878L39.8341 29.3428H52.4692C52.4692 29.5354 52.4724 29.7247 52.4724 29.9173C52.4724 30.8993 52.4403 31.8718 52.3761 32.8314H46.1918L46.0955 32.5072L45.8484 32.0258L45.5146 31.6054L45.1038 31.2524L44.6256 30.9828L44.632 30.9956ZM44.7925 33.608C44.7925 34.3429 44.2212 34.9367 43.5216 34.9367C42.822 34.9367 42.2507 34.3429 42.2507 33.608C42.2507 32.8731 42.8188 32.2794 43.5216 32.2794C44.2244 32.2794 44.7925 32.8731 44.7925 33.608ZM43.5216 42.8188C42.8188 42.8188 42.2507 42.225 42.2507 41.4901C42.2507 40.7552 42.8188 40.1614 43.5216 40.1614C44.2244 40.1614 44.7925 40.7552 44.7925 41.4901C44.7925 42.225 44.2212 42.8188 43.5216 42.8188ZM35.8481 50.6977C35.1485 50.6977 34.5804 50.1039 34.5804 49.369C34.5804 48.6341 35.1485 48.0403 35.8481 48.0403C36.5477 48.0403 37.119 48.6341 37.119 49.369C37.119 50.1039 36.551 50.6977 35.8481 50.6977ZM34.5804 41.4901C34.5804 40.7584 35.1485 40.1614 35.8481 40.1614C36.5477 40.1614 37.119 40.7552 37.119 41.4901C37.119 42.225 36.551 42.8188 35.8481 42.8188C35.1453 42.8188 34.5804 42.225 34.5804 41.4901ZM34.5804 25.7259C34.5804 24.9942 35.1485 24.3973 35.8481 24.3973C36.5477 24.3973 37.119 24.991 37.119 25.7259C37.119 26.4609 36.551 27.0546 35.8481 27.0546C35.1453 27.0546 34.5804 26.4609 34.5804 25.7259ZM40.967 17.9433C40.967 17.2116 41.535 16.6147 42.2347 16.6147C42.9343 16.6147 43.5056 17.2084 43.5056 17.9433C43.5056 18.6783 42.9375 19.272 42.2347 19.272C41.5318 19.272 40.967 18.6783 40.967 17.9433ZM37.119 9.96494C37.119 10.6999 36.551 11.2936 35.8481 11.2936C35.1453 11.2936 34.5804 10.6999 34.5804 9.96494C34.5804 9.23001 35.1485 8.63628 35.8481 8.63628C36.5477 8.63628 37.119 9.23001 37.119 9.96494ZM37.119 33.608C37.119 34.3429 36.551 34.9367 35.8481 34.9367C35.1453 34.9367 34.5804 34.3429 34.5804 33.608C34.5804 32.8731 35.1485 32.2794 35.8481 32.2794C36.5477 32.2794 37.119 32.8731 37.119 33.608Z" fill="#231F20"/>
<path d="M44.6321 30.9965L44.0994 30.8232L43.5249 30.7622L42.9504 30.8232L42.4145 30.9965L41.9395 31.266L41.5287 31.6191L41.1949 32.0395L40.9478 32.5209L40.7906 33.0472L40.736 33.6056L40.7906 34.1673L40.9478 34.6936L41.1949 35.1718L41.5287 35.5954L41.9395 35.9484L42.4145 36.218L42.9504 36.3913L43.5249 36.4523L44.0994 36.3913L44.6321 36.218L45.1103 35.9484L45.5211 35.5954L45.8549 35.1718L46.102 34.6936L46.1983 34.3662H52.2543C51.7023 39.8189 50.1361 44.8575 47.6938 48.9494L44.308 45.3646V44.2028L44.6321 44.0969L45.1103 43.8273L45.5211 43.4743L45.8549 43.0507L46.102 42.5725L46.2593 42.0461L46.3138 41.4845L46.2593 40.9261L46.102 40.3998L45.8549 39.9184L45.5211 39.4979L45.1103 39.1449L44.6321 38.8753L44.0994 38.702L43.5249 38.6411L42.9504 38.702L42.4145 38.8753L41.9395 39.1449L41.5287 39.4979L41.1949 39.9184L40.9478 40.3998L40.7906 40.9261L40.736 41.4845L40.7906 42.0461L40.9478 42.5725L41.1949 43.0507L41.5287 43.4743L41.9395 43.8273L42.4145 44.0969L42.79 44.2189V45.9679L42.806 45.984L46.853 50.2684C44.8953 53.1504 42.5878 55.2814 40.0749 56.5619L36.6088 53.1376V52.0913L36.9586 51.979L37.4368 51.7062L37.8444 51.3532L38.1782 50.9296L38.4285 50.4514L38.5826 49.925L38.6371 49.3634L38.5826 48.805L38.4285 48.2786L38.1782 47.7973L37.8444 47.3768L37.4368 47.0238L36.9586 46.7542L36.4227 46.5809L35.8482 46.5199L35.2737 46.5809L34.741 46.7542L34.2628 47.0238L33.8552 47.3768L33.5215 47.7973L33.2711 48.2786L33.1139 48.805L33.0593 49.3634L33.1139 49.925L33.2711 50.4514L33.5215 50.9296L33.8552 51.3532L34.2628 51.7062L34.741 51.979L35.0908 52.0913V53.757H35.1036L35.0876 53.773L38.5761 57.2198C37.209 57.7205 35.7969 57.9772 34.3559 57.9772C33.2936 57.9772 32.2538 57.5472 31.5028 56.793C30.7518 56.042 30.3218 55.0022 30.325 53.9367C30.3282 51.5136 30.3346 49.1163 30.341 46.7253C30.341 45.2426 30.3474 43.7503 30.3506 42.2451H33.1716L33.2679 42.5725L33.5182 43.0507L33.852 43.4743L34.2596 43.8273L34.7378 44.0969L35.2705 44.2702L35.845 44.3312L36.4195 44.2702L36.9554 44.0969L37.4336 43.8273L37.8412 43.4743L38.175 43.0507L38.4253 42.5725L38.5793 42.0461L38.6339 41.4845L38.5793 40.9261L38.4253 40.3998L38.175 39.9184L37.8412 39.4979L37.4336 39.1449L36.9554 38.8753L36.4195 38.702L35.845 38.6411L35.2705 38.702L34.7378 38.8753L34.2596 39.1449L33.852 39.4979L33.5182 39.9184L33.2679 40.3998L33.1716 40.7239H30.3539C30.3635 36.4106 30.3763 32.017 30.3956 27.5849C30.3956 27.2191 30.3956 26.8532 30.3988 26.4841H33.1716L33.2679 26.8115L33.5182 27.2897L33.852 27.7133L34.2596 28.0663L34.7378 28.3359L35.2705 28.5092L35.845 28.5702L36.4195 28.5092L36.9554 28.3359L37.4336 28.0663L37.8412 27.7133L38.175 27.2897L38.4253 26.8115L38.5793 26.2852L38.6339 25.7235L38.5793 25.1651L38.4253 24.6388L38.175 24.1574L37.8412 23.737L37.4336 23.3839L36.9554 23.1144L36.4195 22.9411L35.845 22.8801L35.2705 22.9411L34.7378 23.1144L34.2596 23.3839L33.852 23.737L33.5182 24.1574L33.2679 24.6388L33.1716 24.9629H30.402C30.4116 22.0264 30.4084 18.9679 30.402 15.8067L32.9534 18.7368H39.5678L39.6545 19.0257L39.9048 19.5039L40.2386 19.9275L40.6461 20.2805L41.1243 20.5533L41.6571 20.7266L42.2316 20.7876L42.806 20.7266L43.342 20.5533L43.8202 20.2805L44.2278 19.9275L44.5615 19.5039L44.8119 19.0257L44.9659 18.4994L45.0205 17.9409L44.9659 17.3825L44.8119 16.8562L44.5615 16.3748L44.2278 15.9544L43.8202 15.6013L43.342 15.3318L42.806 15.1585L42.2316 15.0975L41.6571 15.1585L41.1243 15.3318L40.6461 15.6013L40.2386 15.9544L39.9048 16.3748L39.6545 16.8562L39.5454 17.2188H33.6466L30.3924 13.4864C30.3827 10.9029 30.3699 8.25841 30.3474 5.55616C30.3378 4.49388 30.7646 3.45406 31.5092 2.69986C32.257 1.94888 33.2936 1.51562 34.3527 1.51562C36.6538 1.51562 38.8939 2.19279 40.9799 3.48615L37.1159 7.44324L36.9522 7.35017L36.4163 7.17687L35.8418 7.11589L35.2673 7.17687L34.7346 7.35017L34.2564 7.61976L33.8488 7.97278L33.515 8.3932L33.2647 8.8746L33.1075 9.40093L33.0529 9.95935L33.1075 10.521L33.2647 11.0473L33.515 11.5255L33.8488 11.9459L34.2564 12.2989L34.7346 12.5685L35.2673 12.7418L35.8418 12.8028L36.4163 12.7418L36.9522 12.5685L37.4304 12.2989L37.838 11.9459L38.1718 11.5255L38.4221 11.0473L38.5761 10.521L38.6307 9.95935L38.5761 9.40093L38.4221 8.8746L38.2199 8.48627L42.2476 4.36229C44.0127 5.71342 45.6431 7.52348 47.0808 9.75395C50.2356 14.6514 52.1066 21.009 52.4244 27.8321H39.0511V27.8449L39.0383 27.8353L36.8624 30.9579L36.4195 30.8135L35.845 30.7525L35.2705 30.8135L34.7378 30.9868L34.2596 31.2564L33.852 31.6094L33.5182 32.0299L33.2679 32.5113L33.1107 33.0376L33.0561 33.596L33.1107 34.1576L33.2679 34.684L33.5182 35.1622L33.852 35.5858L34.2596 35.9388L34.7378 36.2084L35.2705 36.3817L35.845 36.4427L36.4195 36.3817L36.9554 36.2084L37.4336 35.9388L37.8412 35.5858L38.175 35.1622L38.4253 34.684L38.5793 34.1576L38.6339 33.596L38.5793 33.0376L38.4253 32.5113L38.175 32.0299L38.0626 31.8886L39.8342 29.3437H52.4693C52.4693 29.5362 52.4725 29.7256 52.4725 29.9181C52.4725 30.9002 52.4404 31.8726 52.3762 32.8322H46.1919L46.0956 32.508L45.8485 32.0266L45.5147 31.6062L45.1039 31.2532L44.6257 30.9836L44.6321 30.9965ZM44.7926 33.6088C44.7926 34.3438 44.2213 34.9375 43.5217 34.9375C42.8221 34.9375 42.2508 34.3438 42.2508 33.6088C42.2508 32.8739 42.8189 32.2802 43.5217 32.2802C44.2245 32.2802 44.7926 32.8739 44.7926 33.6088ZM43.5217 42.8196C42.8189 42.8196 42.2508 42.2259 42.2508 41.4909C42.2508 40.756 42.8189 40.1623 43.5217 40.1623C44.2245 40.1623 44.7926 40.756 44.7926 41.4909C44.7926 42.2259 44.2213 42.8196 43.5217 42.8196ZM35.8482 50.6985C35.1486 50.6985 34.5805 50.1048 34.5805 49.3698C34.5805 48.6349 35.1486 48.0412 35.8482 48.0412C36.5478 48.0412 37.1191 48.6349 37.1191 49.3698C37.1191 50.1048 36.5511 50.6985 35.8482 50.6985ZM34.5805 41.4909C34.5805 40.7592 35.1486 40.1623 35.8482 40.1623C36.5478 40.1623 37.1191 40.756 37.1191 41.4909C37.1191 42.2259 36.5511 42.8196 35.8482 42.8196C35.1454 42.8196 34.5805 42.2259 34.5805 41.4909ZM34.5805 25.7267C34.5805 24.995 35.1486 24.3981 35.8482 24.3981C36.5478 24.3981 37.1191 24.9918 37.1191 25.7267C37.1191 26.4617 36.5511 27.0554 35.8482 27.0554C35.1454 27.0554 34.5805 26.4617 34.5805 25.7267ZM40.9671 17.9441C40.9671 17.2124 41.5351 16.6155 42.2348 16.6155C42.9344 16.6155 43.5057 17.2092 43.5057 17.9441C43.5057 18.6791 42.9376 19.2728 42.2348 19.2728C41.5319 19.2728 40.9671 18.6791 40.9671 17.9441ZM37.1191 9.96577C37.1191 10.7007 36.5511 11.2944 35.8482 11.2944C35.1454 11.2944 34.5805 10.7007 34.5805 9.96577C34.5805 9.23083 35.1486 8.63711 35.8482 8.63711C36.5478 8.63711 37.1191 9.23083 37.1191 9.96577ZM37.1191 33.6088C37.1191 34.3438 36.5511 34.9375 35.8482 34.9375C35.1454 34.9375 34.5805 34.3438 34.5805 33.6088C34.5805 32.8739 35.1486 32.2802 35.8482 32.2802C36.5478 32.2802 37.1191 32.8739 37.1191 33.6088Z" fill="#9CDBED"/>
</svg>
