<svg width="502" height="533" viewBox="0 0 502 533" fill="none" xmlns="http://www.w3.org/2000/svg">
<g filter="url(#filter0_d_218_904)">
<path d="M33.0952 6.8092C45.8722 6.54304 58.6323 6.42929 71.7752 6.54521C74.77 6.57143 74.4878 6.77715 75.719 6.81042C77.9818 6.87187 81.7792 6.64989 82.3116 6.64989C85.6154 6.64706 84.3244 7.00713 84.7691 7.021C89.7265 7.16718 88.2996 6.75705 93.0392 6.71764C99.2114 6.66622 107.132 6.73959 114.568 6.75976C117.18 6.76782 116.017 7.04194 121.654 7.01886C125.647 7.00273 137.896 6.69031 143.536 7.02405C143.569 7.15007 142.857 7.28921 142.557 7.41926C150.642 6.89402 153.536 6.91706 164.999 7.04511C166.812 7.06527 168.529 6.84948 171.724 6.92914C174.917 7.00886 175.051 7.34151 181.473 7.33747C183.75 7.33524 185.132 7.10066 188.624 7.09058C198.557 7.06135 217.474 7.35272 225.627 7.3628C241.681 7.38296 250.417 6.98259 264.675 7.12171C265.773 7.13179 263.361 7.38888 265.374 7.39393C267.403 7.39897 269.517 7.05836 270.016 7.05029C275.406 6.96262 286.796 7.41893 289.794 7.36372C297.081 7.22861 289.9 7.07851 299.999 7.01398C309.616 6.95257 322.893 7.39604 332.425 7.48274C343.471 7.5835 347.034 6.93934 355.352 7.61183C384.567 7.57251 413.898 7.54845 443.145 7.51417C443.062 7.64823 442.966 7.78235 442.866 7.91641C445.178 7.82365 447.492 7.73075 449.804 7.63899C449.455 7.73879 449.123 7.83868 448.774 7.93747C453.286 7.77751 457.595 7.64972 462 7.56256C468.529 7.42891 475.604 9.93275 480.91 15.8326C481.086 16.0281 480.423 15.6989 480.565 15.8641C482.585 18.0878 484.543 20.8955 485.488 23.3924C486.624 26.174 487.213 30.1391 487.083 33C486.993 36.1411 487.004 37.9539 487.385 35.5279C487.238 49.6855 487.479 66.322 487.341 79.8145C487.281 85.653 486.859 87.4023 486.835 90.1964C486.81 92.9881 487.173 91.5671 487.187 92.5582C487.268 98.5142 487.253 108.316 486.847 109.349C487.009 110.546 487.173 111.813 487.337 113.028C486.886 112.316 487.072 130.721 487.061 135.55C487.059 136.432 486.862 136.555 486.864 137.22C486.889 144.637 487.199 146.45 487.301 152.804C487.338 155.033 486.99 151.576 487.14 157.299C487.153 157.798 487.466 157.533 487.464 164.37C487.461 175.285 487.585 196.163 487.431 209.157C487.418 210.222 487.078 206.98 487.157 211.85C487.185 213.614 487.427 212.769 487.429 217.045C487.439 233.616 487.161 251.285 487.392 268.189C487.119 267.573 486.812 261.552 486.984 270.602C487.012 272.049 487.256 270.969 487.265 271.618C487.336 276.874 487.161 281.431 487.255 287.121C487.283 288.801 487.475 289.218 487.52 291.314C487.588 294.409 487.315 295.778 487.431 299.371C487.613 304.992 487.872 305.86 487.364 312.829C487.396 352.325 487.539 391.639 487.316 431.002C487.461 442.382 487.623 452.883 487.678 464.745C487.695 468.239 487.348 468.907 487.463 474.479C487.488 475.727 487.86 484.63 487.159 485.928C487.22 488.406 487.222 489.972 487.259 492.101C487.362 490.488 487.466 488.822 487.57 487.275C487.545 489.255 487.538 491.155 487.543 493C487.538 499.933 485.054 506.174 480.487 511.028C475.88 515.317 479.065 512.18 476 514.48C472.765 516.488 471.091 517.405 466.359 518.001C464.868 518.429 463.524 518.593 462 518.597C459.969 518.597 457.584 518.494 453.767 518.487C453.068 518.486 449.028 518.647 445.651 518.615C443.223 518.592 442.503 518.333 438.647 518.373C438.014 518.379 429.86 518.7 427.264 518.729C423.221 518.775 416.796 518.443 416.014 518.439C404.652 518.381 400.273 518.709 392.204 518.169C390.574 518.49 383.841 518.678 378.401 518.646C371.53 518.607 357.752 517.952 355.871 518.644C347.92 518.336 348.783 518.526 339.353 518.532C330.769 518.538 308.042 518.273 301.085 518.312C294.131 518.349 297.519 518.734 294.757 518.786C290.237 518.871 292.679 518.587 289.585 518.591C280.834 518.603 273.229 518.657 264.877 518.781C264.428 518.582 263.945 518.381 263.479 518.182C263.047 518.248 262.617 518.315 262.184 518.381C260.388 518.379 258.374 518.383 256.71 518.377C270.749 519.253 243.15 518.312 234.865 518.29C227.877 518.272 216.246 518.688 208.576 518.777C206.714 518.799 207.994 518.584 207.612 518.589C203.12 518.65 202.438 518.797 196.398 518.777C193.205 518.766 189.944 518.496 186.833 518.491C163.99 518.455 141.945 518.726 119.252 518.755C115.392 518.76 112.063 518.431 108.819 518.424C104.178 518.413 101.249 518.683 96.8915 518.688C92.5493 518.692 86.291 518.369 83.3458 518.418C80.4009 518.467 85.4402 518.779 80.0495 518.694C77.5737 518.654 81.9467 518.422 78.887 518.414C69.3375 518.392 55.8615 518.681 45.696 518.401C46.1451 518.471 46.7584 518.533 47.3073 518.6C42.3665 518.588 37.6883 518.546 33 518.502C27.0711 518.455 21.1046 516.339 16.2702 512.087C12.9791 509.537 8.82793 503.046 8.11816 498.94C7.53721 496.422 7.52673 494.703 7.58007 493C7.61927 492.052 7.65107 491.095 7.65334 489.957C7.65636 488.692 7.45765 489.187 7.46168 488.338C7.51416 477.726 7.86789 471.902 7.8276 460.791C7.68039 420.078 7.55327 378.097 7.42018 336.753C7.41491 335.09 7.15604 333.971 7.11774 331.543C7.05846 327.804 7.28729 327.62 7.29536 327.121C7.34572 323.862 7.13391 325.191 7.13391 320.816C7.13392 311.183 7.32156 295.643 7.30543 286.043C7.26812 263.915 7.06637 245.314 6.96454 223.619C6.95647 222.055 7.26294 223.116 7.26697 220.404C7.2992 201.29 7.00577 197.244 7.08844 173.454C7.17112 149.661 7.35677 104.755 7.39912 76.9047C7.39983 76.9047 7.40054 76.9047 7.40126 76.9047C6.83466 68.1376 6.97558 56.7943 7.404 47.3779C8.80148 101.683 8.17956 153.642 8.23502 211.641C8.29251 272.6 9.3079 337.586 9.1698 399.36C9.15669 405.167 8.83399 407.5 8.90154 412.391C8.91297 413.218 9.16166 411.077 9.18689 413.62C9.43805 439.522 9.19145 466.697 9.11118 493C8.97411 502.202 14.7379 510.942 22.8033 514.604C27.4392 516.667 30.2856 516.701 33 516.674C35.2768 516.599 37.5855 516.525 41.2518 516.493C39.8218 516.624 38.8865 516.761 37.6392 516.893C74.7744 517.302 111.963 517.12 149.581 517.178C151.277 517.181 151.494 517.452 153.274 517.463C156.834 517.484 160.244 517.185 163.355 517.175C167.414 517.162 168.117 517.378 171.86 517.364C173.687 517.356 173.141 517.149 177.114 517.184C177.446 517.187 177.664 517.405 180.307 517.377C187.544 517.299 202.335 517.117 208.325 517.062C215.977 516.993 222.117 517.32 225.013 517.342C232.831 517.399 232.669 517.063 239.287 517.063C286.405 517.061 331.448 517.443 379.681 517.44C382.711 517.44 393.918 517.066 399.525 517.081C401.404 517.087 411.231 517.186 412.703 517.194C418.676 517.226 423.837 517.451 427.132 517.499C433.52 517.592 440.658 517.239 444.135 517.203C449.334 517.15 457.967 517.176 462 517.19C462.714 517.193 463.275 517.165 463.662 517.14C469.824 516.339 467.959 517.043 472.159 515.359C473.322 514.702 472.08 515.267 475.986 512.737C479.115 510.414 480.315 509.305 481.968 507.177C483.704 505.044 485.209 500.277 485.486 498.657C485.997 496.572 486.189 494.716 486.222 493C486.318 487.825 486.465 483.918 486.475 476.856C486.485 469.064 486.306 433.048 486.214 430.053C485.804 416.642 485.988 438.977 485.975 440.236C485.895 447.041 485.738 446.045 486.038 452.833C485.111 458.906 486.554 480.07 485.455 485.494C485.798 488.121 485.899 490.551 485.895 493C485.885 495.77 485.3 498.547 484.132 501.413C482.505 505.095 482.048 505.393 482.059 505.641C481.99 505.842 482.235 505.931 480.393 508.257C479.046 510.234 473.456 514.19 470.101 515.186C467.172 516.216 465.699 516.777 462 516.916C461.585 516.922 461.143 516.926 460.668 516.927C452.235 516.953 445.446 516.834 438.36 516.529C437.062 516.664 435.851 516.799 434.57 516.934C429.679 516.789 424.768 516.645 419.877 516.501C420.659 516.619 421.442 516.738 422.224 516.856C420.793 516.873 419.358 516.889 417.927 516.905C413.169 516.728 408.625 516.563 403.734 516.38C390.443 517.062 394.301 516.472 386.914 516.383C379.529 516.294 375.255 516.689 369.549 516.691C361.863 516.694 358.333 516.744 350.581 516.715C346.089 516.699 338.469 516.318 344.724 516.922C330.699 516.97 311.496 517.139 298.951 516.894C295.247 516.822 300.186 516.632 299.555 516.609C296.411 516.497 293.763 516.805 290.519 516.761C285.13 516.687 274.632 516.447 270.388 516.391C264.282 516.309 254.683 516.708 253.701 516.738C248.213 516.9 246.744 516.568 244.982 516.591C234.95 516.724 232.736 516.864 229.575 516.164C226.978 516.466 216.098 516.975 213.469 516.466C213.401 516.926 204.368 516.849 198.812 516.964C197.78 516.83 196.731 516.698 195.699 516.564C184.103 517.387 161.011 516.789 145.755 516.691C145.372 516.689 144.688 517.034 142.392 516.956C142.247 516.95 142.483 516.795 140.943 516.775C135.868 516.71 116.506 516.324 114.278 516.32C106.076 516.307 104.642 516.564 99.6507 516.589C93.0798 516.621 92.1301 516.389 85.8769 516.422C82.9494 516.437 80.2856 516.742 75.679 516.699C72.9516 516.674 72.6815 516.434 70.5212 516.415C62.8346 516.345 57.1895 516.497 50.3682 516.184C48.588 516.947 45.3279 516.385 41.9508 516.327C39.088 516.278 36.0781 516.253 33 516.244C21.3116 516.67 10.9246 506.07 9.99008 496.966C9.77335 495.651 9.67136 494.323 9.68027 493C9.90816 457.958 10.3481 426.509 10.45 391.995C10.4672 386.172 10.084 384.769 10.1082 378.663C10.1195 375.918 10.3969 373.088 10.4009 368.597C10.4049 364.988 10.2639 359.816 10.2648 355.309C10.2648 354.111 10.5249 354.005 10.527 352.241C10.542 338.866 10.3573 325.804 10.2303 312.295C10.183 307.289 10.5277 304.192 9.92788 305.041C10.0751 303.128 10.2032 301.268 10.3484 299.471C9.97032 292.583 10.3643 286.957 10.2675 277.64C10.256 276.636 9.8413 269.601 10.1406 265.61C9.92689 265.328 9.74543 265.947 9.55189 265.831C9.47023 261.888 9.71705 255.831 9.74233 253.168C9.7675 250.509 9.48991 248.729 9.48719 247.929C9.48013 244.885 9.84523 245.594 9.85128 245.362C10.2011 231.172 10.0066 232.666 9.45911 224.098C9.32102 221.951 9.7221 207.384 9.28974 204.437C9.46611 204.305 9.62132 205.117 9.78963 205.35C9.835 200.974 9.88159 196.564 9.92696 192.172C9.75757 193.104 9.58801 194.222 9.41761 195.071C9.5648 186.105 9.16566 178.649 9.17865 171.313C9.18672 167.12 9.56093 167.631 9.47926 165.169C9.46308 164.687 9.21023 165.502 9.18994 164.073C9.02559 152.41 9.29273 147.3 9.34314 135.62C9.36722 130.147 8.90764 125.357 9.21008 117.505C9.2384 116.788 9.64649 109.085 9.06176 104.327C9.24628 102.813 9.34321 101.478 9.49848 100.347C8.63035 90.7136 9.48116 93.3754 9.68282 80.3482C9.78761 73.607 9.63549 50.9324 9.54274 43.596C9.48622 39.2264 9.145 39.3062 9.13135 38.5264C9.08153 35.5756 9.19601 34.4926 9.2728 33C9.32214 32.142 9.37428 31.1612 9.56937 29.6143C10.0242 25.4029 12.0438 20.1251 15.1344 16.8767C17.5589 14.5033 15.7718 16.4728 19.6143 13.3533C20.4866 12.8054 17.6911 13.9279 22.3731 11.4595C22.7453 11.281 24.8936 10.3551 27.2674 9.89843C29.6344 9.39912 32.1529 9.41182 33 9.46613C30.829 9.535 26.5484 10.1485 22.7983 12.17C18.9998 14.1004 16.0192 17.2781 14.6998 19.1635C11.9353 22.9399 10.2202 27.8289 10.3138 33C11.5928 120.296 11.5963 274.007 11.415 357.803C11.3978 366.071 11.0389 371.477 11.0076 376.867C10.9764 382.258 11.3052 377.7 11.278 382.592C11.2498 387.483 11.0177 391.047 10.9975 395.623C10.8604 426.467 10.7153 457.544 10.6518 488.139C10.6484 489.824 10.6577 491.436 10.6745 493C10.7706 498.421 12.6868 503.084 16.0024 507.121C17.7015 509.064 17.573 509.335 19.0017 510.538C23.0081 513.745 28.0337 515.421 33 515.37C48.5728 515.267 63.6898 515.09 79.6375 515.12C88.5211 515.137 98.1199 515.428 106.92 515.455C114.173 515.478 121.692 515.28 128.214 515.276C131.754 515.273 133.621 515.535 134.902 515.556C139.361 515.624 137.803 515.304 140.082 515.304C146.37 515.305 149.497 515.692 155.386 515.662C157.698 515.65 157.4 515.403 160.757 515.364C165.015 515.316 163.44 515.544 166.482 515.552C166.665 515.553 166.068 515.376 167.681 515.369C178.063 515.323 191.025 515.184 201.041 515.196C221.754 515.22 242.201 515.56 261.5 515.627C266.375 515.643 265.081 515.413 266.629 515.402C274.081 515.349 276.743 515.624 284.545 515.526C285.843 515.509 291.069 515.191 296.06 515.272C298.754 515.315 301.814 515.514 304.109 515.56C306.404 515.606 306.773 515.314 309.532 515.314C314.556 515.313 313.095 515.515 320.282 515.479C323.176 515.465 332.842 515.188 340.295 515.209C352.474 515.243 367.567 515.496 381.925 515.501C386.85 515.503 393.176 515.202 400.813 515.199C410.146 515.195 427.344 515.263 436.91 515.267C441.802 515.269 442.155 515.584 442.738 515.597C446.478 515.685 444.967 515.333 447.476 515.347C450.92 515.366 454.134 515.626 457.262 515.643C459.257 515.654 459.574 515.395 460.006 515.392C460.674 515.389 461.339 515.386 462 515.382C474.323 515.428 484.464 504.969 484.312 493C484.309 490.907 484.307 488.791 484.303 486.642C484.154 401.341 483.821 315.225 483.971 230.09C483.983 222.953 484.31 222.684 484.259 216.412C484.208 210.14 483.502 204.08 484.282 198.923C484.124 198.756 484.012 198.773 483.869 198.606C484.091 185.646 483.861 172.684 483.833 160.007C483.812 150.625 483.837 142.304 483.854 133.637C483.87 125.954 484.144 126.618 483.787 119.966C483.983 91.0273 483.965 61.8167 484.207 33C484.248 29.1935 483.301 25.3987 481.472 22.0645C477.494 16.4218 471.857 11.1556 462 10.8042C461.911 10.8034 461.821 10.8027 461.731 10.8019C460.419 10.791 461.827 11.0047 457.935 10.9866C453.046 10.9642 450.516 10.6377 442.285 10.6557C440.105 10.6608 423.962 11.0229 417.989 10.8373C412.016 10.6518 403.364 10.543 397.159 10.3655C398.041 10.5056 399.158 10.6397 400.139 10.7778C397.044 10.802 393.933 10.8253 390.839 10.8495C390.39 10.6812 389.94 10.5126 389.507 10.3432C387.71 10.5035 385.912 10.6619 384.099 10.8242C380.19 9.9592 384.198 10.2413 375.498 10.4601C371.139 10.569 367.678 10.4179 363.203 10.5056C361.59 10.5378 360.559 10.7925 358.781 10.8251C354.423 10.9037 356.963 10.5532 354.271 10.555C351.559 10.5581 347.665 10.9431 342.807 10.7717C347.879 10.0852 333.22 10.3092 332.521 10.8425C330.776 10.8435 329.313 10.8213 327.385 10.8364C329.165 9.48934 320.027 10.4453 316.4 10.6298C312.775 10.814 312.922 10.4521 312.074 10.4662C309.63 10.5056 311.409 10.6559 309.697 10.6609C298.35 10.6912 287.666 10.4702 276.469 10.45C274.858 10.4472 276.287 10.6517 274.409 10.6316C272.529 10.6115 270.727 10.4079 267.949 10.422C267.203 10.4255 266.969 10.6052 265.808 10.6054C241.467 10.5973 218.355 10.4442 193.532 10.4211C191.286 10.419 189.523 10.7385 185.181 10.7275C180.839 10.7164 174.251 10.4281 168.861 10.4058C167.43 10.3997 167.042 10.6659 165.146 10.6588C158.691 10.6345 153.132 10.4179 146.427 10.3826C135.099 10.3232 123.238 10.4855 111.743 10.3283C109.564 10.299 109.912 10.0771 106.769 10.0146C101.345 9.90666 103.386 10.2303 102.288 10.2737C98.6955 10.4137 97.5666 9.98357 94.0914 10.0942C93.56 10.1113 94.318 10.3664 93.8412 10.3704C86.4541 10.4148 86.0663 9.81691 78.2133 10.1375C71.2297 9.79379 82.8944 9.67669 84.0921 9.49421C87.0176 9.05064 79.2841 8.52939 74.7257 8.36198C70.8001 8.21783 70.829 8.49399 69.2662 8.49412C60.9979 8.49513 48.685 8.54764 42.3955 8.4166C38.5855 8.33796 45.4531 8.22292 43.5065 8.13217C41.5772 8.04155 40.3281 8.2491 38.3487 8.02231C36.3688 7.79544 32.3299 7.12782 33.0952 6.8092ZM486.705 261.015C485.616 248.337 485.729 214.716 485.833 196.664C485.92 181.69 486.759 168.781 485.543 171.875C485.535 188.062 485.657 201.155 485.62 218.274C485.616 220.054 485.503 230.672 485.483 234.365C485.471 236.444 485.271 236.511 485.273 239.339C485.274 239.955 485.536 243.367 485.529 244.614C485.506 248.889 485.103 261.602 485.115 263.377C485.149 268.299 485.461 266.41 485.518 268.535C485.705 275.672 485.236 276.459 485.389 283.53C485.416 284.794 485.824 288.987 485.771 294.228C485.749 296.358 485.538 299.985 485.548 301.615C485.602 310.5 485.882 320.417 485.835 328.552C485.797 335.221 485.482 333.428 485.439 336.955C485.398 340.482 485.764 344.741 485.785 347.153C485.818 351.012 485.611 355.704 485.614 356.902C485.675 380.494 485.916 401.473 486.003 424.233C486.147 408.777 486.279 393.338 486.428 377.982C486.102 369.264 486.408 373.604 486.51 367.865C486.59 363.324 486.037 362.225 486.098 356.254C486.098 356.259 486.098 356.264 486.098 356.269C486.131 353.191 486.514 346.519 486.354 339.964C486.347 339.731 486.06 339.147 486.05 334.24C486.028 323.21 485.881 306.308 485.942 293.897C485.96 290.253 486.262 290.996 486.299 286.686C486.326 283.543 486.047 279.902 486.11 274.98C486.189 268.808 486.669 265.846 486.003 261.604C486.241 261.254 486.473 261.431 486.705 261.015ZM386.777 8.8753C385.91 8.84896 374.299 8.10503 377.742 8.89941C393.348 9.24424 410.221 9.07296 426.642 9.26654C421.035 8.48109 411.549 8.79066 400.036 8.84814C400.031 8.84814 400.026 8.84814 400.021 8.84814C399.478 8.85081 401.75 8.64553 398.66 8.68273C397.163 8.70087 391.419 9.01545 386.777 8.8753Z" fill="#ED7C6F"/>
</g>
<defs>
<filter id="filter0_d_218_904" x="0.964355" y="0.5" width="500.715" height="532.301" filterUnits="userSpaceOnUse" color-interpolation-filters="sRGB">
<feFlood flood-opacity="0" result="BackgroundImageFix"/>
<feColorMatrix in="SourceAlpha" type="matrix" values="0 0 0 0 0 0 0 0 0 0 0 0 0 0 0 0 0 0 127 0" result="hardAlpha"/>
<feOffset dx="4" dy="4"/>
<feGaussianBlur stdDeviation="5"/>
<feComposite in2="hardAlpha" operator="out"/>
<feColorMatrix type="matrix" values="0 0 0 0 0 0 0 0 0 0 0 0 0 0 0 0 0 0 0.25 0"/>
<feBlend mode="normal" in2="BackgroundImageFix" result="effect1_dropShadow_218_904"/>
<feBlend mode="normal" in="SourceGraphic" in2="effect1_dropShadow_218_904" result="shape"/>
</filter>
</defs>
</svg>
