<svg width="167" height="273" viewBox="0 0 167 273" fill="none" xmlns="http://www.w3.org/2000/svg">
<path d="M2.07772 0.309198C7.78785 0.0430357 13.4905 -0.0707142 19.3642 0.0452137C20.7026 0.0714293 20.5764 0.277146 21.1267 0.310419C22.1379 0.371871 23.835 0.149892 24.073 0.149892C25.5495 0.147063 24.9725 0.507128 25.1712 0.520996C27.3868 0.66718 26.7491 0.257053 28.8673 0.217643C31.6257 0.166224 35.1652 0.239587 38.4887 0.259758C39.6559 0.267823 39.1363 0.541937 41.6553 0.51886C43.4399 0.502728 48.914 0.190306 51.4347 0.524048C51.4495 0.65007 51.1311 0.789208 50.9973 0.919262C54.6106 0.39402 55.9038 0.417064 61.0265 0.545106C61.837 0.565272 62.6044 0.349481 64.032 0.429136C65.459 0.508857 65.5193 0.841505 68.389 0.837473C69.4068 0.835244 70.0244 0.600657 71.5852 0.590578C76.0242 0.56135 84.4785 0.85272 88.1219 0.862803C95.2968 0.882955 99.2008 0.482589 105.573 0.621707C106.063 0.63179 104.986 0.88888 105.885 0.893932C106.792 0.898973 107.737 0.55836 107.96 0.550294C110.369 0.462622 115.459 0.918928 116.799 0.863718C120.056 0.728608 116.846 0.578507 121.36 0.513977C125.657 0.45257 131.591 0.896036 135.851 0.98274C140.788 1.0835 142.38 0.439337 146.097 1.11183C152.401 1.09285 158.717 1.07742 165.035 1.06268L166.464 1.0544L166.472 2.5C166.488 9.26766 166.503 16.0377 166.521 22.7978C166.387 22.7607 166.253 22.7175 166.119 22.6729C166.212 23.7064 166.304 24.7402 166.396 25.7737C166.296 25.6176 166.196 25.4695 166.098 25.3134C166.483 30.1678 166.681 34.4945 166.576 40.1665C166.574 40.2774 166.306 39.9858 166.299 40.0777C166.249 41.3566 166.455 42.7858 166.406 43.9085C166.29 46.6225 165.707 51.2325 166.42 49.2027C166.273 55.5298 166.514 62.9648 166.376 68.9948C166.317 71.604 165.894 72.3858 165.87 73.6345C165.846 74.8821 166.209 74.2471 166.223 74.69C166.303 77.3518 166.288 81.7324 165.882 82.1939C166.044 82.729 166.208 83.2954 166.372 83.838C165.921 83.5199 166.107 91.7453 166.096 93.9034C166.094 94.2975 165.897 94.3524 165.899 94.6498C165.924 97.9645 166.234 98.775 166.337 101.614C166.373 102.611 166.025 101.066 166.175 103.624C166.188 103.846 166.501 103.728 166.499 106.784C166.496 111.661 166.62 120.992 166.466 126.799C166.454 127.275 166.113 125.826 166.192 128.003C166.221 128.791 166.463 128.413 166.465 130.324C166.475 137.73 166.196 145.627 166.427 153.181C166.154 152.906 165.848 150.215 166.019 154.26C166.047 154.906 166.291 154.423 166.3 154.713C166.371 157.062 166.197 159.099 166.29 161.642C166.318 162.393 166.51 162.579 166.555 163.516C166.623 164.899 166.35 165.511 166.466 167.117C166.648 169.628 166.907 170.016 166.399 173.131C166.431 190.782 166.575 208.352 166.351 225.944C166.496 231.03 166.658 235.723 166.714 241.024C166.73 242.585 166.383 242.884 166.498 245.374C166.523 245.932 166.895 249.911 166.194 250.491C166.255 251.598 166.257 252.298 166.294 253.25C166.397 252.528 166.501 251.784 166.605 251.093C166.493 255.108 166.74 258.386 166.857 261.941C166.943 264.557 166.642 262.699 166.672 264.305C166.702 265.911 166.769 266.641 166.409 268.649C166.581 269.3 166.632 269.861 166.632 270.5L166.641 272.087L165.035 272.097C164.127 272.097 163.062 271.994 161.356 271.987C161.043 271.986 159.238 272.147 157.729 272.115C156.643 272.092 156.322 271.833 154.598 271.873C154.316 271.879 150.671 272.2 149.511 272.229C147.704 272.275 144.833 271.943 144.484 271.939C139.406 271.881 137.449 272.209 133.843 271.669C133.114 271.99 130.105 272.178 127.674 272.146C124.603 272.107 118.446 271.452 117.605 272.144C114.052 271.836 114.437 272.026 110.223 272.032C106.387 272.038 96.23 271.773 93.1208 271.812C90.0128 271.849 91.5272 272.234 90.2929 272.286C88.2726 272.371 89.3639 272.087 87.9812 272.091C84.0704 272.103 80.6717 272.157 76.9392 272.281C76.7385 272.082 76.5226 271.881 76.3145 271.682C76.1213 271.748 75.9289 271.815 75.7357 271.881C74.9327 271.879 74.0328 271.883 73.2892 271.877C79.5634 272.753 67.2292 271.812 63.5264 271.79C60.4034 271.772 55.2051 272.188 51.7774 272.277C50.9455 272.299 51.5173 272.084 51.3466 272.089C49.339 272.15 49.0344 272.297 46.3353 272.277C44.9079 272.266 43.4508 271.996 42.0606 271.991C31.8518 271.955 21.9995 272.226 11.8578 272.255C10.1329 272.26 8.64485 271.931 7.19502 271.924C5.18208 271.914 3.88987 272.168 2.03516 272.186L0.358487 272.196L0.348648 270.5C0.348079 270.444 0.347726 270.387 0.347604 270.33C0.343571 268.389 0.666137 265.592 0.616776 264.276C0.568379 262.96 0.255796 265.212 0.3415 262.803C0.380886 261.696 0.613662 263.651 0.620744 262.283C0.642925 258.015 0.354643 251.993 0.633867 247.45C0.564316 247.651 0.501722 247.925 0.435192 248.17C0.462422 243.33 0.629811 239.053 0.654009 234.057C0.663004 232.309 0.458647 229.158 0.459606 227.441C0.460614 225.723 0.682352 224.942 0.688495 223.567C0.69152 223.002 0.492806 223.223 0.496839 222.844C0.549315 218.101 0.903042 215.498 0.862755 210.532C0.715546 192.338 0.588427 173.576 0.455334 155.099C0.450066 154.356 0.191194 153.856 0.152896 152.771C0.0936147 151.099 0.32245 151.017 0.330513 150.794C0.380874 149.338 0.169071 149.932 0.169071 147.976C0.169072 143.671 0.356717 136.726 0.340584 132.436C0.303277 122.547 0.101531 114.234 -0.000306606 104.538C-0.00837278 103.839 0.298098 104.313 0.302131 103.101C0.334355 94.5592 0.0409241 92.751 0.123598 82.1189C0.206281 71.4859 0.391929 51.417 0.434276 38.9702C0.434988 38.9702 0.4357 38.9702 0.436412 38.9702C-0.130187 35.0521 0.0107391 29.9826 0.439159 25.7744C1.83664 50.0439 1.21472 73.2648 1.27018 99.185C1.32766 126.428 2.34306 155.471 2.20496 183.079C2.19185 185.674 1.86914 186.716 1.9367 188.902C1.94812 189.272 2.19682 188.315 2.22205 189.451C2.56082 205.066 1.99399 221.714 2.15124 237.046C2.19359 241.18 2.47089 241.828 2.54249 245.464C2.41145 244.825 2.27444 244.407 2.14239 243.849C1.92365 252.717 1.8739 261.592 1.86608 270.5L1.86706 270.67L2.03516 270.669C9.79714 270.676 17.5838 270.651 25.412 270.678C26.1702 270.681 26.2672 270.952 27.0627 270.963C28.6536 270.984 30.1775 270.685 31.5677 270.675C33.3819 270.662 33.6959 270.878 35.3689 270.864C36.1854 270.856 35.9413 270.649 37.7167 270.684C37.8654 270.687 37.9626 270.905 39.1439 270.877C42.378 270.799 48.9883 270.617 51.6656 270.562C55.0852 270.493 57.8292 270.82 59.1234 270.842C62.6175 270.899 62.5448 270.563 65.5026 270.563C86.5601 270.561 106.69 270.943 128.246 270.94C129.6 270.94 134.609 270.566 137.115 270.581C137.954 270.587 142.346 270.686 143.004 270.694C145.673 270.726 147.98 270.951 149.452 270.999C152.307 271.092 155.497 270.739 157.051 270.703C159.375 270.65 163.233 270.676 165.035 270.69L165.227 270.689L165.226 270.5C165.228 270.185 165.23 269.934 165.232 269.763C165.254 266.997 165.69 267.911 165.588 265.926C165.558 265.339 165.223 265.954 165.223 263.887C165.224 262.156 165.476 261.455 165.522 260.273C165.567 259.091 165.177 256.923 165.187 256.186C165.241 252.334 165.497 250.63 165.51 246.436C165.52 242.954 165.341 226.858 165.25 225.52C164.84 219.526 165.024 229.508 165.01 230.071C164.93 233.112 164.773 232.667 165.073 235.7C164.147 238.414 165.589 247.873 164.49 250.297C165.222 252.803 164.853 254.908 164.706 257.547C164.503 261.196 164.929 258.418 164.932 261.079C164.933 262.128 164.6 265.169 164.647 266.745C164.689 268.162 164.899 268.841 164.951 270.5L165.035 270.416C164.85 270.422 164.652 270.426 164.44 270.427C160.671 270.453 157.637 270.334 154.47 270.029C153.89 270.164 153.349 270.299 152.777 270.434C150.591 270.289 148.396 270.145 146.21 270.001C146.559 270.119 146.909 270.238 147.259 270.356C146.619 270.373 145.978 270.389 145.339 270.405C143.212 270.228 141.181 270.063 138.995 269.88C133.056 270.562 134.78 269.972 131.478 269.883C128.178 269.794 126.268 270.189 123.718 270.191C120.283 270.194 118.706 270.244 115.241 270.215C113.233 270.199 109.828 269.818 112.624 270.422C106.355 270.47 97.7736 270.639 92.1672 270.394C90.5119 270.322 92.7191 270.132 92.4368 270.109C91.0319 269.997 89.8483 270.305 88.3988 270.261C85.9901 270.187 81.2988 269.947 79.4021 269.891C76.6733 269.809 72.383 270.208 71.9443 270.238C69.4917 270.4 68.8354 270.068 68.0477 270.091C63.5644 270.224 62.5747 270.364 61.1621 269.664C60.0015 269.966 55.139 270.475 53.9641 269.966C53.9339 270.426 49.8972 270.349 47.4139 270.464C46.9528 270.33 46.4839 270.198 46.0229 270.064C40.8405 270.887 30.5205 270.289 23.7021 270.191C23.5311 270.189 23.2255 270.534 22.1994 270.456C22.1343 270.45 22.24 270.295 21.5516 270.275C19.2837 270.21 10.6306 269.824 9.63492 269.82C5.96923 269.807 5.32849 270.064 3.09784 270.089C2.70192 270.093 2.3517 270.092 2.03516 270.088L2.44673 270.5C2.47216 268.469 2.64201 267.825 2.61329 265.407C2.59817 264.099 2.29271 262.908 2.33588 260.849C2.36108 259.631 2.60097 259.51 2.62031 258.544C2.68988 255.109 2.53849 252.586 2.85103 249.538C2.08793 248.742 2.65039 247.285 2.7079 245.776C2.94282 239.649 2.62036 232.014 2.68989 226.757C2.90869 210.354 3.37932 195.81 3.48521 179.787C3.50235 177.185 3.1192 176.558 3.1434 173.829C3.15461 172.602 3.43204 171.337 3.43607 169.33C3.44005 167.717 3.29902 165.406 3.29996 163.392C3.29996 162.856 3.5601 162.809 3.56211 162.021C3.5772 156.043 3.3925 150.206 3.26547 144.169C3.2182 141.931 3.56288 140.547 2.96303 140.926C3.11023 140.071 3.2384 139.24 3.38358 138.437C3.00547 135.359 3.3995 132.845 3.3027 128.681C3.29117 128.232 2.87646 125.088 3.17575 123.304C2.96205 123.178 2.78059 123.455 2.58705 123.403C2.50539 121.641 2.75221 118.934 2.77748 117.744C2.80266 116.556 2.52506 115.76 2.52235 115.403C2.51529 114.042 2.88038 114.359 2.88643 114.255C3.23624 107.914 3.04174 108.581 2.49427 104.752C2.35617 103.793 2.75726 97.2826 2.32489 95.9658C2.50126 95.9065 2.65648 96.2693 2.82479 96.3735C2.87016 94.418 2.91675 92.4472 2.96212 90.4842C2.79273 90.9006 2.62317 91.4006 2.45277 91.7798C2.59995 87.7726 2.20082 84.4406 2.21381 81.162C2.22187 79.2882 2.59608 79.5167 2.51441 78.4163C2.49823 78.2008 2.24539 78.565 2.2251 77.9263C2.06075 72.714 2.32789 70.4304 2.3783 65.2106C2.40238 62.7647 1.94279 60.624 2.24524 57.1149C2.27356 56.7945 2.68165 53.3519 2.09692 51.2256C2.28144 50.549 2.37836 49.9523 2.53364 49.4466C1.66551 45.1415 2.51631 46.3311 2.71797 40.5091C2.82276 37.4964 2.67064 27.3629 2.57789 24.0842C2.52138 22.1315 2.18016 22.167 2.1665 21.8186C2.08787 19.7369 2.4186 19.7353 2.36426 17.8102C2.30982 15.8844 1.93568 13.4515 1.96996 11.4737C1.99637 9.95861 2.4073 11.153 2.26416 8.9154C2.23318 8.45199 1.88444 9.77614 2.02124 7.41595C2.04241 7.04418 2.41962 3.27332 2.50129 2.5C2.72009 4.48549 3.00554 10.2406 3.09426 12.4043C4.62683 49.664 4.64278 124.719 4.4502 164.506C4.433 168.201 4.07404 170.618 4.04278 173.026C4.01152 175.436 4.34039 173.399 4.31317 175.585C4.28494 177.771 4.05287 179.363 4.03271 181.408C3.89559 195.193 3.75045 209.082 3.68693 222.755C3.6708 226.302 3.9381 229.136 3.9381 232.363C3.93794 233.619 3.59327 233.658 3.59629 234.55C3.62355 244.163 3.95523 253.057 3.9149 262.619C3.90385 265.173 3.77966 267.861 3.68527 270.5L2.03516 268.85C3.49723 268.902 4.94462 268.945 6.34665 268.955C9.58794 268.978 12.9485 268.78 15.8629 268.776C17.445 268.773 18.2795 269.035 18.8519 269.056C20.8447 269.124 20.1482 268.804 21.1669 268.804C23.9769 268.805 25.3746 269.192 28.0065 269.162C29.0396 269.15 28.9067 268.903 30.4069 268.864C32.3099 268.816 31.606 269.044 32.9652 269.052C33.047 269.053 32.7804 268.876 33.5012 268.869C38.141 268.823 43.934 268.684 48.4102 268.696C57.6671 268.72 66.805 269.06 75.4299 269.127C77.6085 269.143 77.0303 268.913 77.7218 268.902C81.0522 268.849 82.2419 269.124 85.7288 269.026C86.309 269.009 88.6444 268.691 90.8749 268.772C92.0792 268.815 93.4464 269.014 94.4723 269.06C95.498 269.106 95.6626 268.814 96.8957 268.814C99.1412 268.813 98.4882 269.015 101.7 268.979C102.994 268.965 107.313 268.688 110.644 268.709C116.087 268.743 122.832 268.996 129.249 269.001C131.45 269.003 134.277 268.702 137.69 268.699C141.861 268.695 149.547 268.763 153.822 268.767C156.008 268.769 156.166 269.084 156.427 269.097C158.098 269.185 157.423 268.833 158.544 268.847C160.083 268.866 161.52 269.126 162.918 269.143C163.809 269.154 163.951 268.895 164.144 268.892C164.443 268.889 164.74 268.886 165.035 268.882L163.417 270.5C163.344 263.709 163.365 257.621 163.338 250.81C163.189 212.688 162.856 174.202 163.006 136.154C163.018 132.965 163.345 132.845 163.294 130.041C163.243 127.238 162.537 124.53 163.317 122.225C163.16 122.151 163.047 122.158 162.904 122.084C163.126 116.292 162.896 110.499 162.868 104.834C162.847 100.64 162.872 96.922 162.889 93.0484C162.905 89.615 163.18 89.9114 162.822 86.9388C163.046 72.1644 162.991 57.2314 163.363 42.5834C162.777 39.1481 163.147 35.8553 163.233 31.104C163.244 30.5174 163.03 31.1467 163.049 29.4073C163.071 27.2225 163.397 26.0919 163.379 22.4131C163.374 21.4391 163.012 14.2246 163.198 11.5553C163.378 8.96643 163.486 5.25151 163.654 2.5L165.035 3.88138C164.95 3.87615 164.865 3.87086 164.781 3.86551C164.862 3.89421 164.947 3.92265 165.035 3.95092L163.584 2.5C163.474 2.84204 163.367 3.22908 163.257 3.57791C163.251 3.21902 163.245 2.85963 163.239 2.5L165.035 4.29651C164.009 4.31418 162.981 4.33162 161.957 4.34954C161.756 4.18115 161.555 4.01263 161.362 3.84323C160.559 4.00354 159.755 4.16188 158.945 4.32421C157.198 3.4592 158.989 3.74133 155.101 3.96012C153.153 4.06901 151.606 3.91788 149.606 4.00559C148.885 4.03783 148.424 4.29254 147.63 4.32512C145.682 4.40375 146.817 4.05318 145.614 4.05503C144.402 4.05806 142.662 4.44312 140.491 4.27171C142.758 3.58522 136.206 3.80916 135.894 4.34252C135.114 4.3435 134.46 4.32133 133.599 4.33641C134.394 2.98934 130.31 3.94529 128.689 4.1298C127.069 4.31405 127.135 3.95211 126.756 3.96622C125.664 4.00557 126.459 4.15586 125.694 4.16093C120.623 4.19118 115.848 3.97021 110.844 3.95005C110.124 3.94718 110.762 4.15172 109.923 4.13163C109.083 4.11147 108.278 3.90786 107.036 3.92197C106.703 3.92555 106.598 4.10522 106.079 4.10539C95.201 4.09732 84.8722 3.94425 73.7785 3.92106C72.7747 3.91904 71.9866 4.2385 70.0463 4.22746C68.1059 4.21637 65.1617 3.92807 62.7529 3.9058C62.1134 3.89975 61.94 4.16585 61.0923 4.1588C58.2078 4.13455 55.7231 3.91789 52.7269 3.8826C47.6641 3.82317 42.3632 3.98551 37.226 3.82828C36.2521 3.79904 36.4078 3.5771 35.0032 3.51455C32.5792 3.40666 33.4914 3.7303 33.0006 3.77365C31.3951 3.9137 30.8906 3.48357 29.3375 3.5942C29.1 3.61131 29.4387 3.8664 29.2257 3.8704C25.9243 3.91476 25.751 3.31691 22.2414 3.63754C19.1204 3.29379 24.3334 3.17669 24.8687 2.99421C26.1761 2.55064 22.72 2.02939 20.6828 1.86198C18.9284 1.71783 18.9413 1.99399 18.2429 1.99412C14.5477 1.99513 9.04495 2.04764 6.23409 1.9166C4.53135 1.83796 7.60058 1.72292 6.73062 1.63217C5.86838 1.54155 5.31017 1.7491 4.42555 1.52231C3.54072 1.29544 1.73569 0.627817 2.07772 0.309198ZM165.74 149.975C164.651 144.309 164.765 129.283 164.868 121.216C164.955 114.524 165.794 108.755 164.578 110.138C164.57 117.372 164.692 123.223 164.655 130.873C164.651 131.669 164.538 136.414 164.518 138.065C164.507 138.994 164.306 139.024 164.308 140.288C164.309 140.563 164.571 142.088 164.564 142.645C164.541 144.556 164.138 150.237 164.15 151.031C164.184 153.23 164.496 152.386 164.553 153.336C164.74 156.525 164.271 156.877 164.424 160.037C164.451 160.602 164.86 162.476 164.806 164.818C164.784 165.77 164.573 167.391 164.583 168.12C164.638 172.09 164.917 176.522 164.871 180.158C164.832 183.139 164.517 182.337 164.474 183.913C164.433 185.489 164.799 187.393 164.82 188.471C164.853 190.196 164.646 192.292 164.649 192.828C164.71 203.371 164.951 212.747 165.038 222.919C165.182 216.011 165.314 209.111 165.464 202.249C165.137 198.353 165.443 200.292 165.545 197.727C165.626 195.698 165.072 195.207 165.134 192.538C165.134 192.541 165.134 192.543 165.134 192.545C165.166 191.169 165.549 188.188 165.389 185.258C165.383 185.154 165.095 184.893 165.085 182.7C165.063 177.771 164.916 170.217 164.977 164.67C164.996 163.042 165.297 163.374 165.334 161.448C165.361 160.043 165.083 158.416 165.145 156.216C165.225 153.458 165.704 152.134 165.038 150.238C165.276 150.082 165.508 150.161 165.74 149.975ZM160.142 2.3753C159.754 2.34896 154.565 1.60503 156.104 2.39941C159.001 2.54268 161.997 2.59686 165.035 2.62513L164.91 2.5C164.87 6.77411 164.882 11.1326 164.769 15.4223C165.554 12.9165 165.244 8.67727 165.187 3.53187C165.187 3.52968 165.187 3.52749 165.187 3.5253C165.184 3.28226 165.39 4.29785 165.352 2.91697C165.35 2.81738 165.34 2.67576 165.327 2.5L165.325 2.20636L165.035 2.20805C164.03 2.28443 161.907 2.49459 160.142 2.3753Z" fill="#78A564" fill-opacity="0.5"/>
</svg>
