<svg xmlns="http://www.w3.org/2000/svg" width="1512" height="301" fill="none" viewBox="0 0 1512 301"><path fill="#e1ebdd" d="M1512 417H0V10h1512z"/><path fill="#e1ebdd" d="M1501.45 18.58 1484.9 9.3 1501.45 0 1518 9.3zM1242.36 18.58l-16.55-9.29L1242.36 0l16.55 9.3zM1436.05 18.58 1419.5 9.3 1436.05 0l16.55 9.3zM1176.97 18.58l-16.55-9.29L1176.97 0l16.55 9.3zM1371.49 18.58l-16.55-9.29L1371.49 0l16.55 9.3zM1112.4 18.58l-16.55-9.29L1112.4 0l16.55 9.3zM1306.93 18.58l-16.55-9.29L1306.93 0l16.55 9.3zM1047.84 18.58l-16.55-9.29L1047.84 0l16.55 9.3z"/><path fill="#e1ebdd" d="m1469.16 18.58-16.55-9.29L1469.16 0l16.55 9.3zM1210.08 18.58l-16.55-9.29L1210.08 0l16.55 9.3zM1403.77 18.58l-16.55-9.29L1403.77 0l16.55 9.3zM1144.69 18.58l-16.55-9.29L1144.69 0l16.55 9.3zM1339.21 18.58l-16.55-9.29L1339.2 0l16.55 9.3zM1080.12 18.58l-16.55-9.29L1080.12 0l16.55 9.3zM1274.64 18.58l-16.55-9.29L1274.64 0l16.55 9.3zM1015.56 18.58 999.01 9.3 1015.56 0l16.55 9.3z"/><path fill="#e1ebdd" d="M983.45 18.58 966.9 9.3 983.45 0 1000 9.3zM724.36 18.58 707.81 9.3 724.36 0l16.55 9.3zM918.05 18.58 901.5 9.3 918.05 0l16.55 9.3zM658.97 18.58 642.42 9.3 658.97 0l16.55 9.3zM853.49 18.58 836.94 9.3 853.49 0l16.55 9.3zM594.4 18.58 577.85 9.3 594.4 0l16.55 9.3zM788.92 18.58 772.37 9.3 788.92 0l16.55 9.3zM529.84 18.58 513.29 9.3 529.84 0l16.55 9.3z"/><path fill="#e1ebdd" d="M951.16 18.58 934.61 9.3 951.16 0l16.55 9.3zM692.08 18.58 675.53 9.3 692.08 0l16.55 9.3zM885.77 18.58 869.22 9.3 885.77 0l16.55 9.3zM626.68 18.58 610.14 9.3 626.68 0l16.56 9.3zM821.2 18.58 804.67 9.3 821.2 0l16.55 9.3zM562.12 18.58 545.57 9.3 562.12 0l16.55 9.3zM756.64 18.58 740.1 9.3 756.64 0l16.55 9.3zM497.56 18.58 481 9.3 497.56 0l16.55 9.3z"/><path fill="#e1ebdd" d="M465.45 18.58 448.89 9.3 465.45 0 482 9.3zM206.36 18.58 189.8 9.3 206.36 0l16.55 9.3zM400.05 18.58 383.5 9.3 400.05 0l16.55 9.3zM140.97 18.58 124.42 9.3 140.97 0l16.55 9.3zM335.49 18.58 318.94 9.3 335.49 0l16.55 9.3zM76.4 18.58 59.85 9.3 76.4 0l16.55 9.3zM270.92 18.58 254.37 9.3 270.92 0l16.55 9.3zM11.84 18.58-4.71 9.3 11.84 0l16.55 9.3z"/><path fill="#e1ebdd" d="M433.16 18.58 416.61 9.3 433.16 0l16.55 9.3zM174.08 18.58 157.53 9.3 174.08 0l16.55 9.3zM367.77 18.58 351.22 9.3 367.77 0l16.55 9.3zM108.68 18.58 92.13 9.3 108.68 0l16.55 9.3zM303.2 18.58 286.67 9.3 303.2 0l16.55 9.3zM44.12 18.58 27.57 9.3 44.12 0l16.55 9.3zM238.64 18.58 222.1 9.3 238.64 0l16.55 9.3z"/></svg>