<svg width="1512" height="301" viewBox="0 0 1512 301" fill="none" xmlns="http://www.w3.org/2000/svg">
<rect x="1512" y="417" width="1512" height="407" transform="rotate(-180 1512 417)" fill="#E1EBDD"/>
<rect width="18.9846" height="18.9846" transform="matrix(-0.872023 -0.489464 0.872023 -0.489464 1501.45 18.584)" fill="#E1EBDD"/>
<rect width="18.9846" height="18.9846" transform="matrix(-0.872023 -0.489464 0.872023 -0.489464 1242.36 18.584)" fill="#E1EBDD"/>
<rect width="18.9846" height="18.9846" transform="matrix(-0.872023 -0.489464 0.872023 -0.489464 1436.05 18.584)" fill="#E1EBDD"/>
<rect width="18.9846" height="18.9846" transform="matrix(-0.872023 -0.489464 0.872023 -0.489464 1176.97 18.584)" fill="#E1EBDD"/>
<rect width="18.9846" height="18.9846" transform="matrix(-0.872023 -0.489464 0.872023 -0.489464 1371.49 18.584)" fill="#E1EBDD"/>
<rect width="18.9846" height="18.9846" transform="matrix(-0.872023 -0.489464 0.872023 -0.489464 1112.4 18.584)" fill="#E1EBDD"/>
<rect width="18.9846" height="18.9846" transform="matrix(-0.872023 -0.489464 0.872023 -0.489464 1306.93 18.584)" fill="#E1EBDD"/>
<rect width="18.9846" height="18.9846" transform="matrix(-0.872023 -0.489464 0.872023 -0.489464 1047.84 18.584)" fill="#E1EBDD"/>
<rect width="18.9846" height="18.9846" transform="matrix(-0.872023 -0.489464 0.872023 -0.489464 1469.16 18.584)" fill="#E1EBDD"/>
<rect width="18.9846" height="18.9846" transform="matrix(-0.872023 -0.489464 0.872023 -0.489464 1210.08 18.584)" fill="#E1EBDD"/>
<rect width="18.9846" height="18.9846" transform="matrix(-0.872023 -0.489464 0.872023 -0.489464 1403.77 18.584)" fill="#E1EBDD"/>
<rect width="18.9846" height="18.9846" transform="matrix(-0.872023 -0.489464 0.872023 -0.489464 1144.69 18.584)" fill="#E1EBDD"/>
<rect width="18.9846" height="18.9846" transform="matrix(-0.872023 -0.489464 0.872023 -0.489464 1339.21 18.584)" fill="#E1EBDD"/>
<rect width="18.9846" height="18.9846" transform="matrix(-0.872023 -0.489464 0.872023 -0.489464 1080.12 18.584)" fill="#E1EBDD"/>
<rect width="18.9846" height="18.9846" transform="matrix(-0.872023 -0.489464 0.872023 -0.489464 1274.64 18.584)" fill="#E1EBDD"/>
<rect width="18.9846" height="18.9846" transform="matrix(-0.872023 -0.489464 0.872023 -0.489464 1015.56 18.584)" fill="#E1EBDD"/>
<rect width="18.9846" height="18.9846" transform="matrix(-0.872023 -0.489464 0.872023 -0.489464 983.446 18.584)" fill="#E1EBDD"/>
<rect width="18.9846" height="18.9846" transform="matrix(-0.872023 -0.489464 0.872023 -0.489464 724.36 18.584)" fill="#E1EBDD"/>
<rect width="18.9846" height="18.9846" transform="matrix(-0.872023 -0.489464 0.872023 -0.489464 918.054 18.584)" fill="#E1EBDD"/>
<rect width="18.9846" height="18.9846" transform="matrix(-0.872023 -0.489464 0.872023 -0.489464 658.967 18.584)" fill="#E1EBDD"/>
<rect width="18.9846" height="18.9846" transform="matrix(-0.872023 -0.489464 0.872023 -0.489464 853.489 18.584)" fill="#E1EBDD"/>
<rect width="18.9846" height="18.9846" transform="matrix(-0.872023 -0.489464 0.872023 -0.489464 594.403 18.584)" fill="#E1EBDD"/>
<rect width="18.9846" height="18.9846" transform="matrix(-0.872023 -0.489464 0.872023 -0.489464 788.924 18.584)" fill="#E1EBDD"/>
<rect width="18.9846" height="18.9846" transform="matrix(-0.872023 -0.489464 0.872023 -0.489464 529.838 18.584)" fill="#E1EBDD"/>
<rect width="18.9846" height="18.9846" transform="matrix(-0.872023 -0.489464 0.872023 -0.489464 951.164 18.584)" fill="#E1EBDD"/>
<rect width="18.9846" height="18.9846" transform="matrix(-0.872023 -0.489464 0.872023 -0.489464 692.078 18.584)" fill="#E1EBDD"/>
<rect width="18.9846" height="18.9846" transform="matrix(-0.872023 -0.489464 0.872023 -0.489464 885.772 18.584)" fill="#E1EBDD"/>
<rect width="18.9846" height="18.9846" transform="matrix(-0.872023 -0.489464 0.872023 -0.489464 626.685 18.584)" fill="#E1EBDD"/>
<rect width="18.9846" height="18.9846" transform="matrix(-0.872023 -0.489464 0.872023 -0.489464 821.207 18.584)" fill="#E1EBDD"/>
<rect width="18.9846" height="18.9846" transform="matrix(-0.872023 -0.489464 0.872023 -0.489464 562.121 18.584)" fill="#E1EBDD"/>
<rect width="18.9846" height="18.9846" transform="matrix(-0.872023 -0.489464 0.872023 -0.489464 756.642 18.584)" fill="#E1EBDD"/>
<rect width="18.9846" height="18.9846" transform="matrix(-0.872023 -0.489464 0.872023 -0.489464 497.556 18.584)" fill="#E1EBDD"/>
<rect width="18.9846" height="18.9846" transform="matrix(-0.872023 -0.489464 0.872023 -0.489464 465.445 18.584)" fill="#E1EBDD"/>
<rect width="18.9846" height="18.9846" transform="matrix(-0.872023 -0.489464 0.872023 -0.489464 206.359 18.584)" fill="#E1EBDD"/>
<rect width="18.9846" height="18.9846" transform="matrix(-0.872023 -0.489464 0.872023 -0.489464 400.053 18.584)" fill="#E1EBDD"/>
<rect width="18.9846" height="18.9846" transform="matrix(-0.872023 -0.489464 0.872023 -0.489464 140.966 18.584)" fill="#E1EBDD"/>
<rect width="18.9846" height="18.9846" transform="matrix(-0.872023 -0.489464 0.872023 -0.489464 335.488 18.584)" fill="#E1EBDD"/>
<rect width="18.9846" height="18.9846" transform="matrix(-0.872023 -0.489464 0.872023 -0.489464 76.4019 18.584)" fill="#E1EBDD"/>
<rect width="18.9846" height="18.9846" transform="matrix(-0.872023 -0.489464 0.872023 -0.489464 270.923 18.584)" fill="#E1EBDD"/>
<rect width="18.9846" height="18.9846" transform="matrix(-0.872023 -0.489464 0.872023 -0.489464 11.8374 18.584)" fill="#E1EBDD"/>
<rect width="18.9846" height="18.9846" transform="matrix(-0.872023 -0.489464 0.872023 -0.489464 433.163 18.584)" fill="#E1EBDD"/>
<rect width="18.9846" height="18.9846" transform="matrix(-0.872023 -0.489464 0.872023 -0.489464 174.077 18.584)" fill="#E1EBDD"/>
<rect width="18.9846" height="18.9846" transform="matrix(-0.872023 -0.489464 0.872023 -0.489464 367.771 18.584)" fill="#E1EBDD"/>
<rect width="18.9846" height="18.9846" transform="matrix(-0.872023 -0.489464 0.872023 -0.489464 108.684 18.584)" fill="#E1EBDD"/>
<rect width="18.9846" height="18.9846" transform="matrix(-0.872023 -0.489464 0.872023 -0.489464 303.206 18.584)" fill="#E1EBDD"/>
<rect width="18.9846" height="18.9846" transform="matrix(-0.872023 -0.489464 0.872023 -0.489464 44.1196 18.584)" fill="#E1EBDD"/>
<rect width="18.9846" height="18.9846" transform="matrix(-0.872023 -0.489464 0.872023 -0.489464 238.641 18.584)" fill="#E1EBDD"/>
</svg>
