<svg xmlns="http://www.w3.org/2000/svg" width="424" height="39" fill="none" viewBox="0 0 424 39"><rect width="422" height="37" x="1" y="1" stroke="#ed7c6f" stroke-width="2" rx="4"/><path fill="#ed7c6f" d="M98.98 25h-1.63L101 14.82h1.78L106.45 25h-1.63l-2.88-8.33h-.08zm.27-3.99h5.3v1.3h-5.3zm10.2-6.2V25h-1.53V14.82zM115.4 25V14.82h6.38v1.32h-4.84v3.1h4.51v1.32h-4.51v3.12h4.9V25zm11.88-7.64v1.2h-4.17v-1.2zm-3.05-1.83h1.48v7.23q0 .43.13.65.13.21.34.3.21.06.45.07.18 0 .31-.03l.21-.04.27 1.23q-.13.05-.37.1a3 3 0 0 1-1.69-.15 2 2 0 0 1-.82-.68 2 2 0 0 1-.31-1.14zm6.35 4.94V25h-1.5V14.82h1.48v3.79h.09q.27-.62.82-.98.56-.36 1.44-.37.79 0 1.37.33.6.32.92.96t.33 1.6V25h-1.49v-4.68q0-.84-.43-1.3a1.6 1.6 0 0 0-1.2-.47q-.53 0-.95.23-.42.21-.65.65-.23.43-.23 1.04M137.5 25v-7.64H139V25zm.75-8.81a1 1 0 0 1-.66-.26.8.8 0 0 1-.28-.63q0-.36.28-.63.27-.26.66-.26t.66.26q.28.27.28.63t-.28.63a1 1 0 0 1-.66.26m5.95 8.96q-1.1 0-1.9-.5t-1.23-1.4a5 5 0 0 1-.43-2.03q0-1.17.44-2.06t1.23-1.4q.8-.5 1.88-.5.87 0 1.55.33.68.3 1.1.9.42.57.5 1.34h-1.45a1.7 1.7 0 0 0-.54-.93 1.6 1.6 0 0 0-1.14-.38q-.61 0-1.09.33-.45.32-.72.92-.25.6-.25 1.41 0 .84.25 1.44t.72.94q.45.34 1.1.34.42 0 .76-.16.34-.15.58-.45t.33-.7h1.45q-.07.73-.48 1.32-.4.58-1.08.91a3.5 3.5 0 0 1-1.58.33m10.45-5.92-1.34.24a2 2 0 0 0-.27-.5 1.3 1.3 0 0 0-.49-.38q-.3-.15-.77-.15-.63 0-1.05.29-.43.27-.43.72 0 .38.29.61.28.24.91.39l1.21.27q1.06.25 1.57.76.52.5.52 1.31a2 2 0 0 1-.4 1.23 2.6 2.6 0 0 1-1.1.83q-.69.3-1.62.3-1.28 0-2.1-.54a2.3 2.3 0 0 1-.99-1.57l1.44-.22q.13.57.55.85.42.3 1.09.29.74 0 1.17-.3.44-.31.44-.76a.8.8 0 0 0-.27-.6 2 2 0 0 0-.81-.37l-1.3-.28a3 3 0 0 1-1.58-.78q-.5-.53-.5-1.34 0-.68.37-1.19.38-.5 1.05-.79.66-.29 1.53-.29 1.23 0 1.94.54.73.53.94 1.43m14.07-1.1h-1.55a2.4 2.4 0 0 0-.93-1.52q-.36-.25-.8-.4a3 3 0 0 0-2.49.31q-.7.45-1.1 1.3t-.4 2.09.4 2.1 1.1 1.29q.71.45 1.57.44.48 0 .92-.13.43-.14.79-.4a2.4 2.4 0 0 0 .94-1.5l1.55.01a4.2 4.2 0 0 1-1.4 2.47q-.54.45-1.26.7-.7.25-1.55.25-1.32 0-2.36-.63a4.4 4.4 0 0 1-1.63-1.8q-.59-1.18-.59-2.8 0-1.63.6-2.8a4.4 4.4 0 0 1 3.98-2.43q.81 0 1.51.23a4 4 0 0 1 2.2 1.76q.37.64.5 1.46m4.93 7.02a3.32 3.32 0 0 1-3.12-1.87 4.6 4.6 0 0 1-.44-2.06q0-1.2.45-2.08a3.3 3.3 0 0 1 3.11-1.88q1.07 0 1.88.5.8.49 1.24 1.38t.44 2.08-.44 2.06a3.3 3.3 0 0 1-3.12 1.87m0-1.24q.7 0 1.16-.37t.68-.98q.22-.6.22-1.35 0-.73-.22-1.34a2 2 0 0 0-.68-.99q-.46-.37-1.15-.37-.7 0-1.16.37-.46.38-.69.99-.21.6-.22 1.34 0 .74.22 1.35.23.6.69.98.46.36 1.16.37m9.72-3.86v1.3h-4.51v-1.3zm10.56-1.92h-1.55a2.4 2.4 0 0 0-.93-1.52q-.35-.25-.8-.4a3 3 0 0 0-2.49.31q-.69.45-1.1 1.3-.39.86-.39 2.09 0 1.25.4 2.1t1.1 1.29 1.56.44q.48 0 .92-.13.43-.14.79-.4a2.4 2.4 0 0 0 .94-1.5l1.55.01a4.2 4.2 0 0 1-1.4 2.47q-.54.45-1.26.7-.7.25-1.55.25-1.32 0-2.35-.63a4.4 4.4 0 0 1-1.63-1.8q-.6-1.18-.6-2.8 0-1.63.6-2.8a4.4 4.4 0 0 1 3.98-2.43q.81 0 1.51.23a4 4 0 0 1 2.2 1.76q.37.64.5 1.46m1.72 6.87v-7.64h1.43v1.22h.08q.21-.62.74-.97a2 2 0 0 1 1.2-.36l.63.03v1.43l-.31-.06q-.23-.03-.46-.03-.53 0-.94.22a1.7 1.7 0 0 0-.89 1.5V25zm8.39.15q-1.12 0-1.95-.48a3.3 3.3 0 0 1-1.25-1.37 5 5 0 0 1-.44-2.07q0-1.17.44-2.07t1.24-1.4a3.75 3.75 0 0 1 3.11-.29 3 3 0 0 1 1.85 1.87q.27.72.27 1.76v.53h-6.07v-1.11h4.62q0-.6-.24-1.04a1.8 1.8 0 0 0-1.68-.99q-.62 0-1.09.31-.46.3-.72.8a2 2 0 0 0-.24 1.05v.87q0 .78.26 1.3.28.55.77.83.48.28 1.13.28.42 0 .77-.12t.6-.37.4-.6l1.4.25q-.17.63-.6 1.09-.44.46-1.1.72-.65.25-1.48.25m7.15.02q-.73 0-1.32-.27-.58-.28-.93-.79a2.3 2.3 0 0 1-.33-1.27q0-.64.25-1.06.24-.42.67-.66t.94-.37 1.06-.19l1.12-.13q.42-.06.62-.17t.2-.4v-.03q0-.65-.37-1-.37-.36-1.09-.36-.75 0-1.18.33t-.6.73l-1.39-.32a2.7 2.7 0 0 1 1.83-1.75 4.3 4.3 0 0 1 2.3-.09q.51.1.96.4.44.27.74.8.28.52.28 1.36V25h-1.45v-1.04h-.06q-.15.29-.43.56-.3.28-.74.47-.45.18-1.08.18m.32-1.2q.62 0 1.05-.24a1.7 1.7 0 0 0 .9-1.48v-.99a1 1 0 0 1-.3.15l-.51.11-1.02.15q-.43.06-.8.18-.35.13-.56.38a1 1 0 0 0-.2.63q0 .55.4.84.4.27 1.04.28m8.99-6.6v1.19h-4.17v-1.2zm-3.05-1.84h1.48v7.23q0 .43.13.65.13.21.34.3.2.06.45.07.18 0 .31-.03l.21-.04.27 1.23q-.13.05-.37.1a3 3 0 0 1-1.69-.15 2 2 0 0 1-.82-.68q-.3-.45-.31-1.14zm4.7 9.47v-7.64h1.48V25zm.74-8.81a1 1 0 0 1-.66-.26.8.8 0 0 1-.28-.63q0-.36.28-.63.27-.26.66-.26t.67.26.27.63q0 .36-.27.63a1 1 0 0 1-.67.26m5.96 8.96a3.32 3.32 0 0 1-3.12-1.87 4.6 4.6 0 0 1-.44-2.06q0-1.2.44-2.08a3.3 3.3 0 0 1 3.12-1.88q1.07 0 1.87.5.8.49 1.24 1.38.45.89.45 2.08 0 1.18-.45 2.06a3.3 3.3 0 0 1-3.11 1.87m0-1.24q.7 0 1.15-.37.46-.37.68-.98.22-.6.22-1.35 0-.73-.22-1.34a2 2 0 0 0-.68-.99q-.45-.37-1.15-.37t-1.16.37q-.45.38-.68.99-.22.6-.22 1.34t.22 1.35.68.98q.46.36 1.16.37m6.7-3.44V25h-1.49v-7.64h1.43v1.25h.1q.26-.6.82-.98.57-.37 1.43-.37.78 0 1.37.33t.9.97.33 1.58V25h-1.49v-4.68q0-.82-.43-1.3a1.5 1.5 0 0 0-1.19-.47q-.51 0-.92.23a1.6 1.6 0 0 0-.63.65q-.23.43-.23 1.04M247.13 25h-1.63l3.66-10.18h1.78L254.6 25h-1.63l-2.88-8.33h-.08zm.27-3.99h5.29v1.3h-5.29zm11.64 4.14q-1.1 0-1.9-.5t-1.23-1.4a5 5 0 0 1-.43-2.03q0-1.17.44-2.06t1.23-1.4q.8-.5 1.88-.5.87 0 1.55.33.68.3 1.1.9.42.57.5 1.34h-1.45a1.7 1.7 0 0 0-.54-.93 1.6 1.6 0 0 0-1.14-.38q-.61 0-1.09.33-.45.32-.72.92-.25.6-.25 1.41 0 .84.25 1.44t.71.94 1.1.34q.43 0 .77-.16.35-.15.58-.45.24-.3.33-.7h1.45q-.07.73-.48 1.32-.4.58-1.08.91a3.5 3.5 0 0 1-1.58.33m8.3-7.79v1.2h-4.18v-1.2zm-3.06-1.83h1.49v7.23q0 .43.13.65.13.21.33.3.22.06.45.07.18 0 .32-.03l.2-.04.28 1.23q-.14.05-.37.1a3 3 0 0 1-1.7-.15 2 2 0 0 1-.81-.68q-.32-.45-.32-1.14zm4.7 9.47v-7.64h1.49V25zm.75-8.81a1 1 0 0 1-.67-.26.8.8 0 0 1-.27-.63q0-.36.27-.63.28-.26.67-.26t.66.26.28.63-.28.63a1 1 0 0 1-.66.26m9.27 1.17L276.23 25h-1.6l-2.76-7.64h1.59l1.93 5.88h.08l1.93-5.88zm1.4 7.64v-7.64h1.48V25zm.75-8.81a1 1 0 0 1-.67-.26.8.8 0 0 1-.27-.63q0-.36.27-.63.27-.26.67-.26.38 0 .66.26.27.27.28.63 0 .36-.28.63a1 1 0 0 1-.66.26m6.3 1.17v1.2h-4.17v-1.2zm-3.06-1.83h1.5v7.23q0 .43.12.65.13.21.33.3.21.06.46.07.18 0 .3-.03l.22-.04.27 1.23q-.13.05-.37.1a3 3 0 0 1-1.7-.15 2 2 0 0 1-.81-.68 2 2 0 0 1-.32-1.14zm4.7 9.47v-7.64h1.49V25zm.75-8.81a1 1 0 0 1-.66-.26.8.8 0 0 1-.28-.63q0-.36.28-.63.27-.26.66-.26t.66.26q.28.27.28.63t-.28.63a1 1 0 0 1-.66.26m6.03 8.96q-1.13 0-1.94-.48a3.3 3.3 0 0 1-1.26-1.37 5 5 0 0 1-.44-2.07q0-1.17.44-2.07t1.23-1.4a3.74 3.74 0 0 1 3.11-.29 3 3 0 0 1 1.86 1.87q.27.72.27 1.76v.53h-6.06v-1.11h4.6q0-.6-.23-1.04a1.8 1.8 0 0 0-1.68-.99q-.62 0-1.09.31-.46.3-.72.8a2 2 0 0 0-.24 1.05v.87q0 .78.26 1.3.28.55.76.83.49.28 1.14.28.43 0 .77-.12.36-.12.6-.37.26-.24.4-.6l1.4.25q-.17.63-.6 1.09-.44.46-1.1.72-.65.25-1.48.25m10.65-5.92-1.35.24a2 2 0 0 0-.27-.5 1.3 1.3 0 0 0-.49-.38q-.3-.15-.77-.15-.63 0-1.05.29-.42.27-.42.72 0 .38.28.61.29.24.92.39l1.2.27q1.06.25 1.58.76.51.5.52 1.31a2 2 0 0 1-.4 1.23 2.6 2.6 0 0 1-1.1.83q-.7.3-1.63.3-1.28 0-2.09-.54a2.3 2.3 0 0 1-1-1.57l1.44-.22q.14.57.56.85.41.3 1.08.29.74 0 1.17-.3.44-.31.44-.76a.8.8 0 0 0-.27-.6 2 2 0 0 0-.8-.37l-1.3-.28a3 3 0 0 1-1.58-.78q-.51-.53-.51-1.34 0-.68.38-1.19t1.04-.79 1.53-.29q1.23 0 1.95.54.7.53.94 1.43"/><path stroke="#ed7c6f" stroke-linejoin="round" d="M324.25 20.07a.5.5 0 0 1 0 .86L316 25.7a.5.5 0 0 1-.75-.44v-9.52a.5.5 0 0 1 .75-.44z"/></svg>