<svg width="424" height="39" viewBox="0 0 424 39" fill="none" xmlns="http://www.w3.org/2000/svg">
<rect x="1" y="1" width="422" height="37" rx="4" fill="#F59730" stroke="#F59730" stroke-width="2"/>
<path d="M94.9787 25H93.348L97.0121 14.8182H98.7869L102.451 25H100.82L97.9418 16.6676H97.8622L94.9787 25ZM95.2521 21.0128H100.542V22.3054H95.2521V21.0128ZM105.458 14.8182V25H103.921V14.8182H105.458ZM111.4 25V14.8182H117.783V16.1406H112.936V19.2429H117.45V20.5604H112.936V23.6776H117.843V25H111.4ZM123.281 17.3636V18.5568H119.11V17.3636H123.281ZM120.228 15.5341H121.715V22.7578C121.715 23.0462 121.758 23.2633 121.844 23.4091C121.93 23.5516 122.041 23.6494 122.177 23.7024C122.316 23.7521 122.467 23.777 122.629 23.777C122.749 23.777 122.853 23.7687 122.943 23.7521C123.032 23.7356 123.102 23.7223 123.151 23.7124L123.42 24.9403C123.334 24.9735 123.211 25.0066 123.052 25.0398C122.893 25.0762 122.694 25.0961 122.455 25.0994C122.064 25.1061 121.7 25.0365 121.362 24.8906C121.024 24.7448 120.75 24.5194 120.541 24.2145C120.333 23.9096 120.228 23.5268 120.228 23.0661V15.5341ZM126.576 20.4659V25H125.089V14.8182H126.556V18.6065H126.65C126.829 18.1955 127.103 17.8691 127.471 17.6271C127.838 17.3852 128.319 17.2642 128.912 17.2642C129.436 17.2642 129.893 17.3719 130.284 17.5874C130.679 17.8028 130.984 18.1243 131.199 18.5518C131.418 18.9761 131.527 19.5064 131.527 20.1428V25H130.041V20.3217C130.041 19.7616 129.897 19.3274 129.608 19.0192C129.32 18.7076 128.919 18.5518 128.405 18.5518C128.054 18.5518 127.739 18.6264 127.461 18.7756C127.185 18.9247 126.968 19.1435 126.809 19.4318C126.654 19.7169 126.576 20.0616 126.576 20.4659ZM133.511 25V17.3636H134.998V25H133.511ZM134.262 16.1854C134.003 16.1854 133.781 16.0992 133.596 15.9268C133.413 15.7512 133.322 15.5424 133.322 15.3004C133.322 15.0552 133.413 14.8464 133.596 14.674C133.781 14.4983 134.003 14.4105 134.262 14.4105C134.52 14.4105 134.741 14.4983 134.923 14.674C135.109 14.8464 135.201 15.0552 135.201 15.3004C135.201 15.5424 135.109 15.7512 134.923 15.9268C134.741 16.0992 134.52 16.1854 134.262 16.1854ZM140.214 25.1541C139.475 25.1541 138.838 24.9867 138.305 24.652C137.775 24.3139 137.367 23.8482 137.082 23.255C136.797 22.6617 136.654 21.9822 136.654 21.2166C136.654 20.4411 136.8 19.7566 137.092 19.1634C137.383 18.5668 137.794 18.1011 138.325 17.7663C138.855 17.4316 139.48 17.2642 140.199 17.2642C140.779 17.2642 141.296 17.3719 141.75 17.5874C142.204 17.7995 142.57 18.0978 142.849 18.4822C143.131 18.8667 143.298 19.3158 143.351 19.8295H141.904C141.825 19.4716 141.642 19.1634 141.357 18.9048C141.076 18.6463 140.698 18.517 140.224 18.517C139.81 18.517 139.447 18.6264 139.135 18.8452C138.827 19.0606 138.587 19.3688 138.414 19.7699C138.242 20.1676 138.156 20.6383 138.156 21.1818C138.156 21.7386 138.24 22.2192 138.409 22.6236C138.578 23.0279 138.817 23.3411 139.125 23.5632C139.437 23.7853 139.803 23.8963 140.224 23.8963C140.506 23.8963 140.761 23.8449 140.99 23.7422C141.222 23.6361 141.415 23.4853 141.571 23.2898C141.73 23.0942 141.841 22.8589 141.904 22.5838H143.351C143.298 23.0777 143.137 23.5185 142.869 23.9062C142.6 24.294 142.241 24.599 141.79 24.821C141.343 25.0431 140.817 25.1541 140.214 25.1541ZM150.663 19.228L149.316 19.4666C149.259 19.2943 149.17 19.1302 149.047 18.9744C148.928 18.8187 148.766 18.6911 148.56 18.5916C148.355 18.4922 148.098 18.4425 147.789 18.4425C147.368 18.4425 147.017 18.5369 146.735 18.7259C146.454 18.9115 146.313 19.1518 146.313 19.4467C146.313 19.7019 146.407 19.9074 146.596 20.0632C146.785 20.219 147.09 20.3466 147.511 20.446L148.724 20.7244C149.427 20.8868 149.95 21.1371 150.295 21.4751C150.64 21.8132 150.812 22.2524 150.812 22.7926C150.812 23.25 150.68 23.6577 150.414 24.0156C150.153 24.3703 149.786 24.6487 149.316 24.8509C148.848 25.053 148.306 25.1541 147.69 25.1541C146.835 25.1541 146.137 24.9718 145.597 24.6072C145.057 24.2393 144.725 23.7173 144.603 23.0412L146.039 22.8224C146.129 23.197 146.313 23.4804 146.591 23.6726C146.87 23.8615 147.233 23.956 147.68 23.956C148.167 23.956 148.557 23.8549 148.848 23.6527C149.14 23.4472 149.286 23.197 149.286 22.902C149.286 22.6634 149.196 22.4628 149.017 22.3004C148.842 22.138 148.572 22.0154 148.207 21.9325L146.914 21.6491C146.202 21.4867 145.675 21.2282 145.333 20.8736C144.995 20.5189 144.826 20.0698 144.826 19.5263C144.826 19.0755 144.952 18.6811 145.204 18.343C145.456 18.005 145.804 17.7415 146.248 17.5526C146.692 17.3603 147.201 17.2642 147.775 17.2642C148.6 17.2642 149.249 17.4432 149.723 17.8011C150.197 18.1558 150.511 18.6314 150.663 19.228ZM168.433 18.1293H166.882C166.822 17.7978 166.711 17.5062 166.548 17.2543C166.386 17.0024 166.187 16.7886 165.952 16.6129C165.717 16.4373 165.453 16.3047 165.161 16.2152C164.873 16.1257 164.566 16.081 164.242 16.081C163.655 16.081 163.13 16.2285 162.666 16.5234C162.205 16.8184 161.84 17.2509 161.572 17.821C161.307 18.3911 161.174 19.0871 161.174 19.9091C161.174 20.7377 161.307 21.437 161.572 22.0071C161.84 22.5772 162.207 23.008 162.671 23.2997C163.135 23.5914 163.657 23.7372 164.237 23.7372C164.558 23.7372 164.863 23.6941 165.151 23.608C165.443 23.5185 165.707 23.3875 165.942 23.2152C166.177 23.0429 166.376 22.8324 166.539 22.5838C166.704 22.3319 166.819 22.0436 166.882 21.7188L168.433 21.7237C168.35 22.2242 168.189 22.6849 167.95 23.1058C167.715 23.5234 167.412 23.8847 167.041 24.1896C166.673 24.4912 166.252 24.7249 165.778 24.8906C165.304 25.0563 164.787 25.1392 164.227 25.1392C163.345 25.1392 162.56 24.9304 161.87 24.5128C161.181 24.0919 160.637 23.4903 160.24 22.7081C159.845 21.9259 159.648 20.9929 159.648 19.9091C159.648 18.822 159.847 17.889 160.244 17.1101C160.642 16.3279 161.186 15.728 161.875 15.3104C162.565 14.8894 163.348 14.679 164.227 14.679C164.767 14.679 165.271 14.7569 165.738 14.9126C166.209 15.0651 166.631 15.2905 167.006 15.5888C167.38 15.8838 167.69 16.245 167.936 16.6726C168.181 17.0968 168.347 17.5824 168.433 18.1293ZM173.368 25.1541C172.652 25.1541 172.028 24.9901 171.494 24.6619C170.96 24.3338 170.546 23.8748 170.251 23.2848C169.956 22.6948 169.809 22.0054 169.809 21.2166C169.809 20.4245 169.956 19.7318 170.251 19.1385C170.546 18.5452 170.96 18.0845 171.494 17.7564C172.028 17.4283 172.652 17.2642 173.368 17.2642C174.084 17.2642 174.709 17.4283 175.243 17.7564C175.776 18.0845 176.19 18.5452 176.485 19.1385C176.78 19.7318 176.928 20.4245 176.928 21.2166C176.928 22.0054 176.78 22.6948 176.485 23.2848C176.19 23.8748 175.776 24.3338 175.243 24.6619C174.709 24.9901 174.084 25.1541 173.368 25.1541ZM173.373 23.9062C173.837 23.9062 174.222 23.7836 174.527 23.5384C174.832 23.2931 175.057 22.9666 175.203 22.5589C175.352 22.1513 175.426 21.7022 175.426 21.2116C175.426 20.7244 175.352 20.277 175.203 19.8693C175.057 19.4583 174.832 19.1286 174.527 18.88C174.222 18.6314 173.837 18.5071 173.373 18.5071C172.906 18.5071 172.518 18.6314 172.21 18.88C171.905 19.1286 171.678 19.4583 171.529 19.8693C171.383 20.277 171.31 20.7244 171.31 21.2116C171.31 21.7022 171.383 22.1513 171.529 22.5589C171.678 22.9666 171.905 23.2931 172.21 23.5384C172.518 23.7836 172.906 23.9062 173.373 23.9062ZM183.086 20.0533V21.3409H178.572V20.0533H183.086ZM193.644 18.1293H192.093C192.033 17.7978 191.922 17.5062 191.759 17.2543C191.597 17.0024 191.398 16.7886 191.163 16.6129C190.927 16.4373 190.664 16.3047 190.372 16.2152C190.084 16.1257 189.777 16.081 189.453 16.081C188.866 16.081 188.341 16.2285 187.877 16.5234C187.416 16.8184 187.051 17.2509 186.783 17.821C186.518 18.3911 186.385 19.0871 186.385 19.9091C186.385 20.7377 186.518 21.437 186.783 22.0071C187.051 22.5772 187.418 23.008 187.882 23.2997C188.346 23.5914 188.868 23.7372 189.448 23.7372C189.769 23.7372 190.074 23.6941 190.362 23.608C190.654 23.5185 190.918 23.3875 191.153 23.2152C191.388 23.0429 191.587 22.8324 191.749 22.5838C191.915 22.3319 192.03 22.0436 192.093 21.7188L193.644 21.7237C193.561 22.2242 193.4 22.6849 193.161 23.1058C192.926 23.5234 192.623 23.8847 192.252 24.1896C191.884 24.4912 191.463 24.7249 190.989 24.8906C190.515 25.0563 189.998 25.1392 189.438 25.1392C188.556 25.1392 187.771 24.9304 187.081 24.5128C186.392 24.0919 185.848 23.4903 185.45 22.7081C185.056 21.9259 184.859 20.9929 184.859 19.9091C184.859 18.822 185.058 17.889 185.455 17.1101C185.853 16.3279 186.397 15.728 187.086 15.3104C187.776 14.8894 188.559 14.679 189.438 14.679C189.978 14.679 190.482 14.7569 190.949 14.9126C191.42 15.0651 191.842 15.2905 192.217 15.5888C192.591 15.8838 192.901 16.245 193.146 16.6726C193.392 17.0968 193.557 17.5824 193.644 18.1293ZM195.363 25V17.3636H196.799V18.5767H196.879C197.018 18.1657 197.263 17.8426 197.615 17.6072C197.969 17.3686 198.37 17.2493 198.818 17.2493C198.911 17.2493 199.02 17.2526 199.146 17.2592C199.275 17.2659 199.376 17.2741 199.449 17.2841V18.706C199.39 18.6894 199.283 18.6712 199.131 18.6513C198.979 18.6281 198.826 18.6165 198.674 18.6165C198.322 18.6165 198.009 18.6911 197.734 18.8402C197.462 18.986 197.247 19.1899 197.088 19.4517C196.929 19.7102 196.849 20.0052 196.849 20.3366V25H195.363ZM203.753 25.1541C203.001 25.1541 202.353 24.9934 201.809 24.6719C201.269 24.3471 200.852 23.8913 200.557 23.3047C200.265 22.7147 200.119 22.0237 200.119 21.2315C200.119 20.4493 200.265 19.7599 200.557 19.1634C200.852 18.5668 201.263 18.1011 201.79 17.7663C202.32 17.4316 202.94 17.2642 203.649 17.2642C204.08 17.2642 204.497 17.3355 204.902 17.478C205.306 17.6205 205.669 17.8442 205.991 18.1491C206.312 18.4541 206.566 18.8501 206.751 19.3374C206.937 19.8213 207.03 20.4096 207.03 21.1023V21.6293H200.959V20.5156H205.573C205.573 20.1245 205.493 19.7782 205.334 19.4766C205.175 19.1716 204.952 18.9313 204.663 18.7557C204.378 18.58 204.043 18.4922 203.659 18.4922C203.241 18.4922 202.877 18.5949 202.565 18.8004C202.257 19.0026 202.018 19.2678 201.849 19.5959C201.684 19.9207 201.601 20.2737 201.601 20.6548V21.5249C201.601 22.0353 201.69 22.4695 201.869 22.8274C202.051 23.1854 202.305 23.4588 202.63 23.6477C202.955 23.8333 203.334 23.9261 203.768 23.9261C204.05 23.9261 204.307 23.8864 204.539 23.8068C204.771 23.724 204.971 23.6013 205.14 23.4389C205.309 23.2765 205.439 23.076 205.528 22.8374L206.935 23.0909C206.823 23.5052 206.62 23.8681 206.329 24.1797C206.04 24.4879 205.677 24.7282 205.24 24.9006C204.806 25.0696 204.31 25.1541 203.753 25.1541ZM210.901 25.169C210.417 25.169 209.98 25.0795 209.589 24.9006C209.198 24.7183 208.888 24.4548 208.659 24.1101C208.434 23.7654 208.321 23.3428 208.321 22.8423C208.321 22.4115 208.404 22.0568 208.57 21.7784C208.735 21.5 208.959 21.2796 209.241 21.1172C209.522 20.9548 209.837 20.8321 210.185 20.7493C210.533 20.6664 210.888 20.6035 211.249 20.5604C211.707 20.5073 212.078 20.4643 212.363 20.4311C212.648 20.3946 212.855 20.3366 212.984 20.2571C213.114 20.1776 213.178 20.0483 213.178 19.8693V19.8345C213.178 19.4003 213.056 19.0639 212.81 18.8253C212.568 18.5866 212.207 18.4673 211.727 18.4673C211.226 18.4673 210.832 18.5784 210.543 18.8004C210.258 19.0192 210.061 19.2628 209.952 19.5312L208.555 19.2131C208.72 18.7491 208.962 18.3745 209.281 18.0895C209.602 17.8011 209.972 17.5923 210.389 17.4631C210.807 17.3305 211.246 17.2642 211.707 17.2642C212.012 17.2642 212.335 17.3007 212.676 17.3736C213.021 17.4432 213.342 17.5724 213.641 17.7614C213.942 17.9503 214.189 18.2204 214.381 18.5717C214.574 18.9197 214.67 19.3722 214.67 19.929V25H213.218V23.956H213.158C213.062 24.1482 212.918 24.3371 212.726 24.5227C212.534 24.7083 212.287 24.8625 211.985 24.9851C211.683 25.1077 211.322 25.169 210.901 25.169ZM211.224 23.9759C211.635 23.9759 211.987 23.8946 212.278 23.7322C212.573 23.5698 212.797 23.3577 212.95 23.0959C213.105 22.8307 213.183 22.5473 213.183 22.2457V21.2614C213.13 21.3144 213.027 21.3641 212.875 21.4105C212.726 21.4536 212.555 21.4917 212.363 21.5249C212.171 21.5547 211.983 21.5829 211.801 21.6094C211.619 21.6326 211.466 21.6525 211.344 21.669C211.055 21.7055 210.792 21.7668 210.553 21.853C210.318 21.9392 210.129 22.0634 209.987 22.2259C209.847 22.3849 209.778 22.5971 209.778 22.8622C209.778 23.2301 209.914 23.5085 210.185 23.6974C210.457 23.883 210.804 23.9759 211.224 23.9759ZM220.214 17.3636V18.5568H216.043V17.3636H220.214ZM217.162 15.5341H218.648V22.7578C218.648 23.0462 218.691 23.2633 218.778 23.4091C218.864 23.5516 218.975 23.6494 219.111 23.7024C219.25 23.7521 219.401 23.777 219.563 23.777C219.682 23.777 219.787 23.7687 219.876 23.7521C219.966 23.7356 220.035 23.7223 220.085 23.7124L220.354 24.9403C220.267 24.9735 220.145 25.0066 219.986 25.0398C219.827 25.0762 219.628 25.0961 219.389 25.0994C218.998 25.1061 218.633 25.0365 218.295 24.8906C217.957 24.7448 217.684 24.5194 217.475 24.2145C217.266 23.9096 217.162 23.5268 217.162 23.0661V15.5341ZM221.859 25V17.3636H223.345V25H221.859ZM222.609 16.1854C222.351 16.1854 222.129 16.0992 221.943 15.9268C221.761 15.7512 221.67 15.5424 221.67 15.3004C221.67 15.0552 221.761 14.8464 221.943 14.674C222.129 14.4983 222.351 14.4105 222.609 14.4105C222.868 14.4105 223.088 14.4983 223.271 14.674C223.456 14.8464 223.549 15.0552 223.549 15.3004C223.549 15.5424 223.456 15.7512 223.271 15.9268C223.088 16.0992 222.868 16.1854 222.609 16.1854ZM228.562 25.1541C227.846 25.1541 227.221 24.9901 226.687 24.6619C226.154 24.3338 225.739 23.8748 225.444 23.2848C225.149 22.6948 225.002 22.0054 225.002 21.2166C225.002 20.4245 225.149 19.7318 225.444 19.1385C225.739 18.5452 226.154 18.0845 226.687 17.7564C227.221 17.4283 227.846 17.2642 228.562 17.2642C229.278 17.2642 229.902 17.4283 230.436 17.7564C230.97 18.0845 231.384 18.5452 231.679 19.1385C231.974 19.7318 232.121 20.4245 232.121 21.2166C232.121 22.0054 231.974 22.6948 231.679 23.2848C231.384 23.8748 230.97 24.3338 230.436 24.6619C229.902 24.9901 229.278 25.1541 228.562 25.1541ZM228.567 23.9062C229.031 23.9062 229.415 23.7836 229.72 23.5384C230.025 23.2931 230.25 22.9666 230.396 22.5589C230.545 22.1513 230.62 21.7022 230.62 21.2116C230.62 20.7244 230.545 20.277 230.396 19.8693C230.25 19.4583 230.025 19.1286 229.72 18.88C229.415 18.6314 229.031 18.5071 228.567 18.5071C228.099 18.5071 227.711 18.6314 227.403 18.88C227.098 19.1286 226.871 19.4583 226.722 19.8693C226.576 20.277 226.503 20.7244 226.503 21.2116C226.503 21.7022 226.576 22.1513 226.722 22.5589C226.871 22.9666 227.098 23.2931 227.403 23.5384C227.711 23.7836 228.099 23.9062 228.567 23.9062ZM235.267 20.4659V25H233.781V17.3636H235.207V18.6065H235.302C235.478 18.2022 235.753 17.8774 236.127 17.6321C236.505 17.3868 236.981 17.2642 237.554 17.2642C238.074 17.2642 238.53 17.3736 238.921 17.5923C239.312 17.8078 239.616 18.1293 239.831 18.5568C240.046 18.9844 240.154 19.513 240.154 20.1428V25H238.668V20.3217C238.668 19.7682 238.523 19.3357 238.235 19.0241C237.947 18.7093 237.551 18.5518 237.047 18.5518C236.702 18.5518 236.396 18.6264 236.127 18.7756C235.862 18.9247 235.652 19.1435 235.496 19.4318C235.343 19.7169 235.267 20.0616 235.267 20.4659ZM251.525 17.4929C251.472 17.0223 251.254 16.6577 250.869 16.3991C250.485 16.1373 250.001 16.0064 249.417 16.0064C249 16.0064 248.639 16.0727 248.334 16.2053C248.029 16.3345 247.792 16.5135 247.623 16.7422C247.457 16.9676 247.374 17.2244 247.374 17.5128C247.374 17.7547 247.43 17.9635 247.543 18.1392C247.659 18.3149 247.81 18.4624 247.996 18.5817C248.184 18.6977 248.387 18.7955 248.602 18.875C248.818 18.9512 249.025 19.0142 249.224 19.0639L250.218 19.3224C250.543 19.402 250.876 19.5097 251.217 19.6456C251.559 19.7815 251.875 19.9605 252.167 20.1825C252.458 20.4046 252.694 20.6797 252.873 21.0078C253.055 21.3359 253.146 21.7287 253.146 22.1861C253.146 22.7628 252.997 23.2749 252.699 23.7223C252.404 24.1697 251.974 24.5227 251.411 24.7812C250.851 25.0398 250.173 25.169 249.378 25.169C248.615 25.169 247.956 25.0481 247.399 24.8061C246.842 24.5642 246.406 24.2211 246.091 23.777C245.777 23.3295 245.603 22.7992 245.569 22.1861H247.111C247.14 22.554 247.26 22.8606 247.469 23.1058C247.681 23.3478 247.951 23.5284 248.279 23.6477C248.61 23.7637 248.973 23.8217 249.368 23.8217C249.802 23.8217 250.188 23.7538 250.526 23.6179C250.867 23.4787 251.136 23.2865 251.331 23.0412C251.527 22.7926 251.625 22.5026 251.625 22.1712C251.625 21.8696 251.539 21.6226 251.366 21.4304C251.197 21.2382 250.967 21.0791 250.675 20.9531C250.387 20.8272 250.06 20.7161 249.696 20.62L248.493 20.2919C247.677 20.0698 247.031 19.7434 246.554 19.3125C246.08 18.8816 245.843 18.3116 245.843 17.6023C245.843 17.0156 246.002 16.5036 246.32 16.0661C246.638 15.6286 247.069 15.2888 247.613 15.0469C248.156 14.8016 248.769 14.679 249.452 14.679C250.142 14.679 250.75 14.8 251.277 15.0419C251.807 15.2839 252.225 15.617 252.53 16.0412C252.835 16.4621 252.994 16.946 253.007 17.4929H251.525ZM258.079 25.1541C257.34 25.1541 256.704 24.9867 256.17 24.652C255.64 24.3139 255.232 23.8482 254.947 23.255C254.662 22.6617 254.52 21.9822 254.52 21.2166C254.52 20.4411 254.665 19.7566 254.957 19.1634C255.249 18.5668 255.66 18.1011 256.19 17.7663C256.72 17.4316 257.345 17.2642 258.064 17.2642C258.644 17.2642 259.161 17.3719 259.615 17.5874C260.069 17.7995 260.436 18.0978 260.714 18.4822C260.996 18.8667 261.163 19.3158 261.216 19.8295H259.77C259.69 19.4716 259.508 19.1634 259.223 18.9048C258.941 18.6463 258.563 18.517 258.089 18.517C257.675 18.517 257.312 18.6264 257 18.8452C256.692 19.0606 256.452 19.3688 256.279 19.7699C256.107 20.1676 256.021 20.6383 256.021 21.1818C256.021 21.7386 256.105 22.2192 256.275 22.6236C256.444 23.0279 256.682 23.3411 256.99 23.5632C257.302 23.7853 257.668 23.8963 258.089 23.8963C258.371 23.8963 258.626 23.8449 258.855 23.7422C259.087 23.6361 259.281 23.4853 259.436 23.2898C259.596 23.0942 259.707 22.8589 259.77 22.5838H261.216C261.163 23.0777 261.002 23.5185 260.734 23.9062C260.466 24.294 260.106 24.599 259.655 24.821C259.208 25.0431 258.682 25.1541 258.079 25.1541ZM266.097 25.1541C265.345 25.1541 264.697 24.9934 264.153 24.6719C263.613 24.3471 263.195 23.8913 262.9 23.3047C262.609 22.7147 262.463 22.0237 262.463 21.2315C262.463 20.4493 262.609 19.7599 262.9 19.1634C263.195 18.5668 263.606 18.1011 264.133 17.7663C264.664 17.4316 265.283 17.2642 265.993 17.2642C266.424 17.2642 266.841 17.3355 267.246 17.478C267.65 17.6205 268.013 17.8442 268.334 18.1491C268.656 18.4541 268.909 18.8501 269.095 19.3374C269.281 19.8213 269.373 20.4096 269.373 21.1023V21.6293H263.303V20.5156H267.917C267.917 20.1245 267.837 19.7782 267.678 19.4766C267.519 19.1716 267.295 18.9313 267.007 18.7557C266.722 18.58 266.387 18.4922 266.003 18.4922C265.585 18.4922 265.22 18.5949 264.909 18.8004C264.601 19.0026 264.362 19.2678 264.193 19.5959C264.027 19.9207 263.944 20.2737 263.944 20.6548V21.5249C263.944 22.0353 264.034 22.4695 264.213 22.8274C264.395 23.1854 264.649 23.4588 264.974 23.6477C265.298 23.8333 265.678 23.9261 266.112 23.9261C266.394 23.9261 266.651 23.8864 266.883 23.8068C267.115 23.724 267.315 23.6013 267.484 23.4389C267.653 23.2765 267.782 23.076 267.872 22.8374L269.279 23.0909C269.166 23.5052 268.964 23.8681 268.672 24.1797C268.384 24.4879 268.021 24.7282 267.584 24.9006C267.149 25.0696 266.654 25.1541 266.097 25.1541ZM272.509 20.4659V25H271.023V17.3636H272.45V18.6065H272.544C272.72 18.2022 272.995 17.8774 273.369 17.6321C273.747 17.3868 274.223 17.2642 274.796 17.2642C275.317 17.2642 275.772 17.3736 276.163 17.5923C276.554 17.8078 276.858 18.1293 277.073 18.5568C277.289 18.9844 277.396 19.513 277.396 20.1428V25H275.91V20.3217C275.91 19.7682 275.766 19.3357 275.477 19.0241C275.189 18.7093 274.793 18.5518 274.289 18.5518C273.944 18.5518 273.638 18.6264 273.369 18.7756C273.104 18.9247 272.894 19.1435 272.738 19.4318C272.585 19.7169 272.509 20.0616 272.509 20.4659ZM281.612 25.169C281.128 25.169 280.691 25.0795 280.3 24.9006C279.909 24.7183 279.599 24.4548 279.37 24.1101C279.145 23.7654 279.032 23.3428 279.032 22.8423C279.032 22.4115 279.115 22.0568 279.281 21.7784C279.446 21.5 279.67 21.2796 279.952 21.1172C280.233 20.9548 280.548 20.8321 280.896 20.7493C281.244 20.6664 281.599 20.6035 281.96 20.5604C282.418 20.5073 282.789 20.4643 283.074 20.4311C283.359 20.3946 283.566 20.3366 283.695 20.2571C283.825 20.1776 283.889 20.0483 283.889 19.8693V19.8345C283.889 19.4003 283.767 19.0639 283.521 18.8253C283.279 18.5866 282.918 18.4673 282.438 18.4673C281.937 18.4673 281.543 18.5784 281.254 18.8004C280.969 19.0192 280.772 19.2628 280.663 19.5312L279.266 19.2131C279.431 18.7491 279.673 18.3745 279.991 18.0895C280.313 17.8011 280.683 17.5923 281.1 17.4631C281.518 17.3305 281.957 17.2642 282.418 17.2642C282.723 17.2642 283.046 17.3007 283.387 17.3736C283.732 17.4432 284.053 17.5724 284.352 17.7614C284.653 17.9503 284.9 18.2204 285.092 18.5717C285.285 18.9197 285.381 19.3722 285.381 19.929V25H283.929V23.956H283.869C283.773 24.1482 283.629 24.3371 283.437 24.5227C283.245 24.7083 282.998 24.8625 282.696 24.9851C282.394 25.1077 282.033 25.169 281.612 25.169ZM281.935 23.9759C282.346 23.9759 282.698 23.8946 282.989 23.7322C283.284 23.5698 283.508 23.3577 283.661 23.0959C283.816 22.8307 283.894 22.5473 283.894 22.2457V21.2614C283.841 21.3144 283.738 21.3641 283.586 21.4105C283.437 21.4536 283.266 21.4917 283.074 21.5249C282.882 21.5547 282.694 21.5829 282.512 21.6094C282.33 21.6326 282.177 21.6525 282.055 21.669C281.766 21.7055 281.503 21.7668 281.264 21.853C281.029 21.9392 280.84 22.0634 280.697 22.2259C280.558 22.3849 280.489 22.5971 280.489 22.8622C280.489 23.2301 280.625 23.5085 280.896 23.6974C281.168 23.883 281.514 23.9759 281.935 23.9759ZM287.361 25V17.3636H288.797V18.5767H288.877C289.016 18.1657 289.261 17.8426 289.613 17.6072C289.967 17.3686 290.368 17.2493 290.816 17.2493C290.909 17.2493 291.018 17.2526 291.144 17.2592C291.273 17.2659 291.374 17.2741 291.447 17.2841V18.706C291.388 18.6894 291.282 18.6712 291.129 18.6513C290.977 18.6281 290.824 18.6165 290.672 18.6165C290.32 18.6165 290.007 18.6911 289.732 18.8402C289.46 18.986 289.245 19.1899 289.086 19.4517C288.927 19.7102 288.847 20.0052 288.847 20.3366V25H287.361ZM292.734 25V17.3636H294.22V25H292.734ZM293.484 16.1854C293.226 16.1854 293.004 16.0992 292.818 15.9268C292.636 15.7512 292.545 15.5424 292.545 15.3004C292.545 15.0552 292.636 14.8464 292.818 14.674C293.004 14.4983 293.226 14.4105 293.484 14.4105C293.743 14.4105 293.963 14.4983 294.146 14.674C294.331 14.8464 294.424 15.0552 294.424 15.3004C294.424 15.5424 294.331 15.7512 294.146 15.9268C293.963 16.0992 293.743 16.1854 293.484 16.1854ZM299.437 25.1541C298.721 25.1541 298.096 24.9901 297.562 24.6619C297.029 24.3338 296.614 23.8748 296.319 23.2848C296.024 22.6948 295.877 22.0054 295.877 21.2166C295.877 20.4245 296.024 19.7318 296.319 19.1385C296.614 18.5452 297.029 18.0845 297.562 17.7564C298.096 17.4283 298.721 17.2642 299.437 17.2642C300.153 17.2642 300.777 17.4283 301.311 17.7564C301.845 18.0845 302.259 18.5452 302.554 19.1385C302.849 19.7318 302.996 20.4245 302.996 21.2166C302.996 22.0054 302.849 22.6948 302.554 23.2848C302.259 23.8748 301.845 24.3338 301.311 24.6619C300.777 24.9901 300.153 25.1541 299.437 25.1541ZM299.442 23.9062C299.906 23.9062 300.29 23.7836 300.595 23.5384C300.9 23.2931 301.125 22.9666 301.271 22.5589C301.42 22.1513 301.495 21.7022 301.495 21.2116C301.495 20.7244 301.42 20.277 301.271 19.8693C301.125 19.4583 300.9 19.1286 300.595 18.88C300.29 18.6314 299.906 18.5071 299.442 18.5071C298.974 18.5071 298.586 18.6314 298.278 18.88C297.973 19.1286 297.746 19.4583 297.597 19.8693C297.451 20.277 297.378 20.7244 297.378 21.2116C297.378 21.7022 297.451 22.1513 297.597 22.5589C297.746 22.9666 297.973 23.2931 298.278 23.5384C298.586 23.7836 298.974 23.9062 299.442 23.9062ZM310.378 19.228L309.031 19.4666C308.974 19.2943 308.885 19.1302 308.762 18.9744C308.643 18.8187 308.48 18.6911 308.275 18.5916C308.069 18.4922 307.813 18.4425 307.504 18.4425C307.083 18.4425 306.732 18.5369 306.45 18.7259C306.169 18.9115 306.028 19.1518 306.028 19.4467C306.028 19.7019 306.122 19.9074 306.311 20.0632C306.5 20.219 306.805 20.3466 307.226 20.446L308.439 20.7244C309.142 20.8868 309.665 21.1371 310.01 21.4751C310.355 21.8132 310.527 22.2524 310.527 22.7926C310.527 23.25 310.394 23.6577 310.129 24.0156C309.867 24.3703 309.501 24.6487 309.031 24.8509C308.563 25.053 308.021 25.1541 307.405 25.1541C306.55 25.1541 305.852 24.9718 305.312 24.6072C304.772 24.2393 304.44 23.7173 304.317 23.0412L305.754 22.8224C305.844 23.197 306.028 23.4804 306.306 23.6726C306.585 23.8615 306.947 23.956 307.395 23.956C307.882 23.956 308.272 23.8549 308.563 23.6527C308.855 23.4472 309.001 23.197 309.001 22.902C309.001 22.6634 308.911 22.4628 308.732 22.3004C308.557 22.138 308.286 22.0154 307.922 21.9325L306.629 21.6491C305.917 21.4867 305.39 21.2282 305.048 20.8736C304.71 20.5189 304.541 20.0698 304.541 19.5263C304.541 19.0755 304.667 18.6811 304.919 18.343C305.171 18.005 305.519 17.7415 305.963 17.5526C306.407 17.3603 306.916 17.2642 307.489 17.2642C308.315 17.2642 308.964 17.4432 309.438 17.8011C309.912 18.1558 310.225 18.6314 310.378 19.228Z" fill="white"/>
<path d="M328.25 20.0674C328.583 20.2599 328.583 20.7401 328.25 20.9326L320 25.6963C319.667 25.8887 319.25 25.6476 319.25 25.2627L319.25 15.7373C319.25 15.3524 319.667 15.1113 320 15.3037L328.25 20.0674Z" fill="white" stroke="white" stroke-linejoin="round"/>
</svg>
