<svg width="424" height="39" viewBox="0 0 424 39" fill="none" xmlns="http://www.w3.org/2000/svg">
<rect x="1" y="1" width="422" height="37" rx="4" stroke="#F59730" stroke-width="2"/>
<path d="M96.9787 25H95.348L99.0121 14.8182H100.787L104.451 25H102.82L99.9418 16.6676H99.8622L96.9787 25ZM97.2521 21.0128H102.542V22.3054H97.2521V21.0128ZM107.458 14.8182V25H105.921V14.8182H107.458ZM113.4 25V14.8182H119.783V16.1406H114.936V19.2429H119.45V20.5604H114.936V23.6776H119.843V25H113.4ZM125.281 17.3636V18.5568H121.11V17.3636H125.281ZM122.228 15.5341H123.715V22.7578C123.715 23.0462 123.758 23.2633 123.844 23.4091C123.93 23.5516 124.041 23.6494 124.177 23.7024C124.316 23.7521 124.467 23.777 124.629 23.777C124.749 23.777 124.853 23.7687 124.943 23.7521C125.032 23.7356 125.102 23.7223 125.151 23.7124L125.42 24.9403C125.334 24.9735 125.211 25.0066 125.052 25.0398C124.893 25.0762 124.694 25.0961 124.455 25.0994C124.064 25.1061 123.7 25.0365 123.362 24.8906C123.024 24.7448 122.75 24.5194 122.541 24.2145C122.333 23.9096 122.228 23.5268 122.228 23.0661V15.5341ZM128.576 20.4659V25H127.089V14.8182H128.556V18.6065H128.65C128.829 18.1955 129.103 17.8691 129.471 17.6271C129.838 17.3852 130.319 17.2642 130.912 17.2642C131.436 17.2642 131.893 17.3719 132.284 17.5874C132.679 17.8028 132.984 18.1243 133.199 18.5518C133.418 18.9761 133.527 19.5064 133.527 20.1428V25H132.041V20.3217C132.041 19.7616 131.897 19.3274 131.608 19.0192C131.32 18.7076 130.919 18.5518 130.405 18.5518C130.054 18.5518 129.739 18.6264 129.461 18.7756C129.185 18.9247 128.968 19.1435 128.809 19.4318C128.654 19.7169 128.576 20.0616 128.576 20.4659ZM135.511 25V17.3636H136.998V25H135.511ZM136.262 16.1854C136.003 16.1854 135.781 16.0992 135.596 15.9268C135.413 15.7512 135.322 15.5424 135.322 15.3004C135.322 15.0552 135.413 14.8464 135.596 14.674C135.781 14.4983 136.003 14.4105 136.262 14.4105C136.52 14.4105 136.741 14.4983 136.923 14.674C137.109 14.8464 137.201 15.0552 137.201 15.3004C137.201 15.5424 137.109 15.7512 136.923 15.9268C136.741 16.0992 136.52 16.1854 136.262 16.1854ZM142.214 25.1541C141.475 25.1541 140.838 24.9867 140.305 24.652C139.775 24.3139 139.367 23.8482 139.082 23.255C138.797 22.6617 138.654 21.9822 138.654 21.2166C138.654 20.4411 138.8 19.7566 139.092 19.1634C139.383 18.5668 139.794 18.1011 140.325 17.7663C140.855 17.4316 141.48 17.2642 142.199 17.2642C142.779 17.2642 143.296 17.3719 143.75 17.5874C144.204 17.7995 144.57 18.0978 144.849 18.4822C145.131 18.8667 145.298 19.3158 145.351 19.8295H143.904C143.825 19.4716 143.642 19.1634 143.357 18.9048C143.076 18.6463 142.698 18.517 142.224 18.517C141.81 18.517 141.447 18.6264 141.135 18.8452C140.827 19.0606 140.587 19.3688 140.414 19.7699C140.242 20.1676 140.156 20.6383 140.156 21.1818C140.156 21.7386 140.24 22.2192 140.409 22.6236C140.578 23.0279 140.817 23.3411 141.125 23.5632C141.437 23.7853 141.803 23.8963 142.224 23.8963C142.506 23.8963 142.761 23.8449 142.99 23.7422C143.222 23.6361 143.415 23.4853 143.571 23.2898C143.73 23.0942 143.841 22.8589 143.904 22.5838H145.351C145.298 23.0777 145.137 23.5185 144.869 23.9062C144.6 24.294 144.241 24.599 143.79 24.821C143.343 25.0431 142.817 25.1541 142.214 25.1541ZM152.663 19.228L151.316 19.4666C151.259 19.2943 151.17 19.1302 151.047 18.9744C150.928 18.8187 150.766 18.6911 150.56 18.5916C150.355 18.4922 150.098 18.4425 149.789 18.4425C149.368 18.4425 149.017 18.5369 148.735 18.7259C148.454 18.9115 148.313 19.1518 148.313 19.4467C148.313 19.7019 148.407 19.9074 148.596 20.0632C148.785 20.219 149.09 20.3466 149.511 20.446L150.724 20.7244C151.427 20.8868 151.95 21.1371 152.295 21.4751C152.64 21.8132 152.812 22.2524 152.812 22.7926C152.812 23.25 152.68 23.6577 152.414 24.0156C152.153 24.3703 151.786 24.6487 151.316 24.8509C150.848 25.053 150.306 25.1541 149.69 25.1541C148.835 25.1541 148.137 24.9718 147.597 24.6072C147.057 24.2393 146.725 23.7173 146.603 23.0412L148.039 22.8224C148.129 23.197 148.313 23.4804 148.591 23.6726C148.87 23.8615 149.233 23.956 149.68 23.956C150.167 23.956 150.557 23.8549 150.848 23.6527C151.14 23.4472 151.286 23.197 151.286 22.902C151.286 22.6634 151.196 22.4628 151.017 22.3004C150.842 22.138 150.572 22.0154 150.207 21.9325L148.914 21.6491C148.202 21.4867 147.675 21.2282 147.333 20.8736C146.995 20.5189 146.826 20.0698 146.826 19.5263C146.826 19.0755 146.952 18.6811 147.204 18.343C147.456 18.005 147.804 17.7415 148.248 17.5526C148.692 17.3603 149.201 17.2642 149.775 17.2642C150.6 17.2642 151.249 17.4432 151.723 17.8011C152.197 18.1558 152.511 18.6314 152.663 19.228ZM166.728 18.1293H165.176C165.117 17.7978 165.006 17.5062 164.843 17.2543C164.681 17.0024 164.482 16.7886 164.247 16.6129C164.011 16.4373 163.748 16.3047 163.456 16.2152C163.168 16.1257 162.861 16.081 162.537 16.081C161.95 16.081 161.425 16.2285 160.961 16.5234C160.5 16.8184 160.135 17.2509 159.867 17.821C159.602 18.3911 159.469 19.0871 159.469 19.9091C159.469 20.7377 159.602 21.437 159.867 22.0071C160.135 22.5772 160.502 23.008 160.966 23.2997C161.43 23.5914 161.952 23.7372 162.532 23.7372C162.853 23.7372 163.158 23.6941 163.446 23.608C163.738 23.5185 164.002 23.3875 164.237 23.2152C164.472 23.0429 164.671 22.8324 164.833 22.5838C164.999 22.3319 165.114 22.0436 165.176 21.7188L166.728 21.7237C166.645 22.2242 166.484 22.6849 166.245 23.1058C166.01 23.5234 165.707 23.8847 165.336 24.1896C164.968 24.4912 164.547 24.7249 164.073 24.8906C163.599 25.0563 163.082 25.1392 162.522 25.1392C161.64 25.1392 160.855 24.9304 160.165 24.5128C159.476 24.0919 158.932 23.4903 158.534 22.7081C158.14 21.9259 157.943 20.9929 157.943 19.9091C157.943 18.822 158.142 17.889 158.539 17.1101C158.937 16.3279 159.481 15.728 160.17 15.3104C160.859 14.8894 161.643 14.679 162.522 14.679C163.062 14.679 163.566 14.7569 164.033 14.9126C164.504 15.0651 164.926 15.2905 165.301 15.5888C165.675 15.8838 165.985 16.245 166.23 16.6726C166.476 17.0968 166.641 17.5824 166.728 18.1293ZM171.663 25.1541C170.947 25.1541 170.323 24.9901 169.789 24.6619C169.255 24.3338 168.841 23.8748 168.546 23.2848C168.251 22.6948 168.104 22.0054 168.104 21.2166C168.104 20.4245 168.251 19.7318 168.546 19.1385C168.841 18.5452 169.255 18.0845 169.789 17.7564C170.323 17.4283 170.947 17.2642 171.663 17.2642C172.379 17.2642 173.004 17.4283 173.537 17.7564C174.071 18.0845 174.485 18.5452 174.78 19.1385C175.075 19.7318 175.223 20.4245 175.223 21.2166C175.223 22.0054 175.075 22.6948 174.78 23.2848C174.485 23.8748 174.071 24.3338 173.537 24.6619C173.004 24.9901 172.379 25.1541 171.663 25.1541ZM171.668 23.9062C172.132 23.9062 172.517 23.7836 172.822 23.5384C173.126 23.2931 173.352 22.9666 173.498 22.5589C173.647 22.1513 173.721 21.7022 173.721 21.2116C173.721 20.7244 173.647 20.277 173.498 19.8693C173.352 19.4583 173.126 19.1286 172.822 18.88C172.517 18.6314 172.132 18.5071 171.668 18.5071C171.201 18.5071 170.813 18.6314 170.505 18.88C170.2 19.1286 169.973 19.4583 169.824 19.8693C169.678 20.277 169.605 20.7244 169.605 21.2116C169.605 21.7022 169.678 22.1513 169.824 22.5589C169.973 22.9666 170.2 23.2931 170.505 23.5384C170.813 23.7836 171.201 23.9062 171.668 23.9062ZM181.381 20.0533V21.3409H176.867V20.0533H181.381ZM191.939 18.1293H190.387C190.328 17.7978 190.217 17.5062 190.054 17.2543C189.892 17.0024 189.693 16.7886 189.458 16.6129C189.222 16.4373 188.959 16.3047 188.667 16.2152C188.379 16.1257 188.072 16.081 187.748 16.081C187.161 16.081 186.636 16.2285 186.172 16.5234C185.711 16.8184 185.346 17.2509 185.078 17.821C184.813 18.3911 184.68 19.0871 184.68 19.9091C184.68 20.7377 184.813 21.437 185.078 22.0071C185.346 22.5772 185.712 23.008 186.176 23.2997C186.641 23.5914 187.163 23.7372 187.743 23.7372C188.064 23.7372 188.369 23.6941 188.657 23.608C188.949 23.5185 189.212 23.3875 189.448 23.2152C189.683 23.0429 189.882 22.8324 190.044 22.5838C190.21 22.3319 190.324 22.0436 190.387 21.7188L191.939 21.7237C191.856 22.2242 191.695 22.6849 191.456 23.1058C191.221 23.5234 190.918 23.8847 190.547 24.1896C190.179 24.4912 189.758 24.7249 189.284 24.8906C188.81 25.0563 188.293 25.1392 187.733 25.1392C186.851 25.1392 186.065 24.9304 185.376 24.5128C184.687 24.0919 184.143 23.4903 183.745 22.7081C183.351 21.9259 183.154 20.9929 183.154 19.9091C183.154 18.822 183.353 17.889 183.75 17.1101C184.148 16.3279 184.692 15.728 185.381 15.3104C186.07 14.8894 186.854 14.679 187.733 14.679C188.273 14.679 188.777 14.7569 189.244 14.9126C189.715 15.0651 190.137 15.2905 190.512 15.5888C190.886 15.8838 191.196 16.245 191.441 16.6726C191.687 17.0968 191.852 17.5824 191.939 18.1293ZM193.657 25V17.3636H195.094V18.5767H195.174C195.313 18.1657 195.558 17.8426 195.91 17.6072C196.264 17.3686 196.665 17.2493 197.113 17.2493C197.206 17.2493 197.315 17.2526 197.441 17.2592C197.57 17.2659 197.671 17.2741 197.744 17.2841V18.706C197.684 18.6894 197.578 18.6712 197.426 18.6513C197.273 18.6281 197.121 18.6165 196.969 18.6165C196.617 18.6165 196.304 18.6911 196.029 18.8402C195.757 18.986 195.542 19.1899 195.383 19.4517C195.224 19.7102 195.144 20.0052 195.144 20.3366V25H193.657ZM202.048 25.1541C201.296 25.1541 200.648 24.9934 200.104 24.6719C199.564 24.3471 199.147 23.8913 198.852 23.3047C198.56 22.7147 198.414 22.0237 198.414 21.2315C198.414 20.4493 198.56 19.7599 198.852 19.1634C199.147 18.5668 199.558 18.1011 200.085 17.7663C200.615 17.4316 201.235 17.2642 201.944 17.2642C202.375 17.2642 202.792 17.3355 203.197 17.478C203.601 17.6205 203.964 17.8442 204.286 18.1491C204.607 18.4541 204.861 18.8501 205.046 19.3374C205.232 19.8213 205.325 20.4096 205.325 21.1023V21.6293H199.254V20.5156H203.868C203.868 20.1245 203.788 19.7782 203.629 19.4766C203.47 19.1716 203.246 18.9313 202.958 18.7557C202.673 18.58 202.338 18.4922 201.954 18.4922C201.536 18.4922 201.172 18.5949 200.86 18.8004C200.552 19.0026 200.313 19.2678 200.144 19.5959C199.978 19.9207 199.896 20.2737 199.896 20.6548V21.5249C199.896 22.0353 199.985 22.4695 200.164 22.8274C200.346 23.1854 200.6 23.4588 200.925 23.6477C201.25 23.8333 201.629 23.9261 202.063 23.9261C202.345 23.9261 202.602 23.8864 202.834 23.8068C203.066 23.724 203.266 23.6013 203.435 23.4389C203.604 23.2765 203.734 23.076 203.823 22.8374L205.23 23.0909C205.117 23.5052 204.915 23.8681 204.624 24.1797C204.335 24.4879 203.972 24.7282 203.535 24.9006C203.101 25.0696 202.605 25.1541 202.048 25.1541ZM209.196 25.169C208.712 25.169 208.275 25.0795 207.884 24.9006C207.493 24.7183 207.183 24.4548 206.954 24.1101C206.729 23.7654 206.616 23.3428 206.616 22.8423C206.616 22.4115 206.699 22.0568 206.865 21.7784C207.03 21.5 207.254 21.2796 207.536 21.1172C207.817 20.9548 208.132 20.8321 208.48 20.7493C208.828 20.6664 209.183 20.6035 209.544 20.5604C210.002 20.5073 210.373 20.4643 210.658 20.4311C210.943 20.3946 211.15 20.3366 211.279 20.2571C211.409 20.1776 211.473 20.0483 211.473 19.8693V19.8345C211.473 19.4003 211.351 19.0639 211.105 18.8253C210.863 18.5866 210.502 18.4673 210.021 18.4673C209.521 18.4673 209.127 18.5784 208.838 18.8004C208.553 19.0192 208.356 19.2628 208.247 19.5312L206.85 19.2131C207.015 18.7491 207.257 18.3745 207.575 18.0895C207.897 17.8011 208.267 17.5923 208.684 17.4631C209.102 17.3305 209.541 17.2642 210.002 17.2642C210.307 17.2642 210.63 17.3007 210.971 17.3736C211.316 17.4432 211.637 17.5724 211.936 17.7614C212.237 17.9503 212.484 18.2204 212.676 18.5717C212.869 18.9197 212.965 19.3722 212.965 19.929V25H211.513V23.956H211.453C211.357 24.1482 211.213 24.3371 211.021 24.5227C210.829 24.7083 210.582 24.8625 210.28 24.9851C209.978 25.1077 209.617 25.169 209.196 25.169ZM209.519 23.9759C209.93 23.9759 210.282 23.8946 210.573 23.7322C210.868 23.5698 211.092 23.3577 211.244 23.0959C211.4 22.8307 211.478 22.5473 211.478 22.2457V21.2614C211.425 21.3144 211.322 21.3641 211.17 21.4105C211.021 21.4536 210.85 21.4917 210.658 21.5249C210.466 21.5547 210.278 21.5829 210.096 21.6094C209.914 21.6326 209.761 21.6525 209.639 21.669C209.35 21.7055 209.087 21.7668 208.848 21.853C208.613 21.9392 208.424 22.0634 208.281 22.2259C208.142 22.3849 208.073 22.5971 208.073 22.8622C208.073 23.2301 208.209 23.5085 208.48 23.6974C208.752 23.883 209.098 23.9759 209.519 23.9759ZM218.509 17.3636V18.5568H214.338V17.3636H218.509ZM215.457 15.5341H216.943V22.7578C216.943 23.0462 216.986 23.2633 217.072 23.4091C217.159 23.5516 217.27 23.6494 217.406 23.7024C217.545 23.7521 217.696 23.777 217.858 23.777C217.977 23.777 218.082 23.7687 218.171 23.7521C218.261 23.7356 218.33 23.7223 218.38 23.7124L218.648 24.9403C218.562 24.9735 218.44 25.0066 218.281 25.0398C218.121 25.0762 217.923 25.0961 217.684 25.0994C217.293 25.1061 216.928 25.0365 216.59 24.8906C216.252 24.7448 215.979 24.5194 215.77 24.2145C215.561 23.9096 215.457 23.5268 215.457 23.0661V15.5341ZM220.154 25V17.3636H221.64V25H220.154ZM220.904 16.1854C220.646 16.1854 220.424 16.0992 220.238 15.9268C220.056 15.7512 219.965 15.5424 219.965 15.3004C219.965 15.0552 220.056 14.8464 220.238 14.674C220.424 14.4983 220.646 14.4105 220.904 14.4105C221.163 14.4105 221.383 14.4983 221.566 14.674C221.751 14.8464 221.844 15.0552 221.844 15.3004C221.844 15.5424 221.751 15.7512 221.566 15.9268C221.383 16.0992 221.163 16.1854 220.904 16.1854ZM226.857 25.1541C226.141 25.1541 225.516 24.9901 224.982 24.6619C224.449 24.3338 224.034 23.8748 223.739 23.2848C223.444 22.6948 223.297 22.0054 223.297 21.2166C223.297 20.4245 223.444 19.7318 223.739 19.1385C224.034 18.5452 224.449 18.0845 224.982 17.7564C225.516 17.4283 226.141 17.2642 226.857 17.2642C227.572 17.2642 228.197 17.4283 228.731 17.7564C229.264 18.0845 229.679 18.5452 229.974 19.1385C230.269 19.7318 230.416 20.4245 230.416 21.2166C230.416 22.0054 230.269 22.6948 229.974 23.2848C229.679 23.8748 229.264 24.3338 228.731 24.6619C228.197 24.9901 227.572 25.1541 226.857 25.1541ZM226.862 23.9062C227.326 23.9062 227.71 23.7836 228.015 23.5384C228.32 23.2931 228.545 22.9666 228.691 22.5589C228.84 22.1513 228.915 21.7022 228.915 21.2116C228.915 20.7244 228.84 20.277 228.691 19.8693C228.545 19.4583 228.32 19.1286 228.015 18.88C227.71 18.6314 227.326 18.5071 226.862 18.5071C226.394 18.5071 226.006 18.6314 225.698 18.88C225.393 19.1286 225.166 19.4583 225.017 19.8693C224.871 20.277 224.798 20.7244 224.798 21.2116C224.798 21.7022 224.871 22.1513 225.017 22.5589C225.166 22.9666 225.393 23.2931 225.698 23.5384C226.006 23.7836 226.394 23.9062 226.862 23.9062ZM233.562 20.4659V25H232.075V17.3636H233.502V18.6065H233.597C233.772 18.2022 234.048 17.8774 234.422 17.6321C234.8 17.3868 235.276 17.2642 235.849 17.2642C236.369 17.2642 236.825 17.3736 237.216 17.5923C237.607 17.8078 237.91 18.1293 238.126 18.5568C238.341 18.9844 238.449 19.513 238.449 20.1428V25H236.963V20.3217C236.963 19.7682 236.818 19.3357 236.53 19.0241C236.242 18.7093 235.846 18.5518 235.342 18.5518C234.997 18.5518 234.691 18.6264 234.422 18.7756C234.157 18.9247 233.946 19.1435 233.791 19.4318C233.638 19.7169 233.562 20.0616 233.562 20.4659ZM249.82 17.4929C249.767 17.0223 249.549 16.6577 249.164 16.3991C248.78 16.1373 248.296 16.0064 247.712 16.0064C247.295 16.0064 246.933 16.0727 246.629 16.2053C246.324 16.3345 246.087 16.5135 245.918 16.7422C245.752 16.9676 245.669 17.2244 245.669 17.5128C245.669 17.7547 245.725 17.9635 245.838 18.1392C245.954 18.3149 246.105 18.4624 246.29 18.5817C246.479 18.6977 246.682 18.7955 246.897 18.875C247.112 18.9512 247.32 19.0142 247.518 19.0639L248.513 19.3224C248.838 19.402 249.171 19.5097 249.512 19.6456C249.853 19.7815 250.17 19.9605 250.462 20.1825C250.753 20.4046 250.989 20.6797 251.168 21.0078C251.35 21.3359 251.441 21.7287 251.441 22.1861C251.441 22.7628 251.292 23.2749 250.994 23.7223C250.699 24.1697 250.269 24.5227 249.706 24.7812C249.146 25.0398 248.468 25.169 247.673 25.169C246.91 25.169 246.251 25.0481 245.694 24.8061C245.137 24.5642 244.701 24.2211 244.386 23.777C244.071 23.3295 243.897 22.7992 243.864 22.1861H245.406C245.435 22.554 245.555 22.8606 245.763 23.1058C245.976 23.3478 246.246 23.5284 246.574 23.6477C246.905 23.7637 247.268 23.8217 247.663 23.8217C248.097 23.8217 248.483 23.7538 248.821 23.6179C249.162 23.4787 249.431 23.2865 249.626 23.0412C249.822 22.7926 249.92 22.5026 249.92 22.1712C249.92 21.8696 249.834 21.6226 249.661 21.4304C249.492 21.2382 249.262 21.0791 248.97 20.9531C248.682 20.8272 248.355 20.7161 247.991 20.62L246.788 20.2919C245.972 20.0698 245.326 19.7434 244.849 19.3125C244.375 18.8816 244.138 18.3116 244.138 17.6023C244.138 17.0156 244.297 16.5036 244.615 16.0661C244.933 15.6286 245.364 15.2888 245.908 15.0469C246.451 14.8016 247.064 14.679 247.747 14.679C248.437 14.679 249.045 14.8 249.572 15.0419C250.102 15.2839 250.52 15.617 250.825 16.0412C251.129 16.4621 251.289 16.946 251.302 17.4929H249.82ZM256.374 25.1541C255.635 25.1541 254.999 24.9867 254.465 24.652C253.935 24.3139 253.527 23.8482 253.242 23.255C252.957 22.6617 252.814 21.9822 252.814 21.2166C252.814 20.4411 252.96 19.7566 253.252 19.1634C253.544 18.5668 253.955 18.1011 254.485 17.7663C255.015 17.4316 255.64 17.2642 256.359 17.2642C256.939 17.2642 257.456 17.3719 257.91 17.5874C258.364 17.7995 258.731 18.0978 259.009 18.4822C259.291 18.8667 259.458 19.3158 259.511 19.8295H258.064C257.985 19.4716 257.803 19.1634 257.518 18.9048C257.236 18.6463 256.858 18.517 256.384 18.517C255.97 18.517 255.607 18.6264 255.295 18.8452C254.987 19.0606 254.747 19.3688 254.574 19.7699C254.402 20.1676 254.316 20.6383 254.316 21.1818C254.316 21.7386 254.4 22.2192 254.569 22.6236C254.738 23.0279 254.977 23.3411 255.285 23.5632C255.597 23.7853 255.963 23.8963 256.384 23.8963C256.666 23.8963 256.921 23.8449 257.15 23.7422C257.382 23.6361 257.576 23.4853 257.731 23.2898C257.89 23.0942 258.001 22.8589 258.064 22.5838H259.511C259.458 23.0777 259.297 23.5185 259.029 23.9062C258.76 24.294 258.401 24.599 257.95 24.821C257.503 25.0431 256.977 25.1541 256.374 25.1541ZM264.392 25.1541C263.64 25.1541 262.992 24.9934 262.448 24.6719C261.908 24.3471 261.49 23.8913 261.195 23.3047C260.904 22.7147 260.758 22.0237 260.758 21.2315C260.758 20.4493 260.904 19.7599 261.195 19.1634C261.49 18.5668 261.901 18.1011 262.428 17.7663C262.959 17.4316 263.578 17.2642 264.288 17.2642C264.719 17.2642 265.136 17.3355 265.54 17.478C265.945 17.6205 266.308 17.8442 266.629 18.1491C266.951 18.4541 267.204 18.8501 267.39 19.3374C267.576 19.8213 267.668 20.4096 267.668 21.1023V21.6293H261.598V20.5156H266.212C266.212 20.1245 266.132 19.7782 265.973 19.4766C265.814 19.1716 265.59 18.9313 265.302 18.7557C265.017 18.58 264.682 18.4922 264.298 18.4922C263.88 18.4922 263.515 18.5949 263.204 18.8004C262.896 19.0026 262.657 19.2678 262.488 19.5959C262.322 19.9207 262.239 20.2737 262.239 20.6548V21.5249C262.239 22.0353 262.329 22.4695 262.508 22.8274C262.69 23.1854 262.944 23.4588 263.268 23.6477C263.593 23.8333 263.973 23.9261 264.407 23.9261C264.689 23.9261 264.946 23.8864 265.178 23.8068C265.41 23.724 265.61 23.6013 265.779 23.4389C265.948 23.2765 266.077 23.076 266.167 22.8374L267.574 23.0909C267.461 23.5052 267.259 23.8681 266.967 24.1797C266.679 24.4879 266.316 24.7282 265.879 24.9006C265.444 25.0696 264.949 25.1541 264.392 25.1541ZM270.804 20.4659V25H269.318V17.3636H270.744V18.6065H270.839C271.015 18.2022 271.29 17.8774 271.664 17.6321C272.042 17.3868 272.518 17.2642 273.091 17.2642C273.611 17.2642 274.067 17.3736 274.458 17.5923C274.849 17.8078 275.153 18.1293 275.368 18.5568C275.584 18.9844 275.691 19.513 275.691 20.1428V25H274.205V20.3217C274.205 19.7682 274.061 19.3357 273.772 19.0241C273.484 18.7093 273.088 18.5518 272.584 18.5518C272.239 18.5518 271.933 18.6264 271.664 18.7756C271.399 18.9247 271.189 19.1435 271.033 19.4318C270.88 19.7169 270.804 20.0616 270.804 20.4659ZM279.907 25.169C279.423 25.169 278.986 25.0795 278.595 24.9006C278.204 24.7183 277.894 24.4548 277.665 24.1101C277.44 23.7654 277.327 23.3428 277.327 22.8423C277.327 22.4115 277.41 22.0568 277.575 21.7784C277.741 21.5 277.965 21.2796 278.247 21.1172C278.528 20.9548 278.843 20.8321 279.191 20.7493C279.539 20.6664 279.894 20.6035 280.255 20.5604C280.713 20.5073 281.084 20.4643 281.369 20.4311C281.654 20.3946 281.861 20.3366 281.99 20.2571C282.119 20.1776 282.184 20.0483 282.184 19.8693V19.8345C282.184 19.4003 282.061 19.0639 281.816 18.8253C281.574 18.5866 281.213 18.4673 280.732 18.4673C280.232 18.4673 279.838 18.5784 279.549 18.8004C279.264 19.0192 279.067 19.2628 278.958 19.5312L277.561 19.2131C277.726 18.7491 277.968 18.3745 278.286 18.0895C278.608 17.8011 278.977 17.5923 279.395 17.4631C279.813 17.3305 280.252 17.2642 280.713 17.2642C281.017 17.2642 281.341 17.3007 281.682 17.3736C282.027 17.4432 282.348 17.5724 282.646 17.7614C282.948 17.9503 283.195 18.2204 283.387 18.5717C283.579 18.9197 283.676 19.3722 283.676 19.929V25H282.224V23.956H282.164C282.068 24.1482 281.924 24.3371 281.732 24.5227C281.539 24.7083 281.293 24.8625 280.991 24.9851C280.689 25.1077 280.328 25.169 279.907 25.169ZM280.23 23.9759C280.641 23.9759 280.993 23.8946 281.284 23.7322C281.579 23.5698 281.803 23.3577 281.955 23.0959C282.111 22.8307 282.189 22.5473 282.189 22.2457V21.2614C282.136 21.3144 282.033 21.3641 281.881 21.4105C281.732 21.4536 281.561 21.4917 281.369 21.5249C281.177 21.5547 280.989 21.5829 280.807 21.6094C280.625 21.6326 280.472 21.6525 280.35 21.669C280.061 21.7055 279.798 21.7668 279.559 21.853C279.324 21.9392 279.135 22.0634 278.992 22.2259C278.853 22.3849 278.784 22.5971 278.784 22.8622C278.784 23.2301 278.919 23.5085 279.191 23.6974C279.463 23.883 279.809 23.9759 280.23 23.9759ZM285.656 25V17.3636H287.092V18.5767H287.172C287.311 18.1657 287.556 17.8426 287.908 17.6072C288.262 17.3686 288.663 17.2493 289.111 17.2493C289.204 17.2493 289.313 17.2526 289.439 17.2592C289.568 17.2659 289.669 17.2741 289.742 17.2841V18.706C289.683 18.6894 289.576 18.6712 289.424 18.6513C289.272 18.6281 289.119 18.6165 288.967 18.6165C288.615 18.6165 288.302 18.6911 288.027 18.8402C287.755 18.986 287.54 19.1899 287.381 19.4517C287.222 19.7102 287.142 20.0052 287.142 20.3366V25H285.656ZM291.029 25V17.3636H292.515V25H291.029ZM291.779 16.1854C291.521 16.1854 291.299 16.0992 291.113 15.9268C290.931 15.7512 290.84 15.5424 290.84 15.3004C290.84 15.0552 290.931 14.8464 291.113 14.674C291.299 14.4983 291.521 14.4105 291.779 14.4105C292.038 14.4105 292.258 14.4983 292.441 14.674C292.626 14.8464 292.719 15.0552 292.719 15.3004C292.719 15.5424 292.626 15.7512 292.441 15.9268C292.258 16.0992 292.038 16.1854 291.779 16.1854ZM297.732 25.1541C297.016 25.1541 296.391 24.9901 295.857 24.6619C295.324 24.3338 294.909 23.8748 294.614 23.2848C294.319 22.6948 294.172 22.0054 294.172 21.2166C294.172 20.4245 294.319 19.7318 294.614 19.1385C294.909 18.5452 295.324 18.0845 295.857 17.7564C296.391 17.4283 297.016 17.2642 297.732 17.2642C298.447 17.2642 299.072 17.4283 299.606 17.7564C300.139 18.0845 300.554 18.5452 300.849 19.1385C301.144 19.7318 301.291 20.4245 301.291 21.2166C301.291 22.0054 301.144 22.6948 300.849 23.2848C300.554 23.8748 300.139 24.3338 299.606 24.6619C299.072 24.9901 298.447 25.1541 297.732 25.1541ZM297.737 23.9062C298.201 23.9062 298.585 23.7836 298.89 23.5384C299.195 23.2931 299.42 22.9666 299.566 22.5589C299.715 22.1513 299.79 21.7022 299.79 21.2116C299.79 20.7244 299.715 20.277 299.566 19.8693C299.42 19.4583 299.195 19.1286 298.89 18.88C298.585 18.6314 298.201 18.5071 297.737 18.5071C297.269 18.5071 296.881 18.6314 296.573 18.88C296.268 19.1286 296.041 19.4583 295.892 19.8693C295.746 20.277 295.673 20.7244 295.673 21.2116C295.673 21.7022 295.746 22.1513 295.892 22.5589C296.041 22.9666 296.268 23.2931 296.573 23.5384C296.881 23.7836 297.269 23.9062 297.737 23.9062ZM308.673 19.228L307.325 19.4666C307.269 19.2943 307.18 19.1302 307.057 18.9744C306.938 18.8187 306.775 18.6911 306.57 18.5916C306.364 18.4922 306.107 18.4425 305.799 18.4425C305.378 18.4425 305.027 18.5369 304.745 18.7259C304.463 18.9115 304.323 19.1518 304.323 19.4467C304.323 19.7019 304.417 19.9074 304.606 20.0632C304.795 20.219 305.1 20.3466 305.521 20.446L306.734 20.7244C307.436 20.8868 307.96 21.1371 308.305 21.4751C308.65 21.8132 308.822 22.2524 308.822 22.7926C308.822 23.25 308.689 23.6577 308.424 24.0156C308.162 24.3703 307.796 24.6487 307.325 24.8509C306.858 25.053 306.316 25.1541 305.7 25.1541C304.845 25.1541 304.147 24.9718 303.607 24.6072C303.066 24.2393 302.735 23.7173 302.612 23.0412L304.049 22.8224C304.139 23.197 304.323 23.4804 304.601 23.6726C304.879 23.8615 305.242 23.956 305.69 23.956C306.177 23.956 306.566 23.8549 306.858 23.6527C307.15 23.4472 307.296 23.197 307.296 22.902C307.296 22.6634 307.206 22.4628 307.027 22.3004C306.852 22.138 306.581 22.0154 306.217 21.9325L304.924 21.6491C304.212 21.4867 303.685 21.2282 303.343 20.8736C303.005 20.5189 302.836 20.0698 302.836 19.5263C302.836 19.0755 302.962 18.6811 303.214 18.343C303.466 18.005 303.814 17.7415 304.258 17.5526C304.702 17.3603 305.211 17.2642 305.784 17.2642C306.61 17.2642 307.259 17.4432 307.733 17.8011C308.207 18.1558 308.52 18.6314 308.673 19.228Z" fill="#F59730"/>
<path d="M326.25 20.0674C326.583 20.2599 326.583 20.7401 326.25 20.9326L318 25.6963C317.667 25.8887 317.25 25.6476 317.25 25.2627L317.25 15.7373C317.25 15.3524 317.667 15.1113 318 15.3037L326.25 20.0674Z" stroke="#F59730" stroke-linejoin="round"/>
</svg>
