<svg xmlns="http://www.w3.org/2000/svg" width="474" height="43" fill="none" viewBox="0 0 474 43"><path fill="#f3727c" d="M26.05 18a6 6 0 0 0-.75-1.54 4.8 4.8 0 0 0-4.23-2.18 5.2 5.2 0 0 0-4.84 3.17 9 9 0 0 0-.75 3.82q0 2.27.76 3.83a5.5 5.5 0 0 0 2.05 2.36q1.3.8 2.91.8 1.5 0 2.65-.64a4.5 4.5 0 0 0 1.79-1.82q.64-1.2.64-2.79l.65.14h-5.25v-1.88h6.65v1.88q0 2.16-.92 3.75a6.4 6.4 0 0 1-2.52 2.47 7.6 7.6 0 0 1-3.69.87q-2.31 0-4.07-1.1a7.4 7.4 0 0 1-2.73-3.1 11 11 0 0 1-.97-4.77q0-2.07.56-3.72t1.58-2.83a7 7 0 0 1 2.42-1.8 7.5 7.5 0 0 1 3.08-.61q1.38 0 2.57.41A6.9 6.9 0 0 1 28.23 18zm10.94 12.27a5.7 5.7 0 0 1-3.1-.84 5.7 5.7 0 0 1-2.09-2.36 8 8 0 0 1-.74-3.55q0-2.04.74-3.57.75-1.52 2.08-2.37a5.7 5.7 0 0 1 3.11-.84q1.78 0 3.1.84 1.35.84 2.09 2.37a8 8 0 0 1 .75 3.57 8 8 0 0 1-.75 3.55 5.7 5.7 0 0 1-2.08 2.36q-1.33.84-3.1.84m0-1.8q1.35 0 2.22-.7.86-.68 1.29-1.81.42-1.12.42-2.44t-.42-2.44a4 4 0 0 0-1.29-1.84 3.4 3.4 0 0 0-2.22-.7q-1.35 0-2.21.7t-1.29 1.84a7 7 0 0 0-.42 2.44q0 1.32.42 2.44.42 1.13 1.29 1.82t2.21.69m15.08-14.05v-1.87h13.09v1.87h-5.5V30h-2.1V14.42zm19.5 15.85a5.7 5.7 0 0 1-3.12-.84 5.7 5.7 0 0 1-2.08-2.36 8 8 0 0 1-.74-3.55q0-2.04.75-3.57t2.07-2.37a5.7 5.7 0 0 1 3.12-.84q1.77 0 3.1.84t2.08 2.37a8 8 0 0 1 .75 3.57 8 8 0 0 1-.75 3.55 5.7 5.7 0 0 1-2.08 2.36q-1.33.84-3.1.84m0-1.8q1.35 0 2.21-.7.87-.68 1.29-1.81t.42-2.44-.42-2.44a4 4 0 0 0-1.29-1.84 3.4 3.4 0 0 0-2.21-.7q-1.35 0-2.22.7-.86.7-1.29 1.84a7 7 0 0 0-.42 2.44q0 1.32.42 2.44.42 1.13 1.29 1.82t2.22.69M88.3 30h-2.22l6.4-17.45h2.2l6.4 17.45h-2.22l-5.21-14.7h-.14zm.81-6.82h8.94v1.88h-8.94zm16.8-10.63V30h-2.11V12.55zm11 17.45V12.55h10.52v1.87h-8.42v5.9h7.88v1.87h-7.88v5.93h8.56V30zm19.76-13.1v1.71h-6.79v-1.7zm-4.81-3.13h2v12.48q.01.86.26 1.28t.64.56q.4.14.85.14.33 0 .54-.04l.34-.07.41 1.81a4 4 0 0 1-1.5.24q-.84 0-1.67-.37a3.3 3.3 0 0 1-1.34-1.11 3.2 3.2 0 0 1-.53-1.9zm10.12 8.36V30h-2V12.55h2v6.4h.17a3.7 3.7 0 0 1 1.38-1.6q.93-.61 2.48-.61 1.34 0 2.34.54 1 .53 1.56 1.62.56 1.1.56 2.78V30h-2.01v-8.18q0-1.57-.8-2.41a3 3 0 0 0-2.23-.86q-.99 0-1.78.41-.77.42-1.22 1.22t-.45 1.95M154.16 30V16.9h2.01V30zm1.02-15.27q-.59 0-1.01-.4a1.3 1.3 0 0 1-.42-.97q0-.56.42-.96t1.01-.4 1.01.4q.43.4.43.96 0 .57-.43.97-.42.4-1 .4m10 15.54a5.7 5.7 0 0 1-3.18-.87 5.7 5.7 0 0 1-2.04-2.4 8 8 0 0 1-.72-3.48q0-2 .74-3.52a5.54 5.54 0 0 1 5.16-3.26q1.38 0 2.49.51 1.1.51 1.81 1.43.72.93.88 2.15h-2q-.24-.9-1.03-1.59a3 3 0 0 0-2.11-.7q-1.19 0-2.07.62a4 4 0 0 0-1.37 1.71q-.49 1.11-.49 2.58 0 1.53.48 2.65.49 1.13 1.37 1.74.88.63 2.08.63.79 0 1.42-.28a3 3 0 0 0 1.71-2h2.01a4.7 4.7 0 0 1-2.6 3.55q-1.1.53-2.54.53m17.36-10.43-1.81.51q-.17-.46-.5-.88a2.4 2.4 0 0 0-.9-.71 3 3 0 0 0-1.43-.28q-1.2 0-2 .55-.8.54-.8 1.39 0 .75.55 1.19.54.43 1.7.72l1.95.48q1.75.43 2.61 1.3.87.87.86 2.24 0 1.13-.64 2.01a4.3 4.3 0 0 1-1.8 1.4q-1.14.51-2.67.51a6 6 0 0 1-3.31-.87 3.9 3.9 0 0 1-1.67-2.54l1.91-.47q.28 1.05 1.03 1.58.77.53 2 .53 1.41 0 2.24-.6t.83-1.45q0-.67-.47-1.14t-1.47-.7l-2.18-.5a5 5 0 0 1-2.64-1.33 3.2 3.2 0 0 1-.84-2.26q0-1.1.62-1.96.63-.85 1.72-1.34a6 6 0 0 1 2.47-.48q1.94 0 3.05.85a4.6 4.6 0 0 1 1.59 2.25M206.87 18h-2.11a4.4 4.4 0 0 0-1.78-2.76 5 5 0 0 0-1.46-.72 6 6 0 0 0-1.67-.24q-1.6 0-2.87.8a5.6 5.6 0 0 0-2.04 2.37 9 9 0 0 0-.75 3.82q0 2.27.75 3.83a5.6 5.6 0 0 0 2.03 2.36q1.29.8 2.88.8.87 0 1.67-.24.8-.25 1.45-.7a4.5 4.5 0 0 0 1.79-2.77h2.11q-.24 1.34-.87 2.39a6.6 6.6 0 0 1-3.67 2.92q-1.16.38-2.48.38a7.3 7.3 0 0 1-3.97-1.1 7.5 7.5 0 0 1-2.74-3.1q-1-2.01-1-4.77t1-4.77a7.5 7.5 0 0 1 2.74-3.1 7.3 7.3 0 0 1 3.97-1.1q1.31 0 2.48.39a6.8 6.8 0 0 1 3.67 2.92q.63 1.05.87 2.39m8.46 12.27a5.7 5.7 0 0 1-3.11-.84 5.7 5.7 0 0 1-2.08-2.36 8 8 0 0 1-.74-3.55q0-2.04.74-3.57.75-1.52 2.08-2.37a5.7 5.7 0 0 1 3.11-.84q1.78 0 3.1.84 1.35.84 2.08 2.37a8 8 0 0 1 .75 3.57 8 8 0 0 1-.75 3.55 5.7 5.7 0 0 1-2.08 2.36q-1.32.84-3.1.84m0-1.8q1.35 0 2.22-.7.87-.68 1.28-1.81t.42-2.44-.42-2.44a4 4 0 0 0-1.28-1.84 3.4 3.4 0 0 0-2.22-.7q-1.35 0-2.22.7-.86.7-1.28 1.84a7 7 0 0 0-.42 2.44q0 1.32.42 2.44.41 1.13 1.28 1.82t2.22.69m16.5-6.89v1.87h-7.63v-1.87zM249.7 18h-2.11a4.4 4.4 0 0 0-1.79-2.76 5 5 0 0 0-1.45-.72 6 6 0 0 0-1.67-.24q-1.6 0-2.87.8a5.6 5.6 0 0 0-2.04 2.37 9 9 0 0 0-.75 3.82q0 2.27.75 3.83a5.6 5.6 0 0 0 2.03 2.36q1.29.8 2.88.8.87 0 1.67-.24.8-.25 1.45-.7a4.5 4.5 0 0 0 1.79-2.77h2.11q-.24 1.34-.87 2.39a6.5 6.5 0 0 1-3.67 2.92q-1.16.38-2.48.38a7.3 7.3 0 0 1-3.97-1.1 7.5 7.5 0 0 1-2.74-3.1q-1-2.01-1-4.77t1-4.77a7.5 7.5 0 0 1 2.74-3.1 7.3 7.3 0 0 1 3.97-1.1q1.31 0 2.48.39a6.8 6.8 0 0 1 3.67 2.92q.63 1.05.87 2.39m3.14 12V16.9h1.95v1.99h.13q.36-.98 1.3-1.58t2.11-.6l1.06.03v2.04a6 6 0 0 0-1.23-.13q-.95 0-1.7.4-.75.39-1.18 1.09-.43.68-.43 1.58V30zm14.02.27a6 6 0 0 1-3.26-.83 5.6 5.6 0 0 1-2.1-2.35 8 8 0 0 1-.74-3.53q0-2.02.73-3.55a5.54 5.54 0 0 1 5.16-3.27q1.03 0 2.03.34a5 5 0 0 1 3.12 3.12q.48 1.25.48 3.08v.86h-10.09V22.4h8.05q0-1.11-.44-1.98a3.3 3.3 0 0 0-3.14-1.87q-1.2 0-2.08.6-.87.58-1.34 1.53a4.5 4.5 0 0 0-.47 2.02v1.16q0 1.5.51 2.52.52 1.02 1.44 1.56.93.53 2.14.53.79 0 1.44-.23t1.11-.68q.47-.45.73-1.14l1.94.55q-.3.99-1.03 1.73-.73.75-1.8 1.16-1.05.41-2.39.41m12.33.04q-1.24 0-2.25-.47a4 4 0 0 1-1.61-1.37q-.6-.9-.6-2.19 0-1.12.44-1.82.45-.7 1.19-1.1.75-.4 1.63-.6.9-.21 1.82-.33l1.93-.23q.75-.09 1.1-.28.34-.2.34-.68v-.07q0-1.27-.69-1.96-.68-.7-2.07-.7-1.44 0-2.26.63-.8.63-1.15 1.35l-1.9-.68a4.6 4.6 0 0 1 3.23-2.8 8 8 0 0 1 3.46-.12q.83.15 1.6.6.77.47 1.28 1.4t.51 2.48V30h-2v-1.77h-.1q-.21.43-.69.9-.48.49-1.27.84-.79.33-1.94.34m.31-1.81a4 4 0 0 0 2.01-.47 3.2 3.2 0 0 0 1.67-2.77v-1.84q-.12.16-.56.28-.42.12-.99.21a45 45 0 0 1-1.92.26q-.79.1-1.47.33t-1.09.68q-.4.45-.4 1.2 0 1.05.77 1.6.78.51 1.98.52m15.06-11.6v1.71h-6.78v-1.7zm-4.8-3.13h2v12.48q0 .86.25 1.28.26.42.65.56.4.14.84.14.33 0 .55-.04l.34-.07.4 1.81a4 4 0 0 1-1.5.24q-.85 0-1.66-.37a3.3 3.3 0 0 1-1.35-1.11 3.2 3.2 0 0 1-.53-1.9zM297.56 30V16.9h2.02V30zm1.03-15.27q-.6 0-1.02-.4a1.3 1.3 0 0 1-.41-.97q0-.56.41-.96.44-.4 1.02-.4t1 .4.43.96-.43.97-1 .4m9.99 15.54a5.7 5.7 0 0 1-3.11-.84 6 6 0 0 1-2.08-2.36 8 8 0 0 1-.74-3.55q0-2.04.74-3.57.75-1.52 2.08-2.37a5.7 5.7 0 0 1 3.1-.84q1.8 0 3.11.84 1.35.84 2.08 2.37a8 8 0 0 1 .75 3.57 8 8 0 0 1-.75 3.55 5.7 5.7 0 0 1-2.08 2.36q-1.32.84-3.1.84m0-1.8q1.35 0 2.22-.7.86-.68 1.28-1.81t.42-2.44-.42-2.44a4 4 0 0 0-1.28-1.84 3.4 3.4 0 0 0-2.22-.7q-1.35 0-2.22.7t-1.28 1.84a7 7 0 0 0-.42 2.44q0 1.32.42 2.44.4 1.13 1.28 1.82.87.69 2.22.69m11.01-6.34V30h-2V16.9h1.93v2.05h.18q.45-1 1.4-1.6.93-.6 2.41-.61 1.34 0 2.33.54 1 .54 1.55 1.64.56 1.1.56 2.76V30h-2.02v-8.18a3.4 3.4 0 0 0-.8-2.4 2.8 2.8 0 0 0-2.2-.87 3.5 3.5 0 0 0-1.72.41q-.75.42-1.18 1.22a4 4 0 0 0-.44 1.95M339.37 30h-2.22l6.41-17.45h2.18L352.15 30h-2.21l-5.22-14.7h-.14zm.82-6.82h8.93v1.88h-8.93zm19.73 7.1a5.7 5.7 0 0 1-3.17-.88 5.7 5.7 0 0 1-2.05-2.4 8 8 0 0 1-.71-3.48q0-2 .73-3.52a5.54 5.54 0 0 1 5.16-3.26q1.38 0 2.5.51 1.1.51 1.8 1.43.72.93.88 2.15h-2q-.24-.9-1.03-1.59a3 3 0 0 0-2.11-.7q-1.19 0-2.07.62a4 4 0 0 0-1.37 1.71q-.48 1.11-.48 2.58 0 1.53.47 2.65.49 1.13 1.37 1.74.88.63 2.08.63.79 0 1.42-.28a3 3 0 0 0 1.71-2h2.01a4.7 4.7 0 0 1-2.6 3.55q-1.1.53-2.54.53M373.7 16.9v1.7h-6.79v-1.7zm-4.8-3.14h2v12.48q0 .86.25 1.28.26.42.65.56.4.14.84.14.33 0 .55-.04l.34-.07.4 1.81a4 4 0 0 1-1.5.24q-.85 0-1.66-.37a3.3 3.3 0 0 1-1.35-1.11 3.2 3.2 0 0 1-.53-1.9zM376.71 30V16.9h2.01V30zm1.03-15.27q-.6 0-1.02-.4a1.3 1.3 0 0 1-.42-.97q0-.56.42-.96.43-.4 1.02-.4.58 0 1 .4t.43.96-.43.97-1 .4m15.37 2.18L388.28 30h-2.04l-4.84-13.1h2.18l3.61 10.44h.14l3.61-10.43zM395.78 30V16.9h2.01V30zm1.02-15.27q-.6 0-1.01-.4a1.3 1.3 0 0 1-.42-.97q0-.56.42-.96t1.01-.4 1 .4q.44.4.43.96 0 .57-.42.97t-1 .4m10.37 2.18v1.7h-6.79v-1.7zm-4.81-3.14h2.01v12.48q0 .86.25 1.28t.65.56.84.14q.33 0 .55-.04l.34-.07.4 1.81a4 4 0 0 1-1.5.24q-.84 0-1.66-.37a3.3 3.3 0 0 1-1.35-1.11 3.2 3.2 0 0 1-.53-1.9zM410.19 30V16.9h2.01V30zm1.02-15.27q-.58 0-1-.4a1.3 1.3 0 0 1-.43-.97q0-.56.42-.96.43-.4 1.01-.4.6 0 1.01.4t.43.96q0 .57-.43.97-.42.4-1 .4m10.17 15.54a6 6 0 0 1-3.27-.83 5.6 5.6 0 0 1-2.1-2.35 8 8 0 0 1-.74-3.53q0-2.02.74-3.55a5.54 5.54 0 0 1 5.17-3.27q1.01 0 2.01.34a5 5 0 0 1 3.12 3.12q.49 1.25.49 3.08v.86h-10.1V22.4h8.05q0-1.11-.44-1.98a3.3 3.3 0 0 0-3.14-1.87q-1.2 0-2.08.6-.87.58-1.34 1.53-.46.94-.46 2.02v1.16q0 1.5.5 2.52.52 1.02 1.45 1.56.91.53 2.14.53.78 0 1.43-.23t1.12-.68q.46-.45.72-1.14l1.94.55a4 4 0 0 1-1.03 1.73q-.72.75-1.79 1.16-1.05.41-2.4.41m17.75-10.43-1.8.51q-.18-.46-.51-.88a2.4 2.4 0 0 0-.89-.71 3 3 0 0 0-1.44-.28q-1.2 0-2 .55-.8.54-.8 1.39 0 .75.55 1.19.56.43 1.7.72l1.95.48q1.75.43 2.62 1.3.86.87.86 2.24 0 1.13-.65 2.01a4.3 4.3 0 0 1-1.79 1.4q-1.15.51-2.68.51a6 6 0 0 1-3.31-.87 3.9 3.9 0 0 1-1.66-2.54l1.9-.47q.28 1.05 1.04 1.58t2 .53q1.4 0 2.23-.6t.84-1.45q0-.67-.48-1.14-.47-.46-1.46-.7l-2.19-.5a5 5 0 0 1-2.64-1.33 3.2 3.2 0 0 1-.83-2.26q0-1.1.62-1.96.63-.85 1.71-1.34a6 6 0 0 1 2.47-.48q1.94 0 3.05.85a4.6 4.6 0 0 1 1.59 2.25"/><rect width="473" height="39" x=".5" y="2.5" stroke="#f3727c" rx="3.5"/><path stroke="#f3727c" d="M460.75 21.2c1 .58 1 2.02 0 2.6L451 29.43a1.5 1.5 0 0 1-2.25-1.3V16.87a1.5 1.5 0 0 1 2.06-1.4l.19.1z"/></svg>