<svg width="474" height="43" viewBox="0 0 474 43" fill="none" xmlns="http://www.w3.org/2000/svg">
<path d="M26.0455 18C25.858 17.4261 25.6108 16.9119 25.304 16.4574C25.0028 15.9972 24.642 15.6051 24.2216 15.2812C23.8068 14.9574 23.3352 14.7102 22.8068 14.5398C22.2784 14.3693 21.6989 14.2841 21.0682 14.2841C20.0341 14.2841 19.0938 14.5511 18.2472 15.0852C17.4006 15.6193 16.7273 16.4062 16.2273 17.446C15.7273 18.4858 15.4773 19.7614 15.4773 21.2727C15.4773 22.7841 15.7301 24.0597 16.2358 25.0994C16.7415 26.1392 17.4261 26.9261 18.2898 27.4602C19.1534 27.9943 20.125 28.2614 21.2045 28.2614C22.2045 28.2614 23.0852 28.0483 23.8466 27.6222C24.6136 27.1903 25.2102 26.5824 25.6364 25.7983C26.0682 25.0085 26.2841 24.0795 26.2841 23.0114L26.9318 23.1477H21.6818V21.2727H28.3295V23.1477C28.3295 24.5852 28.0227 25.8352 27.4091 26.8977C26.8011 27.9602 25.9602 28.7841 24.8864 29.3693C23.8182 29.9489 22.5909 30.2386 21.2045 30.2386C19.6591 30.2386 18.3011 29.875 17.1307 29.1477C15.9659 28.4205 15.0568 27.3864 14.4034 26.0455C13.7557 24.7045 13.4318 23.1136 13.4318 21.2727C13.4318 19.892 13.6165 18.6506 13.9858 17.5483C14.3608 16.4403 14.8892 15.4972 15.571 14.7188C16.2528 13.9403 17.0597 13.3438 17.9915 12.929C18.9233 12.5142 19.9489 12.3068 21.0682 12.3068C21.9886 12.3068 22.8466 12.446 23.642 12.7244C24.4432 12.9972 25.1562 13.3864 25.7812 13.892C26.4119 14.392 26.9375 14.9915 27.358 15.6903C27.7784 16.3835 28.0682 17.1534 28.2273 18H26.0455ZM36.995 30.2727C35.8132 30.2727 34.7763 29.9915 33.8842 29.429C32.9979 28.8665 32.3047 28.0795 31.8047 27.0682C31.3104 26.0568 31.0632 24.875 31.0632 23.5227C31.0632 22.1591 31.3104 20.9687 31.8047 19.9517C32.3047 18.9347 32.9979 18.1449 33.8842 17.5824C34.7763 17.0199 35.8132 16.7386 36.995 16.7386C38.1768 16.7386 39.2109 17.0199 40.0973 17.5824C40.9893 18.1449 41.6825 18.9347 42.1768 19.9517C42.6768 20.9687 42.9268 22.1591 42.9268 23.5227C42.9268 24.875 42.6768 26.0568 42.1768 27.0682C41.6825 28.0795 40.9893 28.8665 40.0973 29.429C39.2109 29.9915 38.1768 30.2727 36.995 30.2727ZM36.995 28.4659C37.8928 28.4659 38.6314 28.2358 39.2109 27.7756C39.7905 27.3153 40.2195 26.7102 40.4979 25.9602C40.7763 25.2102 40.9155 24.3977 40.9155 23.5227C40.9155 22.6477 40.7763 21.8324 40.4979 21.0767C40.2195 20.321 39.7905 19.7102 39.2109 19.2443C38.6314 18.7784 37.8928 18.5455 36.995 18.5455C36.0973 18.5455 35.3587 18.7784 34.7791 19.2443C34.1996 19.7102 33.7706 20.321 33.4922 21.0767C33.2138 21.8324 33.0746 22.6477 33.0746 23.5227C33.0746 24.3977 33.2138 25.2102 33.4922 25.9602C33.7706 26.7102 34.1996 27.3153 34.7791 27.7756C35.3587 28.2358 36.0973 28.4659 36.995 28.4659ZM52.0653 14.4205V12.5455H65.1562V14.4205H59.6676V30H57.554V14.4205H52.0653ZM71.5653 30.2727C70.3835 30.2727 69.3466 29.9915 68.4545 29.429C67.5682 28.8665 66.875 28.0795 66.375 27.0682C65.8807 26.0568 65.6335 24.875 65.6335 23.5227C65.6335 22.1591 65.8807 20.9687 66.375 19.9517C66.875 18.9347 67.5682 18.1449 68.4545 17.5824C69.3466 17.0199 70.3835 16.7386 71.5653 16.7386C72.7472 16.7386 73.7813 17.0199 74.6676 17.5824C75.5597 18.1449 76.2528 18.9347 76.7472 19.9517C77.2472 20.9687 77.4972 22.1591 77.4972 23.5227C77.4972 24.875 77.2472 26.0568 76.7472 27.0682C76.2528 28.0795 75.5597 28.8665 74.6676 29.429C73.7813 29.9915 72.7472 30.2727 71.5653 30.2727ZM71.5653 28.4659C72.4631 28.4659 73.2017 28.2358 73.7812 27.7756C74.3608 27.3153 74.7898 26.7102 75.0682 25.9602C75.3466 25.2102 75.4858 24.3977 75.4858 23.5227C75.4858 22.6477 75.3466 21.8324 75.0682 21.0767C74.7898 20.321 74.3608 19.7102 73.7812 19.2443C73.2017 18.7784 72.4631 18.5455 71.5653 18.5455C70.6676 18.5455 69.929 18.7784 69.3494 19.2443C68.7699 19.7102 68.3409 20.321 68.0625 21.0767C67.7841 21.8324 67.6449 22.6477 67.6449 23.5227C67.6449 24.3977 67.7841 25.2102 68.0625 25.9602C68.3409 26.7102 68.7699 27.3153 69.3494 27.7756C69.929 28.2358 70.6676 28.4659 71.5653 28.4659ZM88.3061 30H86.0902L92.4993 12.5455H94.6811L101.09 30H98.8743L93.6584 15.3068H93.522L88.3061 30ZM89.1243 23.1818H98.0561V25.0568H89.1243V23.1818ZM105.923 12.5455V30H103.809V12.5455H105.923ZM116.911 30V12.5455H127.445V14.4205H119.024V20.3182H126.899V22.1932H119.024V28.125H127.581V30H116.911ZM136.675 16.9091V18.6136H129.891V16.9091H136.675ZM131.868 13.7727H133.879V26.25C133.879 26.8182 133.962 27.2443 134.126 27.5284C134.297 27.8068 134.513 27.9943 134.774 28.0909C135.041 28.1818 135.322 28.2273 135.618 28.2273C135.839 28.2273 136.021 28.2159 136.163 28.1932C136.305 28.1648 136.419 28.142 136.504 28.125L136.913 29.9318C136.777 29.983 136.587 30.0341 136.342 30.0852C136.098 30.142 135.788 30.1705 135.413 30.1705C134.845 30.1705 134.288 30.0483 133.743 29.804C133.203 29.5597 132.754 29.1875 132.396 28.6875C132.044 28.1875 131.868 27.5568 131.868 26.7955V13.7727ZM141.993 22.125V30H139.982V12.5455H141.993V18.9545H142.163C142.47 18.2784 142.93 17.7415 143.544 17.3438C144.163 16.9403 144.987 16.7386 146.016 16.7386C146.908 16.7386 147.689 16.9176 148.359 17.2756C149.03 17.6278 149.55 18.1705 149.919 18.9034C150.294 19.6307 150.482 20.5568 150.482 21.6818V30H148.47V21.8182C148.47 20.7784 148.2 19.9744 147.661 19.4062C147.126 18.8324 146.385 18.5455 145.436 18.5455C144.777 18.5455 144.186 18.6847 143.663 18.9631C143.146 19.2415 142.737 19.6477 142.436 20.1818C142.141 20.7159 141.993 21.3636 141.993 22.125ZM154.161 30V16.9091H156.173V30H154.161ZM155.184 14.7273C154.792 14.7273 154.454 14.5938 154.17 14.3267C153.891 14.0597 153.752 13.7386 153.752 13.3636C153.752 12.9886 153.891 12.6676 154.17 12.4006C154.454 12.1335 154.792 12 155.184 12C155.576 12 155.911 12.1335 156.19 12.4006C156.474 12.6676 156.616 12.9886 156.616 13.3636C156.616 13.7386 156.474 14.0597 156.19 14.3267C155.911 14.5938 155.576 14.7273 155.184 14.7273ZM165.175 30.2727C163.947 30.2727 162.891 29.983 162.004 29.4034C161.118 28.8239 160.436 28.0256 159.959 27.0085C159.482 25.9915 159.243 24.8295 159.243 23.5227C159.243 22.1932 159.487 21.0199 159.976 20.0028C160.47 18.9801 161.158 18.1818 162.038 17.608C162.925 17.0284 163.959 16.7386 165.141 16.7386C166.061 16.7386 166.891 16.9091 167.629 17.25C168.368 17.5909 168.973 18.0682 169.445 18.6818C169.916 19.2955 170.209 20.0114 170.322 20.8295H168.311C168.158 20.233 167.817 19.7045 167.288 19.2443C166.766 18.7784 166.061 18.5455 165.175 18.5455C164.391 18.5455 163.703 18.75 163.112 19.1591C162.527 19.5625 162.07 20.1335 161.74 20.8722C161.416 21.6051 161.254 22.4659 161.254 23.4545C161.254 24.4659 161.413 25.3466 161.732 26.0966C162.055 26.8466 162.51 27.429 163.095 27.8438C163.686 28.2585 164.379 28.4659 165.175 28.4659C165.697 28.4659 166.172 28.375 166.598 28.1932C167.024 28.0114 167.385 27.75 167.68 27.4091C167.976 27.0682 168.186 26.6591 168.311 26.1818H170.322C170.209 26.9545 169.928 27.6506 169.479 28.2699C169.036 28.8835 168.447 29.3722 167.714 29.7358C166.987 30.0938 166.141 30.2727 165.175 30.2727ZM182.536 19.8409L180.729 20.3523C180.615 20.0511 180.447 19.7585 180.226 19.4744C180.01 19.1847 179.714 18.946 179.339 18.7585C178.964 18.571 178.484 18.4773 177.899 18.4773C177.098 18.4773 176.43 18.6619 175.896 19.0312C175.368 19.3949 175.104 19.858 175.104 20.4205C175.104 20.9205 175.286 21.3153 175.649 21.6051C176.013 21.8949 176.581 22.1364 177.354 22.3295L179.297 22.8068C180.467 23.0909 181.339 23.5256 181.913 24.1108C182.487 24.6903 182.774 25.4375 182.774 26.3523C182.774 27.1023 182.558 27.7727 182.126 28.3636C181.7 28.9545 181.104 29.4205 180.337 29.7614C179.57 30.1023 178.678 30.2727 177.661 30.2727C176.325 30.2727 175.22 29.983 174.345 29.4034C173.47 28.8239 172.916 27.9773 172.683 26.8636L174.592 26.3864C174.774 27.0909 175.118 27.6193 175.624 27.9716C176.135 28.3239 176.803 28.5 177.626 28.5C178.564 28.5 179.308 28.3011 179.859 27.9034C180.416 27.5 180.695 27.017 180.695 26.4545C180.695 26 180.536 25.6193 180.217 25.3125C179.899 25 179.411 24.767 178.751 24.6136L176.57 24.1023C175.371 23.8182 174.49 23.3778 173.928 22.7812C173.371 22.179 173.092 21.4261 173.092 20.5227C173.092 19.7841 173.3 19.1307 173.714 18.5625C174.135 17.9943 174.706 17.5483 175.428 17.2244C176.155 16.9006 176.979 16.7386 177.899 16.7386C179.195 16.7386 180.212 17.0227 180.95 17.5909C181.695 18.1591 182.223 18.9091 182.536 19.8409ZM206.87 18H204.756C204.631 17.392 204.413 16.858 204.1 16.3977C203.793 15.9375 203.418 15.5511 202.975 15.2386C202.538 14.9205 202.052 14.6818 201.518 14.5227C200.984 14.3636 200.427 14.2841 199.847 14.2841C198.79 14.2841 197.833 14.5511 196.975 15.0852C196.123 15.6193 195.444 16.4062 194.938 17.446C194.438 18.4858 194.188 19.7614 194.188 21.2727C194.188 22.7841 194.438 24.0597 194.938 25.0994C195.444 26.1392 196.123 26.9261 196.975 27.4602C197.833 27.9943 198.79 28.2614 199.847 28.2614C200.427 28.2614 200.984 28.1818 201.518 28.0227C202.052 27.8636 202.538 27.6278 202.975 27.3153C203.418 26.9972 203.793 26.608 204.1 26.1477C204.413 25.6818 204.631 25.1477 204.756 24.5455H206.87C206.711 25.4375 206.421 26.2358 206.001 26.9403C205.58 27.6449 205.058 28.2443 204.433 28.7386C203.808 29.2273 203.106 29.5994 202.327 29.8551C201.555 30.1108 200.728 30.2386 199.847 30.2386C198.359 30.2386 197.035 29.875 195.876 29.1477C194.717 28.4205 193.805 27.3864 193.14 26.0455C192.475 24.7045 192.143 23.1136 192.143 21.2727C192.143 19.4318 192.475 17.8409 193.14 16.5C193.805 15.1591 194.717 14.125 195.876 13.3977C197.035 12.6705 198.359 12.3068 199.847 12.3068C200.728 12.3068 201.555 12.4347 202.327 12.6903C203.106 12.946 203.808 13.321 204.433 13.8153C205.058 14.304 205.58 14.9006 206.001 15.6051C206.421 16.304 206.711 17.1023 206.87 18ZM215.331 30.2727C214.149 30.2727 213.112 29.9915 212.22 29.429C211.334 28.8665 210.641 28.0795 210.141 27.0682C209.646 26.0568 209.399 24.875 209.399 23.5227C209.399 22.1591 209.646 20.9687 210.141 19.9517C210.641 18.9347 211.334 18.1449 212.22 17.5824C213.112 17.0199 214.149 16.7386 215.331 16.7386C216.513 16.7386 217.547 17.0199 218.433 17.5824C219.325 18.1449 220.018 18.9347 220.513 19.9517C221.013 20.9687 221.263 22.1591 221.263 23.5227C221.263 24.875 221.013 26.0568 220.513 27.0682C220.018 28.0795 219.325 28.8665 218.433 29.429C217.547 29.9915 216.513 30.2727 215.331 30.2727ZM215.331 28.4659C216.229 28.4659 216.967 28.2358 217.547 27.7756C218.126 27.3153 218.555 26.7102 218.834 25.9602C219.112 25.2102 219.251 24.3977 219.251 23.5227C219.251 22.6477 219.112 21.8324 218.834 21.0767C218.555 20.321 218.126 19.7102 217.547 19.2443C216.967 18.7784 216.229 18.5455 215.331 18.5455C214.433 18.5455 213.695 18.7784 213.115 19.2443C212.536 19.7102 212.107 20.321 211.828 21.0767C211.55 21.8324 211.411 22.6477 211.411 23.5227C211.411 24.3977 211.55 25.2102 211.828 25.9602C212.107 26.7102 212.536 27.3153 213.115 27.7756C213.695 28.2358 214.433 28.4659 215.331 28.4659ZM231.833 21.5795V23.4545H224.197V21.5795H231.833ZM249.69 18H247.577C247.452 17.392 247.233 16.858 246.92 16.3977C246.614 15.9375 246.239 15.5511 245.795 15.2386C245.358 14.9205 244.872 14.6818 244.338 14.5227C243.804 14.3636 243.247 14.2841 242.668 14.2841C241.611 14.2841 240.653 14.5511 239.795 15.0852C238.943 15.6193 238.264 16.4062 237.759 17.446C237.259 18.4858 237.009 19.7614 237.009 21.2727C237.009 22.7841 237.259 24.0597 237.759 25.0994C238.264 26.1392 238.943 26.9261 239.795 27.4602C240.653 27.9943 241.611 28.2614 242.668 28.2614C243.247 28.2614 243.804 28.1818 244.338 28.0227C244.872 27.8636 245.358 27.6278 245.795 27.3153C246.239 26.9972 246.614 26.608 246.92 26.1477C247.233 25.6818 247.452 25.1477 247.577 24.5455H249.69C249.531 25.4375 249.241 26.2358 248.821 26.9403C248.401 27.6449 247.878 28.2443 247.253 28.7386C246.628 29.2273 245.926 29.5994 245.148 29.8551C244.375 30.1108 243.548 30.2386 242.668 30.2386C241.179 30.2386 239.855 29.875 238.696 29.1477C237.537 28.4205 236.625 27.3864 235.96 26.0455C235.295 24.7045 234.963 23.1136 234.963 21.2727C234.963 19.4318 235.295 17.8409 235.96 16.5C236.625 15.1591 237.537 14.125 238.696 13.3977C239.855 12.6705 241.179 12.3068 242.668 12.3068C243.548 12.3068 244.375 12.4347 245.148 12.6903C245.926 12.946 246.628 13.321 247.253 13.8153C247.878 14.304 248.401 14.9006 248.821 15.6051C249.241 16.304 249.531 17.1023 249.69 18ZM252.833 30V16.9091H254.776V18.8864H254.913C255.151 18.2386 255.583 17.7131 256.208 17.3097C256.833 16.9062 257.538 16.7045 258.322 16.7045C258.469 16.7045 258.654 16.7074 258.876 16.7131C259.097 16.7187 259.265 16.7273 259.379 16.7386V18.7841C259.31 18.767 259.154 18.7415 258.91 18.7074C258.671 18.6676 258.418 18.6477 258.151 18.6477C257.515 18.6477 256.947 18.7812 256.447 19.0483C255.952 19.3097 255.56 19.6733 255.271 20.1392C254.987 20.5994 254.844 21.125 254.844 21.7159V30H252.833ZM266.853 30.2727C265.592 30.2727 264.504 29.9943 263.589 29.4375C262.68 28.875 261.978 28.0909 261.484 27.0852C260.995 26.0739 260.751 24.8977 260.751 23.5568C260.751 22.2159 260.995 21.0341 261.484 20.0114C261.978 18.983 262.665 18.1818 263.546 17.608C264.433 17.0284 265.467 16.7386 266.648 16.7386C267.33 16.7386 268.004 16.8523 268.668 17.0795C269.333 17.3068 269.938 17.6761 270.484 18.1875C271.029 18.6932 271.464 19.3636 271.788 20.1989C272.112 21.0341 272.273 22.0625 272.273 23.2841V24.1364H262.183V22.3977H270.228C270.228 21.6591 270.08 21 269.785 20.4205C269.495 19.8409 269.08 19.3835 268.54 19.0483C268.006 18.7131 267.376 18.5455 266.648 18.5455C265.847 18.5455 265.154 18.7443 264.569 19.142C263.989 19.5341 263.543 20.0455 263.231 20.6761C262.918 21.3068 262.762 21.983 262.762 22.7045V23.8636C262.762 24.8523 262.933 25.6903 263.273 26.3778C263.62 27.0597 264.1 27.5795 264.714 27.9375C265.327 28.2898 266.04 28.4659 266.853 28.4659C267.381 28.4659 267.859 28.392 268.285 28.2443C268.717 28.0909 269.089 27.8636 269.401 27.5625C269.714 27.2557 269.955 26.875 270.126 26.4205L272.069 26.9659C271.864 27.625 271.521 28.2045 271.038 28.7045C270.555 29.1989 269.958 29.5852 269.248 29.8636C268.538 30.1364 267.739 30.2727 266.853 30.2727ZM279.185 30.3068C278.356 30.3068 277.603 30.1506 276.927 29.8381C276.251 29.5199 275.714 29.0625 275.316 28.4659C274.918 27.8636 274.719 27.1364 274.719 26.2841C274.719 25.5341 274.867 24.9261 275.163 24.4602C275.458 23.9886 275.853 23.6193 276.347 23.3523C276.842 23.0852 277.387 22.8864 277.984 22.7557C278.586 22.6193 279.191 22.5114 279.799 22.4318C280.594 22.3295 281.239 22.2528 281.734 22.2017C282.234 22.1449 282.597 22.0511 282.825 21.9205C283.058 21.7898 283.174 21.5625 283.174 21.2386V21.1705C283.174 20.3295 282.944 19.6761 282.484 19.2102C282.029 18.7443 281.339 18.5114 280.413 18.5114C279.452 18.5114 278.7 18.7216 278.154 19.142C277.609 19.5625 277.225 20.0114 277.004 20.4886L275.094 19.8068C275.435 19.0114 275.89 18.392 276.458 17.9489C277.032 17.5 277.657 17.1875 278.333 17.0114C279.015 16.8295 279.685 16.7386 280.344 16.7386C280.765 16.7386 281.248 16.7898 281.793 16.892C282.344 16.9886 282.876 17.1903 283.387 17.4972C283.904 17.804 284.333 18.267 284.674 18.8864C285.015 19.5057 285.185 20.3352 285.185 21.375V30H283.174V28.2273H283.072C282.935 28.5114 282.708 28.8153 282.39 29.1392C282.072 29.4631 281.648 29.7386 281.12 29.9659C280.592 30.1932 279.947 30.3068 279.185 30.3068ZM279.492 28.5C280.288 28.5 280.958 28.3438 281.504 28.0312C282.055 27.7188 282.469 27.3153 282.748 26.821C283.032 26.3267 283.174 25.8068 283.174 25.2614V23.4205C283.089 23.5227 282.901 23.6165 282.612 23.7017C282.327 23.7812 281.998 23.8523 281.623 23.9148C281.254 23.9716 280.893 24.0227 280.54 24.0682C280.194 24.108 279.913 24.142 279.697 24.1705C279.174 24.2386 278.685 24.3494 278.231 24.5028C277.782 24.6506 277.418 24.875 277.14 25.1761C276.867 25.4716 276.731 25.875 276.731 26.3864C276.731 27.0852 276.989 27.6136 277.506 27.9716C278.029 28.3239 278.691 28.5 279.492 28.5ZM294.55 16.9091V18.6136H287.766V16.9091H294.55ZM289.743 13.7727H291.754V26.25C291.754 26.8182 291.837 27.2443 292.001 27.5284C292.172 27.8068 292.388 27.9943 292.649 28.0909C292.916 28.1818 293.197 28.2273 293.493 28.2273C293.714 28.2273 293.896 28.2159 294.038 28.1932C294.18 28.1648 294.294 28.142 294.379 28.125L294.788 29.9318C294.652 29.983 294.462 30.0341 294.217 30.0852C293.973 30.142 293.663 30.1705 293.288 30.1705C292.72 30.1705 292.163 30.0483 291.618 29.804C291.078 29.5597 290.629 29.1875 290.271 28.6875C289.919 28.1875 289.743 27.5568 289.743 26.7955V13.7727ZM297.575 30V16.9091H299.587V30H297.575ZM298.598 14.7273C298.206 14.7273 297.868 14.5938 297.584 14.3267C297.305 14.0597 297.166 13.7386 297.166 13.3636C297.166 12.9886 297.305 12.6676 297.584 12.4006C297.868 12.1335 298.206 12 298.598 12C298.99 12 299.325 12.1335 299.604 12.4006C299.888 12.6676 300.03 12.9886 300.03 13.3636C300.03 13.7386 299.888 14.0597 299.604 14.3267C299.325 14.5938 298.99 14.7273 298.598 14.7273ZM308.589 30.2727C307.407 30.2727 306.37 29.9915 305.478 29.429C304.592 28.8665 303.898 28.0795 303.398 27.0682C302.904 26.0568 302.657 24.875 302.657 23.5227C302.657 22.1591 302.904 20.9687 303.398 19.9517C303.898 18.9347 304.592 18.1449 305.478 17.5824C306.37 17.0199 307.407 16.7386 308.589 16.7386C309.771 16.7386 310.805 17.0199 311.691 17.5824C312.583 18.1449 313.276 18.9347 313.771 19.9517C314.271 20.9687 314.521 22.1591 314.521 23.5227C314.521 24.875 314.271 26.0568 313.771 27.0682C313.276 28.0795 312.583 28.8665 311.691 29.429C310.805 29.9915 309.771 30.2727 308.589 30.2727ZM308.589 28.4659C309.487 28.4659 310.225 28.2358 310.805 27.7756C311.384 27.3153 311.813 26.7102 312.092 25.9602C312.37 25.2102 312.509 24.3977 312.509 23.5227C312.509 22.6477 312.37 21.8324 312.092 21.0767C311.813 20.321 311.384 19.7102 310.805 19.2443C310.225 18.7784 309.487 18.5455 308.589 18.5455C307.691 18.5455 306.952 18.7784 306.373 19.2443C305.793 19.7102 305.364 20.321 305.086 21.0767C304.808 21.8324 304.668 22.6477 304.668 23.5227C304.668 24.3977 304.808 25.2102 305.086 25.9602C305.364 26.7102 305.793 27.3153 306.373 27.7756C306.952 28.2358 307.691 28.4659 308.589 28.4659ZM319.602 22.125V30H317.591V16.9091H319.534V18.9545H319.705C320.011 18.2898 320.477 17.7557 321.102 17.3523C321.727 16.9432 322.534 16.7386 323.523 16.7386C324.409 16.7386 325.185 16.9205 325.849 17.2841C326.514 17.642 327.031 18.1875 327.401 18.9205C327.77 19.6477 327.955 20.5682 327.955 21.6818V30H325.943V21.8182C325.943 20.7898 325.676 19.9886 325.142 19.4148C324.608 18.8352 323.875 18.5455 322.943 18.5455C322.301 18.5455 321.727 18.6847 321.222 18.9631C320.722 19.2415 320.327 19.6477 320.037 20.1818C319.747 20.7159 319.602 21.3636 319.602 22.125ZM339.369 30H337.153L343.562 12.5455H345.744L352.153 30H349.937L344.721 15.3068H344.585L339.369 30ZM340.187 23.1818H349.119V25.0568H340.187V23.1818ZM359.917 30.2727C358.69 30.2727 357.633 29.983 356.746 29.4034C355.86 28.8239 355.178 28.0256 354.701 27.0085C354.224 25.9915 353.985 24.8295 353.985 23.5227C353.985 22.1932 354.229 21.0199 354.718 20.0028C355.212 18.9801 355.9 18.1818 356.781 17.608C357.667 17.0284 358.701 16.7386 359.883 16.7386C360.803 16.7386 361.633 16.9091 362.371 17.25C363.11 17.5909 363.715 18.0682 364.187 18.6818C364.658 19.2955 364.951 20.0114 365.065 20.8295H363.053C362.9 20.233 362.559 19.7045 362.031 19.2443C361.508 18.7784 360.803 18.5455 359.917 18.5455C359.133 18.5455 358.445 18.75 357.854 19.1591C357.269 19.5625 356.812 20.1335 356.482 20.8722C356.158 21.6051 355.996 22.4659 355.996 23.4545C355.996 24.4659 356.156 25.3466 356.474 26.0966C356.798 26.8466 357.252 27.429 357.837 27.8438C358.428 28.2585 359.121 28.4659 359.917 28.4659C360.44 28.4659 360.914 28.375 361.34 28.1932C361.766 28.0114 362.127 27.75 362.423 27.4091C362.718 27.0682 362.928 26.6591 363.053 26.1818H365.065C364.951 26.9545 364.67 27.6506 364.221 28.2699C363.778 28.8835 363.19 29.3722 362.457 29.7358C361.729 30.0938 360.883 30.2727 359.917 30.2727ZM373.698 16.9091V18.6136H366.914V16.9091H373.698ZM368.891 13.7727H370.903V26.25C370.903 26.8182 370.985 27.2443 371.15 27.5284C371.32 27.8068 371.536 27.9943 371.798 28.0909C372.065 28.1818 372.346 28.2273 372.641 28.2273C372.863 28.2273 373.045 28.2159 373.187 28.1932C373.329 28.1648 373.442 28.142 373.528 28.125L373.937 29.9318C373.8 29.983 373.61 30.0341 373.366 30.0852C373.121 30.142 372.812 30.1705 372.437 30.1705C371.869 30.1705 371.312 30.0483 370.766 29.804C370.227 29.5597 369.778 29.1875 369.42 28.6875C369.067 28.1875 368.891 27.5568 368.891 26.7955V13.7727ZM376.724 30V16.9091H378.735V30H376.724ZM377.746 14.7273C377.354 14.7273 377.016 14.5938 376.732 14.3267C376.454 14.0597 376.315 13.7386 376.315 13.3636C376.315 12.9886 376.454 12.6676 376.732 12.4006C377.016 12.1335 377.354 12 377.746 12C378.138 12 378.474 12.1335 378.752 12.4006C379.036 12.6676 379.178 12.9886 379.178 13.3636C379.178 13.7386 379.036 14.0597 378.752 14.3267C378.474 14.5938 378.138 14.7273 377.746 14.7273ZM393.124 16.9091L388.283 30H386.237L381.396 16.9091H383.578L387.192 27.3409H387.328L390.942 16.9091H393.124ZM395.778 30V16.9091H397.79V30H395.778ZM396.801 14.7273C396.409 14.7273 396.071 14.5938 395.787 14.3267C395.509 14.0597 395.369 13.7386 395.369 13.3636C395.369 12.9886 395.509 12.6676 395.787 12.4006C396.071 12.1335 396.409 12 396.801 12C397.193 12 397.528 12.1335 397.807 12.4006C398.091 12.6676 398.233 12.9886 398.233 13.3636C398.233 13.7386 398.091 14.0597 397.807 14.3267C397.528 14.5938 397.193 14.7273 396.801 14.7273ZM407.167 16.9091V18.6136H400.383V16.9091H407.167ZM402.36 13.7727H404.371V26.25C404.371 26.8182 404.454 27.2443 404.619 27.5284C404.789 27.8068 405.005 27.9943 405.266 28.0909C405.533 28.1818 405.815 28.2273 406.11 28.2273C406.332 28.2273 406.513 28.2159 406.656 28.1932C406.798 28.1648 406.911 28.142 406.996 28.125L407.406 29.9318C407.269 29.983 407.079 30.0341 406.835 30.0852C406.59 30.142 406.281 30.1705 405.906 30.1705C405.337 30.1705 404.781 30.0483 404.235 29.804C403.695 29.5597 403.246 29.1875 402.888 28.6875C402.536 28.1875 402.36 27.5568 402.36 26.7955V13.7727ZM410.192 30V16.9091H412.204V30H410.192ZM411.215 14.7273C410.823 14.7273 410.485 14.5938 410.201 14.3267C409.923 14.0597 409.783 13.7386 409.783 13.3636C409.783 12.9886 409.923 12.6676 410.201 12.4006C410.485 12.1335 410.823 12 411.215 12C411.607 12 411.942 12.1335 412.221 12.4006C412.505 12.6676 412.647 12.9886 412.647 13.3636C412.647 13.7386 412.505 14.0597 412.221 14.3267C411.942 14.5938 411.607 14.7273 411.215 14.7273ZM421.376 30.2727C420.115 30.2727 419.027 29.9943 418.112 29.4375C417.203 28.875 416.501 28.0909 416.007 27.0852C415.518 26.0739 415.274 24.8977 415.274 23.5568C415.274 22.2159 415.518 21.0341 416.007 20.0114C416.501 18.983 417.189 18.1818 418.07 17.608C418.956 17.0284 419.99 16.7386 421.172 16.7386C421.854 16.7386 422.527 16.8523 423.192 17.0795C423.857 17.3068 424.462 17.6761 425.007 18.1875C425.553 18.6932 425.987 19.3636 426.311 20.1989C426.635 21.0341 426.797 22.0625 426.797 23.2841V24.1364H416.706V22.3977H424.751C424.751 21.6591 424.604 21 424.308 20.4205C424.018 19.8409 423.604 19.3835 423.064 19.0483C422.53 18.7131 421.899 18.5455 421.172 18.5455C420.371 18.5455 419.678 18.7443 419.092 19.142C418.513 19.5341 418.067 20.0455 417.754 20.6761C417.442 21.3068 417.286 21.983 417.286 22.7045V23.8636C417.286 24.8523 417.456 25.6903 417.797 26.3778C418.143 27.0597 418.624 27.5795 419.237 27.9375C419.851 28.2898 420.564 28.4659 421.376 28.4659C421.905 28.4659 422.382 28.392 422.808 28.2443C423.24 28.0909 423.612 27.8636 423.925 27.5625C424.237 27.2557 424.479 26.875 424.649 26.4205L426.592 26.9659C426.388 27.625 426.044 28.2045 425.561 28.7045C425.078 29.1989 424.482 29.5852 423.771 29.8636C423.061 30.1364 422.263 30.2727 421.376 30.2727ZM439.129 19.8409L437.322 20.3523C437.209 20.0511 437.041 19.7585 436.82 19.4744C436.604 19.1847 436.308 18.946 435.933 18.7585C435.558 18.571 435.078 18.4773 434.493 18.4773C433.692 18.4773 433.024 18.6619 432.49 19.0312C431.962 19.3949 431.697 19.858 431.697 20.4205C431.697 20.9205 431.879 21.3153 432.243 21.6051C432.607 21.8949 433.175 22.1364 433.947 22.3295L435.891 22.8068C437.061 23.0909 437.933 23.5256 438.507 24.1108C439.081 24.6903 439.368 25.4375 439.368 26.3523C439.368 27.1023 439.152 27.7727 438.72 28.3636C438.294 28.9545 437.697 29.4205 436.93 29.7614C436.163 30.1023 435.271 30.2727 434.254 30.2727C432.919 30.2727 431.814 29.983 430.939 29.4034C430.064 28.8239 429.51 27.9773 429.277 26.8636L431.186 26.3864C431.368 27.0909 431.712 27.6193 432.217 27.9716C432.729 28.3239 433.396 28.5 434.22 28.5C435.158 28.5 435.902 28.3011 436.453 27.9034C437.01 27.5 437.288 27.017 437.288 26.4545C437.288 26 437.129 25.6193 436.811 25.3125C436.493 25 436.004 24.767 435.345 24.6136L433.163 24.1023C431.964 23.8182 431.084 23.3778 430.521 22.7812C429.964 22.179 429.686 21.4261 429.686 20.5227C429.686 19.7841 429.893 19.1307 430.308 18.5625C430.729 17.9943 431.3 17.5483 432.021 17.2244C432.749 16.9006 433.572 16.7386 434.493 16.7386C435.788 16.7386 436.805 17.0227 437.544 17.5909C438.288 18.1591 438.817 18.9091 439.129 19.8409Z" fill="#F3727C"/>
<rect x="0.5" y="2.5" width="473" height="39" rx="3.5" stroke="#F3727C"/>
<path d="M460.75 21.2012C461.75 21.7785 461.75 23.2215 460.75 23.7988L451 29.4277C450 30.0051 448.75 29.2836 448.75 28.1289L448.75 16.8711C448.75 15.7887 449.848 15.0866 450.81 15.4785L451 15.5723L460.75 21.2012Z" stroke="#F3727C"/>
</svg>
