<svg xmlns="http://www.w3.org/2000/svg" width="424" height="39" fill="none" viewBox="0 0 424 39"><rect width="422" height="37" x="1" y="1" fill="#f59730" stroke="#f59730" stroke-width="2" rx="4"/><path fill="#fff" d="M94.98 25h-1.63L97 14.82h1.78L102.45 25h-1.63l-2.88-8.33h-.08zm.27-3.99h5.3v1.3h-5.3zm10.2-6.2V25h-1.53V14.82zM111.4 25V14.82h6.38v1.32h-4.84v3.1h4.51v1.32h-4.51v3.12h4.9V25zm11.88-7.64v1.2h-4.17v-1.2zm-3.05-1.83h1.48v7.23q0 .43.13.65.13.21.34.3.21.06.45.07.18 0 .31-.03l.21-.04.27 1.23q-.13.05-.37.1a3 3 0 0 1-1.69-.15 2 2 0 0 1-.82-.68 2 2 0 0 1-.31-1.14zm6.35 4.94V25h-1.5V14.82h1.48v3.79h.09q.27-.62.82-.98.56-.36 1.44-.37.79 0 1.37.33.6.32.92.96t.33 1.6V25h-1.49v-4.68q0-.84-.43-1.3a1.6 1.6 0 0 0-1.2-.47q-.53 0-.95.23-.42.21-.65.65-.24.43-.23 1.04M133.5 25v-7.64H135V25zm.75-8.81a1 1 0 0 1-.66-.26.8.8 0 0 1-.28-.63q0-.36.28-.63.27-.26.66-.26t.66.26q.28.27.28.63t-.28.63a1 1 0 0 1-.66.26m5.95 8.96q-1.1 0-1.9-.5t-1.23-1.4a5 5 0 0 1-.43-2.03q0-1.17.44-2.06t1.23-1.4q.8-.5 1.88-.5.87 0 1.55.33.68.3 1.1.9.42.57.5 1.34h-1.45a1.7 1.7 0 0 0-.54-.93 1.6 1.6 0 0 0-1.14-.38q-.61 0-1.09.33-.45.32-.72.92-.25.6-.25 1.41 0 .84.25 1.44t.72.94q.45.34 1.1.34.42 0 .76-.16.34-.15.58-.45t.33-.7h1.45q-.07.73-.48 1.32-.4.58-1.08.91a3.5 3.5 0 0 1-1.58.33m10.45-5.92-1.34.24a2 2 0 0 0-.27-.5 1.3 1.3 0 0 0-.49-.38q-.3-.15-.77-.15-.63 0-1.05.29-.43.27-.43.72 0 .38.29.61.28.24.91.39l1.21.27q1.06.25 1.57.76.52.5.52 1.31a2 2 0 0 1-.4 1.23 2.6 2.6 0 0 1-1.1.83q-.69.3-1.62.3-1.28 0-2.1-.54a2.3 2.3 0 0 1-.99-1.57l1.44-.22q.13.57.55.85.42.3 1.09.29.74 0 1.17-.3.44-.31.44-.76a.8.8 0 0 0-.27-.6 2 2 0 0 0-.81-.37l-1.3-.28a3 3 0 0 1-1.58-.78q-.5-.53-.5-1.34 0-.68.37-1.19.38-.5 1.05-.79.66-.29 1.53-.29 1.23 0 1.94.54.73.53.94 1.43m17.77-1.1h-1.55a2.4 2.4 0 0 0-.93-1.52q-.35-.25-.79-.4a3 3 0 0 0-2.5.31q-.68.45-1.09 1.3-.4.86-.4 2.09 0 1.25.4 2.1t1.1 1.29 1.57.44q.48 0 .91-.13.44-.14.8-.4a2.4 2.4 0 0 0 .93-1.5l1.55.01a4 4 0 0 1-1.39 2.47q-.56.45-1.26.7-.72.25-1.55.25-1.32 0-2.36-.63a4.4 4.4 0 0 1-1.63-1.8q-.6-1.18-.6-2.8 0-1.63.6-2.8a4.4 4.4 0 0 1 3.99-2.43q.81 0 1.5.23a4 4 0 0 1 2.2 1.76q.38.64.5 1.46m4.94 7.02a3.32 3.32 0 0 1-3.12-1.87 4.6 4.6 0 0 1-.44-2.06q0-1.2.44-2.08a3.3 3.3 0 0 1 3.12-1.88q1.07 0 1.87.5.8.49 1.25 1.38t.44 2.08-.44 2.06a3.3 3.3 0 0 1-3.12 1.87m0-1.24q.7 0 1.16-.37t.67-.98q.23-.6.23-1.35 0-.73-.23-1.34a2 2 0 0 0-.67-.99q-.46-.37-1.16-.37t-1.16.37q-.45.38-.68.99-.22.6-.22 1.34t.22 1.35q.23.6.68.98.46.36 1.16.37m9.72-3.86v1.3h-4.52v-1.3zm10.55-1.92h-1.55a2.4 2.4 0 0 0-.93-1.52q-.35-.25-.79-.4a3 3 0 0 0-2.5.31q-.68.45-1.09 1.3-.4.86-.4 2.09 0 1.25.4 2.1t1.1 1.29 1.57.44q.48 0 .91-.13.44-.14.8-.4a2.4 2.4 0 0 0 .93-1.5l1.55.01a4 4 0 0 1-1.39 2.47q-.56.45-1.26.7-.72.25-1.55.25-1.32 0-2.36-.63a4.4 4.4 0 0 1-1.63-1.8q-.6-1.18-.6-2.8 0-1.63.6-2.8a4.4 4.4 0 0 1 3.99-2.43q.81 0 1.5.23a4 4 0 0 1 2.2 1.76q.38.64.5 1.46m1.72 6.87v-7.64h1.44v1.22h.08q.2-.62.74-.97a2 2 0 0 1 1.2-.36l.63.03v1.43l-.32-.06q-.22-.03-.46-.03-.52 0-.94.22a1.7 1.7 0 0 0-.88 1.5V25zm8.4.15q-1.13 0-1.95-.48a3.3 3.3 0 0 1-1.25-1.37 5 5 0 0 1-.44-2.07q0-1.17.44-2.07t1.23-1.4a3.75 3.75 0 0 1 3.11-.29 3 3 0 0 1 1.85 1.87q.28.72.28 1.76v.53h-6.07v-1.11h4.61q0-.6-.24-1.04a1.8 1.8 0 0 0-1.67-.99q-.62 0-1.1.31-.45.3-.71.8a2 2 0 0 0-.25 1.05v.87q0 .78.27 1.3.28.55.76.83.49.28 1.14.28.42 0 .77-.12.34-.12.6-.37.25-.24.39-.6l1.4.25q-.16.63-.6 1.09t-1.09.72q-.65.25-1.49.25m7.14.02q-.72 0-1.31-.27-.6-.28-.93-.79a2.3 2.3 0 0 1-.34-1.27q0-.64.25-1.06t.67-.66q.43-.25.94-.37.52-.12 1.07-.19l1.11-.13q.44-.06.62-.17.2-.12.2-.4v-.03q0-.65-.37-1-.36-.36-1.08-.36-.75 0-1.19.33-.42.33-.59.73l-1.4-.32a2.7 2.7 0 0 1 1.84-1.75 4.3 4.3 0 0 1 2.29-.09q.51.1.96.4.45.27.74.8.3.52.29 1.36V25h-1.45v-1.04h-.06q-.15.29-.43.56-.3.28-.74.47-.45.18-1.09.18m.32-1.2q.62 0 1.06-.24t.67-.63.23-.85v-.99a1 1 0 0 1-.3.15l-.52.11-1.02.15q-.43.06-.79.18-.35.13-.56.38a1 1 0 0 0-.21.63q0 .55.4.84.41.27 1.04.28m9-6.6v1.19h-4.18v-1.2zm-3.06-1.84h1.49v7.23q0 .43.13.65.13.21.33.3.22.06.45.07.18 0 .32-.03l.2-.04.27 1.23q-.12.05-.36.1a3 3 0 0 1-1.7-.15 2 2 0 0 1-.81-.68q-.32-.45-.32-1.14zm4.7 9.47v-7.64h1.48V25zm.75-8.81a1 1 0 0 1-.67-.26.8.8 0 0 1-.27-.63q0-.36.27-.63.28-.26.67-.26t.66.26.28.63-.28.63a1 1 0 0 1-.66.26m5.95 8.96a3.32 3.32 0 0 1-3.12-1.87 4.6 4.6 0 0 1-.44-2.06q0-1.2.44-2.08a3.3 3.3 0 0 1 3.12-1.88q1.07 0 1.88.5.8.49 1.24 1.38t.44 2.08-.44 2.06a3.3 3.3 0 0 1-3.12 1.87m0-1.24q.7 0 1.16-.37t.68-.98q.22-.6.22-1.35 0-.73-.22-1.34a2 2 0 0 0-.68-.99q-.46-.37-1.15-.37-.7 0-1.17.37-.45.38-.68.99-.21.6-.22 1.34 0 .74.22 1.35.23.6.68.98.47.36 1.17.37m6.7-3.44V25h-1.48v-7.64h1.43v1.25h.1q.25-.6.82-.98.57-.37 1.42-.37.78 0 1.37.33t.91.97.32 1.58V25h-1.48v-4.68q0-.82-.43-1.3a1.5 1.5 0 0 0-1.2-.47q-.5 0-.91.23-.4.21-.63.65-.23.43-.23 1.04m16.27-2.98a1.5 1.5 0 0 0-.66-1.1q-.58-.38-1.45-.38-.63 0-1.09.2-.45.18-.7.53-.26.34-.26.77 0 .36.17.63.18.26.46.44t.6.3l.62.18 1 .26q.49.12 1 .33a4 4 0 0 1 .95.53q.43.33.7.83.28.5.28 1.18a2.7 2.7 0 0 1-.45 1.53q-.45.67-1.29 1.06t-2.03.39q-1.14 0-1.98-.36-.84-.37-1.3-1.03a3 3 0 0 1-.53-1.6h1.54q.05.55.36.93.32.36.8.54.5.17 1.1.17.65 0 1.16-.2t.8-.58.3-.87q-.01-.45-.26-.74a2 2 0 0 0-.7-.48 7 7 0 0 0-.97-.33l-1.2-.33a5 5 0 0 1-1.95-.98 2.2 2.2 0 0 1-.7-1.7q0-.89.47-1.54.48-.66 1.3-1.02a4.4 4.4 0 0 1 1.83-.37q1.04 0 1.83.36.79.37 1.25 1t.48 1.45zm6.55 7.66q-1.11 0-1.91-.5t-1.22-1.4a5 5 0 0 1-.43-2.03q0-1.17.44-2.06t1.23-1.4q.8-.5 1.87-.5.87 0 1.56.33.68.3 1.1.9.42.57.5 1.34h-1.45a1.7 1.7 0 0 0-.55-.93 1.6 1.6 0 0 0-1.13-.38q-.62 0-1.09.33-.46.32-.72.92t-.26 1.41q0 .84.25 1.44.26.6.72.94.47.34 1.1.34.42 0 .77-.16.34-.15.58-.45t.33-.7h1.45q-.09.73-.49 1.32-.39.58-1.08.91a3.5 3.5 0 0 1-1.57.33m8.02 0q-1.12 0-1.95-.48a3.3 3.3 0 0 1-1.25-1.37 5 5 0 0 1-.44-2.07q0-1.17.44-2.07t1.23-1.4 1.86-.5q.65 0 1.26.22a3 3 0 0 1 1.85 1.86q.27.72.27 1.76v.53h-6.07v-1.11h4.62q0-.6-.24-1.04a1.8 1.8 0 0 0-1.68-.99q-.62 0-1.1.31-.46.3-.7.8a2.3 2.3 0 0 0-.26 1.05v.87q0 .78.27 1.3.28.55.76.83.49.28 1.14.28.42 0 .77-.12t.6-.37.4-.6l1.4.25q-.17.63-.6 1.09-.45.46-1.1.72t-1.48.25m6.4-4.68V25h-1.48v-7.64h1.43v1.25h.1q.25-.6.82-.98.57-.37 1.43-.37.78 0 1.36.33.6.33.91.97.33.63.33 1.58V25h-1.49v-4.68q0-.82-.43-1.3a1.5 1.5 0 0 0-1.2-.47q-.5 0-.91.23-.4.21-.63.65-.24.43-.23 1.04m9.11 4.7q-.72 0-1.31-.27-.6-.28-.93-.79a2.3 2.3 0 0 1-.34-1.27q0-.64.25-1.06t.67-.66q.42-.25.95-.37.51-.12 1.06-.19l1.11-.13q.44-.06.63-.17.2-.12.19-.4v-.03q0-.65-.37-1-.36-.36-1.08-.36-.75 0-1.19.33-.42.33-.59.73l-1.4-.32a2.7 2.7 0 0 1 1.84-1.75 4.3 4.3 0 0 1 2.29-.09q.51.1.96.4.45.27.74.8.3.52.3 1.36V25h-1.46v-1.04h-.06q-.15.29-.43.56-.3.28-.74.47-.46.18-1.09.18m.32-1.2q.63 0 1.06-.24.45-.24.67-.63.24-.4.23-.85v-.99a1 1 0 0 1-.3.15l-.52.11-1.01.15q-.44.06-.8.18-.35.13-.56.38a1 1 0 0 0-.21.63q0 .55.4.84.41.27 1.05.28m5.43 1.03v-7.64h1.44v1.22h.08q.2-.62.73-.97a2 2 0 0 1 1.2-.36l.64.03v1.43l-.32-.06q-.22-.03-.46-.03-.52 0-.94.22a1.7 1.7 0 0 0-.88 1.5V25zm5.37 0v-7.64h1.49V25zm.75-8.81a1 1 0 0 1-.66-.26.8.8 0 0 1-.27-.63q0-.36.27-.63.27-.26.66-.26t.67.26.27.63q0 .36-.27.63a1 1 0 0 1-.67.26m5.96 8.96a3.32 3.32 0 0 1-3.12-1.87 4.6 4.6 0 0 1-.44-2.06q0-1.2.44-2.08a3.3 3.3 0 0 1 3.12-1.88q1.07 0 1.87.5.8.49 1.24 1.38.45.89.45 2.08 0 1.18-.45 2.06a3.3 3.3 0 0 1-3.11 1.87m0-1.24q.7 0 1.16-.37t.67-.98q.23-.6.23-1.35 0-.73-.23-1.34a2 2 0 0 0-.67-.99q-.47-.37-1.16-.37-.7 0-1.16.37-.45.38-.68.99-.22.6-.22 1.34t.22 1.35.68.98q.46.36 1.16.37m10.94-4.68-1.35.24a2 2 0 0 0-.27-.5 1.3 1.3 0 0 0-.49-.38q-.3-.15-.77-.15-.63 0-1.05.29-.42.27-.42.72 0 .38.28.61.29.24.92.39l1.2.27q1.07.25 1.58.76.52.5.52 1.31a2 2 0 0 1-.4 1.23 2.6 2.6 0 0 1-1.1.83q-.7.3-1.62.3-1.29 0-2.1-.54a2.3 2.3 0 0 1-1-1.57l1.44-.22q.14.57.56.85.41.3 1.08.29.74 0 1.17-.3.45-.31.44-.76a.8.8 0 0 0-.27-.6 2 2 0 0 0-.8-.37l-1.3-.28a3 3 0 0 1-1.58-.78q-.5-.53-.5-1.34 0-.68.37-1.19.38-.5 1.04-.79.68-.29 1.53-.29 1.23 0 1.95.54.71.53.94 1.43"/><path fill="#fff" stroke="#fff" stroke-linejoin="round" d="M328.25 20.07a.5.5 0 0 1 0 .86L320 25.7a.5.5 0 0 1-.75-.44v-9.52a.5.5 0 0 1 .75-.44z"/></svg>