<svg width="424" height="39" viewBox="0 0 424 39" fill="none" xmlns="http://www.w3.org/2000/svg">
<rect x="1" y="1" width="422" height="37" rx="4" fill="#ED7C6F" stroke="#ED7C6F" stroke-width="2"/>
<path d="M98.9787 25H97.348L101.012 14.8182H102.787L106.451 25H104.82L101.942 16.6676H101.862L98.9787 25ZM99.2521 21.0128H104.542V22.3054H99.2521V21.0128ZM109.458 14.8182V25H107.921V14.8182H109.458ZM115.4 25V14.8182H121.783V16.1406H116.936V19.2429H121.45V20.5604H116.936V23.6776H121.843V25H115.4ZM127.281 17.3636V18.5568H123.11V17.3636H127.281ZM124.228 15.5341H125.715V22.7578C125.715 23.0462 125.758 23.2633 125.844 23.4091C125.93 23.5516 126.041 23.6494 126.177 23.7024C126.316 23.7521 126.467 23.777 126.629 23.777C126.749 23.777 126.853 23.7687 126.943 23.7521C127.032 23.7356 127.102 23.7223 127.151 23.7124L127.42 24.9403C127.334 24.9735 127.211 25.0066 127.052 25.0398C126.893 25.0762 126.694 25.0961 126.455 25.0994C126.064 25.1061 125.7 25.0365 125.362 24.8906C125.024 24.7448 124.75 24.5194 124.541 24.2145C124.333 23.9096 124.228 23.5268 124.228 23.0661V15.5341ZM130.576 20.4659V25H129.089V14.8182H130.556V18.6065H130.65C130.829 18.1955 131.103 17.8691 131.471 17.6271C131.838 17.3852 132.319 17.2642 132.912 17.2642C133.436 17.2642 133.893 17.3719 134.284 17.5874C134.679 17.8028 134.984 18.1243 135.199 18.5518C135.418 18.9761 135.527 19.5064 135.527 20.1428V25H134.041V20.3217C134.041 19.7616 133.897 19.3274 133.608 19.0192C133.32 18.7076 132.919 18.5518 132.405 18.5518C132.054 18.5518 131.739 18.6264 131.461 18.7756C131.185 18.9247 130.968 19.1435 130.809 19.4318C130.654 19.7169 130.576 20.0616 130.576 20.4659ZM137.511 25V17.3636H138.998V25H137.511ZM138.262 16.1854C138.003 16.1854 137.781 16.0992 137.596 15.9268C137.413 15.7512 137.322 15.5424 137.322 15.3004C137.322 15.0552 137.413 14.8464 137.596 14.674C137.781 14.4983 138.003 14.4105 138.262 14.4105C138.52 14.4105 138.741 14.4983 138.923 14.674C139.109 14.8464 139.201 15.0552 139.201 15.3004C139.201 15.5424 139.109 15.7512 138.923 15.9268C138.741 16.0992 138.52 16.1854 138.262 16.1854ZM144.214 25.1541C143.475 25.1541 142.838 24.9867 142.305 24.652C141.775 24.3139 141.367 23.8482 141.082 23.255C140.797 22.6617 140.654 21.9822 140.654 21.2166C140.654 20.4411 140.8 19.7566 141.092 19.1634C141.383 18.5668 141.794 18.1011 142.325 17.7663C142.855 17.4316 143.48 17.2642 144.199 17.2642C144.779 17.2642 145.296 17.3719 145.75 17.5874C146.204 17.7995 146.57 18.0978 146.849 18.4822C147.131 18.8667 147.298 19.3158 147.351 19.8295H145.904C145.825 19.4716 145.642 19.1634 145.357 18.9048C145.076 18.6463 144.698 18.517 144.224 18.517C143.81 18.517 143.447 18.6264 143.135 18.8452C142.827 19.0606 142.587 19.3688 142.414 19.7699C142.242 20.1676 142.156 20.6383 142.156 21.1818C142.156 21.7386 142.24 22.2192 142.409 22.6236C142.578 23.0279 142.817 23.3411 143.125 23.5632C143.437 23.7853 143.803 23.8963 144.224 23.8963C144.506 23.8963 144.761 23.8449 144.99 23.7422C145.222 23.6361 145.415 23.4853 145.571 23.2898C145.73 23.0942 145.841 22.8589 145.904 22.5838H147.351C147.298 23.0777 147.137 23.5185 146.869 23.9062C146.6 24.294 146.241 24.599 145.79 24.821C145.343 25.0431 144.817 25.1541 144.214 25.1541ZM154.663 19.228L153.316 19.4666C153.259 19.2943 153.17 19.1302 153.047 18.9744C152.928 18.8187 152.766 18.6911 152.56 18.5916C152.355 18.4922 152.098 18.4425 151.789 18.4425C151.368 18.4425 151.017 18.5369 150.735 18.7259C150.454 18.9115 150.313 19.1518 150.313 19.4467C150.313 19.7019 150.407 19.9074 150.596 20.0632C150.785 20.219 151.09 20.3466 151.511 20.446L152.724 20.7244C153.427 20.8868 153.95 21.1371 154.295 21.4751C154.64 21.8132 154.812 22.2524 154.812 22.7926C154.812 23.25 154.68 23.6577 154.414 24.0156C154.153 24.3703 153.786 24.6487 153.316 24.8509C152.848 25.053 152.306 25.1541 151.69 25.1541C150.835 25.1541 150.137 24.9718 149.597 24.6072C149.057 24.2393 148.725 23.7173 148.603 23.0412L150.039 22.8224C150.129 23.197 150.313 23.4804 150.591 23.6726C150.87 23.8615 151.233 23.956 151.68 23.956C152.167 23.956 152.557 23.8549 152.848 23.6527C153.14 23.4472 153.286 23.197 153.286 22.902C153.286 22.6634 153.196 22.4628 153.017 22.3004C152.842 22.138 152.572 22.0154 152.207 21.9325L150.914 21.6491C150.202 21.4867 149.675 21.2282 149.333 20.8736C148.995 20.5189 148.826 20.0698 148.826 19.5263C148.826 19.0755 148.952 18.6811 149.204 18.343C149.456 18.005 149.804 17.7415 150.248 17.5526C150.692 17.3603 151.201 17.2642 151.775 17.2642C152.6 17.2642 153.249 17.4432 153.723 17.8011C154.197 18.1558 154.511 18.6314 154.663 19.228ZM168.728 18.1293H167.176C167.117 17.7978 167.006 17.5062 166.843 17.2543C166.681 17.0024 166.482 16.7886 166.247 16.6129C166.011 16.4373 165.748 16.3047 165.456 16.2152C165.168 16.1257 164.861 16.081 164.537 16.081C163.95 16.081 163.425 16.2285 162.961 16.5234C162.5 16.8184 162.135 17.2509 161.867 17.821C161.602 18.3911 161.469 19.0871 161.469 19.9091C161.469 20.7377 161.602 21.437 161.867 22.0071C162.135 22.5772 162.502 23.008 162.966 23.2997C163.43 23.5914 163.952 23.7372 164.532 23.7372C164.853 23.7372 165.158 23.6941 165.446 23.608C165.738 23.5185 166.002 23.3875 166.237 23.2152C166.472 23.0429 166.671 22.8324 166.833 22.5838C166.999 22.3319 167.114 22.0436 167.176 21.7188L168.728 21.7237C168.645 22.2242 168.484 22.6849 168.245 23.1058C168.01 23.5234 167.707 23.8847 167.336 24.1896C166.968 24.4912 166.547 24.7249 166.073 24.8906C165.599 25.0563 165.082 25.1392 164.522 25.1392C163.64 25.1392 162.855 24.9304 162.165 24.5128C161.476 24.0919 160.932 23.4903 160.534 22.7081C160.14 21.9259 159.943 20.9929 159.943 19.9091C159.943 18.822 160.142 17.889 160.539 17.1101C160.937 16.3279 161.481 15.728 162.17 15.3104C162.859 14.8894 163.643 14.679 164.522 14.679C165.062 14.679 165.566 14.7569 166.033 14.9126C166.504 15.0651 166.926 15.2905 167.301 15.5888C167.675 15.8838 167.985 16.245 168.23 16.6726C168.476 17.0968 168.641 17.5824 168.728 18.1293ZM173.663 25.1541C172.947 25.1541 172.323 24.9901 171.789 24.6619C171.255 24.3338 170.841 23.8748 170.546 23.2848C170.251 22.6948 170.104 22.0054 170.104 21.2166C170.104 20.4245 170.251 19.7318 170.546 19.1385C170.841 18.5452 171.255 18.0845 171.789 17.7564C172.323 17.4283 172.947 17.2642 173.663 17.2642C174.379 17.2642 175.004 17.4283 175.537 17.7564C176.071 18.0845 176.485 18.5452 176.78 19.1385C177.075 19.7318 177.223 20.4245 177.223 21.2166C177.223 22.0054 177.075 22.6948 176.78 23.2848C176.485 23.8748 176.071 24.3338 175.537 24.6619C175.004 24.9901 174.379 25.1541 173.663 25.1541ZM173.668 23.9062C174.132 23.9062 174.517 23.7836 174.822 23.5384C175.126 23.2931 175.352 22.9666 175.498 22.5589C175.647 22.1513 175.721 21.7022 175.721 21.2116C175.721 20.7244 175.647 20.277 175.498 19.8693C175.352 19.4583 175.126 19.1286 174.822 18.88C174.517 18.6314 174.132 18.5071 173.668 18.5071C173.201 18.5071 172.813 18.6314 172.505 18.88C172.2 19.1286 171.973 19.4583 171.824 19.8693C171.678 20.277 171.605 20.7244 171.605 21.2116C171.605 21.7022 171.678 22.1513 171.824 22.5589C171.973 22.9666 172.2 23.2931 172.505 23.5384C172.813 23.7836 173.201 23.9062 173.668 23.9062ZM183.381 20.0533V21.3409H178.867V20.0533H183.381ZM193.939 18.1293H192.387C192.328 17.7978 192.217 17.5062 192.054 17.2543C191.892 17.0024 191.693 16.7886 191.458 16.6129C191.222 16.4373 190.959 16.3047 190.667 16.2152C190.379 16.1257 190.072 16.081 189.748 16.081C189.161 16.081 188.636 16.2285 188.172 16.5234C187.711 16.8184 187.346 17.2509 187.078 17.821C186.813 18.3911 186.68 19.0871 186.68 19.9091C186.68 20.7377 186.813 21.437 187.078 22.0071C187.346 22.5772 187.712 23.008 188.176 23.2997C188.641 23.5914 189.163 23.7372 189.743 23.7372C190.064 23.7372 190.369 23.6941 190.657 23.608C190.949 23.5185 191.212 23.3875 191.448 23.2152C191.683 23.0429 191.882 22.8324 192.044 22.5838C192.21 22.3319 192.324 22.0436 192.387 21.7188L193.939 21.7237C193.856 22.2242 193.695 22.6849 193.456 23.1058C193.221 23.5234 192.918 23.8847 192.547 24.1896C192.179 24.4912 191.758 24.7249 191.284 24.8906C190.81 25.0563 190.293 25.1392 189.733 25.1392C188.851 25.1392 188.065 24.9304 187.376 24.5128C186.687 24.0919 186.143 23.4903 185.745 22.7081C185.351 21.9259 185.154 20.9929 185.154 19.9091C185.154 18.822 185.353 17.889 185.75 17.1101C186.148 16.3279 186.692 15.728 187.381 15.3104C188.07 14.8894 188.854 14.679 189.733 14.679C190.273 14.679 190.777 14.7569 191.244 14.9126C191.715 15.0651 192.137 15.2905 192.512 15.5888C192.886 15.8838 193.196 16.245 193.441 16.6726C193.687 17.0968 193.852 17.5824 193.939 18.1293ZM195.657 25V17.3636H197.094V18.5767H197.174C197.313 18.1657 197.558 17.8426 197.91 17.6072C198.264 17.3686 198.665 17.2493 199.113 17.2493C199.206 17.2493 199.315 17.2526 199.441 17.2592C199.57 17.2659 199.671 17.2741 199.744 17.2841V18.706C199.684 18.6894 199.578 18.6712 199.426 18.6513C199.273 18.6281 199.121 18.6165 198.969 18.6165C198.617 18.6165 198.304 18.6911 198.029 18.8402C197.757 18.986 197.542 19.1899 197.383 19.4517C197.224 19.7102 197.144 20.0052 197.144 20.3366V25H195.657ZM204.048 25.1541C203.296 25.1541 202.648 24.9934 202.104 24.6719C201.564 24.3471 201.147 23.8913 200.852 23.3047C200.56 22.7147 200.414 22.0237 200.414 21.2315C200.414 20.4493 200.56 19.7599 200.852 19.1634C201.147 18.5668 201.558 18.1011 202.085 17.7663C202.615 17.4316 203.235 17.2642 203.944 17.2642C204.375 17.2642 204.792 17.3355 205.197 17.478C205.601 17.6205 205.964 17.8442 206.286 18.1491C206.607 18.4541 206.861 18.8501 207.046 19.3374C207.232 19.8213 207.325 20.4096 207.325 21.1023V21.6293H201.254V20.5156H205.868C205.868 20.1245 205.788 19.7782 205.629 19.4766C205.47 19.1716 205.246 18.9313 204.958 18.7557C204.673 18.58 204.338 18.4922 203.954 18.4922C203.536 18.4922 203.172 18.5949 202.86 18.8004C202.552 19.0026 202.313 19.2678 202.144 19.5959C201.978 19.9207 201.896 20.2737 201.896 20.6548V21.5249C201.896 22.0353 201.985 22.4695 202.164 22.8274C202.346 23.1854 202.6 23.4588 202.925 23.6477C203.25 23.8333 203.629 23.9261 204.063 23.9261C204.345 23.9261 204.602 23.8864 204.834 23.8068C205.066 23.724 205.266 23.6013 205.435 23.4389C205.604 23.2765 205.734 23.076 205.823 22.8374L207.23 23.0909C207.117 23.5052 206.915 23.8681 206.624 24.1797C206.335 24.4879 205.972 24.7282 205.535 24.9006C205.101 25.0696 204.605 25.1541 204.048 25.1541ZM211.196 25.169C210.712 25.169 210.275 25.0795 209.884 24.9006C209.493 24.7183 209.183 24.4548 208.954 24.1101C208.729 23.7654 208.616 23.3428 208.616 22.8423C208.616 22.4115 208.699 22.0568 208.865 21.7784C209.03 21.5 209.254 21.2796 209.536 21.1172C209.817 20.9548 210.132 20.8321 210.48 20.7493C210.828 20.6664 211.183 20.6035 211.544 20.5604C212.002 20.5073 212.373 20.4643 212.658 20.4311C212.943 20.3946 213.15 20.3366 213.279 20.2571C213.409 20.1776 213.473 20.0483 213.473 19.8693V19.8345C213.473 19.4003 213.351 19.0639 213.105 18.8253C212.863 18.5866 212.502 18.4673 212.021 18.4673C211.521 18.4673 211.127 18.5784 210.838 18.8004C210.553 19.0192 210.356 19.2628 210.247 19.5312L208.85 19.2131C209.015 18.7491 209.257 18.3745 209.575 18.0895C209.897 17.8011 210.267 17.5923 210.684 17.4631C211.102 17.3305 211.541 17.2642 212.002 17.2642C212.307 17.2642 212.63 17.3007 212.971 17.3736C213.316 17.4432 213.637 17.5724 213.936 17.7614C214.237 17.9503 214.484 18.2204 214.676 18.5717C214.869 18.9197 214.965 19.3722 214.965 19.929V25H213.513V23.956H213.453C213.357 24.1482 213.213 24.3371 213.021 24.5227C212.829 24.7083 212.582 24.8625 212.28 24.9851C211.978 25.1077 211.617 25.169 211.196 25.169ZM211.519 23.9759C211.93 23.9759 212.282 23.8946 212.573 23.7322C212.868 23.5698 213.092 23.3577 213.244 23.0959C213.4 22.8307 213.478 22.5473 213.478 22.2457V21.2614C213.425 21.3144 213.322 21.3641 213.17 21.4105C213.021 21.4536 212.85 21.4917 212.658 21.5249C212.466 21.5547 212.278 21.5829 212.096 21.6094C211.914 21.6326 211.761 21.6525 211.639 21.669C211.35 21.7055 211.087 21.7668 210.848 21.853C210.613 21.9392 210.424 22.0634 210.281 22.2259C210.142 22.3849 210.073 22.5971 210.073 22.8622C210.073 23.2301 210.209 23.5085 210.48 23.6974C210.752 23.883 211.098 23.9759 211.519 23.9759ZM220.509 17.3636V18.5568H216.338V17.3636H220.509ZM217.457 15.5341H218.943V22.7578C218.943 23.0462 218.986 23.2633 219.072 23.4091C219.159 23.5516 219.27 23.6494 219.406 23.7024C219.545 23.7521 219.696 23.777 219.858 23.777C219.977 23.777 220.082 23.7687 220.171 23.7521C220.261 23.7356 220.33 23.7223 220.38 23.7124L220.648 24.9403C220.562 24.9735 220.44 25.0066 220.281 25.0398C220.121 25.0762 219.923 25.0961 219.684 25.0994C219.293 25.1061 218.928 25.0365 218.59 24.8906C218.252 24.7448 217.979 24.5194 217.77 24.2145C217.561 23.9096 217.457 23.5268 217.457 23.0661V15.5341ZM222.154 25V17.3636H223.64V25H222.154ZM222.904 16.1854C222.646 16.1854 222.424 16.0992 222.238 15.9268C222.056 15.7512 221.965 15.5424 221.965 15.3004C221.965 15.0552 222.056 14.8464 222.238 14.674C222.424 14.4983 222.646 14.4105 222.904 14.4105C223.163 14.4105 223.383 14.4983 223.566 14.674C223.751 14.8464 223.844 15.0552 223.844 15.3004C223.844 15.5424 223.751 15.7512 223.566 15.9268C223.383 16.0992 223.163 16.1854 222.904 16.1854ZM228.857 25.1541C228.141 25.1541 227.516 24.9901 226.982 24.6619C226.449 24.3338 226.034 23.8748 225.739 23.2848C225.444 22.6948 225.297 22.0054 225.297 21.2166C225.297 20.4245 225.444 19.7318 225.739 19.1385C226.034 18.5452 226.449 18.0845 226.982 17.7564C227.516 17.4283 228.141 17.2642 228.857 17.2642C229.572 17.2642 230.197 17.4283 230.731 17.7564C231.264 18.0845 231.679 18.5452 231.974 19.1385C232.269 19.7318 232.416 20.4245 232.416 21.2166C232.416 22.0054 232.269 22.6948 231.974 23.2848C231.679 23.8748 231.264 24.3338 230.731 24.6619C230.197 24.9901 229.572 25.1541 228.857 25.1541ZM228.862 23.9062C229.326 23.9062 229.71 23.7836 230.015 23.5384C230.32 23.2931 230.545 22.9666 230.691 22.5589C230.84 22.1513 230.915 21.7022 230.915 21.2116C230.915 20.7244 230.84 20.277 230.691 19.8693C230.545 19.4583 230.32 19.1286 230.015 18.88C229.71 18.6314 229.326 18.5071 228.862 18.5071C228.394 18.5071 228.006 18.6314 227.698 18.88C227.393 19.1286 227.166 19.4583 227.017 19.8693C226.871 20.277 226.798 20.7244 226.798 21.2116C226.798 21.7022 226.871 22.1513 227.017 22.5589C227.166 22.9666 227.393 23.2931 227.698 23.5384C228.006 23.7836 228.394 23.9062 228.862 23.9062ZM235.562 20.4659V25H234.075V17.3636H235.502V18.6065H235.597C235.772 18.2022 236.048 17.8774 236.422 17.6321C236.8 17.3868 237.276 17.2642 237.849 17.2642C238.369 17.2642 238.825 17.3736 239.216 17.5923C239.607 17.8078 239.91 18.1293 240.126 18.5568C240.341 18.9844 240.449 19.513 240.449 20.1428V25H238.963V20.3217C238.963 19.7682 238.818 19.3357 238.53 19.0241C238.242 18.7093 237.846 18.5518 237.342 18.5518C236.997 18.5518 236.691 18.6264 236.422 18.7756C236.157 18.9247 235.946 19.1435 235.791 19.4318C235.638 19.7169 235.562 20.0616 235.562 20.4659ZM247.127 25H245.496L249.161 14.8182H250.935L254.599 25H252.969L250.09 16.6676H250.011L247.127 25ZM247.401 21.0128H252.69V22.3054H247.401V21.0128ZM259.044 25.1541C258.305 25.1541 257.669 24.9867 257.135 24.652C256.605 24.3139 256.197 23.8482 255.912 23.255C255.627 22.6617 255.484 21.9822 255.484 21.2166C255.484 20.4411 255.63 19.7566 255.922 19.1634C256.214 18.5668 256.625 18.1011 257.155 17.7663C257.685 17.4316 258.31 17.2642 259.029 17.2642C259.609 17.2642 260.126 17.3719 260.58 17.5874C261.034 17.7995 261.401 18.0978 261.679 18.4822C261.961 18.8667 262.128 19.3158 262.181 19.8295H260.734C260.655 19.4716 260.473 19.1634 260.188 18.9048C259.906 18.6463 259.528 18.517 259.054 18.517C258.64 18.517 258.277 18.6264 257.965 18.8452C257.657 19.0606 257.417 19.3688 257.244 19.7699C257.072 20.1676 256.986 20.6383 256.986 21.1818C256.986 21.7386 257.07 22.2192 257.239 22.6236C257.408 23.0279 257.647 23.3411 257.955 23.5632C258.267 23.7853 258.633 23.8963 259.054 23.8963C259.336 23.8963 259.591 23.8449 259.82 23.7422C260.052 23.6361 260.246 23.4853 260.401 23.2898C260.56 23.0942 260.671 22.8589 260.734 22.5838H262.181C262.128 23.0777 261.967 23.5185 261.699 23.9062C261.43 24.294 261.071 24.599 260.62 24.821C260.173 25.0431 259.647 25.1541 259.044 25.1541ZM267.335 17.3636V18.5568H263.164V17.3636H267.335ZM264.283 15.5341H265.769V22.7578C265.769 23.0462 265.812 23.2633 265.899 23.4091C265.985 23.5516 266.096 23.6494 266.232 23.7024C266.371 23.7521 266.522 23.777 266.684 23.777C266.803 23.777 266.908 23.7687 266.997 23.7521C267.087 23.7356 267.156 23.7223 267.206 23.7124L267.475 24.9403C267.388 24.9735 267.266 25.0066 267.107 25.0398C266.948 25.0762 266.749 25.0961 266.51 25.0994C266.119 25.1061 265.754 25.0365 265.416 24.8906C265.078 24.7448 264.805 24.5194 264.596 24.2145C264.387 23.9096 264.283 23.5268 264.283 23.0661V15.5341ZM268.98 25V17.3636H270.466V25H268.98ZM269.73 16.1854C269.472 16.1854 269.25 16.0992 269.064 15.9268C268.882 15.7512 268.791 15.5424 268.791 15.3004C268.791 15.0552 268.882 14.8464 269.064 14.674C269.25 14.4983 269.472 14.4105 269.73 14.4105C269.989 14.4105 270.209 14.4983 270.392 14.674C270.577 14.8464 270.67 15.0552 270.67 15.3004C270.67 15.5424 270.577 15.7512 270.392 15.9268C270.209 16.0992 269.989 16.1854 269.73 16.1854ZM278.999 17.3636L276.23 25H274.639L271.865 17.3636H273.46L275.394 23.2401H275.474L277.403 17.3636H278.999ZM280.396 25V17.3636H281.882V25H280.396ZM281.146 16.1854C280.888 16.1854 280.666 16.0992 280.48 15.9268C280.298 15.7512 280.207 15.5424 280.207 15.3004C280.207 15.0552 280.298 14.8464 280.48 14.674C280.666 14.4983 280.888 14.4105 281.146 14.4105C281.405 14.4105 281.625 14.4983 281.808 14.674C281.993 14.8464 282.086 15.0552 282.086 15.3004C282.086 15.5424 281.993 15.7512 281.808 15.9268C281.625 16.0992 281.405 16.1854 281.146 16.1854ZM287.447 17.3636V18.5568H283.276V17.3636H287.447ZM284.394 15.5341H285.881V22.7578C285.881 23.0462 285.924 23.2633 286.01 23.4091C286.096 23.5516 286.207 23.6494 286.343 23.7024C286.482 23.7521 286.633 23.777 286.795 23.777C286.915 23.777 287.019 23.7687 287.109 23.7521C287.198 23.7356 287.268 23.7223 287.317 23.7124L287.586 24.9403C287.5 24.9735 287.377 25.0066 287.218 25.0398C287.059 25.0762 286.86 25.0961 286.621 25.0994C286.23 25.1061 285.866 25.0365 285.528 24.8906C285.19 24.7448 284.916 24.5194 284.707 24.2145C284.499 23.9096 284.394 23.5268 284.394 23.0661V15.5341ZM289.091 25V17.3636H290.578V25H289.091ZM289.842 16.1854C289.583 16.1854 289.361 16.0992 289.176 15.9268C288.993 15.7512 288.902 15.5424 288.902 15.3004C288.902 15.0552 288.993 14.8464 289.176 14.674C289.361 14.4983 289.583 14.4105 289.842 14.4105C290.1 14.4105 290.321 14.4983 290.503 14.674C290.689 14.8464 290.781 15.0552 290.781 15.3004C290.781 15.5424 290.689 15.7512 290.503 15.9268C290.321 16.0992 290.1 16.1854 289.842 16.1854ZM295.869 25.1541C295.116 25.1541 294.468 24.9934 293.925 24.6719C293.384 24.3471 292.967 23.8913 292.672 23.3047C292.38 22.7147 292.234 22.0237 292.234 21.2315C292.234 20.4493 292.38 19.7599 292.672 19.1634C292.967 18.5668 293.378 18.1011 293.905 17.7663C294.435 17.4316 295.055 17.2642 295.764 17.2642C296.195 17.2642 296.613 17.3355 297.017 17.478C297.421 17.6205 297.784 17.8442 298.106 18.1491C298.427 18.4541 298.681 18.8501 298.866 19.3374C299.052 19.8213 299.145 20.4096 299.145 21.1023V21.6293H293.075V20.5156H297.688C297.688 20.1245 297.609 19.7782 297.45 19.4766C297.29 19.1716 297.067 18.9313 296.778 18.7557C296.493 18.58 296.159 18.4922 295.774 18.4922C295.357 18.4922 294.992 18.5949 294.68 18.8004C294.372 19.0026 294.134 19.2678 293.964 19.5959C293.799 19.9207 293.716 20.2737 293.716 20.6548V21.5249C293.716 22.0353 293.805 22.4695 293.984 22.8274C294.167 23.1854 294.42 23.4588 294.745 23.6477C295.07 23.8333 295.449 23.9261 295.884 23.9261C296.165 23.9261 296.422 23.8864 296.654 23.8068C296.886 23.724 297.087 23.6013 297.256 23.4389C297.425 23.2765 297.554 23.076 297.643 22.8374L299.05 23.0909C298.938 23.5052 298.736 23.8681 298.444 24.1797C298.156 24.4879 297.793 24.7282 297.355 24.9006C296.921 25.0696 296.425 25.1541 295.869 25.1541ZM306.517 19.228L305.169 19.4666C305.113 19.2943 305.023 19.1302 304.901 18.9744C304.781 18.8187 304.619 18.6911 304.414 18.5916C304.208 18.4922 303.951 18.4425 303.643 18.4425C303.222 18.4425 302.871 18.5369 302.589 18.7259C302.307 18.9115 302.166 19.1518 302.166 19.4467C302.166 19.7019 302.261 19.9074 302.45 20.0632C302.639 20.219 302.944 20.3466 303.365 20.446L304.578 20.7244C305.28 20.8868 305.804 21.1371 306.149 21.4751C306.493 21.8132 306.666 22.2524 306.666 22.7926C306.666 23.25 306.533 23.6577 306.268 24.0156C306.006 24.3703 305.64 24.6487 305.169 24.8509C304.702 25.053 304.16 25.1541 303.544 25.1541C302.688 25.1541 301.991 24.9718 301.45 24.6072C300.91 24.2393 300.579 23.7173 300.456 23.0412L301.893 22.8224C301.982 23.197 302.166 23.4804 302.445 23.6726C302.723 23.8615 303.086 23.956 303.534 23.956C304.021 23.956 304.41 23.8549 304.702 23.6527C304.994 23.4472 305.139 23.197 305.139 22.902C305.139 22.6634 305.05 22.4628 304.871 22.3004C304.695 22.138 304.425 22.0154 304.061 21.9325L302.768 21.6491C302.055 21.4867 301.528 21.2282 301.187 20.8736C300.849 20.5189 300.68 20.0698 300.68 19.5263C300.68 19.0755 300.806 18.6811 301.058 18.343C301.31 18.005 301.658 17.7415 302.102 17.5526C302.546 17.3603 303.055 17.2642 303.628 17.2642C304.453 17.2642 305.103 17.4432 305.577 17.8011C306.051 18.1558 306.364 18.6314 306.517 19.228Z" fill="white"/>
<path d="M324.25 20.0674C324.583 20.2599 324.583 20.7401 324.25 20.9326L316 25.6963C315.667 25.8887 315.25 25.6476 315.25 25.2627L315.25 15.7373C315.25 15.3524 315.667 15.1113 316 15.3037L324.25 20.0674Z" fill="white" stroke="white" stroke-linejoin="round"/>
</svg>
