<svg width="1036" height="392" viewBox="0 0 1036 392" fill="none" xmlns="http://www.w3.org/2000/svg">
<path d="M2.1753 0.309198C20.975 0.0430357 39.75 -0.0707142 59.0882 0.0452137C63.4946 0.0714293 63.0794 0.277146 64.891 0.310419C68.2204 0.371871 73.8079 0.149892 74.5912 0.149892C79.4524 0.147063 77.5528 0.507128 78.2071 0.520996C85.5013 0.66718 83.4018 0.257053 90.3756 0.217643C99.4573 0.166224 111.111 0.239587 122.053 0.259758C125.896 0.267823 124.185 0.541937 132.478 0.51886C138.354 0.502728 156.376 0.190306 164.675 0.524048C164.724 0.65007 163.676 0.789208 163.235 0.919262C175.132 0.39402 179.389 0.417064 196.255 0.545106C198.923 0.565272 201.45 0.349481 206.15 0.429136C210.848 0.508857 211.047 0.841505 220.495 0.837473C223.846 0.835244 225.879 0.600657 231.018 0.590578C245.633 0.56135 273.467 0.85272 285.462 0.862803C309.085 0.882955 321.938 0.482589 342.916 0.621707C344.532 0.63179 340.983 0.88888 343.945 0.893932C346.931 0.898973 350.042 0.55836 350.776 0.550294C358.706 0.462622 375.466 0.918928 379.877 0.863718C390.599 0.728608 380.033 0.578507 394.893 0.513977C409.042 0.45257 428.577 0.896036 442.603 0.98274C458.857 1.0835 464.098 0.439337 476.337 1.11183C519.323 1.07251 562.48 1.04845 605.515 1.01417C605.392 1.14823 605.25 1.28235 605.103 1.41641C608.506 1.32365 611.909 1.23075 615.312 1.13899C614.798 1.23879 614.311 1.33868 613.797 1.43747C629.779 1.0524 644.024 0.853756 662.698 0.959546C663.063 0.961552 662.103 1.22885 662.406 1.23574C666.616 1.28615 671.322 1.08053 675.018 1.12892C683.954 1.24488 699.131 1.82772 692.448 1.11489C713.279 1.26207 737.758 1.02106 757.611 1.15914C766.201 1.21861 768.775 1.64107 772.886 1.66544C776.994 1.68961 774.903 1.3266 776.362 1.31264C785.125 1.23199 799.547 1.24696 801.067 1.65323C802.829 1.49095 804.693 1.3267 806.48 1.16341C805.433 1.61387 832.513 1.42768 839.618 1.43869C840.916 1.4407 841.097 1.63816 842.076 1.63614C852.989 1.61085 855.657 1.30136 865.006 1.19851C868.286 1.16221 863.199 1.51018 871.62 1.35995C872.354 1.34675 871.964 1.03413 882.024 1.03615C898.083 1.03916 928.804 0.915173 947.923 1.06941C949.489 1.08151 944.72 1.42229 951.885 1.34286C954.48 1.31463 953.237 1.07265 959.529 1.07063C983.667 1.06066 1009.39 1.33323 1034.04 1.11463L1035.42 1.1122L1035.42 2.5C1035.42 2.74867 1035.42 2.99723 1035.43 3.24567C1035.39 3.12115 1035.35 2.84656 1035.31 2.5L1035.31 1.21878L1034.04 1.22102C1032.2 1.41899 1028.36 1.59748 1034.04 1.56102L1034.97 1.55937L1034.97 2.5C1034.98 3.56876 1035 4.97528 1035.02 6.79664C1035.05 8.92481 1035.29 7.33608 1035.3 8.29064C1035.37 16.0248 1035.2 22.7306 1035.29 31.1013C1035.32 33.5738 1035.51 34.1876 1035.56 37.2721C1035.62 41.825 1035.35 43.8393 1035.47 49.1267C1035.65 57.3963 1035.91 58.6736 1035.4 68.9277C1035.43 127.042 1035.57 184.887 1035.35 242.806C1035.5 259.55 1035.66 275.001 1035.71 292.454C1035.73 297.595 1035.38 298.578 1035.5 306.777C1035.52 308.613 1035.9 321.713 1035.19 323.623C1035.25 327.269 1035.26 329.573 1035.29 332.706C1035.4 330.331 1035.5 327.881 1035.6 325.604C1035.49 338.823 1035.74 349.618 1035.86 361.319C1035.94 369.934 1035.64 363.817 1035.67 369.103C1035.7 374.391 1035.77 376.795 1035.41 383.405C1035.58 385.549 1035.63 387.396 1035.63 389.5L1035.63 391.094L1034.04 391.097C1031.05 391.097 1027.54 390.994 1021.92 390.987C1020.89 390.986 1014.95 391.147 1009.98 391.115C1006.41 391.092 1005.35 390.833 999.673 390.873C998.743 390.879 986.745 391.2 982.925 391.229C976.977 391.275 967.523 390.943 966.372 390.939C949.655 390.881 943.211 391.209 931.339 390.669C928.94 390.99 919.033 391.178 911.029 391.146C900.919 391.107 880.646 390.452 877.88 391.144C866.18 390.836 867.45 391.026 853.575 391.032C840.944 391.038 807.505 390.773 797.268 390.812C787.036 390.849 792.022 391.234 787.958 391.286C781.306 391.371 784.899 391.087 780.347 391.091C767.471 391.103 756.282 391.157 743.993 391.281C743.332 391.082 742.621 390.881 741.936 390.682C741.3 390.748 740.667 390.815 740.031 390.881C737.387 390.879 734.424 390.883 731.976 390.877C752.633 391.753 712.024 390.812 699.833 390.79C689.552 390.772 672.437 391.188 661.152 391.277C658.413 391.299 660.295 391.084 659.733 391.089C653.124 391.15 652.121 391.297 643.234 391.277C638.535 391.266 633.738 390.996 629.16 390.991C595.55 390.955 563.113 391.226 529.723 391.255C524.044 391.26 519.145 390.931 514.371 390.924C507.543 390.913 503.233 391.183 496.822 391.188C490.433 391.192 481.225 390.869 476.891 390.918C472.558 390.967 479.973 391.279 472.041 391.194C468.398 391.154 474.833 390.922 470.331 390.914C456.28 390.892 436.451 391.181 421.494 390.901C422.155 390.971 423.057 391.033 423.865 391.1C407.929 391.073 393.85 390.905 377.399 390.881C371.646 390.872 361.272 391.077 355.617 391.076C349.963 391.075 347.391 390.853 342.864 390.847C341.003 390.844 341.731 391.042 340.482 391.038C324.867 390.986 316.299 390.632 299.949 390.672C240.046 390.82 178.276 390.947 117.443 391.08C114.996 391.085 113.35 391.344 109.778 391.382C104.275 391.442 104.005 391.213 103.271 391.205C98.4748 391.154 100.431 391.366 93.9932 391.366C79.8192 391.366 56.954 391.178 42.829 391.195C28.5028 391.211 15.1818 391.259 2.03516 391.317L0.221553 391.32L0.218346 389.5C0.145079 372.769 0.0567212 356.321 -0.000306606 338.445C-0.00837278 336.144 0.298098 337.704 0.302131 333.714C0.334355 305.591 0.0409241 299.637 0.123598 264.633C0.206281 229.625 0.391929 163.551 0.434276 122.572C0.434988 122.572 0.4357 122.572 0.436412 122.572C-0.130187 109.673 0.0107391 92.9823 0.439159 79.1272C1.83664 159.031 1.21472 235.482 1.27018 320.82C1.28464 343.395 1.35979 366.345 1.46195 389.5L1.46297 390.074L2.03516 390.073C70.8816 389.769 141.545 389.227 209.562 389.33C218.106 389.343 221.538 389.666 228.735 389.598C229.952 389.587 226.802 389.338 230.543 389.313C281.95 388.974 336.763 389.541 387.24 389.384C400.851 389.342 402.985 389.064 414.955 388.993C412.851 389.124 411.475 389.261 409.639 389.393C464.279 389.802 518.998 389.62 574.348 389.678C576.844 389.681 577.164 389.952 579.783 389.963C585.02 389.984 590.037 389.685 594.614 389.675C600.588 389.662 601.621 389.878 607.129 389.864C609.818 389.856 609.014 389.649 614.859 389.684C615.349 389.687 615.669 389.905 619.558 389.877C630.206 389.799 651.969 389.617 660.784 389.562C672.042 389.493 681.076 389.82 685.337 389.842C696.841 389.899 696.602 389.563 706.34 389.563C775.668 389.561 841.944 389.943 912.913 389.94C917.372 389.94 933.861 389.566 942.111 389.581C944.876 389.587 959.334 389.686 961.501 389.694C970.289 389.726 977.883 389.951 982.731 389.999C992.13 390.092 1002.63 389.739 1007.75 389.703C1015.4 389.65 1028.1 389.676 1034.04 389.69L1034.23 389.69L1034.23 389.5C1034.23 388.465 1034.23 387.635 1034.23 387.075C1034.25 377.968 1034.69 380.977 1034.59 374.441C1034.56 372.51 1034.22 374.532 1034.22 367.728C1034.22 362.028 1034.48 359.722 1034.52 355.831C1034.57 351.939 1034.18 344.799 1034.19 342.374C1034.24 329.693 1034.5 324.081 1034.51 310.274C1034.52 298.81 1034.34 245.815 1034.25 241.409C1033.84 221.677 1034.02 254.54 1034.01 256.393C1033.93 266.405 1033.77 264.94 1034.07 274.927C1033.15 283.862 1034.59 315.004 1033.49 322.984C1034.22 331.234 1033.85 338.165 1033.71 346.856C1033.5 358.868 1033.93 349.72 1033.93 358.483C1033.93 361.938 1033.6 371.948 1033.65 377.136C1033.69 381.802 1033.9 384.039 1033.95 389.5L1034.04 389.416C1033.42 389.422 1032.77 389.426 1032.08 389.427C1019.67 389.453 1009.68 389.334 999.251 389.029C997.342 389.164 995.56 389.299 993.676 389.434C986.479 389.289 979.253 389.145 972.056 389.001C973.207 389.119 974.359 389.238 975.51 389.356C973.404 389.373 971.292 389.389 969.187 389.405C962.186 389.228 955.5 389.063 948.304 388.88C928.748 389.562 934.424 388.972 923.555 388.883C912.689 388.794 906.4 389.189 898.005 389.191C886.696 389.194 881.502 389.244 870.096 389.215C863.486 389.199 852.274 388.818 861.478 389.422C840.841 389.47 812.587 389.639 794.129 389.394C788.679 389.322 795.946 389.132 795.017 389.109C790.391 388.997 786.494 389.305 781.722 389.261C773.792 389.187 758.346 388.947 752.102 388.891C743.118 388.809 728.993 389.208 727.548 389.238C719.473 389.4 717.313 389.068 714.719 389.091C699.958 389.224 696.7 389.364 692.049 388.664C688.229 388.966 672.219 389.475 668.351 388.966C668.252 389.426 654.961 389.349 646.785 389.464C645.268 389.33 643.724 389.198 642.206 389.064C625.144 389.887 591.167 389.289 568.718 389.191C568.155 389.189 567.149 389.534 563.771 389.456C563.557 389.45 563.904 389.295 561.638 389.275C554.171 389.21 525.682 388.824 522.404 388.82C510.336 388.807 508.226 389.064 500.882 389.089C491.214 389.121 489.816 388.889 480.615 388.922C476.308 388.937 472.388 389.242 465.61 389.199C461.597 389.174 461.2 388.934 458.021 388.915C446.712 388.845 438.405 388.997 428.369 388.684C425.749 389.447 420.952 388.885 415.983 388.827C395.812 388.592 370.673 388.915 353.365 388.845C299.363 388.626 251.478 388.156 198.725 388.05C190.157 388.033 188.093 388.416 179.108 388.392C175.07 388.381 170.906 388.103 164.298 388.099C158.987 388.095 151.378 388.236 144.746 388.235C142.983 388.235 142.826 387.975 140.232 387.973C120.551 387.958 101.333 388.143 81.4566 388.27C74.0899 388.317 69.5336 387.972 70.7821 388.572C67.9671 388.425 65.2302 388.297 62.5866 388.152C52.4517 388.53 44.1748 388.136 30.4656 388.232C28.9877 388.244 18.6369 388.659 12.7649 388.359C12.3492 388.573 13.2607 388.755 13.0897 388.948C9.89707 388.993 5.76146 388.939 2.03516 388.876L2.65902 389.5C2.70997 386.456 2.76612 383.684 2.77748 381.923C2.80266 378.011 2.52506 375.392 2.52235 374.215C2.51529 369.735 2.88038 370.779 2.88643 370.436C3.23624 349.558 3.04174 351.756 2.49427 339.149C2.35617 335.99 2.75726 314.557 2.32489 310.221C2.50126 310.026 2.65648 311.221 2.82479 311.564C2.87016 305.126 2.91675 298.637 2.96212 292.174C2.79273 293.545 2.62317 295.191 2.45277 296.44C2.59995 283.247 2.20082 272.277 2.21381 261.482C2.22187 255.313 2.59608 256.066 2.51441 252.442C2.49823 251.733 2.24539 252.932 2.2251 250.829C2.06075 233.669 2.32789 226.15 2.3783 208.965C2.40238 200.912 1.94279 193.864 2.24524 182.311C2.27356 181.256 2.68165 169.922 2.09692 162.921C2.28144 160.694 2.37836 158.729 2.53364 157.064C1.66551 142.89 2.51631 146.807 2.71797 127.639C2.82276 117.72 2.67064 84.3573 2.57789 73.5626C2.52138 67.1334 2.18016 67.2506 2.1665 66.1034C2.08787 59.2498 2.4186 59.2444 2.36426 52.9064C2.30982 46.566 1.93568 38.5562 1.96996 32.0445C1.99637 27.0563 2.4073 30.9884 2.26416 23.6217C2.23318 22.096 1.88444 26.4555 2.02124 18.685C2.04241 17.461 2.41962 5.04598 2.50129 2.5C2.72009 9.03688 3.00554 27.9847 3.09426 35.1082C4.15672 120.15 4.49029 264.996 4.5308 389.5L2.03516 387.004C57.1259 386.986 108.234 387.026 148.416 387.085C160.581 387.102 168.536 387.461 176.467 387.492C184.398 387.524 177.692 387.195 184.889 387.222C192.086 387.25 197.33 387.482 204.062 387.502C249.446 387.64 295.173 387.785 340.19 387.848C351.867 387.864 361.199 387.597 371.824 387.597C375.958 387.597 376.086 387.942 379.023 387.939C410.674 387.912 439.955 387.58 471.435 387.62C484.506 387.637 498.629 387.928 511.578 387.955C522.25 387.978 533.314 387.78 542.909 387.776C548.118 387.773 550.865 388.035 552.75 388.056C559.311 388.124 557.018 387.804 560.371 387.804C569.623 387.805 574.225 388.192 582.89 388.162C586.291 388.15 585.854 387.903 590.793 387.864C597.058 387.816 594.741 388.044 599.216 388.052C599.485 388.053 598.607 387.876 600.98 387.869C616.256 387.823 635.328 387.684 650.066 387.696C680.543 387.72 710.628 388.06 739.024 388.127C746.197 388.143 744.293 387.913 746.57 387.902C757.534 387.849 761.451 388.124 772.931 388.026C774.842 388.009 782.531 387.691 789.874 387.772C793.839 387.815 798.341 388.014 801.718 388.06C805.095 388.106 805.637 387.814 809.697 387.814C817.089 387.813 814.94 388.015 825.514 387.979C829.773 387.965 843.994 387.688 854.961 387.709C872.88 387.743 895.088 387.996 916.215 388.001C923.461 388.003 932.769 387.702 944.006 387.699C957.739 387.695 983.043 387.763 997.118 387.767C1004.32 387.769 1004.84 388.084 1005.69 388.097C1011.2 388.185 1008.97 387.833 1012.66 387.847C1017.73 387.866 1022.46 388.126 1027.06 388.143C1030 388.154 1030.47 387.895 1031.1 387.892C1032.08 387.889 1033.06 387.886 1034.04 387.882L1032.42 389.5C1032.34 367.143 1032.36 347.099 1032.34 324.673C1032.21 217.608 1031.95 109.67 1031.97 2.5L1034.04 4.56604C1015.57 4.56271 997.132 4.55106 978.723 4.52898C968.221 4.51688 967.826 4.19009 958.597 4.2415C949.368 4.29191 940.453 4.99771 932.864 4.21831C932.619 4.3756 932.643 4.48774 932.398 4.63092C913.329 4.40915 894.258 4.6387 875.604 4.66693C861.799 4.68809 849.557 4.66301 836.804 4.64587C825.5 4.62968 826.476 4.35563 816.689 4.71332C768.046 4.48948 718.882 4.54398 670.655 4.17192C659.346 4.75773 648.504 4.38864 632.861 4.30193C630.93 4.29096 633.002 4.50471 627.275 4.48656C620.082 4.46424 616.36 4.13767 604.248 4.15574C601.041 4.16078 577.289 4.52285 568.5 4.33733C559.712 4.15183 546.982 4.04295 537.851 3.86551C539.149 4.00564 540.792 4.1397 542.236 4.27782C537.683 4.30202 533.105 4.32534 528.552 4.34954C527.891 4.18115 527.229 4.01263 526.592 3.84323C523.949 4.00354 521.303 4.16188 518.635 4.32421C512.883 3.4592 518.78 3.74133 505.979 3.96012C499.566 4.06901 494.474 3.91788 487.889 4.00559C485.516 4.03783 483.998 4.29254 481.382 4.32512C474.97 4.40375 478.707 4.05318 474.746 4.05503C470.756 4.05806 465.027 4.44312 457.879 4.27171C465.342 3.58522 443.772 3.80916 442.744 4.34252C440.176 4.3435 438.024 4.32133 435.187 4.33641C437.807 2.98934 424.361 3.94529 419.024 4.1298C413.691 4.31405 413.906 3.95211 412.658 3.96622C409.062 4.00557 411.681 4.15586 409.161 4.16093C392.466 4.19118 376.746 3.97021 360.271 3.95005C357.901 3.94718 360.003 4.15172 357.239 4.13163C354.473 4.11147 351.822 3.90786 347.734 3.92197C346.637 3.92555 346.292 4.10522 344.584 4.10539C308.769 4.09732 274.763 3.94425 238.239 3.92106C234.934 3.91904 232.339 4.2385 225.951 4.22746C219.563 4.21637 209.87 3.92807 201.939 3.9058C199.833 3.89975 199.262 4.16585 196.472 4.1588C186.975 4.13455 178.794 3.91789 168.93 3.8826C152.261 3.82317 134.809 3.98551 117.896 3.82828C114.689 3.79904 115.202 3.5771 110.577 3.51455C102.597 3.40666 105.6 3.7303 103.984 3.77365C98.6982 3.9137 97.0372 3.48357 91.9238 3.5942C91.1419 3.61131 92.2571 3.8664 91.5557 3.8704C80.6864 3.91476 80.1158 3.31691 68.561 3.63754C58.2856 3.29379 75.4487 3.17669 77.2111 2.99421C81.5156 2.55064 70.1366 2.02939 63.4294 1.86198C57.6534 1.71783 57.696 1.99399 55.3965 1.99412C43.2308 1.99513 25.1138 2.04764 15.8595 1.9166C10.2535 1.83796 20.3584 1.72292 17.4942 1.63217C14.6555 1.54155 12.8176 1.7491 9.90514 1.52231C6.99198 1.29544 1.0492 0.627817 2.1753 0.309198ZM1024.23 1.79545C1005.57 2.88435 956.102 2.7706 929.54 2.66675C907.508 2.58004 888.514 1.74103 893.067 2.95698C916.884 2.96503 936.149 2.84309 961.336 2.88038C963.956 2.88441 979.579 2.99724 985.013 3.01741C988.072 3.02853 988.17 3.22939 992.332 3.22737C993.238 3.22635 998.258 2.96396 1000.09 2.97102C1006.38 2.99426 1025.09 3.39708 1027.7 3.38546C1033.56 3.35773 1032.86 3.14796 1034.04 3.03891L1033.5 2.5C1033.52 2.77706 1033.54 3.15841 1033.55 3.7545C1033.74 14.2565 1033.27 15.4141 1033.42 25.8181C1033.45 27.6786 1033.86 33.848 1033.81 41.5593C1033.78 44.6929 1033.57 50.0299 1033.58 52.4287C1033.64 65.5007 1033.92 80.0928 1033.87 92.0631C1033.83 101.876 1033.52 99.2373 1033.47 104.427C1033.43 109.616 1033.8 115.882 1033.82 119.432C1033.85 125.11 1033.65 132.014 1033.65 133.776C1033.71 168.488 1033.95 199.358 1034.04 232.846C1034.18 210.104 1034.31 187.388 1034.46 164.793C1034.14 151.966 1034.44 158.351 1034.55 149.907C1034.63 143.225 1034.07 141.608 1034.13 132.823C1034.13 132.831 1034.13 132.838 1034.13 132.845C1034.17 128.316 1034.55 118.5 1034.39 108.854C1034.38 108.512 1034.1 107.653 1034.09 100.432C1034.06 84.2027 1033.92 59.3338 1033.98 41.0721C1034 35.7109 1034.3 36.8029 1034.33 30.4625C1034.36 25.8377 1034.08 20.4799 1034.14 13.2382C1034.18 8.78134 1034.32 5.46233 1034.37 2.5L1034.37 2.16611L1034.04 2.1667C1030.96 2.1158 1028.27 2.15795 1025.09 2.49737C1024.58 2.25942 1024.84 2.02735 1024.23 1.79545ZM522.576 2.3753C521.3 2.34896 504.215 1.60503 509.281 2.39941C532.244 2.74424 557.07 2.57296 581.232 2.76654C572.982 1.98109 559.025 2.29066 542.084 2.34814C542.077 2.34814 542.07 2.34814 542.063 2.34814C541.263 2.35081 544.606 2.14553 540.06 2.18273C537.857 2.20087 529.406 2.51545 522.576 2.3753Z" fill="#78A564"/>
</svg>
