<svg xmlns="http://www.w3.org/2000/svg" width="1036" height="392" fill="none" viewBox="0 0 1036 392"><path fill="#78a564" d="M2.18.3c18.8-.26 37.57-.37 56.9-.25 4.41.02 4 .23 5.81.26 3.33.06 8.92-.16 9.7-.16 4.86 0 2.96.36 3.62.37 7.3.15 5.2-.26 12.17-.3 9.08-.05 20.73.02 31.67.04 3.85 0 2.14.28 10.43.26 5.87-.02 23.9-.33 32.2 0 .04.13-1 .27-1.44.4 11.9-.53 16.15-.5 33.01-.37 2.67.02 5.2-.2 9.9-.12s4.9.41 14.35.4c3.35 0 5.38-.23 10.52-.24 14.61-.03 42.45.26 54.44.27 23.63.02 36.48-.38 57.46-.24 1.61.01-1.94.27 1.02.27 3 0 6.1-.33 6.84-.34 7.93-.09 24.69.37 29.1.31 10.72-.13.15-.28 15.01-.35 14.15-.06 33.69.39 47.71.47 16.26.1 21.5-.54 33.74.13l129.18-.1-.42.4 10.21-.27-1.51.3c15.98-.39 30.22-.59 48.9-.48.36 0-.6.27-.3.28 4.22.05 8.92-.16 12.62-.11 8.93.11 24.11.7 17.43-.02 20.83.15 45.3-.09 65.16.05 8.6.06 11.16.48 15.28.5 4.1.03 2.01-.33 3.47-.35 8.76-.08 23.19-.06 24.7.34l5.42-.49c-1.05.45 26.03.27 33.14.28 1.3 0 1.48.2 2.46.2 10.9-.03 13.58-.34 22.93-.44 3.28-.04-1.81.31 6.61.16.73-.01.34-.33 10.4-.32 16.06 0 46.78-.12 65.9.03 1.57.01-3.2.35 3.97.27 2.59-.03 1.35-.27 7.64-.27 24.14 0 49.86.26 74.51.04h1.38V2.5l.01.75q-.06-.21-.12-.75V1.22h-1.27c-1.84.2-5.68.38 0 .34h.93v.94l.05 4.3c.03 2.12.27.54.28 1.5.07 7.72-.1 14.43-.01 22.8.03 2.47.22 3.09.27 6.17.06 4.56-.21 6.57-.09 11.86.18 8.27.44 9.54-.07 19.8.03 58.11.17 115.96-.05 173.88.15 16.74.31 32.2.36 49.64.02 5.15-.33 6.13-.21 14.33.02 1.83.4 14.93-.31 16.84.06 3.65.07 5.95.1 9.09l.31-7.1c-.11 13.21.14 24 .26 35.7.08 8.62-.22 2.5-.19 7.8.03 5.28.1 7.69-.26 14.3.17 2.14.22 3.99.22 6.09v1.6h-1.59c-2.99 0-6.5-.1-12.12-.11-1.03 0-6.97.16-11.94.13-3.57-.03-4.63-.29-10.3-.25-.94 0-12.93.33-16.75.36-5.95.04-15.4-.29-16.56-.3-16.72-.05-23.16.28-35.03-.26-2.4.32-12.3.5-20.31.48-10.11-.04-30.38-.7-33.15 0-11.7-.31-10.43-.12-24.3-.12-12.64 0-46.08-.26-56.31-.22s-5.25.42-9.31.48c-6.65.08-3.06-.2-7.61-.2-12.88.01-24.07.07-36.36.2l-2.05-.6-1.9.2-8.06-.01c20.65.87-19.96-.07-32.15-.09-10.28-.02-27.4.4-38.68.49-2.74.02-.86-.2-1.42-.2-6.6.07-7.6.22-16.5.2-4.7-.01-9.5-.28-14.07-.29-33.61-.04-66.05.24-99.44.26-5.68.01-10.58-.32-15.35-.33-6.83 0-11.14.26-17.55.27-6.39 0-15.6-.32-19.93-.27s3.08.36-4.85.27c-3.64-.04 2.8-.27-1.7-.28-14.06-.02-33.89.27-48.85 0l2.38.19c-15.94-.03-30.02-.2-46.47-.22-5.75 0-16.13.2-21.78.2s-8.23-.23-12.76-.23c-1.86 0-1.13.2-2.38.19-15.61-.05-24.18-.4-40.53-.37-59.9.15-121.67.28-182.5.41-2.45 0-4.1.26-7.67.3-5.5.06-5.78-.17-6.5-.18-4.8-.05-2.85.17-9.29.17-14.17 0-37.04-.2-51.16-.18-14.33.02-27.65.07-40.8.13H.24l-.01-1.82C.15 372.77.06 356.32 0 338.44c0-2.3.3-.74.3-4.73.03-28.12-.26-34.07-.18-69.08S.4 163.55.43 122.57c-.56-12.9-.42-29.59 0-43.44 1.4 79.9.78 156.35.84 241.69.01 22.57.09 45.53.2 68.68v.57h.57c68.84-.3 139.5-.84 207.52-.74 8.55.01 11.98.34 19.18.27 1.21-.01-1.94-.26 1.8-.29 51.41-.34 106.22.23 156.7.07 13.61-.04 15.75-.32 27.71-.39-2.1.13-3.47.27-5.31.4 54.64.41 109.36.23 164.7.29 2.5 0 2.82.27 5.44.28 5.24.02 10.26-.27 14.83-.28 5.98-.02 7.01.2 12.52.18 2.69 0 1.88-.21 7.73-.18.49 0 .8.22 4.7.2l41.22-.32c11.26-.07 20.3.26 24.56.28 11.5.06 11.26-.28 21-.28 69.33 0 135.6.38 206.57.38 4.46 0 20.95-.37 29.2-.36 2.77 0 17.22.1 19.4.11 8.78.04 16.37.26 21.22.3 9.4.1 19.9-.25 25.02-.29 7.65-.05 20.35-.02 26.29-.01h.19v-2.62c.02-9.1.46-6.1.36-12.63-.03-1.93-.37.1-.37-6.71 0-5.7.26-8 .3-11.9.05-3.9-.34-11.03-.33-13.46.05-12.68.31-18.29.32-32.1.01-11.46-.17-64.45-.26-68.86-.41-19.73-.23 13.13-.24 14.98-.08 10.01-.24 8.55.06 18.54-.92 8.93.52 40.07-.58 48.05.73 8.25.36 15.19.22 23.88-.21 12 .22 2.86.22 11.62 0 3.46-.33 13.47-.28 18.66.04 4.66.25 6.9.3 12.36l.09-.08h-1.96c-12.41.03-22.4-.09-32.83-.4l-5.57.41-21.62-.43 3.45.36-6.32.04-20.89-.52c-19.55.68-13.88.1-24.75 0-10.86-.09-17.15.3-25.54.31-11.31 0-16.5.05-27.91.02-6.61-.01-17.83-.4-8.62.21-20.64.05-48.9.22-67.35-.03-5.45-.07 1.82-.26.89-.28-4.63-.11-8.53.2-13.3.15-7.93-.07-23.37-.31-29.62-.37-8.98-.08-23.1.32-24.55.35-8.08.16-10.24-.17-12.83-.15-14.76.13-18.02.27-22.67-.43-3.82.3-19.83.81-23.7.3-.1.47-13.39.39-21.57.5l-4.57-.4c-17.07.83-51.04.23-73.5.13-.56 0-1.56.34-4.94.27-.21-.01.13-.16-2.13-.19-7.47-.06-35.96-.45-39.24-.45-12.06-.01-14.17.24-21.52.27-9.67.03-11.06-.2-20.26-.17-4.31.02-8.23.32-15.01.28-4.01-.03-4.41-.27-7.59-.28-11.3-.07-19.62.08-29.65-.24-2.62.77-7.42.2-12.39.15-20.17-.24-45.3.09-62.62.02-54-.22-101.88-.7-154.64-.8-8.56-.02-10.63.37-19.61.34-4.04 0-8.2-.29-14.81-.3-5.31 0-12.92.15-19.55.15-1.77 0-1.92-.26-4.52-.27-19.68-.01-38.9.17-58.77.3-7.37.05-11.93-.3-10.68.3q-4.22-.2-8.2-.42c-10.13.38-18.4-.01-32.11.08-1.48.01-11.83.43-17.7.13-.42.21.5.4.32.59-3.2.04-7.33-.01-11.05-.07l.62.62.12-7.58c.02-3.9-.25-6.53-.26-7.7 0-4.49.36-3.44.37-3.78.35-20.88.15-18.68-.4-31.3-.13-3.15.27-24.58-.17-28.92.18-.2.34 1 .5 1.34l.14-19.39c-.17 1.38-.34 3.02-.5 4.27.14-13.2-.26-24.16-.25-34.96.01-6.17.39-5.41.3-9.04-.01-.7-.26.5-.28-1.61-.17-17.16.1-24.68.15-41.87.02-8.05-.44-15.1-.13-26.65.02-1.05.43-12.39-.15-19.39.18-2.23.28-4.2.43-5.86-.86-14.17-.01-10.25.19-29.42.1-9.92-.05-43.28-.14-54.08-.06-6.43-.4-6.3-.41-7.46-.08-6.85.25-6.86.2-13.2-.06-6.33-.43-14.34-.4-20.86.03-4.98.44-1.05.3-8.42-.04-1.52-.39 2.84-.25-4.94.02-1.22.4-13.63.48-16.18.22 6.54.5 25.48.6 32.6C4.15 120.16 4.48 265 4.52 389.5l-2.5-2.5c55.1-.01 106.2.03 146.39.08 12.16.02 20.12.38 28.05.41s1.22-.3 8.42-.27 12.44.26 19.17.28c45.39.14 91.11.29 136.13.35 11.68.01 21-.25 31.63-.25 4.14 0 4.27.34 7.2.34 31.65-.03 60.94-.36 92.42-.32 13.07.02 27.19.3 40.14.33 10.67.03 21.73-.17 31.33-.17 5.2 0 7.96.26 9.84.28 6.56.06 4.27-.26 7.62-.26 9.25 0 13.86.4 22.52.36 3.4-.01 2.96-.26 7.9-.3 6.27-.04 3.95.18 8.43.2.26 0-.61-.18 1.76-.2 15.28-.04 34.35-.18 49.09-.16 30.47.02 60.56.36 88.95.43 7.18.01 5.27-.22 7.55-.23 10.96-.05 14.88.22 26.36.13 1.91-.02 9.6-.34 16.94-.26 3.97.05 8.47.24 11.85.29s3.92-.25 7.98-.25c7.39 0 5.24.2 15.81.17 4.26-.02 18.48-.3 29.45-.27 17.92.03 40.13.29 61.26.3 7.24 0 16.55-.3 27.79-.31 13.73 0 39.03.06 53.1.07 7.21 0 7.73.31 8.58.33 5.51.08 3.28-.27 6.97-.25 5.07.02 9.8.28 14.4.3 2.94 0 3.41-.25 4.04-.26h2.94l-1.62 1.61c-.08-22.36-.06-42.4-.08-64.83-.13-107.06-.39-215-.37-322.17l2.07 2.07q-27.7 0-55.32-.04c-10.5-.01-10.9-.34-20.12-.29s-18.15.76-25.74-.02c-.24.16-.22.27-.46.41-19.07-.22-38.14 0-56.8.04-13.8.02-26.04 0-38.8-.02-11.3-.02-10.32-.3-20.11.06-48.64-.22-97.8-.17-146.04-.54-11.3.59-22.15.22-37.79.13-1.93 0 .14.2-5.59.19-7.19-.03-10.91-.35-23.02-.33-3.2 0-26.96.36-35.75.18-8.79-.19-21.52-.3-30.65-.47 1.3.14 2.94.27 4.39.4l-13.69.08-1.96-.5-7.96.47c-5.75-.86.15-.58-12.65-.36-6.41.1-11.5-.04-18.1.05-2.36.03-3.88.28-6.5.32-6.41.07-2.67-.28-6.63-.27-4 0-9.72.38-16.87.21 7.46-.68-14.1-.46-15.14.07-2.56 0-4.72-.02-7.55 0 2.62-1.35-10.83-.4-16.17-.21-5.33.18-5.11-.18-6.36-.16-3.6.04-.98.19-3.5.2-16.7.02-32.41-.2-48.89-.22-2.37 0-.27.2-3.03.18-2.77-.02-5.42-.22-9.5-.2-1.1 0-1.45.18-3.16.18-35.81-.01-69.82-.17-106.34-.19-3.3 0-5.9.32-12.29.3-6.39 0-16.08-.3-24.01-.31-2.1-.01-2.68.26-5.47.25-9.5-.03-17.68-.24-27.54-.28-16.67-.06-34.12.1-51.03-.05-3.21-.03-2.7-.25-7.32-.32-7.98-.1-4.98.22-6.6.26-5.28.14-6.94-.29-12.06-.18-.78.02.34.28-.36.28-10.87.04-11.44-.55-23-.23-10.27-.35 6.89-.46 8.65-.65 4.3-.44-7.07-.96-13.78-1.13-5.78-.14-5.73.13-8.03.13-12.17 0-30.29.06-39.54-.07-5.6-.08 4.5-.2 1.63-.29-2.83-.09-4.67.12-7.58-.1C6.99 1.3 1.05.62 2.18.3m1022.05 1.5c-18.66 1.08-68.13.97-94.69.87-22.03-.09-41.03-.93-36.47.29 23.81 0 43.08-.12 68.27-.08 2.62 0 18.24.12 23.67.14 3.06 0 3.16.2 7.32.2.9 0 5.93-.26 7.76-.25 6.29.02 25 .43 27.61.42 5.86-.03 5.16-.24 6.34-.35l-.54-.54c.02.28.04.66.05 1.25.19 10.5-.28 11.66-.13 22.07.03 1.86.44 8.03.39 15.74-.03 3.13-.24 8.47-.23 10.87.06 13.07.34 27.66.29 39.63-.04 9.82-.35 7.18-.4 12.37-.04 5.19.33 11.45.35 15 .03 5.68-.17 12.58-.17 14.35.06 34.7.3 65.58.39 99.07q.2-34.14.42-68.06c-.32-12.82-.02-6.44.09-14.88.08-6.69-.48-8.3-.42-17.09v.03c.04-4.53.42-14.35.26-24-.01-.34-.29-1.2-.3-8.42-.03-16.23-.17-41.1-.11-59.36.02-5.36.32-4.27.35-10.6.03-4.63-.25-9.99-.19-17.23.04-4.46.18-7.78.23-10.74v-.33h-.33c-3.08-.05-5.77-.01-8.95.33-.51-.24-.25-.47-.86-.7m-501.65.58c-1.28-.03-18.37-.77-13.3.02 22.96.34 47.79.17 71.95.37-8.25-.79-22.2-.48-39.15-.42h-.02c-.8 0 2.55-.2-2-.17-2.2.02-10.65.34-17.48.2"/></svg>