<svg width="154" height="1648" viewBox="0 0 154 1648" fill="none" xmlns="http://www.w3.org/2000/svg">
<path d="M58.7682 155.741C58.3754 159.527 56.7313 163.807 54.06 166.595C51.3888 169.383 46.7275 172.078 42.9043 172.806C35.6634 174.182 44.2715 168.925 45.3324 167.981C51.9145 162.136 56.1764 155.79 52.6336 146.719C53.0768 146.471 57.479 153.096 57.6815 151.703C53.1759 139.579 49.3712 127.35 46.208 114.803C47.718 116.903 48.5856 120.2 49.3613 122.802C52.2785 132.59 56.7346 144.7 58.1277 154.567C58.2064 155.133 58.5811 155.289 58.7671 155.737L58.7682 155.741Z" fill="#9EBB8E"/>
<path d="M25.881 70.1654C30.8743 84.769 35.5892 99.4273 40.4347 114.083C40.145 114.194 40.1935 114.658 39.9049 114.761C38.541 115.254 36.3144 115.16 34.844 115.434C26.184 95.1903 21.889 70.8253 12.9736 50.9545C5.83324 35.0471 -15.7837 43.6753 -15.064 55.9714C-14.6868 62.3984 -8.55524 77.1529 -6.25205 84.0804C-4.06856 90.6468 -1.68214 97.1347 0.501359 103.701C6.49254 121.724 12.0537 142.571 18.5773 159.766C17.0891 160.926 16.0549 162.505 14.0393 162.775C-0.0525455 131.565 -7.22429 93.502 -20.5158 61.5466C-26.8097 40.9683 0.187489 26.0055 14.352 42.2038C19.6644 48.2803 23.1747 62.2364 25.8844 70.1643L25.881 70.1654Z" fill="#D4DEEC"/>
<path d="M-10.1906 38.4043C-2.3252 34.8126 6.63162 35.1485 12.4619 41.8251C10.2483 41.476 8.44228 39.7631 6.3492 38.9508C-4.40542 34.7752 -13.6256 41.1983 -19.4317 50.0078C-19.3561 45.5586 -14.191 40.2282 -10.1906 38.4043Z" fill="#D4DEEC"/>
<path d="M26.7182 84.461L29.7213 93.1383L32.0414 102.042C30.6511 99.2848 30.2043 96.1812 29.2682 93.2885C28.3723 90.5285 26.3362 87.4984 26.7216 84.4599L26.7182 84.461Z" fill="#D4DEEC"/>
<path d="M8.23318 140.33L9.51207 143.046L10.4844 146.365C9.13355 144.553 9.12518 142.308 8.23206 140.327L8.23318 140.33Z" fill="#D4DEEC"/>
<path d="M58.7681 155.74C58.5822 155.292 58.2075 155.136 58.1288 154.57C56.738 144.699 52.2796 132.593 49.3624 122.804C48.5867 120.203 47.7158 116.907 46.2091 114.806C49.3722 127.353 53.177 139.582 57.6826 151.706C57.4801 153.099 53.0779 146.474 52.6347 146.722C56.1775 155.793 51.9156 162.139 45.3335 167.984C44.2726 168.928 35.6645 174.185 42.9053 172.808C46.7286 172.081 51.3616 169.414 54.0611 166.598C50.7189 172.695 38.8185 177.474 32.2451 177.094C23.9801 176.615 17.2668 169.935 14.0361 162.779C16.0506 162.505 17.0893 160.928 18.5742 159.769C22.038 168.897 32.0831 173.072 40.9505 169.186C56.6615 162.305 51.6142 149.18 47.9361 136.722C46.8509 133.051 45.7554 129.428 44.562 125.781C43.2802 121.857 41.7224 117.983 40.435 114.086C35.5894 99.43 30.8745 84.7717 25.8813 70.1681C27.4033 69.9822 31.0805 67.6473 32.0415 69.0071L58.9698 151.785C59.3605 153.315 58.9143 154.369 58.7738 155.746L58.7681 155.74Z" fill="#9EBB8E"/>
<path d="M29.9973 70.055C31.9842 68.5649 32.6228 72.9723 33.1596 74.66C38.2297 90.6166 42.7293 106.8 46.7964 123.025C41.3112 107.809 35.9548 92.4718 31.6451 76.9188C31.2452 75.4742 28.8036 70.9488 30.0007 70.0539L29.9973 70.055Z" fill="#9EBB8E"/>
<path d="M18.1562 161.158L25.4637 169.54C22.2545 167.716 19.6138 164.537 18.1562 161.158Z" fill="#9EBB8E"/>
<path d="M34.8436 115.435C36.3185 115.163 38.5417 115.258 39.9045 114.762C41.588 118.369 42.8204 122.168 44.1082 125.929C45.2069 129.143 47.0505 133.619 47.7089 136.795C51.2035 153.637 28.1116 163.522 17.5768 149.919C12.7547 143.692 3.95066 113.104 0.726379 103.623C-1.50222 97.0793 -3.5854 90.476 -5.80047 83.9275C-5.64456 83.7185 -5.03343 82.4484 -4.92741 82.3833C-3.44418 81.4572 0.233773 80.2459 0.81289 82.6163C8.05291 100.75 12.173 121.857 19.7178 139.665C23.2433 147.982 30.2617 154.201 38.2865 145.949C46.8227 137.167 35.0029 125.01 34.8436 115.435Z" fill="#9EBB8E"/>
<path d="M-2.73975 82.9171C-1.58755 81.9434 -0.486471 83.1256 0.0518616 84.1273C3.68856 96.4719 7.49764 108.793 11.752 120.952C15.3652 131.277 18.7573 146.157 28.3758 152.125C30.2935 153.314 30.6224 151.815 32.382 151.678C32.8935 151.636 33.7548 152.275 34.3427 152.283C35.2291 152.296 37.7585 151.447 38.2722 152.363C39.8762 155.244 29.6885 154.342 28.3737 154.01C21.3259 152.243 19.2036 147.47 16.6963 141.172C10.1776 124.796 4.53221 105.779 -1.38721 88.8785C-1.77439 87.7781 -3.50941 83.573 -2.73187 82.9182L-2.73975 82.9171Z" fill="#9EBB8E"/>
<path d="M38.0517 115.626C38.9856 115.047 39.4115 115.981 39.7872 116.684C41.6399 120.146 46.2513 134.752 47.1384 138.867C47.8851 142.332 45.1918 147.353 42.43 149.347C41.8757 149.43 42.0935 148.264 42.1322 148.064C42.4503 146.396 44.6372 143.641 45.1674 141.277C46.3918 135.856 42.9895 128.839 41.052 123.547C40.667 122.499 37.5991 116.049 38.0472 115.623L38.0517 115.626Z" fill="#9EBB8E"/>
<path d="M38.5042 148.893C39.2891 148.43 39.0861 149.041 38.729 149.571C38.3225 149.534 38.1613 149.093 38.5042 148.893Z" fill="#9EBB8E"/>
<path d="M17.4357 1440.77C16.0143 1441.45 13.354 1433.4 11.4483 1432.67C17.4584 1413.57 23.7476 1394.55 30.7694 1375.8L36.9607 1385.4C31.5666 1399.53 27.3902 1414.15 22.2839 1428.36C21.7333 1429.89 18.0353 1440.49 17.438 1440.77L17.4357 1440.77Z" fill="#F1A198"/>
<path d="M40.2754 1349.8C40.3124 1349.76 41.0165 1349.76 40.9876 1349.07C42.1599 1349.14 47.2469 1355.48 47.2868 1357.16L37.5713 1383.93L36.8621 1383.52C34.9445 1380.5 33.7321 1376.93 31.1371 1374.47C30.7322 1373.2 38.7845 1351.26 40.2777 1349.8L40.2754 1349.8Z" fill="#E0E5EC"/>
<path d="M20.4432 1436.18C23.5834 1428.23 26.4309 1419.82 29.2719 1411.52C32.2108 1402.93 35.1559 1394.33 37.9132 1385.68C49.0949 1388.78 61.0418 1386.81 72.3824 1388.76L51.2291 1444.07L20.8212 1443.39C15.9912 1443.06 19.38 1438.86 20.4409 1436.18L20.4432 1436.18Z" fill="#F1A198"/>
<path d="M20.4424 1436.18L29.2711 1411.52C26.4314 1419.82 23.5848 1428.23 20.4424 1436.18Z" fill="#F1A198"/>
<path d="M49.5091 1439.87L49.7251 1436.84C53.3935 1426.65 57.9137 1416.62 61.7542 1406.51C63.3978 1402.19 63.4341 1396.66 67.1054 1393.01L49.5078 1439.87L49.5091 1439.87Z" fill="#F1A198"/>
<path d="M27.2593 1425.57C29.1222 1419.78 30.2548 1412.15 32.9028 1406.9C32.9925 1406.72 33.5585 1405.41 33.9269 1406.16L27.8471 1426.04L29.0286 1424.73C27.7085 1430.21 24.5784 1435.38 23.6866 1440.81C23.5122 1440.77 22.6859 1440.76 22.613 1440.61C23.5703 1437.46 22.2711 1440.36 21.9563 1440.01C23.6275 1435.15 25.6832 1430.46 27.2593 1425.57Z" fill="#F1A198"/>
<path d="M37.8319 1396.06C38.3032 1395.96 37.9196 1397.03 37.8979 1397.31C37.6022 1401.07 34.7005 1408.97 33.3371 1412.79C32.7663 1414.39 31.9748 1416.54 30.9165 1417.86L37.8319 1396.06Z" fill="#F1A198"/>
<path d="M27.259 1425.57C25.6828 1430.46 23.6284 1435.16 21.9559 1440.01C22.2708 1440.37 23.5687 1437.45 22.6127 1440.61C22.6832 1440.76 23.5105 1440.77 23.6862 1440.81C25.2385 1441.2 27.405 1440.49 29.0188 1441.21C27.6991 1441.49 22.1627 1441.68 21.6094 1440.53L27.2603 1425.57L27.259 1425.57Z" fill="#F1A198"/>
<path d="M37.8971 1397.31C37.9188 1397.03 38.3024 1395.95 37.8311 1396.05C38.6949 1395.12 39.9547 1390.83 40.5306 1390.34C42.2312 1388.9 49.2553 1390.04 51.5947 1390.42C49.3431 1391.08 42.6738 1389.4 41.0494 1390.7C40.4801 1391.15 39.1707 1396.52 37.8971 1397.31Z" fill="#F1A198"/>
<path d="M66.4365 1390.97C61.6302 1390.6 56.8051 1390.41 52.0498 1389.52L59.3737 1389.77L66.4352 1390.97L66.4365 1390.97Z" fill="#F1A198"/>
<path d="M48.9493 1441.15C47.3545 1442.5 40.9552 1441.2 38.7825 1441.54C38.8136 1440.92 39.116 1441.01 39.5637 1440.94C41.7505 1440.55 45.8467 1441.75 48.3256 1441.18L49.0213 1440.14C49.615 1440.22 49.0351 1441.08 48.9493 1441.15Z" fill="#F1A198"/>
<path d="M47.287 1357.16C47.248 1355.48 42.1624 1349.14 40.9878 1349.07C41.0167 1349.76 40.3126 1349.76 40.2756 1349.8C40.802 1347.76 43.2374 1346.23 45.0489 1345.5C47.9903 1344.32 72.0933 1346.31 74.9832 1347.9C78.4841 1349.83 84.2893 1356.86 83.6756 1361.1L72.4007 1387.94C69.9296 1387.52 67.3513 1387.14 64.8533 1387.01C58.4131 1386.68 48.1934 1387.18 42.3089 1386.11C41.0226 1385.88 39.7631 1385.32 38.553 1384.83L47.2857 1357.16L47.287 1357.16Z" fill="white"/>
<path d="M77.9028 1357.08C71.1459 1356 54.5398 1357.21 49.5144 1353.17C48.1275 1352.05 47.2549 1350.28 45.7493 1349.31C44.9444 1344.29 52.4751 1347.8 54.8095 1348.09C59.0274 1348.62 71.8261 1348.65 74.7345 1350.3C76.5266 1351.32 80.5596 1355.11 77.9028 1357.08Z" fill="#E0E5EC"/>
<path d="M45.7494 1349.31C47.255 1350.28 48.1277 1352.05 49.5146 1353.17C54.5399 1357.21 71.1461 1356 77.903 1357.08C79.0259 1357.26 80.1595 1357.64 81.2616 1357.94C81.2098 1358.59 80.9599 1358.44 80.4804 1358.54C78.3866 1358.99 56.2316 1356.92 53.6111 1356.19C50.5727 1355.35 46.2887 1352.66 45.7517 1349.31L45.7494 1349.31Z" fill="#D4DEEC"/>
<path d="M70.8203 1383.99C70.2581 1384.47 67.3614 1385.08 67.1656 1384.58C69.5456 1382.24 70.1244 1378.82 72.573 1376.87C72.9261 1377.95 71.3013 1383.57 70.8226 1383.98L70.8203 1383.99Z" fill="#DCD9D8"/>
<path d="M-33 1602.25C-33 1626.27 -19.5244 1647.73 4.5 1647.73C28.5244 1647.73 52.5 1626.27 52.5 1602.25C52.5 1574.73 27.5 1551.73 2 1564.73C-19 1575.44 -33 1578.22 -33 1602.25Z" fill="#79A363" fill-opacity="0.8"/>
<path d="M-8.5 1603.6C-8.5 1613.84 -2.82606 1623 7.28947 1623C17.405 1623 27.5 1613.84 27.5 1603.6C27.5 1591.86 16.9737 1582.05 6.23684 1587.59C-2.60526 1592.16 -8.5 1593.35 -8.5 1603.6Z" fill="#79A363" fill-opacity="0.8"/>
<path d="M92.5 653.5C92.5 616.47 76 537 0 498V848.5C41 826.5 92.5 754 92.5 653.5Z" fill="#F1A198"/>
<path d="M-1.23069 523.328C0.452001 524.19 1.96533 525.28 3.23832 526.704C3.52802 527.028 3.27399 527.242 3.36778 527.402C3.53941 527.695 4.18096 527.81 4.237 527.863C4.58679 528.187 4.05499 528.478 4.08631 528.538C4.44099 529.197 4.74535 528.581 5.28175 529.009C5.97955 529.567 6.71269 530.453 7.44193 531.236C7.69674 531.512 7.26827 531.7 7.85987 532.252C8.27865 532.64 9.86008 533.569 10.0207 534.529C9.87653 534.67 9.6442 534.747 9.46301 534.858C10.865 535.131 11.1264 535.464 12.0699 536.822C12.2187 537.037 12.6408 536.992 12.8487 537.42C13.0555 537.848 12.6693 538.213 13.2748 538.901C13.49 539.144 13.9037 539.049 14.241 539.419C15.2053 540.467 16.56 542.853 17.2654 543.775C18.6598 545.586 19.9254 546.191 20.9631 547.96C21.0434 548.095 20.5082 548.064 20.6723 548.299C20.8375 548.536 21.455 548.456 21.5078 548.507C22.0794 549.045 22.4335 550.792 22.7495 551.089C23.524 551.813 23.1331 550.836 24.0432 551.959C24.9102 553.032 25.3828 555.001 26.0069 556.209C26.7292 557.608 27.8712 557.484 27.5945 559.06C29.8591 562.535 31.9888 566.11 34.0158 569.737C33.8216 569.829 33.6264 569.919 33.4311 570.009C33.7174 570.226 34.0035 570.444 34.2876 570.663C34.1234 570.695 33.9604 570.729 33.7978 570.76C35.0645 571.82 35.9883 572.899 36.6523 574.583C36.6653 574.616 36.242 574.726 36.2454 574.757C36.3564 575.155 36.8536 575.412 36.9432 575.765C37.1627 576.617 36.9626 578.336 37.7055 577.258C38.3796 579.169 39.7247 581.128 40.3126 582.968C40.5672 583.763 40.0496 584.264 40.1742 584.64C40.2984 585.016 40.7483 584.598 40.8254 584.717C41.2853 585.435 41.8118 586.716 41.2704 587.105C41.5753 587.157 41.8872 587.218 42.1954 587.275C41.4963 587.465 42.7804 589.751 43.0171 590.39C43.0611 590.506 42.7751 590.641 42.8134 590.727C43.2443 591.681 43.7949 591.725 44.2821 592.507C44.4523 592.781 43.7549 592.528 44.2756 593.196C44.3207 593.254 44.7745 593.036 45.1222 593.943C45.6786 595.383 46.8974 598.092 47.2748 599.913C47.3065 600.061 46.6404 599.812 46.9886 600.417C47.1136 600.637 47.44 600.396 47.6416 600.965C48.4309 603.183 48.7872 605.683 49.853 607.867C49.4093 607.912 48.6876 607.244 49.3306 608.388C49.4344 608.57 49.7622 608.309 49.8033 608.392C50.1311 609.072 50.0514 609.77 50.4236 610.494C50.5343 610.708 50.845 610.677 50.9981 610.94C51.2246 611.327 50.8593 611.635 51.1803 612.077C51.6824 612.766 52.1168 612.776 51.6008 613.948C53.1534 619.32 54.6661 624.702 55.3591 630.25C55.8939 631.82 56.4067 633.225 56.7656 634.876C56.8715 635.37 56.3397 635.552 56.6431 636.31C56.7113 636.48 57.4871 637.645 56.4018 637.984C56.547 638.314 56.5807 638.531 56.6806 638.817C56.8127 638.571 56.945 638.317 57.0787 638.078C57.0784 639.345 57.6112 640.374 57.9311 641.467C58.1649 642.275 57.6184 641.747 57.725 642.244C57.8286 642.74 57.9622 642.959 57.4583 643.669C58.1717 644.106 57.7443 644.494 57.8122 645.415C57.8199 645.514 58.1284 646.062 58.1164 646.539C58.1073 646.88 57.7035 647.018 57.8102 647.572C57.828 647.663 58.4234 648.801 58.4915 649.167C58.6027 649.742 58.1189 650.672 58.1171 650.78C58.1011 652.442 58.6388 653.054 57.7977 654.203C58.3148 654.406 58.628 655.42 58.5732 656.2C58.5128 657.185 57.4035 659.139 58.4934 659.46C57.9441 660.598 58.2629 660.431 58.1717 661.837C58.1333 662.397 57.971 663.342 57.7754 664.268C57.5258 665.466 57.2422 666.697 57.1999 667.25C57.1224 668.236 57.7989 667.846 57.8249 668.248C57.8673 668.907 57.4677 668.496 57.4093 668.934C57.2435 670.173 57.1564 671.256 57.1489 672.463C56.8233 672.472 56.4954 672.485 56.1694 672.495C56.2637 672.574 56.358 672.653 56.4521 672.732C56.4046 672.984 56.3605 673.267 56.3087 673.499C58.0429 671.774 55.8671 675.389 55.5864 676.522C55.3622 677.491 55.664 679.249 55.5572 680.349C55.532 680.617 55.2368 680.36 55.2323 680.416C55.1833 681.063 55.3912 681.213 55.158 682.045C55.0334 682.485 54.5026 682.833 54.3869 683.26C53.537 686.401 53.0887 689.543 52.1373 692.647C51.9751 693.176 51.3253 693.463 51.1685 693.897C50.9436 694.518 51.2184 695.05 51.0205 695.641C50.8227 696.233 50.0364 696.901 49.9675 697.321C49.8969 697.742 50.6131 697.237 50.2205 697.913C50.0398 698.223 49.9046 697.51 49.744 697.915C49.2472 699.17 48.9793 701.147 48.0198 702.316C48.1469 702.299 48.2725 702.255 48.4005 702.223C47.7795 703.641 47.0001 704.797 46.3229 706.234C46.0846 706.739 45.9678 707.791 45.7356 708.289C45.5041 708.786 45.077 708.861 44.8818 709.252C44.8007 709.412 45.1181 709.485 45.0605 709.591C44.3302 710.929 43.4574 711.422 42.8009 712.854C40.3767 718.12 37.4746 723.384 34.2369 728.344C34.107 728.543 34.3527 728.913 34.2003 729.232C33.963 729.727 33.6498 729.534 33.5975 729.584C33.2572 729.917 33.6444 729.962 33.272 730.47C32.4561 731.589 30.8541 733.182 30.0101 734.266C28.0603 736.779 26.5432 739.008 24.4996 741.4C24.3526 741.573 24.1037 741.124 23.8287 741.402C21.8778 743.331 21.7964 744.097 19.1741 746.337C16.5681 748.594 11.2973 752.417 7.87348 754.535C7.87285 754.534 7.87222 754.533 7.87159 754.532C7.31705 755.988 5.76953 756.694 4.24972 756.792C9.80699 750.891 16.0647 747.183 21.8457 741.22C27.8947 734.954 32.1251 726.655 36.722 719.394C37.1568 718.709 37.7704 718.683 38.0204 718.038C38.0625 717.929 37.5685 717.988 37.7114 717.661C39.6836 713.179 42.8216 708.932 44.5076 704.408C44.9583 703.194 44.6275 702.833 44.956 701.74C45.0738 702.005 45.2263 702.21 45.3542 702.452C47.9587 697.894 49.4241 692.838 50.9833 687.798C51.0544 687.57 51.48 687.661 51.5648 687.424C51.7351 686.951 51.4046 686.361 51.5047 685.937C51.6353 685.382 51.9944 685.377 52.109 684.861C52.1639 684.609 51.824 684.599 52.0202 684.073C52.0366 684.029 52.3816 684.087 52.4316 683.714C52.5692 682.699 52.7746 680.611 52.8745 679.77C53.0054 678.702 53.6983 677.972 53.8167 677.58C54.1338 676.521 53.6027 676.433 53.7847 675.524C54.5479 671.664 55.3565 667.912 55.9861 664.057C56.4078 661.495 56.6405 658.706 56.6442 656.01C56.6483 655.578 56.0355 653.982 56.0353 653.22C56.0406 652.963 56.1482 651.568 56.1494 651.353C56.1609 650.488 56.4817 649.784 56.5282 649.308C56.6214 648.405 55.9795 647.414 55.8831 646.935C55.7176 646.109 55.6457 644.585 55.6209 644.219C55.5653 643.342 56.2887 643.547 56.0585 642.943C55.9897 642.767 55.4799 643.017 55.4068 642.38C55.3465 641.846 55.7201 641.58 55.7467 641.201C55.773 640.823 55.0668 640.221 55.0513 639.987C54.9729 638.745 55.3085 638.199 55.1316 636.882C54.9995 635.765 53.8483 630.857 53.6032 630.448C52.6063 628.74 53.4853 631.748 53.4914 631.937C53.537 632.903 53.2644 632.807 53.9003 633.657C52.5843 634.705 55.3359 637.324 53.6944 638.313C54.963 638.905 54.4709 639.66 54.3441 640.514C54.1658 641.69 54.7339 640.741 54.8411 641.567C54.8831 641.895 54.4632 642.885 54.5893 643.363C54.7174 643.853 55.1458 644.021 55.2348 644.682C55.3943 645.869 55.2813 646.78 54.8713 647.835C55.1006 648.002 55.3288 648.157 55.5572 648.322C55.3744 649.028 55.1864 649.724 54.9917 650.405C55.1745 650.288 55.3587 650.17 55.5411 650.052C55.5796 650.247 55.616 650.443 55.6518 650.638C55.4018 651.309 55.1673 651.983 54.8958 652.668C56.0392 654.485 55.0765 653.937 54.949 654.991C54.8151 656.033 55.4413 656.624 55.4311 657.406C55.4139 658.458 55.4743 659.001 55.3747 660.059C55.318 660.668 54.6331 661.682 55.6572 660.877C55.6327 661.83 55.6162 662.96 55.5246 664.003C55.4197 665.194 55.2423 666.356 54.912 667.235C54.7265 667.732 54.5214 667.006 54.4715 667.089C54.2336 667.497 54.6696 667.932 54.5328 668.372C54.3073 669.104 53.6975 670.49 53.5091 671.055C53.2423 671.866 53.6319 673.302 53.652 673.445C53.7675 674.248 53.2063 674.35 53.1961 674.598C53.1389 676.009 53.2885 676.365 52.1042 676.567C52.5071 677.017 52.9808 678.68 52.1038 678.859C52.8206 679.027 52.4201 680.235 52.4162 681.035C52.1755 681.126 51.9353 681.219 51.6929 681.309C52.5979 683.196 50.8425 686.106 50.0851 688.095C50.0669 688.146 50.5689 688.394 50.3579 688.667C50.3423 688.684 50.1144 688.581 50.0219 688.779C49.7257 689.434 48.3224 691.82 48.2151 692.11C47.8381 693.186 48.162 693.506 47.9735 694.176C47.7224 695.06 47.3273 695.063 47.084 695.901C46.9688 696.292 47.3014 696.809 47.0132 697.388C46.8428 697.73 46.4703 697.63 46.3354 697.901C45.8524 698.864 45.7911 699.687 44.9752 700.381C46.0163 701.065 45.0121 701.15 44.7483 701.549C43.679 703.173 43.1998 705.546 42.406 706.987C39.9335 711.474 37.1477 715.09 34.4408 719.207C33.9991 719.874 34.4208 720.357 33.9352 721.055C33.7164 721.367 33.1325 721.457 32.7913 721.971C32.5157 722.384 32.3151 723.1 31.9662 723.616C31.8737 723.753 31.5204 723.533 31.3818 723.732C30.3312 725.24 29.5337 726.869 28.5796 728.48C28.2268 729.075 27.5282 729.078 28.3617 729.568C28.0133 729.636 27.6938 729.715 27.3586 729.768C27.2514 730.891 26.2794 731.105 25.5873 732.194C25.5154 732.312 25.4034 733.487 24.6807 733.596C24.9162 733.847 25.1929 733.97 25.4187 734.182C25.1637 734.686 24.3173 735.061 24.0412 735.313C23.7675 735.564 23.9354 736.043 23.8644 736.13C23.5905 736.454 23.2211 735.99 23.1924 736.008C21.4621 737.088 21.8367 737.128 21.6535 738.601C21.6072 738.978 19.7424 739.973 19.9347 740.75C19.7225 740.563 19.6274 740.307 19.4599 740.093C18.9786 740.472 18.4906 740.845 18.0037 741.213C18.2841 741.319 18.5841 741.407 18.8587 741.52C17.8022 742.216 17.479 743.389 16.7014 744.064C16.2573 744.448 15.9115 743.952 15.7432 744.277C15.7103 744.341 16.0637 744.568 15.9361 744.725C14.8875 745.997 14.0548 746.142 12.7497 747.102C12.1336 747.55 12.0596 748.549 10.8932 748.832C10.7842 748.859 9.54546 748.978 9.55823 750.124C9.21279 750.011 8.97111 749.994 8.69835 749.884C8.41128 751.793 7.92753 750.479 6.25414 751.223C5.39653 751.616 2.87281 753.485 2.059 754.11C1.5823 754.49 1.85855 754.959 1.77522 755.032C1.26876 755.463 1.01013 755.001 0.527251 755.366C0.0443037 755.731 -0.34482 756.616 -0.926339 756.853C-1.37001 757.032 -1.33386 756.277 -1.85457 756.796C-1.96229 756.905 -1.34054 757.22 -2.10185 757.353C-2.22275 757.377 -3.54517 757.345 -3.81599 757.324C-3.40231 756.751 -2.01574 755.558 -1.4952 755.122C7.91543 748.28 24.0643 732.615 30.6271 722.308C31.2688 721.395 32.149 721.088 32.5876 720.493C33.0245 719.896 32.2469 720.142 32.6392 719.6C33.029 719.062 33.5989 718.845 33.9508 718.327C36.3208 714.839 38.5422 711.185 40.4374 707.428C40.9267 706.456 40.9015 705.487 41.3063 704.583C41.4638 704.231 41.9726 704.443 42.0796 704.189C43.2318 701.465 43.762 698.727 44.8323 696C45.2766 694.87 46.1545 693.771 46.5805 692.64C46.9338 691.706 46.9515 690.618 47.2121 689.763C47.3522 689.298 47.8286 689.176 47.912 689.017C48.196 688.461 47.6422 688.517 47.7327 688.217C47.9818 687.391 48.6979 687.147 48.8743 686.351C48.9424 686.039 48.5517 685.972 48.6165 685.511C48.6982 684.926 48.9915 685.232 49.1147 684.831C49.1229 684.807 48.8291 684.812 48.8763 684.595C49.181 683.193 49.4017 681.415 49.7365 680.079C50.4299 677.321 51.526 674.674 52.095 672.062C52.2371 671.402 51.8431 671.515 51.8619 671.302C51.9509 670.279 52.4447 669.988 52.4542 668.898C52.4561 668.717 52.0614 667.927 52.2857 667.268C52.4068 666.912 52.7794 666.539 52.8953 666.235C53.0111 665.931 52.554 665.819 52.6029 665.442C52.6892 664.756 52.9871 664.997 53.0491 664.004C53.0535 663.934 53.0484 663.833 53.0378 663.71C52.9845 663.171 52.791 662.141 52.8801 661.3C53.058 659.7 53.539 657.638 53.5408 655.694C53.5433 655.008 53.0537 654.15 53.0197 653.126C52.9826 651.844 52.97 649.514 52.8734 648.188C52.826 647.509 53.3224 647.417 53.3371 647.334C53.4356 646.817 52.8915 647.068 52.8851 646.729C52.876 646.262 53.2494 645.787 53.2355 645.354C53.2266 645.078 52.8093 645.075 52.8003 645.016C52.441 642.794 52.2478 640.911 51.8918 638.731C49.9756 627.125 46.527 615.673 43.0007 604.488C42.7001 603.543 43.1824 603.339 42.8214 602.55C42.4601 601.758 41.1174 601.353 42.0479 600.258C41.8034 600.322 41.6354 600.385 41.4121 600.442C41.1322 598.623 40.1651 597.094 39.4856 595.475C38.9809 594.275 38.594 593.201 38.1666 592.086C37.7879 591.097 38.2266 591.011 37.3436 590.384C35.9074 586.042 33.9021 581.886 32.4034 577.573C31.0896 577.045 31.1571 575.875 30.5963 574.506C30.5277 574.337 30.3155 574.668 30.0913 574.18C29.8082 573.569 30.1067 573.014 29.5391 572.026C29.3907 571.763 27.8061 570.086 27.658 569.23C27.5115 568.366 27.0659 567.243 26.8752 566.357C26.7436 566.576 26.6365 566.818 26.5139 567.046C26.2651 566.697 26.0152 566.345 25.764 565.997C25.9642 565.807 26.1643 565.615 26.3666 565.425C26.0189 565.342 25.6736 565.258 25.3223 565.177C26.2306 564.002 26.13 564.707 25.2069 563.859C24.7447 563.435 24.7 562.901 24.2538 562.449C24.0921 562.287 23.671 562.381 23.4967 562.201C23.0706 561.759 23.7318 561.757 23.5308 561.444C23.3261 561.129 22.5184 561.006 22.387 560.295C23.6916 560.291 22.2871 558.778 21.5193 559.168C21.3861 558.968 21.3049 558.78 21.1381 558.572C23.0723 557.588 21.0953 557.375 20.571 557.128C20.0467 556.879 20.537 556.571 20.4524 556.487C20.2101 556.243 20.15 556.581 20.01 556.391C19.0874 555.126 18.5285 553.717 17.6461 552.443C17.5191 552.261 17.3701 552.612 17.2438 552.384C17.1174 552.155 17.2338 551.762 16.9879 551.466C16.9221 551.386 16.6716 551.531 16.5762 551.402C14.5908 548.696 12.8094 546.037 10.6262 543.394C10.4282 543.155 9.8822 543.301 9.50667 542.836C9.13165 542.372 8.88332 541.384 8.41542 540.804C8.2915 540.65 7.93794 540.893 7.77268 540.691C7.21004 540.003 6.95209 539.205 6.36374 538.487C5.36871 537.274 4.04988 536.276 3.11082 534.977C2.93168 534.731 3.21696 534.514 2.97878 534.136C2.56611 533.484 2.40315 534.052 2.24656 533.995C1.73622 533.808 2.10508 533.206 1.63603 532.999C1.56419 532.967 1.35583 533.334 1.3041 533.292C0.522569 532.639 1.1408 531.906 -0.00276661 531.537C-0.335134 530.476 0.974857 531.44 1.29638 531.346C2.08194 531.112 1.86844 529.76 1.57556 529.125C1.32499 528.579 1.02777 528.907 0.865344 528.759C0.00467682 527.969 -1.35118 526.883 -1.88861 526.147C-2.21475 525.7 -1.35871 526.194 -1.47235 525.905C-1.58494 525.616 -1.93519 525.753 -1.91296 525.295C-1.88962 524.837 -1.64251 523.648 -1.23069 523.328ZM48.498 607.223C46.3141 606.056 44.9942 601.547 44.2749 599.117C43.6861 597.085 44.2955 594.937 42.6314 596.03C43.4168 598.132 44.2379 599.812 44.963 602.078C45.0377 602.309 45.3507 603.78 45.483 604.28C45.5586 604.562 45.2569 604.673 45.3844 605.047C45.4131 605.127 45.9612 605.448 46.0046 605.617C46.1585 606.199 46.079 608.066 46.1721 608.306C46.431 608.948 46.8284 608.546 47.0038 608.804C47.5867 609.672 46.9013 609.997 47.4184 610.868C47.5105 611.024 48.305 611.397 48.4273 612.119C48.4764 612.413 48.2954 613.002 48.3737 613.216C48.8026 614.392 49.603 615.609 49.8229 616.718C50.0043 617.637 49.4522 617.527 49.5125 618.022C49.5743 618.518 50.2895 618.95 50.4055 619.269C50.5904 619.78 50.4254 620.494 50.4697 620.654C51.3549 623.835 52.3671 626.621 53.1172 629.72C52.9306 627.566 52.6784 625.377 52.4265 623.23C51.6381 622.15 52.2551 622.636 52.2254 621.806C52.199 621.142 51.3057 621.213 51.2013 620.381C51.2015 620.381 51.2016 620.382 51.2018 620.383C51.1493 619.955 51.5167 618.897 51.0351 618.064C51.0171 618.034 50.5528 618.07 50.3607 617.404C49.9333 615.913 49.0785 613.71 48.6773 611.998C48.5625 611.504 49.0548 611.467 48.9405 610.872C48.8562 610.438 48.2826 610.079 48.1758 609.389C48.0436 608.524 48.6497 607.892 47.4523 607.641C47.8004 607.479 48.162 607.391 48.498 607.223ZM28.1897 563.896C28.1658 563.77 28.3402 561.757 27.5034 562.83C28.1652 564.985 29.5905 566.889 30.4379 569.047C31.1526 567.748 30.0669 566.827 29.1736 565.478C29.1733 565.478 29.1729 565.477 29.1726 565.477C29.1303 565.413 29.5752 565.523 29.3046 565.178C29.1732 565.01 28.3314 564.57 28.1897 563.896Z" fill="white"/>
<path d="M92.5 653.5C92.5 616.47 76 537 0 498V848.5C41 826.5 92.5 754 92.5 653.5Z" fill="#F1A198"/>
<path d="M-1.23069 523.328C0.452001 524.19 1.96533 525.28 3.23832 526.704C3.52802 527.028 3.27399 527.242 3.36778 527.402C3.53941 527.695 4.18096 527.81 4.237 527.863C4.58679 528.187 4.05499 528.478 4.08631 528.538C4.44099 529.197 4.74535 528.581 5.28175 529.009C5.97955 529.567 6.71269 530.453 7.44193 531.236C7.69674 531.512 7.26827 531.7 7.85987 532.252C8.27865 532.64 9.86008 533.569 10.0207 534.529C9.87653 534.67 9.6442 534.747 9.46301 534.858C10.865 535.131 11.1264 535.464 12.0699 536.822C12.2187 537.037 12.6408 536.992 12.8487 537.42C13.0555 537.848 12.6693 538.213 13.2748 538.901C13.49 539.144 13.9037 539.049 14.241 539.419C15.2053 540.467 16.56 542.853 17.2654 543.775C18.6598 545.586 19.9254 546.191 20.9631 547.96C21.0434 548.095 20.5082 548.064 20.6723 548.299C20.8375 548.536 21.455 548.456 21.5078 548.507C22.0794 549.045 22.4335 550.792 22.7495 551.089C23.524 551.813 23.1331 550.836 24.0432 551.959C24.9102 553.032 25.3828 555.001 26.0069 556.209C26.7292 557.608 27.8712 557.484 27.5945 559.06C29.8591 562.535 31.9888 566.11 34.0158 569.737C33.8216 569.829 33.6264 569.919 33.4311 570.009C33.7174 570.226 34.0035 570.444 34.2876 570.663C34.1234 570.695 33.9604 570.729 33.7978 570.76C35.0645 571.82 35.9883 572.899 36.6523 574.583C36.6653 574.616 36.242 574.726 36.2454 574.757C36.3564 575.155 36.8536 575.412 36.9432 575.765C37.1627 576.617 36.9626 578.336 37.7055 577.258C38.3796 579.169 39.7247 581.128 40.3126 582.968C40.5672 583.763 40.0496 584.264 40.1742 584.64C40.2984 585.016 40.7483 584.598 40.8254 584.717C41.2853 585.435 41.8118 586.716 41.2704 587.105C41.5753 587.157 41.8872 587.218 42.1954 587.275C41.4963 587.465 42.7804 589.751 43.0171 590.39C43.0611 590.506 42.7751 590.641 42.8134 590.727C43.2443 591.681 43.7949 591.725 44.2821 592.507C44.4523 592.781 43.7549 592.528 44.2756 593.196C44.3207 593.254 44.7745 593.036 45.1222 593.943C45.6786 595.383 46.8974 598.092 47.2748 599.913C47.3065 600.061 46.6404 599.812 46.9886 600.417C47.1136 600.637 47.44 600.396 47.6416 600.965C48.4309 603.183 48.7872 605.683 49.853 607.867C49.4093 607.912 48.6876 607.244 49.3306 608.388C49.4344 608.57 49.7622 608.309 49.8033 608.392C50.1311 609.072 50.0514 609.77 50.4236 610.494C50.5343 610.708 50.845 610.677 50.9981 610.94C51.2246 611.327 50.8593 611.635 51.1803 612.077C51.6824 612.766 52.1168 612.776 51.6008 613.948C53.1534 619.32 54.6661 624.702 55.3591 630.25C55.8939 631.82 56.4067 633.225 56.7656 634.876C56.8715 635.37 56.3397 635.552 56.6431 636.31C56.7113 636.48 57.4871 637.645 56.4018 637.984C56.547 638.314 56.5807 638.531 56.6806 638.817C56.8127 638.571 56.945 638.317 57.0787 638.078C57.0784 639.345 57.6112 640.374 57.9311 641.467C58.1649 642.275 57.6184 641.747 57.725 642.244C57.8286 642.74 57.9622 642.959 57.4583 643.669C58.1717 644.106 57.7443 644.494 57.8122 645.415C57.8199 645.514 58.1284 646.062 58.1164 646.539C58.1073 646.88 57.7035 647.018 57.8102 647.572C57.828 647.663 58.4234 648.801 58.4915 649.167C58.6027 649.742 58.1189 650.672 58.1171 650.78C58.1011 652.442 58.6388 653.054 57.7977 654.203C58.3148 654.406 58.628 655.42 58.5732 656.2C58.5128 657.185 57.4035 659.139 58.4934 659.46C57.9441 660.598 58.2629 660.431 58.1717 661.837C58.1333 662.397 57.971 663.342 57.7754 664.268C57.5258 665.466 57.2422 666.697 57.1999 667.25C57.1224 668.236 57.7989 667.846 57.8249 668.248C57.8673 668.907 57.4677 668.496 57.4093 668.934C57.2435 670.173 57.1564 671.256 57.1489 672.463C56.8233 672.472 56.4954 672.485 56.1694 672.495C56.2637 672.574 56.358 672.653 56.4521 672.732C56.4046 672.984 56.3605 673.267 56.3087 673.499C58.0429 671.774 55.8671 675.389 55.5864 676.522C55.3622 677.491 55.664 679.249 55.5572 680.349C55.532 680.617 55.2368 680.36 55.2323 680.416C55.1833 681.063 55.3912 681.213 55.158 682.045C55.0334 682.485 54.5026 682.833 54.3869 683.26C53.537 686.401 53.0887 689.543 52.1373 692.647C51.9751 693.176 51.3253 693.463 51.1685 693.897C50.9436 694.518 51.2184 695.05 51.0205 695.641C50.8227 696.233 50.0364 696.901 49.9675 697.321C49.8969 697.742 50.6131 697.237 50.2205 697.913C50.0398 698.223 49.9046 697.51 49.744 697.915C49.2472 699.17 48.9793 701.147 48.0198 702.316C48.1469 702.299 48.2725 702.255 48.4005 702.223C47.7795 703.641 47.0001 704.797 46.3229 706.234C46.0846 706.739 45.9678 707.791 45.7356 708.289C45.5041 708.786 45.077 708.861 44.8818 709.252C44.8007 709.412 45.1181 709.485 45.0605 709.591C44.3302 710.929 43.4574 711.422 42.8009 712.854C40.3767 718.12 37.4746 723.384 34.2369 728.344C34.107 728.543 34.3527 728.913 34.2003 729.232C33.963 729.727 33.6498 729.534 33.5975 729.584C33.2572 729.917 33.6444 729.962 33.272 730.47C32.4561 731.589 30.8541 733.182 30.0101 734.266C28.0603 736.779 26.5432 739.008 24.4996 741.4C24.3526 741.573 24.1037 741.124 23.8287 741.402C21.8778 743.331 21.7964 744.097 19.1741 746.337C16.5681 748.594 11.2973 752.417 7.87348 754.535C7.87285 754.534 7.87222 754.533 7.87159 754.532C7.31705 755.988 5.76953 756.694 4.24972 756.792C9.80699 750.891 16.0647 747.183 21.8457 741.22C27.8947 734.954 32.1251 726.655 36.722 719.394C37.1568 718.709 37.7704 718.683 38.0204 718.038C38.0625 717.929 37.5685 717.988 37.7114 717.661C39.6836 713.179 42.8216 708.932 44.5076 704.408C44.9583 703.194 44.6275 702.833 44.956 701.74C45.0738 702.005 45.2263 702.21 45.3542 702.452C47.9587 697.894 49.4241 692.838 50.9833 687.798C51.0544 687.57 51.48 687.661 51.5648 687.424C51.7351 686.951 51.4046 686.361 51.5047 685.937C51.6353 685.382 51.9944 685.377 52.109 684.861C52.1639 684.609 51.824 684.599 52.0202 684.073C52.0366 684.029 52.3816 684.087 52.4316 683.714C52.5692 682.699 52.7746 680.611 52.8745 679.77C53.0054 678.702 53.6983 677.972 53.8167 677.58C54.1338 676.521 53.6027 676.433 53.7847 675.524C54.5479 671.664 55.3565 667.912 55.9861 664.057C56.4078 661.495 56.6405 658.706 56.6442 656.01C56.6483 655.578 56.0355 653.982 56.0353 653.22C56.0406 652.963 56.1482 651.568 56.1494 651.353C56.1609 650.488 56.4817 649.784 56.5282 649.308C56.6214 648.405 55.9795 647.414 55.8831 646.935C55.7176 646.109 55.6457 644.585 55.6209 644.219C55.5653 643.342 56.2887 643.547 56.0585 642.943C55.9897 642.767 55.4799 643.017 55.4068 642.38C55.3465 641.846 55.7201 641.58 55.7467 641.201C55.773 640.823 55.0668 640.221 55.0513 639.987C54.9729 638.745 55.3085 638.199 55.1316 636.882C54.9995 635.765 53.8483 630.857 53.6032 630.448C52.6063 628.74 53.4853 631.748 53.4914 631.937C53.537 632.903 53.2644 632.807 53.9003 633.657C52.5843 634.705 55.3359 637.324 53.6944 638.313C54.963 638.905 54.4709 639.66 54.3441 640.514C54.1658 641.69 54.7339 640.741 54.8411 641.567C54.8831 641.895 54.4632 642.885 54.5893 643.363C54.7174 643.853 55.1458 644.021 55.2348 644.682C55.3943 645.869 55.2813 646.78 54.8713 647.835C55.1006 648.002 55.3288 648.157 55.5572 648.322C55.3744 649.028 55.1864 649.724 54.9917 650.405C55.1745 650.288 55.3587 650.17 55.5411 650.052C55.5796 650.247 55.616 650.443 55.6518 650.638C55.4018 651.309 55.1673 651.983 54.8958 652.668C56.0392 654.485 55.0765 653.937 54.949 654.991C54.8151 656.033 55.4413 656.624 55.4311 657.406C55.4139 658.458 55.4743 659.001 55.3747 660.059C55.318 660.668 54.6331 661.682 55.6572 660.877C55.6327 661.83 55.6162 662.96 55.5246 664.003C55.4197 665.194 55.2423 666.356 54.912 667.235C54.7265 667.732 54.5214 667.006 54.4715 667.089C54.2336 667.497 54.6696 667.932 54.5328 668.372C54.3073 669.104 53.6975 670.49 53.5091 671.055C53.2423 671.866 53.6319 673.302 53.652 673.445C53.7675 674.248 53.2063 674.35 53.1961 674.598C53.1389 676.009 53.2885 676.365 52.1042 676.567C52.5071 677.017 52.9808 678.68 52.1038 678.859C52.8206 679.027 52.4201 680.235 52.4162 681.035C52.1755 681.126 51.9353 681.219 51.6929 681.309C52.5979 683.196 50.8425 686.106 50.0851 688.095C50.0669 688.146 50.5689 688.394 50.3579 688.667C50.3423 688.684 50.1144 688.581 50.0219 688.779C49.7257 689.434 48.3224 691.82 48.2151 692.11C47.8381 693.186 48.162 693.506 47.9735 694.176C47.7224 695.06 47.3273 695.063 47.084 695.901C46.9688 696.292 47.3014 696.809 47.0132 697.388C46.8428 697.73 46.4703 697.63 46.3354 697.901C45.8524 698.864 45.7911 699.687 44.9752 700.381C46.0163 701.065 45.0121 701.15 44.7483 701.549C43.679 703.173 43.1998 705.546 42.406 706.987C39.9335 711.474 37.1477 715.09 34.4408 719.207C33.9991 719.874 34.4208 720.357 33.9352 721.055C33.7164 721.367 33.1325 721.457 32.7913 721.971C32.5157 722.384 32.3151 723.1 31.9662 723.616C31.8737 723.753 31.5204 723.533 31.3818 723.732C30.3312 725.24 29.5337 726.869 28.5796 728.48C28.2268 729.075 27.5282 729.078 28.3617 729.568C28.0133 729.636 27.6938 729.715 27.3586 729.768C27.2514 730.891 26.2794 731.105 25.5873 732.194C25.5154 732.312 25.4034 733.487 24.6807 733.596C24.9162 733.847 25.1929 733.97 25.4187 734.182C25.1637 734.686 24.3173 735.061 24.0412 735.313C23.7675 735.564 23.9354 736.043 23.8644 736.13C23.5905 736.454 23.2211 735.99 23.1924 736.008C21.4621 737.088 21.8367 737.128 21.6535 738.601C21.6072 738.978 19.7424 739.973 19.9347 740.75C19.7225 740.563 19.6274 740.307 19.4599 740.093C18.9786 740.472 18.4906 740.845 18.0037 741.213C18.2841 741.319 18.5841 741.407 18.8587 741.52C17.8022 742.216 17.479 743.389 16.7014 744.064C16.2573 744.448 15.9115 743.952 15.7432 744.277C15.7103 744.341 16.0637 744.568 15.9361 744.725C14.8875 745.997 14.0548 746.142 12.7497 747.102C12.1336 747.55 12.0596 748.549 10.8932 748.832C10.7842 748.859 9.54546 748.978 9.55823 750.124C9.21279 750.011 8.97111 749.994 8.69835 749.884C8.41128 751.793 7.92753 750.479 6.25414 751.223C5.39653 751.616 2.87281 753.485 2.059 754.11C1.5823 754.49 1.85855 754.959 1.77522 755.032C1.26876 755.463 1.01013 755.001 0.527251 755.366C0.0443037 755.731 -0.34482 756.616 -0.926339 756.853C-1.37001 757.032 -1.33386 756.277 -1.85457 756.796C-1.96229 756.905 -1.34054 757.22 -2.10185 757.353C-2.22275 757.377 -3.54517 757.345 -3.81599 757.324C-3.40231 756.751 -2.01574 755.558 -1.4952 755.122C7.91543 748.28 24.0643 732.615 30.6271 722.308C31.2688 721.395 32.149 721.088 32.5876 720.493C33.0245 719.896 32.2469 720.142 32.6392 719.6C33.029 719.062 33.5989 718.845 33.9508 718.327C36.3208 714.839 38.5422 711.185 40.4374 707.428C40.9267 706.456 40.9015 705.487 41.3063 704.583C41.4638 704.231 41.9726 704.443 42.0796 704.189C43.2318 701.465 43.762 698.727 44.8323 696C45.2766 694.87 46.1545 693.771 46.5805 692.64C46.9338 691.706 46.9515 690.618 47.2121 689.763C47.3522 689.298 47.8286 689.176 47.912 689.017C48.196 688.461 47.6422 688.517 47.7327 688.217C47.9818 687.391 48.6979 687.147 48.8743 686.351C48.9424 686.039 48.5517 685.972 48.6165 685.511C48.6982 684.926 48.9915 685.232 49.1147 684.831C49.1229 684.807 48.8291 684.812 48.8763 684.595C49.181 683.193 49.4017 681.415 49.7365 680.079C50.4299 677.321 51.526 674.674 52.095 672.062C52.2371 671.402 51.8431 671.515 51.8619 671.302C51.9509 670.279 52.4447 669.988 52.4542 668.898C52.4561 668.717 52.0614 667.927 52.2857 667.268C52.4068 666.912 52.7794 666.539 52.8953 666.235C53.0111 665.931 52.554 665.819 52.6029 665.442C52.6892 664.756 52.9871 664.997 53.0491 664.004C53.0535 663.934 53.0484 663.833 53.0378 663.71C52.9845 663.171 52.791 662.141 52.8801 661.3C53.058 659.7 53.539 657.638 53.5408 655.694C53.5433 655.008 53.0537 654.15 53.0197 653.126C52.9826 651.844 52.97 649.514 52.8734 648.188C52.826 647.509 53.3224 647.417 53.3371 647.334C53.4356 646.817 52.8915 647.068 52.8851 646.729C52.876 646.262 53.2494 645.787 53.2355 645.354C53.2266 645.078 52.8093 645.075 52.8003 645.016C52.441 642.794 52.2478 640.911 51.8918 638.731C49.9756 627.125 46.527 615.673 43.0007 604.488C42.7001 603.543 43.1824 603.339 42.8214 602.55C42.4601 601.758 41.1174 601.353 42.0479 600.258C41.8034 600.322 41.6354 600.385 41.4121 600.442C41.1322 598.623 40.1651 597.094 39.4856 595.475C38.9809 594.275 38.594 593.201 38.1666 592.086C37.7879 591.097 38.2266 591.011 37.3436 590.384C35.9074 586.042 33.9021 581.886 32.4034 577.573C31.0896 577.045 31.1571 575.875 30.5963 574.506C30.5277 574.337 30.3155 574.668 30.0913 574.18C29.8082 573.569 30.1067 573.014 29.5391 572.026C29.3907 571.763 27.8061 570.086 27.658 569.23C27.5115 568.366 27.0659 567.243 26.8752 566.357C26.7436 566.576 26.6365 566.818 26.5139 567.046C26.2651 566.697 26.0152 566.345 25.764 565.997C25.9642 565.807 26.1643 565.615 26.3666 565.425C26.0189 565.342 25.6736 565.258 25.3223 565.177C26.2306 564.002 26.13 564.707 25.2069 563.859C24.7447 563.435 24.7 562.901 24.2538 562.449C24.0921 562.287 23.671 562.381 23.4967 562.201C23.0706 561.759 23.7318 561.757 23.5308 561.444C23.3261 561.129 22.5184 561.006 22.387 560.295C23.6916 560.291 22.2871 558.778 21.5193 559.168C21.3861 558.968 21.3049 558.78 21.1381 558.572C23.0723 557.588 21.0953 557.375 20.571 557.128C20.0467 556.879 20.537 556.571 20.4524 556.487C20.2101 556.243 20.15 556.581 20.01 556.391C19.0874 555.126 18.5285 553.717 17.6461 552.443C17.5191 552.261 17.3701 552.612 17.2438 552.384C17.1174 552.155 17.2338 551.762 16.9879 551.466C16.9221 551.386 16.6716 551.531 16.5762 551.402C14.5908 548.696 12.8094 546.037 10.6262 543.394C10.4282 543.155 9.8822 543.301 9.50667 542.836C9.13165 542.372 8.88332 541.384 8.41542 540.804C8.2915 540.65 7.93794 540.893 7.77268 540.691C7.21004 540.003 6.95209 539.205 6.36374 538.487C5.36871 537.274 4.04988 536.276 3.11082 534.977C2.93168 534.731 3.21696 534.514 2.97878 534.136C2.56611 533.484 2.40315 534.052 2.24656 533.995C1.73622 533.808 2.10508 533.206 1.63603 532.999C1.56419 532.967 1.35583 533.334 1.3041 533.292C0.522569 532.639 1.1408 531.906 -0.00276661 531.537C-0.335134 530.476 0.974857 531.44 1.29638 531.346C2.08194 531.112 1.86844 529.76 1.57556 529.125C1.32499 528.579 1.02777 528.907 0.865344 528.759C0.00467682 527.969 -1.35118 526.883 -1.88861 526.147C-2.21475 525.7 -1.35871 526.194 -1.47235 525.905C-1.58494 525.616 -1.93519 525.753 -1.91296 525.295C-1.88962 524.837 -1.64251 523.648 -1.23069 523.328ZM48.498 607.223C46.3141 606.056 44.9942 601.547 44.2749 599.117C43.6861 597.085 44.2955 594.937 42.6314 596.03C43.4168 598.132 44.2379 599.812 44.963 602.078C45.0377 602.309 45.3507 603.78 45.483 604.28C45.5586 604.562 45.2569 604.673 45.3844 605.047C45.4131 605.127 45.9612 605.448 46.0046 605.617C46.1585 606.199 46.079 608.066 46.1721 608.306C46.431 608.948 46.8284 608.546 47.0038 608.804C47.5867 609.672 46.9013 609.997 47.4184 610.868C47.5105 611.024 48.305 611.397 48.4273 612.119C48.4764 612.413 48.2954 613.002 48.3737 613.216C48.8026 614.392 49.603 615.609 49.8229 616.718C50.0043 617.637 49.4522 617.527 49.5125 618.022C49.5743 618.518 50.2895 618.95 50.4055 619.269C50.5904 619.78 50.4254 620.494 50.4697 620.654C51.3549 623.835 52.3671 626.621 53.1172 629.72C52.9306 627.566 52.6784 625.377 52.4265 623.23C51.6381 622.15 52.2551 622.636 52.2254 621.806C52.199 621.142 51.3057 621.213 51.2013 620.381C51.2015 620.381 51.2016 620.382 51.2018 620.383C51.1493 619.955 51.5167 618.897 51.0351 618.064C51.0171 618.034 50.5528 618.07 50.3607 617.404C49.9333 615.913 49.0785 613.71 48.6773 611.998C48.5625 611.504 49.0548 611.467 48.9405 610.872C48.8562 610.438 48.2826 610.079 48.1758 609.389C48.0436 608.524 48.6497 607.892 47.4523 607.641C47.8004 607.479 48.162 607.391 48.498 607.223ZM28.1897 563.896C28.1658 563.77 28.3402 561.757 27.5034 562.83C28.1652 564.985 29.5905 566.889 30.4379 569.047C31.1526 567.748 30.0669 566.827 29.1736 565.478C29.1733 565.478 29.1729 565.477 29.1726 565.477C29.1303 565.413 29.5752 565.523 29.3046 565.178C29.1732 565.01 28.3314 564.57 28.1897 563.896Z" fill="white"/>
<path d="M-5.73046 551.329C-4.37928 551.912 -3.19133 552.718 -2.24737 553.841C-2.03252 554.097 -2.27969 554.317 -2.21663 554.448C-2.10147 554.689 -1.55374 554.717 -1.51083 554.758C-1.24271 555.005 -1.74301 555.325 -1.7227 555.375C-1.49036 555.919 -1.15043 555.336 -0.730145 555.654C-0.18339 556.067 0.357406 556.765 0.908793 557.369C1.10122 557.583 0.699945 557.799 1.15754 558.215C1.48106 558.507 2.77472 559.138 2.80452 559.957C2.6594 560.097 2.44344 560.191 2.26906 560.31C3.48413 560.383 3.67835 560.645 4.36134 561.715C4.46901 561.884 4.85246 561.796 4.98833 562.143C5.12331 562.49 4.73333 562.851 5.19559 563.375C5.36016 563.56 5.74332 563.43 6.00338 563.71C6.74727 564.504 7.69315 566.395 8.22672 567.1C9.28167 568.487 10.3675 568.857 11.1154 570.239C11.1734 570.345 10.6868 570.378 10.8101 570.559C10.9343 570.741 11.5095 570.604 11.5522 570.64C12.015 571.033 12.1426 572.466 12.4 572.68C13.0318 573.203 12.7812 572.425 13.4946 573.268C14.1745 574.074 14.3935 575.67 14.8398 576.608C15.3562 577.694 16.4337 577.47 16.0049 578.806C17.7387 581.445 19.3651 584.163 20.9168 586.92C20.7238 587.014 20.5301 587.107 20.3363 587.199C20.5852 587.348 20.834 587.497 21.0809 587.647C20.9223 587.689 20.7646 587.733 20.6075 587.775C21.7 588.512 22.4705 589.3 22.9387 590.6C22.9479 590.626 22.5344 590.756 22.5346 590.78C22.6016 591.092 23.05 591.252 23.1013 591.529C23.2282 592.198 22.8739 593.602 23.6852 592.663C24.1459 594.142 25.2513 595.593 25.6494 597.016C25.8218 597.63 25.2799 598.077 25.3657 598.366C25.4514 598.656 25.9211 598.282 25.9846 598.37C26.3621 598.904 26.7566 599.881 26.2014 600.238C26.4903 600.253 26.7855 600.275 27.0774 600.294C26.3868 600.506 27.4271 602.216 27.6028 602.703C27.6355 602.792 27.3478 602.923 27.3776 602.988C27.7133 603.709 28.2421 603.699 28.6489 604.28C28.7911 604.483 28.1368 604.339 28.5859 604.826C28.6249 604.868 29.0817 604.66 29.3451 605.35C29.7663 606.446 30.7369 608.492 30.9674 609.897C30.9871 610.011 30.3576 609.865 30.6507 610.315C30.7558 610.479 31.0917 610.265 31.2455 610.698C31.8487 612.385 32.0168 614.319 32.9108 615.954C32.4733 616.019 31.8128 615.546 32.3638 616.396C32.4529 616.531 32.7918 616.305 32.8262 616.368C33.1011 616.877 32.9762 617.427 33.2934 617.968C33.3878 618.127 33.6945 618.083 33.8276 618.278C34.0244 618.565 33.6461 618.829 33.9327 619.153C34.3815 619.658 34.8076 619.64 34.2273 620.583C35.4178 624.667 36.6208 628.753 37.0626 632.992C37.5237 634.176 37.9749 635.236 38.2689 636.491C38.3555 636.866 37.8198 637.026 38.094 637.596C38.1553 637.724 38.8865 638.592 37.7953 638.887C37.9286 639.136 37.955 639.3 38.0451 639.516C38.1847 639.324 38.3247 639.125 38.4658 638.937C38.4231 639.908 38.9222 640.68 39.2101 641.508C39.4206 642.122 38.8906 641.731 38.9831 642.11C39.0731 642.486 39.2006 642.651 38.6802 643.207C39.381 643.524 38.945 643.831 38.9925 644.533C38.9979 644.608 39.2941 645.021 39.2727 645.386C39.257 645.647 38.851 645.76 38.9475 646.181C38.9634 646.25 39.539 647.11 39.602 647.389C39.7044 647.828 39.2096 648.545 39.2067 648.626C39.1723 649.895 39.7069 650.361 38.8607 651.241C39.3768 651.393 39.687 652.169 39.6335 652.765C39.5725 653.521 38.478 655.005 39.572 655.262C39.0361 656.129 39.3515 656.004 39.2843 657.082C39.2559 657.514 39.1116 658.244 38.9409 658.957C38.726 659.863 38.4846 660.79 38.4607 661.211C38.4161 661.964 39.0767 661.687 39.116 661.996C39.1806 662.503 38.7689 662.174 38.7261 662.509C38.6047 663.454 38.559 664.282 38.6002 665.211C38.2772 665.205 37.9521 665.202 37.6288 665.197C37.7256 665.261 37.8225 665.326 37.9192 665.39C37.8824 665.582 37.8504 665.798 37.8088 665.974C39.4581 664.717 37.4484 667.412 37.2273 668.271C37.0502 669.007 37.4356 670.38 37.3879 671.227C37.3769 671.433 37.0718 671.219 37.0702 671.262C37.056 671.761 37.269 671.888 37.0841 672.521C36.9851 672.856 36.4809 673.097 36.3911 673.422C35.7318 675.811 35.491 678.235 34.7775 680.608C34.6559 681.012 34.0415 681.193 33.9197 681.522C33.7452 681.994 34.0521 682.433 33.9031 682.885C33.7539 683.336 33.0393 683.805 33.0049 684.132C32.9687 684.459 33.6261 684.114 33.2965 684.619C33.1448 684.85 32.9582 684.276 32.8335 684.584C32.448 685.538 32.3471 687.085 31.5179 687.937C31.6393 687.934 31.7571 687.91 31.8781 687.894C31.396 688.972 30.7438 689.83 30.2206 690.921C30.0362 691.305 30.0188 692.139 29.8417 692.519C29.6651 692.898 29.2632 692.92 29.1126 693.217C29.0499 693.339 29.3602 693.426 29.315 693.507C28.7411 694.519 27.9554 694.836 27.4706 695.934C25.6785 699.973 23.5124 704.013 21.0867 707.832C20.9893 707.985 21.2573 708.324 21.1528 708.576C20.9902 708.968 20.6805 708.77 20.6382 708.807C20.3631 709.05 20.7237 709.131 20.4395 709.52C19.8165 710.377 18.5378 711.552 17.8989 712.385C16.4229 714.315 15.3225 716.071 13.7874 717.931C13.6772 718.066 13.4029 717.644 13.1918 717.855C11.6934 719.324 11.7089 719.988 9.68129 721.684C7.66604 723.393 3.5912 726.27 0.96372 727.88C0.963091 727.879 0.962461 727.878 0.961831 727.877C0.655761 729.17 -0.565073 729.672 -1.81027 729.61C2.15818 724.645 7.0216 722.032 11.4149 717.463C16.0054 712.662 18.8901 706.127 22.4065 700.658C22.7397 700.141 23.3124 700.185 23.4791 699.682C23.5071 699.597 23.0493 699.594 23.1488 699.341C24.5232 695.882 27.0923 692.763 28.3128 689.305C28.6385 688.378 28.2885 688.063 28.5105 687.225C28.647 687.445 28.8118 687.62 28.9562 687.823C31.0743 684.425 32.1184 680.56 33.3195 676.743C33.3745 676.571 33.7981 676.668 33.8661 676.489C34.003 676.132 33.641 675.653 33.7129 675.33C33.8069 674.908 34.1597 674.926 34.2412 674.533C34.2801 674.341 33.9448 674.313 34.1065 673.917C34.1201 673.884 34.4632 673.949 34.4904 673.663C34.5655 672.885 34.6519 671.284 34.7067 670.641C34.7791 669.826 35.4282 669.299 35.526 669.002C35.7879 668.203 35.2581 668.11 35.3956 667.421C35.9716 664.497 36.634 661.664 37.1523 658.747C37.5014 656.798 37.7022 654.672 37.7042 652.619C37.7073 652.29 37.0979 651.08 37.1035 650.503C37.1099 650.308 37.2296 649.248 37.2336 649.084C37.2545 648.428 37.5849 647.888 37.6384 647.526C37.7448 646.836 37.1219 646.093 37.0352 645.732C36.8857 645.107 36.8492 643.949 36.8339 643.671C36.8003 643.005 37.5166 643.142 37.3029 642.688C37.2391 642.556 36.7239 642.759 36.6686 642.276C36.6233 641.871 37.0033 641.657 37.0409 641.368C37.0782 641.078 36.3932 640.64 36.3853 640.462C36.3469 639.517 36.6992 639.089 36.5701 638.088C36.4738 637.239 35.5333 633.524 35.3128 633.221C34.4016 631.956 35.1371 634.223 35.1364 634.367C35.1404 635.105 34.8737 635.043 35.4702 635.668C34.1184 636.52 36.7552 638.419 35.0899 639.23C36.3319 639.639 35.8174 640.232 35.6645 640.885C35.4508 641.786 36.0456 641.046 36.1278 641.673C36.16 641.922 35.7137 642.687 35.8269 643.046C35.9417 643.415 36.3647 643.532 36.4375 644.032C36.5683 644.931 36.4368 645.627 36.0079 646.434C36.2338 646.556 36.4589 646.67 36.6842 646.792C36.4896 647.331 36.2912 647.862 36.0879 648.38C36.272 648.289 36.4577 648.197 36.6415 648.104C36.6773 648.252 36.7112 648.401 36.7445 648.548C36.4864 649.06 36.2451 649.573 35.9682 650.093C37.099 651.46 36.1407 651.053 36.0098 651.848C35.874 652.636 36.5017 653.083 36.4949 653.676C36.4833 654.47 36.5482 654.883 36.4621 655.683C36.413 656.145 35.7472 656.9 36.7563 656.308C36.747 657.033 36.7543 657.897 36.6919 658.693C36.6207 659.592 36.4806 660.469 36.1827 661.125C36.0149 661.498 35.7862 660.938 35.7393 660.999C35.5163 661.302 35.9652 661.648 35.8447 661.98C35.6458 662.53 35.0925 663.565 34.9285 663.989C34.6956 664.597 35.144 665.71 35.1703 665.821C35.32 666.441 34.7684 666.495 34.7696 666.684C34.7777 667.762 34.9438 668.044 33.7811 668.142C34.2017 668.505 34.754 669.807 33.897 669.9C34.6141 670.067 34.2819 670.975 34.3226 671.592C34.09 671.649 33.8583 671.708 33.6241 671.764C34.6206 673.269 33.0662 675.422 32.4579 676.916C32.4434 676.954 32.952 677.18 32.7634 677.379C32.7492 677.39 32.5189 677.296 32.4415 677.443C32.1932 677.934 30.989 679.695 30.907 679.913C30.6177 680.726 30.9578 680.999 30.8244 681.51C30.6467 682.184 30.2624 682.157 30.0911 682.795C30.0097 683.093 30.3735 683.525 30.1398 683.958C30.0018 684.214 29.6323 684.106 29.5235 684.308C29.1334 685.027 29.1423 685.672 28.4126 686.152C29.4767 686.779 28.5133 686.763 28.2936 687.056C27.4016 688.249 27.1569 690.093 26.5325 691.174C24.5878 694.535 22.3252 697.179 20.2541 700.26C19.9161 700.76 20.3629 701.203 19.9887 701.725C19.8201 701.958 19.2878 701.969 19.0299 702.355C18.8213 702.666 18.717 703.236 18.4542 703.625C18.3846 703.729 18.033 703.506 17.9281 703.655C17.1334 704.789 16.5944 706.058 15.9163 707.303C15.6655 707.764 15.0312 707.684 15.8478 708.197C15.5389 708.213 15.2581 708.242 14.9603 708.247C14.998 709.186 14.1431 709.253 13.6528 710.097C13.6025 710.188 13.6442 711.179 13.0091 711.187C13.251 711.43 13.5144 711.569 13.7431 711.778C13.5747 712.18 12.8623 712.401 12.6466 712.585C12.4328 712.768 12.6414 713.202 12.5885 713.269C12.3836 713.516 11.9977 713.071 11.9742 713.083C10.567 713.808 10.9087 713.887 10.9265 715.148C10.9303 715.471 9.40941 716.115 9.6751 716.821C9.46583 716.631 9.35091 716.395 9.17756 716.188C8.80191 716.461 8.42105 716.731 8.04165 716.996C8.29953 717.124 8.57241 717.237 8.82656 717.37C7.98846 717.856 7.85185 718.857 7.25946 719.366C6.92118 719.654 6.56195 719.171 6.45625 719.441C6.43558 719.494 6.76871 719.739 6.67741 719.864C5.92635 720.876 5.22736 720.909 4.22868 721.621C3.7578 721.952 3.81214 722.85 2.85689 722.973C2.76699 722.986 1.73614 722.948 1.88111 723.999C1.57701 723.856 1.37199 723.813 1.1302 723.681C1.11134 725.4 0.549875 724.138 -0.756376 724.635C-1.42613 724.898 -3.2965 726.361 -3.89332 726.865C-4.2419 727.172 -3.96688 727.642 -4.0273 727.702C-4.3958 728.056 -4.65476 727.594 -5.00941 727.889C-5.3639 728.183 -5.59025 728.982 -6.03773 729.151C-6.37882 729.278 -6.42423 728.564 -6.7929 729.007C-6.86906 729.1 -6.33699 729.459 -6.93791 729.513C-7.03368 729.525 -8.09891 729.369 -8.31652 729.325C-8.03984 728.813 -7.04565 727.813 -6.6709 727.453C0.111027 721.758 12.0661 710.097 17.0664 702.389C17.5524 701.708 18.3333 701.555 18.6731 701.113C19.0115 700.671 18.3168 700.787 18.62 700.385C18.9214 699.987 19.4283 699.871 19.6993 699.486C21.5246 696.89 23.245 694.164 24.6925 691.342C25.0663 690.612 24.9507 689.838 25.2545 689.158C25.3728 688.893 25.8808 689.107 25.9601 688.915C26.817 686.856 27.0928 684.745 27.9114 682.697C28.2515 681.848 29.0203 681.059 29.3511 680.208C29.6257 679.506 29.564 678.662 29.7582 678.017C29.8623 677.667 30.3202 677.605 30.3908 677.487C30.6306 677.075 30.0922 677.082 30.1602 676.856C30.3478 676.233 31.034 676.091 31.1553 675.487C31.202 675.251 30.8139 675.173 30.8478 674.822C30.8907 674.376 31.1984 674.63 31.2943 674.328C31.3008 674.31 31.0123 674.296 31.045 674.132C31.2565 673.069 31.3686 671.717 31.6249 670.711C32.1551 668.636 33.1115 666.667 33.5658 664.699C33.679 664.202 33.2928 664.273 33.3026 664.112C33.349 663.337 33.8281 663.134 33.7966 662.306C33.7917 662.168 33.3699 661.554 33.5701 661.062C33.6782 660.796 34.0364 660.525 34.1419 660.298C34.2472 660.071 33.7885 659.972 33.8251 659.688C33.8896 659.171 34.1935 659.362 34.2258 658.611C34.228 658.561 34.2208 658.489 34.2078 658.401C34.1404 657.997 33.916 657.213 33.99 656.579C34.1362 655.387 34.598 653.843 34.6008 652.38C34.6034 651.864 34.116 651.221 34.0891 650.453C34.0596 649.489 34.0773 647.736 34.0062 646.737C33.9714 646.226 34.4692 646.147 34.4854 646.084C34.5941 645.692 34.0459 645.892 34.0465 645.636C34.0473 645.284 34.4306 644.916 34.4268 644.589C34.4244 644.381 34.0082 644.388 34.0007 644.344C33.6966 642.673 33.5607 641.252 33.2817 639.61C31.7803 630.863 29.0574 622.257 26.4589 613.799C26.2371 613.084 26.7224 612.889 26.4312 612.299C26.14 611.707 24.8662 611.495 25.8569 610.566C25.6142 610.635 25.446 610.697 25.2246 610.759C25.0963 609.357 24.2826 608.233 23.7608 607.016C23.3731 606.114 23.091 605.3 22.7755 604.455C22.4964 603.707 22.9267 603.601 22.1312 603.182C21.1314 599.871 19.6025 596.745 18.6048 593.422C17.4081 593.127 17.5898 592.179 17.1974 591.129C17.1496 591 16.9149 591.288 16.7524 590.917C16.5471 590.452 16.8859 589.973 16.4518 589.23C16.338 589.032 15.0193 587.835 14.9718 587.153C14.9254 586.466 14.6269 585.596 14.5434 584.892C14.3965 585.085 14.2701 585.293 14.1305 585.493C13.9348 585.234 13.7387 584.973 13.5413 584.715C13.7494 584.538 13.9574 584.36 14.1675 584.183C13.8509 584.152 13.5369 584.12 13.2172 584.091C14.1948 583.031 14.0232 583.619 13.2534 583.023C12.8684 582.725 12.8855 582.29 12.5198 581.966C12.3871 581.85 11.9843 581.975 11.8421 581.845C11.4949 581.528 12.1104 581.454 11.9583 581.218C11.8029 580.98 11.0661 580.968 11.0243 580.396C12.2359 580.248 11.102 579.151 10.3474 579.56C10.2468 579.409 10.1929 579.263 10.0624 579.109C11.9643 578.077 10.1584 578.12 9.70334 577.974C9.24804 577.826 9.73594 577.515 9.66753 577.454C9.47212 577.278 9.37765 577.567 9.27057 577.424C8.56591 576.476 8.21644 575.363 7.55769 574.396C7.46292 574.257 7.28518 574.57 7.19648 574.393C7.10778 574.216 7.26046 573.872 7.07059 573.651C7.01992 573.592 6.77387 573.743 6.70198 573.646C5.2093 571.601 3.91497 569.556 2.27674 567.555C2.12809 567.374 1.62043 567.565 1.34119 567.211C1.06242 566.859 0.961635 566.039 0.615532 565.595C0.523938 565.477 0.178823 565.729 0.0565462 565.575C-0.359688 565.05 -0.490325 564.391 -0.923487 563.839C-1.65628 562.907 -2.69587 562.198 -3.35896 561.174C-3.48573 560.981 -3.20858 560.755 -3.37088 560.452C-3.65233 559.93 -3.86493 560.449 -3.99501 560.418C-4.41834 560.315 -4.02146 559.741 -4.40574 559.615C-4.46461 559.596 -4.69181 559.944 -4.7319 559.914C-5.33248 559.434 -4.70403 558.711 -5.65331 558.523C-5.81163 557.622 -4.79151 558.318 -4.49896 558.196C-3.78507 557.895 -3.80717 556.723 -3.98602 556.193C-4.13852 555.737 -4.43661 556.064 -4.55989 555.951C-5.21359 555.351 -6.2559 554.54 -6.63087 553.942C-6.85878 553.579 -6.17942 553.922 -6.24284 553.675C-6.30569 553.429 -6.624 553.594 -6.55033 553.179C-6.47561 552.765 -6.12281 551.664 -5.73046 551.329ZM31.6293 615.542C29.5715 614.781 28.6171 611.355 28.1108 609.498C27.6975 607.947 28.4637 606.202 26.7617 607.197C27.3524 608.791 28.018 610.048 28.5525 611.77C28.6075 611.945 28.8025 613.074 28.8949 613.456C28.948 613.67 28.6454 613.779 28.7425 614.061C28.7645 614.122 29.2762 614.333 29.3064 614.462C29.4142 614.906 29.204 616.368 29.2785 616.547C29.4868 617.029 29.9038 616.689 30.0575 616.878C30.5682 617.514 29.8749 617.813 30.3225 618.456C30.4023 618.57 31.156 618.808 31.2284 619.362C31.2573 619.587 31.0413 620.056 31.1043 620.217C31.4489 621.102 32.1593 621.995 32.3082 622.841C32.431 623.541 31.8945 623.489 31.924 623.868C31.955 624.248 32.6341 624.54 32.7299 624.78C32.8823 625.164 32.6789 625.725 32.7135 625.845C33.406 628.249 34.2632 630.341 34.864 632.684C34.7779 631.04 34.6373 629.369 34.5029 627.726C33.7822 626.935 34.3653 627.277 34.3813 626.638C34.3917 626.127 33.5062 626.23 33.4504 625.593C33.4506 625.594 33.4507 625.594 33.4508 625.595C33.4233 625.267 33.8459 624.429 33.4207 623.811C33.4048 623.79 32.9452 623.845 32.7961 623.34C32.4641 622.211 31.7622 620.556 31.4816 619.252C31.4016 618.875 31.8869 618.814 31.8142 618.359C31.7603 618.027 31.2222 617.785 31.1646 617.255C31.0943 616.59 31.731 616.055 30.5773 615.941C30.9291 615.79 31.2889 615.697 31.6293 615.542ZM16.0394 582.735C16.0303 582.635 16.4096 580.959 15.5116 581.931C15.8976 583.634 17.0333 585.044 17.6086 586.717C18.4171 585.585 17.489 584.943 16.7935 583.931C16.7933 583.93 16.793 583.93 16.7927 583.929C16.7598 583.881 17.1658 583.926 16.9483 583.671C16.8425 583.547 16.0997 583.274 16.0394 582.735Z" fill="white"/>
<path d="M153.5 21C153.5 32.8741 140.874 47.5 129 47.5C117.126 47.5 110 35.8741 110 24C110 12.1259 122.626 0 134.5 0C146.374 0 153.5 9.12588 153.5 21Z" fill="#79A363" fill-opacity="0.8"/>
<path d="M50.5732 1053.31C65.1131 1049.41 78.88 1029.15 74.984 1014.61C71.088 1000.07 54.514 995.161 39.9741 999.057C25.4342 1002.95 14.7286 1022.39 18.6245 1036.93C22.5205 1051.47 36.0332 1057.2 50.5732 1053.31Z" fill="#79A363" fill-opacity="0.8"/>
<path d="M142 22.7263C142 28.2259 136.195 35 130.736 35C125.276 35 122 29.6154 122 24.1158C122 18.6162 127.805 13 133.264 13C138.724 13 142 17.2267 142 22.7263Z" fill="#79A363" fill-opacity="0.8"/>
<path d="M48.9135 1038.66C55.6477 1036.85 62.038 1027.52 60.2468 1020.84C58.4555 1014.15 50.7871 1011.91 44.0528 1013.71C37.3185 1015.52 32.3461 1024.47 34.1373 1031.15C35.9286 1037.84 42.1792 1040.46 48.9135 1038.66Z" fill="#79A363" fill-opacity="0.8"/>
<path d="M94 62C94 67.799 86.299 72 80.5 72C74.701 72 73 67.799 73 62C73 56.201 79.201 53 85 53C90.799 53 94 56.201 94 62Z" fill="#F1A198"/>
<path d="M81.2545 966.996C88.3554 965.093 90.9729 954.285 89.0702 947.184C87.1675 940.083 81.4652 939.379 74.3643 941.281C67.2634 943.184 65.3783 951.828 67.281 958.928C69.1837 966.029 74.1536 968.899 81.2545 966.996Z" fill="#F1A198"/>
<path d="M14.9404 1128C11.082 1111 16.8695 1065 -0.5 1065V1335C15.1748 1327 34.7076 1275 36.3956 1224C38.0836 1173 18.7987 1145 14.9404 1128Z" fill="#FAAE37" fill-opacity="0.6"/>
<path d="M19.371 1228.73C19.417 1226.96 19.3634 1225.3 19.2803 1223.25C19.2803 1223.25 19.2803 1223.24 19.2803 1223.24C19.2684 1222.95 19.2557 1222.64 19.2426 1222.32C19.1354 1219.76 19.0034 1216.46 18.8453 1211.49C18.6684 1206.02 18.1516 1201.61 17.7029 1198.99C17.6189 1198.5 17.5637 1198 17.4691 1196.68C17.4066 1195.82 17.3319 1194.69 17.2109 1193.04C17.1453 1192.15 17.0671 1191.11 16.9699 1189.93C16.6483 1185.95 16.1852 1179.72 15.5694 1174.01C15.4365 1172.77 15.2926 1171.51 15.1573 1170.39C14.9048 1168.31 14.6543 1166.38 14.4334 1164.78C13.931 1161.16 13.3685 1157.67 12.7377 1153.88C12.1593 1150.41 11.5244 1146.71 10.8175 1142.41C10.2753 1139.12 9.52165 1135.95 8.73321 1132.74C8.63288 1132.33 8.5318 1131.92 8.43038 1131.51C7.73259 1128.68 7.02001 1125.79 6.38728 1122.63C5.26058 1117.02 4.69704 1112.48 4.10447 1107.46C3.87238 1105.49 3.63894 1103.46 3.36667 1101.25C2.93849 1097.76 2.2712 1092.75 1.65642 1087.71C1.60396 1087.28 1.55201 1086.85 1.50015 1086.42C1.4999 1086.42 1.49964 1086.41 1.49938 1086.41C0.942112 1081.8 0.444974 1077.27 0.140114 1073.94C-0.34136 1068.65 -0.402528 1066.65 -0.465214 1064.97C-0.487209 1064.35 -0.506268 1063.77 -0.54049 1063.08C-0.665092 1060.59 -0.971219 1056.84 -1.23596 1053.05C-1.23692 1053.03 -1.23788 1053.02 -1.23884 1053C-1.28308 1052.37 -1.59745 1051.88 -1.94217 1051.9C-2.28688 1051.93 -2.53164 1052.46 -2.48727 1053.1C-2.34596 1055.12 -2.19771 1057.08 -2.06977 1058.84C-2.35897 1058.96 -2.54722 1059.45 -2.50093 1060.01C-2.38206 1061.44 -2.27595 1065.82 -1.9749 1072.68C-2.0743 1072.22 -2.16449 1071.83 -2.24724 1071.49C-2.34436 1071.09 -2.42398 1070.79 -2.49219 1070.53C-2.63418 1069.98 -2.72851 1069.61 -2.83184 1068.97C-3.01993 1067.47 -3.24349 1065.08 -3.4572 1062.58C-3.51158 1061.94 -3.83328 1061.45 -4.17743 1061.48C-4.52163 1061.51 -4.75771 1062.06 -4.70341 1062.69C-4.70239 1062.7 -4.70138 1062.72 -4.70037 1062.73C-4.48827 1065.21 -4.25761 1067.68 -4.05938 1069.25C-4.00897 1069.65 -3.96028 1070 -3.92138 1070.26C-3.89024 1070.47 -3.84996 1070.73 -3.81606 1070.87C-3.81155 1070.89 -3.80265 1070.92 -3.79021 1070.97C-3.78993 1070.97 -3.78967 1070.97 -3.78939 1070.97C-3.78249 1070.99 -3.74743 1071.12 -3.68417 1071.24C-3.67139 1071.27 -3.64302 1071.33 -3.59969 1071.39C-3.59519 1071.41 -3.59068 1071.43 -3.58617 1071.44C-3.5235 1071.68 -3.4595 1071.93 -3.3945 1072.19C-3.1403 1073.22 -2.78881 1074.88 -2.22117 1078.31C-1.69741 1081.47 -1.02006 1086.83 -0.171091 1093.51C-0.253766 1093.07 -0.335529 1092.62 -0.41598 1092.17C-0.618217 1091.04 -0.81506 1089.89 -1.00458 1088.76C-1.07737 1088.32 -1.14877 1087.89 -1.22055 1087.45C-1.33605 1086.75 -1.4515 1086.03 -1.5632 1085.33C-1.63905 1084.85 -1.71431 1084.37 -1.78924 1083.89C-1.78937 1083.89 -1.78949 1083.89 -1.78962 1083.89C-1.89363 1083.22 -1.9973 1082.55 -2.10158 1081.88C-2.13849 1081.64 -2.17447 1081.41 -2.21 1081.18C-2.35131 1080.26 -2.48846 1079.36 -2.67488 1078.32C-2.70085 1078.19 -2.7316 1078.05 -2.75592 1077.95C-2.78179 1077.84 -2.80744 1077.73 -2.83257 1077.64C-2.85477 1077.55 -2.87676 1077.47 -2.89745 1077.39C-2.90021 1077.38 -2.90296 1077.36 -2.90572 1077.35C-2.92887 1077.26 -2.95056 1077.18 -2.9712 1077.1C-2.9918 1077.02 -3.01164 1076.94 -3.02982 1076.86C-3.02989 1076.86 -3.02997 1076.86 -3.03004 1076.86C-3.04885 1076.77 -3.06303 1076.71 -3.0809 1076.63C-3.10332 1076.52 -3.12157 1076.42 -3.14179 1076.31C-3.16139 1076.2 -3.18059 1076.08 -3.19894 1075.97C-3.21729 1075.85 -3.23504 1075.73 -3.25244 1075.61C-3.26984 1075.49 -3.28707 1075.37 -3.30385 1075.25C-3.32061 1075.12 -3.33699 1075 -3.35344 1074.87C-3.36989 1074.75 -3.38647 1074.62 -3.4029 1074.49C-3.44083 1074.19 -3.53811 1073.92 -3.67597 1073.72C-3.81375 1073.52 -3.97995 1073.42 -4.14022 1073.44C-4.30044 1073.46 -4.44307 1073.59 -4.53771 1073.81C-4.63223 1074.04 -4.67075 1074.33 -4.64681 1074.63C-4.64028 1074.71 -4.63388 1074.79 -4.6272 1074.87C-4.62324 1074.92 -4.61898 1074.97 -4.61493 1075.02C-4.60407 1075.15 -4.5933 1075.28 -4.5816 1075.41C-4.56989 1075.54 -4.55743 1075.68 -4.54436 1075.81C-4.53124 1075.95 -4.51742 1076.09 -4.50216 1076.23C-4.48693 1076.36 -4.47026 1076.51 -4.45173 1076.65C-4.43376 1076.79 -4.41113 1076.95 -4.38871 1077.09C-4.37254 1077.2 -4.35007 1077.32 -4.33071 1077.43C-4.31048 1077.54 -4.28942 1077.65 -4.26836 1077.76C-4.24727 1077.86 -4.22587 1077.96 -4.20547 1078.06C-4.20334 1078.07 -4.20121 1078.08 -4.19908 1078.09C-4.18106 1078.18 -4.16356 1078.26 -4.14751 1078.34C-4.12957 1078.43 -4.11337 1078.52 -4.09867 1078.6C-4.08234 1078.68 -4.07387 1078.74 -4.06377 1078.8C-3.95092 1079.67 -3.83862 1080.75 -3.72937 1081.77C-3.71562 1081.9 -3.7019 1082.02 -3.68809 1082.15C-3.61576 1082.83 -3.54358 1083.5 -3.47077 1084.17C-3.41785 1084.66 -3.36458 1085.14 -3.31048 1085.63C-3.23127 1086.34 -3.14816 1087.08 -3.0647 1087.79C-3.01264 1088.24 -2.96086 1088.68 -2.90755 1089.13C-2.76927 1090.28 -2.62217 1091.46 -2.46885 1092.63C-2.31591 1093.79 -2.15273 1094.96 -1.97856 1096.14C-1.80529 1097.3 -1.61292 1098.51 -1.40585 1099.68C-1.25316 1100.54 -1.0698 1101.4 -0.891035 1102.21C-0.794756 1102.65 -0.69902 1103.08 -0.60397 1103.5C-0.603568 1103.5 -0.603168 1103.5 -0.602765 1103.5C-0.519338 1103.87 -0.436755 1104.23 -0.356013 1104.59C-0.182829 1105.36 -0.0172577 1106.12 0.140303 1106.88C0.297545 1107.64 0.445731 1108.4 0.585855 1109.15C0.724945 1109.91 0.859683 1110.69 0.984294 1111.45C1.11004 1112.22 1.22449 1112.97 1.3419 1113.77C1.49494 1114.82 1.63757 1115.85 1.78265 1116.91C1.92787 1117.98 2.07158 1119.05 2.21563 1120.11C2.26582 1120.48 2.31717 1120.86 2.36831 1121.24C2.36853 1121.24 2.36875 1121.24 2.36897 1121.24C2.46345 1121.94 2.55818 1122.63 2.65348 1123.33C2.79971 1124.39 2.95133 1125.48 3.10464 1126.56C3.2577 1127.64 3.41693 1128.73 3.58271 1129.82C3.74846 1130.91 3.92533 1132.03 4.12136 1133.15C4.2954 1134.15 4.47573 1135.15 4.65406 1136.14C4.70098 1136.4 4.74785 1136.66 4.79467 1136.92C5.01574 1138.15 5.22672 1139.35 5.41558 1140.53C5.60398 1141.71 5.77698 1142.9 5.9348 1144.1C6.09132 1145.29 6.23944 1146.51 6.37675 1147.73C6.51385 1148.94 6.64412 1150.17 6.76726 1151.4C6.88987 1152.63 7.00927 1153.87 7.12207 1155.12C7.18576 1155.81 7.2588 1156.55 7.32953 1157.25C7.40105 1157.95 7.47407 1158.65 7.54818 1159.34C7.57808 1159.62 7.60808 1159.9 7.63744 1160.18C7.68025 1160.58 7.72247 1160.98 7.76271 1161.37C7.83041 1162.03 7.895 1162.68 7.95018 1163.31C8.00565 1163.94 8.05177 1164.55 8.08714 1165.14C8.12376 1165.76 8.14422 1166.27 8.15673 1166.87C8.2197 1168.34 8.29722 1169.26 8.37895 1170.26C8.39505 1170.46 8.41098 1170.66 8.42731 1170.87C8.43695 1170.99 8.44665 1171.11 8.45641 1171.22C8.54208 1172.26 8.63679 1173.35 8.73427 1174.46C8.83418 1175.61 8.9409 1176.8 9.05039 1178.02C9.1533 1179.16 9.26312 1180.36 9.37533 1181.58C9.48187 1182.73 9.59257 1183.91 9.70734 1185.12C9.8197 1186.3 9.93442 1187.48 10.0498 1188.67C10.1169 1189.36 10.1889 1190.06 10.2573 1190.71C10.3066 1191.18 10.3558 1191.66 10.4035 1192.12C10.423 1192.31 10.4422 1192.5 10.4611 1192.69C10.5263 1193.33 10.5872 1193.97 10.6381 1194.56C10.6895 1195.15 10.7332 1195.73 10.7668 1196.31C10.8005 1196.88 10.8241 1197.45 10.8381 1198.02C10.8522 1198.61 10.855 1199.07 10.8489 1199.69C10.8446 1200.09 10.8392 1200.48 10.8332 1200.88C10.8244 1201.47 10.8136 1202.06 10.8007 1202.65C10.7878 1203.25 10.7716 1203.81 10.7536 1204.39C10.7477 1204.58 10.7414 1204.78 10.735 1204.97C10.7152 1205.55 10.693 1206.12 10.6675 1206.7C10.6421 1207.28 10.6137 1207.86 10.581 1208.41C10.5483 1208.98 10.5125 1209.53 10.4721 1210.1C10.403 1211.06 10.3764 1212 10.3593 1212.82C10.3423 1213.63 10.3345 1214.39 10.3254 1215.13C10.3237 1215.27 10.3219 1215.41 10.3201 1215.55C10.3124 1216.15 10.3042 1216.75 10.2925 1217.33C10.2782 1218.07 10.259 1218.75 10.2347 1219.45C10.2106 1220.15 10.181 1220.86 10.1453 1221.56C10.1092 1222.26 10.0691 1222.95 10.0195 1223.66C9.97059 1224.37 9.90782 1225.09 9.83706 1225.89C9.76683 1226.68 9.69203 1227.51 9.62152 1228.36C9.55124 1229.18 9.48493 1230.03 9.4254 1230.87C9.36565 1231.72 9.31149 1232.57 9.26284 1233.41C9.21392 1234.25 9.1709 1235.08 9.13083 1235.91C9.09092 1236.74 9.0529 1237.59 9.01991 1238.4C8.96616 1239.71 8.91223 1240.98 8.85197 1242.28C8.79247 1243.57 8.72722 1244.87 8.6582 1246.15C8.58893 1247.43 8.51363 1248.72 8.43229 1250.01C8.35121 1251.3 8.26494 1252.57 8.17139 1253.86C8.15072 1254.14 8.1297 1254.42 8.10834 1254.71C8.03298 1255.71 7.95399 1256.7 7.87098 1257.69C7.87051 1257.7 7.87004 1257.71 7.86956 1257.72C7.76228 1258.99 7.64975 1260.25 7.52593 1261.51C7.4802 1261.98 7.43589 1262.42 7.38862 1262.88C7.34132 1263.33 7.29324 1263.77 7.24279 1264.22C7.19227 1264.67 7.13992 1265.12 7.08604 1265.56C7.03148 1266 6.97605 1266.43 6.91665 1266.87C6.86233 1267.27 6.80493 1267.67 6.74191 1268.1C6.73615 1268.14 6.73037 1268.18 6.72459 1268.22C6.65536 1268.69 6.579 1269.23 6.51425 1269.73C6.34386 1271.06 6.16443 1272.36 5.96872 1273.67C5.77304 1274.98 5.56442 1276.29 5.34306 1277.61C5.25666 1278.13 5.1678 1278.65 5.07798 1279.16C4.93828 1279.97 4.79472 1280.77 4.64841 1281.58C4.40755 1282.91 4.16063 1284.24 3.90881 1285.58C3.65802 1286.91 3.40296 1288.25 3.14705 1289.59C2.89144 1290.92 2.62998 1292.26 2.36964 1293.59C2.07973 1295.06 1.78269 1296.53 1.47149 1298C1.16087 1299.47 0.840569 1300.93 0.506132 1302.39C0.170575 1303.85 -0.176447 1305.31 -0.536465 1306.76C-0.89767 1308.21 -1.27416 1309.66 -1.66332 1311.1C-1.89637 1311.97 -2.13371 1312.83 -2.37919 1313.69C-2.55314 1314.13 -2.72192 1314.56 -2.88505 1314.96C-4.09165 1317.95 -5.017 1320.1 -6.19995 1322.91C-6.31883 1323.18 -6.42614 1323.4 -6.55599 1323.66C-6.5808 1323.71 -6.60686 1323.76 -6.63367 1323.81C-6.8035 1324.15 -6.9959 1324.55 -7.24175 1325.1C-7.73412 1326.21 -8.4154 1327.9 -9.11588 1330.21C-9.2921 1330.8 -9.14619 1331.28 -8.78479 1331.3C-8.53127 1331.31 -8.2388 1331.09 -8.02585 1330.76C-8.28365 1331.44 -8.54327 1332.12 -8.80669 1332.79C-8.91176 1333.06 -8.9549 1333.34 -8.92406 1333.56C-8.89314 1333.79 -8.79122 1333.94 -8.63844 1334C-8.48564 1334.05 -8.29325 1334 -8.10188 1333.84C-7.91067 1333.69 -7.73666 1333.46 -7.61738 1333.19C-7.30119 1332.49 -6.9909 1331.78 -6.68321 1331.07C-6.37567 1330.35 -6.0704 1329.64 -5.77111 1328.93C-5.47258 1328.22 -5.17696 1327.5 -4.88374 1326.79C-4.5916 1326.07 -4.30245 1325.35 -4.01599 1324.63C-3.72653 1323.89 -3.45132 1323.19 -3.17299 1322.46C-3.00647 1322.02 -2.83958 1321.58 -2.6767 1321.15C-2.6161 1320.99 -2.5567 1320.83 -2.49779 1320.67C-2.44964 1320.54 -2.40158 1320.41 -2.35211 1320.27C-1.8291 1318.86 -1.32267 1317.44 -0.832809 1316.02C-0.341092 1314.59 0.136726 1313.15 0.595612 1311.71C1.05564 1310.28 1.50329 1308.83 1.93432 1307.38C2.36447 1305.93 2.78102 1304.48 3.18549 1303.02C3.58862 1301.56 3.97715 1300.1 4.35476 1298.64C4.64666 1297.5 4.92955 1296.38 5.20541 1295.25C5.33835 1294.81 5.46736 1294.38 5.59292 1293.95C5.95826 1292.7 6.34154 1291.44 6.70985 1290.21C6.19272 1292.43 5.7107 1294.21 5.23937 1295.89C5.17609 1296.12 5.11282 1296.34 5.04967 1296.57C4.40112 1298.85 3.77035 1301.04 2.99606 1304.02C0.775405 1312.48 -0.891737 1317.27 -1.86911 1320.27C-2.86689 1323.27 -3.25674 1324.56 -3.50297 1325.83C-3.84494 1327.63 -5.01375 1330.89 -5.72923 1332.49C-5.98505 1333.07 -5.94017 1333.65 -5.6247 1333.79C-5.30921 1333.93 -4.84019 1333.57 -4.58196 1332.99C-3.81942 1331.29 -2.53537 1327.74 -2.13045 1325.58C-1.94751 1324.62 -1.64809 1323.57 -0.658569 1320.6C0.308376 1317.62 1.97381 1312.85 4.21098 1304.33C4.96147 1301.44 5.57193 1299.32 6.21832 1297.05C6.28135 1296.82 6.34486 1296.6 6.40837 1296.37C6.4087 1296.37 6.40903 1296.37 6.40936 1296.37C6.99331 1294.29 7.6127 1292 8.28593 1288.9C9.87595 1281.74 11.5175 1272.01 11.9272 1269.7C12.012 1269.25 12.0968 1268.81 12.185 1268.35C12.5203 1266.57 12.9371 1264.44 13.5345 1259.57C13.6637 1258.5 13.7977 1257.26 13.93 1255.89C14.2887 1253.85 14.6098 1251.89 14.8366 1250.16C15.0324 1248.67 15.2774 1247.3 15.527 1245.98C15.5989 1245.59 15.6724 1245.21 15.7455 1244.83C15.9215 1243.89 16.094 1242.96 16.2355 1242.06C16.3482 1241.34 16.4754 1240.58 16.6073 1239.79C17.0883 1236.86 17.6394 1233.35 17.7579 1228.77C17.8825 1223.88 17.8328 1219.74 17.7476 1216.14C17.8399 1218.81 17.9249 1220.8 17.9948 1222.52C18.0079 1222.84 18.0203 1223.16 18.0321 1223.45C18.1145 1225.52 18.1629 1227.04 18.1204 1228.68C17.9001 1236.44 17.6065 1239.36 17.1234 1242.61C16.993 1243.47 16.8276 1244.42 16.6453 1245.44C16.2826 1247.46 15.8493 1249.8 15.4911 1252.3C15.1575 1254.62 14.7106 1257.22 14.2046 1259.96C14.2045 1259.96 14.2043 1259.96 14.2042 1259.96C14.1052 1260.5 14.0039 1261.04 13.9006 1261.59C13.2722 1264.92 12.5724 1268.41 11.9274 1271.8C11.8584 1272.17 11.7719 1272.6 11.6711 1273.1C11.0884 1275.98 10.0358 1281.01 9.02553 1287.21C8.80331 1288.58 8.6067 1290 8.36671 1291.62C8.29339 1292.11 8.21624 1292.63 8.13243 1293.16C7.76935 1295.47 7.28607 1298.28 6.43903 1301.96C5.73841 1305.01 4.76795 1308.69 3.63735 1312.49C3.08423 1314.35 2.48761 1316.26 1.88092 1318.12C0.0397158 1323.74 -1.83992 1328.83 -3.97461 1333.83C-3.97506 1333.83 -3.97552 1333.84 -3.97597 1333.84C-4.22743 1334.43 -4.17308 1335 -3.84994 1335.13C-3.52699 1335.25 -3.05553 1334.87 -2.80198 1334.28C-0.651032 1329.23 1.23396 1324.12 3.07994 1318.48C3.68102 1316.63 4.27694 1314.73 4.83136 1312.87C5.9748 1309.03 6.96415 1305.27 7.67389 1302.18C8.53898 1298.41 9.03142 1295.54 9.39986 1293.19C9.48823 1292.62 9.5684 1292.09 9.643 1291.58C9.87994 1289.97 10.0636 1288.63 10.275 1287.33C11.2554 1281.3 12.2761 1276.44 12.8644 1273.54C12.9687 1273.03 13.0587 1272.57 13.1322 1272.19C13.7685 1268.85 14.4628 1265.39 15.0949 1262.06C15.1977 1261.52 15.2988 1260.98 15.3982 1260.44C15.3985 1260.44 15.3988 1260.44 15.3991 1260.44C15.9091 1257.69 16.3669 1255.03 16.7091 1252.66C17.0556 1250.26 17.4515 1248.13 17.8066 1246.17C17.9968 1245.13 18.1772 1244.09 18.3309 1243.08C18.8484 1239.62 19.1493 1236.54 19.371 1228.73ZM-7.62914 1329.7C-7.17403 1328.25 -6.74571 1327.13 -6.3928 1326.29C-6.65014 1327.02 -6.90969 1327.74 -7.17289 1328.46C-7.32306 1328.87 -7.47616 1329.29 -7.62914 1329.7ZM12.702 1255.59C12.6589 1255.84 12.6152 1256.08 12.571 1256.33C12.6458 1255.64 12.718 1254.96 12.788 1254.27C12.874 1253.43 12.9564 1252.59 13.0356 1251.75C12.9304 1253.08 12.8179 1254.38 12.702 1255.59ZM16.5067 1228.73C16.395 1233.03 15.895 1236.25 15.4233 1239.14C15.287 1239.98 15.1534 1240.77 15.0297 1241.57C14.9784 1241.9 14.9233 1242.23 14.8653 1242.56C14.9585 1240.61 15.0266 1238.83 15.0758 1237.35C15.2177 1233 15.1743 1230.47 15.1341 1228.3C15.1221 1227.66 15.1092 1227.05 15.0979 1226.43C15.1498 1225.91 15.2007 1225.38 15.2456 1224.84C15.309 1224.09 15.3689 1223.3 15.4191 1222.5C15.4695 1221.72 15.5133 1220.92 15.5489 1220.15C15.5849 1219.36 15.6133 1218.59 15.6362 1217.82C15.6578 1217.09 15.6741 1216.35 15.6883 1215.65C15.6891 1215.61 15.6899 1215.57 15.6907 1215.53C15.7056 1214.79 15.7179 1214.07 15.7363 1213.41C15.7554 1212.74 15.7786 1212.17 15.8177 1211.67C15.8664 1211.04 15.9113 1210.4 15.951 1209.76C15.9908 1209.13 16.0258 1208.51 16.0565 1207.88C16.0871 1207.26 16.1131 1206.62 16.1359 1205.99C16.1432 1205.79 16.1505 1205.57 16.1571 1205.37C16.1601 1205.28 16.1633 1205.19 16.1662 1205.09C16.2062 1206.31 16.2458 1207.62 16.2827 1208.91C16.3364 1210.79 16.4079 1212.85 16.4678 1215.06C16.5689 1218.91 16.6447 1223.27 16.5067 1228.73ZM15.3336 1186.56C15.3692 1187.08 15.4158 1187.86 15.4725 1188.89C15.4862 1189.13 15.4987 1189.38 15.5125 1189.63C15.5118 1189.63 15.5114 1189.62 15.5107 1189.62C15.4378 1188.99 15.3664 1188.35 15.2951 1187.71C15.1665 1186.54 15.0482 1185.49 14.922 1184.32C14.7963 1183.17 14.6748 1182.05 14.5537 1180.94C14.4281 1179.77 14.3052 1178.64 14.1869 1177.54C14.0631 1176.39 13.9392 1175.24 13.8225 1174.15C13.7867 1173.81 13.7443 1173.41 13.7057 1173.05C13.8344 1173.9 13.9461 1174.67 14.0678 1175.57C14.1633 1176.26 14.2675 1177.06 14.3679 1177.8C14.4069 1178.09 14.4573 1178.44 14.5156 1178.85C14.7491 1180.53 15.1021 1183.13 15.3336 1186.56ZM12.905 1164.03C12.8779 1163.77 12.85 1163.51 12.8209 1163.25C12.7383 1162.52 12.6492 1161.81 12.5584 1161.1C12.4953 1160.62 12.431 1160.13 12.3672 1159.65C12.3403 1159.45 12.3136 1159.25 12.2868 1159.05C12.242 1158.72 12.1979 1158.38 12.154 1158.05C12.5246 1160.36 12.8691 1162.61 13.1948 1164.96C13.1991 1164.99 13.2031 1165.02 13.2074 1165.06C13.1048 1164.71 13.0033 1164.36 12.905 1164.03Z" fill="#FFE1B2"/>
<path d="M0.704845 358.138C1.89326 357.873 10.0406 357.32 10.5565 357.679C10.7046 357.783 11.3727 359.371 11.4776 359.705C12.5706 363.201 11.9083 377.462 11.8495 381.987C11.7106 392.754 10.6963 403.529 10.842 414.306C10.7863 412.908 10.3095 411.249 10.3802 409.795L9.18382 410.807C10.6438 396.565 10.6178 381.742 10.3735 367.439C9.99421 367.298 9.51783 368.66 9.45297 368.912C8.26323 373.537 9.20888 389.869 8.90429 395.983C8.48245 404.47 7.86672 413.793 6.97503 422.225C6.75363 424.314 6.99593 426.107 5.77948 428.578C3.01881 434.182 -0.886048 433.3 -5.36184 430.141C-7.34641 427.395 -4.65181 427.123 -2.69178 428.576L-3.89036 420.196C-3.49752 403.668 -3.39065 387.022 -1.41184 370.567C-1.11276 368.079 0.665224 364.014 -0.400542 361.819C-0.549316 361.512 -0.458805 361.015 -0.492612 360.991C-1.15316 360.519 -4.9752 361.869 -4.72797 360.621C-4.347 358.694 -0.855261 359.121 0.428456 358.781C0.974661 358.636 0.670374 358.144 0.70485 358.137L0.704845 358.138Z" fill="#F8CB83"/>
<path d="M0.70505 358.138C0.670574 358.145 0.974868 358.637 0.428663 358.782C-0.854378 359.122 -4.34612 358.695 -4.72777 360.622C-4.97432 361.87 -1.15296 360.52 -0.492409 360.992C-0.458604 361.016 -0.549113 361.513 -0.400339 361.82C-4.99485 381.503 -5.58714 402.2 -4.35019 422.315C-3.74031 423.025 -3.89687 420.477 -3.89016 420.197L-2.69158 428.577C-4.65161 427.124 -7.34552 427.396 -5.36163 430.142C-0.804218 436.449 4.79263 432.456 8.08137 427.382C5.77651 434.106 -1.72973 436.256 -6.19045 430.05C-8.42927 426.935 -8.10366 416.902 -8.03467 412.923C-7.7359 395.704 -6.07496 378.383 -5.28066 361.177C-5.08644 358.202 -1.45406 358.835 0.703702 358.139L0.70505 358.138Z" fill="#F8CB83"/>
<path d="M10.8439 414.307C10.998 418.15 10.162 424.175 8.08306 427.381C4.79433 432.455 -0.802518 436.448 -5.35993 430.141C-0.884141 433.301 3.02072 434.183 5.78139 428.578C6.99851 426.108 6.75689 424.314 6.97694 422.225C8.73744 418.786 8.79829 414.58 9.18505 410.808L10.3815 409.796C10.3093 411.25 10.7862 412.909 10.8432 414.307L10.8439 414.307Z" fill="#F8CB83"/>
<path d="M-1.23217 333.188C-0.852303 332.799 8.27476 333.107 9.63279 332.453C9.92419 332.671 9.73675 335.811 9.63334 335.952C8.79391 337.103 -0.0829319 337.394 -1.6001 336.319C-1.75292 336.115 -1.38898 333.349 -1.23217 333.188Z" fill="#FFE1B2"/>
<path d="M-0.398214 361.819C0.667551 364.014 -1.11042 368.078 -1.4095 370.567C-3.38764 387.021 -3.49451 403.669 -3.88803 420.196C-3.89474 420.476 -3.73818 423.024 -4.34806 422.314C-5.58501 402.199 -4.99273 381.502 -0.398214 361.819Z" fill="#F8CB83"/>
<path d="M9.18461 410.81C8.79784 414.582 8.73767 418.789 6.9765 422.227C7.86818 413.796 8.48391 404.473 8.90576 395.986C9.21035 389.872 8.26469 373.54 9.45444 368.915C9.51929 368.662 9.99636 367.301 10.375 367.442C10.6192 381.745 10.6446 396.569 9.18528 410.81L9.18461 410.81Z" fill="#F8CB83"/>
<path d="M-0.861639 346.442L7.97803 346.259L9.8212 356.756L-3.80585 358.411L-0.861639 346.442Z" fill="#FFE1B2"/>
<path d="M1.1656 349.57C1.53398 349.189 2.60351 349.55 2.27035 350.307C1.78108 351.418 0.685705 350.065 1.1656 349.57Z" fill="#FFE1B2"/>
<path d="M4.47998 353.623C4.73273 353.072 6.20649 353.299 5.76925 354.176C5.41647 354.883 4.20358 354.228 4.47998 353.623Z" fill="#FFE1B2"/>
<path d="M3.00658 352.146C3.09907 351.323 4.7987 351.979 4.29585 352.699C4.11742 352.954 2.92962 352.827 3.00658 352.146Z" fill="#FFE1B2"/>
<path d="M0.611813 353.07C0.963258 352.517 1.86787 353.096 1.53264 353.623C1.1812 354.176 0.276588 353.597 0.611813 353.07Z" fill="#FFE1B2"/>
<path d="M6.87286 353.068C7.02213 352.247 8.26883 352.911 7.97822 353.437C7.73492 353.876 6.78506 353.554 6.87286 353.068Z" fill="#FFE1B2"/>
<path d="M6.68909 348.464C7.22438 347.668 7.71605 348.936 7.42608 349.201C7.13611 349.467 6.38766 348.913 6.68909 348.464Z" fill="#FFE1B2"/>
<path d="M4.93884 346.166L4.10993 345.52C5.0003 345.815 6.46307 344.919 7.05652 344.232C3.58177 344.348 0.43658 346.603 -0.954659 342.481C-1.19003 341.782 -1.63822 337.562 -1.23131 337.232L9.08142 337.049C8.92407 338.099 7.68131 345.173 7.42583 345.52C7.14602 345.9 5.47965 346.097 4.94019 346.164L4.93884 346.166Z" fill="#FFE1B2"/>
<path d="M4.9395 346.166C2.31387 346.498 -1.47602 345.913 -0.953999 342.481C0.43724 346.603 3.58243 344.348 7.05717 344.232C6.46441 344.918 5.00096 345.815 4.11059 345.521L4.9395 346.166Z" fill="#FFE1B2"/>
<path d="M0.978497 341.653C1.42528 341.211 2.11768 342.144 2.08324 342.39C1.99276 343.05 0.480346 342.147 0.978497 341.653Z" fill="#FFE1B2"/>
<path d="M4.479 341.468C4.83044 340.916 5.73506 341.494 5.39983 342.022C5.04839 342.575 4.14377 341.996 4.479 341.468Z" fill="#FFE1B2"/>
<path d="M5.95308 339.259C6.20708 338.111 7.49846 339.171 6.68933 339.627C6.6535 339.647 5.91052 339.45 5.95308 339.259Z" fill="#FFE1B2"/>
<path d="M2.26813 339.996C2.51485 339.865 3.10986 340.524 2.63668 340.732C2.24799 340.903 2.18431 340.039 2.26813 339.996Z" fill="#FFE1B2"/>
<path d="M-20.3029 263.116C-19.6862 263.548 -20.4271 264.03 -20.763 264.314C-44.172 284.071 -34.9073 320.878 -6.48091 330.703C-37.2447 322.94 -44.7489 282.533 -20.3029 263.116Z" fill="#BEC9D9"/>
<path d="M-6.4818 330.702C-34.9082 320.877 -44.1729 284.07 -20.7639 264.312C-20.428 264.029 -19.6871 263.547 -20.3038 263.115C5.53607 242.591 45.1085 263.324 42.0386 296.918C39.9607 319.658 15.6572 338.354 -6.48045 330.702L-6.4818 330.702Z" fill="#E0E5EC"/>
<path d="M-20.9479 268.917C-10.4651 258.281 8.70392 256.339 21.407 263.951C52.5706 282.626 36.85 331.433 -0.12913 327.849C-29.369 325.016 -40.6765 288.932 -20.9479 268.917Z" fill="#D4DEEC"/>
<path d="M-22.4203 272.233C6.669 237.974 55.8492 280.901 31.1754 312.941C1.25391 351.794 -50.4877 305.289 -22.4203 272.233Z" fill="#F9F9F9"/>
<path d="M7.22644 262.475C16.4762 264.94 26.9996 271.777 31.1694 280.71C33.9711 286.713 34.4531 299.101 31.3572 305.019C28.837 309.836 25.863 313.101 20.3091 310.542C26.281 305.991 28.5391 298.401 28.9612 291.207C29.6232 279.913 22.6232 272.803 13.6724 266.896C11.5724 265.509 8.47757 265.458 7.22644 262.475Z" fill="#E2E8EC"/>
<path d="M-23.1563 278.126C-22.6913 277.61 -19.9315 275.358 -19.4737 276.101C-26.5566 291.903 -23.7927 315.065 -4.18181 319.747C-5.16091 322.655 -7.87253 322.11 -10.0745 321.219C-23.4424 315.814 -33.985 290.105 -23.1563 278.126Z" fill="white"/>
</svg>
