<svg width="113" height="1620" viewBox="0 0 113 1620" fill="none" xmlns="http://www.w3.org/2000/svg">
<path d="M58.7682 127.741C58.3754 131.527 56.7313 135.807 54.06 138.595C51.3888 141.383 46.7275 144.078 42.9043 144.806C35.6634 146.182 44.2715 140.925 45.3324 139.981C51.9145 134.136 56.1764 127.79 52.6336 118.719C53.0768 118.471 57.479 125.096 57.6815 123.703C53.1759 111.579 49.3712 99.3498 46.208 86.8033C47.718 88.9027 48.5856 92.2003 49.3613 94.8015C52.2785 104.59 56.7346 116.7 58.1277 126.567C58.2064 127.133 58.5811 127.289 58.7671 127.737L58.7682 127.741Z" fill="#9EBB8E"/>
<path d="M25.881 42.1654C30.8743 56.769 35.5892 71.4273 40.4347 86.0835C40.145 86.1945 40.1935 86.6579 39.9049 86.761C38.541 87.2542 36.3144 87.1604 34.844 87.4342C26.184 67.1903 21.889 42.8253 12.9736 22.9545C5.83324 7.04711 -15.7837 15.6753 -15.064 27.9714C-14.6868 34.3984 -8.55524 49.1529 -6.25205 56.0804C-4.06856 62.6468 -1.68214 69.1347 0.501359 75.7011C6.49254 93.7238 12.0537 114.571 18.5773 131.766C17.0891 132.926 16.0549 134.505 14.0393 134.775C-0.0525455 103.565 -7.22429 65.502 -20.5158 33.5466C-26.8097 12.9683 0.187489 -1.99445 14.352 14.2038C19.6644 20.2803 23.1747 34.2364 25.8844 42.1643L25.881 42.1654Z" fill="#D4DEEC"/>
<path d="M-10.1906 10.4043C-2.3252 6.81256 6.63162 7.14851 12.4619 13.8251C10.2483 13.476 8.44228 11.7631 6.3492 10.9508C-4.40542 6.77517 -13.6256 13.1983 -19.4317 22.0078C-19.3561 17.5586 -14.191 12.2282 -10.1906 10.4043Z" fill="#D4DEEC"/>
<path d="M26.7182 56.461L29.7213 65.1383L32.0414 74.042C30.6511 71.2848 30.2043 68.1812 29.2682 65.2885C28.3723 62.5285 26.3362 59.4984 26.7216 56.4599L26.7182 56.461Z" fill="#D4DEEC"/>
<path d="M8.23318 112.33L9.51207 115.046L10.4844 118.365C9.13355 116.553 9.12518 114.308 8.23206 112.327L8.23318 112.33Z" fill="#D4DEEC"/>
<path d="M58.7681 127.74C58.5822 127.292 58.2075 127.136 58.1288 126.57C56.738 116.699 52.2796 104.593 49.3624 94.8044C48.5867 92.2032 47.7158 88.9068 46.2091 86.8062C49.3722 99.3527 53.177 111.582 57.6826 123.706C57.4801 125.099 53.0779 118.474 52.6347 118.722C56.1775 127.793 51.9156 134.139 45.3335 139.984C44.2726 140.928 35.6645 146.185 42.9053 144.808C46.7286 144.081 51.3616 141.414 54.0611 138.598C50.7189 144.695 38.8185 149.474 32.2451 149.094C23.9801 148.615 17.2668 141.935 14.0361 134.779C16.0506 134.505 17.0893 132.928 18.5742 131.769C22.038 140.897 32.0831 145.072 40.9505 141.186C56.6615 134.305 51.6142 121.18 47.9361 108.722C46.8509 105.051 45.7554 101.428 44.562 97.7813C43.2802 93.8568 41.7224 89.9826 40.435 86.0862C35.5894 71.43 30.8745 56.7717 25.8813 42.1681C27.4033 41.9822 31.0805 39.6473 32.0415 41.0071L58.9698 123.785C59.3605 125.315 58.9143 126.369 58.7738 127.746L58.7681 127.74Z" fill="#9EBB8E"/>
<path d="M29.9973 42.055C31.9842 40.5649 32.6228 44.9723 33.1596 46.66C38.2297 62.6166 42.7293 78.7997 46.7964 95.025C41.3112 79.8091 35.9548 64.4718 31.6451 48.9188C31.2452 47.4742 28.8036 42.9488 30.0007 42.0539L29.9973 42.055Z" fill="#9EBB8E"/>
<path d="M18.1562 133.158L25.4637 141.54C22.2545 139.716 19.6138 136.537 18.1562 133.158Z" fill="#9EBB8E"/>
<path d="M34.8436 87.4348C36.3185 87.1633 38.5417 87.2582 39.9045 86.7616C41.588 90.3695 42.8204 94.1679 44.1082 97.9294C45.2069 101.143 47.0505 105.619 47.7089 108.795C51.2035 125.637 28.1116 135.522 17.5768 121.919C12.7547 115.692 3.95066 85.1039 0.726379 75.6233C-1.50222 69.0793 -3.5854 62.476 -5.80047 55.9275C-5.64456 55.7185 -5.03343 54.4484 -4.92741 54.3833C-3.44418 53.4572 0.233773 52.2459 0.81289 54.6163C8.05291 72.7496 12.173 93.8573 19.7178 111.665C23.2433 119.982 30.2617 126.201 38.2865 117.949C46.8227 109.167 35.0029 97.0095 34.8436 87.4348Z" fill="#9EBB8E"/>
<path d="M-2.73975 54.9171C-1.58755 53.9434 -0.486471 55.1256 0.0518616 56.1273C3.68856 68.4719 7.49764 80.7931 11.752 92.9517C15.3652 103.277 18.7573 118.157 28.3758 124.125C30.2935 125.314 30.6224 123.815 32.382 123.678C32.8935 123.636 33.7548 124.275 34.3427 124.283C35.2291 124.296 37.7585 123.447 38.2722 124.363C39.8762 127.244 29.6885 126.342 28.3737 126.01C21.3259 124.243 19.2036 119.47 16.6963 113.172C10.1776 96.7963 4.53221 77.7786 -1.38721 60.8785C-1.77439 59.7781 -3.50941 55.573 -2.73187 54.9182L-2.73975 54.9171Z" fill="#9EBB8E"/>
<path d="M38.0517 87.6257C38.9856 87.0465 39.4115 87.9805 39.7872 88.6839C41.6399 92.1458 46.2513 106.752 47.1384 110.867C47.8851 114.332 45.1918 119.353 42.43 121.347C41.8757 121.43 42.0935 120.264 42.1322 120.064C42.4503 118.396 44.6372 115.641 45.1674 113.277C46.3918 107.856 42.9895 100.839 41.052 95.5472C40.667 94.4986 37.5991 88.0492 38.0472 87.6235L38.0517 87.6257Z" fill="#9EBB8E"/>
<path d="M38.5042 120.893C39.2891 120.43 39.0861 121.041 38.729 121.571C38.3225 121.534 38.1613 121.093 38.5042 120.893Z" fill="#9EBB8E"/>
<path d="M17.4357 1412.77C16.0143 1413.45 13.354 1405.4 11.4483 1404.67C17.4584 1385.57 23.7476 1366.55 30.7694 1347.8L36.9607 1357.4C31.5666 1371.53 27.3902 1386.15 22.2839 1400.36C21.7333 1401.89 18.0353 1412.49 17.438 1412.77L17.4357 1412.77Z" fill="#F1A198"/>
<path d="M40.2754 1321.8C40.3124 1321.76 41.0165 1321.76 40.9876 1321.07C42.1599 1321.14 47.2469 1327.48 47.2868 1329.16L37.5713 1355.93L36.8621 1355.52C34.9445 1352.5 33.7321 1348.93 31.1371 1346.47C30.7322 1345.2 38.7845 1323.26 40.2777 1321.8L40.2754 1321.8Z" fill="#E0E5EC"/>
<path d="M20.4432 1408.18C23.5834 1400.23 26.4309 1391.82 29.2719 1383.52C32.2108 1374.93 35.1559 1366.33 37.9132 1357.68C49.0949 1360.78 61.0418 1358.81 72.3824 1360.76L51.2291 1416.07L20.8212 1415.39C15.9912 1415.06 19.38 1410.86 20.4409 1408.18L20.4432 1408.18Z" fill="#F1A198"/>
<path d="M20.4424 1408.18L29.2711 1383.52C26.4314 1391.82 23.5848 1400.23 20.4424 1408.18Z" fill="#F1A198"/>
<path d="M49.5091 1411.87L49.7251 1408.84C53.3935 1398.65 57.9137 1388.62 61.7542 1378.51C63.3978 1374.19 63.4341 1368.66 67.1054 1365.01L49.5078 1411.87L49.5091 1411.87Z" fill="#F1A198"/>
<path d="M27.2593 1397.57C29.1222 1391.78 30.2548 1384.15 32.9028 1378.9C32.9925 1378.72 33.5585 1377.41 33.9269 1378.16L27.8471 1398.04L29.0286 1396.73C27.7085 1402.21 24.5784 1407.38 23.6866 1412.81C23.5122 1412.77 22.6859 1412.76 22.613 1412.61C23.5703 1409.46 22.2711 1412.36 21.9563 1412.01C23.6275 1407.15 25.6832 1402.46 27.2593 1397.57Z" fill="#F1A198"/>
<path d="M37.8319 1368.06C38.3032 1367.96 37.9196 1369.03 37.8979 1369.31C37.6022 1373.07 34.7005 1380.97 33.3371 1384.79C32.7663 1386.39 31.9748 1388.54 30.9165 1389.86L37.8319 1368.06Z" fill="#F1A198"/>
<path d="M27.259 1397.57C25.6828 1402.46 23.6284 1407.16 21.9559 1412.01C22.2708 1412.37 23.5687 1409.45 22.6127 1412.61C22.6832 1412.76 23.5105 1412.77 23.6862 1412.81C25.2385 1413.2 27.405 1412.49 29.0188 1413.21C27.6991 1413.49 22.1627 1413.68 21.6094 1412.53L27.2603 1397.57L27.259 1397.57Z" fill="#F1A198"/>
<path d="M37.8971 1369.31C37.9188 1369.03 38.3024 1367.95 37.8311 1368.05C38.6949 1367.12 39.9547 1362.83 40.5306 1362.34C42.2312 1360.9 49.2553 1362.04 51.5947 1362.42C49.3431 1363.08 42.6738 1361.4 41.0494 1362.7C40.4801 1363.15 39.1707 1368.52 37.8971 1369.31Z" fill="#F1A198"/>
<path d="M66.4365 1362.97C61.6302 1362.6 56.8051 1362.41 52.0498 1361.52L59.3737 1361.77L66.4352 1362.97L66.4365 1362.97Z" fill="#F1A198"/>
<path d="M48.9493 1413.15C47.3545 1414.5 40.9552 1413.2 38.7825 1413.54C38.8136 1412.92 39.116 1413.01 39.5637 1412.94C41.7505 1412.55 45.8467 1413.75 48.3256 1413.18L49.0213 1412.14C49.615 1412.22 49.0351 1413.08 48.9493 1413.15Z" fill="#F1A198"/>
<path d="M47.287 1329.16C47.248 1327.48 42.1624 1321.14 40.9878 1321.07C41.0167 1321.76 40.3126 1321.76 40.2756 1321.8C40.802 1319.76 43.2374 1318.23 45.0489 1317.5C47.9903 1316.32 72.0933 1318.31 74.9832 1319.9C78.4841 1321.83 84.2893 1328.86 83.6756 1333.1L72.4007 1359.94C69.9296 1359.52 67.3513 1359.14 64.8533 1359.01C58.4131 1358.68 48.1934 1359.18 42.3089 1358.11C41.0226 1357.88 39.7631 1357.32 38.553 1356.83L47.2857 1329.16L47.287 1329.16Z" fill="white"/>
<path d="M77.9028 1329.08C71.1459 1328 54.5398 1329.21 49.5144 1325.17C48.1275 1324.05 47.2549 1322.28 45.7493 1321.31C44.9444 1316.29 52.4751 1319.8 54.8095 1320.09C59.0274 1320.62 71.8261 1320.65 74.7345 1322.3C76.5266 1323.32 80.5596 1327.11 77.9028 1329.08Z" fill="#E0E5EC"/>
<path d="M45.7494 1321.31C47.255 1322.28 48.1277 1324.05 49.5146 1325.17C54.5399 1329.21 71.1461 1328 77.903 1329.08C79.0259 1329.26 80.1595 1329.64 81.2616 1329.94C81.2098 1330.59 80.9599 1330.44 80.4804 1330.54C78.3866 1330.99 56.2316 1328.92 53.6111 1328.19C50.5727 1327.35 46.2887 1324.66 45.7517 1321.31L45.7494 1321.31Z" fill="#D4DEEC"/>
<path d="M70.8203 1355.99C70.2581 1356.47 67.3614 1357.08 67.1656 1356.58C69.5456 1354.24 70.1244 1350.82 72.573 1348.87C72.9261 1349.95 71.3013 1355.57 70.8226 1355.98L70.8203 1355.99Z" fill="#DCD9D8"/>
<path d="M-33 1574.25C-33 1598.27 -19.5244 1619.73 4.5 1619.73C28.5244 1619.73 52.5 1598.27 52.5 1574.25C52.5 1546.73 27.5 1523.73 2 1536.73C-19 1547.44 -33 1550.22 -33 1574.25Z" fill="#79A363" fill-opacity="0.8"/>
<path d="M-8.5 1575.6C-8.5 1585.84 -2.82606 1595 7.28947 1595C17.405 1595 27.5 1585.84 27.5 1575.6C27.5 1563.86 16.9737 1554.05 6.23684 1559.59C-2.60526 1564.16 -8.5 1565.35 -8.5 1575.6Z" fill="#79A363" fill-opacity="0.8"/>
<path d="M92.5 625.5C92.5 588.47 76 509 0 470V820.5C41 798.5 92.5 726 92.5 625.5Z" fill="#F1A198"/>
<path d="M-1.23069 495.328C0.452001 496.19 1.96533 497.28 3.23832 498.704C3.52802 499.028 3.27399 499.242 3.36778 499.402C3.53941 499.695 4.18096 499.81 4.237 499.863C4.58679 500.187 4.05499 500.478 4.08631 500.538C4.44099 501.197 4.74535 500.581 5.28175 501.009C5.97955 501.567 6.71269 502.453 7.44193 503.236C7.69674 503.512 7.26827 503.7 7.85987 504.252C8.27865 504.64 9.86008 505.569 10.0207 506.529C9.87653 506.67 9.6442 506.747 9.46301 506.858C10.865 507.131 11.1264 507.464 12.0699 508.822C12.2187 509.037 12.6408 508.992 12.8487 509.42C13.0555 509.848 12.6693 510.213 13.2748 510.901C13.49 511.144 13.9037 511.049 14.241 511.419C15.2053 512.467 16.56 514.853 17.2654 515.775C18.6598 517.586 19.9254 518.191 20.9631 519.96C21.0434 520.095 20.5082 520.064 20.6723 520.299C20.8375 520.536 21.455 520.456 21.5078 520.507C22.0794 521.045 22.4335 522.792 22.7495 523.089C23.524 523.813 23.1331 522.836 24.0432 523.959C24.9102 525.032 25.3828 527.001 26.0069 528.209C26.7292 529.608 27.8712 529.484 27.5945 531.06C29.8591 534.535 31.9888 538.11 34.0158 541.737C33.8216 541.829 33.6264 541.919 33.4311 542.009C33.7174 542.226 34.0035 542.444 34.2876 542.663C34.1234 542.695 33.9604 542.729 33.7978 542.76C35.0645 543.82 35.9883 544.899 36.6523 546.583C36.6653 546.616 36.242 546.726 36.2454 546.757C36.3564 547.155 36.8536 547.412 36.9432 547.765C37.1627 548.617 36.9626 550.336 37.7055 549.258C38.3796 551.169 39.7247 553.128 40.3126 554.968C40.5672 555.763 40.0496 556.264 40.1742 556.64C40.2984 557.016 40.7483 556.598 40.8254 556.717C41.2853 557.435 41.8118 558.716 41.2704 559.105C41.5753 559.157 41.8872 559.218 42.1954 559.275C41.4963 559.465 42.7804 561.751 43.0171 562.39C43.0611 562.506 42.7751 562.641 42.8134 562.727C43.2443 563.681 43.7949 563.725 44.2821 564.507C44.4523 564.781 43.7549 564.528 44.2756 565.196C44.3207 565.254 44.7745 565.036 45.1222 565.943C45.6786 567.383 46.8974 570.092 47.2748 571.913C47.3065 572.061 46.6404 571.812 46.9886 572.417C47.1136 572.637 47.44 572.396 47.6416 572.965C48.4309 575.183 48.7872 577.683 49.853 579.867C49.4093 579.912 48.6876 579.244 49.3306 580.388C49.4344 580.57 49.7622 580.309 49.8033 580.392C50.1311 581.072 50.0514 581.77 50.4236 582.494C50.5343 582.708 50.845 582.677 50.9981 582.94C51.2246 583.327 50.8593 583.635 51.1803 584.077C51.6824 584.766 52.1168 584.776 51.6008 585.948C53.1534 591.32 54.6661 596.702 55.3591 602.25C55.8939 603.82 56.4067 605.225 56.7656 606.876C56.8715 607.37 56.3397 607.552 56.6431 608.31C56.7113 608.48 57.4871 609.645 56.4018 609.984C56.547 610.314 56.5807 610.531 56.6806 610.817C56.8127 610.571 56.945 610.317 57.0787 610.078C57.0784 611.345 57.6112 612.374 57.9311 613.467C58.1649 614.275 57.6184 613.747 57.725 614.244C57.8286 614.74 57.9622 614.959 57.4583 615.669C58.1717 616.106 57.7443 616.494 57.8122 617.415C57.8199 617.514 58.1284 618.062 58.1164 618.539C58.1073 618.88 57.7035 619.018 57.8102 619.572C57.828 619.663 58.4234 620.801 58.4915 621.167C58.6027 621.742 58.1189 622.672 58.1171 622.78C58.1011 624.442 58.6388 625.054 57.7977 626.203C58.3148 626.406 58.628 627.42 58.5732 628.2C58.5128 629.185 57.4035 631.139 58.4934 631.46C57.9441 632.598 58.2629 632.431 58.1717 633.837C58.1333 634.397 57.971 635.342 57.7754 636.268C57.5258 637.466 57.2422 638.697 57.1999 639.25C57.1224 640.236 57.7989 639.846 57.8249 640.248C57.8673 640.907 57.4677 640.496 57.4093 640.934C57.2435 642.173 57.1564 643.256 57.1489 644.463C56.8233 644.472 56.4954 644.485 56.1694 644.495C56.2637 644.574 56.358 644.653 56.4521 644.732C56.4046 644.984 56.3605 645.267 56.3087 645.499C58.0429 643.774 55.8671 647.389 55.5864 648.522C55.3622 649.491 55.664 651.249 55.5572 652.349C55.532 652.617 55.2368 652.36 55.2323 652.416C55.1833 653.063 55.3912 653.213 55.158 654.045C55.0334 654.485 54.5026 654.833 54.3869 655.26C53.537 658.401 53.0887 661.543 52.1373 664.647C51.9751 665.176 51.3253 665.463 51.1685 665.897C50.9436 666.518 51.2184 667.05 51.0205 667.641C50.8227 668.233 50.0364 668.901 49.9675 669.321C49.8969 669.742 50.6131 669.237 50.2205 669.913C50.0398 670.223 49.9046 669.51 49.744 669.915C49.2472 671.17 48.9793 673.147 48.0198 674.316C48.1469 674.299 48.2725 674.255 48.4005 674.223C47.7795 675.641 47.0001 676.797 46.3229 678.234C46.0846 678.739 45.9678 679.791 45.7356 680.289C45.5041 680.786 45.077 680.861 44.8818 681.252C44.8007 681.412 45.1181 681.485 45.0605 681.591C44.3302 682.929 43.4574 683.422 42.8009 684.854C40.3767 690.12 37.4746 695.384 34.2369 700.344C34.107 700.543 34.3527 700.913 34.2003 701.232C33.963 701.727 33.6498 701.534 33.5975 701.584C33.2572 701.917 33.6444 701.962 33.272 702.47C32.4561 703.589 30.8541 705.182 30.0101 706.266C28.0603 708.779 26.5432 711.008 24.4996 713.4C24.3526 713.573 24.1037 713.124 23.8287 713.402C21.8778 715.331 21.7964 716.097 19.1741 718.337C16.5681 720.594 11.2973 724.417 7.87348 726.535C7.87285 726.534 7.87222 726.533 7.87159 726.532C7.31705 727.988 5.76953 728.694 4.24972 728.792C9.80699 722.891 16.0647 719.183 21.8457 713.22C27.8947 706.954 32.1251 698.655 36.722 691.394C37.1568 690.709 37.7704 690.683 38.0204 690.038C38.0625 689.929 37.5685 689.988 37.7114 689.661C39.6836 685.179 42.8216 680.932 44.5076 676.408C44.9583 675.194 44.6275 674.833 44.956 673.74C45.0738 674.005 45.2263 674.21 45.3542 674.452C47.9587 669.894 49.4241 664.838 50.9833 659.798C51.0544 659.57 51.48 659.661 51.5648 659.424C51.7351 658.951 51.4046 658.361 51.5047 657.937C51.6353 657.382 51.9944 657.377 52.109 656.861C52.1639 656.609 51.824 656.599 52.0202 656.073C52.0366 656.029 52.3816 656.087 52.4316 655.714C52.5692 654.699 52.7746 652.611 52.8745 651.77C53.0054 650.702 53.6983 649.972 53.8167 649.58C54.1338 648.521 53.6027 648.433 53.7847 647.524C54.5479 643.664 55.3565 639.912 55.9861 636.057C56.4078 633.495 56.6405 630.706 56.6442 628.01C56.6483 627.578 56.0355 625.982 56.0353 625.22C56.0406 624.963 56.1482 623.568 56.1494 623.353C56.1609 622.488 56.4817 621.784 56.5282 621.308C56.6214 620.405 55.9795 619.414 55.8831 618.935C55.7176 618.109 55.6457 616.585 55.6209 616.219C55.5653 615.342 56.2887 615.547 56.0585 614.943C55.9897 614.767 55.4799 615.017 55.4068 614.38C55.3465 613.846 55.7201 613.58 55.7467 613.201C55.773 612.823 55.0668 612.221 55.0513 611.987C54.9729 610.745 55.3085 610.199 55.1316 608.882C54.9995 607.765 53.8483 602.857 53.6032 602.448C52.6063 600.74 53.4853 603.748 53.4914 603.937C53.537 604.903 53.2644 604.807 53.9003 605.657C52.5843 606.705 55.3359 609.324 53.6944 610.313C54.963 610.905 54.4709 611.66 54.3441 612.514C54.1658 613.69 54.7339 612.741 54.8411 613.567C54.8831 613.895 54.4632 614.885 54.5893 615.363C54.7174 615.853 55.1458 616.021 55.2348 616.682C55.3943 617.869 55.2813 618.78 54.8713 619.835C55.1006 620.002 55.3288 620.157 55.5572 620.322C55.3744 621.028 55.1864 621.724 54.9917 622.405C55.1745 622.288 55.3587 622.17 55.5411 622.052C55.5796 622.247 55.616 622.443 55.6518 622.638C55.4018 623.309 55.1673 623.983 54.8958 624.668C56.0392 626.485 55.0765 625.937 54.949 626.991C54.8151 628.033 55.4413 628.624 55.4311 629.406C55.4139 630.458 55.4743 631.001 55.3747 632.059C55.318 632.668 54.6331 633.682 55.6572 632.877C55.6327 633.83 55.6162 634.96 55.5246 636.003C55.4197 637.194 55.2423 638.356 54.912 639.235C54.7265 639.732 54.5214 639.006 54.4715 639.089C54.2336 639.497 54.6696 639.932 54.5328 640.372C54.3073 641.104 53.6975 642.49 53.5091 643.055C53.2423 643.866 53.6319 645.302 53.652 645.445C53.7675 646.248 53.2063 646.35 53.1961 646.598C53.1389 648.009 53.2885 648.365 52.1042 648.567C52.5071 649.017 52.9808 650.68 52.1038 650.859C52.8206 651.027 52.4201 652.235 52.4162 653.035C52.1755 653.126 51.9353 653.219 51.6929 653.309C52.5979 655.196 50.8425 658.106 50.0851 660.095C50.0669 660.146 50.5689 660.394 50.3579 660.667C50.3423 660.684 50.1144 660.581 50.0219 660.779C49.7257 661.434 48.3224 663.82 48.2151 664.11C47.8381 665.186 48.162 665.506 47.9735 666.176C47.7224 667.06 47.3273 667.063 47.084 667.901C46.9688 668.292 47.3014 668.809 47.0132 669.388C46.8428 669.73 46.4703 669.63 46.3354 669.901C45.8524 670.864 45.7911 671.687 44.9752 672.381C46.0163 673.065 45.0121 673.15 44.7483 673.549C43.679 675.173 43.1998 677.546 42.406 678.987C39.9335 683.474 37.1477 687.09 34.4408 691.207C33.9991 691.874 34.4208 692.357 33.9352 693.055C33.7164 693.367 33.1325 693.457 32.7913 693.971C32.5157 694.384 32.3151 695.1 31.9662 695.616C31.8737 695.753 31.5204 695.533 31.3818 695.732C30.3312 697.24 29.5337 698.869 28.5796 700.48C28.2268 701.075 27.5282 701.078 28.3617 701.568C28.0133 701.636 27.6938 701.715 27.3586 701.768C27.2514 702.891 26.2794 703.105 25.5873 704.194C25.5154 704.312 25.4034 705.487 24.6807 705.596C24.9162 705.847 25.1929 705.97 25.4187 706.182C25.1637 706.686 24.3173 707.061 24.0412 707.313C23.7675 707.564 23.9354 708.043 23.8644 708.13C23.5905 708.454 23.2211 707.99 23.1924 708.008C21.4621 709.088 21.8367 709.128 21.6535 710.601C21.6072 710.978 19.7424 711.973 19.9347 712.75C19.7225 712.563 19.6274 712.307 19.4599 712.093C18.9786 712.472 18.4906 712.845 18.0037 713.213C18.2841 713.319 18.5841 713.407 18.8587 713.52C17.8022 714.216 17.479 715.389 16.7014 716.064C16.2573 716.448 15.9115 715.952 15.7432 716.277C15.7103 716.341 16.0637 716.568 15.9361 716.725C14.8875 717.997 14.0548 718.142 12.7497 719.102C12.1336 719.55 12.0596 720.549 10.8932 720.832C10.7842 720.859 9.54546 720.978 9.55823 722.124C9.21279 722.011 8.97111 721.994 8.69835 721.884C8.41128 723.793 7.92753 722.479 6.25414 723.223C5.39653 723.616 2.87281 725.485 2.059 726.11C1.5823 726.49 1.85855 726.959 1.77522 727.032C1.26876 727.463 1.01013 727.001 0.527251 727.366C0.0443037 727.731 -0.34482 728.616 -0.926339 728.853C-1.37001 729.032 -1.33386 728.277 -1.85457 728.796C-1.96229 728.905 -1.34054 729.22 -2.10185 729.353C-2.22275 729.377 -3.54517 729.345 -3.81599 729.324C-3.40231 728.751 -2.01574 727.558 -1.4952 727.122C7.91543 720.28 24.0643 704.615 30.6271 694.308C31.2688 693.395 32.149 693.088 32.5876 692.493C33.0245 691.896 32.2469 692.142 32.6392 691.6C33.029 691.062 33.5989 690.845 33.9508 690.327C36.3208 686.839 38.5422 683.185 40.4374 679.428C40.9267 678.456 40.9015 677.487 41.3063 676.583C41.4638 676.231 41.9726 676.443 42.0796 676.189C43.2318 673.465 43.762 670.727 44.8323 668C45.2766 666.87 46.1545 665.771 46.5805 664.64C46.9338 663.706 46.9515 662.618 47.2121 661.763C47.3522 661.298 47.8286 661.176 47.912 661.017C48.196 660.461 47.6422 660.517 47.7327 660.217C47.9818 659.391 48.6979 659.147 48.8743 658.351C48.9424 658.039 48.5517 657.972 48.6165 657.511C48.6982 656.926 48.9915 657.232 49.1147 656.831C49.1229 656.807 48.8291 656.812 48.8763 656.595C49.181 655.193 49.4017 653.415 49.7365 652.079C50.4299 649.321 51.526 646.674 52.095 644.062C52.2371 643.402 51.8431 643.515 51.8619 643.302C51.9509 642.279 52.4447 641.988 52.4542 640.898C52.4561 640.717 52.0614 639.927 52.2857 639.268C52.4068 638.912 52.7794 638.539 52.8953 638.235C53.0111 637.931 52.554 637.819 52.6029 637.442C52.6892 636.756 52.9871 636.997 53.0491 636.004C53.0535 635.934 53.0484 635.833 53.0378 635.71C52.9845 635.171 52.791 634.141 52.8801 633.3C53.058 631.7 53.539 629.638 53.5408 627.694C53.5433 627.008 53.0537 626.15 53.0197 625.126C52.9826 623.844 52.97 621.514 52.8734 620.188C52.826 619.509 53.3224 619.417 53.3371 619.334C53.4356 618.817 52.8915 619.068 52.8851 618.729C52.876 618.262 53.2494 617.787 53.2355 617.354C53.2266 617.078 52.8093 617.075 52.8003 617.016C52.441 614.794 52.2478 612.911 51.8918 610.731C49.9756 599.125 46.527 587.673 43.0007 576.488C42.7001 575.543 43.1824 575.339 42.8214 574.55C42.4601 573.758 41.1174 573.353 42.0479 572.258C41.8034 572.322 41.6354 572.385 41.4121 572.442C41.1322 570.623 40.1651 569.094 39.4856 567.475C38.9809 566.275 38.594 565.201 38.1666 564.086C37.7879 563.097 38.2266 563.011 37.3436 562.384C35.9074 558.042 33.9021 553.886 32.4034 549.573C31.0896 549.045 31.1571 547.875 30.5963 546.506C30.5277 546.337 30.3155 546.668 30.0913 546.18C29.8082 545.569 30.1067 545.014 29.5391 544.026C29.3907 543.763 27.8061 542.086 27.658 541.23C27.5115 540.366 27.0659 539.243 26.8752 538.357C26.7436 538.576 26.6365 538.818 26.5139 539.046C26.2651 538.697 26.0152 538.345 25.764 537.997C25.9642 537.807 26.1643 537.615 26.3666 537.425C26.0189 537.342 25.6736 537.258 25.3223 537.177C26.2306 536.002 26.13 536.707 25.2069 535.859C24.7447 535.435 24.7 534.901 24.2538 534.449C24.0921 534.287 23.671 534.381 23.4967 534.201C23.0706 533.759 23.7318 533.757 23.5308 533.444C23.3261 533.129 22.5184 533.006 22.387 532.295C23.6916 532.291 22.2871 530.778 21.5193 531.168C21.3861 530.968 21.3049 530.78 21.1381 530.572C23.0723 529.588 21.0953 529.375 20.571 529.128C20.0467 528.879 20.537 528.571 20.4524 528.487C20.2101 528.243 20.15 528.581 20.01 528.391C19.0874 527.126 18.5285 525.717 17.6461 524.443C17.5191 524.261 17.3701 524.612 17.2438 524.384C17.1174 524.155 17.2338 523.762 16.9879 523.466C16.9221 523.386 16.6716 523.531 16.5762 523.402C14.5908 520.696 12.8094 518.037 10.6262 515.394C10.4282 515.155 9.8822 515.301 9.50667 514.836C9.13165 514.372 8.88332 513.384 8.41542 512.804C8.2915 512.65 7.93794 512.893 7.77268 512.691C7.21004 512.003 6.95209 511.205 6.36374 510.487C5.36871 509.274 4.04988 508.276 3.11082 506.977C2.93168 506.731 3.21696 506.514 2.97878 506.136C2.56611 505.484 2.40315 506.052 2.24656 505.995C1.73622 505.808 2.10508 505.206 1.63603 504.999C1.56419 504.967 1.35583 505.334 1.3041 505.292C0.522569 504.639 1.1408 503.906 -0.00276661 503.537C-0.335134 502.476 0.974857 503.44 1.29638 503.346C2.08194 503.112 1.86844 501.76 1.57556 501.125C1.32499 500.579 1.02777 500.907 0.865344 500.759C0.00467682 499.969 -1.35118 498.883 -1.88861 498.147C-2.21475 497.7 -1.35871 498.194 -1.47235 497.905C-1.58494 497.616 -1.93519 497.753 -1.91296 497.295C-1.88962 496.837 -1.64251 495.648 -1.23069 495.328ZM48.498 579.223C46.3141 578.056 44.9942 573.547 44.2749 571.117C43.6861 569.085 44.2955 566.937 42.6314 568.03C43.4168 570.132 44.2379 571.812 44.963 574.078C45.0377 574.309 45.3507 575.78 45.483 576.28C45.5586 576.562 45.2569 576.673 45.3844 577.047C45.4131 577.127 45.9612 577.448 46.0046 577.617C46.1585 578.199 46.079 580.066 46.1721 580.306C46.431 580.948 46.8284 580.546 47.0038 580.804C47.5867 581.672 46.9013 581.997 47.4184 582.868C47.5105 583.024 48.305 583.397 48.4273 584.119C48.4764 584.413 48.2954 585.002 48.3737 585.216C48.8026 586.392 49.603 587.609 49.8229 588.718C50.0043 589.637 49.4522 589.527 49.5125 590.022C49.5743 590.518 50.2895 590.95 50.4055 591.269C50.5904 591.78 50.4254 592.494 50.4697 592.654C51.3549 595.835 52.3671 598.621 53.1172 601.72C52.9306 599.566 52.6784 597.377 52.4265 595.23C51.6381 594.15 52.2551 594.636 52.2254 593.806C52.199 593.142 51.3057 593.213 51.2013 592.381C51.2015 592.381 51.2016 592.382 51.2018 592.383C51.1493 591.955 51.5167 590.897 51.0351 590.064C51.0171 590.034 50.5528 590.07 50.3607 589.404C49.9333 587.913 49.0785 585.71 48.6773 583.998C48.5625 583.504 49.0548 583.467 48.9405 582.872C48.8562 582.438 48.2826 582.079 48.1758 581.389C48.0436 580.524 48.6497 579.892 47.4523 579.641C47.8004 579.479 48.162 579.391 48.498 579.223ZM28.1897 535.896C28.1658 535.77 28.3402 533.757 27.5034 534.83C28.1652 536.985 29.5905 538.889 30.4379 541.047C31.1526 539.748 30.0669 538.827 29.1736 537.478C29.1733 537.478 29.1729 537.477 29.1726 537.477C29.1303 537.413 29.5752 537.523 29.3046 537.178C29.1732 537.01 28.3314 536.57 28.1897 535.896Z" fill="white"/>
<path d="M92.5 625.5C92.5 588.47 76 509 0 470V820.5C41 798.5 92.5 726 92.5 625.5Z" fill="#F1A198"/>
<path d="M-1.23069 495.328C0.452001 496.19 1.96533 497.28 3.23832 498.704C3.52802 499.028 3.27399 499.242 3.36778 499.402C3.53941 499.695 4.18096 499.81 4.237 499.863C4.58679 500.187 4.05499 500.478 4.08631 500.538C4.44099 501.197 4.74535 500.581 5.28175 501.009C5.97955 501.567 6.71269 502.453 7.44193 503.236C7.69674 503.512 7.26827 503.7 7.85987 504.252C8.27865 504.64 9.86008 505.569 10.0207 506.529C9.87653 506.67 9.6442 506.747 9.46301 506.858C10.865 507.131 11.1264 507.464 12.0699 508.822C12.2187 509.037 12.6408 508.992 12.8487 509.42C13.0555 509.848 12.6693 510.213 13.2748 510.901C13.49 511.144 13.9037 511.049 14.241 511.419C15.2053 512.467 16.56 514.853 17.2654 515.775C18.6598 517.586 19.9254 518.191 20.9631 519.96C21.0434 520.095 20.5082 520.064 20.6723 520.299C20.8375 520.536 21.455 520.456 21.5078 520.507C22.0794 521.045 22.4335 522.792 22.7495 523.089C23.524 523.813 23.1331 522.836 24.0432 523.959C24.9102 525.032 25.3828 527.001 26.0069 528.209C26.7292 529.608 27.8712 529.484 27.5945 531.06C29.8591 534.535 31.9888 538.11 34.0158 541.737C33.8216 541.829 33.6264 541.919 33.4311 542.009C33.7174 542.226 34.0035 542.444 34.2876 542.663C34.1234 542.695 33.9604 542.729 33.7978 542.76C35.0645 543.82 35.9883 544.899 36.6523 546.583C36.6653 546.616 36.242 546.726 36.2454 546.757C36.3564 547.155 36.8536 547.412 36.9432 547.765C37.1627 548.617 36.9626 550.336 37.7055 549.258C38.3796 551.169 39.7247 553.128 40.3126 554.968C40.5672 555.763 40.0496 556.264 40.1742 556.64C40.2984 557.016 40.7483 556.598 40.8254 556.717C41.2853 557.435 41.8118 558.716 41.2704 559.105C41.5753 559.157 41.8872 559.218 42.1954 559.275C41.4963 559.465 42.7804 561.751 43.0171 562.39C43.0611 562.506 42.7751 562.641 42.8134 562.727C43.2443 563.681 43.7949 563.725 44.2821 564.507C44.4523 564.781 43.7549 564.528 44.2756 565.196C44.3207 565.254 44.7745 565.036 45.1222 565.943C45.6786 567.383 46.8974 570.092 47.2748 571.913C47.3065 572.061 46.6404 571.812 46.9886 572.417C47.1136 572.637 47.44 572.396 47.6416 572.965C48.4309 575.183 48.7872 577.683 49.853 579.867C49.4093 579.912 48.6876 579.244 49.3306 580.388C49.4344 580.57 49.7622 580.309 49.8033 580.392C50.1311 581.072 50.0514 581.77 50.4236 582.494C50.5343 582.708 50.845 582.677 50.9981 582.94C51.2246 583.327 50.8593 583.635 51.1803 584.077C51.6824 584.766 52.1168 584.776 51.6008 585.948C53.1534 591.32 54.6661 596.702 55.3591 602.25C55.8939 603.82 56.4067 605.225 56.7656 606.876C56.8715 607.37 56.3397 607.552 56.6431 608.31C56.7113 608.48 57.4871 609.645 56.4018 609.984C56.547 610.314 56.5807 610.531 56.6806 610.817C56.8127 610.571 56.945 610.317 57.0787 610.078C57.0784 611.345 57.6112 612.374 57.9311 613.467C58.1649 614.275 57.6184 613.747 57.725 614.244C57.8286 614.74 57.9622 614.959 57.4583 615.669C58.1717 616.106 57.7443 616.494 57.8122 617.415C57.8199 617.514 58.1284 618.062 58.1164 618.539C58.1073 618.88 57.7035 619.018 57.8102 619.572C57.828 619.663 58.4234 620.801 58.4915 621.167C58.6027 621.742 58.1189 622.672 58.1171 622.78C58.1011 624.442 58.6388 625.054 57.7977 626.203C58.3148 626.406 58.628 627.42 58.5732 628.2C58.5128 629.185 57.4035 631.139 58.4934 631.46C57.9441 632.598 58.2629 632.431 58.1717 633.837C58.1333 634.397 57.971 635.342 57.7754 636.268C57.5258 637.466 57.2422 638.697 57.1999 639.25C57.1224 640.236 57.7989 639.846 57.8249 640.248C57.8673 640.907 57.4677 640.496 57.4093 640.934C57.2435 642.173 57.1564 643.256 57.1489 644.463C56.8233 644.472 56.4954 644.485 56.1694 644.495C56.2637 644.574 56.358 644.653 56.4521 644.732C56.4046 644.984 56.3605 645.267 56.3087 645.499C58.0429 643.774 55.8671 647.389 55.5864 648.522C55.3622 649.491 55.664 651.249 55.5572 652.349C55.532 652.617 55.2368 652.36 55.2323 652.416C55.1833 653.063 55.3912 653.213 55.158 654.045C55.0334 654.485 54.5026 654.833 54.3869 655.26C53.537 658.401 53.0887 661.543 52.1373 664.647C51.9751 665.176 51.3253 665.463 51.1685 665.897C50.9436 666.518 51.2184 667.05 51.0205 667.641C50.8227 668.233 50.0364 668.901 49.9675 669.321C49.8969 669.742 50.6131 669.237 50.2205 669.913C50.0398 670.223 49.9046 669.51 49.744 669.915C49.2472 671.17 48.9793 673.147 48.0198 674.316C48.1469 674.299 48.2725 674.255 48.4005 674.223C47.7795 675.641 47.0001 676.797 46.3229 678.234C46.0846 678.739 45.9678 679.791 45.7356 680.289C45.5041 680.786 45.077 680.861 44.8818 681.252C44.8007 681.412 45.1181 681.485 45.0605 681.591C44.3302 682.929 43.4574 683.422 42.8009 684.854C40.3767 690.12 37.4746 695.384 34.2369 700.344C34.107 700.543 34.3527 700.913 34.2003 701.232C33.963 701.727 33.6498 701.534 33.5975 701.584C33.2572 701.917 33.6444 701.962 33.272 702.47C32.4561 703.589 30.8541 705.182 30.0101 706.266C28.0603 708.779 26.5432 711.008 24.4996 713.4C24.3526 713.573 24.1037 713.124 23.8287 713.402C21.8778 715.331 21.7964 716.097 19.1741 718.337C16.5681 720.594 11.2973 724.417 7.87348 726.535C7.87285 726.534 7.87222 726.533 7.87159 726.532C7.31705 727.988 5.76953 728.694 4.24972 728.792C9.80699 722.891 16.0647 719.183 21.8457 713.22C27.8947 706.954 32.1251 698.655 36.722 691.394C37.1568 690.709 37.7704 690.683 38.0204 690.038C38.0625 689.929 37.5685 689.988 37.7114 689.661C39.6836 685.179 42.8216 680.932 44.5076 676.408C44.9583 675.194 44.6275 674.833 44.956 673.74C45.0738 674.005 45.2263 674.21 45.3542 674.452C47.9587 669.894 49.4241 664.838 50.9833 659.798C51.0544 659.57 51.48 659.661 51.5648 659.424C51.7351 658.951 51.4046 658.361 51.5047 657.937C51.6353 657.382 51.9944 657.377 52.109 656.861C52.1639 656.609 51.824 656.599 52.0202 656.073C52.0366 656.029 52.3816 656.087 52.4316 655.714C52.5692 654.699 52.7746 652.611 52.8745 651.77C53.0054 650.702 53.6983 649.972 53.8167 649.58C54.1338 648.521 53.6027 648.433 53.7847 647.524C54.5479 643.664 55.3565 639.912 55.9861 636.057C56.4078 633.495 56.6405 630.706 56.6442 628.01C56.6483 627.578 56.0355 625.982 56.0353 625.22C56.0406 624.963 56.1482 623.568 56.1494 623.353C56.1609 622.488 56.4817 621.784 56.5282 621.308C56.6214 620.405 55.9795 619.414 55.8831 618.935C55.7176 618.109 55.6457 616.585 55.6209 616.219C55.5653 615.342 56.2887 615.547 56.0585 614.943C55.9897 614.767 55.4799 615.017 55.4068 614.38C55.3465 613.846 55.7201 613.58 55.7467 613.201C55.773 612.823 55.0668 612.221 55.0513 611.987C54.9729 610.745 55.3085 610.199 55.1316 608.882C54.9995 607.765 53.8483 602.857 53.6032 602.448C52.6063 600.74 53.4853 603.748 53.4914 603.937C53.537 604.903 53.2644 604.807 53.9003 605.657C52.5843 606.705 55.3359 609.324 53.6944 610.313C54.963 610.905 54.4709 611.66 54.3441 612.514C54.1658 613.69 54.7339 612.741 54.8411 613.567C54.8831 613.895 54.4632 614.885 54.5893 615.363C54.7174 615.853 55.1458 616.021 55.2348 616.682C55.3943 617.869 55.2813 618.78 54.8713 619.835C55.1006 620.002 55.3288 620.157 55.5572 620.322C55.3744 621.028 55.1864 621.724 54.9917 622.405C55.1745 622.288 55.3587 622.17 55.5411 622.052C55.5796 622.247 55.616 622.443 55.6518 622.638C55.4018 623.309 55.1673 623.983 54.8958 624.668C56.0392 626.485 55.0765 625.937 54.949 626.991C54.8151 628.033 55.4413 628.624 55.4311 629.406C55.4139 630.458 55.4743 631.001 55.3747 632.059C55.318 632.668 54.6331 633.682 55.6572 632.877C55.6327 633.83 55.6162 634.96 55.5246 636.003C55.4197 637.194 55.2423 638.356 54.912 639.235C54.7265 639.732 54.5214 639.006 54.4715 639.089C54.2336 639.497 54.6696 639.932 54.5328 640.372C54.3073 641.104 53.6975 642.49 53.5091 643.055C53.2423 643.866 53.6319 645.302 53.652 645.445C53.7675 646.248 53.2063 646.35 53.1961 646.598C53.1389 648.009 53.2885 648.365 52.1042 648.567C52.5071 649.017 52.9808 650.68 52.1038 650.859C52.8206 651.027 52.4201 652.235 52.4162 653.035C52.1755 653.126 51.9353 653.219 51.6929 653.309C52.5979 655.196 50.8425 658.106 50.0851 660.095C50.0669 660.146 50.5689 660.394 50.3579 660.667C50.3423 660.684 50.1144 660.581 50.0219 660.779C49.7257 661.434 48.3224 663.82 48.2151 664.11C47.8381 665.186 48.162 665.506 47.9735 666.176C47.7224 667.06 47.3273 667.063 47.084 667.901C46.9688 668.292 47.3014 668.809 47.0132 669.388C46.8428 669.73 46.4703 669.63 46.3354 669.901C45.8524 670.864 45.7911 671.687 44.9752 672.381C46.0163 673.065 45.0121 673.15 44.7483 673.549C43.679 675.173 43.1998 677.546 42.406 678.987C39.9335 683.474 37.1477 687.09 34.4408 691.207C33.9991 691.874 34.4208 692.357 33.9352 693.055C33.7164 693.367 33.1325 693.457 32.7913 693.971C32.5157 694.384 32.3151 695.1 31.9662 695.616C31.8737 695.753 31.5204 695.533 31.3818 695.732C30.3312 697.24 29.5337 698.869 28.5796 700.48C28.2268 701.075 27.5282 701.078 28.3617 701.568C28.0133 701.636 27.6938 701.715 27.3586 701.768C27.2514 702.891 26.2794 703.105 25.5873 704.194C25.5154 704.312 25.4034 705.487 24.6807 705.596C24.9162 705.847 25.1929 705.97 25.4187 706.182C25.1637 706.686 24.3173 707.061 24.0412 707.313C23.7675 707.564 23.9354 708.043 23.8644 708.13C23.5905 708.454 23.2211 707.99 23.1924 708.008C21.4621 709.088 21.8367 709.128 21.6535 710.601C21.6072 710.978 19.7424 711.973 19.9347 712.75C19.7225 712.563 19.6274 712.307 19.4599 712.093C18.9786 712.472 18.4906 712.845 18.0037 713.213C18.2841 713.319 18.5841 713.407 18.8587 713.52C17.8022 714.216 17.479 715.389 16.7014 716.064C16.2573 716.448 15.9115 715.952 15.7432 716.277C15.7103 716.341 16.0637 716.568 15.9361 716.725C14.8875 717.997 14.0548 718.142 12.7497 719.102C12.1336 719.55 12.0596 720.549 10.8932 720.832C10.7842 720.859 9.54546 720.978 9.55823 722.124C9.21279 722.011 8.97111 721.994 8.69835 721.884C8.41128 723.793 7.92753 722.479 6.25414 723.223C5.39653 723.616 2.87281 725.485 2.059 726.11C1.5823 726.49 1.85855 726.959 1.77522 727.032C1.26876 727.463 1.01013 727.001 0.527251 727.366C0.0443037 727.731 -0.34482 728.616 -0.926339 728.853C-1.37001 729.032 -1.33386 728.277 -1.85457 728.796C-1.96229 728.905 -1.34054 729.22 -2.10185 729.353C-2.22275 729.377 -3.54517 729.345 -3.81599 729.324C-3.40231 728.751 -2.01574 727.558 -1.4952 727.122C7.91543 720.28 24.0643 704.615 30.6271 694.308C31.2688 693.395 32.149 693.088 32.5876 692.493C33.0245 691.896 32.2469 692.142 32.6392 691.6C33.029 691.062 33.5989 690.845 33.9508 690.327C36.3208 686.839 38.5422 683.185 40.4374 679.428C40.9267 678.456 40.9015 677.487 41.3063 676.583C41.4638 676.231 41.9726 676.443 42.0796 676.189C43.2318 673.465 43.762 670.727 44.8323 668C45.2766 666.87 46.1545 665.771 46.5805 664.64C46.9338 663.706 46.9515 662.618 47.2121 661.763C47.3522 661.298 47.8286 661.176 47.912 661.017C48.196 660.461 47.6422 660.517 47.7327 660.217C47.9818 659.391 48.6979 659.147 48.8743 658.351C48.9424 658.039 48.5517 657.972 48.6165 657.511C48.6982 656.926 48.9915 657.232 49.1147 656.831C49.1229 656.807 48.8291 656.812 48.8763 656.595C49.181 655.193 49.4017 653.415 49.7365 652.079C50.4299 649.321 51.526 646.674 52.095 644.062C52.2371 643.402 51.8431 643.515 51.8619 643.302C51.9509 642.279 52.4447 641.988 52.4542 640.898C52.4561 640.717 52.0614 639.927 52.2857 639.268C52.4068 638.912 52.7794 638.539 52.8953 638.235C53.0111 637.931 52.554 637.819 52.6029 637.442C52.6892 636.756 52.9871 636.997 53.0491 636.004C53.0535 635.934 53.0484 635.833 53.0378 635.71C52.9845 635.171 52.791 634.141 52.8801 633.3C53.058 631.7 53.539 629.638 53.5408 627.694C53.5433 627.008 53.0537 626.15 53.0197 625.126C52.9826 623.844 52.97 621.514 52.8734 620.188C52.826 619.509 53.3224 619.417 53.3371 619.334C53.4356 618.817 52.8915 619.068 52.8851 618.729C52.876 618.262 53.2494 617.787 53.2355 617.354C53.2266 617.078 52.8093 617.075 52.8003 617.016C52.441 614.794 52.2478 612.911 51.8918 610.731C49.9756 599.125 46.527 587.673 43.0007 576.488C42.7001 575.543 43.1824 575.339 42.8214 574.55C42.4601 573.758 41.1174 573.353 42.0479 572.258C41.8034 572.322 41.6354 572.385 41.4121 572.442C41.1322 570.623 40.1651 569.094 39.4856 567.475C38.9809 566.275 38.594 565.201 38.1666 564.086C37.7879 563.097 38.2266 563.011 37.3436 562.384C35.9074 558.042 33.9021 553.886 32.4034 549.573C31.0896 549.045 31.1571 547.875 30.5963 546.506C30.5277 546.337 30.3155 546.668 30.0913 546.18C29.8082 545.569 30.1067 545.014 29.5391 544.026C29.3907 543.763 27.8061 542.086 27.658 541.23C27.5115 540.366 27.0659 539.243 26.8752 538.357C26.7436 538.576 26.6365 538.818 26.5139 539.046C26.2651 538.697 26.0152 538.345 25.764 537.997C25.9642 537.807 26.1643 537.615 26.3666 537.425C26.0189 537.342 25.6736 537.258 25.3223 537.177C26.2306 536.002 26.13 536.707 25.2069 535.859C24.7447 535.435 24.7 534.901 24.2538 534.449C24.0921 534.287 23.671 534.381 23.4967 534.201C23.0706 533.759 23.7318 533.757 23.5308 533.444C23.3261 533.129 22.5184 533.006 22.387 532.295C23.6916 532.291 22.2871 530.778 21.5193 531.168C21.3861 530.968 21.3049 530.78 21.1381 530.572C23.0723 529.588 21.0953 529.375 20.571 529.128C20.0467 528.879 20.537 528.571 20.4524 528.487C20.2101 528.243 20.15 528.581 20.01 528.391C19.0874 527.126 18.5285 525.717 17.6461 524.443C17.5191 524.261 17.3701 524.612 17.2438 524.384C17.1174 524.155 17.2338 523.762 16.9879 523.466C16.9221 523.386 16.6716 523.531 16.5762 523.402C14.5908 520.696 12.8094 518.037 10.6262 515.394C10.4282 515.155 9.8822 515.301 9.50667 514.836C9.13165 514.372 8.88332 513.384 8.41542 512.804C8.2915 512.65 7.93794 512.893 7.77268 512.691C7.21004 512.003 6.95209 511.205 6.36374 510.487C5.36871 509.274 4.04988 508.276 3.11082 506.977C2.93168 506.731 3.21696 506.514 2.97878 506.136C2.56611 505.484 2.40315 506.052 2.24656 505.995C1.73622 505.808 2.10508 505.206 1.63603 504.999C1.56419 504.967 1.35583 505.334 1.3041 505.292C0.522569 504.639 1.1408 503.906 -0.00276661 503.537C-0.335134 502.476 0.974857 503.44 1.29638 503.346C2.08194 503.112 1.86844 501.76 1.57556 501.125C1.32499 500.579 1.02777 500.907 0.865344 500.759C0.00467682 499.969 -1.35118 498.883 -1.88861 498.147C-2.21475 497.7 -1.35871 498.194 -1.47235 497.905C-1.58494 497.616 -1.93519 497.753 -1.91296 497.295C-1.88962 496.837 -1.64251 495.648 -1.23069 495.328ZM48.498 579.223C46.3141 578.056 44.9942 573.547 44.2749 571.117C43.6861 569.085 44.2955 566.937 42.6314 568.03C43.4168 570.132 44.2379 571.812 44.963 574.078C45.0377 574.309 45.3507 575.78 45.483 576.28C45.5586 576.562 45.2569 576.673 45.3844 577.047C45.4131 577.127 45.9612 577.448 46.0046 577.617C46.1585 578.199 46.079 580.066 46.1721 580.306C46.431 580.948 46.8284 580.546 47.0038 580.804C47.5867 581.672 46.9013 581.997 47.4184 582.868C47.5105 583.024 48.305 583.397 48.4273 584.119C48.4764 584.413 48.2954 585.002 48.3737 585.216C48.8026 586.392 49.603 587.609 49.8229 588.718C50.0043 589.637 49.4522 589.527 49.5125 590.022C49.5743 590.518 50.2895 590.95 50.4055 591.269C50.5904 591.78 50.4254 592.494 50.4697 592.654C51.3549 595.835 52.3671 598.621 53.1172 601.72C52.9306 599.566 52.6784 597.377 52.4265 595.23C51.6381 594.15 52.2551 594.636 52.2254 593.806C52.199 593.142 51.3057 593.213 51.2013 592.381C51.2015 592.381 51.2016 592.382 51.2018 592.383C51.1493 591.955 51.5167 590.897 51.0351 590.064C51.0171 590.034 50.5528 590.07 50.3607 589.404C49.9333 587.913 49.0785 585.71 48.6773 583.998C48.5625 583.504 49.0548 583.467 48.9405 582.872C48.8562 582.438 48.2826 582.079 48.1758 581.389C48.0436 580.524 48.6497 579.892 47.4523 579.641C47.8004 579.479 48.162 579.391 48.498 579.223ZM28.1897 535.896C28.1658 535.77 28.3402 533.757 27.5034 534.83C28.1652 536.985 29.5905 538.889 30.4379 541.047C31.1526 539.748 30.0669 538.827 29.1736 537.478C29.1733 537.478 29.1729 537.477 29.1726 537.477C29.1303 537.413 29.5752 537.523 29.3046 537.178C29.1732 537.01 28.3314 536.57 28.1897 535.896Z" fill="white"/>
<path d="M-5.73046 523.329C-4.37928 523.912 -3.19133 524.718 -2.24737 525.841C-2.03252 526.097 -2.27969 526.317 -2.21663 526.448C-2.10147 526.689 -1.55374 526.717 -1.51083 526.758C-1.24271 527.005 -1.74301 527.325 -1.7227 527.375C-1.49036 527.919 -1.15043 527.336 -0.730145 527.654C-0.18339 528.067 0.357406 528.765 0.908793 529.369C1.10122 529.583 0.699945 529.799 1.15754 530.215C1.48106 530.507 2.77472 531.138 2.80452 531.957C2.6594 532.097 2.44344 532.191 2.26906 532.31C3.48413 532.383 3.67835 532.645 4.36134 533.715C4.46901 533.884 4.85246 533.796 4.98833 534.143C5.12331 534.49 4.73333 534.851 5.19559 535.375C5.36016 535.56 5.74332 535.43 6.00338 535.71C6.74727 536.504 7.69315 538.395 8.22672 539.1C9.28167 540.487 10.3675 540.857 11.1154 542.239C11.1734 542.345 10.6868 542.378 10.8101 542.559C10.9343 542.741 11.5095 542.604 11.5522 542.64C12.015 543.033 12.1426 544.466 12.4 544.68C13.0318 545.203 12.7812 544.425 13.4946 545.268C14.1745 546.074 14.3935 547.67 14.8398 548.608C15.3562 549.694 16.4337 549.47 16.0049 550.806C17.7387 553.445 19.3651 556.163 20.9168 558.92C20.7238 559.014 20.5301 559.107 20.3363 559.199C20.5852 559.348 20.834 559.497 21.0809 559.647C20.9223 559.689 20.7646 559.733 20.6075 559.775C21.7 560.512 22.4705 561.3 22.9387 562.6C22.9479 562.626 22.5344 562.756 22.5346 562.78C22.6016 563.092 23.05 563.252 23.1013 563.529C23.2282 564.198 22.8739 565.602 23.6852 564.663C24.1459 566.142 25.2513 567.593 25.6494 569.016C25.8218 569.63 25.2799 570.077 25.3657 570.366C25.4514 570.656 25.9211 570.282 25.9846 570.37C26.3621 570.904 26.7566 571.881 26.2014 572.238C26.4903 572.253 26.7855 572.275 27.0774 572.294C26.3868 572.506 27.4271 574.216 27.6028 574.703C27.6355 574.792 27.3478 574.923 27.3776 574.988C27.7133 575.709 28.2421 575.699 28.6489 576.28C28.7911 576.483 28.1368 576.339 28.5859 576.826C28.6249 576.868 29.0817 576.66 29.3451 577.35C29.7663 578.446 30.7369 580.492 30.9674 581.897C30.9871 582.011 30.3576 581.865 30.6507 582.315C30.7558 582.479 31.0917 582.265 31.2455 582.698C31.8487 584.385 32.0168 586.319 32.9108 587.954C32.4733 588.019 31.8128 587.546 32.3638 588.396C32.4529 588.531 32.7918 588.305 32.8262 588.368C33.1011 588.877 32.9762 589.427 33.2934 589.968C33.3878 590.127 33.6945 590.083 33.8276 590.278C34.0244 590.565 33.6461 590.829 33.9327 591.153C34.3815 591.658 34.8076 591.64 34.2273 592.583C35.4178 596.667 36.6208 600.753 37.0626 604.992C37.5237 606.176 37.9749 607.236 38.2689 608.491C38.3555 608.866 37.8198 609.026 38.094 609.596C38.1553 609.724 38.8865 610.592 37.7953 610.887C37.9286 611.136 37.955 611.3 38.0451 611.516C38.1847 611.324 38.3247 611.125 38.4658 610.937C38.4231 611.908 38.9222 612.68 39.2101 613.508C39.4206 614.122 38.8906 613.731 38.9831 614.11C39.0731 614.486 39.2006 614.651 38.6802 615.207C39.381 615.524 38.945 615.831 38.9925 616.533C38.9979 616.608 39.2941 617.021 39.2727 617.386C39.257 617.647 38.851 617.76 38.9475 618.181C38.9634 618.25 39.539 619.11 39.602 619.389C39.7044 619.828 39.2096 620.545 39.2067 620.626C39.1723 621.895 39.7069 622.361 38.8607 623.241C39.3768 623.393 39.687 624.169 39.6335 624.765C39.5725 625.521 38.478 627.005 39.572 627.262C39.0361 628.129 39.3515 628.004 39.2843 629.082C39.2559 629.514 39.1116 630.244 38.9409 630.957C38.726 631.863 38.4846 632.79 38.4607 633.211C38.4161 633.964 39.0767 633.687 39.116 633.996C39.1806 634.503 38.7689 634.174 38.7261 634.509C38.6047 635.454 38.559 636.282 38.6002 637.211C38.2772 637.205 37.9521 637.202 37.6288 637.197C37.7256 637.261 37.8225 637.326 37.9192 637.39C37.8824 637.582 37.8504 637.798 37.8088 637.974C39.4581 636.717 37.4484 639.412 37.2273 640.271C37.0502 641.007 37.4356 642.38 37.3879 643.227C37.3769 643.433 37.0718 643.219 37.0702 643.262C37.056 643.761 37.269 643.888 37.0841 644.521C36.9851 644.856 36.4809 645.097 36.3911 645.422C35.7318 647.811 35.491 650.235 34.7775 652.608C34.6559 653.012 34.0415 653.193 33.9197 653.522C33.7452 653.994 34.0521 654.433 33.9031 654.885C33.7539 655.336 33.0393 655.805 33.0049 656.132C32.9687 656.459 33.6261 656.114 33.2965 656.619C33.1448 656.85 32.9582 656.276 32.8335 656.584C32.448 657.538 32.3471 659.085 31.5179 659.937C31.6393 659.934 31.7571 659.91 31.8781 659.894C31.396 660.972 30.7438 661.83 30.2206 662.921C30.0362 663.305 30.0188 664.139 29.8417 664.519C29.6651 664.898 29.2632 664.92 29.1126 665.217C29.0499 665.339 29.3602 665.426 29.315 665.507C28.7411 666.519 27.9554 666.836 27.4706 667.934C25.6785 671.973 23.5124 676.013 21.0867 679.832C20.9893 679.985 21.2573 680.324 21.1528 680.576C20.9902 680.968 20.6805 680.77 20.6382 680.807C20.3631 681.05 20.7237 681.131 20.4395 681.52C19.8165 682.377 18.5378 683.552 17.8989 684.385C16.4229 686.315 15.3225 688.071 13.7874 689.931C13.6772 690.066 13.4029 689.644 13.1918 689.855C11.6934 691.324 11.7089 691.988 9.68129 693.684C7.66604 695.393 3.5912 698.27 0.96372 699.88C0.963091 699.879 0.962461 699.878 0.961831 699.877C0.655761 701.17 -0.565073 701.672 -1.81027 701.61C2.15818 696.645 7.0216 694.032 11.4149 689.463C16.0054 684.662 18.8901 678.127 22.4065 672.658C22.7397 672.141 23.3124 672.185 23.4791 671.682C23.5071 671.597 23.0493 671.594 23.1488 671.341C24.5232 667.882 27.0923 664.763 28.3128 661.305C28.6385 660.378 28.2885 660.063 28.5105 659.225C28.647 659.445 28.8118 659.62 28.9562 659.823C31.0743 656.425 32.1184 652.56 33.3195 648.743C33.3745 648.571 33.7981 648.668 33.8661 648.489C34.003 648.132 33.641 647.653 33.7129 647.33C33.8069 646.908 34.1597 646.926 34.2412 646.533C34.2801 646.341 33.9448 646.313 34.1065 645.917C34.1201 645.884 34.4632 645.949 34.4904 645.663C34.5655 644.885 34.6519 643.284 34.7067 642.641C34.7791 641.826 35.4282 641.299 35.526 641.002C35.7879 640.203 35.2581 640.11 35.3956 639.421C35.9716 636.497 36.634 633.664 37.1523 630.747C37.5014 628.798 37.7022 626.672 37.7042 624.619C37.7073 624.29 37.0979 623.08 37.1035 622.503C37.1099 622.308 37.2296 621.248 37.2336 621.084C37.2545 620.428 37.5849 619.888 37.6384 619.526C37.7448 618.836 37.1219 618.093 37.0352 617.732C36.8857 617.107 36.8492 615.949 36.8339 615.671C36.8003 615.005 37.5166 615.142 37.3029 614.688C37.2391 614.556 36.7239 614.759 36.6686 614.276C36.6233 613.871 37.0033 613.657 37.0409 613.368C37.0782 613.078 36.3932 612.64 36.3853 612.462C36.3469 611.517 36.6992 611.089 36.5701 610.088C36.4738 609.239 35.5333 605.524 35.3128 605.221C34.4016 603.956 35.1371 606.223 35.1364 606.367C35.1404 607.105 34.8737 607.043 35.4702 607.668C34.1184 608.52 36.7552 610.419 35.0899 611.23C36.3319 611.639 35.8174 612.232 35.6645 612.885C35.4508 613.786 36.0456 613.046 36.1278 613.673C36.16 613.922 35.7137 614.687 35.8269 615.046C35.9417 615.415 36.3647 615.532 36.4375 616.032C36.5683 616.931 36.4368 617.627 36.0079 618.434C36.2338 618.556 36.4589 618.67 36.6842 618.792C36.4896 619.331 36.2912 619.862 36.0879 620.38C36.272 620.289 36.4577 620.197 36.6415 620.104C36.6773 620.252 36.7112 620.401 36.7445 620.548C36.4864 621.06 36.2451 621.573 35.9682 622.093C37.099 623.46 36.1407 623.053 36.0098 623.848C35.874 624.636 36.5017 625.083 36.4949 625.676C36.4833 626.47 36.5482 626.883 36.4621 627.683C36.413 628.145 35.7472 628.9 36.7563 628.308C36.747 629.033 36.7543 629.897 36.6919 630.693C36.6207 631.592 36.4806 632.469 36.1827 633.125C36.0149 633.498 35.7862 632.938 35.7393 632.999C35.5163 633.302 35.9652 633.648 35.8447 633.98C35.6458 634.53 35.0925 635.565 34.9285 635.989C34.6956 636.597 35.144 637.71 35.1703 637.821C35.32 638.441 34.7684 638.495 34.7696 638.684C34.7777 639.762 34.9438 640.044 33.7811 640.142C34.2017 640.505 34.754 641.807 33.897 641.9C34.6141 642.067 34.2819 642.975 34.3226 643.592C34.09 643.649 33.8583 643.708 33.6241 643.764C34.6206 645.269 33.0662 647.422 32.4579 648.916C32.4434 648.954 32.952 649.18 32.7634 649.379C32.7492 649.39 32.5189 649.296 32.4415 649.443C32.1932 649.934 30.989 651.695 30.907 651.913C30.6177 652.726 30.9578 652.999 30.8244 653.51C30.6467 654.184 30.2624 654.157 30.0911 654.795C30.0097 655.093 30.3735 655.525 30.1398 655.958C30.0018 656.214 29.6323 656.106 29.5235 656.308C29.1334 657.027 29.1423 657.672 28.4126 658.152C29.4767 658.779 28.5133 658.763 28.2936 659.056C27.4016 660.249 27.1569 662.093 26.5325 663.174C24.5878 666.535 22.3252 669.179 20.2541 672.26C19.9161 672.76 20.3629 673.203 19.9887 673.725C19.8201 673.958 19.2878 673.969 19.0299 674.355C18.8213 674.666 18.717 675.236 18.4542 675.625C18.3846 675.729 18.033 675.506 17.9281 675.655C17.1334 676.789 16.5944 678.058 15.9163 679.303C15.6655 679.764 15.0312 679.684 15.8478 680.197C15.5389 680.213 15.2581 680.242 14.9603 680.247C14.998 681.186 14.1431 681.253 13.6528 682.097C13.6025 682.188 13.6442 683.179 13.0091 683.187C13.251 683.43 13.5144 683.569 13.7431 683.778C13.5747 684.18 12.8623 684.401 12.6466 684.585C12.4328 684.768 12.6414 685.202 12.5885 685.269C12.3836 685.516 11.9977 685.071 11.9742 685.083C10.567 685.808 10.9087 685.887 10.9265 687.148C10.9303 687.471 9.40941 688.115 9.6751 688.821C9.46583 688.631 9.35091 688.395 9.17756 688.188C8.80191 688.461 8.42105 688.731 8.04165 688.996C8.29953 689.124 8.57241 689.237 8.82656 689.37C7.98846 689.856 7.85185 690.857 7.25946 691.366C6.92118 691.654 6.56195 691.171 6.45625 691.441C6.43558 691.494 6.76871 691.739 6.67741 691.864C5.92635 692.876 5.22736 692.909 4.22868 693.621C3.7578 693.952 3.81214 694.85 2.85689 694.973C2.76699 694.986 1.73614 694.948 1.88111 695.999C1.57701 695.856 1.37199 695.813 1.1302 695.681C1.11134 697.4 0.549875 696.138 -0.756376 696.635C-1.42613 696.898 -3.2965 698.361 -3.89332 698.865C-4.2419 699.172 -3.96688 699.642 -4.0273 699.702C-4.3958 700.056 -4.65476 699.594 -5.00941 699.889C-5.3639 700.183 -5.59025 700.982 -6.03773 701.151C-6.37882 701.278 -6.42423 700.564 -6.7929 701.007C-6.86906 701.1 -6.33699 701.459 -6.93791 701.513C-7.03368 701.525 -8.09891 701.369 -8.31652 701.325C-8.03984 700.813 -7.04565 699.813 -6.6709 699.453C0.111027 693.758 12.0661 682.097 17.0664 674.389C17.5524 673.708 18.3333 673.555 18.6731 673.113C19.0115 672.671 18.3168 672.787 18.62 672.385C18.9214 671.987 19.4283 671.871 19.6993 671.486C21.5246 668.89 23.245 666.164 24.6925 663.342C25.0663 662.612 24.9507 661.838 25.2545 661.158C25.3728 660.893 25.8808 661.107 25.9601 660.915C26.817 658.856 27.0928 656.745 27.9114 654.697C28.2515 653.848 29.0203 653.059 29.3511 652.208C29.6257 651.506 29.564 650.662 29.7582 650.017C29.8623 649.667 30.3202 649.605 30.3908 649.487C30.6306 649.075 30.0922 649.082 30.1602 648.856C30.3478 648.233 31.034 648.091 31.1553 647.487C31.202 647.251 30.8139 647.173 30.8478 646.822C30.8907 646.376 31.1984 646.63 31.2943 646.328C31.3008 646.31 31.0123 646.296 31.045 646.132C31.2565 645.069 31.3686 643.717 31.6249 642.711C32.1551 640.636 33.1115 638.667 33.5658 636.699C33.679 636.202 33.2928 636.273 33.3026 636.112C33.349 635.337 33.8281 635.134 33.7966 634.306C33.7917 634.168 33.3699 633.554 33.5701 633.062C33.6782 632.796 34.0364 632.525 34.1419 632.298C34.2472 632.071 33.7885 631.972 33.8251 631.688C33.8896 631.171 34.1935 631.362 34.2258 630.611C34.228 630.561 34.2208 630.489 34.2078 630.401C34.1404 629.997 33.916 629.213 33.99 628.579C34.1362 627.387 34.598 625.843 34.6008 624.38C34.6034 623.864 34.116 623.221 34.0891 622.453C34.0596 621.489 34.0773 619.736 34.0062 618.737C33.9714 618.226 34.4692 618.147 34.4854 618.084C34.5941 617.692 34.0459 617.892 34.0465 617.636C34.0473 617.284 34.4306 616.916 34.4268 616.589C34.4244 616.381 34.0082 616.388 34.0007 616.344C33.6966 614.673 33.5607 613.252 33.2817 611.61C31.7803 602.863 29.0574 594.257 26.4589 585.799C26.2371 585.084 26.7224 584.889 26.4312 584.299C26.14 583.707 24.8662 583.495 25.8569 582.566C25.6142 582.635 25.446 582.697 25.2246 582.759C25.0963 581.357 24.2826 580.233 23.7608 579.016C23.3731 578.114 23.091 577.3 22.7755 576.455C22.4964 575.707 22.9267 575.601 22.1312 575.182C21.1314 571.871 19.6025 568.745 18.6048 565.422C17.4081 565.127 17.5898 564.179 17.1974 563.129C17.1496 563 16.9149 563.288 16.7524 562.917C16.5471 562.452 16.8859 561.973 16.4518 561.23C16.338 561.032 15.0193 559.835 14.9718 559.153C14.9254 558.466 14.6269 557.596 14.5434 556.892C14.3965 557.085 14.2701 557.293 14.1305 557.493C13.9348 557.234 13.7387 556.973 13.5413 556.715C13.7494 556.538 13.9574 556.36 14.1675 556.183C13.8509 556.152 13.5369 556.12 13.2172 556.091C14.1948 555.031 14.0232 555.619 13.2534 555.023C12.8684 554.725 12.8855 554.29 12.5198 553.966C12.3871 553.85 11.9843 553.975 11.8421 553.845C11.4949 553.528 12.1104 553.454 11.9583 553.218C11.8029 552.98 11.0661 552.968 11.0243 552.396C12.2359 552.248 11.102 551.151 10.3474 551.56C10.2468 551.409 10.1929 551.263 10.0624 551.109C11.9643 550.077 10.1584 550.12 9.70334 549.974C9.24804 549.826 9.73594 549.515 9.66753 549.454C9.47212 549.278 9.37765 549.567 9.27057 549.424C8.56591 548.476 8.21644 547.363 7.55769 546.396C7.46292 546.257 7.28518 546.57 7.19648 546.393C7.10778 546.216 7.26046 545.872 7.07059 545.651C7.01992 545.592 6.77387 545.743 6.70198 545.646C5.2093 543.601 3.91497 541.556 2.27674 539.555C2.12809 539.374 1.62043 539.565 1.34119 539.211C1.06242 538.859 0.961635 538.039 0.615532 537.595C0.523938 537.477 0.178823 537.729 0.0565462 537.575C-0.359688 537.05 -0.490325 536.391 -0.923487 535.839C-1.65628 534.907 -2.69587 534.198 -3.35896 533.174C-3.48573 532.981 -3.20858 532.755 -3.37088 532.452C-3.65233 531.93 -3.86493 532.449 -3.99501 532.418C-4.41834 532.315 -4.02146 531.741 -4.40574 531.615C-4.46461 531.596 -4.69181 531.944 -4.7319 531.914C-5.33248 531.434 -4.70403 530.711 -5.65331 530.523C-5.81163 529.622 -4.79151 530.318 -4.49896 530.196C-3.78507 529.895 -3.80717 528.723 -3.98602 528.193C-4.13852 527.737 -4.43661 528.064 -4.55989 527.951C-5.21359 527.351 -6.2559 526.54 -6.63087 525.942C-6.85878 525.579 -6.17942 525.922 -6.24284 525.675C-6.30569 525.429 -6.624 525.594 -6.55033 525.179C-6.47561 524.765 -6.12281 523.664 -5.73046 523.329ZM31.6293 587.542C29.5715 586.781 28.6171 583.355 28.1108 581.498C27.6975 579.947 28.4637 578.202 26.7617 579.197C27.3524 580.791 28.018 582.048 28.5525 583.77C28.6075 583.945 28.8025 585.074 28.8949 585.456C28.948 585.67 28.6454 585.779 28.7425 586.061C28.7645 586.122 29.2762 586.333 29.3064 586.462C29.4142 586.906 29.204 588.368 29.2785 588.547C29.4868 589.029 29.9038 588.689 30.0575 588.878C30.5682 589.514 29.8749 589.813 30.3225 590.456C30.4023 590.57 31.156 590.808 31.2284 591.362C31.2573 591.587 31.0413 592.056 31.1043 592.217C31.4489 593.102 32.1593 593.995 32.3082 594.841C32.431 595.541 31.8945 595.489 31.924 595.868C31.955 596.248 32.6341 596.54 32.7299 596.78C32.8823 597.164 32.6789 597.725 32.7135 597.845C33.406 600.249 34.2632 602.341 34.864 604.684C34.7779 603.04 34.6373 601.369 34.5029 599.726C33.7822 598.935 34.3653 599.277 34.3813 598.638C34.3917 598.127 33.5062 598.23 33.4504 597.593C33.4506 597.594 33.4507 597.594 33.4508 597.595C33.4233 597.267 33.8459 596.429 33.4207 595.811C33.4048 595.79 32.9452 595.845 32.7961 595.34C32.4641 594.211 31.7622 592.556 31.4816 591.252C31.4016 590.875 31.8869 590.814 31.8142 590.359C31.7603 590.027 31.2222 589.785 31.1646 589.255C31.0943 588.59 31.731 588.055 30.5773 587.941C30.9291 587.79 31.2889 587.697 31.6293 587.542ZM16.0394 554.735C16.0303 554.635 16.4096 552.959 15.5116 553.931C15.8976 555.634 17.0333 557.044 17.6086 558.717C18.4171 557.585 17.489 556.943 16.7935 555.931C16.7933 555.93 16.793 555.93 16.7927 555.929C16.7598 555.881 17.1658 555.926 16.9483 555.671C16.8425 555.547 16.0997 555.274 16.0394 554.735Z" fill="white"/>
<path d="M50.5732 1025.31C65.1131 1021.41 78.88 1001.15 74.984 986.612C71.088 972.072 54.514 967.161 39.9741 971.057C25.4342 974.953 14.7286 994.392 18.6245 1008.93C22.5205 1023.47 36.0332 1029.2 50.5732 1025.31Z" fill="#79A363" fill-opacity="0.8"/>
<path d="M48.9135 1010.66C55.6477 1008.85 62.038 999.523 60.2468 992.838C58.4555 986.153 50.7871 983.908 44.0528 985.712C37.3185 987.517 32.3461 996.468 34.1373 1003.15C35.9286 1009.84 42.1792 1012.46 48.9135 1010.66Z" fill="#79A363" fill-opacity="0.8"/>
<path d="M94 34C94 39.799 86.299 44 80.5 44C74.701 44 73 39.799 73 34C73 28.201 79.201 25 85 25C90.799 25 94 28.201 94 34Z" fill="#F1A198"/>
<path d="M81.2545 938.996C88.3554 937.093 90.9729 926.285 89.0702 919.184C87.1675 912.083 81.4652 911.379 74.3643 913.281C67.2634 915.184 65.3783 923.828 67.281 930.928C69.1837 938.029 74.1536 940.899 81.2545 938.996Z" fill="#F1A198"/>
<path d="M14.9404 1100C11.082 1083 16.8695 1037 -0.5 1037V1307C15.1748 1299 34.7076 1247 36.3956 1196C38.0836 1145 18.7987 1117 14.9404 1100Z" fill="#FAAE37" fill-opacity="0.6"/>
<path d="M19.371 1200.73C19.417 1198.96 19.3634 1197.3 19.2803 1195.25C19.2803 1195.25 19.2803 1195.24 19.2803 1195.24C19.2684 1194.95 19.2557 1194.64 19.2426 1194.32C19.1354 1191.76 19.0034 1188.46 18.8453 1183.49C18.6684 1178.02 18.1516 1173.61 17.7029 1170.99C17.6189 1170.5 17.5637 1170 17.4691 1168.68C17.4066 1167.82 17.3319 1166.69 17.2109 1165.04C17.1453 1164.15 17.0671 1163.11 16.9699 1161.93C16.6483 1157.95 16.1852 1151.72 15.5694 1146.01C15.4365 1144.77 15.2926 1143.51 15.1573 1142.39C14.9048 1140.31 14.6543 1138.38 14.4334 1136.78C13.931 1133.16 13.3685 1129.67 12.7377 1125.88C12.1593 1122.41 11.5244 1118.71 10.8175 1114.41C10.2753 1111.12 9.52165 1107.95 8.73321 1104.74C8.63288 1104.33 8.5318 1103.92 8.43038 1103.51C7.73259 1100.68 7.02001 1097.79 6.38728 1094.63C5.26058 1089.02 4.69704 1084.48 4.10447 1079.46C3.87238 1077.49 3.63894 1075.46 3.36667 1073.25C2.93849 1069.76 2.2712 1064.75 1.65642 1059.71C1.60396 1059.28 1.55201 1058.85 1.50015 1058.42C1.4999 1058.42 1.49964 1058.41 1.49938 1058.41C0.942112 1053.8 0.444974 1049.27 0.140114 1045.94C-0.34136 1040.65 -0.402528 1038.65 -0.465214 1036.97C-0.487209 1036.35 -0.506268 1035.77 -0.54049 1035.08C-0.665092 1032.59 -0.971219 1028.84 -1.23596 1025.05C-1.23692 1025.03 -1.23788 1025.02 -1.23884 1025C-1.28308 1024.37 -1.59745 1023.88 -1.94217 1023.9C-2.28688 1023.93 -2.53164 1024.46 -2.48727 1025.1C-2.34596 1027.12 -2.19771 1029.08 -2.06977 1030.84C-2.35897 1030.96 -2.54722 1031.45 -2.50093 1032.01C-2.38206 1033.44 -2.27595 1037.82 -1.9749 1044.68C-2.0743 1044.22 -2.16449 1043.83 -2.24724 1043.49C-2.34436 1043.09 -2.42398 1042.79 -2.49219 1042.53C-2.63418 1041.98 -2.72851 1041.61 -2.83184 1040.97C-3.01993 1039.47 -3.24349 1037.08 -3.4572 1034.58C-3.51158 1033.94 -3.83328 1033.45 -4.17743 1033.48C-4.52163 1033.51 -4.75771 1034.06 -4.70341 1034.69C-4.70239 1034.7 -4.70138 1034.72 -4.70037 1034.73C-4.48827 1037.21 -4.25761 1039.68 -4.05938 1041.25C-4.00897 1041.65 -3.96028 1042 -3.92138 1042.26C-3.89024 1042.47 -3.84996 1042.73 -3.81606 1042.87C-3.81155 1042.89 -3.80265 1042.92 -3.79021 1042.97C-3.78993 1042.97 -3.78967 1042.97 -3.78939 1042.97C-3.78249 1042.99 -3.74743 1043.12 -3.68417 1043.24C-3.67139 1043.27 -3.64302 1043.33 -3.59969 1043.39C-3.59519 1043.41 -3.59068 1043.43 -3.58617 1043.44C-3.5235 1043.68 -3.4595 1043.93 -3.3945 1044.19C-3.1403 1045.22 -2.78881 1046.88 -2.22117 1050.31C-1.69741 1053.47 -1.02006 1058.83 -0.171091 1065.51C-0.253766 1065.07 -0.335529 1064.62 -0.41598 1064.17C-0.618217 1063.04 -0.81506 1061.89 -1.00458 1060.76C-1.07737 1060.32 -1.14877 1059.89 -1.22055 1059.45C-1.33605 1058.75 -1.4515 1058.03 -1.5632 1057.33C-1.63905 1056.85 -1.71431 1056.37 -1.78924 1055.89C-1.78937 1055.89 -1.78949 1055.89 -1.78962 1055.89C-1.89363 1055.22 -1.9973 1054.55 -2.10158 1053.88C-2.13849 1053.64 -2.17447 1053.41 -2.21 1053.18C-2.35131 1052.26 -2.48846 1051.36 -2.67488 1050.32C-2.70085 1050.19 -2.7316 1050.05 -2.75592 1049.95C-2.78179 1049.84 -2.80744 1049.73 -2.83257 1049.64C-2.85477 1049.55 -2.87676 1049.47 -2.89745 1049.39C-2.90021 1049.38 -2.90296 1049.36 -2.90572 1049.35C-2.92887 1049.26 -2.95056 1049.18 -2.9712 1049.1C-2.9918 1049.02 -3.01164 1048.94 -3.02982 1048.86C-3.02989 1048.86 -3.02997 1048.86 -3.03004 1048.86C-3.04885 1048.77 -3.06303 1048.71 -3.0809 1048.63C-3.10332 1048.52 -3.12157 1048.42 -3.14179 1048.31C-3.16139 1048.2 -3.18059 1048.08 -3.19894 1047.97C-3.21729 1047.85 -3.23504 1047.73 -3.25244 1047.61C-3.26984 1047.49 -3.28707 1047.37 -3.30385 1047.25C-3.32061 1047.12 -3.33699 1047 -3.35344 1046.87C-3.36989 1046.75 -3.38647 1046.62 -3.4029 1046.49C-3.44083 1046.19 -3.53811 1045.92 -3.67597 1045.72C-3.81375 1045.52 -3.97995 1045.42 -4.14022 1045.44C-4.30044 1045.46 -4.44307 1045.59 -4.53771 1045.81C-4.63223 1046.04 -4.67075 1046.33 -4.64681 1046.63C-4.64028 1046.71 -4.63388 1046.79 -4.6272 1046.87C-4.62324 1046.92 -4.61898 1046.97 -4.61493 1047.02C-4.60407 1047.15 -4.5933 1047.28 -4.5816 1047.41C-4.56989 1047.54 -4.55743 1047.68 -4.54436 1047.81C-4.53124 1047.95 -4.51742 1048.09 -4.50216 1048.23C-4.48693 1048.36 -4.47026 1048.51 -4.45173 1048.65C-4.43376 1048.79 -4.41113 1048.95 -4.38871 1049.09C-4.37254 1049.2 -4.35007 1049.32 -4.33071 1049.43C-4.31048 1049.54 -4.28942 1049.65 -4.26836 1049.76C-4.24727 1049.86 -4.22587 1049.96 -4.20547 1050.06C-4.20334 1050.07 -4.20121 1050.08 -4.19908 1050.09C-4.18106 1050.18 -4.16356 1050.26 -4.14751 1050.34C-4.12957 1050.43 -4.11337 1050.52 -4.09867 1050.6C-4.08234 1050.68 -4.07387 1050.74 -4.06377 1050.8C-3.95092 1051.67 -3.83862 1052.75 -3.72937 1053.77C-3.71562 1053.9 -3.7019 1054.02 -3.68809 1054.15C-3.61576 1054.83 -3.54358 1055.5 -3.47077 1056.17C-3.41785 1056.66 -3.36458 1057.14 -3.31048 1057.63C-3.23127 1058.34 -3.14816 1059.08 -3.0647 1059.79C-3.01264 1060.24 -2.96086 1060.68 -2.90755 1061.13C-2.76927 1062.28 -2.62217 1063.46 -2.46885 1064.63C-2.31591 1065.79 -2.15273 1066.96 -1.97856 1068.14C-1.80529 1069.3 -1.61292 1070.51 -1.40585 1071.68C-1.25316 1072.54 -1.0698 1073.4 -0.891035 1074.21C-0.794756 1074.65 -0.69902 1075.08 -0.60397 1075.5C-0.603568 1075.5 -0.603168 1075.5 -0.602765 1075.5C-0.519338 1075.87 -0.436755 1076.23 -0.356013 1076.59C-0.182829 1077.36 -0.0172577 1078.12 0.140303 1078.88C0.297545 1079.64 0.445731 1080.4 0.585855 1081.15C0.724945 1081.91 0.859683 1082.69 0.984294 1083.45C1.11004 1084.22 1.22449 1084.97 1.3419 1085.77C1.49494 1086.82 1.63757 1087.85 1.78265 1088.91C1.92787 1089.98 2.07158 1091.05 2.21563 1092.11C2.26582 1092.48 2.31717 1092.86 2.36831 1093.24C2.36853 1093.24 2.36875 1093.24 2.36897 1093.24C2.46345 1093.94 2.55818 1094.63 2.65348 1095.33C2.79971 1096.39 2.95133 1097.48 3.10464 1098.56C3.2577 1099.64 3.41693 1100.73 3.58271 1101.82C3.74846 1102.91 3.92533 1104.03 4.12136 1105.15C4.2954 1106.15 4.47573 1107.15 4.65406 1108.14C4.70098 1108.4 4.74785 1108.66 4.79467 1108.92C5.01574 1110.15 5.22672 1111.35 5.41558 1112.53C5.60398 1113.71 5.77698 1114.9 5.9348 1116.1C6.09132 1117.29 6.23944 1118.51 6.37675 1119.73C6.51385 1120.94 6.64412 1122.17 6.76726 1123.4C6.88987 1124.63 7.00927 1125.87 7.12207 1127.12C7.18576 1127.81 7.2588 1128.55 7.32953 1129.25C7.40105 1129.95 7.47407 1130.65 7.54818 1131.34C7.57808 1131.62 7.60808 1131.9 7.63744 1132.18C7.68025 1132.58 7.72247 1132.98 7.76271 1133.37C7.83041 1134.03 7.895 1134.68 7.95018 1135.31C8.00565 1135.94 8.05177 1136.55 8.08714 1137.14C8.12376 1137.76 8.14422 1138.27 8.15673 1138.87C8.2197 1140.34 8.29722 1141.26 8.37895 1142.26C8.39505 1142.46 8.41098 1142.66 8.42731 1142.87C8.43695 1142.99 8.44665 1143.11 8.45641 1143.22C8.54208 1144.26 8.63679 1145.35 8.73427 1146.46C8.83418 1147.61 8.9409 1148.8 9.05039 1150.02C9.1533 1151.16 9.26312 1152.36 9.37533 1153.58C9.48187 1154.73 9.59257 1155.91 9.70734 1157.12C9.8197 1158.3 9.93442 1159.48 10.0498 1160.67C10.1169 1161.36 10.1889 1162.06 10.2573 1162.71C10.3066 1163.18 10.3558 1163.66 10.4035 1164.12C10.423 1164.31 10.4422 1164.5 10.4611 1164.69C10.5263 1165.33 10.5872 1165.97 10.6381 1166.56C10.6895 1167.15 10.7332 1167.73 10.7668 1168.31C10.8005 1168.88 10.8241 1169.45 10.8381 1170.02C10.8522 1170.61 10.855 1171.07 10.8489 1171.69C10.8446 1172.09 10.8392 1172.48 10.8332 1172.88C10.8244 1173.47 10.8136 1174.06 10.8007 1174.65C10.7878 1175.25 10.7716 1175.81 10.7536 1176.39C10.7477 1176.58 10.7414 1176.78 10.735 1176.97C10.7152 1177.55 10.693 1178.12 10.6675 1178.7C10.6421 1179.28 10.6137 1179.86 10.581 1180.41C10.5483 1180.98 10.5125 1181.53 10.4721 1182.1C10.403 1183.06 10.3764 1184 10.3593 1184.82C10.3423 1185.63 10.3345 1186.39 10.3254 1187.13C10.3237 1187.27 10.3219 1187.41 10.3201 1187.55C10.3124 1188.15 10.3042 1188.75 10.2925 1189.33C10.2782 1190.07 10.259 1190.75 10.2347 1191.45C10.2106 1192.15 10.181 1192.86 10.1453 1193.56C10.1092 1194.26 10.0691 1194.95 10.0195 1195.66C9.97059 1196.37 9.90782 1197.09 9.83706 1197.89C9.76683 1198.68 9.69203 1199.51 9.62152 1200.36C9.55124 1201.18 9.48493 1202.03 9.4254 1202.87C9.36565 1203.72 9.31149 1204.57 9.26284 1205.41C9.21392 1206.25 9.1709 1207.08 9.13083 1207.91C9.09092 1208.74 9.0529 1209.59 9.01991 1210.4C8.96616 1211.71 8.91223 1212.98 8.85197 1214.28C8.79247 1215.57 8.72722 1216.87 8.6582 1218.15C8.58893 1219.43 8.51363 1220.72 8.43229 1222.01C8.35121 1223.3 8.26494 1224.57 8.17139 1225.86C8.15072 1226.14 8.1297 1226.42 8.10834 1226.71C8.03298 1227.71 7.95399 1228.7 7.87098 1229.69C7.87051 1229.7 7.87004 1229.71 7.86956 1229.72C7.76228 1230.99 7.64975 1232.25 7.52593 1233.51C7.4802 1233.98 7.43589 1234.42 7.38862 1234.88C7.34132 1235.33 7.29324 1235.77 7.24279 1236.22C7.19227 1236.67 7.13992 1237.12 7.08604 1237.56C7.03148 1238 6.97605 1238.43 6.91665 1238.87C6.86233 1239.27 6.80493 1239.67 6.74191 1240.1C6.73615 1240.14 6.73037 1240.18 6.72459 1240.22C6.65536 1240.69 6.579 1241.23 6.51425 1241.73C6.34386 1243.06 6.16443 1244.36 5.96872 1245.67C5.77304 1246.98 5.56442 1248.29 5.34306 1249.61C5.25666 1250.13 5.1678 1250.65 5.07798 1251.16C4.93828 1251.97 4.79472 1252.77 4.64841 1253.58C4.40755 1254.91 4.16063 1256.24 3.90881 1257.58C3.65802 1258.91 3.40296 1260.25 3.14705 1261.59C2.89144 1262.92 2.62998 1264.26 2.36964 1265.59C2.07973 1267.06 1.78269 1268.53 1.47149 1270C1.16087 1271.47 0.840569 1272.93 0.506132 1274.39C0.170575 1275.85 -0.176447 1277.31 -0.536465 1278.76C-0.89767 1280.21 -1.27416 1281.66 -1.66332 1283.1C-1.89637 1283.97 -2.13371 1284.83 -2.37919 1285.69C-2.55314 1286.13 -2.72192 1286.56 -2.88505 1286.96C-4.09165 1289.95 -5.017 1292.1 -6.19995 1294.91C-6.31883 1295.18 -6.42614 1295.4 -6.55599 1295.66C-6.5808 1295.71 -6.60686 1295.76 -6.63367 1295.81C-6.8035 1296.15 -6.9959 1296.55 -7.24175 1297.1C-7.73412 1298.21 -8.4154 1299.9 -9.11588 1302.21C-9.2921 1302.8 -9.14619 1303.28 -8.78479 1303.3C-8.53127 1303.31 -8.2388 1303.09 -8.02585 1302.76C-8.28365 1303.44 -8.54327 1304.12 -8.80669 1304.79C-8.91176 1305.06 -8.9549 1305.34 -8.92406 1305.56C-8.89314 1305.79 -8.79122 1305.94 -8.63844 1306C-8.48564 1306.05 -8.29325 1306 -8.10188 1305.84C-7.91067 1305.69 -7.73666 1305.46 -7.61738 1305.19C-7.30119 1304.49 -6.9909 1303.78 -6.68321 1303.07C-6.37567 1302.35 -6.0704 1301.64 -5.77111 1300.93C-5.47258 1300.22 -5.17696 1299.5 -4.88374 1298.79C-4.5916 1298.07 -4.30245 1297.35 -4.01599 1296.63C-3.72653 1295.89 -3.45132 1295.19 -3.17299 1294.46C-3.00647 1294.02 -2.83958 1293.58 -2.6767 1293.15C-2.6161 1292.99 -2.5567 1292.83 -2.49779 1292.67C-2.44964 1292.54 -2.40158 1292.41 -2.35211 1292.27C-1.8291 1290.86 -1.32267 1289.44 -0.832809 1288.02C-0.341092 1286.59 0.136726 1285.15 0.595612 1283.71C1.05564 1282.28 1.50329 1280.83 1.93432 1279.38C2.36447 1277.93 2.78102 1276.48 3.18549 1275.02C3.58862 1273.56 3.97715 1272.1 4.35476 1270.64C4.64666 1269.5 4.92955 1268.38 5.20541 1267.25C5.33835 1266.81 5.46736 1266.38 5.59292 1265.95C5.95826 1264.7 6.34154 1263.44 6.70985 1262.21C6.19272 1264.43 5.7107 1266.21 5.23937 1267.89C5.17609 1268.12 5.11282 1268.34 5.04967 1268.57C4.40112 1270.85 3.77035 1273.04 2.99606 1276.02C0.775405 1284.48 -0.891737 1289.27 -1.86911 1292.27C-2.86689 1295.27 -3.25674 1296.56 -3.50297 1297.83C-3.84494 1299.63 -5.01375 1302.89 -5.72923 1304.49C-5.98505 1305.07 -5.94017 1305.65 -5.6247 1305.79C-5.30921 1305.93 -4.84019 1305.57 -4.58196 1304.99C-3.81942 1303.29 -2.53537 1299.74 -2.13045 1297.58C-1.94751 1296.62 -1.64809 1295.57 -0.658569 1292.6C0.308376 1289.62 1.97381 1284.85 4.21098 1276.33C4.96147 1273.44 5.57193 1271.32 6.21832 1269.05C6.28135 1268.82 6.34486 1268.6 6.40837 1268.37C6.4087 1268.37 6.40903 1268.37 6.40936 1268.37C6.99331 1266.29 7.6127 1264 8.28593 1260.9C9.87595 1253.74 11.5175 1244.01 11.9272 1241.7C12.012 1241.25 12.0968 1240.81 12.185 1240.35C12.5203 1238.57 12.9371 1236.44 13.5345 1231.57C13.6637 1230.5 13.7977 1229.26 13.93 1227.89C14.2887 1225.85 14.6098 1223.89 14.8366 1222.16C15.0324 1220.67 15.2774 1219.3 15.527 1217.98C15.5989 1217.59 15.6724 1217.21 15.7455 1216.83C15.9215 1215.89 16.094 1214.96 16.2355 1214.06C16.3482 1213.34 16.4754 1212.58 16.6073 1211.79C17.0883 1208.86 17.6394 1205.35 17.7579 1200.77C17.8825 1195.88 17.8328 1191.74 17.7476 1188.14C17.8399 1190.81 17.9249 1192.8 17.9948 1194.52C18.0079 1194.84 18.0203 1195.16 18.0321 1195.45C18.1145 1197.52 18.1629 1199.04 18.1204 1200.68C17.9001 1208.44 17.6065 1211.36 17.1234 1214.61C16.993 1215.47 16.8276 1216.42 16.6453 1217.44C16.2826 1219.46 15.8493 1221.8 15.4911 1224.3C15.1575 1226.62 14.7106 1229.22 14.2046 1231.96C14.2045 1231.96 14.2043 1231.96 14.2042 1231.96C14.1052 1232.5 14.0039 1233.04 13.9006 1233.59C13.2722 1236.92 12.5724 1240.41 11.9274 1243.8C11.8584 1244.17 11.7719 1244.6 11.6711 1245.1C11.0884 1247.98 10.0358 1253.01 9.02553 1259.21C8.80331 1260.58 8.6067 1262 8.36671 1263.62C8.29339 1264.11 8.21624 1264.63 8.13243 1265.16C7.76935 1267.47 7.28607 1270.28 6.43903 1273.96C5.73841 1277.01 4.76795 1280.69 3.63735 1284.49C3.08423 1286.35 2.48761 1288.26 1.88092 1290.12C0.0397158 1295.74 -1.83992 1300.83 -3.97461 1305.83C-3.97506 1305.83 -3.97552 1305.84 -3.97597 1305.84C-4.22743 1306.43 -4.17308 1307 -3.84994 1307.13C-3.52699 1307.25 -3.05553 1306.87 -2.80198 1306.28C-0.651032 1301.23 1.23396 1296.12 3.07994 1290.48C3.68102 1288.63 4.27694 1286.73 4.83136 1284.87C5.9748 1281.03 6.96415 1277.27 7.67389 1274.18C8.53898 1270.41 9.03142 1267.54 9.39986 1265.19C9.48823 1264.62 9.5684 1264.09 9.643 1263.58C9.87994 1261.97 10.0636 1260.63 10.275 1259.33C11.2554 1253.3 12.2761 1248.44 12.8644 1245.54C12.9687 1245.03 13.0587 1244.57 13.1322 1244.19C13.7685 1240.85 14.4628 1237.39 15.0949 1234.06C15.1977 1233.52 15.2988 1232.98 15.3982 1232.44C15.3985 1232.44 15.3988 1232.44 15.3991 1232.44C15.9091 1229.69 16.3669 1227.03 16.7091 1224.66C17.0556 1222.26 17.4515 1220.13 17.8066 1218.17C17.9968 1217.13 18.1772 1216.09 18.3309 1215.08C18.8484 1211.62 19.1493 1208.54 19.371 1200.73ZM-7.62914 1301.7C-7.17403 1300.25 -6.74571 1299.13 -6.3928 1298.29C-6.65014 1299.02 -6.90969 1299.74 -7.17289 1300.46C-7.32306 1300.87 -7.47616 1301.29 -7.62914 1301.7ZM12.702 1227.59C12.6589 1227.84 12.6152 1228.08 12.571 1228.33C12.6458 1227.64 12.718 1226.96 12.788 1226.27C12.874 1225.43 12.9564 1224.59 13.0356 1223.75C12.9304 1225.08 12.8179 1226.38 12.702 1227.59ZM16.5067 1200.73C16.395 1205.03 15.895 1208.25 15.4233 1211.14C15.287 1211.98 15.1534 1212.77 15.0297 1213.57C14.9784 1213.9 14.9233 1214.23 14.8653 1214.56C14.9585 1212.61 15.0266 1210.83 15.0758 1209.35C15.2177 1205 15.1743 1202.47 15.1341 1200.3C15.1221 1199.66 15.1092 1199.05 15.0979 1198.43C15.1498 1197.91 15.2007 1197.38 15.2456 1196.84C15.309 1196.09 15.3689 1195.3 15.4191 1194.5C15.4695 1193.72 15.5133 1192.92 15.5489 1192.15C15.5849 1191.36 15.6133 1190.59 15.6362 1189.82C15.6578 1189.09 15.6741 1188.35 15.6883 1187.65C15.6891 1187.61 15.6899 1187.57 15.6907 1187.53C15.7056 1186.79 15.7179 1186.07 15.7363 1185.41C15.7554 1184.74 15.7786 1184.17 15.8177 1183.67C15.8664 1183.04 15.9113 1182.4 15.951 1181.76C15.9908 1181.13 16.0258 1180.51 16.0565 1179.88C16.0871 1179.26 16.1131 1178.62 16.1359 1177.99C16.1432 1177.79 16.1505 1177.57 16.1571 1177.37C16.1601 1177.28 16.1633 1177.19 16.1662 1177.09C16.2062 1178.31 16.2458 1179.62 16.2827 1180.91C16.3364 1182.79 16.4079 1184.85 16.4678 1187.06C16.5689 1190.91 16.6447 1195.27 16.5067 1200.73ZM15.3336 1158.56C15.3692 1159.08 15.4158 1159.86 15.4725 1160.89C15.4862 1161.13 15.4987 1161.38 15.5125 1161.63C15.5118 1161.63 15.5114 1161.62 15.5107 1161.62C15.4378 1160.99 15.3664 1160.35 15.2951 1159.71C15.1665 1158.54 15.0482 1157.49 14.922 1156.32C14.7963 1155.17 14.6748 1154.05 14.5537 1152.94C14.4281 1151.77 14.3052 1150.64 14.1869 1149.54C14.0631 1148.39 13.9392 1147.24 13.8225 1146.15C13.7867 1145.81 13.7443 1145.41 13.7057 1145.05C13.8344 1145.9 13.9461 1146.67 14.0678 1147.57C14.1633 1148.26 14.2675 1149.06 14.3679 1149.8C14.4069 1150.09 14.4573 1150.44 14.5156 1150.85C14.7491 1152.53 15.1021 1155.13 15.3336 1158.56ZM12.905 1136.03C12.8779 1135.77 12.85 1135.51 12.8209 1135.25C12.7383 1134.52 12.6492 1133.81 12.5584 1133.1C12.4953 1132.62 12.431 1132.13 12.3672 1131.65C12.3403 1131.45 12.3136 1131.25 12.2868 1131.05C12.242 1130.72 12.1979 1130.38 12.154 1130.05C12.5246 1132.36 12.8691 1134.61 13.1948 1136.96C13.1991 1136.99 13.2031 1137.02 13.2074 1137.06C13.1048 1136.71 13.0033 1136.36 12.905 1136.03Z" fill="#FFE1B2"/>
<path d="M0.704845 330.138C1.89326 329.873 10.0406 329.32 10.5565 329.679C10.7046 329.783 11.3727 331.371 11.4776 331.705C12.5706 335.201 11.9083 349.462 11.8495 353.987C11.7106 364.754 10.6963 375.529 10.842 386.306C10.7863 384.908 10.3095 383.249 10.3802 381.795L9.18382 382.807C10.6438 368.565 10.6178 353.742 10.3735 339.439C9.99421 339.298 9.51783 340.66 9.45297 340.912C8.26323 345.537 9.20888 361.869 8.90429 367.983C8.48245 376.47 7.86672 385.793 6.97503 394.225C6.75363 396.314 6.99593 398.107 5.77948 400.578C3.01881 406.182 -0.886048 405.3 -5.36184 402.141C-7.34641 399.395 -4.65181 399.123 -2.69178 400.576L-3.89036 392.196C-3.49752 375.668 -3.39065 359.022 -1.41184 342.567C-1.11276 340.079 0.665224 336.014 -0.400542 333.819C-0.549316 333.512 -0.458805 333.015 -0.492612 332.991C-1.15316 332.519 -4.9752 333.869 -4.72797 332.621C-4.347 330.694 -0.855261 331.121 0.428456 330.781C0.974661 330.636 0.670374 330.144 0.70485 330.137L0.704845 330.138Z" fill="#F8CB83"/>
<path d="M0.70505 330.138C0.670574 330.145 0.974868 330.637 0.428663 330.782C-0.854378 331.122 -4.34612 330.695 -4.72777 332.622C-4.97432 333.87 -1.15296 332.52 -0.492409 332.992C-0.458604 333.016 -0.549113 333.513 -0.400339 333.82C-4.99485 353.503 -5.58714 374.2 -4.35019 394.315C-3.74031 395.025 -3.89687 392.477 -3.89016 392.197L-2.69158 400.577C-4.65161 399.124 -7.34552 399.396 -5.36163 402.142C-0.804218 408.449 4.79263 404.456 8.08137 399.382C5.77651 406.106 -1.72973 408.256 -6.19045 402.05C-8.42927 398.935 -8.10366 388.902 -8.03467 384.923C-7.7359 367.704 -6.07496 350.383 -5.28066 333.177C-5.08644 330.202 -1.45406 330.835 0.703702 330.139L0.70505 330.138Z" fill="#F8CB83"/>
<path d="M10.8439 386.307C10.998 390.15 10.162 396.175 8.08306 399.381C4.79433 404.455 -0.802518 408.448 -5.35993 402.141C-0.884141 405.301 3.02072 406.183 5.78139 400.578C6.99851 398.108 6.75689 396.314 6.97694 394.225C8.73744 390.786 8.79829 386.58 9.18505 382.808L10.3815 381.796C10.3093 383.25 10.7862 384.909 10.8432 386.307L10.8439 386.307Z" fill="#F8CB83"/>
<path d="M-1.23217 305.188C-0.852303 304.799 8.27476 305.107 9.63279 304.453C9.92419 304.671 9.73675 307.811 9.63334 307.952C8.79391 309.103 -0.0829319 309.394 -1.6001 308.319C-1.75292 308.115 -1.38898 305.349 -1.23217 305.188Z" fill="#FFE1B2"/>
<path d="M-0.398214 333.819C0.667551 336.014 -1.11042 340.078 -1.4095 342.567C-3.38764 359.021 -3.49451 375.669 -3.88803 392.196C-3.89474 392.476 -3.73818 395.024 -4.34806 394.314C-5.58501 374.199 -4.99273 353.502 -0.398214 333.819Z" fill="#F8CB83"/>
<path d="M9.18461 382.81C8.79784 386.582 8.73767 390.789 6.9765 394.227C7.86818 385.796 8.48391 376.473 8.90576 367.986C9.21035 361.872 8.26469 345.54 9.45444 340.915C9.51929 340.662 9.99636 339.301 10.375 339.442C10.6192 353.745 10.6446 368.569 9.18528 382.81L9.18461 382.81Z" fill="#F8CB83"/>
<path d="M-0.861639 318.442L7.97803 318.259L9.8212 328.756L-3.80585 330.411L-0.861639 318.442Z" fill="#FFE1B2"/>
<path d="M1.1656 321.57C1.53398 321.189 2.60351 321.55 2.27035 322.307C1.78108 323.418 0.685705 322.065 1.1656 321.57Z" fill="#FFE1B2"/>
<path d="M4.47998 325.623C4.73273 325.072 6.20649 325.299 5.76925 326.176C5.41647 326.883 4.20358 326.228 4.47998 325.623Z" fill="#FFE1B2"/>
<path d="M3.00658 324.146C3.09907 323.323 4.7987 323.979 4.29585 324.699C4.11742 324.954 2.92962 324.827 3.00658 324.146Z" fill="#FFE1B2"/>
<path d="M0.611813 325.07C0.963258 324.517 1.86787 325.096 1.53264 325.623C1.1812 326.176 0.276588 325.597 0.611813 325.07Z" fill="#FFE1B2"/>
<path d="M6.87286 325.068C7.02213 324.247 8.26883 324.911 7.97822 325.437C7.73492 325.876 6.78506 325.554 6.87286 325.068Z" fill="#FFE1B2"/>
<path d="M6.68909 320.464C7.22438 319.668 7.71605 320.936 7.42608 321.201C7.13611 321.467 6.38766 320.913 6.68909 320.464Z" fill="#FFE1B2"/>
<path d="M4.93884 318.166L4.10993 317.52C5.0003 317.815 6.46307 316.919 7.05652 316.232C3.58177 316.348 0.43658 318.603 -0.954659 314.481C-1.19003 313.782 -1.63822 309.562 -1.23131 309.232L9.08142 309.049C8.92407 310.099 7.68131 317.173 7.42583 317.52C7.14602 317.9 5.47965 318.097 4.94019 318.164L4.93884 318.166Z" fill="#FFE1B2"/>
<path d="M4.9395 318.166C2.31387 318.498 -1.47602 317.913 -0.953999 314.481C0.43724 318.603 3.58243 316.348 7.05717 316.232C6.46441 316.918 5.00096 317.815 4.11059 317.521L4.9395 318.166Z" fill="#FFE1B2"/>
<path d="M0.978497 313.653C1.42528 313.211 2.11768 314.144 2.08324 314.39C1.99276 315.05 0.480346 314.147 0.978497 313.653Z" fill="#FFE1B2"/>
<path d="M4.479 313.468C4.83044 312.916 5.73506 313.494 5.39983 314.022C5.04839 314.575 4.14377 313.996 4.479 313.468Z" fill="#FFE1B2"/>
<path d="M5.95308 311.259C6.20708 310.111 7.49846 311.171 6.68933 311.627C6.6535 311.647 5.91052 311.45 5.95308 311.259Z" fill="#FFE1B2"/>
<path d="M2.26813 311.996C2.51485 311.865 3.10986 312.524 2.63668 312.732C2.24799 312.903 2.18431 312.039 2.26813 311.996Z" fill="#FFE1B2"/>
<path d="M-20.3029 235.116C-19.6862 235.548 -20.4271 236.03 -20.763 236.314C-44.172 256.071 -34.9073 292.878 -6.48091 302.703C-37.2447 294.94 -44.7489 254.533 -20.3029 235.116Z" fill="#BEC9D9"/>
<path d="M-6.4818 302.702C-34.9082 292.877 -44.1729 256.07 -20.7639 236.312C-20.428 236.029 -19.6871 235.547 -20.3038 235.115C5.53607 214.591 45.1085 235.324 42.0386 268.918C39.9607 291.658 15.6572 310.354 -6.48045 302.702L-6.4818 302.702Z" fill="#E0E5EC"/>
<path d="M-20.9479 240.917C-10.4651 230.281 8.70392 228.339 21.407 235.951C52.5706 254.626 36.85 303.433 -0.12913 299.849C-29.369 297.016 -40.6765 260.932 -20.9479 240.917Z" fill="#D4DEEC"/>
<path d="M-22.4203 244.233C6.669 209.974 55.8492 252.901 31.1754 284.941C1.25391 323.794 -50.4877 277.289 -22.4203 244.233Z" fill="#F9F9F9"/>
<path d="M7.22644 234.475C16.4762 236.94 26.9996 243.777 31.1694 252.71C33.9711 258.713 34.4531 271.101 31.3572 277.019C28.837 281.836 25.863 285.101 20.3091 282.542C26.281 277.991 28.5391 270.401 28.9612 263.207C29.6232 251.913 22.6232 244.803 13.6724 238.896C11.5724 237.509 8.47757 237.458 7.22644 234.475Z" fill="#E2E8EC"/>
<path d="M-23.1563 250.126C-22.6913 249.61 -19.9315 247.358 -19.4737 248.101C-26.5566 263.903 -23.7927 287.065 -4.18181 291.747C-5.16091 294.655 -7.87253 294.11 -10.0745 293.219C-23.4424 287.814 -33.985 262.105 -23.1563 250.126Z" fill="white"/>
</svg>
