<svg xmlns="http://www.w3.org/2000/svg" width="113" height="1620" fill="none" viewBox="0 0 113 1620"><path fill="#9ebb8e" d="M58.77 127.74c-.4 3.79-2.04 8.07-4.71 10.86s-7.33 5.48-11.16 6.2c-7.24 1.38 1.37-3.87 2.43-4.82 6.58-5.84 10.85-12.19 7.3-21.26.45-.25 4.85 6.38 5.05 4.98a354 354 0 0 1-11.47-36.9c1.5 2.1 2.38 5.4 3.15 8 2.92 9.79 7.37 21.9 8.77 31.77.08.56.45.72.64 1.17"/><path fill="#d4deec" d="M25.88 42.17c5 14.6 9.7 29.26 14.55 43.91-.28.11-.24.58-.53.68-1.36.5-3.59.4-5.06.67-8.66-20.24-12.95-44.6-21.87-64.48-7.14-15.9-28.75-7.27-28.03 5.02.37 6.43 6.5 21.18 8.8 28.11C-4.05 62.65-1.67 69.13.5 75.7c6 18.02 11.55 38.87 18.08 56.07-1.5 1.16-2.53 2.73-4.54 3C-.06 103.58-7.22 65.5-20.52 33.56-26.8 12.97.18-2 14.35 14.2c5.31 6.08 8.82 20.04 11.53 27.96"/><path fill="#d4deec" d="M-10.2 10.4c7.87-3.59 16.83-3.25 22.66 3.43-2.21-.35-4.02-2.07-6.11-2.88-10.76-4.17-19.98 2.25-25.78 11.06.07-4.45 5.24-9.78 9.24-11.6M26.72 56.46l3 8.68 2.32 8.9c-1.39-2.76-1.84-5.86-2.77-8.75-.9-2.76-2.93-5.8-2.55-8.83M8.23 112.33l1.28 2.72.97 3.31c-1.35-1.8-1.35-4.05-2.25-6.03"/><path fill="#9ebb8e" d="M58.77 127.74c-.19-.45-.56-.6-.64-1.17-1.4-9.87-5.85-21.98-8.77-31.77-.77-2.6-1.64-5.9-3.15-8a354 354 0 0 0 11.47 36.9c-.2 1.4-4.6-5.23-5.05-4.98 3.55 9.07-.71 15.42-7.3 21.26-1.06.95-9.67 6.2-2.42 4.83 3.82-.73 8.45-3.4 11.15-6.21-3.34 6.1-15.24 10.87-21.81 10.5-8.27-.48-14.98-7.16-18.21-14.32 2.01-.28 3.05-1.85 4.53-3.01a16.6 16.6 0 0 0 22.38 9.42c15.71-6.88 10.66-20.01 6.99-32.47-1.09-3.67-2.18-7.3-3.38-10.94-1.28-3.92-2.84-7.8-4.12-11.7-4.85-14.65-9.57-29.3-14.56-43.91 1.52-.19 5.2-2.52 6.16-1.16l26.93 82.78c.4 1.52-.06 2.58-.2 3.96z"/><path fill="#9ebb8e" d="M30 42.06c1.98-1.5 2.62 2.91 3.16 4.6A811 811 0 0 1 46.8 95.03C41.3 79.8 35.95 64.47 31.65 48.92c-.4-1.45-2.85-5.97-1.65-6.87M18.16 133.16l7.3 8.38c-3.2-1.82-5.85-5-7.3-8.38M34.84 87.43c1.48-.27 3.7-.17 5.06-.67 1.69 3.6 2.92 7.4 4.2 11.17 1.1 3.21 2.95 7.69 3.6 10.86 3.5 16.85-19.59 26.73-30.12 13.13C12.75 115.69 3.95 85.1.73 75.62-1.5 69.08-3.6 62.48-5.8 55.92c.16-.2.77-1.47.87-1.54 1.49-.92 5.16-2.13 5.74.24 7.24 18.13 11.36 39.24 18.9 57.05 3.53 8.31 10.55 14.53 18.58 6.28C46.82 109.17 35 97 34.84 87.43"/><path fill="#9ebb8e" d="M-2.74 54.92c1.15-.98 2.25.2 2.8 1.2a772 772 0 0 0 11.7 36.83c3.6 10.33 7 25.2 16.62 31.17 1.91 1.2 2.24-.3 4-.44.51-.04 1.37.6 1.96.6.89.02 3.42-.83 3.93.08 1.6 2.88-8.58 1.98-9.9 1.65-7.04-1.77-9.17-6.54-11.67-12.84C10.18 96.8 4.53 77.77-1.4 60.87c-.38-1.1-2.12-5.3-1.34-5.95zM38.05 87.63c.94-.58 1.36.35 1.74 1.05 1.85 3.47 6.46 18.07 7.35 22.19.75 3.46-1.95 8.48-4.71 10.48-.55.08-.34-1.09-.3-1.29.32-1.66 2.5-4.42 3.04-6.78 1.22-5.42-2.18-12.44-4.12-17.73-.38-1.05-3.45-7.5-3-7.93M38.5 120.9c.79-.47.59.14.23.67-.4-.04-.57-.48-.23-.68"/><path fill="#f1a198" d="M17.44 1412.77c-1.43.68-4.09-7.37-6-8.1a1124 1124 0 0 1 19.33-56.87l6.2 9.6c-5.4 14.13-9.58 28.75-14.69 42.96-.55 1.53-4.24 12.13-4.84 12.41"/><path fill="#e0e5ec" d="M40.28 1321.8c.03-.04.74-.04.7-.73 1.18.07 6.27 6.41 6.3 8.09l-9.7 26.77-.72-.41c-1.92-3.02-3.13-6.59-5.72-9.05-.4-1.27 7.64-23.21 9.14-24.67"/><path fill="#f1a198" d="M20.44 1408.18c3.14-7.95 6-16.36 8.83-24.66 2.94-8.59 5.89-17.19 8.64-25.84 11.18 3.1 23.13 1.13 34.47 3.08l-21.15 55.31-30.4-.68c-4.84-.33-1.45-4.53-.39-7.21"/><path fill="#f1a198" d="m20.44 1408.18 8.83-24.66c-2.84 8.3-5.69 16.71-8.83 24.66M49.5 1411.87l.23-3.03c3.66-10.19 8.18-20.22 12.02-30.33 1.65-4.32 1.68-9.85 5.36-13.5zM27.26 1397.57c1.86-5.79 3-13.42 5.64-18.67.1-.18.66-1.49 1.03-.74l-6.08 19.88 1.18-1.31c-1.32 5.48-4.45 10.65-5.34 16.08-.18-.04-1-.05-1.08-.2.96-3.15-.34-.25-.65-.6 1.67-4.86 3.72-9.55 5.3-14.44M37.83 1368.06c.47-.1.09.97.07 1.25-.3 3.76-3.2 11.66-4.56 15.48-.57 1.6-1.37 3.75-2.42 5.07z"/><path fill="#f1a198" d="M27.26 1397.57c-1.58 4.89-3.63 9.59-5.3 14.44.31.36 1.6-2.56.65.6.07.15.9.16 1.08.2 1.55.39 3.72-.32 5.33.4-1.32.28-6.86.47-7.41-.68zM37.9 1369.31c.02-.28.4-1.36-.07-1.26.86-.93 2.12-5.22 2.7-5.71 1.7-1.44 8.73-.3 11.06.08-2.25.66-8.92-1.02-10.54.28-.57.45-1.88 5.82-3.15 6.61M66.44 1362.97c-4.81-.37-9.63-.56-14.39-1.45l7.32.25zM48.95 1413.15c-1.6 1.35-8 .05-10.17.39.03-.62.34-.53.78-.6 2.19-.39 6.29.81 8.77.24l.7-1.04c.59.08 0 .94-.08 1.01"/><path fill="#fff" d="M47.29 1329.16c-.04-1.68-5.13-8.02-6.3-8.09.03.69-.68.69-.71.73.52-2.04 2.96-3.57 4.77-4.3 2.94-1.18 27.04.81 29.93 2.4 3.5 1.93 9.3 8.96 8.7 13.2l-11.28 26.84c-2.47-.42-5.05-.8-7.55-.93-6.44-.33-16.66.17-22.54-.9-1.29-.23-2.55-.79-3.76-1.28z"/><path fill="#e0e5ec" d="M77.9 1329.08c-6.75-1.08-23.36.13-28.39-3.91-1.38-1.12-2.26-2.89-3.76-3.86-.8-5.02 6.73-1.51 9.06-1.22 4.22.53 17.02.56 19.92 2.21 1.8 1.02 5.83 4.81 3.17 6.78"/><path fill="#d4deec" d="M45.75 1321.31c1.5.97 2.38 2.74 3.76 3.86 5.03 4.04 21.64 2.83 28.4 3.91 1.12.18 2.25.56 3.35.86-.05.65-.3.5-.78.6-2.1.45-24.25-1.62-26.87-2.35-3.04-.84-7.32-3.53-7.86-6.88"/><path fill="#dcd9d8" d="M70.82 1355.99c-.56.48-3.46 1.09-3.65.59 2.38-2.34 2.95-5.76 5.4-7.71.36 1.08-1.27 6.7-1.75 7.11z"/><path fill="#79a363" fill-opacity=".8" d="M-33 1574.25c0 24.02 13.48 45.48 37.5 45.48s48-21.46 48-45.48c0-27.52-25-50.52-50.5-37.52-21 10.71-35 13.49-35 37.52"/><path fill="#79a363" fill-opacity=".8" d="M-8.5 1575.6c0 10.24 5.67 19.4 15.79 19.4s20.21-9.16 20.21-19.4c0-11.74-10.53-21.55-21.26-16.01-8.85 4.57-14.74 5.76-14.74 16.01"/><path fill="#f1a198" d="M92.5 625.5C92.5 588.47 76 509 0 470v350.5c41-22 92.5-94.5 92.5-195"/><path fill="#fff" d="M-1.23 495.33c1.68.86 3.2 1.95 4.47 3.37.29.33.03.54.13.7.17.3.81.41.87.46.35.33-.19.62-.15.68.35.66.66.04 1.2.47.69.56 1.42 1.44 2.15 2.23.26.27-.17.46.42 1.01.42.39 2 1.32 2.16 2.28-.14.14-.38.22-.56.33 1.4.27 1.67.6 2.61 1.96.15.22.57.17.78.6.2.43-.18.8.42 1.48.22.24.63.15.97.52.97 1.05 2.32 3.43 3.03 4.35 1.39 1.82 2.66 2.42 3.7 4.19.07.13-.46.1-.3.34s.78.16.84.2c.57.54.92 2.3 1.24 2.59.77.72.38-.25 1.3.87.86 1.07 1.33 3.04 1.96 4.25.72 1.4 1.86 1.27 1.58 2.85q3.4 5.23 6.43 10.68l-.59.27.86.65-.5.1a9 9 0 0 1 2.86 3.82c.02.04-.4.15-.4.18.1.4.6.65.7 1 .21.86.01 2.58.76 1.5.67 1.9 2.01 3.87 2.6 5.7.26.8-.26 1.3-.14 1.68.13.38.58-.04.66.08.46.71.98 2 .44 2.38l.93.17c-.7.2.58 2.48.82 3.12.04.12-.24.25-.2.34.42.95.97 1 1.46 1.78.17.27-.53.02 0 .69.04.05.5-.16.84.74.56 1.44 1.78 4.15 2.15 5.97.04.15-.63-.1-.28.5.12.23.45-.01.65.56.8 2.21 1.15 4.71 2.21 6.9-.44.04-1.16-.63-.52.52.1.18.43-.08.47 0 .33.68.25 1.38.62 2.1.11.22.42.19.58.45.22.39-.14.7.18 1.14.5.69.94.7.42 1.87 1.55 5.37 3.07 10.75 3.76 16.3.53 1.57 1.05 2.98 1.4 4.63.11.49-.42.67-.12 1.43.07.17.85 1.34-.24 1.67.15.33.18.55.28.84l.4-.74c0 1.26.53 2.3.85 3.39.23.8-.31.28-.2.77.1.5.23.72-.27 1.43.71.44.28.82.35 1.75.01.1.32.64.3 1.12 0 .34-.4.48-.3 1.03.02.1.61 1.23.68 1.6.11.57-.37 1.5-.37 1.61-.02 1.66.52 2.27-.32 3.42.51.2.83 1.22.77 2-.06.98-1.17 2.94-.08 3.26-.55 1.14-.23.97-.32 2.38-.04.56-.2 1.5-.4 2.43-.24 1.2-.53 2.43-.57 2.98-.08.99.6.6.62 1 .05.66-.35.25-.41.68a27 27 0 0 0-.26 3.53l-.98.03.28.24-.14.77c1.73-1.73-.44 1.89-.72 3.02-.23.97.07 2.73-.03 3.83-.03.27-.32.01-.33.07-.05.64.16.8-.07 1.63-.13.44-.66.78-.77 1.21-.85 3.14-1.3 6.28-2.25 9.39-.16.53-.81.81-.97 1.25-.23.62.05 1.15-.15 1.74s-.98 1.26-1.05 1.68.64-.08.25.6c-.18.3-.32-.41-.48 0-.5 1.25-.76 3.23-1.72 4.4q.19-.04.38-.1c-.62 1.42-1.4 2.58-2.08 4.01-.24.5-.35 1.56-.58 2.06-.24.5-.66.57-.86.96-.08.16.24.24.18.34-.73 1.34-1.6 1.83-2.26 3.26a122 122 0 0 1-8.56 15.5c-.13.2.11.56-.04.88-.24.5-.55.3-.6.35-.34.34.04.38-.33.89-.81 1.12-2.42 2.71-3.26 3.8-1.95 2.5-3.47 4.74-5.51 7.13-.15.17-.4-.28-.67 0-1.95 1.93-2.03 2.7-4.66 4.94-2.6 2.25-7.87 6.08-11.3 8.2-.55 1.45-2.1 2.15-3.62 2.25 5.56-5.9 11.81-9.6 17.6-15.57 6.04-6.27 10.28-14.57 14.87-21.83.44-.68 1.05-.7 1.3-1.35.04-.11-.45-.05-.3-.38 1.96-4.48 5.1-8.73 6.79-13.25.45-1.22.12-1.58.45-2.67.11.26.27.47.4.71 2.6-4.56 4.06-9.61 5.62-14.65.07-.23.5-.14.58-.38.18-.47-.16-1.06-.06-1.48.14-.56.5-.56.6-1.08.06-.25-.28-.26-.08-.79.02-.04.36.02.41-.36.14-1.01.34-3.1.44-3.94.14-1.07.83-1.8.95-2.19.31-1.06-.22-1.15-.04-2.06.77-3.86 1.58-7.6 2.2-11.46.43-2.56.66-5.35.66-8.05 0-.43-.6-2.03-.6-2.79 0-.26.1-1.65.1-1.87.02-.86.34-1.57.39-2.04.1-.9-.55-1.9-.65-2.37-.16-.83-.23-2.36-.26-2.72-.05-.88.67-.67.44-1.28-.07-.17-.58.08-.65-.56-.06-.53.31-.8.34-1.18.02-.38-.68-.98-.7-1.21-.08-1.25.26-1.8.08-3.1a53 53 0 0 0-1.53-6.44c-1-1.71-.11 1.3-.1 1.49.04.96-.24.87.4 1.72-1.32 1.05 1.44 3.66-.2 4.65 1.26.6.77 1.35.64 2.2-.17 1.18.4.23.5 1.06.04.32-.38 1.31-.25 1.8.13.48.56.65.64 1.31.16 1.19.05 2.1-.36 3.16l.69.48q-.28 1.05-.57 2.08l.55-.35.11.59q-.36 1-.75 2.03c1.14 1.82.18 1.27.05 2.32s.5 1.63.48 2.42c-.02 1.05.04 1.6-.06 2.65-.05.6-.74 1.62.29.82-.03.95-.04 2.08-.14 3.12a13 13 0 0 1-.6 3.24c-.2.5-.4-.23-.45-.15-.24.4.2.84.06 1.28-.22.73-.83 2.12-1.02 2.68-.27.82.12 2.25.14 2.4.12.8-.44.9-.45 1.15-.06 1.4.09 1.76-1.1 1.97.4.45.88 2.11 0 2.29.72.17.32 1.38.32 2.17l-.73.28c.9 1.89-.85 4.8-1.6 6.79-.02.05.48.3.27.57-.02.01-.25-.09-.34.1-.3.66-1.7 3.05-1.8 3.34-.38 1.08-.06 1.4-.25 2.07-.25.88-.64.88-.89 1.72-.11.4.22.9-.07 1.49-.17.34-.54.24-.67.51-.49.96-.55 1.79-1.36 2.48 1.04.69.03.77-.23 1.17-1.07 1.62-1.55 4-2.34 5.44-2.48 4.48-5.26 8.1-7.97 12.22-.44.66-.02 1.15-.5 1.84-.22.32-.8.4-1.15.92-.27.41-.47 1.13-.82 1.65-.1.13-.45-.09-.59.11-1.05 1.51-1.85 3.14-2.8 4.75-.35.6-1.05.6-.22 1.09l-1 .2c-.1 1.12-1.08 1.34-1.77 2.42-.07.12-.19 1.3-.9 1.4.23.26.5.38.73.6-.26.5-1.1.87-1.38 1.12s-.1.73-.18.82c-.27.32-.64-.14-.67-.12-1.73 1.08-1.35 1.12-1.54 2.6-.04.37-1.9 1.36-1.72 2.14-.2-.19-.3-.44-.47-.66L18 713.21l.86.31c-1.06.7-1.38 1.87-2.16 2.54-.44.39-.79-.1-.96.22-.03.06.32.29.2.45-1.05 1.27-1.89 1.41-3.19 2.37-.62.45-.69 1.45-1.86 1.73-.1.03-1.34.15-1.33 1.3-.35-.12-.59-.14-.86-.25-.29 1.91-.77.6-2.45 1.34-.85.4-3.38 2.26-4.2 2.89-.47.38-.2.85-.27.92-.51.43-.77-.03-1.25.34-.49.36-.87 1.25-1.46 1.48-.44.18-.4-.57-.92-.05-.11.1.5.42-.25.55-.12.03-1.45 0-1.72-.03.42-.57 1.8-1.76 2.32-2.2 9.42-6.84 25.56-22.5 32.13-32.81.64-.91 1.52-1.22 1.96-1.82s-.34-.35.05-.89.96-.75 1.31-1.27a98 98 0 0 0 6.49-10.9c.49-.97.46-1.94.87-2.85.15-.35.66-.14.77-.4 1.15-2.71 1.68-5.45 2.75-8.18.45-1.13 1.32-2.23 1.75-3.36.35-.93.37-2.02.63-2.88.14-.46.62-.58.7-.74.29-.56-.27-.5-.18-.8.25-.83.97-1.07 1.14-1.87.07-.31-.32-.38-.25-.84.08-.58.37-.28.5-.68 0-.02-.3-.02-.24-.24.3-1.4.52-3.18.86-4.51.69-2.76 1.79-5.4 2.35-8.02.15-.66-.25-.54-.23-.76.1-1.02.58-1.31.6-2.4 0-.18-.4-.97-.17-1.63.12-.36.49-.73.6-1.03.12-.3-.34-.42-.29-.8.09-.68.39-.44.45-1.44l-.01-.29c-.06-.54-.25-1.57-.16-2.41.18-1.6.66-3.66.66-5.6 0-.7-.49-1.55-.52-2.57-.04-1.29-.05-3.62-.15-4.94-.04-.68.45-.77.47-.86.1-.51-.45-.26-.45-.6-.01-.47.36-.94.35-1.38-.01-.27-.43-.27-.44-.33-.36-2.23-.55-4.1-.9-6.29-1.92-11.6-5.37-23.06-8.9-34.24-.3-.95.18-1.15-.18-1.94-.36-.8-1.7-1.2-.77-2.3l-.64.2c-.28-1.83-1.24-3.36-1.92-4.98-.5-1.2-.9-2.27-1.32-3.38-.38-1 .06-1.08-.83-1.7-1.43-4.35-3.44-8.5-4.94-12.82-1.31-.53-1.24-1.7-1.8-3.06-.07-.17-.28.16-.5-.33-.3-.61 0-1.17-.56-2.15-.15-.27-1.73-1.94-1.88-2.8s-.6-1.99-.78-2.87q-.2.34-.37.69l-.75-1.05.6-.58-1.04-.24c.91-1.18.81-.47-.11-1.32-.47-.43-.51-.96-.96-1.41-.16-.16-.58-.07-.75-.25-.43-.44.23-.44.03-.76-.2-.31-1.01-.43-1.14-1.15 1.3 0-.1-1.51-.87-1.12-.13-.2-.22-.39-.38-.6 1.93-.98-.04-1.2-.57-1.44-.52-.25-.03-.56-.12-.64-.24-.25-.3.1-.44-.1-.92-1.26-1.48-2.67-2.36-3.95-.13-.18-.28.17-.4-.06-.13-.23-.02-.62-.26-.91-.07-.08-.32.06-.41-.07-1.99-2.7-3.77-5.36-5.95-8-.2-.25-.75-.1-1.12-.56s-.63-1.46-1.1-2.04c-.12-.15-.47.1-.64-.1-.56-.7-.82-1.5-1.4-2.21-1-1.22-2.32-2.21-3.26-3.51-.18-.25.1-.47-.13-.84-.41-.66-.58-.09-.73-.14-.51-.2-.14-.8-.61-1-.08-.03-.28.33-.34.3-.78-.66-.16-1.4-1.3-1.76-.34-1.06.97-.1 1.3-.2.78-.23.57-1.58.28-2.21-.26-.55-.55-.22-.71-.37-.87-.8-2.22-1.88-2.76-2.61-.32-.45.53.04.42-.25s-.47-.15-.44-.6c.02-.46.27-1.65.68-1.97m49.73 83.9c-2.19-1.17-3.5-5.68-4.23-8.11-.58-2.03.03-4.18-1.64-3.09.79 2.1 1.6 3.78 2.33 6.05.08.23.4 1.7.52 2.2.08.28-.22.4-.1.77.03.08.58.4.62.57.16.58.08 2.45.17 2.69.26.64.66.24.83.5.59.86-.1 1.19.42 2.06.09.15.88.53 1 1.25.06.3-.12.88-.05 1.1.43 1.17 1.23 2.39 1.45 3.5.18.92-.37.8-.3 1.3.05.5.77.93.89 1.25.18.51.02 1.22.06 1.38.88 3.19 1.9 5.97 2.65 9.07-.19-2.15-.44-4.34-.7-6.49-.78-1.08-.16-.6-.2-1.42-.02-.67-.91-.6-1.02-1.43-.05-.42.32-1.48-.16-2.32-.02-.03-.49.01-.68-.66-.43-1.49-1.28-3.69-1.68-5.4-.12-.5.37-.53.26-1.13-.08-.43-.66-.8-.76-1.48-.14-.87.47-1.5-.73-1.75.35-.16.71-.25 1.05-.42M28.19 535.9c-.02-.13.15-2.14-.69-1.07.67 2.15 2.09 4.06 2.94 6.22.71-1.3-.37-2.22-1.27-3.57-.04-.07.4.04.13-.3-.13-.17-.97-.61-1.11-1.28"/><path fill="#f1a198" d="M92.5 625.5C92.5 588.47 76 509 0 470v350.5c41-22 92.5-94.5 92.5-195"/><path fill="#fff" d="M-1.23 495.33c1.68.86 3.2 1.95 4.47 3.37.29.33.03.54.13.7.17.3.81.41.87.46.35.33-.19.62-.15.68.35.66.66.04 1.2.47.69.56 1.42 1.44 2.15 2.23.26.27-.17.46.42 1.01.42.39 2 1.32 2.16 2.28-.14.14-.38.22-.56.33 1.4.27 1.67.6 2.61 1.96.15.22.57.17.78.6.2.43-.18.8.42 1.48.22.24.63.15.97.52.97 1.05 2.32 3.43 3.03 4.35 1.39 1.82 2.66 2.42 3.7 4.19.07.13-.46.1-.3.34s.78.16.84.2c.57.54.92 2.3 1.24 2.59.77.72.38-.25 1.3.87.86 1.07 1.33 3.04 1.96 4.25.72 1.4 1.86 1.27 1.58 2.85q3.4 5.23 6.43 10.68l-.59.27.86.65-.5.1a9 9 0 0 1 2.86 3.82c.02.04-.4.15-.4.18.1.4.6.65.7 1 .21.86.01 2.58.76 1.5.67 1.9 2.01 3.87 2.6 5.7.26.8-.26 1.3-.14 1.68.13.38.58-.04.66.08.46.71.98 2 .44 2.38l.93.17c-.7.2.58 2.48.82 3.12.04.12-.24.25-.2.34.42.95.97 1 1.46 1.78.17.27-.53.02 0 .69.04.05.5-.16.84.74.56 1.44 1.78 4.15 2.15 5.97.04.15-.63-.1-.28.5.12.23.45-.01.65.56.8 2.21 1.15 4.71 2.21 6.9-.44.04-1.16-.63-.52.52.1.18.43-.08.47 0 .33.68.25 1.38.62 2.1.11.22.42.19.58.45.22.39-.14.7.18 1.14.5.69.94.7.42 1.87 1.55 5.37 3.07 10.75 3.76 16.3.53 1.57 1.05 2.98 1.4 4.63.11.49-.42.67-.12 1.43.07.17.85 1.34-.24 1.67.15.33.18.55.28.84l.4-.74c0 1.26.53 2.3.85 3.39.23.8-.31.28-.2.77.1.5.23.72-.27 1.43.71.44.28.82.35 1.75.01.1.32.64.3 1.12 0 .34-.4.48-.3 1.03.02.1.61 1.23.68 1.6.11.57-.37 1.5-.37 1.61-.02 1.66.52 2.27-.32 3.42.51.2.83 1.22.77 2-.06.98-1.17 2.94-.08 3.26-.55 1.14-.23.97-.32 2.38-.04.56-.2 1.5-.4 2.43-.24 1.2-.53 2.43-.57 2.98-.08.99.6.6.62 1 .05.66-.35.25-.41.68a27 27 0 0 0-.26 3.53l-.98.03.28.24-.14.77c1.73-1.73-.44 1.89-.72 3.02-.23.97.07 2.73-.03 3.83-.03.27-.32.01-.33.07-.05.64.16.8-.07 1.63-.13.44-.66.78-.77 1.21-.85 3.14-1.3 6.28-2.25 9.39-.16.53-.81.81-.97 1.25-.23.62.05 1.15-.15 1.74s-.98 1.26-1.05 1.68.64-.08.25.6c-.18.3-.32-.41-.48 0-.5 1.25-.76 3.23-1.72 4.4q.19-.04.38-.1c-.62 1.42-1.4 2.58-2.08 4.01-.24.5-.35 1.56-.58 2.06-.24.5-.66.57-.86.96-.08.16.24.24.18.34-.73 1.34-1.6 1.83-2.26 3.26a122 122 0 0 1-8.56 15.5c-.13.2.11.56-.04.88-.24.5-.55.3-.6.35-.34.34.04.38-.33.89-.81 1.12-2.42 2.71-3.26 3.8-1.95 2.5-3.47 4.74-5.51 7.13-.15.17-.4-.28-.67 0-1.95 1.93-2.03 2.7-4.66 4.94-2.6 2.25-7.87 6.08-11.3 8.2-.55 1.45-2.1 2.15-3.62 2.25 5.56-5.9 11.81-9.6 17.6-15.57 6.04-6.27 10.28-14.57 14.87-21.83.44-.68 1.05-.7 1.3-1.35.04-.11-.45-.05-.3-.38 1.96-4.48 5.1-8.73 6.79-13.25.45-1.22.12-1.58.45-2.67.11.26.27.47.4.71 2.6-4.56 4.06-9.61 5.62-14.65.07-.23.5-.14.58-.38.18-.47-.16-1.06-.06-1.48.14-.56.5-.56.6-1.08.06-.25-.28-.26-.08-.79.02-.04.36.02.41-.36.14-1.01.34-3.1.44-3.94.14-1.07.83-1.8.95-2.19.31-1.06-.22-1.15-.04-2.06.77-3.86 1.58-7.6 2.2-11.46.43-2.56.66-5.35.66-8.05 0-.43-.6-2.03-.6-2.79 0-.26.1-1.65.1-1.87.02-.86.34-1.57.39-2.04.1-.9-.55-1.9-.65-2.37-.16-.83-.23-2.36-.26-2.72-.05-.88.67-.67.44-1.28-.07-.17-.58.08-.65-.56-.06-.53.31-.8.34-1.18.02-.38-.68-.98-.7-1.21-.08-1.25.26-1.8.08-3.1a53 53 0 0 0-1.53-6.44c-1-1.71-.11 1.3-.1 1.49.04.96-.24.87.4 1.72-1.32 1.05 1.44 3.66-.2 4.65 1.26.6.77 1.35.64 2.2-.17 1.18.4.23.5 1.06.04.32-.38 1.31-.25 1.8.13.48.56.65.64 1.31.16 1.19.05 2.1-.36 3.16l.69.48q-.28 1.05-.57 2.08l.55-.35.11.59q-.36 1-.75 2.03c1.14 1.82.18 1.27.05 2.32s.5 1.63.48 2.42c-.02 1.05.04 1.6-.06 2.65-.05.6-.74 1.62.29.82-.03.95-.04 2.08-.14 3.12a13 13 0 0 1-.6 3.24c-.2.5-.4-.23-.45-.15-.24.4.2.84.06 1.28-.22.73-.83 2.12-1.02 2.68-.27.82.12 2.25.14 2.4.12.8-.44.9-.45 1.15-.06 1.4.09 1.76-1.1 1.97.4.45.88 2.11 0 2.29.72.17.32 1.38.32 2.17l-.73.28c.9 1.89-.85 4.8-1.6 6.79-.02.05.48.3.27.57-.02.01-.25-.09-.34.1-.3.66-1.7 3.05-1.8 3.34-.38 1.08-.06 1.4-.25 2.07-.25.88-.64.88-.89 1.72-.11.4.22.9-.07 1.49-.17.34-.54.24-.67.51-.49.96-.55 1.79-1.36 2.48 1.04.69.03.77-.23 1.17-1.07 1.62-1.55 4-2.34 5.44-2.48 4.48-5.26 8.1-7.97 12.22-.44.66-.02 1.15-.5 1.84-.22.32-.8.4-1.15.92-.27.41-.47 1.13-.82 1.65-.1.13-.45-.09-.59.11-1.05 1.51-1.85 3.14-2.8 4.75-.35.6-1.05.6-.22 1.09l-1 .2c-.1 1.12-1.08 1.34-1.77 2.42-.07.12-.19 1.3-.9 1.4.23.26.5.38.73.6-.26.5-1.1.87-1.38 1.12s-.1.73-.18.82c-.27.32-.64-.14-.67-.12-1.73 1.08-1.35 1.12-1.54 2.6-.04.37-1.9 1.36-1.72 2.14-.2-.19-.3-.44-.47-.66L18 713.21l.86.31c-1.06.7-1.38 1.87-2.16 2.54-.44.39-.79-.1-.96.22-.03.06.32.29.2.45-1.05 1.27-1.89 1.41-3.19 2.37-.62.45-.69 1.45-1.86 1.73-.1.03-1.34.15-1.33 1.3-.35-.12-.59-.14-.86-.25-.29 1.91-.77.6-2.45 1.34-.85.4-3.38 2.26-4.2 2.89-.47.38-.2.85-.27.92-.51.43-.77-.03-1.25.34-.49.36-.87 1.25-1.46 1.48-.44.18-.4-.57-.92-.05-.11.1.5.42-.25.55-.12.03-1.45 0-1.72-.03.42-.57 1.8-1.76 2.32-2.2 9.42-6.84 25.56-22.5 32.13-32.81.64-.91 1.52-1.22 1.96-1.82s-.34-.35.05-.89.96-.75 1.31-1.27a98 98 0 0 0 6.49-10.9c.49-.97.46-1.94.87-2.85.15-.35.66-.14.77-.4 1.15-2.71 1.68-5.45 2.75-8.18.45-1.13 1.32-2.23 1.75-3.36.35-.93.37-2.02.63-2.88.14-.46.62-.58.7-.74.29-.56-.27-.5-.18-.8.25-.83.97-1.07 1.14-1.87.07-.31-.32-.38-.25-.84.08-.58.37-.28.5-.68 0-.02-.3-.02-.24-.24.3-1.4.52-3.18.86-4.51.69-2.76 1.79-5.4 2.35-8.02.15-.66-.25-.54-.23-.76.1-1.02.58-1.31.6-2.4 0-.18-.4-.97-.17-1.63.12-.36.49-.73.6-1.03.12-.3-.34-.42-.29-.8.09-.68.39-.44.45-1.44l-.01-.29c-.06-.54-.25-1.57-.16-2.41.18-1.6.66-3.66.66-5.6 0-.7-.49-1.55-.52-2.57-.04-1.29-.05-3.62-.15-4.94-.04-.68.45-.77.47-.86.1-.51-.45-.26-.45-.6-.01-.47.36-.94.35-1.38-.01-.27-.43-.27-.44-.33-.36-2.23-.55-4.1-.9-6.29-1.92-11.6-5.37-23.06-8.9-34.24-.3-.95.18-1.15-.18-1.94-.36-.8-1.7-1.2-.77-2.3l-.64.2c-.28-1.83-1.24-3.36-1.92-4.98-.5-1.2-.9-2.27-1.32-3.38-.38-1 .06-1.08-.83-1.7-1.43-4.35-3.44-8.5-4.94-12.82-1.31-.53-1.24-1.7-1.8-3.06-.07-.17-.28.16-.5-.33-.3-.61 0-1.17-.56-2.15-.15-.27-1.73-1.94-1.88-2.8s-.6-1.99-.78-2.87q-.2.34-.37.69l-.75-1.05.6-.58-1.04-.24c.91-1.18.81-.47-.11-1.32-.47-.43-.51-.96-.96-1.41-.16-.16-.58-.07-.75-.25-.43-.44.23-.44.03-.76-.2-.31-1.01-.43-1.14-1.15 1.3 0-.1-1.51-.87-1.12-.13-.2-.22-.39-.38-.6 1.93-.98-.04-1.2-.57-1.44-.52-.25-.03-.56-.12-.64-.24-.25-.3.1-.44-.1-.92-1.26-1.48-2.67-2.36-3.95-.13-.18-.28.17-.4-.06-.13-.23-.02-.62-.26-.91-.07-.08-.32.06-.41-.07-1.99-2.7-3.77-5.36-5.95-8-.2-.25-.75-.1-1.12-.56s-.63-1.46-1.1-2.04c-.12-.15-.47.1-.64-.1-.56-.7-.82-1.5-1.4-2.21-1-1.22-2.32-2.21-3.26-3.51-.18-.25.1-.47-.13-.84-.41-.66-.58-.09-.73-.14-.51-.2-.14-.8-.61-1-.08-.03-.28.33-.34.3-.78-.66-.16-1.4-1.3-1.76-.34-1.06.97-.1 1.3-.2.78-.23.57-1.58.28-2.21-.26-.55-.55-.22-.71-.37-.87-.8-2.22-1.88-2.76-2.61-.32-.45.53.04.42-.25s-.47-.15-.44-.6c.02-.46.27-1.65.68-1.97m49.73 83.9c-2.19-1.17-3.5-5.68-4.23-8.11-.58-2.03.03-4.18-1.64-3.09.79 2.1 1.6 3.78 2.33 6.05.08.23.4 1.7.52 2.2.08.28-.22.4-.1.77.03.08.58.4.62.57.16.58.08 2.45.17 2.69.26.64.66.24.83.5.59.86-.1 1.19.42 2.06.09.15.88.53 1 1.25.06.3-.12.88-.05 1.1.43 1.17 1.23 2.39 1.45 3.5.18.92-.37.8-.3 1.3.05.5.77.93.89 1.25.18.51.02 1.22.06 1.38.88 3.19 1.9 5.97 2.65 9.07-.19-2.15-.44-4.34-.7-6.49-.78-1.08-.16-.6-.2-1.42-.02-.67-.91-.6-1.02-1.43-.05-.42.32-1.48-.16-2.32-.02-.03-.49.01-.68-.66-.43-1.49-1.28-3.69-1.68-5.4-.12-.5.37-.53.26-1.13-.08-.43-.66-.8-.76-1.48-.14-.87.47-1.5-.73-1.75.35-.16.71-.25 1.05-.42M28.19 535.9c-.02-.13.15-2.14-.69-1.07.67 2.15 2.09 4.06 2.94 6.22.71-1.3-.37-2.22-1.27-3.57-.04-.07.4.04.13-.3-.13-.17-.97-.61-1.11-1.28"/><path fill="#fff" d="M-5.73 523.33a9 9 0 0 1 3.48 2.51c.22.26-.03.48.03.6.12.25.67.28.7.32.28.25-.22.57-.2.62.23.54.57-.04.99.27.55.42 1.09 1.12 1.64 1.72.2.21-.21.43.25.85.32.29 1.61.92 1.64 1.74-.14.14-.36.23-.53.35 1.21.07 1.4.34 2.1 1.4.1.17.48.09.62.43.13.35-.26.71.2 1.24.17.18.55.05.81.33.75.8 1.7 2.68 2.23 3.39 1.05 1.39 2.14 1.76 2.89 3.14.05.1-.43.14-.31.32s.7.04.74.08c.46.4.6 1.83.85 2.04.63.52.38-.25 1.1.59.67.8.9 2.4 1.34 3.34.52 1.08 1.6.86 1.16 2.2a138 138 0 0 1 4.92 8.11l-.58.28.74.45-.47.13a5.5 5.5 0 0 1 2.33 2.82c0 .03-.4.16-.4.18.06.31.51.47.56.75.13.67-.23 2.07.59 1.13.46 1.48 1.56 2.93 1.96 4.36.17.61-.37 1.06-.28 1.35s.55-.09.61 0c.38.53.78 1.51.22 1.87l.88.05c-.7.22.35 1.93.52 2.41.04.1-.25.22-.22.29.33.72.86.7 1.27 1.29.14.2-.51.06-.06.55.03.04.5-.17.76.52.42 1.1 1.39 3.14 1.62 4.55.02.11-.61-.03-.32.42.1.16.44-.06.6.38.6 1.68.77 3.62 1.66 5.25-.44.07-1.1-.4-.55.45.1.13.43-.1.47-.03.27.5.15 1.06.46 1.6.1.16.4.11.54.3.2.3-.18.56.1.88.45.5.88.49.3 1.43 1.19 4.09 2.4 8.17 2.83 12.41.46 1.19.91 2.25 1.2 3.5.1.38-.44.54-.17 1.1.07.13.8 1-.3 1.3.14.25.16.41.26.63q.2-.3.42-.58c-.05.97.45 1.74.74 2.57.21.61-.32.22-.23.6.1.38.22.54-.3 1.1.7.31.27.62.31 1.32 0 .08.3.5.28.86-.01.26-.42.37-.32.8.01.06.59.92.65 1.2.1.44-.39 1.15-.4 1.24-.03 1.26.5 1.73-.34 2.61.52.15.83.93.77 1.52-.06.76-1.15 2.25-.06 2.5-.53.87-.22.74-.29 1.82-.02.43-.17 1.16-.34 1.88-.21.9-.46 1.83-.48 2.25-.04.75.62.48.66.79.06.5-.35.17-.4.5-.12.95-.16 1.78-.12 2.71l-.97-.01.29.19-.11.58c1.65-1.25-.36 1.44-.58 2.3-.18.74.2 2.11.16 2.96-.01.2-.32-.01-.32.03-.01.5.2.63.01 1.26-.1.34-.6.58-.69.9-.66 2.4-.9 4.82-1.61 7.19-.12.4-.74.58-.86.91-.17.47.13.91-.02 1.37-.15.45-.86.91-.9 1.24-.03.33.63-.02.3.49-.16.23-.34-.34-.47-.04-.38.96-.48 2.5-1.31 3.36q.18-.01.36-.05c-.48 1.08-1.14 1.94-1.66 3.03-.18.38-.2 1.22-.38 1.6s-.58.4-.73.7c-.06.12.25.2.2.29-.57 1-1.35 1.33-1.84 2.42a92 92 0 0 1-6.38 11.9c-.1.15.17.5.06.75-.16.39-.47.19-.51.23-.28.24.08.32-.2.71-.62.86-1.9 2.03-2.54 2.87-1.48 1.93-2.58 3.68-4.11 5.54-.11.14-.39-.29-.6-.07-1.5 1.46-1.48 2.13-3.5 3.82a88 88 0 0 1-8.73 6.2c-.3 1.29-1.53 1.8-2.77 1.73 3.97-4.97 8.83-7.58 13.22-12.15 4.6-4.8 7.48-11.33 11-16.8.33-.52.9-.48 1.07-.98.03-.08-.43-.09-.33-.34 1.37-3.46 3.94-6.58 5.16-10.04.33-.92-.02-1.24.2-2.07.14.22.3.39.45.6 2.11-3.4 3.16-7.27 4.36-11.09.05-.17.48-.07.55-.25.13-.36-.23-.84-.16-1.16.1-.42.45-.4.53-.8.04-.19-.3-.22-.13-.61.01-.04.35.03.38-.26.08-.77.16-2.38.22-3.02.07-.81.72-1.34.82-1.64.26-.8-.27-.89-.13-1.58.57-2.92 1.23-5.76 1.75-8.67.35-1.95.55-4.08.55-6.13 0-.33-.6-1.54-.6-2.12.01-.2.13-1.25.13-1.42.02-.65.35-1.2.4-1.55.11-.7-.5-1.44-.6-1.8-.14-.62-.18-1.78-.2-2.06-.03-.66.69-.53.47-.98-.06-.13-.58.07-.63-.41-.05-.4.33-.62.37-.91s-.65-.73-.65-.9c-.04-.95.3-1.38.18-2.38-.1-.85-1.04-4.57-1.26-4.87-.9-1.26-.17 1-.17 1.15 0 .74-.27.67.33 1.3-1.35.85 1.29 2.75-.38 3.56 1.24.4.73 1 .57 1.65-.2.9.39.17.47.8.03.24-.42 1-.3 1.37s.53.48.6.98c.14.9 0 1.6-.42 2.4q.34.19.67.36-.29.81-.6 1.59l.56-.28.1.45-.77 1.54c1.13 1.37.17.96.04 1.76-.14.79.5 1.23.48 1.83 0 .79.06 1.2-.03 2-.05.47-.71 1.22.3.63-.01.72 0 1.59-.07 2.38a8 8 0 0 1-.5 2.43c-.18.38-.4-.18-.45-.12-.22.3.23.65.1.98-.2.55-.75 1.59-.91 2-.23.62.21 1.73.24 1.84.15.62-.4.67-.4.86 0 1.08.17 1.36-.99 1.46.42.37.97 1.67.12 1.76.71.17.38 1.08.42 1.7l-.7.16c1 1.5-.55 3.66-1.16 5.16-.02.03.5.26.3.46-.01.01-.24-.08-.32.06-.25.5-1.45 2.25-1.53 2.47-.3.82.05 1.09-.09 1.6-.17.67-.56.65-.73 1.28-.08.3.28.74.05 1.17-.14.25-.5.15-.62.35-.39.72-.38 1.36-1.1 1.84 1.06.63.1.61-.13.9-.89 1.2-1.13 3.04-1.76 4.12-1.94 3.37-4.2 6-6.28 9.09-.33.5.11.94-.26 1.47-.17.23-.7.24-.96.63-.2.3-.31.88-.58 1.26-.07.1-.42-.11-.52.03-.8 1.14-1.34 2.4-2.01 3.65-.25.46-.89.38-.07.9l-.89.05c.04.94-.82 1-1.3 1.85-.06.09-.02 1.08-.65 1.09.24.24.5.38.73.59-.17.4-.88.62-1.1.8-.2.19 0 .62-.05.69-.2.25-.6-.2-.62-.19-1.4.73-1.06.8-1.04 2.07 0 .32-1.52.97-1.25 1.67-.21-.19-.33-.43-.5-.63l-1.14.8.79.38c-.84.49-.98 1.49-1.57 2-.34.28-.7-.2-.8.07-.02.05.3.3.22.42-.75 1.02-1.45 1.05-2.45 1.76-.47.33-.42 1.23-1.37 1.35-.1.02-1.12-.02-.98 1.03-.3-.14-.5-.19-.75-.32-.02 1.72-.58.46-1.89.96-.67.26-2.54 1.72-3.13 2.23-.35.3-.08.77-.14.83-.37.36-.62-.1-.98.19-.35.3-.58 1.1-1.03 1.26-.34.13-.38-.59-.75-.14-.08.09.45.45-.15.5-.1.01-1.16-.14-1.38-.18.28-.52 1.27-1.52 1.65-1.88 6.78-5.7 18.74-17.35 23.74-25.06.48-.68 1.26-.84 1.6-1.28s-.35-.32-.05-.73.8-.5 1.08-.9a69 69 0 0 0 5-8.14c.37-.73.25-1.5.55-2.18.12-.27.63-.05.71-.25.86-2.05 1.13-4.16 1.95-6.21.34-.85 1.11-1.64 1.44-2.5.28-.7.21-1.54.4-2.18.11-.35.57-.41.64-.53.24-.41-.3-.4-.23-.63.19-.63.87-.77 1-1.37.04-.24-.35-.32-.31-.67.04-.44.35-.19.44-.5.01-.01-.28-.02-.24-.19.2-1.06.32-2.41.57-3.42.54-2.07 1.5-4.04 1.95-6.01.1-.5-.28-.43-.27-.59.05-.77.53-.98.5-1.8 0-.14-.43-.76-.23-1.25.1-.26.47-.53.57-.76s-.35-.33-.31-.61c.06-.52.36-.33.4-1.08q0-.08-.02-.2c-.07-.41-.3-1.2-.22-1.83.15-1.2.6-2.74.61-4.2 0-.52-.48-1.16-.51-1.93-.03-.96-.01-2.71-.08-3.71-.04-.51.46-.6.48-.66.1-.39-.44-.19-.44-.44 0-.36.38-.72.38-1.05 0-.2-.42-.2-.43-.25-.3-1.67-.44-3.09-.72-4.73-1.5-8.75-4.22-17.35-6.82-25.81-.22-.72.26-.91-.03-1.5-.29-.6-1.56-.8-.57-1.73-.25.06-.41.13-.64.19-.12-1.4-.94-2.53-1.46-3.74-.39-.9-.67-1.72-.98-2.56-.28-.75.15-.86-.65-1.28-1-3.3-2.53-6.43-3.53-9.76-1.2-.3-1.01-1.24-1.4-2.3-.05-.12-.29.17-.45-.2-.2-.47.14-.95-.3-1.69-.11-.2-1.43-1.4-1.48-2.08-.04-.68-.34-1.55-.43-2.26l-.4.6-.6-.77.63-.54-.95-.09c.97-1.06.8-.47.03-1.07-.38-.3-.36-.73-.73-1.05-.13-.12-.54 0-.68-.12-.35-.32.27-.4.12-.63-.16-.24-.9-.25-.94-.82 1.22-.15.08-1.25-.67-.84-.1-.15-.16-.3-.29-.45 1.9-1.03.1-.99-.36-1.14s.04-.46-.03-.52c-.2-.17-.3.12-.4-.03-.7-.94-1.05-2.06-1.71-3.02-.1-.14-.27.17-.36 0-.1-.18.06-.53-.13-.75-.05-.06-.3.1-.37 0-1.5-2.05-2.79-4.1-4.42-6.1-.15-.18-.66.02-.94-.34-.28-.35-.38-1.17-.72-1.62-.1-.11-.44.14-.56-.01-.42-.53-.55-1.19-.98-1.74-.74-.93-1.78-1.64-2.44-2.67-.13-.19.15-.41-.01-.72-.28-.52-.5 0-.63-.03-.42-.1-.02-.68-.4-.8-.06-.02-.3.32-.33.3-.6-.49.03-1.2-.92-1.4-.16-.9.86-.2 1.15-.32.71-.3.7-1.48.51-2-.15-.46-.45-.14-.57-.25-.65-.6-1.7-1.41-2.07-2-.23-.37.45-.03.39-.28-.07-.24-.38-.08-.31-.5.07-.4.43-1.5.82-1.84m37.36 64.21c-2.06-.76-3.01-4.18-3.52-6.04-.41-1.55.35-3.3-1.35-2.3.6 1.6 1.26 2.85 1.8 4.57.05.18.24 1.3.33 1.69.06.21-.24.32-.15.6.02.06.54.27.57.4.1.45-.1 1.9-.03 2.09.2.48.62.14.78.33.5.63-.19.93.26 1.58.08.11.84.35.9.9.04.23-.18.7-.12.86.35.88 1.06 1.77 1.2 2.62.13.7-.4.65-.38 1.03s.71.67.81.91c.15.38-.05.95-.02 1.07.7 2.4 1.55 4.5 2.15 6.83q-.13-2.47-.36-4.95c-.72-.8-.13-.45-.12-1.1.01-.5-.87-.4-.93-1.04-.03-.32.4-1.16-.03-1.78-.02-.02-.47.04-.62-.47-.34-1.13-1.04-2.78-1.32-4.09-.08-.37.4-.44.33-.9-.05-.32-.59-.57-.65-1.1-.07-.66.57-1.2-.58-1.3.35-.16.7-.25 1.05-.4m-15.6-32.8c0-.1.38-1.78-.52-.8.39 1.7 1.52 3.1 2.1 4.78.8-1.13-.12-1.78-.82-2.79-.03-.05.38 0 .16-.26-.1-.12-.85-.4-.91-.93"/><path fill="#79a363" fill-opacity=".8" d="M50.57 1025.31c14.54-3.9 28.31-24.16 24.41-38.7s-20.47-19.45-35-15.55c-14.55 3.9-25.25 23.33-21.36 37.87s17.41 20.27 31.95 16.38"/><path fill="#79a363" fill-opacity=".8" d="M48.91 1010.66c6.74-1.81 13.13-11.14 11.34-17.82-1.8-6.69-9.46-8.93-16.2-7.13s-11.7 10.76-9.91 17.44 8.04 9.31 14.77 7.51"/><path fill="#f1a198" d="M94 34c0 5.8-7.7 10-13.5 10S73 39.8 73 34s6.2-9 12-9 9 3.2 9 9M81.25 939c7.1-1.9 9.72-12.72 7.82-19.82s-7.6-7.8-14.7-5.9-9 10.55-7.09 17.65c1.9 7.1 6.87 9.97 13.97 8.07"/><path fill="#faae37" fill-opacity=".6" d="M14.94 1100c-3.86-17 1.93-63-15.44-63v270c15.67-8 35.2-60 36.9-111 1.68-51-17.6-79-21.46-96"/><path fill="#ffe1b2" d="M19.37 1200.73c.05-1.77 0-3.43-.09-5.48v-.01l-.04-.92c-.1-2.56-.24-5.86-.4-10.83-.17-5.47-.69-9.88-1.14-12.5-.08-.49-.14-.99-.23-2.31l-.26-3.64-.24-3.11c-.32-3.98-.78-10.21-1.4-15.92a277 277 0 0 0-1.14-9.23c-.5-3.62-1.06-7.11-1.7-10.9l-1.91-11.47a127 127 0 0 0-2.39-10.9c-.7-2.83-1.41-5.72-2.04-8.88a178 178 0 0 1-2.29-15.17c-.23-1.97-.46-4-.73-6.21-.43-3.49-1.1-8.5-1.71-13.54l-.16-1.29v-.01c-.56-4.61-1.06-9.14-1.36-12.47-.48-5.29-.54-7.29-.6-8.97l-.08-1.89c-.13-2.49-.43-6.24-.7-10.03v-.05c-.04-.63-.36-1.12-.7-1.1-.35.03-.6.56-.55 1.2l.42 5.74c-.29.12-.48.61-.43 1.17.12 1.43.22 5.81.53 12.67l-.28-1.19-.24-.96c-.14-.55-.24-.92-.34-1.56-.19-1.5-.41-3.89-.63-6.39-.05-.64-.37-1.13-.72-1.1s-.58.58-.52 1.21v.04a188 188 0 0 0 .78 7.53l.1.61.03.1c0 .02.04.15.1.27l.09.15.01.05.2.75c.25 1.03.6 2.69 1.17 6.12.52 3.16 1.2 8.52 2.05 15.2a155 155 0 0 1-.83-4.75l-.22-1.31-.57-3.56-.31-2.01-.11-.7c-.14-.92-.28-1.82-.46-2.86l-.09-.37-.07-.31-.07-.25v-.04l-.07-.25-.06-.24-.05-.23-.06-.32-.06-.34-.1-.72-.05-.38-.05-.38q-.07-.46-.28-.77-.2-.3-.46-.28-.25.04-.4.37-.15.36-.1.82l.01.24.02.15.03.39.04.4q0 .21.04.42l.05.42.06.44.06.34.06.33.06.3.01.03.05.25.05.26.04.2.33 2.97.04.38.22 2.02.16 1.46a373 373 0 0 0 1.33 10.51c.17 1.16.37 2.37.57 3.54a63 63 0 0 0 .8 3.82q.14.55.25 1.09a139 139 0 0 1 .95 4.56 127 127 0 0 1 1.2 7.76l.43 3.2.15 1.13.28 2.09.93 6.49.54 3.33.53 2.99.14.78q.35 1.84.63 3.61a131 131 0 0 1 .96 7.2 284 284 0 0 1 .74 7.39l.43 4.22.09.84.31 3.13a66 66 0 0 1 .2 3.56c.07 1.47.15 2.39.23 3.39l.08.96.59 6.8.66 7.1.34 3.55.2 2.04.15 1.41a183 183 0 0 1 .37 4.19 50 50 0 0 1 .06 4.57 255 255 0 0 1-.16 5.82 111 111 0 0 1-.2 3.4c-.07.96-.1 1.9-.11 2.72l-.03 2.31-.1 4.32a128 128 0 0 1-.4 6.44l-.2 2.47a172 172 0 0 0-.5 7.55l-.11 2.49a725 725 0 0 1-.59 11.61l-.26 3.85-.06.85-.24 2.98v.03a278 278 0 0 1-.78 7.84l-.35 2.54-.02.12-.2 1.51a190 190 0 0 1-1.44 9.43 309 309 0 0 1-1.17 6.42l-1.54 8.01a324 324 0 0 1-1.86 8.8 258 258 0 0 1-2.89 11.3l-.5 1.27c-1.21 2.99-2.14 5.14-3.32 7.95l-.43.9a44.14 44.14 0 0 0-2.48 6.4c-.18.59-.04 1.07.33 1.09.25.01.54-.21.75-.54q-.38 1.02-.78 2.03-.15.42-.11.77.05.35.28.44.24.08.54-.16t.48-.65l.94-2.12.9-2.14.9-2.14.86-2.16.85-2.17.5-1.31.32-.88a196 196 0 0 0 4.28-12.89 250 250 0 0 0 3.28-12.13l.38-1.3 1.12-3.74c-.52 2.22-1 4-1.47 5.68l-.19.68c-.65 2.28-1.28 4.47-2.05 7.45-2.22 8.46-3.9 13.25-4.87 16.25-1 3-1.39 4.29-1.63 5.56a39 39 0 0 1-2.23 6.66c-.26.58-.21 1.16.1 1.3.32.14.79-.22 1.05-.8a42 42 0 0 0 2.45-7.41c.18-.96.48-2.01 1.47-4.98.97-2.98 2.63-7.75 4.87-16.27.75-2.89 1.36-5.01 2-7.28l.2-.68c.58-2.08 1.2-4.37 1.88-7.47 1.59-7.16 3.23-16.89 3.64-19.2l.26-1.35c.33-1.78.75-3.91 1.34-8.78q.2-1.62.4-3.68c.36-2.04.68-4 .9-5.73q.31-2.22.7-4.18l.22-1.15.49-2.77q.16-1.08.37-2.27a76 76 0 0 0 1.15-11.02c.12-4.89.07-9.03-.01-12.63.09 2.67.17 4.66.24 6.38l.04.93c.08 2.07.13 3.59.09 5.23-.22 7.76-.51 10.68-1 13.93q-.2 1.3-.47 2.83c-.37 2.02-.8 4.36-1.16 6.86-.33 2.32-.78 4.92-1.29 7.66l-.3 1.63c-.63 3.33-1.33 6.82-1.97 10.21l-.26 1.3c-.58 2.88-1.63 7.91-2.64 14.11-.23 1.37-.42 2.79-.66 4.41l-.24 1.54c-.36 2.31-.84 5.12-1.7 8.8-.7 3.05-1.66 6.73-2.8 10.53a190.62 190.62 0 0 1-7.61 21.34v.01c-.25.59-.2 1.16.13 1.29.32.12.8-.26 1.05-.85a193 193 0 0 0 5.88-15.8c.6-1.85 1.2-3.75 1.75-5.61a180 180 0 0 0 2.84-10.69 125 125 0 0 0 1.97-10.6c.24-1.61.42-2.95.63-4.25.99-6.03 2-10.89 2.6-13.79l.26-1.35c.64-3.34 1.33-6.8 1.96-10.13l.3-1.62c.52-2.75.98-5.41 1.32-7.78.35-2.4.74-4.53 1.1-6.49q.29-1.57.52-3.09c.52-3.46.82-6.54 1.04-14.35m-27 100.97q.7-2.16 1.24-3.41l-.78 2.17zm20.33-74.11-.13.74.47-4.58q-.16 2.01-.34 3.84m3.8-26.86c-.1 4.3-.6 7.52-1.08 10.41l-.39 2.43-.16.99.2-5.21c.15-4.35.1-6.88.06-9.05q0-.95-.03-1.87a96 96 0 0 0 .45-6.28 147 147 0 0 0 .14-4.5v-.12l.05-2.12q.03-1 .08-1.74a126 126 0 0 0 .34-6.3v-.28c.05 1.22.09 2.53.12 3.82l.19 6.15c.1 3.85.17 8.21.04 13.67m-1.17-42.17q.06.78.14 2.33l.04.74v-.01l-.21-1.91-.38-3.39-.37-3.38-.36-3.4-.37-3.39-.11-1.1.36 2.52.3 2.23.15 1.05c.23 1.68.58 4.28.81 7.71m-2.43-22.53a103 103 0 0 0-.34-2.93l-.2-1.45-.07-.6-.14-1a323 323 0 0 1 1.06 7.01z"/><path fill="#f8cb83" d="M.7 330.14c1.2-.27 9.34-.82 9.86-.46.14.1.81 1.7.92 2.02 1.1 3.5.43 17.76.37 22.29-.14 10.76-1.15 21.54-1 32.32-.06-1.4-.54-3.06-.47-4.51l-1.2 1c1.46-14.24 1.44-29.06 1.2-43.36-.39-.14-.86 1.22-.93 1.47-1.19 4.63-.24 20.96-.55 27.07a488 488 0 0 1-1.92 26.25c-.23 2.08.02 3.88-1.2 6.35-2.76 5.6-6.67 4.72-11.14 1.56-1.99-2.75.7-3.02 2.67-1.56l-1.2-8.38c.4-16.53.5-33.18 2.48-49.63.3-2.5 2.08-6.56 1-8.75-.14-.3-.05-.8-.08-.83-.66-.47-4.49.88-4.24-.37.38-1.93 3.87-1.5 5.16-1.84.54-.14.24-.64.27-.64"/><path fill="#f8cb83" d="M.7 330.14c-.03 0 .27.5-.27.64-1.28.34-4.78-.08-5.16 1.84-.24 1.25 3.58-.1 4.24.37.03.03-.06.52.09.83-4.6 19.68-5.19 40.38-3.95 60.5.61.7.45-1.84.46-2.12l1.2 8.38c-1.96-1.46-4.66-1.18-2.67 1.56 4.56 6.3 10.15 2.32 13.44-2.76-2.3 6.73-9.81 8.88-14.27 2.67-2.24-3.12-1.91-13.15-1.84-17.13.3-17.22 1.96-34.54 2.75-51.74.2-2.98 3.83-2.35 5.98-3.04"/><path fill="#f8cb83" d="M10.84 386.3c.16 3.85-.68 9.88-2.76 13.08-3.29 5.07-8.88 9.07-13.44 2.76 4.48 3.16 8.38 4.04 11.14-1.56 1.22-2.47.98-4.27 1.2-6.35 1.76-3.44 1.82-7.65 2.2-11.42l1.2-1.01c-.07 1.45.4 3.1.46 4.5"/><path fill="#ffe1b2" d="M-1.23 305.19c.38-.4 9.5-.08 10.86-.74.3.22.1 3.36 0 3.5-.84 1.15-9.71 1.44-11.23.37-.15-.2.21-2.97.37-3.13"/><path fill="#f8cb83" d="M-.4 333.82c1.07 2.2-.71 6.26-1 8.75-1.99 16.45-2.1 33.1-2.49 49.63 0 .28.15 2.82-.46 2.11-1.24-20.11-.64-40.8 3.95-60.5M9.18 382.81c-.38 3.77-.44 7.98-2.2 11.42.89-8.43 1.5-17.76 1.93-26.24.3-6.12-.65-22.45.54-27.07.07-.26.55-1.62.93-1.48.24 14.3.26 29.13-1.2 43.37"/><path fill="#ffe1b2" d="m-.86 318.44 8.84-.18 1.84 10.5-13.63 1.65z"/><path fill="#ffe1b2" d="M1.17 321.57c.36-.38 1.43-.02 1.1.74-.49 1.1-1.58-.25-1.1-.74M4.48 325.62c.25-.55 1.73-.32 1.29.56-.35.7-1.57.05-1.29-.56M3 324.15c.1-.83 1.8-.17 1.3.55-.18.25-1.37.13-1.3-.55M.61 325.07c.35-.55 1.26.03.92.55-.35.56-1.25-.02-.92-.55M6.87 325.07c.15-.82 1.4-.16 1.1.37-.24.44-1.18.11-1.1-.37M6.69 320.46c.53-.8 1.03.48.74.74-.3.27-1.04-.29-.74-.74M4.94 318.17l-.83-.65c.89.3 2.35-.6 2.95-1.29-3.48.12-6.62 2.37-8.01-1.75-.24-.7-.69-4.92-.28-5.25l10.31-.18c-.16 1.05-1.4 8.12-1.65 8.47-.28.38-1.95.58-2.49.64"/><path fill="#ffe1b2" d="M4.94 318.17c-2.63.33-6.42-.26-5.9-3.69 1.4 4.12 4.54 1.87 8.02 1.75-.6.69-2.06 1.58-2.95 1.3zM.98 313.65c.45-.44 1.14.5 1.1.74-.09.66-1.6-.24-1.1-.74M4.48 313.47c.35-.55 1.26.02.92.55-.35.56-1.26-.02-.92-.55M5.95 311.26c.26-1.15 1.55-.09.74.37-.04.02-.78-.18-.74-.37M2.27 312c.24-.13.84.52.37.73-.4.17-.46-.7-.37-.73"/><path fill="#bec9d9" d="M-20.3 235.12c.61.43-.13.91-.46 1.2-23.41 19.75-14.15 56.56 14.28 66.38-30.76-7.76-38.27-48.17-13.82-67.58"/><path fill="#e0e5ec" d="M-6.48 302.7c-28.43-9.82-37.7-46.63-14.28-66.39.33-.28 1.07-.76.46-1.2 25.84-20.52 65.4.21 62.34 33.8-2.08 22.75-26.38 41.44-48.52 33.8"/><path fill="#d4deec" d="M-20.95 240.92c10.48-10.64 29.65-12.58 42.36-4.97 31.16 18.68 15.44 67.48-21.54 63.9-29.24-2.83-40.55-38.92-20.82-58.93"/><path fill="#f9f9f9" d="M-22.42 244.23c29.09-34.26 78.27 8.67 53.6 40.71-29.93 38.85-81.67-7.65-53.6-40.7"/><path fill="#e2e8ec" d="M7.23 234.48c9.25 2.46 19.77 9.3 23.94 18.23 2.8 6 3.28 18.4.19 24.3-2.52 4.83-5.5 8.1-11.05 5.53 5.97-4.55 8.23-12.14 8.65-19.33.66-11.3-6.34-18.4-15.29-24.31-2.1-1.4-5.2-1.44-6.44-4.43"/><path fill="#fff" d="M-23.16 250.13c.47-.52 3.23-2.77 3.69-2.03-7.09 15.8-4.32 38.97 15.29 43.65-.98 2.9-3.7 2.36-5.9 1.47-13.36-5.4-23.9-31.12-13.08-43.1"/></svg>