<svg xmlns="http://www.w3.org/2000/svg" width="1512" height="229" fill="none" viewBox="0 0 1512 229"><path fill="#e1ebdd" d="M0 0h1512v219H0z"/><path fill="#e1ebdd" d="m16.49 210 16.5 9.3-16.5 9.29-16.5-9.3zM274.55 210l16.5 9.3-16.5 9.29-16.49-9.3zM81.62 210l16.5 9.3-16.5 9.29-16.49-9.3zM339.69 210l16.49 9.3-16.5 9.29-16.49-9.3zM145.93 210l16.5 9.3-16.5 9.29-16.49-9.3zM404 210l16.49 9.3-16.5 9.29-16.49-9.3zM210.24 210l16.5 9.3-16.5 9.29-16.49-9.3zM468.3 210l16.5 9.3-16.5 9.29-16.49-9.3z"/><path fill="#e1ebdd" d="m48.64 210 16.5 9.3-16.5 9.29-16.49-9.3zM306.7 210l16.5 9.3-16.5 9.29-16.48-9.3zM113.78 210l16.49 9.3-16.5 9.29-16.48-9.3zM371.84 210l16.5 9.3-16.5 9.29-16.5-9.3zM178.09 210l16.49 9.3-16.5 9.29-16.48-9.3zM436.15 210l16.5 9.3-16.5 9.29-16.5-9.3zM242.4 210l16.49 9.3-16.5 9.29-16.48-9.3zM500.46 210l16.5 9.3-16.5 9.29-16.5-9.3z"/><path fill="#e1ebdd" d="m532.44 210 16.5 9.3-16.5 9.29-16.49-9.3zM790.5 210l16.5 9.3-16.5 9.29-16.49-9.3zM597.58 210l16.49 9.3-16.5 9.29-16.49-9.3zM855.64 210l16.5 9.3-16.5 9.29-16.5-9.3zM661.89 210l16.49 9.3-16.5 9.29-16.49-9.3zM919.95 210l16.49 9.3-16.5 9.29-16.48-9.3zM726.2 210l16.49 9.3-16.5 9.29-16.49-9.3zM984.26 210l16.49 9.3-16.5 9.29-16.48-9.3z"/><path fill="#e1ebdd" d="m564.6 210 16.49 9.3-16.5 9.29-16.48-9.3zM822.66 210l16.5 9.3-16.5 9.29-16.5-9.3zM629.73 210l16.5 9.3-16.5 9.29-16.5-9.3zM887.8 210l16.49 9.3-16.5 9.29-16.49-9.3zM694.04 210l16.5 9.3-16.5 9.29-16.5-9.3zM952.1 210l16.5 9.3-16.5 9.29-16.49-9.3zM758.35 210l16.5 9.3-16.5 9.29-16.5-9.3zM1016.41 210l16.5 9.3-16.5 9.29-16.5-9.3z"/><path fill="#e1ebdd" d="m1047.22 210 15.31 9.3-15.31 9.28-15.31-9.29zM1286.88 210l15.31 9.3-15.31 9.28-15.31-9.29zM1107.71 210l15.31 9.3-15.31 9.28-15.31-9.29zM1347.38 210l15.31 9.3-15.31 9.28-15.31-9.29zM1167.44 210l15.31 9.3-15.31 9.28-15.31-9.29zM1407.1 210l15.31 9.3-15.31 9.28-15.31-9.29zM1227.16 210l15.31 9.3-15.31 9.28-15.31-9.29zM1466.82 210l15.31 9.3-15.31 9.28-15.31-9.29z"/><path fill="#e1ebdd" d="m1077.08 210 15.31 9.3-15.31 9.28-15.31-9.29zM1316.75 210l15.31 9.3-15.31 9.28-15.31-9.29zM1137.57 210l15.31 9.3-15.31 9.28-15.31-9.29zM1377.24 210l15.31 9.3-15.31 9.28-15.31-9.29zM1197.3 210l15.31 9.3-15.31 9.28-15.31-9.29zM1436.96 210l15.31 9.3-15.31 9.28-15.31-9.29zM1257.02 210l15.31 9.3-15.31 9.28-15.31-9.29zM1496.69 210l15.31 9.3-15.31 9.28-15.31-9.29z"/></svg>