<svg width="1512" height="115" viewBox="0 0 1512 115" fill="none" xmlns="http://www.w3.org/2000/svg">
<rect width="1512" height="105" fill="#E1EBDD"/>
<rect width="18.9276" height="18.9276" transform="matrix(0.871194 0.490939 -0.871194 0.490939 16.4902 96)" fill="#E1EBDD"/>
<rect width="18.9276" height="18.9276" transform="matrix(0.871194 0.490939 -0.871194 0.490939 274.552 96)" fill="#E1EBDD"/>
<rect width="18.9276" height="18.9276" transform="matrix(0.871194 0.490939 -0.871194 0.490939 81.6233 96)" fill="#E1EBDD"/>
<rect width="18.9276" height="18.9276" transform="matrix(0.871194 0.490939 -0.871194 0.490939 339.686 96)" fill="#E1EBDD"/>
<rect width="18.9276" height="18.9276" transform="matrix(0.871194 0.490939 -0.871194 0.490939 145.933 96)" fill="#E1EBDD"/>
<rect width="18.9276" height="18.9276" transform="matrix(0.871194 0.490939 -0.871194 0.490939 403.995 96)" fill="#E1EBDD"/>
<rect width="18.9276" height="18.9276" transform="matrix(0.871194 0.490939 -0.871194 0.490939 210.242 96)" fill="#E1EBDD"/>
<rect width="18.9276" height="18.9276" transform="matrix(0.871194 0.490939 -0.871194 0.490939 468.304 96)" fill="#E1EBDD"/>
<rect width="18.9276" height="18.9276" transform="matrix(0.871194 0.490939 -0.871194 0.490939 48.6448 96)" fill="#E1EBDD"/>
<rect width="18.9276" height="18.9276" transform="matrix(0.871194 0.490939 -0.871194 0.490939 306.707 96)" fill="#E1EBDD"/>
<rect width="18.9276" height="18.9276" transform="matrix(0.871194 0.490939 -0.871194 0.490939 113.778 96)" fill="#E1EBDD"/>
<rect width="18.9276" height="18.9276" transform="matrix(0.871194 0.490939 -0.871194 0.490939 371.841 96)" fill="#E1EBDD"/>
<rect width="18.9276" height="18.9276" transform="matrix(0.871194 0.490939 -0.871194 0.490939 178.087 96)" fill="#E1EBDD"/>
<rect width="18.9276" height="18.9276" transform="matrix(0.871194 0.490939 -0.871194 0.490939 436.15 96)" fill="#E1EBDD"/>
<rect width="18.9276" height="18.9276" transform="matrix(0.871194 0.490939 -0.871194 0.490939 242.398 96)" fill="#E1EBDD"/>
<rect width="18.9276" height="18.9276" transform="matrix(0.871194 0.490939 -0.871194 0.490939 500.459 96)" fill="#E1EBDD"/>
<rect width="18.9276" height="18.9276" transform="matrix(0.871194 0.490939 -0.871194 0.490939 532.443 96)" fill="#E1EBDD"/>
<rect width="18.9276" height="18.9276" transform="matrix(0.871194 0.490939 -0.871194 0.490939 790.505 96)" fill="#E1EBDD"/>
<rect width="18.9276" height="18.9276" transform="matrix(0.871194 0.490939 -0.871194 0.490939 597.576 96)" fill="#E1EBDD"/>
<rect width="18.9276" height="18.9276" transform="matrix(0.871194 0.490939 -0.871194 0.490939 855.639 96)" fill="#E1EBDD"/>
<rect width="18.9276" height="18.9276" transform="matrix(0.871194 0.490939 -0.871194 0.490939 661.886 96)" fill="#E1EBDD"/>
<rect width="18.9276" height="18.9276" transform="matrix(0.871194 0.490939 -0.871194 0.490939 919.948 96)" fill="#E1EBDD"/>
<rect width="18.9276" height="18.9276" transform="matrix(0.871194 0.490939 -0.871194 0.490939 726.196 96)" fill="#E1EBDD"/>
<rect width="18.9276" height="18.9276" transform="matrix(0.871194 0.490939 -0.871194 0.490939 984.258 96)" fill="#E1EBDD"/>
<rect width="18.9276" height="18.9276" transform="matrix(0.871194 0.490939 -0.871194 0.490939 564.597 96)" fill="#E1EBDD"/>
<rect width="18.9276" height="18.9276" transform="matrix(0.871194 0.490939 -0.871194 0.490939 822.66 96)" fill="#E1EBDD"/>
<rect width="18.9276" height="18.9276" transform="matrix(0.871194 0.490939 -0.871194 0.490939 629.73 96)" fill="#E1EBDD"/>
<rect width="18.9276" height="18.9276" transform="matrix(0.871194 0.490939 -0.871194 0.490939 887.794 96)" fill="#E1EBDD"/>
<rect width="18.9276" height="18.9276" transform="matrix(0.871194 0.490939 -0.871194 0.490939 694.041 96)" fill="#E1EBDD"/>
<rect width="18.9276" height="18.9276" transform="matrix(0.871194 0.490939 -0.871194 0.490939 952.103 96)" fill="#E1EBDD"/>
<rect width="18.9276" height="18.9276" transform="matrix(0.871194 0.490939 -0.871194 0.490939 758.35 96)" fill="#E1EBDD"/>
<rect width="18.9276" height="18.9276" transform="matrix(0.871194 0.490939 -0.871194 0.490939 1016.41 96)" fill="#E1EBDD"/>
<rect width="17.9127" height="17.9127" transform="matrix(0.854924 0.518754 -0.854924 0.518754 1047.22 96)" fill="#E1EBDD"/>
<rect width="17.9127" height="17.9127" transform="matrix(0.854924 0.518754 -0.854924 0.518754 1286.88 96)" fill="#E1EBDD"/>
<rect width="17.9127" height="17.9127" transform="matrix(0.854924 0.518754 -0.854924 0.518754 1107.71 96)" fill="#E1EBDD"/>
<rect width="17.9127" height="17.9127" transform="matrix(0.854924 0.518754 -0.854924 0.518754 1347.38 96)" fill="#E1EBDD"/>
<rect width="17.9127" height="17.9127" transform="matrix(0.854924 0.518754 -0.854924 0.518754 1167.44 96)" fill="#E1EBDD"/>
<rect width="17.9127" height="17.9127" transform="matrix(0.854924 0.518754 -0.854924 0.518754 1407.1 96)" fill="#E1EBDD"/>
<rect width="17.9127" height="17.9127" transform="matrix(0.854924 0.518754 -0.854924 0.518754 1227.16 96)" fill="#E1EBDD"/>
<rect width="17.9127" height="17.9127" transform="matrix(0.854924 0.518754 -0.854924 0.518754 1466.82 96)" fill="#E1EBDD"/>
<rect width="17.9127" height="17.9127" transform="matrix(0.854924 0.518754 -0.854924 0.518754 1077.08 96)" fill="#E1EBDD"/>
<rect width="17.9127" height="17.9127" transform="matrix(0.854924 0.518754 -0.854924 0.518754 1316.75 96)" fill="#E1EBDD"/>
<rect width="17.9127" height="17.9127" transform="matrix(0.854924 0.518754 -0.854924 0.518754 1137.57 96)" fill="#E1EBDD"/>
<rect width="17.9127" height="17.9127" transform="matrix(0.854924 0.518754 -0.854924 0.518754 1377.24 96)" fill="#E1EBDD"/>
<rect width="17.9127" height="17.9127" transform="matrix(0.854924 0.518754 -0.854924 0.518754 1197.3 96)" fill="#E1EBDD"/>
<rect width="17.9127" height="17.9127" transform="matrix(0.854924 0.518754 -0.854924 0.518754 1436.96 96)" fill="#E1EBDD"/>
<rect width="17.9127" height="17.9127" transform="matrix(0.854924 0.518754 -0.854924 0.518754 1257.02 96)" fill="#E1EBDD"/>
<rect width="17.9127" height="17.9127" transform="matrix(0.854924 0.518754 -0.854924 0.518754 1496.69 96)" fill="#E1EBDD"/>
</svg>
