<svg width="1512" height="229" viewBox="0 0 1512 229" fill="none" xmlns="http://www.w3.org/2000/svg">
<rect width="1512" height="219" fill="#E1EBDD"/>
<rect width="18.9276" height="18.9276" transform="matrix(0.871194 0.490939 -0.871194 0.490939 16.4902 210)" fill="#E1EBDD"/>
<rect width="18.9276" height="18.9276" transform="matrix(0.871194 0.490939 -0.871194 0.490939 274.552 210)" fill="#E1EBDD"/>
<rect width="18.9276" height="18.9276" transform="matrix(0.871194 0.490939 -0.871194 0.490939 81.6233 210)" fill="#E1EBDD"/>
<rect width="18.9276" height="18.9276" transform="matrix(0.871194 0.490939 -0.871194 0.490939 339.686 210)" fill="#E1EBDD"/>
<rect width="18.9276" height="18.9276" transform="matrix(0.871194 0.490939 -0.871194 0.490939 145.933 210)" fill="#E1EBDD"/>
<rect width="18.9276" height="18.9276" transform="matrix(0.871194 0.490939 -0.871194 0.490939 403.995 210)" fill="#E1EBDD"/>
<rect width="18.9276" height="18.9276" transform="matrix(0.871194 0.490939 -0.871194 0.490939 210.242 210)" fill="#E1EBDD"/>
<rect width="18.9276" height="18.9276" transform="matrix(0.871194 0.490939 -0.871194 0.490939 468.304 210)" fill="#E1EBDD"/>
<rect width="18.9276" height="18.9276" transform="matrix(0.871194 0.490939 -0.871194 0.490939 48.6448 210)" fill="#E1EBDD"/>
<rect width="18.9276" height="18.9276" transform="matrix(0.871194 0.490939 -0.871194 0.490939 306.707 210)" fill="#E1EBDD"/>
<rect width="18.9276" height="18.9276" transform="matrix(0.871194 0.490939 -0.871194 0.490939 113.778 210)" fill="#E1EBDD"/>
<rect width="18.9276" height="18.9276" transform="matrix(0.871194 0.490939 -0.871194 0.490939 371.841 210)" fill="#E1EBDD"/>
<rect width="18.9276" height="18.9276" transform="matrix(0.871194 0.490939 -0.871194 0.490939 178.087 210)" fill="#E1EBDD"/>
<rect width="18.9276" height="18.9276" transform="matrix(0.871194 0.490939 -0.871194 0.490939 436.15 210)" fill="#E1EBDD"/>
<rect width="18.9276" height="18.9276" transform="matrix(0.871194 0.490939 -0.871194 0.490939 242.398 210)" fill="#E1EBDD"/>
<rect width="18.9276" height="18.9276" transform="matrix(0.871194 0.490939 -0.871194 0.490939 500.459 210)" fill="#E1EBDD"/>
<rect width="18.9276" height="18.9276" transform="matrix(0.871194 0.490939 -0.871194 0.490939 532.443 210)" fill="#E1EBDD"/>
<rect width="18.9276" height="18.9276" transform="matrix(0.871194 0.490939 -0.871194 0.490939 790.505 210)" fill="#E1EBDD"/>
<rect width="18.9276" height="18.9276" transform="matrix(0.871194 0.490939 -0.871194 0.490939 597.576 210)" fill="#E1EBDD"/>
<rect width="18.9276" height="18.9276" transform="matrix(0.871194 0.490939 -0.871194 0.490939 855.639 210)" fill="#E1EBDD"/>
<rect width="18.9276" height="18.9276" transform="matrix(0.871194 0.490939 -0.871194 0.490939 661.886 210)" fill="#E1EBDD"/>
<rect width="18.9276" height="18.9276" transform="matrix(0.871194 0.490939 -0.871194 0.490939 919.948 210)" fill="#E1EBDD"/>
<rect width="18.9276" height="18.9276" transform="matrix(0.871194 0.490939 -0.871194 0.490939 726.196 210)" fill="#E1EBDD"/>
<rect width="18.9276" height="18.9276" transform="matrix(0.871194 0.490939 -0.871194 0.490939 984.258 210)" fill="#E1EBDD"/>
<rect width="18.9276" height="18.9276" transform="matrix(0.871194 0.490939 -0.871194 0.490939 564.597 210)" fill="#E1EBDD"/>
<rect width="18.9276" height="18.9276" transform="matrix(0.871194 0.490939 -0.871194 0.490939 822.66 210)" fill="#E1EBDD"/>
<rect width="18.9276" height="18.9276" transform="matrix(0.871194 0.490939 -0.871194 0.490939 629.73 210)" fill="#E1EBDD"/>
<rect width="18.9276" height="18.9276" transform="matrix(0.871194 0.490939 -0.871194 0.490939 887.794 210)" fill="#E1EBDD"/>
<rect width="18.9276" height="18.9276" transform="matrix(0.871194 0.490939 -0.871194 0.490939 694.041 210)" fill="#E1EBDD"/>
<rect width="18.9276" height="18.9276" transform="matrix(0.871194 0.490939 -0.871194 0.490939 952.103 210)" fill="#E1EBDD"/>
<rect width="18.9276" height="18.9276" transform="matrix(0.871194 0.490939 -0.871194 0.490939 758.35 210)" fill="#E1EBDD"/>
<rect width="18.9276" height="18.9276" transform="matrix(0.871194 0.490939 -0.871194 0.490939 1016.41 210)" fill="#E1EBDD"/>
<rect width="17.9127" height="17.9127" transform="matrix(0.854924 0.518754 -0.854924 0.518754 1047.22 210)" fill="#E1EBDD"/>
<rect width="17.9127" height="17.9127" transform="matrix(0.854924 0.518754 -0.854924 0.518754 1286.88 210)" fill="#E1EBDD"/>
<rect width="17.9127" height="17.9127" transform="matrix(0.854924 0.518754 -0.854924 0.518754 1107.71 210)" fill="#E1EBDD"/>
<rect width="17.9127" height="17.9127" transform="matrix(0.854924 0.518754 -0.854924 0.518754 1347.38 210)" fill="#E1EBDD"/>
<rect width="17.9127" height="17.9127" transform="matrix(0.854924 0.518754 -0.854924 0.518754 1167.44 210)" fill="#E1EBDD"/>
<rect width="17.9127" height="17.9127" transform="matrix(0.854924 0.518754 -0.854924 0.518754 1407.1 210)" fill="#E1EBDD"/>
<rect width="17.9127" height="17.9127" transform="matrix(0.854924 0.518754 -0.854924 0.518754 1227.16 210)" fill="#E1EBDD"/>
<rect width="17.9127" height="17.9127" transform="matrix(0.854924 0.518754 -0.854924 0.518754 1466.82 210)" fill="#E1EBDD"/>
<rect width="17.9127" height="17.9127" transform="matrix(0.854924 0.518754 -0.854924 0.518754 1077.08 210)" fill="#E1EBDD"/>
<rect width="17.9127" height="17.9127" transform="matrix(0.854924 0.518754 -0.854924 0.518754 1316.75 210)" fill="#E1EBDD"/>
<rect width="17.9127" height="17.9127" transform="matrix(0.854924 0.518754 -0.854924 0.518754 1137.57 210)" fill="#E1EBDD"/>
<rect width="17.9127" height="17.9127" transform="matrix(0.854924 0.518754 -0.854924 0.518754 1377.24 210)" fill="#E1EBDD"/>
<rect width="17.9127" height="17.9127" transform="matrix(0.854924 0.518754 -0.854924 0.518754 1197.3 210)" fill="#E1EBDD"/>
<rect width="17.9127" height="17.9127" transform="matrix(0.854924 0.518754 -0.854924 0.518754 1436.96 210)" fill="#E1EBDD"/>
<rect width="17.9127" height="17.9127" transform="matrix(0.854924 0.518754 -0.854924 0.518754 1257.02 210)" fill="#E1EBDD"/>
<rect width="17.9127" height="17.9127" transform="matrix(0.854924 0.518754 -0.854924 0.518754 1496.69 210)" fill="#E1EBDD"/>
</svg>
