<svg width="1512" height="19" viewBox="0 0 1512 19" fill="none" xmlns="http://www.w3.org/2000/svg">
<rect width="18.9846" height="18.9846" transform="matrix(0.872023 0.489464 -0.872023 0.489464 10.5557 0)" fill="#E1EBDD"/>
<rect width="18.9846" height="18.9846" transform="matrix(0.872023 0.489464 -0.872023 0.489464 269.642 0)" fill="#E1EBDD"/>
<rect width="18.9846" height="18.9846" transform="matrix(0.872023 0.489464 -0.872023 0.489464 75.9473 0)" fill="#E1EBDD"/>
<rect width="18.9846" height="18.9846" transform="matrix(0.872023 0.489464 -0.872023 0.489464 335.033 0)" fill="#E1EBDD"/>
<rect width="18.9846" height="18.9846" transform="matrix(0.872023 0.489464 -0.872023 0.489464 140.512 0)" fill="#E1EBDD"/>
<rect width="18.9846" height="18.9846" transform="matrix(0.872023 0.489464 -0.872023 0.489464 399.598 0)" fill="#E1EBDD"/>
<rect width="18.9846" height="18.9846" transform="matrix(0.872023 0.489464 -0.872023 0.489464 205.076 0)" fill="#E1EBDD"/>
<rect width="18.9846" height="18.9846" transform="matrix(0.872023 0.489464 -0.872023 0.489464 464.162 0)" fill="#E1EBDD"/>
<rect width="18.9846" height="18.9846" transform="matrix(0.872023 0.489464 -0.872023 0.489464 42.8379 0)" fill="#E1EBDD"/>
<rect width="18.9846" height="18.9846" transform="matrix(0.872023 0.489464 -0.872023 0.489464 301.924 0)" fill="#E1EBDD"/>
<rect width="18.9846" height="18.9846" transform="matrix(0.872023 0.489464 -0.872023 0.489464 108.229 0)" fill="#E1EBDD"/>
<rect width="18.9846" height="18.9846" transform="matrix(0.872023 0.489464 -0.872023 0.489464 367.316 0)" fill="#E1EBDD"/>
<rect width="18.9846" height="18.9846" transform="matrix(0.872023 0.489464 -0.872023 0.489464 172.794 0)" fill="#E1EBDD"/>
<rect width="18.9846" height="18.9846" transform="matrix(0.872023 0.489464 -0.872023 0.489464 431.881 0)" fill="#E1EBDD"/>
<rect width="18.9846" height="18.9846" transform="matrix(0.872023 0.489464 -0.872023 0.489464 237.359 0)" fill="#E1EBDD"/>
<rect width="18.9846" height="18.9846" transform="matrix(0.872023 0.489464 -0.872023 0.489464 496.445 0)" fill="#E1EBDD"/>
<rect width="18.9846" height="18.9846" transform="matrix(0.872023 0.489464 -0.872023 0.489464 528.555 0)" fill="#E1EBDD"/>
<rect width="18.9846" height="18.9846" transform="matrix(0.872023 0.489464 -0.872023 0.489464 787.642 0)" fill="#E1EBDD"/>
<rect width="18.9846" height="18.9846" transform="matrix(0.872023 0.489464 -0.872023 0.489464 593.947 0)" fill="#E1EBDD"/>
<rect width="18.9846" height="18.9846" transform="matrix(0.872023 0.489464 -0.872023 0.489464 853.034 0)" fill="#E1EBDD"/>
<rect width="18.9846" height="18.9846" transform="matrix(0.872023 0.489464 -0.872023 0.489464 658.513 0)" fill="#E1EBDD"/>
<rect width="18.9846" height="18.9846" transform="matrix(0.872023 0.489464 -0.872023 0.489464 917.599 0)" fill="#E1EBDD"/>
<rect width="18.9846" height="18.9846" transform="matrix(0.872023 0.489464 -0.872023 0.489464 723.077 0)" fill="#E1EBDD"/>
<rect width="18.9846" height="18.9846" transform="matrix(0.872023 0.489464 -0.872023 0.489464 982.163 0)" fill="#E1EBDD"/>
<rect width="18.9846" height="18.9846" transform="matrix(0.872023 0.489464 -0.872023 0.489464 560.838 0)" fill="#E1EBDD"/>
<rect width="18.9846" height="18.9846" transform="matrix(0.872023 0.489464 -0.872023 0.489464 819.924 0)" fill="#E1EBDD"/>
<rect width="18.9846" height="18.9846" transform="matrix(0.872023 0.489464 -0.872023 0.489464 626.229 0)" fill="#E1EBDD"/>
<rect width="18.9846" height="18.9846" transform="matrix(0.872023 0.489464 -0.872023 0.489464 885.316 0)" fill="#E1EBDD"/>
<rect width="18.9846" height="18.9846" transform="matrix(0.872023 0.489464 -0.872023 0.489464 690.795 0)" fill="#E1EBDD"/>
<rect width="18.9846" height="18.9846" transform="matrix(0.872023 0.489464 -0.872023 0.489464 949.881 0)" fill="#E1EBDD"/>
<rect width="18.9846" height="18.9846" transform="matrix(0.872023 0.489464 -0.872023 0.489464 755.359 0)" fill="#E1EBDD"/>
<rect width="18.9846" height="18.9846" transform="matrix(0.872023 0.489464 -0.872023 0.489464 1014.45 0)" fill="#E1EBDD"/>
<rect width="18.9846" height="18.9846" transform="matrix(0.872023 0.489464 -0.872023 0.489464 1046.56 0)" fill="#E1EBDD"/>
<rect width="18.9846" height="18.9846" transform="matrix(0.872023 0.489464 -0.872023 0.489464 1305.64 0)" fill="#E1EBDD"/>
<rect width="18.9846" height="18.9846" transform="matrix(0.872023 0.489464 -0.872023 0.489464 1111.95 0)" fill="#E1EBDD"/>
<rect width="18.9846" height="18.9846" transform="matrix(0.872023 0.489464 -0.872023 0.489464 1371.04 0)" fill="#E1EBDD"/>
<rect width="18.9846" height="18.9846" transform="matrix(0.872023 0.489464 -0.872023 0.489464 1176.51 0)" fill="#E1EBDD"/>
<rect width="18.9846" height="18.9846" transform="matrix(0.872023 0.489464 -0.872023 0.489464 1435.6 0)" fill="#E1EBDD"/>
<rect width="18.9846" height="18.9846" transform="matrix(0.872023 0.489464 -0.872023 0.489464 1241.08 0)" fill="#E1EBDD"/>
<rect width="18.9846" height="18.9846" transform="matrix(0.872023 0.489464 -0.872023 0.489464 1500.16 0)" fill="#E1EBDD"/>
<rect width="18.9846" height="18.9846" transform="matrix(0.872023 0.489464 -0.872023 0.489464 1078.84 0)" fill="#E1EBDD"/>
<rect width="18.9846" height="18.9846" transform="matrix(0.872023 0.489464 -0.872023 0.489464 1337.93 0)" fill="#E1EBDD"/>
<rect width="18.9846" height="18.9846" transform="matrix(0.872023 0.489464 -0.872023 0.489464 1144.23 0)" fill="#E1EBDD"/>
<rect width="18.9846" height="18.9846" transform="matrix(0.872023 0.489464 -0.872023 0.489464 1403.32 0)" fill="#E1EBDD"/>
<rect width="18.9846" height="18.9846" transform="matrix(0.872023 0.489464 -0.872023 0.489464 1208.8 0)" fill="#E1EBDD"/>
<rect width="18.9846" height="18.9846" transform="matrix(0.872023 0.489464 -0.872023 0.489464 1467.88 0)" fill="#E1EBDD"/>
<rect width="18.9846" height="18.9846" transform="matrix(0.872023 0.489464 -0.872023 0.489464 1273.36 0)" fill="#E1EBDD"/>
</svg>
