<svg width="153" height="1681" viewBox="0 0 153 1681" fill="none" xmlns="http://www.w3.org/2000/svg">
<path d="M94.7318 987.741C95.1246 991.527 96.7687 995.807 99.44 998.595C102.111 1001.38 106.772 1004.08 110.596 1004.81C117.837 1006.18 109.228 1000.92 108.168 999.981C101.585 994.136 97.3236 987.79 100.866 978.719C100.423 978.471 96.021 985.096 95.8185 983.703C100.324 971.579 104.129 959.35 107.292 946.803C105.782 948.903 104.914 952.2 104.139 954.802C101.221 964.59 96.7654 976.7 95.3723 986.567C95.2936 987.133 94.9189 987.289 94.7329 987.737L94.7318 987.741Z" fill="#9EBB8E"/>
<path d="M127.619 902.165C122.626 916.769 117.911 931.427 113.065 946.083C113.355 946.194 113.306 946.658 113.595 946.761C114.959 947.254 117.186 947.16 118.656 947.434C127.316 927.19 131.611 902.825 140.526 882.955C147.667 867.047 169.284 875.675 168.564 887.971C168.187 894.398 162.055 909.153 159.752 916.08C157.569 922.647 155.182 929.135 152.999 935.701C147.007 953.724 141.446 974.571 134.923 991.766C136.411 992.926 137.445 994.505 139.461 994.775C153.553 963.565 160.724 925.502 174.016 893.547C180.31 872.968 153.313 858.006 139.148 874.204C133.836 880.28 130.325 894.236 127.616 902.164L127.619 902.165Z" fill="#D4DEEC"/>
<path d="M163.691 870.404C155.825 866.813 146.868 867.149 141.038 873.825C143.252 873.476 145.058 871.763 147.151 870.951C157.905 866.775 167.126 873.198 172.932 882.008C172.856 877.559 167.691 872.228 163.691 870.404Z" fill="#D4DEEC"/>
<path d="M126.782 916.461L123.778 925.138L121.458 934.042C122.849 931.285 123.295 928.181 124.232 925.288C125.127 922.529 127.164 919.498 126.778 916.46L126.782 916.461Z" fill="#D4DEEC"/>
<path d="M145.267 972.33L143.988 975.046L143.016 978.365C144.366 976.553 144.375 974.308 145.268 972.327L145.267 972.33Z" fill="#D4DEEC"/>
<path d="M94.7319 987.74C94.9178 987.292 95.2925 987.136 95.3712 986.57C96.762 976.699 101.22 964.593 104.138 954.804C104.913 952.203 105.784 948.907 107.291 946.806C104.128 959.353 100.323 971.582 95.8174 983.706C96.0199 985.099 100.422 978.474 100.865 978.722C97.3225 987.793 101.584 994.139 108.167 999.984C109.227 1000.93 117.836 1006.19 110.595 1004.81C106.771 1004.08 102.138 1001.41 99.4389 998.598C102.781 1004.7 114.681 1009.47 121.255 1009.09C129.52 1008.62 136.233 1001.94 139.464 994.779C137.449 994.505 136.411 992.928 134.926 991.769C131.462 1000.9 121.417 1005.07 112.55 1001.19C96.8385 994.305 101.886 981.18 105.564 968.722C106.649 965.051 107.745 961.428 108.938 957.781C110.22 953.857 111.778 949.983 113.065 946.086C117.911 931.43 122.626 916.772 127.619 902.168C126.097 901.982 122.42 899.647 121.458 901.007L94.5302 983.785C94.1395 985.315 94.5857 986.369 94.7262 987.746L94.7319 987.74Z" fill="#9EBB8E"/>
<path d="M123.503 902.055C121.516 900.565 120.877 904.972 120.34 906.66C115.27 922.617 110.771 938.8 106.704 955.025C112.189 939.809 117.545 924.472 121.855 908.919C122.255 907.474 124.696 902.949 123.499 902.054L123.503 902.055Z" fill="#9EBB8E"/>
<path d="M135.344 993.158L128.036 1001.54C131.245 999.716 133.886 996.537 135.344 993.158Z" fill="#9EBB8E"/>
<path d="M118.656 947.435C117.181 947.163 114.958 947.258 113.595 946.762C111.912 950.369 110.68 954.168 109.392 957.929C108.293 961.143 106.449 965.619 105.791 968.795C102.297 985.637 125.388 995.522 135.923 981.919C140.745 975.692 149.549 945.104 152.774 935.623C155.002 929.079 157.085 922.476 159.3 915.928C159.145 915.719 158.533 914.448 158.427 914.383C156.944 913.457 153.266 912.246 152.687 914.616C145.447 932.75 141.327 953.857 133.782 971.665C130.257 979.982 123.238 986.201 115.214 977.949C106.677 969.167 118.497 957.01 118.656 947.435Z" fill="#9EBB8E"/>
<path d="M156.24 914.917C155.088 913.943 153.986 915.126 153.448 916.127C149.811 928.472 146.002 940.793 141.748 952.952C138.135 963.277 134.743 978.157 125.124 984.125C123.207 985.314 122.878 983.815 121.118 983.678C120.607 983.636 119.745 984.275 119.157 984.283C118.271 984.296 115.742 983.447 115.228 984.363C113.624 987.244 123.811 986.342 125.126 986.01C132.174 984.243 134.296 979.47 136.804 973.172C143.322 956.796 148.968 937.779 154.887 920.878C155.274 919.778 157.009 915.573 156.232 914.918L156.24 914.917Z" fill="#9EBB8E"/>
<path d="M115.448 947.626C114.514 947.047 114.089 947.981 113.713 948.684C111.86 952.146 107.249 966.752 106.362 970.867C105.615 974.332 108.308 979.353 111.07 981.347C111.624 981.43 111.407 980.264 111.368 980.064C111.05 978.396 108.863 975.641 108.333 973.277C107.108 967.856 110.51 960.839 112.448 955.547C112.833 954.499 115.901 948.049 115.453 947.623L115.448 947.626Z" fill="#9EBB8E"/>
<path d="M114.996 980.893C114.211 980.43 114.414 981.041 114.771 981.571C115.178 981.534 115.339 981.093 114.996 980.893Z" fill="#9EBB8E"/>
<path d="M135.064 502.773C136.486 503.446 139.146 495.404 141.052 494.673C135.042 475.571 128.752 456.553 121.731 437.803L115.539 447.403C120.933 461.527 125.11 476.149 130.216 490.361C130.767 491.892 134.465 502.488 135.062 502.771L135.064 502.773Z" fill="#F1A198"/>
<path d="M112.225 411.797C112.188 411.761 111.484 411.759 111.512 411.074C110.34 411.138 105.253 417.479 105.213 419.16L114.929 445.93L115.638 445.521C117.556 442.499 118.768 438.934 121.363 436.466C121.768 435.204 113.715 413.26 112.222 411.796L112.225 411.797Z" fill="#E0E5EC"/>
<path d="M132.057 498.177C128.917 490.233 126.069 481.815 123.228 473.521C120.289 464.933 117.344 456.33 114.587 447.677C103.405 450.78 91.4582 448.806 80.1176 450.759L101.271 506.074L131.679 505.392C136.509 505.064 133.12 500.862 132.059 498.178L132.057 498.177Z" fill="#F1A198"/>
<path d="M132.058 498.177L123.229 473.521C126.069 481.818 128.915 490.232 132.058 498.177Z" fill="#F1A198"/>
<path d="M102.991 501.874L102.775 498.845C99.1065 488.653 94.5863 478.62 90.7458 468.514C89.1022 464.189 89.0659 458.662 85.3946 455.012L102.992 501.871L102.991 501.874Z" fill="#F1A198"/>
<path d="M125.241 487.567C123.378 481.781 122.245 474.154 119.597 468.896C119.508 468.718 118.942 467.413 118.573 468.16L124.653 488.045L123.471 486.735C124.791 492.209 127.922 497.381 128.813 502.813C128.988 502.771 129.814 502.76 129.887 502.609C128.93 499.456 130.229 502.365 130.544 502.008C128.873 497.153 126.817 492.457 125.241 487.567Z" fill="#F1A198"/>
<path d="M114.668 458.058C114.197 457.958 114.58 459.03 114.602 459.313C114.898 463.07 117.8 470.972 119.163 474.792C119.734 476.389 120.525 478.543 121.584 479.863L114.668 458.058Z" fill="#F1A198"/>
<path d="M125.241 487.568C126.817 492.458 128.872 497.157 130.544 502.01C130.229 502.366 128.931 499.455 129.887 502.61C129.817 502.762 128.99 502.77 128.814 502.814C127.261 503.195 125.095 502.49 123.481 503.211C124.801 503.486 130.337 503.676 130.891 502.53L125.24 487.571L125.241 487.568Z" fill="#F1A198"/>
<path d="M114.603 459.31C114.581 459.027 114.198 457.955 114.669 458.055C113.805 457.119 112.545 452.83 111.969 452.342C110.269 450.899 103.245 452.037 100.905 452.424C103.157 453.079 109.826 451.397 111.451 452.697C112.02 453.154 113.329 458.519 114.603 459.31Z" fill="#F1A198"/>
<path d="M86.0635 452.969C90.8698 452.596 95.6949 452.405 100.45 451.523L93.1263 451.767L86.0648 452.966L86.0635 452.969Z" fill="#F1A198"/>
<path d="M103.551 503.154C105.145 504.501 111.545 503.198 113.717 503.537C113.686 502.916 113.384 503.015 112.936 502.937C110.749 502.553 106.653 503.754 104.174 503.181L103.479 502.144C102.885 502.219 103.465 503.081 103.551 503.154Z" fill="#F1A198"/>
<path d="M105.213 419.16C105.252 417.475 110.338 411.137 111.512 411.074C111.483 411.759 112.187 411.762 112.224 411.798C111.698 409.762 109.263 408.226 107.451 407.501C104.51 406.324 80.4067 408.308 77.5168 409.9C74.0159 411.828 68.2107 418.863 68.8244 423.099L80.0993 449.938C82.5704 449.515 85.1487 449.138 87.6467 449.011C94.0869 448.682 104.307 449.18 110.191 448.112C111.477 447.878 112.737 447.32 113.947 446.83L105.214 419.158L105.213 419.16Z" fill="white"/>
<path d="M74.5972 419.079C81.3541 417.998 97.9602 419.213 102.986 415.166C104.372 414.049 105.245 412.281 106.751 411.307C107.556 406.295 100.025 409.8 97.6905 410.092C93.4726 410.624 80.6739 410.649 77.7655 412.301C75.9734 413.318 71.9404 417.112 74.5972 419.079Z" fill="#E0E5EC"/>
<path d="M106.751 411.308C105.245 412.282 104.372 414.05 102.985 415.167C97.9601 419.214 81.3539 417.999 74.597 419.08C73.4741 419.26 72.3405 419.641 71.2384 419.94C71.2902 420.594 71.5401 420.438 72.0196 420.54C74.1134 420.988 96.2684 418.925 98.8889 418.193C101.927 417.346 106.211 414.657 106.748 411.307L106.751 411.308Z" fill="#D4DEEC"/>
<path d="M81.6797 445.985C82.2419 446.466 85.1386 447.078 85.3344 446.584C82.9544 444.242 82.3756 440.823 79.927 438.866C79.5739 439.951 81.1987 445.575 81.6774 445.984L81.6797 445.985Z" fill="#DCD9D8"/>
<path d="M185.5 664.246C185.5 688.271 172.024 709.732 148 709.732C123.976 709.732 100 688.271 100 664.246C100 636.732 125 613.731 150.5 626.734C171.5 637.442 185.5 640.222 185.5 664.246Z" fill="#79A363" fill-opacity="0.8"/>
<path d="M161 665.596C161 675.844 155.326 685 145.211 685C135.095 685 125 675.844 125 665.596C125 653.858 135.526 644.046 146.263 649.593C155.105 654.161 161 655.347 161 665.596Z" fill="#79A363" fill-opacity="0.8"/>
<path d="M61 1485.51C61 1448.48 77.5 1369.01 153.5 1330.01V1680.51C112.5 1658.51 61 1586.01 61 1485.51Z" fill="#F1A198"/>
<path d="M154.731 1355.34C153.048 1356.2 151.535 1357.29 150.262 1358.72C149.972 1359.04 150.226 1359.25 150.132 1359.41C149.961 1359.71 149.319 1359.82 149.263 1359.87C148.913 1360.2 149.445 1360.49 149.414 1360.55C149.059 1361.21 148.755 1360.59 148.218 1361.02C147.52 1361.58 146.787 1362.46 146.058 1363.25C145.803 1363.52 146.232 1363.71 145.64 1364.26C145.221 1364.65 143.64 1365.58 143.479 1366.54C143.623 1366.68 143.856 1366.76 144.037 1366.87C142.635 1367.14 142.374 1367.48 141.43 1368.83C141.281 1369.05 140.859 1369 140.651 1369.43C140.444 1369.86 140.831 1370.22 140.225 1370.91C140.01 1371.16 139.596 1371.06 139.259 1371.43C138.295 1372.48 136.94 1374.86 136.235 1375.79C134.84 1377.6 133.575 1378.2 132.537 1379.97C132.457 1380.11 132.992 1380.08 132.828 1380.31C132.662 1380.55 132.045 1380.47 131.992 1380.52C131.421 1381.06 131.066 1382.8 130.75 1383.1C129.976 1383.82 130.367 1382.85 129.457 1383.97C128.59 1385.04 128.117 1387.01 127.493 1388.22C126.771 1389.62 125.629 1389.5 125.905 1391.07C123.641 1394.55 121.511 1398.12 119.484 1401.75C119.678 1401.84 119.874 1401.93 120.069 1402.02C119.783 1402.24 119.496 1402.46 119.212 1402.67C119.377 1402.71 119.54 1402.74 119.702 1402.77C118.435 1403.83 117.512 1404.91 116.848 1406.59C116.835 1406.63 117.258 1406.74 117.255 1406.77C117.144 1407.17 116.646 1407.42 116.557 1407.78C116.337 1408.63 116.537 1410.35 115.794 1409.27C115.12 1411.18 113.775 1413.14 113.187 1414.98C112.933 1415.77 113.45 1416.28 113.326 1416.65C113.202 1417.03 112.752 1416.61 112.675 1416.73C112.215 1417.45 111.688 1418.73 112.23 1419.12C111.925 1419.17 111.613 1419.23 111.305 1419.29C112.004 1419.48 110.72 1421.76 110.483 1422.4C110.439 1422.52 110.725 1422.65 110.687 1422.74C110.256 1423.69 109.705 1423.74 109.218 1424.52C109.048 1424.79 109.745 1424.54 109.224 1425.21C109.179 1425.27 108.726 1425.05 108.378 1425.95C107.821 1427.39 106.603 1430.1 106.225 1431.92C106.193 1432.07 106.86 1431.82 106.511 1432.43C106.386 1432.65 106.06 1432.41 105.858 1432.98C105.069 1435.19 104.713 1437.69 103.647 1439.88C104.091 1439.92 104.812 1439.26 104.169 1440.4C104.066 1440.58 103.738 1440.32 103.697 1440.4C103.369 1441.08 103.449 1441.78 103.076 1442.51C102.966 1442.72 102.655 1442.69 102.502 1442.95C102.275 1443.34 102.641 1443.65 102.32 1444.09C101.818 1444.78 101.383 1444.79 101.899 1445.96C100.347 1451.33 98.8339 1456.71 98.1409 1462.26C97.6061 1463.83 97.0933 1465.24 96.7344 1466.89C96.6285 1467.38 97.1603 1467.56 96.8569 1468.32C96.7887 1468.49 96.0129 1469.66 97.0982 1470C96.953 1470.33 96.9193 1470.54 96.8194 1470.83C96.6873 1470.58 96.555 1470.33 96.4213 1470.09C96.4216 1471.36 95.8888 1472.39 95.5689 1473.48C95.3351 1474.29 95.8816 1473.76 95.775 1474.26C95.6714 1474.75 95.5378 1474.97 96.0417 1475.68C95.3283 1476.12 95.7557 1476.51 95.6878 1477.43C95.6801 1477.53 95.3716 1478.07 95.3836 1478.55C95.3927 1478.89 95.7965 1479.03 95.6898 1479.58C95.672 1479.67 95.0766 1480.81 95.0085 1481.18C94.8973 1481.75 95.3811 1482.68 95.3829 1482.79C95.3989 1484.45 94.8612 1485.07 95.7023 1486.21C95.1852 1486.42 94.872 1487.43 94.9268 1488.21C94.9872 1489.2 96.0965 1491.15 95.0066 1491.47C95.5559 1492.61 95.2371 1492.44 95.3283 1493.85C95.3667 1494.41 95.529 1495.35 95.7246 1496.28C95.9742 1497.48 96.2578 1498.71 96.3001 1499.26C96.3776 1500.25 95.7011 1499.86 95.6751 1500.26C95.6327 1500.92 96.0323 1500.51 96.0907 1500.95C96.2565 1502.18 96.3436 1503.27 96.3511 1504.47C96.6767 1504.48 97.0046 1504.5 97.3306 1504.51C97.2363 1504.59 97.142 1504.66 97.0479 1504.74C97.0954 1505 97.1395 1505.28 97.1913 1505.51C95.4571 1503.79 97.6329 1507.4 97.9136 1508.53C98.1378 1509.5 97.836 1511.26 97.9428 1512.36C97.968 1512.63 98.2632 1512.37 98.2677 1512.43C98.3167 1513.07 98.1088 1513.22 98.342 1514.06C98.4666 1514.5 98.9974 1514.85 99.1131 1515.27C99.963 1518.41 100.411 1521.55 101.363 1524.66C101.525 1525.19 102.175 1525.47 102.332 1525.91C102.556 1526.53 102.282 1527.06 102.48 1527.65C102.677 1528.24 103.464 1528.91 103.532 1529.33C103.603 1529.75 102.887 1529.25 103.28 1529.92C103.46 1530.23 103.595 1529.52 103.756 1529.93C104.253 1531.18 104.521 1533.16 105.48 1534.33C105.353 1534.31 105.227 1534.27 105.099 1534.23C105.72 1535.65 106.5 1536.81 107.177 1538.25C107.415 1538.75 107.532 1539.8 107.764 1540.3C107.996 1540.8 108.423 1540.87 108.618 1541.26C108.699 1541.42 108.382 1541.5 108.439 1541.6C109.17 1542.94 110.043 1543.43 110.699 1544.87C113.123 1550.13 116.025 1555.4 119.263 1560.36C119.393 1560.55 119.147 1560.92 119.3 1561.24C119.537 1561.74 119.85 1561.55 119.902 1561.6C120.243 1561.93 119.856 1561.97 120.228 1562.48C121.044 1563.6 122.646 1565.19 123.49 1566.28C125.44 1568.79 126.957 1571.02 129 1573.41C129.147 1573.59 129.396 1573.14 129.671 1573.41C131.622 1575.34 131.704 1576.11 134.326 1578.35C136.932 1580.61 142.203 1584.43 145.627 1586.55C145.627 1586.55 145.628 1586.54 145.628 1586.54C146.183 1588 147.73 1588.71 149.25 1588.8C143.693 1582.9 137.435 1579.19 131.654 1573.23C125.605 1566.97 121.375 1558.67 116.778 1551.41C116.343 1550.72 115.73 1550.69 115.48 1550.05C115.438 1549.94 115.931 1550 115.789 1549.67C113.816 1545.19 110.678 1540.94 108.992 1536.42C108.542 1535.21 108.873 1534.85 108.544 1533.75C108.426 1534.02 108.274 1534.22 108.146 1534.46C105.541 1529.91 104.076 1524.85 102.517 1519.81C102.446 1519.58 102.02 1519.67 101.935 1519.44C101.765 1518.96 102.095 1518.37 101.995 1517.95C101.865 1517.39 101.506 1517.39 101.391 1516.87C101.336 1516.62 101.676 1516.61 101.48 1516.08C101.463 1516.04 101.118 1516.1 101.068 1515.73C100.931 1514.71 100.725 1512.62 100.625 1511.78C100.495 1510.71 99.8017 1509.98 99.6833 1509.59C99.3662 1508.53 99.8973 1508.44 99.7153 1507.54C98.9521 1503.68 98.1435 1499.92 97.5139 1496.07C97.0922 1493.51 96.8595 1490.72 96.8558 1488.02C96.8517 1487.59 97.4645 1485.99 97.4647 1485.23C97.4594 1484.97 97.3518 1483.58 97.3506 1483.36C97.3391 1482.5 97.0183 1481.8 96.9718 1481.32C96.8786 1480.42 97.5205 1479.43 97.6169 1478.95C97.7824 1478.12 97.8543 1476.6 97.8791 1476.23C97.9347 1475.35 97.2113 1475.56 97.4415 1474.95C97.5103 1474.78 98.0201 1475.03 98.0932 1474.39C98.1535 1473.86 97.7799 1473.59 97.7533 1473.21C97.727 1472.83 98.4332 1472.23 98.4487 1472C98.5271 1470.76 98.1915 1470.21 98.3684 1468.89C98.5005 1467.78 99.6517 1462.87 99.8968 1462.46C100.894 1460.75 100.015 1463.76 100.009 1463.95C99.963 1464.91 100.236 1464.82 99.5997 1465.67C100.916 1466.72 98.1641 1469.34 99.8056 1470.32C98.537 1470.92 99.0291 1471.67 99.1559 1472.53C99.3342 1473.7 98.7661 1472.75 98.6589 1473.58C98.6169 1473.91 99.0368 1474.9 98.9107 1475.37C98.7826 1475.86 98.3542 1476.03 98.2652 1476.69C98.1057 1477.88 98.2187 1478.79 98.6287 1479.85C98.3994 1480.01 98.1712 1480.17 97.9428 1480.33C98.1256 1481.04 98.3136 1481.74 98.5083 1482.42C98.3255 1482.3 98.1413 1482.18 97.9589 1482.06C97.9204 1482.26 97.884 1482.45 97.8482 1482.65C98.0982 1483.32 98.3327 1483.99 98.6042 1484.68C97.4608 1486.5 98.4235 1485.95 98.551 1487C98.6849 1488.04 98.0587 1488.64 98.0689 1489.42C98.0861 1490.47 98.0257 1491.01 98.1253 1492.07C98.182 1492.68 98.8669 1493.69 97.8428 1492.89C97.8673 1493.84 97.8838 1494.97 97.9754 1496.01C98.0803 1497.21 98.2577 1498.37 98.588 1499.25C98.7735 1499.74 98.9786 1499.02 99.0285 1499.1C99.2664 1499.51 98.8304 1499.94 98.9672 1500.38C99.1927 1501.12 99.8025 1502.5 99.9909 1503.07C100.258 1503.88 99.8681 1505.31 99.848 1505.46C99.7325 1506.26 100.294 1506.36 100.304 1506.61C100.361 1508.02 100.212 1508.38 101.396 1508.58C100.993 1509.03 100.519 1510.69 101.396 1510.87C100.679 1511.04 101.08 1512.25 101.084 1513.05C101.325 1513.14 101.565 1513.23 101.807 1513.32C100.902 1515.21 102.657 1518.12 103.415 1520.11C103.433 1520.16 102.931 1520.41 103.142 1520.68C103.158 1520.7 103.386 1520.59 103.478 1520.79C103.774 1521.45 105.178 1523.83 105.285 1524.12C105.662 1525.2 105.338 1525.52 105.526 1526.19C105.778 1527.07 106.173 1527.08 106.416 1527.91C106.531 1528.3 106.199 1528.82 106.487 1529.4C106.657 1529.74 107.03 1529.64 107.165 1529.91C107.648 1530.88 107.709 1531.7 108.525 1532.39C107.484 1533.08 108.488 1533.16 108.752 1533.56C109.821 1535.18 110.3 1537.56 111.094 1539C113.566 1543.49 116.352 1547.1 119.059 1551.22C119.501 1551.89 119.079 1552.37 119.565 1553.07C119.784 1553.38 120.367 1553.47 120.709 1553.98C120.984 1554.4 121.185 1555.11 121.534 1555.63C121.626 1555.76 121.98 1555.54 122.118 1555.74C123.169 1557.25 123.966 1558.88 124.92 1560.49C125.273 1561.09 125.972 1561.09 125.138 1561.58C125.487 1561.65 125.806 1561.73 126.141 1561.78C126.249 1562.9 127.221 1563.12 127.913 1564.21C127.985 1564.32 128.097 1565.5 128.819 1565.61C128.584 1565.86 128.307 1565.98 128.081 1566.19C128.336 1566.7 129.183 1567.07 129.459 1567.32C129.732 1567.58 129.565 1568.05 129.636 1568.14C129.91 1568.47 130.279 1568 130.308 1568.02C132.038 1569.1 131.663 1569.14 131.847 1570.61C131.893 1570.99 133.758 1571.98 133.565 1572.76C133.778 1572.57 133.873 1572.32 134.04 1572.11C134.521 1572.48 135.009 1572.86 135.496 1573.22C135.216 1573.33 134.916 1573.42 134.641 1573.53C135.698 1574.23 136.021 1575.4 136.799 1576.08C137.243 1576.46 137.589 1575.96 137.757 1576.29C137.79 1576.35 137.436 1576.58 137.564 1576.74C138.613 1578.01 139.445 1578.15 140.75 1579.11C141.366 1579.56 141.44 1580.56 142.607 1580.84C142.716 1580.87 143.955 1580.99 143.942 1582.14C144.287 1582.02 144.529 1582.01 144.802 1581.9C145.089 1583.8 145.572 1582.49 147.246 1583.23C148.103 1583.63 150.627 1585.5 151.441 1586.12C151.918 1586.5 151.641 1586.97 151.725 1587.04C152.231 1587.48 152.49 1587.01 152.973 1587.38C153.456 1587.74 153.845 1588.63 154.426 1588.86C154.87 1589.04 154.834 1588.29 155.355 1588.81C155.462 1588.92 154.841 1589.23 155.602 1589.36C155.723 1589.39 157.045 1589.36 157.316 1589.34C156.902 1588.76 155.516 1587.57 154.995 1587.13C145.585 1580.29 129.436 1564.63 122.873 1554.32C122.231 1553.41 121.351 1553.1 120.912 1552.5C120.476 1551.91 121.253 1552.15 120.861 1551.61C120.471 1551.07 119.901 1550.86 119.549 1550.34C117.179 1546.85 114.958 1543.2 113.063 1539.44C112.573 1538.47 112.598 1537.5 112.194 1536.59C112.036 1536.24 111.527 1536.45 111.42 1536.2C110.268 1533.48 109.738 1530.74 108.668 1528.01C108.223 1526.88 107.346 1525.78 106.92 1524.65C106.566 1523.72 106.549 1522.63 106.288 1521.77C106.148 1521.31 105.671 1521.19 105.588 1521.03C105.304 1520.47 105.858 1520.53 105.767 1520.23C105.518 1519.4 104.802 1519.16 104.626 1518.36C104.558 1518.05 104.948 1517.98 104.884 1517.52C104.802 1516.94 104.509 1517.24 104.385 1516.84C104.377 1516.82 104.671 1516.82 104.624 1516.61C104.319 1515.2 104.098 1513.43 103.763 1512.09C103.07 1509.33 101.974 1506.69 101.405 1504.07C101.263 1503.41 101.657 1503.53 101.638 1503.31C101.549 1502.29 101.055 1502 101.046 1500.91C101.044 1500.73 101.439 1499.94 101.214 1499.28C101.093 1498.92 100.721 1498.55 100.605 1498.25C100.489 1497.94 100.946 1497.83 100.897 1497.45C100.811 1496.77 100.513 1497.01 100.451 1496.02C100.446 1495.95 100.452 1495.85 100.462 1495.72C100.516 1495.18 100.709 1494.15 100.62 1493.31C100.442 1491.71 99.961 1489.65 99.9592 1487.71C99.9567 1487.02 100.446 1486.16 100.48 1485.14C100.517 1483.86 100.53 1481.53 100.627 1480.2C100.674 1479.52 100.178 1479.43 100.163 1479.35C100.064 1478.83 100.609 1479.08 100.615 1478.74C100.624 1478.27 100.251 1477.8 100.265 1477.37C100.273 1477.09 100.691 1477.09 100.7 1477.03C101.059 1474.81 101.252 1472.92 101.608 1470.74C103.524 1459.14 106.973 1447.68 110.499 1436.5C110.8 1435.55 110.318 1435.35 110.679 1434.56C111.04 1433.77 112.383 1433.36 111.452 1432.27C111.697 1432.33 111.865 1432.4 112.088 1432.45C112.368 1430.63 113.335 1429.11 114.014 1427.49C114.519 1426.29 114.906 1425.21 115.333 1424.1C115.712 1423.11 115.273 1423.02 116.156 1422.4C117.593 1418.05 119.598 1413.9 121.097 1409.58C122.41 1409.06 122.343 1407.89 122.904 1406.52C122.972 1406.35 123.185 1406.68 123.409 1406.19C123.692 1405.58 123.393 1405.03 123.961 1404.04C124.109 1403.77 125.694 1402.1 125.842 1401.24C125.988 1400.38 126.434 1399.25 126.625 1398.37C126.756 1398.59 126.864 1398.83 126.986 1399.06C127.235 1398.71 127.485 1398.36 127.736 1398.01C127.536 1397.82 127.336 1397.63 127.133 1397.44C127.481 1397.35 127.826 1397.27 128.178 1397.19C127.269 1396.01 127.37 1396.72 128.293 1395.87C128.755 1395.45 128.8 1394.91 129.246 1394.46C129.408 1394.3 129.829 1394.39 130.003 1394.21C130.429 1393.77 129.768 1393.77 129.969 1393.46C130.174 1393.14 130.982 1393.02 131.113 1392.31C129.808 1392.3 131.213 1390.79 131.981 1391.18C132.114 1390.98 132.195 1390.79 132.362 1390.58C130.428 1389.6 132.405 1389.39 132.929 1389.14C133.453 1388.89 132.963 1388.58 133.048 1388.5C133.29 1388.25 133.35 1388.59 133.49 1388.4C134.413 1387.14 134.972 1385.73 135.854 1384.46C135.981 1384.27 136.13 1384.62 136.256 1384.4C136.383 1384.17 136.266 1383.77 136.512 1383.48C136.578 1383.4 136.828 1383.54 136.924 1383.41C138.909 1380.71 140.691 1378.05 142.874 1375.41C143.072 1375.17 143.618 1375.31 143.993 1374.85C144.368 1374.38 144.617 1373.4 145.085 1372.82C145.208 1372.66 145.562 1372.9 145.727 1372.7C146.29 1372.02 146.548 1371.22 147.136 1370.5C148.131 1369.29 149.45 1368.29 150.389 1366.99C150.568 1366.74 150.283 1366.53 150.521 1366.15C150.934 1365.5 151.097 1366.06 151.253 1366.01C151.764 1365.82 151.395 1365.22 151.864 1365.01C151.936 1364.98 152.144 1365.35 152.196 1365.3C152.977 1364.65 152.359 1363.92 153.503 1363.55C153.835 1362.49 152.525 1363.45 152.204 1363.36C151.418 1363.12 151.632 1361.77 151.924 1361.14C152.175 1360.59 152.472 1360.92 152.635 1360.77C153.495 1359.98 154.851 1358.89 155.389 1358.16C155.715 1357.71 154.859 1358.21 154.972 1357.92C155.085 1357.63 155.435 1357.76 155.413 1357.31C155.39 1356.85 155.143 1355.66 154.731 1355.34ZM105.002 1439.23C107.186 1438.07 108.506 1433.56 109.225 1431.13C109.814 1429.1 109.204 1426.95 110.869 1428.04C110.083 1430.14 109.262 1431.82 108.537 1434.09C108.462 1434.32 108.149 1435.79 108.017 1436.29C107.941 1436.57 108.243 1436.68 108.116 1437.06C108.087 1437.14 107.539 1437.46 107.495 1437.63C107.341 1438.21 107.421 1440.08 107.328 1440.32C107.069 1440.96 106.672 1440.56 106.496 1440.82C105.913 1441.68 106.599 1442.01 106.082 1442.88C105.989 1443.04 105.195 1443.41 105.073 1444.13C105.024 1444.42 105.205 1445.01 105.126 1445.23C104.697 1446.4 103.897 1447.62 103.677 1448.73C103.496 1449.65 104.048 1449.54 103.988 1450.03C103.926 1450.53 103.211 1450.96 103.095 1451.28C102.91 1451.79 103.075 1452.51 103.03 1452.67C102.145 1455.85 101.133 1458.63 100.383 1461.73C100.569 1459.58 100.822 1457.39 101.073 1455.24C101.862 1454.16 101.245 1454.65 101.275 1453.82C101.301 1453.15 102.194 1453.22 102.299 1452.39C102.299 1452.39 102.298 1452.39 102.298 1452.39C102.351 1451.97 101.983 1450.91 102.465 1450.08C102.483 1450.05 102.947 1450.08 103.139 1449.42C103.567 1447.92 104.421 1445.72 104.823 1444.01C104.938 1443.52 104.445 1443.48 104.559 1442.88C104.644 1442.45 105.217 1442.09 105.324 1441.4C105.456 1440.54 104.85 1439.9 106.048 1439.65C105.7 1439.49 105.338 1439.4 105.002 1439.23ZM125.31 1395.91C125.334 1395.78 125.16 1393.77 125.997 1394.84C125.335 1397 123.91 1398.9 123.062 1401.06C122.347 1399.76 123.433 1398.84 124.326 1397.49C124.327 1397.49 124.327 1397.49 124.327 1397.49C124.37 1397.42 123.925 1397.53 124.195 1397.19C124.327 1397.02 125.169 1396.58 125.31 1395.91Z" fill="white"/>
<path d="M61 1485.51C61 1448.48 77.5 1369.01 153.5 1330.01V1680.51C112.5 1658.51 61 1586.01 61 1485.51Z" fill="#F1A198"/>
<path d="M154.731 1355.34C153.048 1356.2 151.535 1357.29 150.262 1358.72C149.972 1359.04 150.226 1359.25 150.132 1359.41C149.961 1359.71 149.319 1359.82 149.263 1359.87C148.913 1360.2 149.445 1360.49 149.414 1360.55C149.059 1361.21 148.755 1360.59 148.218 1361.02C147.52 1361.58 146.787 1362.46 146.058 1363.25C145.803 1363.52 146.232 1363.71 145.64 1364.26C145.221 1364.65 143.64 1365.58 143.479 1366.54C143.623 1366.68 143.856 1366.76 144.037 1366.87C142.635 1367.14 142.374 1367.48 141.43 1368.83C141.281 1369.05 140.859 1369 140.651 1369.43C140.444 1369.86 140.831 1370.22 140.225 1370.91C140.01 1371.16 139.596 1371.06 139.259 1371.43C138.295 1372.48 136.94 1374.86 136.235 1375.79C134.84 1377.6 133.575 1378.2 132.537 1379.97C132.457 1380.11 132.992 1380.08 132.828 1380.31C132.662 1380.55 132.045 1380.47 131.992 1380.52C131.421 1381.06 131.066 1382.8 130.75 1383.1C129.976 1383.82 130.367 1382.85 129.457 1383.97C128.59 1385.04 128.117 1387.01 127.493 1388.22C126.771 1389.62 125.629 1389.5 125.905 1391.07C123.641 1394.55 121.511 1398.12 119.484 1401.75C119.678 1401.84 119.874 1401.93 120.069 1402.02C119.783 1402.24 119.496 1402.46 119.212 1402.67C119.377 1402.71 119.54 1402.74 119.702 1402.77C118.435 1403.83 117.512 1404.91 116.848 1406.59C116.835 1406.63 117.258 1406.74 117.255 1406.77C117.144 1407.17 116.646 1407.42 116.557 1407.78C116.337 1408.63 116.537 1410.35 115.794 1409.27C115.12 1411.18 113.775 1413.14 113.187 1414.98C112.933 1415.77 113.45 1416.28 113.326 1416.65C113.202 1417.03 112.752 1416.61 112.675 1416.73C112.215 1417.45 111.688 1418.73 112.23 1419.12C111.925 1419.17 111.613 1419.23 111.305 1419.29C112.004 1419.48 110.72 1421.76 110.483 1422.4C110.439 1422.52 110.725 1422.65 110.687 1422.74C110.256 1423.69 109.705 1423.74 109.218 1424.52C109.048 1424.79 109.745 1424.54 109.224 1425.21C109.179 1425.27 108.726 1425.05 108.378 1425.95C107.821 1427.39 106.603 1430.1 106.225 1431.92C106.193 1432.07 106.86 1431.82 106.511 1432.43C106.386 1432.65 106.06 1432.41 105.858 1432.98C105.069 1435.19 104.713 1437.69 103.647 1439.88C104.091 1439.92 104.812 1439.26 104.169 1440.4C104.066 1440.58 103.738 1440.32 103.697 1440.4C103.369 1441.08 103.449 1441.78 103.076 1442.51C102.966 1442.72 102.655 1442.69 102.502 1442.95C102.275 1443.34 102.641 1443.65 102.32 1444.09C101.818 1444.78 101.383 1444.79 101.899 1445.96C100.347 1451.33 98.8339 1456.71 98.1409 1462.26C97.6061 1463.83 97.0933 1465.24 96.7344 1466.89C96.6285 1467.38 97.1603 1467.56 96.8569 1468.32C96.7887 1468.49 96.0129 1469.66 97.0982 1470C96.953 1470.33 96.9193 1470.54 96.8194 1470.83C96.6873 1470.58 96.555 1470.33 96.4213 1470.09C96.4216 1471.36 95.8888 1472.39 95.5689 1473.48C95.3351 1474.29 95.8816 1473.76 95.775 1474.26C95.6714 1474.75 95.5378 1474.97 96.0417 1475.68C95.3283 1476.12 95.7557 1476.51 95.6878 1477.43C95.6801 1477.53 95.3716 1478.07 95.3836 1478.55C95.3927 1478.89 95.7965 1479.03 95.6898 1479.58C95.672 1479.67 95.0766 1480.81 95.0085 1481.18C94.8973 1481.75 95.3811 1482.68 95.3829 1482.79C95.3989 1484.45 94.8612 1485.07 95.7023 1486.21C95.1852 1486.42 94.872 1487.43 94.9268 1488.21C94.9872 1489.2 96.0965 1491.15 95.0066 1491.47C95.5559 1492.61 95.2371 1492.44 95.3283 1493.85C95.3667 1494.41 95.529 1495.35 95.7246 1496.28C95.9742 1497.48 96.2578 1498.71 96.3001 1499.26C96.3776 1500.25 95.7011 1499.86 95.6751 1500.26C95.6327 1500.92 96.0323 1500.51 96.0907 1500.95C96.2565 1502.18 96.3436 1503.27 96.3511 1504.47C96.6767 1504.48 97.0046 1504.5 97.3306 1504.51C97.2363 1504.59 97.142 1504.66 97.0479 1504.74C97.0954 1505 97.1395 1505.28 97.1913 1505.51C95.4571 1503.79 97.6329 1507.4 97.9136 1508.53C98.1378 1509.5 97.836 1511.26 97.9428 1512.36C97.968 1512.63 98.2632 1512.37 98.2677 1512.43C98.3167 1513.07 98.1088 1513.22 98.342 1514.06C98.4666 1514.5 98.9974 1514.85 99.1131 1515.27C99.963 1518.41 100.411 1521.55 101.363 1524.66C101.525 1525.19 102.175 1525.47 102.332 1525.91C102.556 1526.53 102.282 1527.06 102.48 1527.65C102.677 1528.24 103.464 1528.91 103.532 1529.33C103.603 1529.75 102.887 1529.25 103.28 1529.92C103.46 1530.23 103.595 1529.52 103.756 1529.93C104.253 1531.18 104.521 1533.16 105.48 1534.33C105.353 1534.31 105.227 1534.27 105.099 1534.23C105.72 1535.65 106.5 1536.81 107.177 1538.25C107.415 1538.75 107.532 1539.8 107.764 1540.3C107.996 1540.8 108.423 1540.87 108.618 1541.26C108.699 1541.42 108.382 1541.5 108.439 1541.6C109.17 1542.94 110.043 1543.43 110.699 1544.87C113.123 1550.13 116.025 1555.4 119.263 1560.36C119.393 1560.55 119.147 1560.92 119.3 1561.24C119.537 1561.74 119.85 1561.55 119.902 1561.6C120.243 1561.93 119.856 1561.97 120.228 1562.48C121.044 1563.6 122.646 1565.19 123.49 1566.28C125.44 1568.79 126.957 1571.02 129 1573.41C129.147 1573.59 129.396 1573.14 129.671 1573.41C131.622 1575.34 131.704 1576.11 134.326 1578.35C136.932 1580.61 142.203 1584.43 145.627 1586.55C145.627 1586.55 145.628 1586.54 145.628 1586.54C146.183 1588 147.73 1588.71 149.25 1588.8C143.693 1582.9 137.435 1579.19 131.654 1573.23C125.605 1566.97 121.375 1558.67 116.778 1551.41C116.343 1550.72 115.73 1550.69 115.48 1550.05C115.438 1549.94 115.931 1550 115.789 1549.67C113.816 1545.19 110.678 1540.94 108.992 1536.42C108.542 1535.21 108.873 1534.85 108.544 1533.75C108.426 1534.02 108.274 1534.22 108.146 1534.46C105.541 1529.91 104.076 1524.85 102.517 1519.81C102.446 1519.58 102.02 1519.67 101.935 1519.44C101.765 1518.96 102.095 1518.37 101.995 1517.95C101.865 1517.39 101.506 1517.39 101.391 1516.87C101.336 1516.62 101.676 1516.61 101.48 1516.08C101.463 1516.04 101.118 1516.1 101.068 1515.73C100.931 1514.71 100.725 1512.62 100.625 1511.78C100.495 1510.71 99.8017 1509.98 99.6833 1509.59C99.3662 1508.53 99.8973 1508.44 99.7153 1507.54C98.9521 1503.68 98.1435 1499.92 97.5139 1496.07C97.0922 1493.51 96.8595 1490.72 96.8558 1488.02C96.8517 1487.59 97.4645 1485.99 97.4647 1485.23C97.4594 1484.97 97.3518 1483.58 97.3506 1483.36C97.3391 1482.5 97.0183 1481.8 96.9718 1481.32C96.8786 1480.42 97.5205 1479.43 97.6169 1478.95C97.7824 1478.12 97.8543 1476.6 97.8791 1476.23C97.9347 1475.35 97.2113 1475.56 97.4415 1474.95C97.5103 1474.78 98.0201 1475.03 98.0932 1474.39C98.1535 1473.86 97.7799 1473.59 97.7533 1473.21C97.727 1472.83 98.4332 1472.23 98.4487 1472C98.5271 1470.76 98.1915 1470.21 98.3684 1468.89C98.5005 1467.78 99.6517 1462.87 99.8968 1462.46C100.894 1460.75 100.015 1463.76 100.009 1463.95C99.963 1464.91 100.236 1464.82 99.5997 1465.67C100.916 1466.72 98.1641 1469.34 99.8056 1470.32C98.537 1470.92 99.0291 1471.67 99.1559 1472.53C99.3342 1473.7 98.7661 1472.75 98.6589 1473.58C98.6169 1473.91 99.0368 1474.9 98.9107 1475.37C98.7826 1475.86 98.3542 1476.03 98.2652 1476.69C98.1057 1477.88 98.2187 1478.79 98.6287 1479.85C98.3994 1480.01 98.1712 1480.17 97.9428 1480.33C98.1256 1481.04 98.3136 1481.74 98.5083 1482.42C98.3255 1482.3 98.1413 1482.18 97.9589 1482.06C97.9204 1482.26 97.884 1482.45 97.8482 1482.65C98.0982 1483.32 98.3327 1483.99 98.6042 1484.68C97.4608 1486.5 98.4235 1485.95 98.551 1487C98.6849 1488.04 98.0587 1488.64 98.0689 1489.42C98.0861 1490.47 98.0257 1491.01 98.1253 1492.07C98.182 1492.68 98.8669 1493.69 97.8428 1492.89C97.8673 1493.84 97.8838 1494.97 97.9754 1496.01C98.0803 1497.21 98.2577 1498.37 98.588 1499.25C98.7735 1499.74 98.9786 1499.02 99.0285 1499.1C99.2664 1499.51 98.8304 1499.94 98.9672 1500.38C99.1927 1501.12 99.8025 1502.5 99.9909 1503.07C100.258 1503.88 99.8681 1505.31 99.848 1505.46C99.7325 1506.26 100.294 1506.36 100.304 1506.61C100.361 1508.02 100.212 1508.38 101.396 1508.58C100.993 1509.03 100.519 1510.69 101.396 1510.87C100.679 1511.04 101.08 1512.25 101.084 1513.05C101.325 1513.14 101.565 1513.23 101.807 1513.32C100.902 1515.21 102.657 1518.12 103.415 1520.11C103.433 1520.16 102.931 1520.41 103.142 1520.68C103.158 1520.7 103.386 1520.59 103.478 1520.79C103.774 1521.45 105.178 1523.83 105.285 1524.12C105.662 1525.2 105.338 1525.52 105.526 1526.19C105.778 1527.07 106.173 1527.08 106.416 1527.91C106.531 1528.3 106.199 1528.82 106.487 1529.4C106.657 1529.74 107.03 1529.64 107.165 1529.91C107.648 1530.88 107.709 1531.7 108.525 1532.39C107.484 1533.08 108.488 1533.16 108.752 1533.56C109.821 1535.18 110.3 1537.56 111.094 1539C113.566 1543.49 116.352 1547.1 119.059 1551.22C119.501 1551.89 119.079 1552.37 119.565 1553.07C119.784 1553.38 120.367 1553.47 120.709 1553.98C120.984 1554.4 121.185 1555.11 121.534 1555.63C121.626 1555.76 121.98 1555.54 122.118 1555.74C123.169 1557.25 123.966 1558.88 124.92 1560.49C125.273 1561.09 125.972 1561.09 125.138 1561.58C125.487 1561.65 125.806 1561.73 126.141 1561.78C126.249 1562.9 127.221 1563.12 127.913 1564.21C127.985 1564.32 128.097 1565.5 128.819 1565.61C128.584 1565.86 128.307 1565.98 128.081 1566.19C128.336 1566.7 129.183 1567.07 129.459 1567.32C129.732 1567.58 129.565 1568.05 129.636 1568.14C129.91 1568.47 130.279 1568 130.308 1568.02C132.038 1569.1 131.663 1569.14 131.847 1570.61C131.893 1570.99 133.758 1571.98 133.565 1572.76C133.778 1572.57 133.873 1572.32 134.04 1572.11C134.521 1572.48 135.009 1572.86 135.496 1573.22C135.216 1573.33 134.916 1573.42 134.641 1573.53C135.698 1574.23 136.021 1575.4 136.799 1576.08C137.243 1576.46 137.589 1575.96 137.757 1576.29C137.79 1576.35 137.436 1576.58 137.564 1576.74C138.613 1578.01 139.445 1578.15 140.75 1579.11C141.366 1579.56 141.44 1580.56 142.607 1580.84C142.716 1580.87 143.955 1580.99 143.942 1582.14C144.287 1582.02 144.529 1582.01 144.802 1581.9C145.089 1583.8 145.572 1582.49 147.246 1583.23C148.103 1583.63 150.627 1585.5 151.441 1586.12C151.918 1586.5 151.641 1586.97 151.725 1587.04C152.231 1587.48 152.49 1587.01 152.973 1587.38C153.456 1587.74 153.845 1588.63 154.426 1588.86C154.87 1589.04 154.834 1588.29 155.355 1588.81C155.462 1588.92 154.841 1589.23 155.602 1589.36C155.723 1589.39 157.045 1589.36 157.316 1589.34C156.902 1588.76 155.516 1587.57 154.995 1587.13C145.585 1580.29 129.436 1564.63 122.873 1554.32C122.231 1553.41 121.351 1553.1 120.912 1552.5C120.476 1551.91 121.253 1552.15 120.861 1551.61C120.471 1551.07 119.901 1550.86 119.549 1550.34C117.179 1546.85 114.958 1543.2 113.063 1539.44C112.573 1538.47 112.598 1537.5 112.194 1536.59C112.036 1536.24 111.527 1536.45 111.42 1536.2C110.268 1533.48 109.738 1530.74 108.668 1528.01C108.223 1526.88 107.346 1525.78 106.92 1524.65C106.566 1523.72 106.549 1522.63 106.288 1521.77C106.148 1521.31 105.671 1521.19 105.588 1521.03C105.304 1520.47 105.858 1520.53 105.767 1520.23C105.518 1519.4 104.802 1519.16 104.626 1518.36C104.558 1518.05 104.948 1517.98 104.884 1517.52C104.802 1516.94 104.509 1517.24 104.385 1516.84C104.377 1516.82 104.671 1516.82 104.624 1516.61C104.319 1515.2 104.098 1513.43 103.763 1512.09C103.07 1509.33 101.974 1506.69 101.405 1504.07C101.263 1503.41 101.657 1503.53 101.638 1503.31C101.549 1502.29 101.055 1502 101.046 1500.91C101.044 1500.73 101.439 1499.94 101.214 1499.28C101.093 1498.92 100.721 1498.55 100.605 1498.25C100.489 1497.94 100.946 1497.83 100.897 1497.45C100.811 1496.77 100.513 1497.01 100.451 1496.02C100.446 1495.95 100.452 1495.85 100.462 1495.72C100.516 1495.18 100.709 1494.15 100.62 1493.31C100.442 1491.71 99.961 1489.65 99.9592 1487.71C99.9567 1487.02 100.446 1486.16 100.48 1485.14C100.517 1483.86 100.53 1481.53 100.627 1480.2C100.674 1479.52 100.178 1479.43 100.163 1479.35C100.064 1478.83 100.609 1479.08 100.615 1478.74C100.624 1478.27 100.251 1477.8 100.265 1477.37C100.273 1477.09 100.691 1477.09 100.7 1477.03C101.059 1474.81 101.252 1472.92 101.608 1470.74C103.524 1459.14 106.973 1447.68 110.499 1436.5C110.8 1435.55 110.318 1435.35 110.679 1434.56C111.04 1433.77 112.383 1433.36 111.452 1432.27C111.697 1432.33 111.865 1432.4 112.088 1432.45C112.368 1430.63 113.335 1429.11 114.014 1427.49C114.519 1426.29 114.906 1425.21 115.333 1424.1C115.712 1423.11 115.273 1423.02 116.156 1422.4C117.593 1418.05 119.598 1413.9 121.097 1409.58C122.41 1409.06 122.343 1407.89 122.904 1406.52C122.972 1406.35 123.185 1406.68 123.409 1406.19C123.692 1405.58 123.393 1405.03 123.961 1404.04C124.109 1403.77 125.694 1402.1 125.842 1401.24C125.988 1400.38 126.434 1399.25 126.625 1398.37C126.756 1398.59 126.864 1398.83 126.986 1399.06C127.235 1398.71 127.485 1398.36 127.736 1398.01C127.536 1397.82 127.336 1397.63 127.133 1397.44C127.481 1397.35 127.826 1397.27 128.178 1397.19C127.269 1396.01 127.37 1396.72 128.293 1395.87C128.755 1395.45 128.8 1394.91 129.246 1394.46C129.408 1394.3 129.829 1394.39 130.003 1394.21C130.429 1393.77 129.768 1393.77 129.969 1393.46C130.174 1393.14 130.982 1393.02 131.113 1392.31C129.808 1392.3 131.213 1390.79 131.981 1391.18C132.114 1390.98 132.195 1390.79 132.362 1390.58C130.428 1389.6 132.405 1389.39 132.929 1389.14C133.453 1388.89 132.963 1388.58 133.048 1388.5C133.29 1388.25 133.35 1388.59 133.49 1388.4C134.413 1387.14 134.972 1385.73 135.854 1384.46C135.981 1384.27 136.13 1384.62 136.256 1384.4C136.383 1384.17 136.266 1383.77 136.512 1383.48C136.578 1383.4 136.828 1383.54 136.924 1383.41C138.909 1380.71 140.691 1378.05 142.874 1375.41C143.072 1375.17 143.618 1375.31 143.993 1374.85C144.368 1374.38 144.617 1373.4 145.085 1372.82C145.208 1372.66 145.562 1372.9 145.727 1372.7C146.29 1372.02 146.548 1371.22 147.136 1370.5C148.131 1369.29 149.45 1368.29 150.389 1366.99C150.568 1366.74 150.283 1366.53 150.521 1366.15C150.934 1365.5 151.097 1366.06 151.253 1366.01C151.764 1365.82 151.395 1365.22 151.864 1365.01C151.936 1364.98 152.144 1365.35 152.196 1365.3C152.977 1364.65 152.359 1363.92 153.503 1363.55C153.835 1362.49 152.525 1363.45 152.204 1363.36C151.418 1363.12 151.632 1361.77 151.924 1361.14C152.175 1360.59 152.472 1360.92 152.635 1360.77C153.495 1359.98 154.851 1358.89 155.389 1358.16C155.715 1357.71 154.859 1358.21 154.972 1357.92C155.085 1357.63 155.435 1357.76 155.413 1357.31C155.39 1356.85 155.143 1355.66 154.731 1355.34ZM105.002 1439.23C107.186 1438.07 108.506 1433.56 109.225 1431.13C109.814 1429.1 109.204 1426.95 110.869 1428.04C110.083 1430.14 109.262 1431.82 108.537 1434.09C108.462 1434.32 108.149 1435.79 108.017 1436.29C107.941 1436.57 108.243 1436.68 108.116 1437.06C108.087 1437.14 107.539 1437.46 107.495 1437.63C107.341 1438.21 107.421 1440.08 107.328 1440.32C107.069 1440.96 106.672 1440.56 106.496 1440.82C105.913 1441.68 106.599 1442.01 106.082 1442.88C105.989 1443.04 105.195 1443.41 105.073 1444.13C105.024 1444.42 105.205 1445.01 105.126 1445.23C104.697 1446.4 103.897 1447.62 103.677 1448.73C103.496 1449.65 104.048 1449.54 103.988 1450.03C103.926 1450.53 103.211 1450.96 103.095 1451.28C102.91 1451.79 103.075 1452.51 103.03 1452.67C102.145 1455.85 101.133 1458.63 100.383 1461.73C100.569 1459.58 100.822 1457.39 101.073 1455.24C101.862 1454.16 101.245 1454.65 101.275 1453.82C101.301 1453.15 102.194 1453.22 102.299 1452.39C102.299 1452.39 102.298 1452.39 102.298 1452.39C102.351 1451.97 101.983 1450.91 102.465 1450.08C102.483 1450.05 102.947 1450.08 103.139 1449.42C103.567 1447.92 104.421 1445.72 104.823 1444.01C104.938 1443.52 104.445 1443.48 104.559 1442.88C104.644 1442.45 105.217 1442.09 105.324 1441.4C105.456 1440.54 104.85 1439.9 106.048 1439.65C105.7 1439.49 105.338 1439.4 105.002 1439.23ZM125.31 1395.91C125.334 1395.78 125.16 1393.77 125.997 1394.84C125.335 1397 123.91 1398.9 123.062 1401.06C122.347 1399.76 123.433 1398.84 124.326 1397.49C124.327 1397.49 124.327 1397.49 124.327 1397.49C124.37 1397.42 123.925 1397.53 124.195 1397.19C124.327 1397.02 125.169 1396.58 125.31 1395.91Z" fill="white"/>
<path d="M159.23 1383.34C157.879 1383.92 156.691 1384.73 155.747 1385.85C155.533 1386.11 155.78 1386.33 155.717 1386.46C155.601 1386.7 155.054 1386.73 155.011 1386.77C154.743 1387.02 155.243 1387.34 155.223 1387.39C154.99 1387.93 154.65 1387.35 154.23 1387.67C153.683 1388.08 153.143 1388.78 152.591 1389.38C152.399 1389.59 152.8 1389.81 152.342 1390.23C152.019 1390.52 150.725 1391.15 150.695 1391.97C150.841 1392.11 151.057 1392.2 151.231 1392.32C150.016 1392.39 149.822 1392.66 149.139 1393.73C149.031 1393.9 148.648 1393.81 148.512 1394.15C148.377 1394.5 148.767 1394.86 148.304 1395.39C148.14 1395.57 147.757 1395.44 147.497 1395.72C146.753 1396.52 145.807 1398.41 145.273 1399.11C144.218 1400.5 143.133 1400.87 142.385 1402.25C142.327 1402.36 142.813 1402.39 142.69 1402.57C142.566 1402.75 141.99 1402.62 141.948 1402.65C141.485 1403.04 141.357 1404.48 141.1 1404.69C140.468 1405.21 140.719 1404.44 140.005 1405.28C139.325 1406.09 139.107 1407.68 138.66 1408.62C138.144 1409.71 137.066 1409.48 137.495 1410.82C135.761 1413.46 134.135 1416.18 132.583 1418.93C132.776 1419.03 132.97 1419.12 133.164 1419.21C132.915 1419.36 132.666 1419.51 132.419 1419.66C132.578 1419.7 132.735 1419.74 132.892 1419.79C131.8 1420.52 131.029 1421.31 130.561 1422.61C130.552 1422.64 130.966 1422.77 130.965 1422.79C130.898 1423.1 130.45 1423.26 130.399 1423.54C130.272 1424.21 130.626 1425.61 129.815 1424.67C129.354 1426.15 128.249 1427.61 127.851 1429.03C127.678 1429.64 128.22 1430.09 128.134 1430.38C128.049 1430.67 127.579 1430.29 127.515 1430.38C127.138 1430.92 126.743 1431.89 127.299 1432.25C127.01 1432.26 126.715 1432.29 126.423 1432.31C127.113 1432.52 126.073 1434.23 125.897 1434.71C125.864 1434.8 126.152 1434.93 126.122 1435C125.787 1435.72 125.258 1435.71 124.851 1436.29C124.709 1436.49 125.363 1436.35 124.914 1436.84C124.875 1436.88 124.418 1436.67 124.155 1437.36C123.734 1438.46 122.763 1440.5 122.533 1441.91C122.513 1442.02 123.142 1441.88 122.849 1442.33C122.744 1442.49 122.408 1442.28 122.254 1442.71C121.651 1444.4 121.483 1446.33 120.589 1447.97C121.027 1448.03 121.687 1447.56 121.136 1448.41C121.047 1448.54 120.708 1448.32 120.674 1448.38C120.399 1448.89 120.524 1449.44 120.207 1449.98C120.112 1450.14 119.806 1450.09 119.672 1450.29C119.476 1450.58 119.854 1450.84 119.567 1451.16C119.119 1451.67 118.692 1451.65 119.273 1452.59C118.082 1456.68 116.879 1460.76 116.437 1465C115.976 1466.19 115.525 1467.25 115.231 1468.5C115.144 1468.88 115.68 1469.04 115.406 1469.61C115.345 1469.74 114.613 1470.6 115.705 1470.9C115.571 1471.15 115.545 1471.31 115.455 1471.53C115.315 1471.34 115.175 1471.14 115.034 1470.95C115.077 1471.92 114.578 1472.69 114.29 1473.52C114.079 1474.13 114.609 1473.74 114.517 1474.12C114.427 1474.5 114.299 1474.66 114.82 1475.22C114.119 1475.54 114.555 1475.84 114.508 1476.54C114.502 1476.62 114.206 1477.03 114.227 1477.4C114.243 1477.66 114.649 1477.77 114.553 1478.19C114.537 1478.26 113.961 1479.12 113.898 1479.4C113.796 1479.84 114.29 1480.56 114.293 1480.64C114.328 1481.91 113.793 1482.37 114.639 1483.25C114.123 1483.4 113.813 1484.18 113.867 1484.78C113.927 1485.53 115.022 1487.02 113.928 1487.27C114.464 1488.14 114.148 1488.02 114.216 1489.09C114.244 1489.53 114.388 1490.26 114.559 1490.97C114.774 1491.87 115.015 1492.8 115.039 1493.22C115.084 1493.98 114.423 1493.7 114.384 1494.01C114.319 1494.52 114.731 1494.19 114.774 1494.52C114.895 1495.47 114.941 1496.29 114.9 1497.22C115.223 1497.22 115.548 1497.21 115.871 1497.21C115.774 1497.27 115.677 1497.34 115.581 1497.4C115.618 1497.59 115.65 1497.81 115.691 1497.99C114.042 1496.73 116.052 1499.42 116.273 1500.28C116.45 1501.02 116.064 1502.39 116.112 1503.24C116.123 1503.44 116.428 1503.23 116.43 1503.27C116.444 1503.77 116.231 1503.9 116.416 1504.53C116.515 1504.87 117.019 1505.11 117.109 1505.43C117.768 1507.82 118.009 1510.25 118.722 1512.62C118.844 1513.02 119.458 1513.2 119.58 1513.53C119.755 1514.01 119.448 1514.44 119.597 1514.9C119.746 1515.35 120.461 1515.82 120.495 1516.14C120.531 1516.47 119.874 1516.13 120.204 1516.63C120.355 1516.86 120.542 1516.29 120.667 1516.6C121.052 1517.55 121.153 1519.1 121.982 1519.95C121.861 1519.95 121.743 1519.92 121.622 1519.91C122.104 1520.98 122.756 1521.84 123.279 1522.93C123.464 1523.32 123.481 1524.15 123.658 1524.53C123.835 1524.91 124.237 1524.93 124.387 1525.23C124.45 1525.35 124.14 1525.44 124.185 1525.52C124.759 1526.53 125.545 1526.85 126.029 1527.95C127.822 1531.98 129.988 1536.02 132.413 1539.84C132.511 1540 132.243 1540.34 132.347 1540.59C132.51 1540.98 132.82 1540.78 132.862 1540.82C133.137 1541.06 132.776 1541.14 133.06 1541.53C133.683 1542.39 134.962 1543.56 135.601 1544.4C137.077 1546.33 138.178 1548.08 139.713 1549.94C139.823 1550.08 140.097 1549.66 140.308 1549.87C141.807 1551.34 141.791 1552 143.819 1553.7C145.834 1555.41 149.909 1558.28 152.536 1559.89C152.537 1559.89 152.538 1559.89 152.538 1559.89C152.844 1561.18 154.065 1561.68 155.31 1561.62C151.342 1556.66 146.478 1554.04 142.085 1549.47C137.495 1544.67 134.61 1538.14 131.093 1532.67C130.76 1532.15 130.188 1532.2 130.021 1531.69C129.993 1531.61 130.451 1531.61 130.351 1531.35C128.977 1527.89 126.408 1524.78 125.187 1521.32C124.862 1520.39 125.212 1520.07 124.989 1519.24C124.853 1519.46 124.688 1519.63 124.544 1519.83C122.426 1516.44 121.382 1512.57 120.181 1508.76C120.126 1508.58 119.702 1508.68 119.634 1508.5C119.497 1508.14 119.859 1507.67 119.787 1507.34C119.693 1506.92 119.34 1506.94 119.259 1506.54C119.22 1506.35 119.555 1506.32 119.393 1505.93C119.38 1505.9 119.037 1505.96 119.01 1505.67C118.934 1504.9 118.848 1503.3 118.793 1502.65C118.721 1501.84 118.072 1501.31 117.974 1501.01C117.712 1500.21 118.242 1500.12 118.104 1499.43C117.528 1496.51 116.866 1493.68 116.348 1490.76C115.999 1488.81 115.798 1486.68 115.796 1484.63C115.793 1484.3 116.402 1483.09 116.397 1482.51C116.39 1482.32 116.27 1481.26 116.266 1481.1C116.246 1480.44 115.915 1479.9 115.862 1479.54C115.755 1478.85 116.378 1478.1 116.465 1477.74C116.614 1477.12 116.651 1475.96 116.666 1475.68C116.7 1475.02 115.983 1475.15 116.197 1474.7C116.261 1474.57 116.776 1474.77 116.831 1474.29C116.877 1473.88 116.497 1473.67 116.459 1473.38C116.422 1473.09 117.107 1472.65 117.115 1472.47C117.153 1471.53 116.801 1471.1 116.93 1470.1C117.026 1469.25 117.967 1465.54 118.187 1465.23C119.098 1463.97 118.363 1466.23 118.364 1466.38C118.36 1467.12 118.626 1467.05 118.03 1467.68C119.382 1468.53 116.745 1470.43 118.41 1471.24C117.168 1471.65 117.683 1472.24 117.836 1472.9C118.049 1473.8 117.454 1473.06 117.372 1473.68C117.34 1473.93 117.786 1474.7 117.673 1475.06C117.558 1475.43 117.135 1475.54 117.063 1476.04C116.932 1476.94 117.063 1477.64 117.492 1478.45C117.266 1478.57 117.041 1478.68 116.816 1478.8C117.01 1479.34 117.209 1479.87 117.412 1480.39C117.228 1480.3 117.042 1480.21 116.858 1480.12C116.823 1480.26 116.789 1480.41 116.755 1480.56C117.014 1481.07 117.255 1481.58 117.532 1482.1C116.401 1483.47 117.359 1483.06 117.49 1483.86C117.626 1484.65 116.998 1485.1 117.005 1485.69C117.017 1486.48 116.952 1486.9 117.038 1487.7C117.087 1488.16 117.753 1488.91 116.744 1488.32C116.753 1489.04 116.746 1489.91 116.808 1490.7C116.879 1491.6 117.019 1492.48 117.317 1493.14C117.485 1493.51 117.714 1492.95 117.761 1493.01C117.984 1493.31 117.535 1493.66 117.655 1493.99C117.854 1494.54 118.408 1495.58 118.572 1496C118.804 1496.61 118.356 1497.72 118.33 1497.83C118.18 1498.45 118.732 1498.51 118.73 1498.7C118.722 1499.77 118.556 1500.06 119.719 1500.15C119.298 1500.52 118.746 1501.82 119.603 1501.91C118.886 1502.08 119.218 1502.99 119.177 1503.6C119.41 1503.66 119.642 1503.72 119.876 1503.78C118.879 1505.28 120.434 1507.43 121.042 1508.93C121.057 1508.97 120.548 1509.19 120.737 1509.39C120.751 1509.4 120.981 1509.31 121.058 1509.45C121.307 1509.95 122.511 1511.71 122.593 1511.92C122.882 1512.74 122.542 1513.01 122.676 1513.52C122.853 1514.2 123.238 1514.17 123.409 1514.81C123.49 1515.1 123.126 1515.54 123.36 1515.97C123.498 1516.23 123.868 1516.12 123.977 1516.32C124.367 1517.04 124.358 1517.68 125.087 1518.16C124.023 1518.79 124.987 1518.77 125.206 1519.07C126.098 1520.26 126.343 1522.1 126.968 1523.19C128.912 1526.55 131.175 1529.19 133.246 1532.27C133.584 1532.77 133.137 1533.21 133.511 1533.74C133.68 1533.97 134.212 1533.98 134.47 1534.37C134.679 1534.68 134.783 1535.25 135.046 1535.64C135.115 1535.74 135.467 1535.52 135.572 1535.67C136.367 1536.8 136.906 1538.07 137.584 1539.32C137.835 1539.78 138.469 1539.7 137.652 1540.21C137.961 1540.23 138.242 1540.25 138.54 1540.26C138.502 1541.2 139.357 1541.26 139.847 1542.11C139.897 1542.2 139.856 1543.19 140.491 1543.2C140.249 1543.44 139.986 1543.58 139.757 1543.79C139.925 1544.19 140.638 1544.41 140.853 1544.6C141.067 1544.78 140.859 1545.21 140.912 1545.28C141.116 1545.53 141.502 1545.08 141.526 1545.09C142.933 1545.82 142.591 1545.9 142.574 1547.16C142.57 1547.48 144.091 1548.13 143.825 1548.83C144.034 1548.64 144.149 1548.41 144.322 1548.2C144.698 1548.47 145.079 1548.74 145.458 1549.01C145.2 1549.14 144.928 1549.25 144.673 1549.38C145.512 1549.87 145.648 1550.87 146.241 1551.38C146.579 1551.67 146.938 1551.18 147.044 1551.45C147.064 1551.51 146.731 1551.75 146.823 1551.88C147.574 1552.89 148.273 1552.92 149.271 1553.63C149.742 1553.96 149.688 1554.86 150.643 1554.98C150.733 1555 151.764 1554.96 151.619 1556.01C151.923 1555.87 152.128 1555.82 152.37 1555.69C152.389 1557.41 152.95 1556.15 154.256 1556.65C154.926 1556.91 156.796 1558.37 157.393 1558.88C157.742 1559.18 157.467 1559.65 157.527 1559.71C157.896 1560.07 158.155 1559.61 158.509 1559.9C158.864 1560.2 159.09 1560.99 159.538 1561.16C159.879 1561.29 159.924 1560.58 160.293 1561.02C160.369 1561.11 159.837 1561.47 160.438 1561.53C160.534 1561.54 161.599 1561.38 161.817 1561.34C161.54 1560.82 160.546 1559.82 160.171 1559.46C153.389 1553.77 141.434 1542.11 136.434 1534.4C135.948 1533.72 135.167 1533.57 134.827 1533.12C134.489 1532.68 135.183 1532.8 134.88 1532.4C134.579 1532 134.072 1531.88 133.801 1531.5C131.975 1528.9 130.255 1526.18 128.807 1523.35C128.434 1522.62 128.549 1521.85 128.245 1521.17C128.127 1520.9 127.619 1521.12 127.54 1520.93C126.683 1518.87 126.407 1516.76 125.589 1514.71C125.249 1513.86 124.48 1513.07 124.149 1512.22C123.874 1511.52 123.936 1510.67 123.742 1510.03C123.638 1509.68 123.18 1509.62 123.109 1509.5C122.869 1509.09 123.408 1509.09 123.34 1508.87C123.152 1508.24 122.466 1508.1 122.345 1507.5C122.298 1507.26 122.686 1507.19 122.652 1506.83C122.609 1506.39 122.302 1506.64 122.206 1506.34C122.199 1506.32 122.488 1506.31 122.455 1506.14C122.244 1505.08 122.131 1503.73 121.875 1502.72C121.345 1500.65 120.389 1498.68 119.934 1496.71C119.821 1496.21 120.207 1496.28 120.197 1496.12C120.151 1495.35 119.672 1495.15 119.703 1494.32C119.708 1494.18 120.13 1493.57 119.93 1493.07C119.822 1492.81 119.464 1492.54 119.358 1492.31C119.253 1492.08 119.712 1491.98 119.675 1491.7C119.61 1491.18 119.307 1491.37 119.274 1490.62C119.272 1490.57 119.279 1490.5 119.292 1490.41C119.36 1490.01 119.584 1489.22 119.51 1488.59C119.364 1487.4 118.902 1485.85 118.899 1484.39C118.897 1483.88 119.384 1483.23 119.411 1482.46C119.44 1481.5 119.423 1479.75 119.494 1478.75C119.529 1478.24 119.031 1478.16 119.015 1478.1C118.906 1477.7 119.454 1477.9 119.453 1477.65C119.453 1477.3 119.069 1476.93 119.073 1476.6C119.076 1476.39 119.492 1476.4 119.499 1476.36C119.803 1474.68 119.939 1473.26 120.218 1471.62C121.72 1462.87 124.443 1454.27 127.041 1445.81C127.263 1445.1 126.778 1444.9 127.069 1444.31C127.36 1443.72 128.634 1443.51 127.643 1442.58C127.886 1442.65 128.054 1442.71 128.275 1442.77C128.404 1441.37 129.217 1440.24 129.739 1439.03C130.127 1438.13 130.409 1437.31 130.724 1436.47C131.004 1435.72 130.573 1435.61 131.369 1435.19C132.369 1431.88 133.898 1428.76 134.895 1425.43C136.092 1425.14 135.91 1424.19 136.303 1423.14C136.35 1423.01 136.585 1423.3 136.748 1422.93C136.953 1422.46 136.614 1421.98 137.048 1421.24C137.162 1421.04 138.481 1419.85 138.528 1419.16C138.575 1418.48 138.873 1417.61 138.957 1416.9C139.103 1417.1 139.23 1417.31 139.37 1417.5C139.565 1417.25 139.761 1416.98 139.959 1416.73C139.751 1416.55 139.543 1416.37 139.333 1416.19C139.649 1416.16 139.963 1416.13 140.283 1416.1C139.305 1415.04 139.477 1415.63 140.247 1415.03C140.632 1414.74 140.614 1414.3 140.98 1413.98C141.113 1413.86 141.516 1413.99 141.658 1413.86C142.005 1413.54 141.39 1413.47 141.542 1413.23C141.697 1412.99 142.434 1412.98 142.476 1412.41C141.264 1412.26 142.398 1411.16 143.153 1411.57C143.253 1411.42 143.307 1411.27 143.438 1411.12C141.536 1410.09 143.342 1410.13 143.797 1409.99C144.252 1409.84 143.764 1409.53 143.832 1409.47C144.028 1409.29 144.122 1409.58 144.229 1409.44C144.934 1408.49 145.284 1407.37 145.942 1406.41C146.037 1406.27 146.215 1406.58 146.304 1406.4C146.392 1406.23 146.24 1405.88 146.429 1405.66C146.48 1405.6 146.726 1405.75 146.798 1405.66C148.291 1403.61 149.585 1401.57 151.223 1399.57C151.372 1399.39 151.88 1399.58 152.159 1399.22C152.438 1398.87 152.538 1398.05 152.884 1397.61C152.976 1397.49 153.321 1397.74 153.443 1397.59C153.86 1397.06 153.99 1396.4 154.423 1395.85C155.156 1394.92 156.196 1394.21 156.859 1393.19C156.986 1392.99 156.709 1392.77 156.871 1392.46C157.152 1391.94 157.365 1392.46 157.495 1392.43C157.918 1392.33 157.521 1391.75 157.906 1391.63C157.965 1391.61 158.192 1391.96 158.232 1391.93C158.832 1391.45 158.204 1390.72 159.153 1390.53C159.312 1389.63 158.292 1390.33 157.999 1390.21C157.285 1389.91 157.307 1388.73 157.486 1388.2C157.639 1387.75 157.937 1388.08 158.06 1387.96C158.714 1387.36 159.756 1386.55 160.131 1385.95C160.359 1385.59 159.679 1385.93 159.743 1385.69C159.806 1385.44 160.124 1385.61 160.05 1385.19C159.976 1384.78 159.623 1383.68 159.23 1383.34ZM121.871 1447.55C123.929 1446.79 124.883 1443.37 125.389 1441.51C125.803 1439.96 125.036 1438.21 126.738 1439.21C126.148 1440.8 125.482 1442.06 124.947 1443.78C124.892 1443.96 124.698 1445.09 124.605 1445.47C124.552 1445.68 124.855 1445.79 124.757 1446.07C124.735 1446.13 124.224 1446.35 124.194 1446.47C124.086 1446.92 124.296 1448.38 124.221 1448.56C124.013 1449.04 123.596 1448.7 123.443 1448.89C122.932 1449.53 123.625 1449.82 123.177 1450.47C123.098 1450.58 122.344 1450.82 122.272 1451.37C122.243 1451.6 122.459 1452.07 122.396 1452.23C122.051 1453.11 121.341 1454.01 121.192 1454.85C121.069 1455.55 121.606 1455.5 121.576 1455.88C121.545 1456.26 120.866 1456.55 120.77 1456.79C120.618 1457.18 120.821 1457.74 120.787 1457.86C120.094 1460.26 119.237 1462.35 118.636 1464.7C118.722 1463.05 118.863 1461.38 118.997 1459.74C119.718 1458.95 119.135 1459.29 119.119 1458.65C119.108 1458.14 119.994 1458.24 120.05 1457.6C120.049 1457.61 120.049 1457.61 120.049 1457.61C120.077 1457.28 119.654 1456.44 120.079 1455.82C120.095 1455.8 120.555 1455.86 120.704 1455.35C121.036 1454.22 121.738 1452.57 122.018 1451.26C122.098 1450.89 121.613 1450.83 121.686 1450.37C121.74 1450.04 122.278 1449.8 122.335 1449.27C122.406 1448.6 121.769 1448.07 122.923 1447.95C122.571 1447.8 122.211 1447.71 121.871 1447.55ZM137.461 1414.75C137.47 1414.65 137.09 1412.97 137.988 1413.94C137.602 1415.65 136.467 1417.06 135.891 1418.73C135.083 1417.6 136.011 1416.95 136.706 1415.94C136.707 1415.94 136.707 1415.94 136.707 1415.94C136.74 1415.89 136.334 1415.94 136.552 1415.68C136.657 1415.56 137.4 1415.29 137.461 1414.75Z" fill="white"/>
<path d="M0 853C0 864.874 12.6259 879.5 24.5 879.5C36.3741 879.5 43.5 867.874 43.5 856C43.5 844.126 30.8741 832 19 832C7.12588 832 0 841.126 0 853Z" fill="#79A363" fill-opacity="0.8"/>
<path d="M101.927 115.307C87.3869 111.412 73.62 91.1522 77.516 76.6123C81.412 62.0723 97.986 57.1611 112.526 61.0571C127.066 64.9531 137.771 84.3921 133.875 98.9321C129.98 113.472 116.467 119.203 101.927 115.307Z" fill="#79A363" fill-opacity="0.8"/>
<path d="M11.5 854.726C11.5 860.226 17.305 867 22.7644 867C28.2237 867 31.5 861.615 31.5 856.116C31.5 850.616 25.695 845 20.2356 845C14.7763 845 11.5 849.227 11.5 854.726Z" fill="#79A363" fill-opacity="0.8"/>
<path d="M103.587 100.658C96.8523 98.8538 90.462 89.5229 92.2532 82.8379C94.0445 76.1529 101.713 73.9078 108.447 75.7122C115.182 77.5167 120.154 86.4676 118.363 93.1527C116.571 99.8377 110.321 102.463 103.587 100.658Z" fill="#79A363" fill-opacity="0.8"/>
<path d="M59.5 894C59.5 899.799 67.201 904 73 904C78.799 904 80.5 899.799 80.5 894C80.5 888.201 74.299 885 68.5 885C62.701 885 59.5 888.201 59.5 894Z" fill="#F1A198"/>
<path d="M71.2455 28.9961C64.1446 27.0934 61.5271 16.2851 63.4298 9.18417C65.3325 2.08327 71.0348 1.37874 78.1357 3.28142C85.2366 5.18411 87.1217 13.8276 85.219 20.9285C83.3163 28.0294 78.3464 30.8987 71.2455 28.9961Z" fill="#F1A198"/>
<path d="M137.56 190C141.418 173 135.63 127 153 127V397C137.325 389 117.792 337 116.104 286C114.416 235 133.701 207 137.56 190Z" fill="#FAAE37" fill-opacity="0.6"/>
<path d="M133.129 290.725C133.083 288.959 133.137 287.304 133.22 285.246C133.22 285.245 133.22 285.244 133.22 285.243C133.232 284.947 133.244 284.635 133.257 284.317C133.365 281.76 133.497 278.457 133.655 273.486C133.832 268.022 134.348 263.61 134.797 260.985C134.881 260.497 134.936 259.997 135.031 258.682C135.093 257.822 135.168 256.693 135.289 255.042C135.355 254.147 135.433 253.115 135.53 251.931C135.852 247.949 136.315 241.721 136.931 236.013C137.064 234.768 137.207 233.506 137.343 232.391C137.595 230.309 137.846 228.381 138.067 226.784C138.569 223.156 139.132 219.669 139.762 215.883C140.341 212.413 140.976 208.71 141.682 204.413C142.225 201.117 142.978 197.951 143.767 194.743C143.867 194.334 143.968 193.924 144.07 193.512C144.767 190.682 145.48 187.785 146.113 184.633C147.239 179.016 147.803 174.481 148.396 169.461C148.628 167.492 148.861 165.465 149.133 163.246C149.562 159.76 150.229 154.746 150.844 149.709C150.896 149.28 150.948 148.849 151 148.419C151 148.417 151 148.415 151.001 148.413C151.558 143.804 152.055 139.267 152.36 135.937C152.841 130.647 152.903 128.65 152.965 126.974C152.987 126.347 153.006 125.771 153.04 125.08C153.165 122.586 153.471 118.841 153.736 115.046C153.737 115.031 153.738 115.017 153.739 115.002C153.783 114.37 154.097 113.876 154.442 113.901C154.787 113.926 155.032 114.462 154.987 115.096C154.846 117.116 154.698 119.078 154.57 120.843C154.859 120.957 155.047 121.448 155.001 122.015C154.882 123.44 154.776 127.821 154.475 134.676C154.574 134.216 154.664 133.83 154.747 133.491C154.844 133.094 154.924 132.79 154.992 132.528C155.134 131.983 155.229 131.614 155.332 130.968C155.52 129.469 155.743 127.075 155.957 124.578C156.012 123.944 156.333 123.454 156.677 123.484C157.022 123.514 157.258 124.056 157.203 124.69C157.202 124.703 157.201 124.715 157.2 124.728C156.988 127.206 156.758 129.682 156.559 131.25C156.509 131.65 156.46 132 156.421 132.26C156.39 132.468 156.35 132.727 156.316 132.87C156.312 132.889 156.303 132.925 156.29 132.968C156.29 132.968 156.29 132.969 156.289 132.97C156.282 132.994 156.247 133.116 156.184 133.244C156.171 133.27 156.143 133.326 156.1 133.391C156.095 133.408 156.091 133.425 156.086 133.442C156.024 133.682 155.96 133.927 155.895 134.191C155.64 135.219 155.289 136.877 154.721 140.306C154.197 143.466 153.52 148.832 152.671 155.514C152.754 155.068 152.836 154.619 152.916 154.17C153.118 153.041 153.315 151.891 153.505 150.76C153.577 150.324 153.649 149.894 153.721 149.455C153.836 148.749 153.952 148.029 154.063 147.327C154.139 146.85 154.214 146.371 154.289 145.891C154.289 145.89 154.289 145.889 154.29 145.888C154.394 145.222 154.497 144.552 154.602 143.876C154.638 143.641 154.674 143.409 154.71 143.179C154.851 142.262 154.988 141.358 155.175 140.316C155.201 140.19 155.232 140.052 155.256 139.95C155.282 139.84 155.307 139.735 155.333 139.636C155.355 139.549 155.377 139.466 155.397 139.386C155.4 139.375 155.403 139.365 155.406 139.354C155.429 139.265 155.451 139.179 155.471 139.097C155.492 139.015 155.512 138.936 155.53 138.858C155.53 138.857 155.53 138.857 155.53 138.856C155.549 138.774 155.563 138.712 155.581 138.626C155.603 138.517 155.622 138.423 155.642 138.309C155.661 138.199 155.681 138.085 155.699 137.968C155.717 137.852 155.735 137.734 155.752 137.613C155.77 137.493 155.787 137.37 155.804 137.246C155.821 137.123 155.837 136.998 155.853 136.871C155.87 136.745 155.886 136.618 155.903 136.489C155.941 136.194 156.038 135.917 156.176 135.719C156.314 135.523 156.48 135.424 156.64 135.441C156.8 135.458 156.943 135.59 157.038 135.813C157.132 136.035 157.171 136.328 157.147 136.625C157.14 136.706 157.134 136.788 157.127 136.869C157.123 136.918 157.119 136.967 157.115 137.015C157.104 137.146 157.093 137.279 157.082 137.412C157.07 137.544 157.057 137.678 157.044 137.813C157.031 137.949 157.017 138.086 157.002 138.226C156.987 138.364 156.97 138.506 156.952 138.65C156.934 138.79 156.911 138.949 156.889 139.092C156.873 139.196 156.85 139.324 156.831 139.43C156.81 139.542 156.789 139.651 156.768 139.756C156.747 139.861 156.726 139.964 156.705 140.062C156.703 140.073 156.701 140.083 156.699 140.094C156.681 140.18 156.664 140.264 156.648 140.344C156.63 140.432 156.613 140.516 156.599 140.596C156.582 140.684 156.574 140.737 156.564 140.803C156.451 141.673 156.339 142.747 156.229 143.767C156.216 143.895 156.202 144.022 156.188 144.15C156.116 144.826 156.044 145.499 155.971 146.17C155.918 146.658 155.865 147.145 155.81 147.631C155.731 148.344 155.648 149.075 155.565 149.794C155.513 150.242 155.461 150.681 155.408 151.125C155.269 152.28 155.122 153.462 154.969 154.626C154.816 155.787 154.653 156.964 154.479 158.136C154.305 159.301 154.113 160.509 153.906 161.679C153.753 162.538 153.57 163.405 153.391 164.215C153.295 164.651 153.199 165.077 153.104 165.496C153.104 165.497 153.103 165.498 153.103 165.5C153.019 165.867 152.937 166.23 152.856 166.589C152.683 167.358 152.517 168.117 152.36 168.88C152.202 169.64 152.054 170.395 151.914 171.155C151.775 171.909 151.64 172.688 151.516 173.451C151.39 174.221 151.276 174.966 151.158 175.767C151.005 176.815 150.862 177.853 150.717 178.914C150.572 179.978 150.428 181.047 150.284 182.112C150.234 182.484 150.183 182.86 150.132 183.237C150.131 183.238 150.131 183.239 150.131 183.241C150.037 183.937 149.942 184.633 149.847 185.327C149.7 186.393 149.549 187.483 149.395 188.56C149.242 189.635 149.083 190.728 148.917 191.818C148.752 192.906 148.575 194.026 148.379 195.149C148.205 196.149 148.024 197.151 147.846 198.14C147.799 198.401 147.752 198.661 147.705 198.921C147.484 200.149 147.273 201.351 147.084 202.534C146.896 203.71 146.723 204.905 146.565 206.1C146.409 207.286 146.261 208.51 146.123 209.727C145.986 210.945 145.856 212.175 145.733 213.405C145.61 214.629 145.491 215.874 145.378 217.116C145.314 217.811 145.241 218.554 145.17 219.249C145.099 219.952 145.026 220.646 144.952 221.34C144.922 221.62 144.892 221.899 144.863 222.176C144.82 222.579 144.778 222.977 144.737 223.369C144.67 224.028 144.605 224.685 144.55 225.313C144.494 225.944 144.448 226.551 144.413 227.144C144.376 227.76 144.356 228.268 144.343 228.874C144.28 230.339 144.203 231.259 144.121 232.263C144.105 232.461 144.089 232.663 144.073 232.874C144.063 232.99 144.053 233.107 144.044 233.223C143.958 234.263 143.863 235.35 143.766 236.455C143.666 237.607 143.559 238.802 143.45 240.016C143.347 241.163 143.237 242.36 143.125 243.576C143.018 244.728 142.907 245.908 142.793 247.121C142.68 248.303 142.566 249.484 142.45 250.668C142.383 251.359 142.311 252.055 142.243 252.711C142.193 253.185 142.144 253.655 142.097 254.119C142.077 254.309 142.058 254.498 142.039 254.686C141.974 255.334 141.913 255.971 141.862 256.557C141.811 257.152 141.767 257.733 141.733 258.305C141.7 258.879 141.676 259.445 141.662 260.016C141.648 260.608 141.645 261.07 141.651 261.687C141.655 262.087 141.661 262.481 141.667 262.875C141.676 263.466 141.686 264.055 141.699 264.653C141.712 265.252 141.728 265.811 141.746 266.395C141.752 266.581 141.759 266.779 141.765 266.966C141.785 267.546 141.807 268.123 141.832 268.702C141.858 269.28 141.886 269.86 141.919 270.413C141.952 270.975 141.987 271.53 142.028 272.099C142.097 273.065 142.124 273.999 142.141 274.816C142.158 275.625 142.165 276.386 142.175 277.131C142.176 277.27 142.178 277.409 142.18 277.549C142.188 278.151 142.196 278.745 142.208 279.333C142.222 280.065 142.241 280.746 142.265 281.453C142.289 282.151 142.319 282.858 142.355 283.557C142.391 284.26 142.431 284.95 142.481 285.661C142.529 286.371 142.592 287.094 142.663 287.89C142.733 288.679 142.808 289.51 142.878 290.355C142.949 291.184 143.015 292.03 143.075 292.872C143.134 293.717 143.189 294.567 143.237 295.409C143.286 296.254 143.329 297.077 143.369 297.909C143.409 298.736 143.447 299.595 143.48 300.401C143.534 301.712 143.588 302.983 143.648 304.282C143.708 305.568 143.773 306.873 143.842 308.151C143.911 309.432 143.986 310.72 144.068 312.01C144.149 313.296 144.235 314.572 144.329 315.856C144.349 316.139 144.37 316.423 144.392 316.707C144.467 317.709 144.546 318.705 144.629 319.695C144.629 319.702 144.63 319.708 144.63 319.715C144.738 320.991 144.85 322.246 144.974 323.514C145.02 323.981 145.064 324.423 145.111 324.876C145.159 325.329 145.207 325.774 145.257 326.222C145.308 326.671 145.36 327.118 145.414 327.557C145.469 328.002 145.524 328.435 145.583 328.871C145.638 329.272 145.695 329.669 145.758 330.101C145.764 330.14 145.77 330.18 145.775 330.219C145.845 330.692 145.921 331.23 145.986 331.732C146.156 333.06 146.336 334.356 146.531 335.67C146.727 336.984 146.936 338.294 147.157 339.613C147.243 340.128 147.332 340.646 147.422 341.162C147.562 341.966 147.705 342.772 147.852 343.58C148.092 344.909 148.339 346.239 148.591 347.578C148.842 348.912 149.097 350.252 149.353 351.586C149.609 352.917 149.87 354.264 150.13 355.589C150.42 357.065 150.717 358.53 151.029 360.002C151.339 361.472 151.659 362.931 151.994 364.391C152.329 365.855 152.676 367.309 153.036 368.757C153.398 370.209 153.774 371.662 154.163 373.103C154.396 373.966 154.634 374.826 154.879 375.691C155.053 376.133 155.222 376.556 155.385 376.962C156.592 379.948 157.517 382.103 158.7 384.912C158.819 385.178 158.926 385.395 159.056 385.656C159.081 385.706 159.107 385.759 159.134 385.813C159.304 386.155 159.496 386.547 159.742 387.1C160.234 388.206 160.915 389.903 161.616 392.214C161.792 392.795 161.646 393.281 161.285 393.301C161.031 393.314 160.739 393.092 160.526 392.755C160.784 393.437 161.043 394.116 161.307 394.789C161.412 395.058 161.455 395.335 161.424 395.562C161.393 395.788 161.291 395.944 161.138 395.997C160.986 396.051 160.793 395.996 160.602 395.845C160.411 395.694 160.237 395.459 160.117 395.193C159.801 394.486 159.491 393.777 159.183 393.066C158.876 392.354 158.57 391.639 158.271 390.927C157.973 390.217 157.677 389.504 157.384 388.786C157.092 388.07 156.802 387.35 156.516 386.626C156.227 385.893 155.951 385.187 155.673 384.459C155.506 384.024 155.34 383.582 155.177 383.148C155.116 382.986 155.057 382.827 154.998 382.669C154.95 382.54 154.902 382.409 154.852 382.275C154.329 380.859 153.823 379.438 153.333 378.015C152.841 376.587 152.363 375.146 151.904 373.713C151.444 372.276 150.997 370.826 150.566 369.378C150.136 367.933 149.719 366.481 149.315 365.019C148.911 363.562 148.523 362.104 148.145 360.637C147.853 359.504 147.57 358.377 147.295 357.25C147.162 356.811 147.033 356.377 146.907 355.947C146.542 354.696 146.158 353.44 145.79 352.206C146.307 354.435 146.789 356.213 147.261 357.895C147.324 358.121 147.387 358.344 147.45 358.568C148.099 360.854 148.73 363.042 149.504 366.023C151.725 374.48 153.392 379.266 154.369 382.268C155.367 385.268 155.757 386.558 156.003 387.833C156.345 389.627 157.514 392.894 158.229 394.488C158.485 395.067 158.44 395.648 158.125 395.789C157.809 395.93 157.34 395.573 157.082 394.99C156.319 393.291 155.035 389.736 154.63 387.581C154.448 386.616 154.148 385.572 153.159 382.596C152.192 379.619 150.526 374.845 148.289 366.325C147.539 363.436 146.928 361.321 146.282 359.047C146.219 358.824 146.155 358.601 146.092 358.375C146.091 358.374 146.091 358.372 146.091 358.371C145.507 356.289 144.887 354.005 144.214 350.9C142.624 343.743 140.982 334.009 140.573 331.699C140.488 331.247 140.403 330.81 140.315 330.35C139.98 328.571 139.563 326.445 138.966 321.569C138.836 320.503 138.702 319.265 138.57 317.895C138.211 315.854 137.89 313.891 137.663 312.16C137.468 310.666 137.223 309.297 136.973 307.975C136.901 307.595 136.828 307.213 136.755 306.825C136.578 305.894 136.406 304.964 136.265 304.058C136.152 303.336 136.025 302.582 135.893 301.786C135.412 298.857 134.861 295.348 134.742 290.775C134.618 285.884 134.667 281.744 134.752 278.139C134.66 280.811 134.575 282.795 134.505 284.52C134.492 284.842 134.48 285.156 134.468 285.446C134.385 287.515 134.337 289.044 134.38 290.681C134.6 298.44 134.894 301.361 135.377 304.611C135.507 305.47 135.672 306.421 135.855 307.442C136.217 309.462 136.651 311.803 137.009 314.295C137.342 316.618 137.789 319.224 138.295 321.96C138.296 321.961 138.296 321.962 138.296 321.963C138.395 322.499 138.496 323.042 138.599 323.589C139.228 326.916 139.928 330.411 140.573 333.804C140.642 334.167 140.728 334.602 140.829 335.101C141.412 337.98 142.464 343.014 143.474 349.213C143.697 350.575 143.893 351.998 144.133 353.619C144.207 354.114 144.284 354.628 144.368 355.163C144.731 357.473 145.214 360.278 146.061 363.965C146.762 367.011 147.732 370.692 148.863 374.489C149.416 376.35 150.012 378.258 150.619 380.115C152.46 385.742 154.34 390.826 156.475 395.833C156.475 395.834 156.476 395.835 156.476 395.836C156.727 396.425 156.673 397.002 156.35 397.126C156.027 397.25 155.556 396.871 155.302 396.277C153.151 391.226 151.266 386.12 149.42 380.476C148.819 378.635 148.223 376.73 147.669 374.865C146.525 371.027 145.536 367.274 144.826 364.184C143.961 360.413 143.469 357.544 143.1 355.19C143.012 354.623 142.932 354.089 142.857 353.582C142.62 351.972 142.436 350.631 142.225 349.333C141.245 343.303 140.224 338.44 139.636 335.54C139.531 335.026 139.441 334.573 139.368 334.187C138.731 330.848 138.037 327.394 137.405 324.06C137.302 323.517 137.201 322.977 137.102 322.442C137.102 322.441 137.101 322.439 137.101 322.438C136.591 319.692 136.133 317.034 135.791 314.658C135.444 312.256 135.048 310.13 134.693 308.173C134.503 307.127 134.323 306.09 134.169 305.083C133.652 301.62 133.351 298.535 133.129 290.725ZM160.129 391.698C159.674 390.254 159.246 389.131 158.893 388.292C159.15 389.019 159.41 389.741 159.673 390.462C159.823 390.873 159.976 391.287 160.129 391.698ZM139.798 317.592C139.841 317.837 139.885 318.084 139.929 318.332C139.854 317.644 139.782 316.956 139.712 316.27C139.626 315.427 139.544 314.586 139.464 313.747C139.57 315.083 139.682 316.381 139.798 317.592ZM135.993 290.733C136.105 295.031 136.605 298.247 137.077 301.144C137.213 301.98 137.347 302.773 137.47 303.57C137.522 303.9 137.577 304.229 137.635 304.562C137.542 302.615 137.473 300.829 137.424 299.354C137.282 294.998 137.326 292.469 137.366 290.302C137.378 289.662 137.391 289.05 137.402 288.427C137.35 287.913 137.299 287.381 137.254 286.844C137.191 286.089 137.131 285.296 137.081 284.504C137.031 283.718 136.987 282.923 136.951 282.146C136.915 281.362 136.887 280.589 136.864 279.823C136.842 279.086 136.826 278.354 136.812 277.65C136.811 277.61 136.81 277.57 136.809 277.529C136.794 276.785 136.782 276.066 136.764 275.408C136.745 274.744 136.721 274.17 136.682 273.667C136.634 273.038 136.589 272.396 136.549 271.764C136.509 271.132 136.474 270.506 136.444 269.884C136.413 269.258 136.387 268.616 136.364 267.989C136.357 267.786 136.349 267.573 136.343 267.372C136.34 267.279 136.337 267.187 136.334 267.095C136.294 268.312 136.254 269.62 136.217 270.906C136.164 272.785 136.092 274.847 136.032 277.057C135.931 280.906 135.855 285.274 135.993 290.733ZM137.166 248.556C137.131 249.084 137.084 249.863 137.028 250.887C137.014 251.134 137.001 251.375 136.988 251.634C136.988 251.628 136.989 251.622 136.989 251.616C137.062 250.995 137.134 250.355 137.205 249.711C137.333 248.54 137.452 247.486 137.578 246.322C137.704 245.167 137.825 244.053 137.946 242.94C138.072 241.775 138.195 240.638 138.313 239.542C138.437 238.39 138.561 237.244 138.678 236.148C138.713 235.811 138.756 235.413 138.794 235.05C138.666 235.898 138.554 236.674 138.432 237.565C138.337 238.26 138.232 239.055 138.132 239.797C138.093 240.086 138.043 240.439 137.984 240.855C137.751 242.528 137.398 245.126 137.166 248.556ZM139.595 226.031C139.622 225.77 139.65 225.51 139.679 225.253C139.762 224.521 139.851 223.807 139.942 223.104C140.005 222.615 140.069 222.132 140.133 221.655C140.16 221.453 140.186 221.252 140.213 221.052C140.258 220.718 140.302 220.385 140.346 220.054C139.975 222.361 139.631 224.609 139.305 226.962C139.301 226.993 139.297 227.024 139.293 227.056C139.395 226.707 139.497 226.36 139.595 226.031Z" fill="#FFE1B2"/>
<path d="M152.795 1190.15C151.607 1189.88 143.459 1189.33 142.944 1189.69C142.795 1189.79 142.127 1191.38 142.022 1191.72C140.929 1195.21 141.592 1209.47 141.65 1214C141.789 1224.77 142.804 1235.54 142.658 1246.32C142.714 1244.92 143.191 1243.26 143.12 1241.81L144.316 1242.82C142.856 1228.58 142.882 1213.75 143.127 1199.45C143.506 1199.31 143.982 1200.67 144.047 1200.92C145.237 1205.55 144.291 1221.88 144.596 1227.99C145.018 1236.48 145.633 1245.8 146.525 1254.24C146.746 1256.33 146.504 1258.12 147.721 1260.59C150.481 1266.19 154.386 1265.31 158.862 1262.15C160.846 1259.41 158.152 1259.13 156.192 1260.59L157.39 1252.21C156.998 1235.68 156.891 1219.03 154.912 1202.58C154.613 1200.09 152.835 1196.03 153.901 1193.83C154.049 1193.52 153.959 1193.03 153.993 1193C154.653 1192.53 158.475 1193.88 158.228 1192.63C157.847 1190.71 154.355 1191.13 153.072 1190.79C152.525 1190.65 152.83 1190.16 152.795 1190.15L152.795 1190.15Z" fill="#F8CB83"/>
<path d="M152.795 1190.15C152.83 1190.16 152.525 1190.65 153.072 1190.79C154.355 1191.13 157.846 1190.71 158.228 1192.63C158.475 1193.88 154.653 1192.53 153.993 1193C153.959 1193.03 154.049 1193.53 153.901 1193.83C158.495 1213.52 159.087 1234.21 157.85 1254.33C157.241 1255.04 157.397 1252.49 157.39 1252.21L156.192 1260.59C158.152 1259.14 160.846 1259.41 158.862 1262.15C154.304 1268.46 148.708 1264.47 145.419 1259.39C147.724 1266.12 155.23 1268.27 159.691 1262.06C161.93 1258.95 161.604 1248.91 161.535 1244.93C161.236 1227.72 159.575 1210.4 158.781 1193.19C158.587 1190.21 154.954 1190.85 152.797 1190.15L152.795 1190.15Z" fill="#F8CB83"/>
<path d="M142.656 1246.32C142.502 1250.16 143.338 1256.19 145.417 1259.39C148.706 1264.47 154.303 1268.46 158.86 1262.15C154.384 1265.31 150.479 1266.19 147.719 1260.59C146.501 1258.12 146.743 1256.33 146.523 1254.24C144.763 1250.8 144.702 1246.59 144.315 1242.82L143.119 1241.81C143.191 1243.26 142.714 1244.92 142.657 1246.32L142.656 1246.32Z" fill="#F8CB83"/>
<path d="M154.732 1165.2C154.352 1164.81 145.225 1165.12 143.867 1164.46C143.576 1164.68 143.763 1167.82 143.867 1167.96C144.706 1169.11 153.583 1169.41 155.1 1168.33C155.253 1168.13 154.889 1165.36 154.732 1165.2Z" fill="#FFE1B2"/>
<path d="M153.898 1193.83C152.832 1196.03 154.61 1200.09 154.91 1202.58C156.888 1219.03 156.995 1235.68 157.388 1252.21C157.395 1252.49 157.238 1255.04 157.848 1254.33C159.085 1234.21 158.493 1213.51 153.898 1193.83Z" fill="#F8CB83"/>
<path d="M144.315 1242.82C144.702 1246.59 144.762 1250.8 146.524 1254.24C145.632 1245.81 145.016 1236.48 144.594 1228C144.29 1221.88 145.235 1205.55 144.046 1200.93C143.981 1200.67 143.504 1199.31 143.125 1199.45C142.881 1213.76 142.855 1228.58 144.315 1242.82L144.315 1242.82Z" fill="#F8CB83"/>
<path d="M154.362 1178.45L145.522 1178.27L143.679 1188.77L157.306 1190.42L154.362 1178.45Z" fill="#FFE1B2"/>
<path d="M152.334 1181.58C151.966 1181.2 150.896 1181.56 151.23 1182.32C151.719 1183.43 152.814 1182.08 152.334 1181.58Z" fill="#FFE1B2"/>
<path d="M149.02 1185.64C148.767 1185.08 147.294 1185.31 147.731 1186.19C148.084 1186.89 149.296 1186.24 149.02 1185.64Z" fill="#FFE1B2"/>
<path d="M150.493 1184.16C150.401 1183.34 148.701 1183.99 149.204 1184.71C149.383 1184.97 150.57 1184.84 150.493 1184.16Z" fill="#FFE1B2"/>
<path d="M152.888 1185.08C152.537 1184.53 151.632 1185.11 151.967 1185.63C152.319 1186.19 153.223 1185.61 152.888 1185.08Z" fill="#FFE1B2"/>
<path d="M146.627 1185.08C146.478 1184.26 145.231 1184.92 145.522 1185.45C145.765 1185.89 146.715 1185.57 146.627 1185.08Z" fill="#FFE1B2"/>
<path d="M146.811 1180.48C146.276 1179.68 145.784 1180.95 146.074 1181.21C146.364 1181.48 147.112 1180.92 146.811 1180.48Z" fill="#FFE1B2"/>
<path d="M148.561 1178.18L149.39 1177.53C148.5 1177.83 147.037 1176.93 146.443 1176.24C149.918 1176.36 153.063 1178.61 154.455 1174.49C154.69 1173.79 155.138 1169.57 154.731 1169.24L144.419 1169.06C144.576 1170.11 145.819 1177.18 146.074 1177.53C146.354 1177.91 148.02 1178.11 148.56 1178.18L148.561 1178.18Z" fill="#FFE1B2"/>
<path d="M148.561 1178.18C151.186 1178.51 154.976 1177.93 154.454 1174.49C153.063 1178.62 149.918 1176.36 146.443 1176.24C147.036 1176.93 148.499 1177.83 149.389 1177.53L148.561 1178.18Z" fill="#FFE1B2"/>
<path d="M152.522 1173.67C152.075 1173.22 151.382 1174.16 151.417 1174.4C151.507 1175.06 153.02 1174.16 152.522 1173.67Z" fill="#FFE1B2"/>
<path d="M149.021 1173.48C148.67 1172.93 147.765 1173.51 148.1 1174.03C148.452 1174.59 149.356 1174.01 149.021 1173.48Z" fill="#FFE1B2"/>
<path d="M147.547 1171.27C147.293 1170.12 146.002 1171.18 146.811 1171.64C146.847 1171.66 147.59 1171.46 147.547 1171.27Z" fill="#FFE1B2"/>
<path d="M151.232 1172.01C150.985 1171.88 150.39 1172.54 150.863 1172.74C151.252 1172.91 151.316 1172.05 151.232 1172.01Z" fill="#FFE1B2"/>
<path d="M173.803 1095.13C173.186 1095.56 173.927 1096.04 174.263 1096.33C197.672 1116.08 188.407 1152.89 159.981 1162.72C190.745 1154.95 198.249 1114.55 173.803 1095.13Z" fill="#BEC9D9"/>
<path d="M159.982 1162.71C188.408 1152.89 197.673 1116.08 174.264 1096.32C173.928 1096.04 173.187 1095.56 173.804 1095.13C147.964 1074.6 108.392 1095.34 111.461 1128.93C113.539 1151.67 137.843 1170.37 159.98 1162.71L159.982 1162.71Z" fill="#E0E5EC"/>
<path d="M174.448 1100.93C163.965 1090.29 144.796 1088.35 132.093 1095.96C100.929 1114.64 116.65 1163.44 153.629 1159.86C182.869 1157.03 194.177 1120.94 174.448 1100.93Z" fill="#D4DEEC"/>
<path d="M175.92 1104.25C146.831 1069.99 97.6508 1112.91 122.325 1144.95C152.246 1183.81 203.988 1137.3 175.92 1104.25Z" fill="#F9F9F9"/>
<path d="M146.274 1094.49C137.024 1096.95 126.5 1103.79 122.331 1112.72C119.529 1118.72 119.047 1131.11 122.143 1137.03C124.663 1141.85 127.637 1145.11 133.191 1142.55C127.219 1138 124.961 1130.41 124.539 1123.22C123.877 1111.92 130.877 1104.82 139.828 1098.91C141.928 1097.52 145.022 1097.47 146.274 1094.49Z" fill="#E2E8EC"/>
<path d="M176.656 1110.14C176.191 1109.62 173.431 1107.37 172.974 1108.11C180.057 1123.91 177.293 1147.08 157.682 1151.76C158.661 1154.67 161.373 1154.12 163.574 1153.23C176.942 1147.83 187.485 1122.12 176.656 1110.14Z" fill="white"/>
</svg>
