<svg xmlns="http://www.w3.org/2000/svg" width="153" height="1681" fill="none" viewBox="0 0 153 1681"><path fill="#9ebb8e" d="M94.73 987.74c.4 3.78 2.04 8.06 4.71 10.85s7.33 5.49 11.16 6.21c7.24 1.38-1.37-3.88-2.43-4.82-6.59-5.85-10.85-12.2-7.3-21.26-.45-.25-4.85 6.37-5.05 4.98a354 354 0 0 0 11.47-36.9c-1.5 2.1-2.38 5.4-3.15 8-2.92 9.79-7.37 21.9-8.77 31.77-.08.56-.45.72-.64 1.16"/><path fill="#d4deec" d="M127.62 902.16c-5 14.6-9.7 29.26-14.56 43.92.3.11.25.58.53.68 1.37.5 3.6.4 5.07.67 8.66-20.24 12.95-44.6 21.87-64.48 7.14-15.9 28.75-7.28 28.03 5.02-.37 6.43-6.5 21.18-8.8 28.1-2.2 6.57-4.58 13.06-6.76 19.63-6 18.02-11.55 38.87-18.08 56.06 1.5 1.16 2.53 2.74 4.54 3.01 14.1-31.2 21.26-69.27 34.56-101.23 6.29-20.57-20.7-35.54-34.87-19.34-5.31 6.08-8.83 20.03-11.53 27.96"/><path fill="#d4deec" d="M163.7 870.4c-7.87-3.59-16.83-3.25-22.66 3.42 2.21-.35 4.02-2.06 6.11-2.87 10.75-4.18 19.98 2.25 25.78 11.06-.07-4.45-5.24-9.78-9.24-11.6M126.78 916.46l-3 8.68-2.32 8.9c1.39-2.76 1.84-5.86 2.77-8.75.9-2.76 2.93-5.8 2.55-8.83M145.27 972.33l-1.28 2.71-.97 3.32c1.35-1.8 1.35-4.05 2.25-6.03"/><path fill="#9ebb8e" d="M94.73 987.74c.19-.45.56-.6.64-1.17 1.4-9.87 5.85-21.98 8.77-31.77.77-2.6 1.64-5.9 3.15-8a354 354 0 0 1-11.47 36.9c.2 1.4 4.6-5.23 5.05-4.98-3.55 9.07.71 15.42 7.3 21.26 1.06.95 9.67 6.2 2.42 4.83-3.82-.73-8.45-3.4-11.15-6.21 3.34 6.09 15.24 10.87 21.82 10.49 8.26-.48 14.97-7.16 18.2-14.31-2.01-.28-3.05-1.85-4.53-3.01a16.6 16.6 0 0 1-22.38 9.41c-15.71-6.88-10.66-20-6.99-32.46 1.09-3.67 2.19-7.3 3.38-10.94 1.28-3.92 2.84-7.8 4.13-11.7 4.84-14.65 9.56-29.31 14.55-43.91-1.52-.19-5.2-2.52-6.16-1.16l-26.93 82.77c-.4 1.53.06 2.59.2 3.96"/><path fill="#9ebb8e" d="M123.5 902.05c-1.98-1.49-2.62 2.92-3.16 4.6a811 811 0 0 0-13.64 48.37c5.49-15.21 10.85-30.55 15.16-46.1.4-1.45 2.84-5.97 1.64-6.87M135.34 993.16l-7.3 8.38c3.2-1.83 5.85-5 7.3-8.38M118.66 947.43c-1.48-.27-3.7-.17-5.06-.67-1.69 3.6-2.92 7.4-4.2 11.17-1.1 3.21-2.95 7.69-3.6 10.86-3.5 16.85 19.59 26.73 30.12 13.13 4.83-6.23 13.63-36.82 16.85-46.3 2.23-6.54 4.31-13.15 6.53-19.7-.16-.2-.77-1.47-.87-1.54-1.49-.92-5.16-2.14-5.74.23-7.24 18.14-11.36 39.25-18.9 57.05-3.53 8.32-10.55 14.54-18.58 6.29-8.53-8.79 3.29-20.94 3.45-30.52"/><path fill="#9ebb8e" d="M156.24 914.92c-1.15-.98-2.25.2-2.8 1.2a773 773 0 0 1-11.7 36.83c-3.6 10.32-7 25.2-16.62 31.17-1.91 1.2-2.24-.3-4-.44-.51-.05-1.37.6-1.96.6-.89.01-3.42-.83-3.93.08-1.6 2.88 8.58 1.98 9.9 1.65 7.04-1.77 9.17-6.54 11.67-12.84 6.52-16.38 12.17-35.4 18.09-52.3.38-1.1 2.12-5.3 1.34-5.95zM115.45 947.62c-.94-.58-1.36.36-1.74 1.06-1.85 3.46-6.46 18.07-7.35 22.19-.75 3.46 1.95 8.48 4.71 10.48.55.08.34-1.09.3-1.29-.32-1.67-2.5-4.42-3.04-6.78-1.22-5.43 2.18-12.44 4.12-17.74.38-1.04 3.45-7.5 3-7.92M115 980.9c-.79-.47-.59.14-.23.67.4-.04.57-.48.23-.68"/><path fill="#f1a198" d="M135.06 502.77c1.43.67 4.09-7.37 6-8.1-6.02-19.1-12.3-38.12-19.33-56.87l-6.2 9.6c5.4 14.13 9.58 28.75 14.69 42.96.55 1.53 4.25 12.13 4.84 12.4z"/><path fill="#e0e5ec" d="M112.23 411.8c-.04-.04-.75-.04-.72-.73-1.17.07-6.26 6.4-6.3 8.09l9.72 26.77.7-.41c1.93-3.02 3.14-6.59 5.73-9.06.4-1.26-7.64-23.2-9.14-24.67"/><path fill="#f1a198" d="M132.06 498.18c-3.14-7.95-6-16.37-8.83-24.66-2.94-8.59-5.89-17.2-8.64-25.84-11.19 3.1-23.13 1.12-34.47 3.08l21.15 55.31 30.4-.68c4.84-.33 1.45-4.53.39-7.21"/><path fill="#f1a198" d="m132.06 498.18-8.83-24.66c2.84 8.3 5.68 16.71 8.83 24.66M103 501.87l-.22-3.03c-3.67-10.19-8.2-20.22-12.03-30.33-1.65-4.32-1.68-9.85-5.36-13.5zM125.24 487.57c-1.86-5.8-3-13.42-5.64-18.68-.1-.17-.66-1.48-1.03-.73l6.08 19.88-1.18-1.3c1.32 5.47 4.45 10.64 5.34 16.07.18-.04 1-.05 1.08-.2-.96-3.16.34-.25.65-.6-1.67-4.86-3.72-9.56-5.3-14.44M114.67 458.06c-.47-.1-.09.97-.07 1.25.3 3.76 3.2 11.66 4.56 15.48.57 1.6 1.37 3.75 2.42 5.07z"/><path fill="#f1a198" d="M125.24 487.57c1.58 4.89 3.63 9.58 5.3 14.44-.31.35-1.6-2.56-.65.6-.07.15-.9.16-1.08.2-1.55.38-3.72-.32-5.33.4 1.32.27 6.86.46 7.41-.68zM114.6 459.3c-.02-.28-.4-1.35.07-1.25-.86-.93-2.12-5.22-2.7-5.71-1.7-1.44-8.72-.3-11.06.08 2.25.66 8.92-1.03 10.54.27.57.46 1.88 5.83 3.15 6.62M86.06 452.97c4.81-.38 9.63-.57 14.39-1.45l-7.32.25zM103.55 503.15c1.6 1.35 8 .05 10.17.39-.03-.63-.34-.53-.78-.6-2.2-.39-6.29.81-8.77.24l-.7-1.04c-.58.08 0 .94.08 1.01"/><path fill="#fff" d="M105.21 419.16c.04-1.69 5.13-8.03 6.3-8.09-.03.69.68.69.71.73-.52-2.04-2.96-3.58-4.77-4.3-2.94-1.18-27.04.8-29.93 2.4-3.5 1.93-9.3 8.96-8.7 13.2l11.28 26.84c2.47-.43 5.05-.8 7.55-.93 6.44-.33 16.66.17 22.54-.9 1.29-.23 2.55-.8 3.76-1.28z"/><path fill="#e0e5ec" d="M74.6 419.08c6.75-1.08 23.36.13 28.39-3.92 1.38-1.11 2.26-2.88 3.76-3.86.8-5-6.72-1.5-9.06-1.21-4.22.53-17.02.56-19.92 2.2-1.8 1.03-5.83 4.82-3.17 6.79"/><path fill="#d4deec" d="M106.75 411.3c-1.5.98-2.38 2.75-3.77 3.87-5.02 4.04-21.63 2.83-28.38 3.9-1.13.19-2.26.57-3.36.87.05.65.3.5.78.6 2.1.45 24.25-1.62 26.87-2.35 3.04-.85 7.32-3.54 7.86-6.88"/><path fill="#dcd9d8" d="M81.68 445.98c.56.48 3.46 1.1 3.65.6-2.38-2.34-2.95-5.76-5.4-7.72-.36 1.09 1.27 6.71 1.75 7.12"/><path fill="#79a363" fill-opacity=".8" d="M185.5 664.24c0 24.03-13.48 45.49-37.5 45.49s-48-21.46-48-45.49c0-27.51 25-50.51 50.5-37.5 21 10.7 35 13.48 35 37.5"/><path fill="#79a363" fill-opacity=".8" d="M161 665.6c0 10.24-5.67 19.4-15.79 19.4S125 675.84 125 665.6c0-11.74 10.53-21.56 21.26-16 8.84 4.56 14.74 5.75 14.74 16"/><path fill="#f1a198" d="M61 1485.5c0-37.03 16.5-116.5 92.5-155.5v350.5c-41-22-92.5-94.5-92.5-195"/><path fill="#fff" d="M154.73 1355.33c-1.68.86-3.2 1.95-4.47 3.37-.29.33-.03.54-.13.7-.17.29-.81.41-.87.46-.35.33.19.62.15.68-.35.66-.66.04-1.2.47-.69.56-1.42 1.44-2.15 2.23-.26.27.17.46-.42 1.01-.42.39-2 1.32-2.16 2.28.14.14.38.22.56.33-1.4.27-1.67.6-2.61 1.96-.15.22-.57.17-.78.6-.2.43.18.79-.43 1.48-.21.24-.62.15-.96.52-.97 1.05-2.32 3.43-3.02 4.35-1.4 1.82-2.67 2.42-3.7 4.19-.08.14.45.1.29.34s-.79.16-.84.21c-.57.54-.92 2.28-1.24 2.58-.77.72-.38-.25-1.3.87-.86 1.07-1.33 3.04-1.96 4.25-.72 1.4-1.86 1.27-1.58 2.85q-3.4 5.22-6.43 10.68l.59.27-.86.65.5.1a9 9 0 0 0-2.86 3.82c-.02.04.4.15.4.18-.1.4-.6.65-.7 1-.21.86-.01 2.58-.76 1.5-.67 1.91-2.02 3.87-2.6 5.71-.26.79.26 1.29.14 1.67-.13.38-.58-.04-.66.08-.45.72-.98 2-.44 2.38l-.92.18c.7.18-.59 2.47-.83 3.11-.04.12.24.25.2.34-.42.95-.98.99-1.46 1.78-.17.27.53.02 0 .69-.04.05-.5-.16-.84.74-.56 1.44-1.78 4.15-2.16 5.97-.03.15.64-.1.3.51-.13.22-.46-.02-.66.54-.8 2.22-1.15 4.72-2.21 6.91.44.04 1.16-.63.52.52-.1.18-.43-.08-.47 0-.33.68-.25 1.38-.62 2.1-.11.22-.42.19-.58.45-.22.39.14.69-.18 1.14-.5.69-.94.7-.42 1.87-1.55 5.37-3.07 10.75-3.76 16.3-.53 1.57-1.05 2.97-1.4 4.63-.11.49.42.67.12 1.43-.07.17-.85 1.34.24 1.67-.15.33-.18.55-.28.84l-.4-.74c0 1.26-.53 2.29-.85 3.39-.23.81.31.28.2.77-.1.5-.23.72.27 1.43-.71.44-.28.82-.35 1.75-.01.09-.32.64-.3 1.12 0 .34.4.48.3 1.03-.02.09-.61 1.23-.68 1.6-.11.57.37 1.5.37 1.61.02 1.66-.52 2.27.32 3.42-.51.21-.83 1.22-.77 2 .06.98 1.17 2.94.08 3.26.55 1.14.23.97.32 2.38.04.56.2 1.5.4 2.43.24 1.2.53 2.43.57 2.98.08.99-.6.6-.62 1-.05.66.35.25.41.68.17 1.24.25 2.33.26 3.53l.98.04-.28.23.14.77c-1.73-1.73.44 1.89.72 3.02.23.97-.07 2.73.03 3.83.03.27.32.01.33.07.05.64-.16.79.07 1.63.13.44.66.78.77 1.21.85 3.14 1.3 6.28 2.25 9.39.17.53.81.81.97 1.25.23.62-.05 1.15.15 1.74s.98 1.26 1.05 1.68-.64-.08-.25.59c.18.31.31-.4.48 0 .5 1.26.76 3.24 1.72 4.41q-.19-.04-.38-.1c.62 1.42 1.4 2.58 2.08 4.01.23.51.35 1.56.58 2.06.24.5.66.57.86.96.08.16-.24.24-.18.34.73 1.34 1.6 1.83 2.26 3.26a121 121 0 0 0 8.56 15.49c.13.2-.11.57.04.89.24.5.55.3.6.35.34.34-.04.38.33.89.81 1.12 2.42 2.71 3.26 3.8 1.95 2.51 3.47 4.74 5.51 7.13.15.17.4-.28.67 0 1.95 1.93 2.03 2.7 4.66 4.94 2.6 2.25 7.87 6.08 11.3 8.19.55 1.46 2.1 2.16 3.62 2.26-5.56-5.9-11.81-9.61-17.6-15.57-6.05-6.27-10.28-14.57-14.87-21.83-.44-.68-1.05-.71-1.3-1.35-.04-.11.45-.05.3-.38-1.96-4.48-5.1-8.73-6.79-13.25-.45-1.22-.12-1.58-.45-2.67-.11.26-.27.47-.4.71-2.6-4.56-4.06-9.61-5.62-14.65-.07-.23-.5-.14-.58-.38-.17-.47.16-1.06.06-1.48-.14-.56-.5-.56-.6-1.08-.06-.25.28-.26.08-.79-.02-.04-.36.02-.41-.36-.14-1.01-.34-3.1-.44-3.94-.13-1.07-.83-1.8-.95-2.19-.31-1.06.22-1.15.04-2.06-.77-3.86-1.58-7.61-2.2-11.46a51 51 0 0 1-.66-8.05c0-.43.6-2.03.6-2.79 0-.26-.1-1.65-.1-1.87-.02-.86-.34-1.57-.39-2.04-.1-.91.55-1.9.65-2.37.16-.83.23-2.35.26-2.72.05-.88-.67-.67-.44-1.28.07-.17.58.08.65-.56.06-.53-.31-.8-.34-1.18-.02-.38.68-.98.7-1.21.08-1.25-.26-1.79-.08-3.11a53 53 0 0 1 1.53-6.43c1-1.71.11 1.3.1 1.49-.04.96.24.87-.4 1.72 1.32 1.05-1.44 3.66.2 4.65-1.26.6-.77 1.35-.64 2.2.17 1.18-.4.23-.5 1.06-.04.33.38 1.32.25 1.79-.13.49-.56.66-.64 1.32a6 6 0 0 0 .36 3.15l-.69.49q.28 1.06.57 2.08l-.55-.35-.11.59q.36 1 .75 2.03c-1.14 1.82-.18 1.27-.05 2.32s-.5 1.63-.48 2.42c.02 1.05-.04 1.59.06 2.65.05.61.74 1.62-.29.82.03.95.04 2.08.14 3.12a13 13 0 0 0 .6 3.24c.2.49.4-.23.45-.15.24.41-.2.84-.06 1.28.22.73.83 2.12 1.02 2.68.27.82-.12 2.25-.14 2.4-.12.8.44.9.45 1.15.06 1.41-.09 1.76 1.1 1.97-.4.45-.88 2.11 0 2.29-.72.17-.32 1.37-.32 2.17l.73.28c-.9 1.89.85 4.8 1.6 6.79.02.05-.48.29-.27.57.02.01.25-.09.34.11.3.65 1.7 3.04 1.8 3.33.38 1.08.06 1.4.25 2.07.25.88.64.88.89 1.72.11.39-.22.91.07 1.49.17.34.54.24.68.51.48.96.54 1.79 1.36 2.48-1.05.69-.04.77.22 1.17 1.07 1.62 1.55 4 2.34 5.44 2.48 4.48 5.26 8.1 7.97 12.22.44.66.02 1.15.5 1.84.22.32.8.41 1.15.92.27.41.48 1.13.82 1.65.1.13.45-.09.59.11 1.05 1.51 1.85 3.14 2.8 4.75.35.6 1.05.6.22 1.09l1 .2c.1 1.12 1.08 1.34 1.77 2.42.08.12.19 1.3.9 1.41-.23.25-.5.37-.73.58.26.51 1.1.88 1.38 1.13s.1.73.18.82c.27.32.64-.14.67-.12 1.73 1.08 1.35 1.12 1.54 2.59.04.38 1.9 1.37 1.72 2.15.2-.19.3-.44.47-.66q.72.57 1.46 1.12l-.86.31c1.06.7 1.38 1.87 2.16 2.54.44.39.79-.11.96.22.03.06-.32.29-.2.44 1.05 1.28 1.88 1.42 3.19 2.38.62.45.69 1.45 1.86 1.73.1.03 1.34.15 1.33 1.29.35-.11.59-.13.86-.24.29 1.91.77.6 2.45 1.34.85.4 3.38 2.26 4.2 2.89.47.38.2.85.28.92.5.43.76-.03 1.24.34.49.36.88 1.25 1.46 1.48.44.18.4-.57.92-.05.11.1-.5.42.25.55.12.03 1.44-.01 1.72-.03-.42-.57-1.8-1.76-2.32-2.2-9.41-6.84-25.56-22.5-32.13-32.81-.64-.92-1.52-1.22-1.96-1.82-.43-.59.34-.35-.05-.89s-.96-.76-1.31-1.27a99 99 0 0 1-6.49-10.9c-.49-.97-.46-1.94-.87-2.85-.15-.35-.66-.14-.77-.39-1.15-2.72-1.68-5.46-2.75-8.19-.45-1.13-1.32-2.23-1.75-3.36-.35-.93-.37-2.02-.63-2.88-.14-.46-.62-.58-.7-.74-.29-.56.27-.5.18-.8-.25-.83-.97-1.07-1.14-1.87-.07-.31.32-.38.25-.84-.08-.58-.37-.28-.5-.68 0-.02.3-.02.24-.24-.3-1.4-.52-3.17-.86-4.51-.69-2.76-1.79-5.41-2.36-8.02-.14-.66.26-.54.24-.76-.1-1.02-.58-1.31-.6-2.4 0-.18.4-.97.17-1.63-.12-.36-.49-.73-.6-1.04-.12-.3.34-.41.29-.79-.09-.68-.39-.44-.45-1.44l.01-.29c.06-.54.25-1.57.16-2.41-.18-1.6-.66-3.66-.66-5.61 0-.68.49-1.54.52-2.56.04-1.29.05-3.62.15-4.94.04-.68-.45-.77-.47-.86-.1-.51.45-.26.45-.6.01-.47-.36-.94-.34-1.38 0-.27.42-.28.43-.33.36-2.23.55-4.11.9-6.29 1.92-11.61 5.37-23.06 8.9-34.24.3-.95-.18-1.15.18-1.94s1.7-1.2.77-2.29c.25.06.41.13.64.18.28-1.82 1.24-3.35 1.92-4.96.5-1.21.9-2.28 1.32-3.39.38-.99-.06-1.08.83-1.71 1.43-4.34 3.44-8.49 4.94-12.81 1.31-.52 1.24-1.7 1.8-3.06.07-.17.28.16.5-.33.3-.61 0-1.17.56-2.15.15-.27 1.73-1.94 1.88-2.8s.6-1.99.78-2.87q.2.34.37.69l.75-1.05-.6-.57 1.04-.25c-.91-1.18-.81-.47.11-1.32.47-.42.51-.96.96-1.41.16-.16.58-.07.75-.25.43-.44-.23-.44-.03-.76.2-.31 1.01-.43 1.14-1.14-1.3-.01.1-1.52.87-1.13.13-.2.22-.39.38-.6-1.93-.98.04-1.2.57-1.44.52-.25.03-.56.12-.64.24-.25.3.09.44-.1.92-1.26 1.48-2.67 2.36-3.95.13-.18.28.17.4-.06.13-.22.02-.62.26-.91.07-.08.32.06.41-.07 1.99-2.7 3.77-5.36 5.95-8.01.2-.23.75-.09 1.12-.55s.63-1.46 1.1-2.04c.12-.15.47.09.64-.11.56-.69.82-1.49 1.4-2.2 1-1.22 2.32-2.21 3.26-3.51.18-.25-.1-.47.13-.84.41-.66.58-.09.73-.14.51-.19.15-.79.61-1 .08-.03.28.33.34.29.78-.65.16-1.38 1.3-1.75.34-1.06-.97-.1-1.3-.19-.78-.24-.57-1.59-.28-2.22.26-.55.55-.22.72-.37.86-.79 2.21-1.88 2.75-2.61.33-.45-.53.04-.42-.25s.47-.15.44-.61-.27-1.64-.68-1.96M105 1439.22c2.19-1.16 3.5-5.67 4.22-8.1.6-2.04-.02-4.18 1.65-3.09-.79 2.1-1.6 3.78-2.33 6.05-.08.23-.4 1.7-.52 2.2-.08.28.22.39.1.77-.03.08-.58.4-.62.57-.16.58-.08 2.45-.17 2.69-.26.64-.66.24-.83.49-.59.87.1 1.2-.42 2.07-.1.15-.89.53-1 1.25-.06.29.13.88.05 1.1-.43 1.17-1.23 2.39-1.45 3.5-.18.92.37.81.3 1.3-.05.5-.77.93-.89 1.25-.18.51-.02 1.22-.06 1.38-.89 3.18-1.9 5.97-2.65 9.07q.3-3.25.7-6.49c.78-1.08.17-.59.2-1.42.02-.67.91-.6 1.02-1.43.05-.43-.32-1.48.17-2.32.01-.03.48.01.67-.66.43-1.49 1.28-3.69 1.68-5.4.12-.5-.37-.53-.26-1.13.08-.43.66-.79.76-1.48.14-.87-.47-1.5.73-1.75-.35-.16-.71-.25-1.05-.42m20.31-43.32c.02-.13-.15-2.14.69-1.07-.67 2.16-2.09 4.06-2.94 6.22-.71-1.3.37-2.22 1.27-3.57.04-.07-.4.04-.14-.3.14-.17.98-.61 1.12-1.28"/><path fill="#f1a198" d="M61 1485.5c0-37.03 16.5-116.5 92.5-155.5v350.5c-41-22-92.5-94.5-92.5-195"/><path fill="#fff" d="M154.73 1355.33c-1.68.86-3.2 1.95-4.47 3.37-.29.33-.03.54-.13.7-.17.29-.81.41-.87.46-.35.33.19.62.15.68-.35.66-.66.04-1.2.47-.69.56-1.42 1.44-2.15 2.23-.26.27.17.46-.42 1.01-.42.39-2 1.32-2.16 2.28.14.14.38.22.56.33-1.4.27-1.67.6-2.61 1.96-.15.22-.57.17-.78.6-.2.43.18.79-.43 1.48-.21.24-.62.15-.96.52-.97 1.05-2.32 3.43-3.02 4.35-1.4 1.82-2.67 2.42-3.7 4.19-.08.14.45.1.29.34s-.79.16-.84.21c-.57.54-.92 2.28-1.24 2.58-.77.72-.38-.25-1.3.87-.86 1.07-1.33 3.04-1.96 4.25-.72 1.4-1.86 1.27-1.58 2.85q-3.4 5.22-6.43 10.68l.59.27-.86.65.5.1a9 9 0 0 0-2.86 3.82c-.02.04.4.15.4.18-.1.4-.6.65-.7 1-.21.86-.01 2.58-.76 1.5-.67 1.91-2.02 3.87-2.6 5.71-.26.79.26 1.29.14 1.67-.13.38-.58-.04-.66.08-.45.72-.98 2-.44 2.38l-.92.18c.7.18-.59 2.47-.83 3.11-.04.12.24.25.2.34-.42.95-.98.99-1.46 1.78-.17.27.53.02 0 .69-.04.05-.5-.16-.84.74-.56 1.44-1.78 4.15-2.16 5.97-.03.15.64-.1.3.51-.13.22-.46-.02-.66.54-.8 2.22-1.15 4.72-2.21 6.91.44.04 1.16-.63.52.52-.1.18-.43-.08-.47 0-.33.68-.25 1.38-.62 2.1-.11.22-.42.19-.58.45-.22.39.14.69-.18 1.14-.5.69-.94.7-.42 1.87-1.55 5.37-3.07 10.75-3.76 16.3-.53 1.57-1.05 2.97-1.4 4.63-.11.49.42.67.12 1.43-.07.17-.85 1.34.24 1.67-.15.33-.18.55-.28.84l-.4-.74c0 1.26-.53 2.29-.85 3.39-.23.81.31.28.2.77-.1.5-.23.72.27 1.43-.71.44-.28.82-.35 1.75-.01.09-.32.64-.3 1.12 0 .34.4.48.3 1.03-.02.09-.61 1.23-.68 1.6-.11.57.37 1.5.37 1.61.02 1.66-.52 2.27.32 3.42-.51.21-.83 1.22-.77 2 .06.98 1.17 2.94.08 3.26.55 1.14.23.97.32 2.38.04.56.2 1.5.4 2.43.24 1.2.53 2.43.57 2.98.08.99-.6.6-.62 1-.05.66.35.25.41.68.17 1.24.25 2.33.26 3.53l.98.04-.28.23.14.77c-1.73-1.73.44 1.89.72 3.02.23.97-.07 2.73.03 3.83.03.27.32.01.33.07.05.64-.16.79.07 1.63.13.44.66.78.77 1.21.85 3.14 1.3 6.28 2.25 9.39.17.53.81.81.97 1.25.23.62-.05 1.15.15 1.74s.98 1.26 1.05 1.68-.64-.08-.25.59c.18.31.31-.4.48 0 .5 1.26.76 3.24 1.72 4.41q-.19-.04-.38-.1c.62 1.42 1.4 2.58 2.08 4.01.23.51.35 1.56.58 2.06.24.5.66.57.86.96.08.16-.24.24-.18.34.73 1.34 1.6 1.83 2.26 3.26a121 121 0 0 0 8.56 15.49c.13.2-.11.57.04.89.24.5.55.3.6.35.34.34-.04.38.33.89.81 1.12 2.42 2.71 3.26 3.8 1.95 2.51 3.47 4.74 5.51 7.13.15.17.4-.28.67 0 1.95 1.93 2.03 2.7 4.66 4.94 2.6 2.25 7.87 6.08 11.3 8.19.55 1.46 2.1 2.16 3.62 2.26-5.56-5.9-11.81-9.61-17.6-15.57-6.05-6.27-10.28-14.57-14.87-21.83-.44-.68-1.05-.71-1.3-1.35-.04-.11.45-.05.3-.38-1.96-4.48-5.1-8.73-6.79-13.25-.45-1.22-.12-1.58-.45-2.67-.11.26-.27.47-.4.71-2.6-4.56-4.06-9.61-5.62-14.65-.07-.23-.5-.14-.58-.38-.17-.47.16-1.06.06-1.48-.14-.56-.5-.56-.6-1.08-.06-.25.28-.26.08-.79-.02-.04-.36.02-.41-.36-.14-1.01-.34-3.1-.44-3.94-.13-1.07-.83-1.8-.95-2.19-.31-1.06.22-1.15.04-2.06-.77-3.86-1.58-7.61-2.2-11.46a51 51 0 0 1-.66-8.05c0-.43.6-2.03.6-2.79 0-.26-.1-1.65-.1-1.87-.02-.86-.34-1.57-.39-2.04-.1-.91.55-1.9.65-2.37.16-.83.23-2.35.26-2.72.05-.88-.67-.67-.44-1.28.07-.17.58.08.65-.56.06-.53-.31-.8-.34-1.18-.02-.38.68-.98.7-1.21.08-1.25-.26-1.79-.08-3.11a53 53 0 0 1 1.53-6.43c1-1.71.11 1.3.1 1.49-.04.96.24.87-.4 1.72 1.32 1.05-1.44 3.66.2 4.65-1.26.6-.77 1.35-.64 2.2.17 1.18-.4.23-.5 1.06-.04.33.38 1.32.25 1.79-.13.49-.56.66-.64 1.32a6 6 0 0 0 .36 3.15l-.69.49q.28 1.06.57 2.08l-.55-.35-.11.59q.36 1 .75 2.03c-1.14 1.82-.18 1.27-.05 2.32s-.5 1.63-.48 2.42c.02 1.05-.04 1.59.06 2.65.05.61.74 1.62-.29.82.03.95.04 2.08.14 3.12a13 13 0 0 0 .6 3.24c.2.49.4-.23.45-.15.24.41-.2.84-.06 1.28.22.73.83 2.12 1.02 2.68.27.82-.12 2.25-.14 2.4-.12.8.44.9.45 1.15.06 1.41-.09 1.76 1.1 1.97-.4.45-.88 2.11 0 2.29-.72.17-.32 1.37-.32 2.17l.73.28c-.9 1.89.85 4.8 1.6 6.79.02.05-.48.29-.27.57.02.01.25-.09.34.11.3.65 1.7 3.04 1.8 3.33.38 1.08.06 1.4.25 2.07.25.88.64.88.89 1.72.11.39-.22.91.07 1.49.17.34.54.24.68.51.48.96.54 1.79 1.36 2.48-1.05.69-.04.77.22 1.17 1.07 1.62 1.55 4 2.34 5.44 2.48 4.48 5.26 8.1 7.97 12.22.44.66.02 1.15.5 1.84.22.32.8.41 1.15.92.27.41.48 1.13.82 1.65.1.13.45-.09.59.11 1.05 1.51 1.85 3.14 2.8 4.75.35.6 1.05.6.22 1.09l1 .2c.1 1.12 1.08 1.34 1.77 2.42.08.12.19 1.3.9 1.41-.23.25-.5.37-.73.58.26.51 1.1.88 1.38 1.13s.1.73.18.82c.27.32.64-.14.67-.12 1.73 1.08 1.35 1.12 1.54 2.59.04.38 1.9 1.37 1.72 2.15.2-.19.3-.44.47-.66q.72.57 1.46 1.12l-.86.31c1.06.7 1.38 1.87 2.16 2.54.44.39.79-.11.96.22.03.06-.32.29-.2.44 1.05 1.28 1.88 1.42 3.19 2.38.62.45.69 1.45 1.86 1.73.1.03 1.34.15 1.33 1.29.35-.11.59-.13.86-.24.29 1.91.77.6 2.45 1.34.85.4 3.38 2.26 4.2 2.89.47.38.2.85.28.92.5.43.76-.03 1.24.34.49.36.88 1.25 1.46 1.48.44.18.4-.57.92-.05.11.1-.5.42.25.55.12.03 1.44-.01 1.72-.03-.42-.57-1.8-1.76-2.32-2.2-9.41-6.84-25.56-22.5-32.13-32.81-.64-.92-1.52-1.22-1.96-1.82-.43-.59.34-.35-.05-.89s-.96-.76-1.31-1.27a99 99 0 0 1-6.49-10.9c-.49-.97-.46-1.94-.87-2.85-.15-.35-.66-.14-.77-.39-1.15-2.72-1.68-5.46-2.75-8.19-.45-1.13-1.32-2.23-1.75-3.36-.35-.93-.37-2.02-.63-2.88-.14-.46-.62-.58-.7-.74-.29-.56.27-.5.18-.8-.25-.83-.97-1.07-1.14-1.87-.07-.31.32-.38.25-.84-.08-.58-.37-.28-.5-.68 0-.02.3-.02.24-.24-.3-1.4-.52-3.17-.86-4.51-.69-2.76-1.79-5.41-2.36-8.02-.14-.66.26-.54.24-.76-.1-1.02-.58-1.31-.6-2.4 0-.18.4-.97.17-1.63-.12-.36-.49-.73-.6-1.04-.12-.3.34-.41.29-.79-.09-.68-.39-.44-.45-1.44l.01-.29c.06-.54.25-1.57.16-2.41-.18-1.6-.66-3.66-.66-5.61 0-.68.49-1.54.52-2.56.04-1.29.05-3.62.15-4.94.04-.68-.45-.77-.47-.86-.1-.51.45-.26.45-.6.01-.47-.36-.94-.34-1.38 0-.27.42-.28.43-.33.36-2.23.55-4.11.9-6.29 1.92-11.61 5.37-23.06 8.9-34.24.3-.95-.18-1.15.18-1.94s1.7-1.2.77-2.29c.25.06.41.13.64.18.28-1.82 1.24-3.35 1.92-4.96.5-1.21.9-2.28 1.32-3.39.38-.99-.06-1.08.83-1.71 1.43-4.34 3.44-8.49 4.94-12.81 1.31-.52 1.24-1.7 1.8-3.06.07-.17.28.16.5-.33.3-.61 0-1.17.56-2.15.15-.27 1.73-1.94 1.88-2.8s.6-1.99.78-2.87q.2.34.37.69l.75-1.05-.6-.57 1.04-.25c-.91-1.18-.81-.47.11-1.32.47-.42.51-.96.96-1.41.16-.16.58-.07.75-.25.43-.44-.23-.44-.03-.76.2-.31 1.01-.43 1.14-1.14-1.3-.01.1-1.52.87-1.13.13-.2.22-.39.38-.6-1.93-.98.04-1.2.57-1.44.52-.25.03-.56.12-.64.24-.25.3.09.44-.1.92-1.26 1.48-2.67 2.36-3.95.13-.18.28.17.4-.06.13-.22.02-.62.26-.91.07-.08.32.06.41-.07 1.99-2.7 3.77-5.36 5.95-8.01.2-.23.75-.09 1.12-.55s.63-1.46 1.1-2.04c.12-.15.47.09.64-.11.56-.69.82-1.49 1.4-2.2 1-1.22 2.32-2.21 3.26-3.51.18-.25-.1-.47.13-.84.41-.66.58-.09.73-.14.51-.19.15-.79.61-1 .08-.03.28.33.34.29.78-.65.16-1.38 1.3-1.75.34-1.06-.97-.1-1.3-.19-.78-.24-.57-1.59-.28-2.22.26-.55.55-.22.72-.37.86-.79 2.21-1.88 2.75-2.61.33-.45-.53.04-.42-.25s.47-.15.44-.61-.27-1.64-.68-1.96M105 1439.22c2.19-1.16 3.5-5.67 4.22-8.1.6-2.04-.02-4.18 1.65-3.09-.79 2.1-1.6 3.78-2.33 6.05-.08.23-.4 1.7-.52 2.2-.08.28.22.39.1.77-.03.08-.58.4-.62.57-.16.58-.08 2.45-.17 2.69-.26.64-.66.24-.83.49-.59.87.1 1.2-.42 2.07-.1.15-.89.53-1 1.25-.06.29.13.88.05 1.1-.43 1.17-1.23 2.39-1.45 3.5-.18.92.37.81.3 1.3-.05.5-.77.93-.89 1.25-.18.51-.02 1.22-.06 1.38-.89 3.18-1.9 5.97-2.65 9.07q.3-3.25.7-6.49c.78-1.08.17-.59.2-1.42.02-.67.91-.6 1.02-1.43.05-.43-.32-1.48.17-2.32.01-.03.48.01.67-.66.43-1.49 1.28-3.69 1.68-5.4.12-.5-.37-.53-.26-1.13.08-.43.66-.79.76-1.48.14-.87-.47-1.5.73-1.75-.35-.16-.71-.25-1.05-.42m20.31-43.32c.02-.13-.15-2.14.69-1.07-.67 2.16-2.09 4.06-2.94 6.22-.71-1.3.37-2.22 1.27-3.57.04-.07-.4.04-.14-.3.14-.17.98-.61 1.12-1.28"/><path fill="#fff" d="M159.23 1383.33a9 9 0 0 0-3.48 2.51c-.22.26.03.48-.03.61-.12.24-.67.27-.7.31-.28.25.22.57.2.62-.23.54-.57-.04-.99.27-.55.42-1.09 1.12-1.64 1.72-.2.21.21.43-.25.84-.32.3-1.62.93-1.65 1.75.15.14.37.23.54.35-1.21.07-1.4.34-2.1 1.41-.1.16-.48.08-.62.42-.13.35.26.71-.2 1.23-.17.19-.55.06-.81.34-.75.79-1.7 2.69-2.23 3.39-1.05 1.39-2.14 1.76-2.89 3.14-.05.1.43.14.31.32s-.7.04-.74.08c-.46.39-.6 1.83-.85 2.04-.63.52-.38-.26-1.1.59-.68.8-.9 2.4-1.34 3.34-.52 1.08-1.6.86-1.16 2.2a138 138 0 0 0-4.92 8.11l.58.28-.74.45.47.12a5.5 5.5 0 0 0-2.33 2.83c0 .03.4.16.4.18-.06.31-.51.47-.56.75-.13.67.23 2.07-.59 1.13-.46 1.48-1.56 2.93-1.96 4.36-.17.61.37 1.06.28 1.35s-.55-.09-.61 0c-.38.53-.78 1.51-.22 1.87l-.88.05c.7.22-.35 1.93-.52 2.41-.04.09.25.22.22.29-.33.72-.86.71-1.27 1.29-.14.2.51.06.06.55-.03.04-.5-.17-.75.52-.43 1.1-1.4 3.14-1.63 4.55-.02.11.61-.04.32.42-.1.16-.44-.05-.6.38-.6 1.68-.77 3.62-1.66 5.25.44.07 1.1-.4.55.45-.1.13-.43-.09-.47-.03-.27.51-.15 1.06-.46 1.6-.1.16-.4.11-.54.31-.2.29.18.55-.1.87-.45.51-.88.49-.3 1.43-1.19 4.09-2.4 8.17-2.83 12.41-.46 1.19-.91 2.25-1.2 3.5-.1.38.44.54.17 1.11-.06.12-.8.99.3 1.29-.14.25-.16.41-.25.63q-.2-.3-.43-.58c.05.97-.45 1.74-.74 2.57-.21.61.32.22.23.6-.1.38-.22.54.3 1.1-.7.31-.26.62-.31 1.32 0 .08-.3.49-.28.86.01.26.42.37.32.79-.01.07-.59.93-.65 1.21-.1.44.39 1.15.4 1.24.03 1.26-.5 1.73.34 2.61-.52.15-.83.93-.77 1.53.06.75 1.15 2.23.06 2.49.53.87.22.74.29 1.82.02.43.17 1.16.34 1.88.21.9.45 1.83.48 2.25.04.75-.62.48-.66.79-.06.5.35.17.4.51.11.94.16 1.77.12 2.7l.97-.01-.29.19.11.58c-1.65-1.25.36 1.44.58 2.3.18.74-.2 2.11-.16 2.96.01.2.32-.01.32.03.01.5-.2.63-.01 1.26.1.34.6.58.69.9.66 2.39.9 4.81 1.61 7.19.12.4.74.58.86.91.17.47-.13.91.02 1.36s.86.93.9 1.25c.03.33-.63-.02-.3.49.16.23.34-.34.47-.04.38.96.48 2.5 1.31 3.36l-.36-.05c.48 1.08 1.14 1.94 1.66 3.03.18.38.2 1.22.38 1.6s.58.4.73.7c.06.12-.25.21-.2.29.57 1.01 1.36 1.33 1.84 2.42a92 92 0 0 0 6.38 11.9c.1.16-.17.49-.06.75.16.39.47.19.51.23.28.24-.08.32.2.71.62.86 1.9 2.03 2.54 2.86 1.48 1.94 2.58 3.69 4.11 5.55.11.14.39-.29.6-.07 1.5 1.46 1.48 2.13 3.5 3.82a87 87 0 0 0 8.73 6.2c.3 1.29 1.53 1.79 2.77 1.73-3.97-4.96-8.83-7.58-13.22-12.15-4.6-4.8-7.48-11.33-11-16.8-.33-.52-.9-.48-1.07-.98-.03-.08.43-.09.33-.34-1.37-3.46-3.94-6.58-5.16-10.04-.33-.92.02-1.24-.2-2.08q-.22.32-.45.6c-2.11-3.4-3.16-7.26-4.36-11.08-.05-.17-.48-.07-.55-.25-.13-.36.23-.84.16-1.16-.1-.42-.45-.4-.53-.8-.04-.19.3-.22.13-.61-.01-.04-.35.03-.38-.26-.08-.78-.16-2.38-.22-3.02-.07-.81-.72-1.34-.82-1.64-.26-.8.27-.89.13-1.58-.57-2.92-1.23-5.76-1.75-8.67a36 36 0 0 1-.55-6.13c0-.33.6-1.54.6-2.12-.01-.19-.13-1.25-.13-1.42-.02-.65-.35-1.19-.4-1.55-.12-.69.5-1.44.6-1.8.14-.62.18-1.78.2-2.06.03-.67-.69-.53-.47-.98.06-.13.58.07.63-.41.05-.41-.33-.62-.37-.91s.65-.73.66-.91c.03-.94-.32-1.37-.19-2.37.1-.85 1.04-4.57 1.26-4.87.9-1.26.17 1 .17 1.15 0 .74.27.67-.33 1.3 1.35.85-1.28 2.75.38 3.56-1.24.41-.73 1-.57 1.66.2.9-.39.16-.47.78-.03.25.42 1.02.3 1.38s-.53.48-.6.98c-.14.9 0 1.6.42 2.4q-.34.19-.67.36.28.81.6 1.59l-.56-.28-.1.45.77 1.54c-1.13 1.37-.17.96-.04 1.76.14.79-.5 1.23-.48 1.83 0 .79-.06 1.2.03 2 .05.47.71 1.22-.3.63.01.72 0 1.59.07 2.38.07.9.2 1.78.5 2.44.17.37.4-.19.45-.13.22.3-.23.65-.1.98.2.55.75 1.58.91 2.01.23.61-.21 1.72-.24 1.83-.15.62.4.68.4.86 0 1.08-.17 1.36.99 1.46-.42.37-.97 1.67-.12 1.76-.71.17-.38 1.08-.42 1.69l.7.17c-1 1.51.55 3.66 1.16 5.16.02.03-.5.26-.3.46.01.01.24-.08.32.06.25.49 1.45 2.26 1.53 2.47.3.82-.05 1.09.09 1.6.17.67.56.65.73 1.28.08.3-.28.73-.05 1.17.14.25.5.15.62.35.39.72.38 1.36 1.1 1.84-1.06.63-.1.61.13.91.89 1.19 1.13 3.03 1.76 4.11 1.94 3.36 4.2 6.01 6.28 9.09.33.5-.11.94.26 1.46.17.24.7.25.96.64.2.31.31.88.58 1.26.06.11.42-.11.52.04.8 1.13 1.34 2.4 2.01 3.64.25.46.89.38.07.9l.89.05c-.04.94.82 1 1.3 1.85.06.09.02 1.08.65 1.09-.24.24-.5.38-.73.59.17.4.88.62 1.1.81.2.18 0 .61.05.68.2.25.6-.2.62-.19 1.4.73 1.06.81 1.04 2.07 0 .32 1.52.96 1.25 1.67.21-.19.33-.42.5-.63l1.14.81-.79.37c.84.49.98 1.49 1.57 2 .34.28.7-.2.8.07.02.05-.3.3-.22.42.75 1.02 1.45 1.05 2.45 1.76.47.33.42 1.23 1.37 1.35.1.02 1.12-.02.98 1.03.3-.14.5-.19.75-.32.02 1.72.58.46 1.89.96.67.26 2.54 1.72 3.13 2.22.35.31.08.78.14.84.37.36.63-.11.98.19.35.29.58 1.09 1.03 1.26.34.13.38-.59.75-.14.08.09-.45.45.15.5.1.01 1.16-.14 1.38-.19a12 12 0 0 0-1.65-1.87c-6.78-5.69-18.74-17.35-23.74-25.06-.48-.68-1.26-.84-1.6-1.28s.35-.32.05-.72-.8-.52-1.08-.9a70 70 0 0 1-5-8.15c-.37-.73-.25-1.5-.56-2.18-.11-.27-.62-.05-.7-.24-.86-2.06-1.13-4.18-1.95-6.22-.34-.85-1.11-1.64-1.44-2.49-.28-.7-.21-1.55-.4-2.19-.11-.35-.57-.42-.64-.53-.24-.41.3-.41.23-.63-.19-.63-.87-.77-1-1.37-.04-.24.35-.32.31-.67-.04-.44-.35-.19-.44-.49-.01-.02.28-.03.25-.2-.22-1.06-.33-2.41-.58-3.42-.53-2.07-1.5-4.04-1.95-6.01-.1-.5.28-.43.27-.59-.05-.77-.53-.98-.5-1.8 0-.14.43-.76.23-1.25-.1-.26-.47-.53-.57-.76s.35-.33.31-.61c-.06-.52-.36-.33-.4-1.08q0-.07.02-.21c.07-.4.3-1.19.22-1.82-.15-1.19-.6-2.74-.61-4.2 0-.52.48-1.16.51-1.93.03-.96.01-2.71.08-3.71.04-.51-.46-.59-.47-.66-.11-.39.43-.19.43-.44 0-.36-.38-.72-.38-1.05 0-.21.42-.2.43-.25.3-1.67.44-3.09.72-4.73 1.5-8.75 4.22-17.35 6.82-25.81.22-.72-.26-.91.03-1.5s1.56-.81.57-1.73c.25.06.41.13.64.19.12-1.4.94-2.53 1.46-3.74.39-.91.67-1.72.98-2.56.28-.75-.15-.86.65-1.28 1-3.31 2.53-6.44 3.53-9.76 1.2-.29 1.01-1.24 1.4-2.29.05-.13.28.16.45-.21.2-.47-.14-.95.3-1.69.11-.2 1.43-1.4 1.48-2.08.04-.68.34-1.55.43-2.26l.41.6.59-.77-.63-.54.95-.09c-.97-1.06-.8-.47-.03-1.07.38-.3.36-.73.73-1.05.13-.12.54 0 .68-.12.34-.32-.27-.4-.12-.63.16-.24.9-.25.94-.82-1.22-.15-.08-1.25.67-.84.1-.15.16-.3.29-.45-1.9-1.03-.1-.99.36-1.14s-.04-.46.03-.52c.2-.17.3.12.4-.03.7-.94 1.05-2.06 1.71-3.02.1-.14.28.17.36-.01.1-.17-.06-.52.13-.74.05-.06.3.09.37 0 1.5-2.05 2.78-4.09 4.42-6.1.15-.18.66.01.94-.34s.38-1.17.72-1.62c.1-.11.44.14.56-.01.42-.53.55-1.19.98-1.74.74-.93 1.78-1.64 2.44-2.67.13-.19-.15-.41.01-.72.28-.52.5 0 .63-.03.42-.1.02-.68.4-.81.06-.01.3.33.33.3.6-.48-.03-1.2.92-1.39.16-.9-.86-.2-1.15-.32-.72-.31-.7-1.48-.51-2.01.15-.45.45-.13.57-.24.65-.6 1.7-1.41 2.07-2.01.23-.36-.45-.02-.39-.26.07-.25.38-.09.31-.5s-.43-1.52-.82-1.85m-37.36 64.21c2.06-.76 3.01-4.18 3.52-6.04.41-1.55-.35-3.3 1.35-2.3-.6 1.59-1.26 2.85-1.8 4.57-.05.18-.24 1.3-.33 1.69-.06.21.25.32.15.6-.03.06-.54.27-.57.4-.1.45.1 1.91.03 2.09-.2.48-.62.14-.78.33-.5.63.19.93-.26 1.58-.08.11-.84.35-.9.9-.04.23.18.7.12.86-.35.88-1.06 1.78-1.2 2.62-.13.7.4.65.38 1.03s-.71.67-.81.91c-.15.38.05.94.02 1.07-.7 2.4-1.55 4.49-2.15 6.83q.13-2.48.36-4.95c.72-.8.14-.45.12-1.09-.01-.51.87-.41.93-1.05.03-.32-.4-1.16.03-1.78.02-.02.48.03.62-.47.34-1.13 1.04-2.78 1.32-4.09.08-.38-.4-.44-.33-.89.05-.33.59-.58.64-1.11.08-.66-.56-1.2.6-1.31-.36-.15-.72-.24-1.06-.4m15.6-32.8c0-.11-.38-1.78.52-.81-.39 1.7-1.52 3.11-2.1 4.79-.8-1.13.12-1.78.82-2.79.03-.05-.38 0-.16-.26.1-.12.85-.4.91-.93"/><path fill="#79a363" fill-opacity=".8" d="M0 853c0 11.87 12.63 26.5 24.5 26.5s19-11.63 19-23.5c0-11.88-12.63-24-24.5-24s-19 9.12-19 21M101.93 115.3c-14.54-3.89-28.31-24.15-24.41-38.69s20.47-19.45 35-15.55c14.55 3.9 25.25 23.33 21.36 37.87s-17.41 20.27-31.95 16.38"/><path fill="#79a363" fill-opacity=".8" d="M11.5 854.72c0 5.5 5.8 12.28 11.26 12.28s8.74-5.39 8.74-10.89S25.7 845 20.24 845s-8.74 4.23-8.74 9.72M103.59 100.66c-6.74-1.8-13.13-11.14-11.34-17.82 1.8-6.69 9.46-8.93 16.2-7.13s11.7 10.76 9.91 17.44-8.04 9.31-14.77 7.5"/><path fill="#f1a198" d="M59.5 894c0 5.8 7.7 10 13.5 10s7.5-4.2 7.5-10-6.2-9-12-9-9 3.2-9 9M71.25 29c-7.1-1.9-9.72-12.72-7.82-19.82s7.6-7.8 14.7-5.9 9 10.55 7.09 17.65c-1.9 7.1-6.87 9.97-13.97 8.06"/><path fill="#faae37" fill-opacity=".6" d="M137.56 190c3.86-17-1.93-63 15.44-63v270c-15.68-8-35.2-60-36.9-111-1.68-51 17.6-79 21.46-96"/><path fill="#ffe1b2" d="M133.13 290.72c-.05-1.76 0-3.42.09-5.48l.04-.93c.1-2.55.24-5.86.4-10.83.17-5.46.69-9.87 1.14-12.5.08-.49.14-.99.23-2.3l.26-3.64.24-3.11c.32-3.98.78-10.21 1.4-15.92a251 251 0 0 1 1.14-9.23c.5-3.63 1.06-7.11 1.7-10.9l1.91-11.47a126 126 0 0 1 2.39-10.9c.7-2.83 1.41-5.73 2.04-8.88a179 179 0 0 0 2.29-15.17l.73-6.22c.43-3.48 1.1-8.5 1.71-13.53l.16-1.3c.56-4.6 1.06-9.15 1.36-12.47.48-5.3.54-7.3.6-8.97l.08-1.9c.13-2.49.43-6.23.7-10.03V115c.04-.63.36-1.13.7-1.1.35.02.6.56.55 1.2l-.42 5.74c.29.11.48.6.43 1.17-.12 1.43-.22 5.8-.53 12.66l.28-1.18.24-.96c.14-.55.24-.92.34-1.56.19-1.5.41-3.9.63-6.4.05-.63.37-1.12.72-1.09s.58.57.52 1.2v.05a186 186 0 0 1-.78 7.53l-.13.7c0 .03-.04.15-.1.28l-.09.15-.01.05-.2.75c-.25 1.03-.6 2.69-1.17 6.11-.52 3.16-1.2 8.53-2.05 15.21a188 188 0 0 0 .84-4.75l.21-1.3.57-3.57.31-2.02.11-.7c.14-.91.28-1.81.47-2.86l.15-.68.07-.25v-.03l.13-.5.05-.23.06-.31.06-.34.05-.36.05-.37.05-.37.05-.38q.06-.47.28-.77.2-.3.46-.28.25.03.4.37c.1.22.13.52.1.81l-.01.25-.01.14-.04.4-.04.4-.15 1.28-.06.34-.12.63-.01.03-.1.5-.04.21-.33 2.96-.04.39-.78 6.97a325 325 0 0 1-.93 7.01c-.17 1.17-.37 2.38-.57 3.55a63 63 0 0 1-.8 3.81l-.75 3.39a101 101 0 0 0-1.2 6.88q-.23 1.57-.44 3.15l-.44 3.2-.15 1.13-1.21 8.58q-.25 1.63-.54 3.33l-.53 2.99-.14.78a187 187 0 0 0-1.15 7.18 205 205 0 0 0-.83 7.3 397 397 0 0 0-.56 5.85l-.22 2.09-.09.83-.31 3.14a62 62 0 0 0-.2 3.56c-.07 1.47-.15 2.39-.23 3.4l-.08.95-.59 6.8-.32 3.55-.34 3.55-.7 7-.05.56a145 145 0 0 0-.3 3.62 52 52 0 0 0-.07 4.57l.08 3.52.01.57a200 200 0 0 0 .27 5.14c.07.96.1 1.9.11 2.71l.04 2.32v.42l.08 3.9a124 124 0 0 0 .4 6.44l.22 2.46a177 177 0 0 1 .49 7.56l.11 2.49.36 7.75a400 400 0 0 0 .79 11.54v.02a291 291 0 0 0 .78 7.85 114 114 0 0 0 .58 4.17 199 199 0 0 0 1.86 11.85 542 542 0 0 0 1.5 8l1.68 8.42a253 253 0 0 0 3.85 15.69l.5 1.27c1.21 2.99 2.14 5.14 3.32 7.95.12.27.23.48.36.74l.07.16a44.08 44.08 0 0 1 2.48 6.4c.18.58.04 1.07-.33 1.09-.25.01-.54-.21-.75-.55q.38 1.03.78 2.04.16.41.11.77-.05.35-.28.44-.24.08-.54-.16t-.48-.65a201 201 0 0 1-4.45-10.73l-.5-1.31-.17-.48-.15-.4a204 204 0 0 1-5.53-17.25 248 248 0 0 1-2.03-7.77l-.38-1.3-1.12-3.75c.52 2.23 1 4.01 1.47 5.7l.19.67c.65 2.28 1.28 4.47 2.05 7.45 2.22 8.46 3.9 13.24 4.87 16.25 1 3 1.39 4.29 1.63 5.56.34 1.8 1.51 5.06 2.23 6.66.26.57.21 1.16-.1 1.3-.32.14-.79-.22-1.05-.8a42 42 0 0 1-2.45-7.41c-.18-.97-.48-2.01-1.47-4.99-.97-2.97-2.63-7.75-4.87-16.27-.75-2.89-1.36-5-2-7.27l-.2-.68c-.58-2.08-1.2-4.37-1.88-7.47-1.59-7.16-3.23-16.9-3.64-19.2l-.25-1.35c-.34-1.78-.76-3.9-1.35-8.78q-.2-1.6-.4-3.68c-.36-2.04-.68-4-.9-5.73q-.31-2.23-.7-4.19l-.22-1.15-.49-2.76q-.15-1.09-.37-2.28a76 76 0 0 1-1.15-11c-.12-4.9-.07-9.04.01-12.64-.09 2.67-.18 4.65-.25 6.38q0 .48-.03.92a77 77 0 0 0-.09 5.24c.22 7.76.51 10.68 1 13.93q.2 1.29.47 2.83c.37 2.02.8 4.36 1.16 6.85a197 197 0 0 0 1.59 9.3c.63 3.32 1.33 6.82 1.97 10.21l.26 1.3c.58 2.88 1.63 7.91 2.64 14.11.23 1.36.42 2.79.66 4.4l.24 1.55c.36 2.31.84 5.12 1.7 8.8.7 3.05 1.66 6.73 2.8 10.53.55 1.86 1.14 3.77 1.75 5.62a191 191 0 0 0 5.85 15.72c.26.6.2 1.17-.12 1.3-.32.12-.8-.26-1.05-.86a192 192 0 0 1-5.88-15.8c-.6-1.84-1.2-3.74-1.75-5.6-1.14-3.85-2.13-7.6-2.84-10.69a125 125 0 0 1-1.97-10.6c-.24-1.61-.42-2.95-.64-4.25-.97-6.03-2-10.9-2.58-13.8l-.27-1.34-1.97-10.13-.3-1.62c-.5-2.75-.97-5.4-1.3-7.78-.36-2.4-.75-4.53-1.1-6.49a113 113 0 0 1-.53-3.09c-.52-3.46-.82-6.55-1.04-14.36m27 100.98a39 39 0 0 0-1.24-3.41zm-20.33-74.11.13.74-.47-4.58q.16 2.01.34 3.84m-3.8-26.86a72 72 0 0 0 1.08 10.41l.39 2.43.16.99c-.09-1.95-.16-3.73-.2-5.2-.15-4.36-.1-6.9-.06-9.06q0-.95.03-1.87a93 93 0 0 1-.45-6.29 146 146 0 0 1-.14-4.5v-.11l-.05-2.12q-.02-1-.08-1.75a148 148 0 0 1-.32-5.67l-.02-.62v-.28c-.05 1.22-.09 2.53-.12 3.81l-.19 6.16a254 254 0 0 0-.04 13.67m1.17-42.18-.18 3.08v-.02l.22-1.9.37-3.39.37-3.38.36-3.4.37-3.4.11-1.1-.36 2.52-.3 2.23-.15 1.06c-.23 1.68-.58 4.27-.81 7.7m2.43-22.52a84 84 0 0 1 .34-2.93l.2-1.45.07-.6.14-1a317 317 0 0 0-1.06 7z"/><path fill="#f8cb83" d="M152.8 1190.14c-1.2-.27-9.34-.82-9.86-.46-.15.1-.81 1.69-.92 2.02-1.1 3.5-.43 17.76-.37 22.29.14 10.76 1.15 21.54 1 32.32.06-1.4.54-3.06.47-4.52l1.2 1.02c-1.46-14.24-1.44-29.07-1.2-43.37.39-.14.86 1.22.93 1.47 1.19 4.63.24 20.96.55 27.07a488 488 0 0 0 1.93 26.24c.22 2.09-.03 3.89 1.2 6.36 2.75 5.6 6.66 4.72 11.13 1.56 1.99-2.74-.7-3.02-2.67-1.56l1.2-8.38c-.4-16.53-.5-33.18-2.48-49.63-.3-2.49-2.07-6.56-1-8.75.14-.31.05-.81.08-.83.66-.47 4.48.88 4.24-.37-.38-1.93-3.87-1.5-5.16-1.84-.54-.14-.24-.64-.28-.64"/><path fill="#f8cb83" d="M152.8 1190.14c.03 0-.28.5.27.64 1.28.34 4.78-.08 5.16 1.84.25 1.25-3.58-.1-4.24.37-.03.03.06.52-.09.83 4.6 19.68 5.19 40.38 3.95 60.5-.6.71-.45-1.84-.46-2.12l-1.2 8.38c1.96-1.46 4.66-1.18 2.67 1.56-4.56 6.31-10.15 2.32-13.44-2.76 2.3 6.73 9.81 8.88 14.27 2.67 2.24-3.11 1.91-13.15 1.84-17.13-.3-17.22-1.96-34.54-2.75-51.74-.2-2.98-3.83-2.35-5.98-3.04"/><path fill="#f8cb83" d="M142.66 1246.31c-.16 3.84.68 9.86 2.76 13.07 3.29 5.08 8.88 9.07 13.44 2.76-4.48 3.16-8.38 4.04-11.14-1.56-1.22-2.47-.98-4.27-1.2-6.35-1.76-3.44-1.82-7.65-2.2-11.42l-1.2-1.01c.07 1.45-.4 3.11-.46 4.51"/><path fill="#ffe1b2" d="M154.73 1165.19c-.38-.39-9.5-.08-10.86-.74-.3.22-.1 3.36 0 3.5.84 1.15 9.71 1.44 11.23.37.15-.21-.21-2.97-.37-3.13"/><path fill="#f8cb83" d="M153.9 1193.82c-1.07 2.19.71 6.26 1.01 8.75 1.98 16.45 2.09 33.1 2.48 49.63 0 .28-.15 2.82.46 2.11 1.24-20.11.64-40.81-3.95-60.49M144.32 1242.81c.38 3.77.44 7.98 2.2 11.42-.89-8.43-1.5-17.76-1.93-26.24-.3-6.12.65-22.45-.54-27.07-.07-.26-.55-1.62-.93-1.48-.24 14.3-.27 29.13 1.2 43.37"/><path fill="#ffe1b2" d="m154.36 1178.44-8.84-.18-1.84 10.5 13.63 1.65z"/><path fill="#ffe1b2" d="M152.33 1181.57c-.36-.38-1.43-.02-1.1.74.49 1.11 1.58-.25 1.1-.74M149.02 1185.62c-.25-.55-1.73-.32-1.29.56.35.7 1.57.05 1.29-.56M150.5 1184.15c-.1-.83-1.8-.17-1.3.55.18.25 1.37.13 1.3-.55M152.89 1185.07c-.35-.55-1.26.03-.92.55.35.56 1.25-.02.92-.55M146.63 1185.07c-.15-.82-1.4-.16-1.1.37.23.44 1.19.12 1.1-.37M146.81 1180.46c-.53-.79-1.03.48-.74.74.3.27 1.04-.29.74-.74M148.56 1178.17l.83-.65c-.89.29-2.35-.6-2.95-1.29 3.48.12 6.62 2.37 8.02-1.75.23-.7.68-4.92.27-5.25l-10.31-.18c.16 1.05 1.4 8.12 1.65 8.47.28.38 1.95.58 2.49.64z"/><path fill="#ffe1b2" d="M148.56 1178.17c2.63.33 6.42-.26 5.9-3.69-1.4 4.12-4.54 1.87-8.02 1.75.6.69 2.06 1.59 2.95 1.29zM152.52 1173.65c-.45-.44-1.14.49-1.1.74.09.66 1.6-.24 1.1-.74M149.02 1173.47c-.35-.55-1.26.02-.92.55.35.55 1.26-.02.92-.55M147.55 1171.26c-.26-1.15-1.55-.09-.74.37.04.02.78-.18.74-.37M151.23 1172c-.24-.13-.84.52-.37.73.4.17.46-.69.37-.73"/><path fill="#bec9d9" d="M173.8 1095.12c-.61.43.13.91.46 1.19 23.41 19.76 14.15 56.57-14.28 66.39 30.77-7.76 38.27-48.17 13.82-67.58"/><path fill="#e0e5ec" d="M159.98 1162.7c28.43-9.82 37.7-46.63 14.28-66.39-.33-.28-1.07-.76-.46-1.19-25.84-20.53-65.4.2-62.34 33.8 2.08 22.74 26.38 41.43 48.52 33.78"/><path fill="#d4deec" d="M174.45 1100.92c-10.48-10.64-29.65-12.58-42.36-4.97-31.16 18.68-15.44 67.48 21.54 63.9 29.24-2.83 40.55-38.92 20.82-58.93"/><path fill="#f9f9f9" d="M175.92 1104.23c-29.09-34.26-78.27 8.67-53.6 40.71 29.93 38.85 81.67-7.65 53.6-40.71"/><path fill="#e2e8ec" d="M146.27 1094.47c-9.25 2.47-19.77 9.31-23.94 18.24-2.8 6-3.28 18.39-.19 24.31 2.52 4.82 5.5 8.08 11.05 5.52-5.97-4.55-8.23-12.14-8.65-19.33-.66-11.3 6.34-18.41 15.29-24.31 2.1-1.39 5.2-1.44 6.44-4.43"/><path fill="#fff" d="M176.66 1110.13c-.47-.52-3.23-2.77-3.69-2.03 7.09 15.8 4.32 38.96-15.29 43.65.98 2.9 3.7 2.36 5.9 1.47 13.36-5.41 23.9-31.12 13.08-43.09"/></svg>