<svg xmlns="http://www.w3.org/2000/svg" width="153" height="1681" fill="none" viewBox="0 0 153 1681"><path fill="#9ebb8e" d="M94.73 987.74c.4 3.79 2.04 8.07 4.71 10.86s7.33 5.48 11.16 6.21c7.24 1.37-1.37-3.89-2.43-4.83-6.59-5.84-10.85-12.19-7.3-21.26-.45-.25-4.85 6.38-5.05 4.98a354 354 0 0 0 11.47-36.9c-1.5 2.1-2.38 5.4-3.15 8-2.92 9.79-7.37 21.9-8.77 31.77-.08.56-.45.72-.64 1.17"/><path fill="#d4deec" d="M127.62 902.17c-5 14.6-9.7 29.26-14.56 43.91.3.11.25.58.53.68 1.37.5 3.6.4 5.07.67 8.66-20.24 12.95-44.6 21.87-64.47 7.14-15.91 28.75-7.29 28.03 5.01-.37 6.43-6.5 21.18-8.8 28.11-2.2 6.57-4.58 13.05-6.76 19.62-6 18.02-11.55 38.87-18.08 56.07 1.5 1.16 2.53 2.74 4.54 3 14.1-31.2 21.26-69.27 34.56-101.22 6.29-20.58-20.7-35.54-34.87-19.35-5.31 6.08-8.83 20.04-11.53 27.96"/><path fill="#d4deec" d="M163.7 870.4c-7.87-3.59-16.83-3.25-22.66 3.43 2.21-.35 4.02-2.07 6.11-2.88 10.75-4.18 19.98 2.25 25.78 11.06-.07-4.45-5.24-9.78-9.24-11.6M126.78 916.46l-3 8.68-2.32 8.9c1.39-2.75 1.84-5.86 2.77-8.75.9-2.76 2.93-5.8 2.55-8.83M145.27 972.33l-1.28 2.72-.97 3.32c1.35-1.82 1.35-4.06 2.25-6.04"/><path fill="#9ebb8e" d="M94.73 987.74c.19-.45.56-.6.64-1.17 1.4-9.87 5.85-21.98 8.77-31.77.77-2.6 1.64-5.9 3.15-8a354 354 0 0 1-11.47 36.9c.2 1.4 4.6-5.23 5.05-4.98-3.55 9.07.71 15.42 7.3 21.26 1.06.95 9.67 6.21 2.42 4.83-3.82-.73-8.45-3.4-11.15-6.21 3.34 6.1 15.24 10.87 21.82 10.49 8.26-.47 14.97-7.15 18.2-14.31-2.01-.27-3.05-1.85-4.53-3.01a16.6 16.6 0 0 1-22.38 9.42c-15.71-6.89-10.66-20.01-6.99-32.47 1.09-3.67 2.19-7.3 3.38-10.94 1.28-3.92 2.84-7.8 4.13-11.7 4.84-14.65 9.56-29.3 14.55-43.91-1.52-.19-5.2-2.52-6.16-1.16l-26.93 82.77c-.4 1.54.06 2.59.2 3.97z"/><path fill="#9ebb8e" d="M123.5 902.06c-1.98-1.5-2.62 2.91-3.16 4.6a811 811 0 0 0-13.64 48.37c5.49-15.22 10.85-30.56 15.16-46.11.4-1.45 2.84-5.97 1.64-6.87M135.34 993.16l-7.3 8.38c3.2-1.82 5.85-5 7.3-8.38M118.66 947.44c-1.48-.28-3.7-.18-5.06-.68-1.69 3.6-2.92 7.4-4.2 11.17-1.1 3.21-2.95 7.69-3.6 10.87-3.5 16.84 19.59 26.72 30.12 13.12 4.83-6.23 13.63-36.82 16.85-46.3 2.23-6.54 4.31-13.14 6.53-19.7-.16-.2-.77-1.47-.87-1.54-1.49-.92-5.16-2.13-5.74.24-7.24 18.13-11.36 39.24-18.9 57.04-3.53 8.32-10.55 14.54-18.58 6.29-8.53-8.78 3.29-20.94 3.45-30.52"/><path fill="#9ebb8e" d="M156.24 914.92c-1.15-.98-2.25.2-2.8 1.2a773 773 0 0 1-11.7 36.83c-3.6 10.33-7 25.2-16.62 31.17-1.91 1.2-2.24-.3-4-.44-.51-.04-1.37.6-1.96.6-.89.02-3.42-.83-3.93.08-1.6 2.88 8.58 1.98 9.9 1.65 7.04-1.77 9.17-6.54 11.67-12.84 6.52-16.37 12.17-35.4 18.09-52.3.38-1.1 2.12-5.3 1.34-5.95zM115.45 947.63c-.94-.58-1.36.35-1.74 1.05-1.85 3.47-6.46 18.07-7.35 22.19-.75 3.46 1.95 8.48 4.71 10.48.55.08.34-1.09.3-1.29-.32-1.66-2.5-4.42-3.04-6.78-1.22-5.42 2.18-12.44 4.12-17.73.38-1.05 3.45-7.5 3-7.93M115 980.9c-.79-.47-.59.14-.23.67.4-.04.57-.48.23-.68"/><path fill="#f1a198" d="M135.06 502.77c1.43.68 4.09-7.37 6-8.1-6.02-19.1-12.3-38.12-19.33-56.87l-6.2 9.6c5.4 14.13 9.58 28.75 14.69 42.96.55 1.53 4.25 12.13 4.84 12.41"/><path fill="#e0e5ec" d="M112.23 411.8c-.04-.04-.75-.04-.72-.73-1.17.07-6.26 6.4-6.3 8.09l9.72 26.77.7-.4c1.93-3.03 3.14-6.6 5.73-9.06.4-1.27-7.64-23.21-9.14-24.67"/><path fill="#f1a198" d="M132.06 498.18c-3.14-7.95-6-16.37-8.83-24.66-2.94-8.59-5.89-17.19-8.64-25.84-11.19 3.1-23.13 1.13-34.47 3.08l21.15 55.31 30.4-.68c4.84-.33 1.45-4.53.39-7.21"/><path fill="#f1a198" d="m132.06 498.18-8.83-24.66c2.84 8.3 5.68 16.71 8.83 24.66M103 501.87l-.22-3.02c-3.67-10.2-8.2-20.23-12.03-30.34-1.65-4.32-1.68-9.85-5.36-13.5zM125.24 487.57c-1.86-5.79-3-13.42-5.64-18.67-.1-.18-.66-1.49-1.03-.74l6.08 19.88-1.18-1.3c1.32 5.47 4.45 10.64 5.34 16.07.18-.04 1-.05 1.08-.2-.96-3.15.34-.25.65-.6-1.67-4.86-3.72-9.55-5.3-14.44M114.67 458.06c-.47-.1-.09.97-.07 1.25.3 3.76 3.2 11.66 4.56 15.48.57 1.6 1.37 3.75 2.42 5.07z"/><path fill="#f1a198" d="M125.24 487.57c1.58 4.89 3.63 9.59 5.3 14.44-.31.36-1.6-2.56-.65.6-.07.15-.9.16-1.08.2-1.55.38-3.72-.32-5.33.4 1.32.28 6.86.47 7.41-.68zM114.6 459.31c-.02-.28-.4-1.36.07-1.25-.86-.94-2.12-5.23-2.7-5.72-1.7-1.44-8.72-.3-11.06.08 2.25.66 8.92-1.02 10.54.28.57.45 1.88 5.82 3.15 6.61M86.06 452.97c4.81-.37 9.63-.57 14.39-1.45l-7.32.25zM103.55 503.15c1.6 1.35 8 .05 10.17.39-.03-.62-.34-.53-.78-.6-2.2-.39-6.29.81-8.77.24l-.7-1.04c-.58.08 0 .94.08 1.01"/><path fill="#fff" d="M105.21 419.16c.04-1.69 5.13-8.02 6.3-8.09-.03.69.68.7.71.73-.52-2.04-2.96-3.57-4.77-4.3-2.94-1.18-27.04.8-29.93 2.4-3.5 1.93-9.3 8.96-8.7 13.2l11.28 26.84c2.47-.43 5.05-.8 7.55-.93 6.44-.33 16.66.17 22.54-.9 1.29-.23 2.55-.79 3.76-1.28z"/><path fill="#e0e5ec" d="M74.6 419.08c6.75-1.08 23.36.13 28.39-3.91 1.38-1.12 2.26-2.89 3.76-3.86.8-5.01-6.72-1.51-9.06-1.22-4.22.53-17.02.56-19.92 2.21-1.8 1.02-5.83 4.81-3.17 6.78"/><path fill="#d4deec" d="M106.75 411.3c-1.5.98-2.38 2.75-3.77 3.87-5.02 4.04-21.63 2.83-28.38 3.91-1.13.18-2.26.56-3.36.86.05.65.3.5.78.6 2.1.45 24.25-1.62 26.87-2.35 3.04-.84 7.32-3.53 7.86-6.88"/><path fill="#dcd9d8" d="M81.68 445.99c.56.48 3.46 1.09 3.65.6-2.38-2.35-2.95-5.77-5.4-7.72-.36 1.08 1.27 6.7 1.75 7.11"/><path fill="#79a363" fill-opacity=".8" d="M185.5 664.25c0 24.02-13.48 45.48-37.5 45.48s-48-21.46-48-45.48c0-27.52 25-50.52 50.5-37.52 21 10.71 35 13.5 35 37.52"/><path fill="#79a363" fill-opacity=".8" d="M161 665.6c0 10.24-5.67 19.4-15.79 19.4S125 675.84 125 665.6c0-11.74 10.53-21.55 21.26-16 8.84 4.56 14.74 5.75 14.74 16"/><path fill="#f1a198" d="M61 1485.51c0-37.03 16.5-116.5 92.5-155.5v350.5c-41-22-92.5-94.5-92.5-195"/><path fill="#fff" d="M154.73 1355.34c-1.68.86-3.2 1.95-4.47 3.38-.29.32-.03.53-.13.69-.17.3-.81.41-.87.46-.35.33.19.62.15.68-.35.66-.66.04-1.2.47-.69.56-1.42 1.44-2.15 2.23-.26.27.17.46-.42 1.01-.42.39-2 1.32-2.16 2.28.14.14.38.22.56.33-1.4.27-1.67.61-2.61 1.96-.15.22-.57.17-.78.6-.2.43.18.79-.43 1.48-.21.25-.62.15-.96.52-.97 1.05-2.32 3.43-3.02 4.36-1.4 1.81-2.67 2.41-3.7 4.18-.08.14.45.11.29.34s-.79.16-.84.21c-.57.54-.92 2.28-1.24 2.58-.77.72-.38-.25-1.3.87-.86 1.07-1.33 3.04-1.96 4.25-.72 1.4-1.86 1.28-1.58 2.85q-3.4 5.23-6.43 10.68l.59.27-.86.65.5.1a9 9 0 0 0-2.86 3.82c-.02.04.4.15.4.18-.1.4-.6.65-.7 1.01-.21.85-.01 2.57-.76 1.49-.67 1.91-2.02 3.87-2.6 5.71-.26.79.26 1.3.14 1.67-.13.38-.58-.04-.66.08-.45.72-.98 2-.44 2.39l-.92.17c.7.19-.59 2.47-.83 3.11-.04.12.24.25.2.34-.42.95-.98 1-1.46 1.78-.17.27.53.02 0 .69-.04.06-.5-.16-.84.74-.56 1.44-1.78 4.15-2.16 5.97-.03.15.64-.1.3.51-.13.22-.46-.02-.66.55-.8 2.21-1.15 4.71-2.21 6.9.44.04 1.16-.62.52.52-.1.18-.43-.08-.47 0-.33.68-.25 1.38-.62 2.11-.11.21-.42.18-.58.44-.22.39.14.7-.18 1.14-.5.69-.94.7-.42 1.87-1.55 5.37-3.07 10.75-3.76 16.3-.53 1.57-1.05 2.98-1.4 4.63-.11.49.42.67.12 1.43-.07.17-.85 1.34.24 1.68-.15.33-.18.54-.28.83l-.4-.74c0 1.27-.53 2.3-.85 3.39-.23.81.31.28.2.78-.1.49-.23.71.27 1.42-.71.44-.28.83-.35 1.75-.01.1-.32.64-.3 1.12 0 .34.4.48.3 1.03-.02.09-.61 1.23-.68 1.6-.11.57.37 1.5.37 1.61.02 1.66-.52 2.28.32 3.42-.51.21-.83 1.22-.77 2 .06.99 1.17 2.94.08 3.26.55 1.14.23.97.32 2.38.04.56.2 1.5.4 2.43.24 1.2.53 2.43.57 2.98.08.99-.6.6-.62 1-.05.66.35.25.41.69.17 1.23.25 2.32.26 3.52l.98.04-.28.23.14.77c-1.73-1.72.44 1.89.72 3.02.23.97-.07 2.73.03 3.83.03.27.32.01.33.07.05.64-.16.79.07 1.63.13.44.66.79.77 1.21.85 3.14 1.3 6.28 2.25 9.39.17.53.81.81.97 1.25.23.62-.05 1.15.15 1.74s.98 1.26 1.05 1.68-.64-.08-.25.59c.18.31.31-.4.48.01.5 1.25.76 3.23 1.72 4.4q-.19-.03-.38-.1c.62 1.42 1.4 2.58 2.08 4.02.23.5.35 1.55.58 2.05.24.5.66.57.86.96.08.16-.24.24-.18.34.73 1.34 1.6 1.83 2.26 3.27a122 122 0 0 0 8.56 15.49c.13.19-.11.56.04.88.24.5.55.31.6.36.34.33-.04.37.33.88.81 1.12 2.42 2.71 3.26 3.8 1.95 2.51 3.47 4.74 5.51 7.13.15.18.4-.27.67 0 1.95 1.93 2.03 2.7 4.66 4.94 2.6 2.26 7.87 6.08 11.3 8.2v-.01c.55 1.46 2.1 2.17 3.62 2.26-5.56-5.9-11.81-9.61-17.6-15.57-6.05-6.26-10.28-14.56-14.87-21.82-.44-.69-1.05-.72-1.3-1.36-.04-.11.45-.05.3-.38-1.96-4.48-5.1-8.73-6.79-13.25-.45-1.21-.12-1.57-.45-2.67-.11.27-.27.47-.4.71-2.6-4.55-4.06-9.61-5.62-14.65-.07-.23-.5-.14-.58-.37-.17-.48.16-1.07.06-1.49-.14-.56-.5-.56-.6-1.08-.06-.25.28-.26.08-.79-.02-.04-.36.02-.41-.35-.14-1.02-.34-3.11-.44-3.95-.13-1.07-.83-1.8-.95-2.19-.31-1.06.22-1.15.04-2.05-.77-3.86-1.58-7.62-2.2-11.47a51 51 0 0 1-.66-8.05c0-.43.6-2.03.6-2.79 0-.26-.1-1.65-.1-1.87-.02-.86-.34-1.56-.39-2.04-.1-.9.55-1.89.65-2.37.16-.83.23-2.35.26-2.72.05-.88-.67-.67-.44-1.28.07-.17.58.08.65-.56.06-.53-.31-.8-.34-1.18-.02-.38.68-.98.7-1.21.08-1.24-.26-1.79-.08-3.11a53 53 0 0 1 1.53-6.43c1-1.71.11 1.3.1 1.49-.04.96.24.87-.4 1.72 1.32 1.05-1.44 3.67.2 4.65-1.26.6-.77 1.35-.64 2.21.17 1.17-.4.22-.5 1.05-.04.33.38 1.32.25 1.79-.13.49-.56.66-.64 1.32a6 6 0 0 0 .36 3.16l-.69.48q.28 1.07.57 2.09l-.55-.36-.11.59q.36 1 .75 2.03c-1.14 1.82-.18 1.27-.05 2.32s-.5 1.64-.48 2.42c.02 1.05-.04 1.59.06 2.65.05.61.74 1.62-.29.82.03.95.04 2.08.14 3.12.1 1.2.28 2.36.6 3.24.2.49.4-.23.45-.15.24.41-.2.84-.06 1.28.22.74.83 2.12 1.02 2.69.27.81-.12 2.24-.14 2.39-.12.8.44.9.45 1.15.06 1.41-.09 1.77 1.1 1.97-.4.45-.88 2.11 0 2.29-.72.17-.32 1.38-.32 2.18l.73.27c-.9 1.89.85 4.8 1.6 6.79.02.05-.48.3-.27.57.02.02.25-.09.34.11.3.66 1.7 3.04 1.8 3.33.38 1.08.06 1.4.25 2.07.25.88.64.89.89 1.72.11.39-.22.91.07 1.49.17.34.54.24.68.51.48.97.54 1.79 1.36 2.48-1.05.69-.04.77.22 1.17 1.07 1.62 1.55 4 2.34 5.44 2.48 4.49 5.26 8.1 7.97 12.22.44.67.02 1.15.5 1.85.22.31.8.4 1.15.91.27.42.48 1.13.82 1.65.1.13.45-.09.59.11 1.05 1.51 1.85 3.14 2.8 4.75.35.6 1.05.6.22 1.09q.52.12 1 .2c.1 1.12 1.08 1.34 1.77 2.43.08.11.19 1.29.9 1.4-.23.25-.5.37-.73.58.26.51 1.1.88 1.38 1.13.27.26.1.73.18.82.27.33.64-.14.67-.12 1.73 1.08 1.35 1.12 1.54 2.59.04.38 1.9 1.37 1.72 2.15.2-.19.3-.44.47-.65l1.46 1.11-.86.31c1.06.7 1.38 1.87 2.16 2.55.44.38.79-.12.96.21.03.06-.32.29-.2.45 1.05 1.27 1.88 1.41 3.19 2.37.62.45.69 1.45 1.86 1.73.1.03 1.34.15 1.33 1.3.35-.12.59-.13.86-.24.29 1.9.77.59 2.45 1.33.85.4 3.38 2.27 4.2 2.89.47.38.2.85.28.92.5.44.76-.03 1.24.34.49.36.88 1.25 1.46 1.48.44.18.4-.57.92-.05.11.11-.5.42.25.55.12.03 1.44 0 1.72-.02-.42-.58-1.8-1.77-2.32-2.21-9.41-6.84-25.56-22.5-32.13-32.81-.64-.91-1.52-1.22-1.96-1.82-.43-.59.34-.35-.05-.89s-.96-.75-1.31-1.27a98 98 0 0 1-6.49-10.9c-.49-.97-.46-1.94-.87-2.85-.15-.35-.66-.14-.77-.39-1.15-2.72-1.68-5.46-2.75-8.19-.45-1.13-1.32-2.23-1.75-3.36-.35-.93-.37-2.02-.63-2.88-.14-.46-.62-.58-.7-.74-.29-.56.27-.5.18-.8-.25-.83-.97-1.07-1.14-1.87-.07-.31.32-.38.25-.84-.08-.58-.37-.28-.5-.68 0-.02.3-.02.24-.23-.3-1.41-.52-3.18-.86-4.52-.69-2.76-1.79-5.4-2.36-8.02-.14-.66.26-.54.24-.76-.1-1.02-.58-1.31-.6-2.4 0-.18.4-.97.17-1.63-.12-.36-.49-.73-.6-1.03-.12-.31.34-.42.29-.8-.09-.68-.39-.44-.45-1.43l.01-.3c.06-.54.25-1.57.16-2.41-.18-1.6-.66-3.66-.66-5.6 0-.69.49-1.55.52-2.57.04-1.28.05-3.61.15-4.94.04-.68-.45-.77-.47-.85-.1-.52.45-.27.45-.61.01-.47-.36-.94-.34-1.37 0-.28.42-.28.43-.34.36-2.22.55-4.11.9-6.29 1.92-11.6 5.37-23.06 8.9-34.24.3-.95-.18-1.15.18-1.94s1.7-1.2.77-2.29c.25.06.41.13.64.18.28-1.82 1.24-3.34 1.92-4.96.5-1.2.9-2.28 1.32-3.39.38-.99-.06-1.08.83-1.7 1.43-4.35 3.44-8.5 4.94-12.82 1.31-.52 1.24-1.69 1.8-3.06.07-.17.28.16.5-.33.3-.61 0-1.16.56-2.15.15-.27 1.73-1.94 1.88-2.8s.6-1.99.78-2.87q.2.34.37.69l.75-1.05-.6-.57 1.04-.25c-.91-1.18-.81-.47.11-1.32.47-.42.51-.96.96-1.41.16-.16.58-.07.75-.25.43-.44-.23-.44-.03-.75.2-.32 1.01-.44 1.14-1.15-1.3-.01.1-1.52.87-1.13.13-.2.22-.39.38-.6-1.93-.98.04-1.19.57-1.44s.03-.56.12-.64c.24-.25.3.09.44-.1.92-1.26 1.48-2.67 2.36-3.94.13-.19.28.16.4-.06.13-.23.02-.63.26-.92.07-.08.32.06.41-.07 1.99-2.7 3.77-5.36 5.95-8 .2-.24.75-.1 1.12-.56s.63-1.45 1.1-2.03c.12-.16.47.08.64-.12.56-.68.82-1.48 1.4-2.2 1-1.21 2.32-2.21 3.26-3.51.18-.25-.1-.46.13-.84.41-.65.58-.09.73-.14.51-.19.15-.79.61-1 .08-.03.28.34.34.29.78-.65.16-1.38 1.3-1.75.34-1.06-.97-.1-1.3-.19-.78-.24-.57-1.59-.28-2.22.26-.55.55-.22.72-.37.86-.79 2.21-1.88 2.75-2.61.33-.45-.53.05-.42-.24s.47-.16.44-.61c-.02-.46-.27-1.65-.68-1.97M105 1439.23c2.19-1.16 3.5-5.67 4.22-8.1.6-2.03-.02-4.18 1.65-3.09-.79 2.1-1.6 3.78-2.33 6.05-.08.23-.4 1.7-.52 2.2-.08.28.22.39.1.77-.03.08-.58.4-.62.57-.16.58-.08 2.45-.17 2.69-.26.64-.66.24-.83.5-.59.86.1 1.19-.42 2.06-.1.16-.89.53-1 1.25-.06.29.13.88.05 1.1-.43 1.17-1.23 2.39-1.45 3.5-.18.92.37.81.3 1.3-.05.5-.77.93-.89 1.25-.18.51-.02 1.23-.06 1.39-.89 3.18-1.9 5.96-2.65 9.06q.3-3.24.7-6.49c.78-1.08.17-.59.2-1.42.02-.67.91-.6 1.02-1.43.05-.42-.32-1.48.17-2.31.01-.03.48 0 .67-.66.43-1.5 1.28-3.7 1.68-5.41.12-.49-.37-.53-.26-1.13.08-.43.66-.79.76-1.48.14-.86-.47-1.5.73-1.75-.35-.16-.71-.25-1.05-.42m20.31-43.32c.02-.13-.15-2.14.69-1.07-.67 2.16-2.09 4.06-2.94 6.22-.71-1.3.37-2.22 1.27-3.57.04-.07-.4.04-.14-.3.14-.17.98-.61 1.12-1.28"/><path fill="#f1a198" d="M61 1485.51c0-37.03 16.5-116.5 92.5-155.5v350.5c-41-22-92.5-94.5-92.5-195"/><path fill="#fff" d="M154.73 1355.34c-1.68.86-3.2 1.95-4.47 3.38-.29.32-.03.53-.13.69-.17.3-.81.41-.87.46-.35.33.19.62.15.68-.35.66-.66.04-1.2.47-.69.56-1.42 1.44-2.15 2.23-.26.27.17.46-.42 1.01-.42.39-2 1.32-2.16 2.28.14.14.38.22.56.33-1.4.27-1.67.61-2.61 1.96-.15.22-.57.17-.78.6-.2.43.18.79-.43 1.48-.21.25-.62.15-.96.52-.97 1.05-2.32 3.43-3.02 4.36-1.4 1.81-2.67 2.41-3.7 4.18-.08.14.45.11.29.34s-.79.16-.84.21c-.57.54-.92 2.28-1.24 2.58-.77.72-.38-.25-1.3.87-.86 1.07-1.33 3.04-1.96 4.25-.72 1.4-1.86 1.28-1.58 2.85q-3.4 5.23-6.43 10.68l.59.27-.86.65.5.1a9 9 0 0 0-2.86 3.82c-.02.04.4.15.4.18-.1.4-.6.65-.7 1.01-.21.85-.01 2.57-.76 1.49-.67 1.91-2.02 3.87-2.6 5.71-.26.79.26 1.3.14 1.67-.13.38-.58-.04-.66.08-.45.72-.98 2-.44 2.39l-.92.17c.7.19-.59 2.47-.83 3.11-.04.12.24.25.2.34-.42.95-.98 1-1.46 1.78-.17.27.53.02 0 .69-.04.06-.5-.16-.84.74-.56 1.44-1.78 4.15-2.16 5.97-.03.15.64-.1.3.51-.13.22-.46-.02-.66.55-.8 2.21-1.15 4.71-2.21 6.9.44.04 1.16-.62.52.52-.1.18-.43-.08-.47 0-.33.68-.25 1.38-.62 2.11-.11.21-.42.18-.58.44-.22.39.14.7-.18 1.14-.5.69-.94.7-.42 1.87-1.55 5.37-3.07 10.75-3.76 16.3-.53 1.57-1.05 2.98-1.4 4.63-.11.49.42.67.12 1.43-.07.17-.85 1.34.24 1.68-.15.33-.18.54-.28.83l-.4-.74c0 1.27-.53 2.3-.85 3.39-.23.81.31.28.2.78-.1.49-.23.71.27 1.42-.71.44-.28.83-.35 1.75-.01.1-.32.64-.3 1.12 0 .34.4.48.3 1.03-.02.09-.61 1.23-.68 1.6-.11.57.37 1.5.37 1.61.02 1.66-.52 2.28.32 3.42-.51.21-.83 1.22-.77 2 .06.99 1.17 2.94.08 3.26.55 1.14.23.97.32 2.38.04.56.2 1.5.4 2.43.24 1.2.53 2.43.57 2.98.08.99-.6.6-.62 1-.05.66.35.25.41.69.17 1.23.25 2.32.26 3.52l.98.04-.28.23.14.77c-1.73-1.72.44 1.89.72 3.02.23.97-.07 2.73.03 3.83.03.27.32.01.33.07.05.64-.16.79.07 1.63.13.44.66.79.77 1.21.85 3.14 1.3 6.28 2.25 9.39.17.53.81.81.97 1.25.23.62-.05 1.15.15 1.74s.98 1.26 1.05 1.68-.64-.08-.25.59c.18.31.31-.4.48.01.5 1.25.76 3.23 1.72 4.4q-.19-.03-.38-.1c.62 1.42 1.4 2.58 2.08 4.02.23.5.35 1.55.58 2.05.24.5.66.57.86.96.08.16-.24.24-.18.34.73 1.34 1.6 1.83 2.26 3.27a122 122 0 0 0 8.56 15.49c.13.19-.11.56.04.88.24.5.55.31.6.36.34.33-.04.37.33.88.81 1.12 2.42 2.71 3.26 3.8 1.95 2.51 3.47 4.74 5.51 7.13.15.18.4-.27.67 0 1.95 1.93 2.03 2.7 4.66 4.94 2.6 2.26 7.87 6.08 11.3 8.2v-.01c.55 1.46 2.1 2.17 3.62 2.26-5.56-5.9-11.81-9.61-17.6-15.57-6.05-6.26-10.28-14.56-14.87-21.82-.44-.69-1.05-.72-1.3-1.36-.04-.11.45-.05.3-.38-1.96-4.48-5.1-8.73-6.79-13.25-.45-1.21-.12-1.57-.45-2.67-.11.27-.27.47-.4.71-2.6-4.55-4.06-9.61-5.62-14.65-.07-.23-.5-.14-.58-.37-.17-.48.16-1.07.06-1.49-.14-.56-.5-.56-.6-1.08-.06-.25.28-.26.08-.79-.02-.04-.36.02-.41-.35-.14-1.02-.34-3.11-.44-3.95-.13-1.07-.83-1.8-.95-2.19-.31-1.06.22-1.15.04-2.05-.77-3.86-1.58-7.62-2.2-11.47a51 51 0 0 1-.66-8.05c0-.43.6-2.03.6-2.79 0-.26-.1-1.65-.1-1.87-.02-.86-.34-1.56-.39-2.04-.1-.9.55-1.89.65-2.37.16-.83.23-2.35.26-2.72.05-.88-.67-.67-.44-1.28.07-.17.58.08.65-.56.06-.53-.31-.8-.34-1.18-.02-.38.68-.98.7-1.21.08-1.24-.26-1.79-.08-3.11a53 53 0 0 1 1.53-6.43c1-1.71.11 1.3.1 1.49-.04.96.24.87-.4 1.72 1.32 1.05-1.44 3.67.2 4.65-1.26.6-.77 1.35-.64 2.21.17 1.17-.4.22-.5 1.05-.04.33.38 1.32.25 1.79-.13.49-.56.66-.64 1.32a6 6 0 0 0 .36 3.16l-.69.48q.28 1.07.57 2.09l-.55-.36-.11.59q.36 1 .75 2.03c-1.14 1.82-.18 1.27-.05 2.32s-.5 1.64-.48 2.42c.02 1.05-.04 1.59.06 2.65.05.61.74 1.62-.29.82.03.95.04 2.08.14 3.12.1 1.2.28 2.36.6 3.24.2.49.4-.23.45-.15.24.41-.2.84-.06 1.28.22.74.83 2.12 1.02 2.69.27.81-.12 2.24-.14 2.39-.12.8.44.9.45 1.15.06 1.41-.09 1.77 1.1 1.97-.4.45-.88 2.11 0 2.29-.72.17-.32 1.38-.32 2.18l.73.27c-.9 1.89.85 4.8 1.6 6.79.02.05-.48.3-.27.57.02.02.25-.09.34.11.3.66 1.7 3.04 1.8 3.33.38 1.08.06 1.4.25 2.07.25.88.64.89.89 1.72.11.39-.22.91.07 1.49.17.34.54.24.68.51.48.97.54 1.79 1.36 2.48-1.05.69-.04.77.22 1.17 1.07 1.62 1.55 4 2.34 5.44 2.48 4.49 5.26 8.1 7.97 12.22.44.67.02 1.15.5 1.85.22.31.8.4 1.15.91.27.42.48 1.13.82 1.65.1.13.45-.09.59.11 1.05 1.51 1.85 3.14 2.8 4.75.35.6 1.05.6.22 1.09q.52.12 1 .2c.1 1.12 1.08 1.34 1.77 2.43.08.11.19 1.29.9 1.4-.23.25-.5.37-.73.58.26.51 1.1.88 1.38 1.13.27.26.1.73.18.82.27.33.64-.14.67-.12 1.73 1.08 1.35 1.12 1.54 2.59.04.38 1.9 1.37 1.72 2.15.2-.19.3-.44.47-.65l1.46 1.11-.86.31c1.06.7 1.38 1.87 2.16 2.55.44.38.79-.12.96.21.03.06-.32.29-.2.45 1.05 1.27 1.88 1.41 3.19 2.37.62.45.69 1.45 1.86 1.73.1.03 1.34.15 1.33 1.3.35-.12.59-.13.86-.24.29 1.9.77.59 2.45 1.33.85.4 3.38 2.27 4.2 2.89.47.38.2.85.28.92.5.44.76-.03 1.24.34.49.36.88 1.25 1.46 1.48.44.18.4-.57.92-.05.11.11-.5.42.25.55.12.03 1.44 0 1.72-.02-.42-.58-1.8-1.77-2.32-2.21-9.41-6.84-25.56-22.5-32.13-32.81-.64-.91-1.52-1.22-1.96-1.82-.43-.59.34-.35-.05-.89s-.96-.75-1.31-1.27a98 98 0 0 1-6.49-10.9c-.49-.97-.46-1.94-.87-2.85-.15-.35-.66-.14-.77-.39-1.15-2.72-1.68-5.46-2.75-8.19-.45-1.13-1.32-2.23-1.75-3.36-.35-.93-.37-2.02-.63-2.88-.14-.46-.62-.58-.7-.74-.29-.56.27-.5.18-.8-.25-.83-.97-1.07-1.14-1.87-.07-.31.32-.38.25-.84-.08-.58-.37-.28-.5-.68 0-.02.3-.02.24-.23-.3-1.41-.52-3.18-.86-4.52-.69-2.76-1.79-5.4-2.36-8.02-.14-.66.26-.54.24-.76-.1-1.02-.58-1.31-.6-2.4 0-.18.4-.97.17-1.63-.12-.36-.49-.73-.6-1.03-.12-.31.34-.42.29-.8-.09-.68-.39-.44-.45-1.43l.01-.3c.06-.54.25-1.57.16-2.41-.18-1.6-.66-3.66-.66-5.6 0-.69.49-1.55.52-2.57.04-1.28.05-3.61.15-4.94.04-.68-.45-.77-.47-.85-.1-.52.45-.27.45-.61.01-.47-.36-.94-.34-1.37 0-.28.42-.28.43-.34.36-2.22.55-4.11.9-6.29 1.92-11.6 5.37-23.06 8.9-34.24.3-.95-.18-1.15.18-1.94s1.7-1.2.77-2.29c.25.06.41.13.64.18.28-1.82 1.24-3.34 1.92-4.96.5-1.2.9-2.28 1.32-3.39.38-.99-.06-1.08.83-1.7 1.43-4.35 3.44-8.5 4.94-12.82 1.31-.52 1.24-1.69 1.8-3.06.07-.17.28.16.5-.33.3-.61 0-1.16.56-2.15.15-.27 1.73-1.94 1.88-2.8s.6-1.99.78-2.87q.2.34.37.69l.75-1.05-.6-.57 1.04-.25c-.91-1.18-.81-.47.11-1.32.47-.42.51-.96.96-1.41.16-.16.58-.07.75-.25.43-.44-.23-.44-.03-.75.2-.32 1.01-.44 1.14-1.15-1.3-.01.1-1.52.87-1.13.13-.2.22-.39.38-.6-1.93-.98.04-1.19.57-1.44s.03-.56.12-.64c.24-.25.3.09.44-.1.92-1.26 1.48-2.67 2.36-3.94.13-.19.28.16.4-.06.13-.23.02-.63.26-.92.07-.08.32.06.41-.07 1.99-2.7 3.77-5.36 5.95-8 .2-.24.75-.1 1.12-.56s.63-1.45 1.1-2.03c.12-.16.47.08.64-.12.56-.68.82-1.48 1.4-2.2 1-1.21 2.32-2.21 3.26-3.51.18-.25-.1-.46.13-.84.41-.65.58-.09.73-.14.51-.19.15-.79.61-1 .08-.03.28.34.34.29.78-.65.16-1.38 1.3-1.75.34-1.06-.97-.1-1.3-.19-.78-.24-.57-1.59-.28-2.22.26-.55.55-.22.72-.37.86-.79 2.21-1.88 2.75-2.61.33-.45-.53.05-.42-.24s.47-.16.44-.61c-.02-.46-.27-1.65-.68-1.97M105 1439.23c2.19-1.16 3.5-5.67 4.22-8.1.6-2.03-.02-4.18 1.65-3.09-.79 2.1-1.6 3.78-2.33 6.05-.08.23-.4 1.7-.52 2.2-.08.28.22.39.1.77-.03.08-.58.4-.62.57-.16.58-.08 2.45-.17 2.69-.26.64-.66.24-.83.5-.59.86.1 1.19-.42 2.06-.1.16-.89.53-1 1.25-.06.29.13.88.05 1.1-.43 1.17-1.23 2.39-1.45 3.5-.18.92.37.81.3 1.3-.05.5-.77.93-.89 1.25-.18.51-.02 1.23-.06 1.39-.89 3.18-1.9 5.96-2.65 9.06q.3-3.24.7-6.49c.78-1.08.17-.59.2-1.42.02-.67.91-.6 1.02-1.43.05-.42-.32-1.48.17-2.31.01-.03.48 0 .67-.66.43-1.5 1.28-3.7 1.68-5.41.12-.49-.37-.53-.26-1.13.08-.43.66-.79.76-1.48.14-.86-.47-1.5.73-1.75-.35-.16-.71-.25-1.05-.42m20.31-43.32c.02-.13-.15-2.14.69-1.07-.67 2.16-2.09 4.06-2.94 6.22-.71-1.3.37-2.22 1.27-3.57.04-.07-.4.04-.14-.3.14-.17.98-.61 1.12-1.28"/><path fill="#fff" d="M159.23 1383.34a9 9 0 0 0-3.48 2.51c-.22.26.03.48-.03.61-.12.24-.67.27-.7.31-.28.25.22.57.2.62-.23.54-.57-.04-.99.28-.55.41-1.09 1.11-1.64 1.71-.2.21.21.43-.25.85-.32.29-1.62.92-1.65 1.74.15.14.37.23.54.35-1.21.07-1.4.34-2.1 1.41-.1.17-.48.08-.62.42-.13.35.26.71-.2 1.24-.17.18-.55.05-.81.33-.75.8-1.7 2.69-2.23 3.39-1.05 1.39-2.14 1.76-2.89 3.14-.05.11.43.14.31.32s-.7.05-.74.08c-.46.39-.6 1.83-.85 2.04-.63.52-.38-.25-1.1.59-.68.81-.9 2.4-1.34 3.34-.52 1.09-1.6.86-1.16 2.2a141 141 0 0 0-4.92 8.11l.58.28-.74.45.47.13a5.4 5.4 0 0 0-2.33 2.82c0 .03.4.16.4.18-.06.31-.51.47-.56.75-.13.67.23 2.07-.59 1.13-.46 1.48-1.56 2.94-1.96 4.36-.17.61.37 1.06.28 1.35s-.55-.09-.61 0c-.38.54-.78 1.51-.22 1.87l-.88.06c.7.21-.35 1.92-.52 2.4-.04.09.25.22.22.29-.33.72-.86.71-1.27 1.29-.14.2.51.06.06.55-.03.04-.5-.17-.75.52-.43 1.1-1.4 3.14-1.63 4.55-.02.11.61-.03.32.42-.1.16-.44-.05-.6.38-.6 1.69-.77 3.62-1.66 5.26.44.06 1.1-.41.55.44-.1.13-.43-.09-.47-.03-.27.51-.15 1.06-.46 1.6-.1.16-.4.11-.54.31-.2.29.18.55-.1.87-.45.51-.88.49-.3 1.43-1.19 4.09-2.4 8.17-2.83 12.41-.46 1.19-.91 2.25-1.2 3.5-.1.38.44.54.17 1.11-.06.13-.8.99.3 1.29-.14.25-.16.41-.25.63l-.43-.58c.05.97-.45 1.74-.74 2.57-.21.61.32.22.23.6-.1.38-.22.54.3 1.1-.7.32-.26.62-.31 1.32 0 .08-.3.49-.28.86.01.26.42.37.32.79-.01.07-.59.93-.65 1.21-.1.44.39 1.16.4 1.24.03 1.27-.5 1.73.34 2.61-.52.15-.83.93-.77 1.53.06.75 1.15 2.24.06 2.49.53.87.22.75.29 1.82.02.44.17 1.17.34 1.88.21.9.45 1.83.48 2.25.04.76-.62.48-.66.79-.06.51.35.18.4.51.11.95.16 1.77.12 2.7l.97-.01-.29.19.11.59c-1.65-1.26.36 1.43.58 2.29.18.74-.2 2.11-.16 2.96.01.2.32-.01.32.03.01.5-.2.63-.01 1.26.1.34.6.58.69.9.66 2.39.9 4.82 1.61 7.19.12.4.74.58.86.91.17.48-.13.91.02 1.37.15.45.86.92.9 1.24.03.33-.63-.01-.3.49.16.23.34-.34.47-.03.38.95.48 2.5 1.31 3.35q-.18-.01-.36-.04c.48 1.07 1.14 1.93 1.66 3.02.18.39.2 1.22.38 1.6s.58.4.73.7c.06.12-.25.21-.2.29.57 1.01 1.36 1.33 1.84 2.43a93 93 0 0 0 6.38 11.89c.1.16-.17.5-.06.75.16.39.47.19.51.23.28.24-.08.32.2.71.62.86 1.9 2.03 2.54 2.87 1.48 1.93 2.58 3.68 4.11 5.54.11.14.39-.28.6-.07 1.5 1.47 1.48 2.13 3.5 3.83a87 87 0 0 0 8.73 6.19c.3 1.29 1.53 1.79 2.77 1.73-3.97-4.96-8.83-7.58-13.22-12.15-4.6-4.8-7.48-11.33-11-16.8-.33-.52-.9-.47-1.07-.98-.03-.08.43-.08.33-.34-1.37-3.46-3.94-6.57-5.16-10.03-.33-.93.02-1.25-.2-2.08q-.22.31-.45.59c-2.11-3.39-3.16-7.26-4.36-11.07-.05-.18-.48-.08-.55-.26-.13-.36.23-.83.16-1.16-.1-.42-.45-.4-.53-.8-.04-.19.3-.22.13-.61-.01-.03-.35.03-.38-.26-.08-.77-.16-2.37-.22-3.02-.07-.81-.72-1.34-.82-1.64-.26-.8.27-.89.13-1.58-.57-2.92-1.23-5.75-1.75-8.67a36 36 0 0 1-.55-6.13c0-.33.6-1.54.6-2.12-.01-.19-.13-1.25-.13-1.41-.02-.66-.35-1.2-.4-1.56-.12-.69.5-1.44.6-1.8.14-.62.18-1.78.2-2.06.03-.66-.69-.53-.47-.98.06-.13.58.07.63-.41.05-.41-.33-.62-.37-.91s.65-.73.66-.91c.03-.94-.32-1.37-.19-2.37.1-.85 1.04-4.56 1.26-4.87.9-1.26.17 1 .17 1.15 0 .74.27.67-.33 1.3 1.35.85-1.28 2.75.38 3.56-1.24.41-.73 1-.57 1.66.2.9-.39.16-.47.78-.03.25.42 1.02.3 1.38-.11.37-.53.48-.6.98-.14.9 0 1.6.42 2.41l-.67.35q.28.81.6 1.59l-.56-.27-.1.44.77 1.54c-1.13 1.37-.17.96-.04 1.76.14.79-.5 1.24-.48 1.83 0 .79-.06 1.21.03 2.01.05.46.71 1.21-.3.62.01.72 0 1.59.07 2.38.07.9.2 1.78.5 2.44.17.37.4-.19.45-.13.22.3-.23.65-.1.98.2.55.75 1.59.91 2.01.23.61-.21 1.72-.24 1.83-.15.62.4.68.4.87 0 1.07-.17 1.36.99 1.45-.42.37-.97 1.67-.12 1.76-.71.17-.38 1.08-.42 1.69l.7.18c-1 1.5.55 3.65 1.16 5.15.02.04-.5.26-.3.46.01.01.24-.08.32.06.25.5 1.45 2.26 1.53 2.47.3.82-.05 1.09.09 1.6.17.68.56.65.73 1.29.08.29-.28.73-.05 1.16.14.26.5.15.62.35.39.72.38 1.36 1.1 1.84-1.06.63-.1.61.13.91.89 1.19 1.13 3.03 1.76 4.12 1.94 3.36 4.2 6 6.28 9.08.33.5-.11.94.26 1.47.17.23.7.24.96.63.2.31.31.88.58 1.27.06.1.42-.12.52.03.8 1.13 1.34 2.4 2.01 3.65.25.46.89.38.07.89l.89.05c-.04.94.82 1 1.3 1.85.06.09.02 1.08.65 1.09-.24.24-.5.38-.73.59.17.4.88.62 1.1.81.2.18 0 .61.05.68.2.25.6-.2.62-.19 1.4.73 1.06.81 1.04 2.07 0 .32 1.52.97 1.25 1.67.21-.19.33-.42.5-.63l1.14.81-.79.37c.84.49.98 1.49 1.57 2 .34.29.7-.2.8.07.02.06-.3.3-.22.43.75 1.01 1.45 1.04 2.45 1.75.47.33.42 1.23 1.37 1.35.1.02 1.12-.02.98 1.03.3-.14.5-.19.75-.32.02 1.72.58.46 1.89.96a20 20 0 0 1 3.13 2.23c.35.3.08.77.14.83.37.36.63-.1.98.19s.58 1.09 1.03 1.26c.34.13.38-.58.75-.14.08.09-.45.45.15.51.1.01 1.16-.15 1.38-.19a12 12 0 0 0-1.65-1.88c-6.78-5.69-18.74-17.35-23.74-25.06-.48-.68-1.26-.83-1.6-1.28-.34-.44.35-.32.05-.72s-.8-.52-1.08-.9a69 69 0 0 1-5-8.15c-.37-.73-.25-1.5-.56-2.18-.11-.27-.62-.05-.7-.24-.86-2.06-1.13-4.17-1.95-6.22-.34-.85-1.11-1.64-1.44-2.49-.28-.7-.21-1.55-.4-2.19-.11-.35-.57-.41-.64-.53-.24-.41.3-.41.23-.63-.19-.63-.87-.77-1-1.37-.04-.24.35-.31.31-.67-.04-.44-.35-.19-.44-.49-.01-.02.28-.03.25-.2-.22-1.06-.33-2.41-.58-3.42-.53-2.07-1.5-4.04-1.95-6.01-.1-.5.28-.43.27-.59-.05-.77-.53-.97-.5-1.8 0-.14.43-.75.23-1.25-.1-.26-.47-.53-.57-.76s.35-.33.31-.61c-.06-.52-.36-.33-.4-1.08q0-.07.02-.21c.07-.4.3-1.19.22-1.82-.15-1.19-.6-2.74-.61-4.2 0-.51.48-1.16.51-1.93.03-.96.01-2.71.08-3.71.04-.51-.46-.59-.47-.65-.11-.4.43-.2.43-.45 0-.35-.38-.72-.38-1.05 0-.21.42-.2.43-.24.3-1.68.44-3.1.72-4.74 1.5-8.75 4.22-17.35 6.82-25.81.22-.71-.26-.91.03-1.5s1.56-.8.57-1.73l.64.19c.12-1.4.94-2.53 1.46-3.74.39-.9.67-1.72.98-2.56.28-.75-.15-.86.65-1.28 1-3.31 2.53-6.43 3.53-9.76 1.2-.29 1.01-1.24 1.4-2.29.05-.13.28.16.45-.21.2-.47-.14-.95.3-1.69.11-.2 1.43-1.39 1.48-2.08.04-.68.34-1.55.43-2.26l.41.6.59-.77-.63-.54.95-.09c-.97-1.06-.8-.47-.03-1.07.38-.29.36-.73.73-1.05.13-.12.54.01.68-.12.34-.32-.27-.39-.12-.63s.9-.25.94-.82c-1.22-.15-.08-1.25.67-.84.1-.15.16-.3.29-.45-1.9-1.03-.1-.99.36-1.13.45-.15-.04-.46.03-.52.2-.18.3.11.4-.03.7-.95 1.05-2.07 1.71-3.03.1-.14.28.17.36-.01.1-.17-.06-.52.13-.74.05-.06.3.09.37 0 1.5-2.05 2.78-4.09 4.42-6.09.15-.18.66.01.94-.35.28-.35.38-1.17.72-1.61.1-.12.44.13.56-.02.42-.53.55-1.19.98-1.74.74-.93 1.78-1.64 2.44-2.66.13-.2-.15-.42.01-.73.28-.52.5 0 .63-.03.42-.1.02-.68.4-.8.06-.02.3.33.33.3.6-.48-.03-1.21.92-1.4.16-.9-.86-.2-1.15-.32-.72-.3-.7-1.48-.51-2.01.15-.45.45-.12.57-.24.65-.6 1.7-1.41 2.07-2.01.23-.36-.45-.02-.39-.26.07-.25.38-.08.31-.5-.07-.41-.43-1.51-.82-1.85m-37.36 64.21c2.06-.76 3.01-4.18 3.52-6.04.41-1.55-.35-3.3 1.35-2.3-.6 1.59-1.26 2.85-1.8 4.57-.05.18-.24 1.31-.33 1.69-.06.21.25.32.15.6-.03.06-.54.28-.57.4-.1.45.1 1.91.03 2.09-.2.48-.62.14-.78.33-.5.64.19.93-.26 1.58-.08.11-.84.35-.9.9-.04.23.18.7.12.86-.35.88-1.06 1.78-1.2 2.62-.13.7.4.65.38 1.03s-.71.67-.81.91c-.15.39.05.95.02 1.07-.7 2.4-1.55 4.49-2.15 6.84q.13-2.49.36-4.96c.72-.79.14-.45.12-1.09-.01-.51.87-.41.93-1.05v.01c.03-.33-.4-1.17.03-1.79.02-.02.48.04.62-.47.34-1.13 1.04-2.78 1.32-4.09.08-.37-.4-.43-.33-.89.05-.33.59-.57.64-1.1.08-.67-.56-1.2.6-1.32-.36-.15-.72-.24-1.06-.4m15.6-32.8c0-.1-.38-1.78.52-.81-.39 1.71-1.52 3.12-2.1 4.79-.8-1.13.12-1.78.82-2.79.03-.05-.38 0-.16-.26.1-.12.85-.39.91-.93"/><path fill="#79a363" fill-opacity=".8" d="M0 853c0 11.87 12.63 26.5 24.5 26.5s19-11.63 19-23.5-12.63-24-24.5-24-19 9.13-19 21M101.93 115.3c-14.54-3.89-28.31-24.15-24.41-38.69s20.47-19.45 35-15.55c14.55 3.9 25.25 23.33 21.36 37.87s-17.41 20.27-31.95 16.38"/><path fill="#79a363" fill-opacity=".8" d="M11.5 854.73c0 5.5 5.8 12.27 11.26 12.27s8.74-5.38 8.74-10.88S25.7 845 20.24 845s-8.74 4.23-8.74 9.73M103.59 100.66c-6.74-1.8-13.13-11.14-11.34-17.82 1.8-6.69 9.46-8.93 16.2-7.13s11.7 10.76 9.91 17.44-8.04 9.31-14.77 7.5"/><path fill="#f1a198" d="M59.5 894c0 5.8 7.7 10 13.5 10s7.5-4.2 7.5-10-6.2-9-12-9-9 3.2-9 9M71.25 29c-7.1-1.9-9.72-12.71-7.82-19.82s7.6-7.8 14.7-5.9 9 10.55 7.09 17.65c-1.9 7.1-6.87 9.97-13.97 8.07"/><path fill="#faae37" fill-opacity=".6" d="M137.56 190c3.86-17-1.93-63 15.44-63v270c-15.68-8-35.2-60-36.9-111-1.68-51 17.6-79 21.46-96"/><path fill="#ffe1b2" d="M133.13 290.73c-.05-1.77 0-3.43.09-5.48l.04-.93c.1-2.56.24-5.86.4-10.83.17-5.47.69-9.88 1.14-12.5.08-.5.14-1 .23-2.3l.26-3.65.24-3.1c.32-4 .78-10.22 1.4-15.93a251 251 0 0 1 1.14-9.23c.5-3.62 1.06-7.11 1.7-10.9l1.91-11.47a126 126 0 0 1 2.39-10.9c.7-2.83 1.41-5.72 2.04-8.88a179 179 0 0 0 2.29-15.17c.23-1.97.46-4 .73-6.21.43-3.49 1.1-8.5 1.71-13.54l.16-1.3c.56-4.6 1.06-9.14 1.36-12.47.48-5.3.54-7.29.6-8.97l.08-1.89c.13-2.5.43-6.24.7-10.03V115c.04-.63.36-1.12.7-1.1.35.03.6.56.55 1.2l-.42 5.74c.29.12.48.6.43 1.17-.12 1.43-.22 5.81-.53 12.67l.28-1.19.24-.96c.14-.55.24-.92.34-1.56.19-1.5.41-3.9.63-6.4.05-.63.37-1.12.72-1.09s.58.58.52 1.21v.04a186 186 0 0 1-.78 7.53l-.13.7v.01c0 .02-.04.15-.1.27l-.09.15-.01.05-.2.75c-.25 1.03-.6 2.69-1.17 6.12-.52 3.16-1.2 8.52-2.05 15.2a178 178 0 0 0 .84-4.75l.21-1.3.57-3.57.31-2.01.11-.7c.14-.92.28-1.82.47-2.86l.15-.68.07-.25v-.04l.13-.5.05-.22.06-.32.06-.34.15-1.1.05-.38q.06-.46.28-.77.2-.3.46-.28.25.03.4.37c.1.22.13.52.1.81l-.01.25-.01.14-.04.4-.04.4-.15 1.28-.06.34-.12.63-.01.03-.1.5-.04.21-.33 2.97-.04.38-.78 6.97a325 325 0 0 1-.93 7.02c-.17 1.16-.37 2.37-.57 3.54a63 63 0 0 1-.8 3.82l-.75 3.38a101 101 0 0 0-1.2 6.89q-.23 1.56-.44 3.14l-.44 3.2-.15 1.13-1.21 8.58q-.25 1.63-.54 3.33l-.53 2.99-.14.78a187 187 0 0 0-1.15 7.18 206 206 0 0 0-.83 7.3 397 397 0 0 0-.56 5.85l-.22 2.09-.09.84-.31 3.13a62 62 0 0 0-.2 3.56c-.07 1.47-.15 2.39-.23 3.4l-.08.95-.59 6.8-.32 3.56-.34 3.54-.7 7-.05.57a145 145 0 0 0-.3 3.62 52 52 0 0 0-.07 4.56l.08 3.52.01.58a200 200 0 0 0 .27 5.13c.07.96.1 1.9.11 2.72l.04 2.31v.42l.08 3.9a124 124 0 0 0 .4 6.44l.22 2.47a177 177 0 0 1 .49 7.55l.11 2.5.36 7.74a400 400 0 0 0 .79 11.55v.01a291 291 0 0 0 .78 7.85 114 114 0 0 0 .58 4.17 197 197 0 0 0 1.86 11.85 552 552 0 0 0 1.5 8l1.68 8.42a253 253 0 0 0 3.85 15.7l.5 1.26c1.21 2.99 2.14 5.14 3.32 7.95l.36.75.07.15a44.08 44.08 0 0 1 2.48 6.4c.18.58.04 1.07-.33 1.1-.25 0-.54-.22-.75-.56q.38 1.03.78 2.04.16.42.11.77t-.28.44q-.24.07-.54-.15-.3-.25-.48-.66a201 201 0 0 1-4.45-10.73l-.5-1.31-.17-.48-.15-.4a204 204 0 0 1-5.53-17.25 248 248 0 0 1-2.03-7.77l-.38-1.3-1.12-3.74c.52 2.23 1 4 1.47 5.69l.19.67c.65 2.28 1.28 4.47 2.05 7.45 2.22 8.46 3.9 13.25 4.87 16.25 1 3 1.39 4.29 1.63 5.56.34 1.8 1.51 5.06 2.23 6.66.26.58.21 1.16-.1 1.3-.32.14-.79-.22-1.05-.8a42 42 0 0 1-2.45-7.4c-.18-.97-.48-2.02-1.47-5-.97-2.97-2.63-7.74-4.87-16.26-.75-2.9-1.36-5-2-7.28l-.2-.68c-.58-2.08-1.2-4.37-1.88-7.47-1.59-7.16-3.23-16.9-3.64-19.2l-.25-1.35c-.34-1.78-.76-3.9-1.35-8.78q-.2-1.6-.4-3.68c-.36-2.04-.68-4-.9-5.73-.2-1.5-.45-2.86-.7-4.19l-.22-1.15-.49-2.76q-.15-1.08-.37-2.27a76 76 0 0 1-1.15-11.02c-.12-4.89-.07-9.03.01-12.63-.09 2.67-.18 4.66-.25 6.38q0 .49-.03.93a77 77 0 0 0-.09 5.23c.22 7.76.51 10.68 1 13.93q.2 1.3.47 2.83c.37 2.02.8 4.36 1.16 6.86a197 197 0 0 0 1.59 9.29c.63 3.33 1.33 6.82 1.97 10.21l.26 1.3c.58 2.88 1.63 7.91 2.64 14.11.23 1.37.42 2.79.66 4.4l.24 1.55c.36 2.31.84 5.12 1.7 8.8.7 3.05 1.66 6.73 2.8 10.53a190.64 190.64 0 0 0 7.61 21.34c.25.6.2 1.17-.13 1.3-.32.12-.8-.26-1.05-.85a192 192 0 0 1-5.88-15.8c-.6-1.85-1.2-3.75-1.75-5.62-1.14-3.83-2.13-7.59-2.84-10.68a125 125 0 0 1-1.97-10.6c-.24-1.6-.42-2.95-.64-4.25-.97-6.03-2-10.89-2.58-13.79l-.27-1.35-1.97-10.13-.3-1.62c-.5-2.75-.97-5.4-1.3-7.78-.36-2.4-.75-4.53-1.1-6.49a113 113 0 0 1-.53-3.09c-.52-3.46-.82-6.54-1.04-14.35m27 100.97a39 39 0 0 0-1.24-3.4zm-20.33-74.1.13.73-.47-4.58q.16 2.01.34 3.84m-3.8-26.87a72 72 0 0 0 1.08 10.41l.39 2.43.16 1c-.09-1.95-.16-3.74-.2-5.22-.15-4.35-.1-6.88-.06-9.05q0-.95.03-1.87a93 93 0 0 1-.45-6.28 146 146 0 0 1-.14-4.62l-.05-2.12q-.02-1-.08-1.74a148 148 0 0 1-.32-5.68l-.02-.62v-.27c-.05 1.21-.09 2.52-.12 3.8l-.19 6.16a254 254 0 0 0-.04 13.67m1.17-42.17-.18 3.07v-.01l.22-1.9.37-3.4.37-3.38.36-3.4.37-3.4.11-1.09-.36 2.51-.3 2.24-.15 1.05c-.23 1.68-.58 4.28-.81 7.7m2.43-22.53a84 84 0 0 1 .34-2.93l.2-1.44.07-.6.14-1a317 317 0 0 0-1.06 7z"/><path fill="#f8cb83" d="M152.8 1190.15c-1.2-.27-9.34-.82-9.86-.46-.15.1-.81 1.69-.92 2.03-1.1 3.49-.43 17.75-.37 22.28.14 10.77 1.15 21.54 1 32.32.06-1.4.54-3.06.47-4.51l1.2 1.01c-1.46-14.24-1.44-29.07-1.2-43.37.39-.14.86 1.22.93 1.47 1.19 4.63.24 20.96.55 27.07.42 8.49 1.03 17.81 1.93 26.25.22 2.09-.03 3.88 1.2 6.35 2.75 5.6 6.66 4.72 11.13 1.56 1.99-2.74-.7-3.02-2.67-1.56l1.2-8.38c-.4-16.53-.5-33.18-2.48-49.63-.3-2.49-2.07-6.55-1-8.75.14-.31.05-.8.08-.83.66-.47 4.48.88 4.24-.37-.38-1.92-3.87-1.5-5.16-1.84-.54-.14-.24-.63-.28-.64"/><path fill="#f8cb83" d="M152.8 1190.15c.03.01-.28.5.27.64 1.28.34 4.78-.08 5.16 1.84.25 1.25-3.58-.1-4.24.37-.03.03.06.53-.09.83 4.6 19.69 5.19 40.38 3.95 60.5-.6.71-.45-1.84-.46-2.12l-1.2 8.38c1.96-1.45 4.66-1.18 2.67 1.56-4.56 6.31-10.15 2.32-13.44-2.76 2.3 6.73 9.81 8.88 14.27 2.67 2.24-3.11 1.91-13.15 1.84-17.13-.3-17.21-1.96-34.53-2.75-51.74-.2-2.98-3.83-2.34-5.98-3.04"/><path fill="#f8cb83" d="M142.66 1246.32c-.16 3.84.68 9.87 2.76 13.07 3.29 5.08 8.88 9.07 13.44 2.76-4.48 3.16-8.38 4.04-11.14-1.56-1.22-2.47-.98-4.26-1.2-6.35-1.76-3.44-1.82-7.65-2.2-11.42l-1.2-1.01c.07 1.45-.4 3.11-.46 4.51"/><path fill="#ffe1b2" d="M154.73 1165.2c-.38-.39-9.5-.08-10.86-.74-.3.22-.1 3.36 0 3.5.84 1.15 9.71 1.45 11.23.37.15-.2-.21-2.97-.37-3.13"/><path fill="#f8cb83" d="M153.9 1193.83c-1.07 2.2.71 6.26 1.01 8.75 1.98 16.45 2.09 33.1 2.48 49.63 0 .28-.15 2.83.46 2.12 1.24-20.12.64-40.82-3.95-60.5M144.32 1242.82c.38 3.77.44 7.98 2.2 11.42-.89-8.43-1.5-17.76-1.93-26.24-.3-6.12.65-22.45-.54-27.07-.07-.26-.55-1.62-.93-1.48-.24 14.31-.27 29.13 1.2 43.37"/><path fill="#ffe1b2" d="m154.36 1178.45-8.84-.18-1.84 10.5 13.63 1.65z"/><path fill="#ffe1b2" d="M152.33 1181.58c-.36-.38-1.43-.02-1.1.74.49 1.11 1.58-.24 1.1-.74M149.02 1185.64c-.25-.56-1.73-.33-1.29.55.35.7 1.57.05 1.29-.55M150.5 1184.16c-.1-.82-1.8-.17-1.3.55.18.26 1.37.13 1.3-.55M152.89 1185.08c-.35-.55-1.26.03-.92.55.35.56 1.25-.02.92-.55M146.63 1185.08c-.15-.82-1.4-.16-1.1.37.23.44 1.19.12 1.1-.37M146.81 1180.48c-.53-.8-1.03.47-.74.73.3.27 1.04-.29.74-.73M148.56 1178.18l.83-.65c-.89.3-2.35-.6-2.95-1.29 3.48.12 6.62 2.37 8.02-1.75.23-.7.68-4.92.27-5.25l-10.31-.18c.16 1.05 1.4 8.12 1.65 8.47.28.38 1.95.58 2.49.65"/><path fill="#ffe1b2" d="M148.56 1178.18c2.63.33 6.42-.25 5.9-3.69-1.4 4.13-4.54 1.87-8.02 1.75.6.69 2.06 1.59 2.95 1.29zM152.52 1173.67c-.45-.45-1.14.49-1.1.73.09.66 1.6-.24 1.1-.73M149.02 1173.48c-.35-.55-1.26.03-.92.55.35.56 1.26-.02.92-.55M147.55 1171.27c-.26-1.15-1.55-.09-.74.37.04.02.78-.18.74-.37M151.23 1172.01c-.24-.13-.84.53-.37.73.4.17.46-.69.37-.73"/><path fill="#bec9d9" d="M173.8 1095.13c-.61.43.13.91.46 1.2 23.41 19.75 14.15 56.56-14.28 66.39 30.77-7.77 38.27-48.17 13.82-67.59"/><path fill="#e0e5ec" d="M159.98 1162.71c28.43-9.82 37.7-46.63 14.28-66.39-.33-.28-1.07-.76-.46-1.19-25.84-20.53-65.4.21-62.34 33.8 2.08 22.74 26.38 41.44 48.52 33.78"/><path fill="#d4deec" d="M174.45 1100.93c-10.48-10.64-29.65-12.58-42.36-4.97-31.16 18.68-15.44 67.48 21.54 63.9 29.24-2.83 40.55-38.92 20.82-58.93"/><path fill="#f9f9f9" d="M175.92 1104.25c-29.09-34.26-78.27 8.66-53.6 40.7 29.93 38.86 81.67-7.65 53.6-40.7"/><path fill="#e2e8ec" d="M146.27 1094.49c-9.25 2.46-19.77 9.3-23.94 18.23-2.8 6-3.28 18.39-.19 24.31 2.52 4.82 5.5 8.08 11.05 5.52-5.97-4.55-8.23-12.14-8.65-19.33-.66-11.3 6.34-18.4 15.29-24.31 2.1-1.39 5.2-1.44 6.44-4.42"/><path fill="#fff" d="M176.66 1110.14c-.47-.52-3.23-2.77-3.69-2.03 7.09 15.8 4.32 38.97-15.29 43.65.98 2.91 3.7 2.36 5.9 1.47 13.36-5.4 23.9-31.11 13.08-43.09"/></svg>