<svg width="153" height="1681" viewBox="0 0 153 1681" fill="none" xmlns="http://www.w3.org/2000/svg">
<path d="M94.7318 987.739C95.1246 991.525 96.7687 995.805 99.44 998.593C102.111 1001.38 106.772 1004.08 110.596 1004.8C117.837 1006.18 109.228 1000.92 108.168 999.979C101.585 994.134 97.3236 987.788 100.866 978.717C100.423 978.469 96.021 985.094 95.8185 983.701C100.324 971.577 104.129 959.348 107.292 946.801C105.782 948.901 104.914 952.198 104.139 954.8C101.221 964.588 96.7654 976.699 95.3723 986.565C95.2936 987.131 94.9189 987.288 94.7329 987.735L94.7318 987.739Z" fill="#9EBB8E"/>
<path d="M127.619 902.163C122.626 916.767 117.911 931.425 113.065 946.082C113.355 946.193 113.306 946.656 113.595 946.759C114.959 947.252 117.186 947.158 118.656 947.432C127.316 927.188 131.611 902.823 140.526 882.953C147.667 867.045 169.284 875.673 168.564 887.969C168.187 894.396 162.055 909.151 159.752 916.078C157.569 922.645 155.182 929.133 152.999 935.699C147.007 953.722 141.446 974.569 134.923 991.764C136.411 992.924 137.445 994.503 139.461 994.773C153.553 963.563 160.724 925.5 174.016 893.545C180.31 872.966 153.313 858.004 139.148 874.202C133.836 880.278 130.325 894.234 127.616 902.162L127.619 902.163Z" fill="#D4DEEC"/>
<path d="M163.691 870.402C155.825 866.811 146.868 867.147 141.038 873.823C143.252 873.474 145.058 871.761 147.151 870.949C157.905 866.773 167.126 873.196 172.932 882.006C172.856 877.557 167.691 872.226 163.691 870.402Z" fill="#D4DEEC"/>
<path d="M126.782 916.459L123.778 925.136L121.458 934.04C122.849 931.283 123.295 928.179 124.232 925.287C125.127 922.527 127.164 919.496 126.778 916.458L126.782 916.459Z" fill="#D4DEEC"/>
<path d="M145.267 972.328L143.988 975.044L143.016 978.363C144.366 976.551 144.375 974.307 145.268 972.325L145.267 972.328Z" fill="#D4DEEC"/>
<path d="M94.7319 987.738C94.9178 987.29 95.2925 987.134 95.3712 986.568C96.762 976.697 101.22 964.591 104.138 954.802C104.913 952.201 105.784 948.905 107.291 946.804C104.128 959.351 100.323 971.58 95.8174 983.704C96.0199 985.097 100.422 978.472 100.865 978.72C97.3225 987.791 101.584 994.137 108.167 999.982C109.227 1000.93 117.836 1006.18 110.595 1004.81C106.771 1004.08 102.138 1001.41 99.4389 998.596C102.781 1004.69 114.681 1009.47 121.255 1009.09C129.52 1008.61 136.233 1001.93 139.464 994.777C137.449 994.503 136.411 992.926 134.926 991.768C131.462 1000.9 121.417 1005.07 112.55 1001.18C96.8385 994.303 101.886 981.178 105.564 968.72C106.649 965.049 107.745 961.426 108.938 957.779C110.22 953.855 111.778 949.981 113.065 946.084C117.911 931.428 122.626 916.77 127.619 902.166C126.097 901.98 122.42 899.645 121.458 901.005L94.5302 983.783C94.1395 985.313 94.5857 986.367 94.7262 987.744L94.7319 987.738Z" fill="#9EBB8E"/>
<path d="M123.503 902.053C121.516 900.563 120.877 904.97 120.34 906.658C115.27 922.615 110.771 938.798 106.704 955.023C112.189 939.807 117.545 924.47 121.855 908.917C122.255 907.472 124.696 902.947 123.499 902.052L123.503 902.053Z" fill="#9EBB8E"/>
<path d="M135.344 993.156L128.036 1001.54C131.245 999.714 133.886 996.535 135.344 993.156Z" fill="#9EBB8E"/>
<path d="M118.656 947.433C117.181 947.161 114.958 947.256 113.595 946.76C111.912 950.367 110.68 954.166 109.392 957.927C108.293 961.141 106.449 965.617 105.791 968.793C102.297 985.635 125.388 995.52 135.923 981.918C140.745 975.69 149.549 945.102 152.774 935.621C155.002 929.077 157.085 922.474 159.3 915.926C159.145 915.717 158.533 914.446 158.427 914.381C156.944 913.455 153.266 912.244 152.687 914.614C145.447 932.748 141.327 953.855 133.782 971.663C130.257 979.98 123.238 986.199 115.214 977.947C106.677 969.165 118.497 957.008 118.656 947.433Z" fill="#9EBB8E"/>
<path d="M156.24 914.915C155.088 913.941 153.986 915.124 153.448 916.125C149.811 928.47 146.002 940.791 141.748 952.95C138.135 963.275 134.743 978.155 125.124 984.123C123.207 985.312 122.878 983.813 121.118 983.676C120.607 983.634 119.745 984.273 119.157 984.281C118.271 984.294 115.742 983.445 115.228 984.361C113.624 987.242 123.811 986.34 125.126 986.008C132.174 984.241 134.296 979.468 136.804 973.17C143.322 956.794 148.968 937.777 154.887 920.877C155.274 919.776 157.009 915.571 156.232 914.916L156.24 914.915Z" fill="#9EBB8E"/>
<path d="M115.448 947.624C114.514 947.045 114.089 947.979 113.713 948.682C111.86 952.144 107.249 966.75 106.362 970.865C105.615 974.33 108.308 979.351 111.07 981.345C111.624 981.428 111.407 980.262 111.368 980.062C111.05 978.394 108.863 975.639 108.333 973.276C107.108 967.854 110.51 960.837 112.448 955.545C112.833 954.497 115.901 948.047 115.453 947.622L115.448 947.624Z" fill="#9EBB8E"/>
<path d="M114.996 980.891C114.211 980.428 114.414 981.039 114.771 981.569C115.178 981.532 115.339 981.091 114.996 980.891Z" fill="#9EBB8E"/>
<path d="M135.064 502.771C136.486 503.444 139.146 495.402 141.052 494.671C135.042 475.569 128.752 456.551 121.731 437.801L115.539 447.401C120.933 461.525 125.11 476.147 130.216 490.359C130.767 491.89 134.465 502.486 135.062 502.769L135.064 502.771Z" fill="#F1A198"/>
<path d="M112.225 411.796C112.188 411.759 111.484 411.757 111.512 411.072C110.34 411.136 105.253 417.477 105.213 419.158L114.929 445.928L115.638 445.519C117.556 442.497 118.768 438.932 121.363 436.465C121.768 435.202 113.715 413.258 112.222 411.794L112.225 411.796Z" fill="#E0E5EC"/>
<path d="M132.057 498.175C128.917 490.231 126.069 481.813 123.228 473.519C120.289 464.931 117.344 456.328 114.587 447.675C103.405 450.778 91.4582 448.804 80.1176 450.757L101.271 506.072L131.679 505.39C136.509 505.062 133.12 500.86 132.059 498.176L132.057 498.175Z" fill="#F1A198"/>
<path d="M132.058 498.176L123.229 473.519C126.069 481.816 128.915 490.23 132.058 498.176Z" fill="#F1A198"/>
<path d="M102.991 501.872L102.775 498.843C99.1065 488.651 94.5863 478.618 90.7458 468.512C89.1022 464.187 89.0659 458.66 85.3946 455.01L102.992 501.869L102.991 501.872Z" fill="#F1A198"/>
<path d="M125.241 487.565C123.378 481.779 122.245 474.152 119.597 468.894C119.508 468.716 118.942 467.411 118.573 468.158L124.653 488.043L123.471 486.733C124.791 492.207 127.922 497.379 128.813 502.811C128.988 502.769 129.814 502.758 129.887 502.607C128.93 499.454 130.229 502.363 130.544 502.006C128.873 497.151 126.817 492.455 125.241 487.565Z" fill="#F1A198"/>
<path d="M114.668 458.056C114.197 457.956 114.58 459.028 114.602 459.311C114.898 463.068 117.8 470.97 119.163 474.79C119.734 476.387 120.525 478.542 121.584 479.861L114.668 458.056Z" fill="#F1A198"/>
<path d="M125.241 487.566C126.817 492.456 128.872 497.155 130.544 502.008C130.229 502.364 128.931 499.453 129.887 502.608C129.817 502.76 128.99 502.768 128.814 502.813C127.261 503.193 125.095 502.488 123.481 503.209C124.801 503.484 130.337 503.674 130.891 502.528L125.24 487.569L125.241 487.566Z" fill="#F1A198"/>
<path d="M114.603 459.308C114.581 459.025 114.198 457.953 114.669 458.053C113.805 457.117 112.545 452.828 111.969 452.34C110.269 450.897 103.245 452.035 100.905 452.422C103.157 453.077 109.826 451.395 111.451 452.695C112.02 453.152 113.329 458.517 114.603 459.308Z" fill="#F1A198"/>
<path d="M86.0635 452.967C90.8698 452.594 95.6949 452.403 100.45 451.521L93.1263 451.765L86.0648 452.964L86.0635 452.967Z" fill="#F1A198"/>
<path d="M103.551 503.152C105.145 504.499 111.545 503.196 113.717 503.535C113.686 502.914 113.384 503.013 112.936 502.935C110.749 502.551 106.653 503.752 104.174 503.179L103.479 502.142C102.885 502.217 103.465 503.079 103.551 503.152Z" fill="#F1A198"/>
<path d="M105.213 419.158C105.252 417.473 110.338 411.135 111.512 411.072C111.483 411.757 112.187 411.76 112.224 411.796C111.698 409.76 109.263 408.224 107.451 407.499C104.51 406.322 80.4067 408.306 77.5168 409.898C74.0159 411.826 68.2107 418.861 68.8244 423.098L80.0993 449.936C82.5704 449.513 85.1487 449.136 87.6467 449.009C94.0869 448.68 104.307 449.178 110.191 448.11C111.477 447.876 112.737 447.318 113.947 446.828L105.214 419.156L105.213 419.158Z" fill="white"/>
<path d="M74.5972 419.077C81.3541 417.996 97.9602 419.211 102.986 415.164C104.372 414.047 105.245 412.279 106.751 411.305C107.556 406.293 100.025 409.798 97.6905 410.09C93.4726 410.622 80.6739 410.647 77.7655 412.299C75.9734 413.316 71.9404 417.11 74.5972 419.077Z" fill="#E0E5EC"/>
<path d="M106.751 411.306C105.245 412.28 104.372 414.048 102.985 415.165C97.9601 419.212 81.3539 417.997 74.597 419.078C73.4741 419.258 72.3405 419.639 71.2384 419.938C71.2902 420.592 71.5401 420.436 72.0196 420.538C74.1134 420.986 96.2684 418.923 98.8889 418.191C101.927 417.344 106.211 414.655 106.748 411.305L106.751 411.306Z" fill="#D4DEEC"/>
<path d="M81.6797 445.983C82.2419 446.464 85.1386 447.076 85.3344 446.582C82.9544 444.24 82.3756 440.821 79.927 438.864C79.5739 439.949 81.1987 445.573 81.6774 445.982L81.6797 445.983Z" fill="#DCD9D8"/>
<path d="M185.5 664.244C185.5 688.269 172.024 709.73 148 709.73C123.976 709.73 100 688.269 100 664.244C100 636.73 125 613.729 150.5 626.732C171.5 637.44 185.5 640.22 185.5 664.244Z" fill="#79A363" fill-opacity="0.8"/>
<path d="M161 665.594C161 675.843 155.326 684.998 145.211 684.998C135.095 684.998 125 675.843 125 665.594C125 653.856 135.526 644.044 146.263 649.591C155.105 654.159 161 655.345 161 665.594Z" fill="#79A363" fill-opacity="0.8"/>
<path d="M61 1485.5C61 1448.47 77.5 1369 153.5 1330V1680.5C112.5 1658.5 61 1586 61 1485.5Z" fill="#F1A198"/>
<path d="M154.731 1355.33C153.048 1356.19 151.535 1357.28 150.262 1358.7C149.972 1359.03 150.226 1359.24 150.132 1359.4C149.961 1359.69 149.319 1359.81 149.263 1359.86C148.913 1360.19 149.445 1360.48 149.414 1360.54C149.059 1361.2 148.755 1360.58 148.218 1361.01C147.52 1361.57 146.787 1362.45 146.058 1363.24C145.803 1363.51 146.232 1363.7 145.64 1364.25C145.221 1364.64 143.64 1365.57 143.479 1366.53C143.623 1366.67 143.856 1366.75 144.037 1366.86C142.635 1367.13 142.374 1367.46 141.43 1368.82C141.281 1369.04 140.859 1368.99 140.651 1369.42C140.444 1369.85 140.831 1370.21 140.225 1370.9C140.01 1371.14 139.596 1371.05 139.259 1371.42C138.295 1372.47 136.94 1374.85 136.235 1375.77C134.84 1377.59 133.575 1378.19 132.537 1379.96C132.457 1380.1 132.992 1380.06 132.828 1380.3C132.662 1380.54 132.045 1380.46 131.992 1380.51C131.421 1381.05 131.066 1382.79 130.75 1383.09C129.976 1383.81 130.367 1382.84 129.457 1383.96C128.59 1385.03 128.117 1387 127.493 1388.21C126.771 1389.61 125.629 1389.48 125.905 1391.06C123.641 1394.53 121.511 1398.11 119.484 1401.74C119.678 1401.83 119.874 1401.92 120.069 1402.01C119.783 1402.23 119.496 1402.44 119.212 1402.66C119.377 1402.7 119.54 1402.73 119.702 1402.76C118.435 1403.82 117.512 1404.9 116.848 1406.58C116.835 1406.62 117.258 1406.73 117.255 1406.76C117.144 1407.16 116.646 1407.41 116.557 1407.76C116.337 1408.62 116.537 1410.34 115.794 1409.26C115.12 1411.17 113.775 1413.13 113.187 1414.97C112.933 1415.76 113.45 1416.26 113.326 1416.64C113.202 1417.02 112.752 1416.6 112.675 1416.72C112.215 1417.44 111.688 1418.72 112.23 1419.1C111.925 1419.16 111.613 1419.22 111.305 1419.28C112.004 1419.46 110.72 1421.75 110.483 1422.39C110.439 1422.51 110.725 1422.64 110.687 1422.73C110.256 1423.68 109.705 1423.72 109.218 1424.51C109.048 1424.78 109.745 1424.53 109.224 1425.2C109.179 1425.25 108.726 1425.04 108.378 1425.94C107.821 1427.38 106.603 1430.09 106.225 1431.91C106.193 1432.06 106.86 1431.81 106.511 1432.42C106.386 1432.64 106.06 1432.4 105.858 1432.96C105.069 1435.18 104.713 1437.68 103.647 1439.87C104.091 1439.91 104.812 1439.24 104.169 1440.39C104.066 1440.57 103.738 1440.31 103.697 1440.39C103.369 1441.07 103.449 1441.77 103.076 1442.49C102.966 1442.71 102.655 1442.68 102.502 1442.94C102.275 1443.33 102.641 1443.63 102.32 1444.08C101.818 1444.77 101.383 1444.78 101.899 1445.95C100.347 1451.32 98.8339 1456.7 98.1409 1462.25C97.6061 1463.82 97.0933 1465.22 96.7344 1466.88C96.6285 1467.37 97.1603 1467.55 96.8569 1468.31C96.7887 1468.48 96.0129 1469.65 97.0982 1469.98C96.953 1470.31 96.9193 1470.53 96.8194 1470.82C96.6873 1470.57 96.555 1470.32 96.4213 1470.08C96.4216 1471.34 95.8888 1472.37 95.5689 1473.47C95.3351 1474.28 95.8816 1473.75 95.775 1474.24C95.6714 1474.74 95.5378 1474.96 96.0417 1475.67C95.3283 1476.11 95.7557 1476.49 95.6878 1477.42C95.6801 1477.51 95.3716 1478.06 95.3836 1478.54C95.3927 1478.88 95.7965 1479.02 95.6898 1479.57C95.672 1479.66 95.0766 1480.8 95.0085 1481.17C94.8973 1481.74 95.3811 1482.67 95.3829 1482.78C95.3989 1484.44 94.8612 1485.05 95.7023 1486.2C95.1852 1486.41 94.872 1487.42 94.9268 1488.2C94.9872 1489.18 96.0965 1491.14 95.0066 1491.46C95.5559 1492.6 95.2371 1492.43 95.3283 1493.84C95.3667 1494.4 95.529 1495.34 95.7246 1496.27C95.9742 1497.47 96.2578 1498.7 96.3001 1499.25C96.3776 1500.24 95.7011 1499.85 95.6751 1500.25C95.6327 1500.91 96.0323 1500.5 96.0907 1500.93C96.2565 1502.17 96.3436 1503.26 96.3511 1504.46C96.6767 1504.47 97.0046 1504.48 97.3306 1504.5C97.2363 1504.57 97.142 1504.65 97.0479 1504.73C97.0954 1504.98 97.1395 1505.27 97.1913 1505.5C95.4571 1503.77 97.6329 1507.39 97.9136 1508.52C98.1378 1509.49 97.836 1511.25 97.9428 1512.35C97.968 1512.62 98.2632 1512.36 98.2677 1512.42C98.3167 1513.06 98.1088 1513.21 98.342 1514.05C98.4666 1514.49 98.9974 1514.83 99.1131 1515.26C99.963 1518.4 100.411 1521.54 101.363 1524.65C101.525 1525.18 102.175 1525.46 102.332 1525.9C102.556 1526.52 102.282 1527.05 102.48 1527.64C102.677 1528.23 103.464 1528.9 103.532 1529.32C103.603 1529.74 102.887 1529.24 103.28 1529.91C103.46 1530.22 103.595 1529.51 103.756 1529.91C104.253 1531.17 104.521 1533.15 105.48 1534.32C105.353 1534.3 105.227 1534.26 105.099 1534.22C105.72 1535.64 106.5 1536.8 107.177 1538.23C107.415 1538.74 107.532 1539.79 107.764 1540.29C107.996 1540.79 108.423 1540.86 108.618 1541.25C108.699 1541.41 108.382 1541.49 108.439 1541.59C109.17 1542.93 110.043 1543.42 110.699 1544.85C113.123 1550.12 116.025 1555.38 119.263 1560.34C119.393 1560.54 119.147 1560.91 119.3 1561.23C119.537 1561.73 119.85 1561.53 119.902 1561.58C120.243 1561.92 119.856 1561.96 120.228 1562.47C121.044 1563.59 122.646 1565.18 123.49 1566.27C125.44 1568.78 126.957 1571.01 129 1573.4C129.147 1573.57 129.396 1573.12 129.671 1573.4C131.622 1575.33 131.704 1576.1 134.326 1578.34C136.932 1580.59 142.203 1584.42 145.627 1586.53C145.627 1586.53 145.628 1586.53 145.628 1586.53C146.183 1587.99 147.73 1588.69 149.25 1588.79C143.693 1582.89 137.435 1579.18 131.654 1573.22C125.605 1566.95 121.375 1558.65 116.778 1551.39C116.343 1550.71 115.73 1550.68 115.48 1550.04C115.438 1549.93 115.931 1549.99 115.789 1549.66C113.816 1545.18 110.678 1540.93 108.992 1536.41C108.542 1535.19 108.873 1534.83 108.544 1533.74C108.426 1534 108.274 1534.21 108.146 1534.45C105.541 1529.89 104.076 1524.84 102.517 1519.8C102.446 1519.57 102.02 1519.66 101.935 1519.42C101.765 1518.95 102.095 1518.36 101.995 1517.94C101.865 1517.38 101.506 1517.38 101.391 1516.86C101.336 1516.61 101.676 1516.6 101.48 1516.07C101.463 1516.03 101.118 1516.09 101.068 1515.71C100.931 1514.7 100.725 1512.61 100.625 1511.77C100.495 1510.7 99.8017 1509.97 99.6833 1509.58C99.3662 1508.52 99.8973 1508.43 99.7153 1507.52C98.9521 1503.66 98.1435 1499.91 97.5139 1496.06C97.0922 1493.5 96.8595 1490.71 96.8558 1488.01C96.8517 1487.58 97.4645 1485.98 97.4647 1485.22C97.4594 1484.96 97.3518 1483.57 97.3506 1483.35C97.3391 1482.49 97.0183 1481.78 96.9718 1481.31C96.8786 1480.4 97.5205 1479.41 97.6169 1478.94C97.7824 1478.11 97.8543 1476.59 97.8791 1476.22C97.9347 1475.34 97.2113 1475.55 97.4415 1474.94C97.5103 1474.77 98.0201 1475.02 98.0932 1474.38C98.1535 1473.85 97.7799 1473.58 97.7533 1473.2C97.727 1472.82 98.4332 1472.22 98.4487 1471.99C98.5271 1470.74 98.1915 1470.2 98.3684 1468.88C98.5005 1467.77 99.6517 1462.86 99.8968 1462.45C100.894 1460.74 100.015 1463.75 100.009 1463.94C99.963 1464.9 100.236 1464.81 99.5997 1465.66C100.916 1466.71 98.1641 1469.32 99.8056 1470.31C98.537 1470.91 99.0291 1471.66 99.1559 1472.51C99.3342 1473.69 98.7661 1472.74 98.6589 1473.57C98.6169 1473.9 99.0368 1474.89 98.9107 1475.36C98.7826 1475.85 98.3542 1476.02 98.2652 1476.68C98.1057 1477.87 98.2187 1478.78 98.6287 1479.83C98.3994 1480 98.1712 1480.16 97.9428 1480.32C98.1256 1481.03 98.3136 1481.72 98.5083 1482.4C98.3255 1482.29 98.1413 1482.17 97.9589 1482.05C97.9204 1482.25 97.884 1482.44 97.8482 1482.64C98.0982 1483.31 98.3327 1483.98 98.6042 1484.67C97.4608 1486.49 98.4235 1485.94 98.551 1486.99C98.6849 1488.03 98.0587 1488.62 98.0689 1489.41C98.0861 1490.46 98.0257 1491 98.1253 1492.06C98.182 1492.67 98.8669 1493.68 97.8428 1492.88C97.8673 1493.83 97.8838 1494.96 97.9754 1496C98.0803 1497.19 98.2577 1498.36 98.588 1499.24C98.7735 1499.73 98.9786 1499.01 99.0285 1499.09C99.2664 1499.5 98.8304 1499.93 98.9672 1500.37C99.1927 1501.1 99.8025 1502.49 99.9909 1503.05C100.258 1503.87 99.8681 1505.3 99.848 1505.45C99.7325 1506.25 100.294 1506.35 100.304 1506.6C100.361 1508.01 100.212 1508.36 101.396 1508.57C100.993 1509.02 100.519 1510.68 101.396 1510.86C100.679 1511.03 101.08 1512.23 101.084 1513.03C101.325 1513.13 101.565 1513.22 101.807 1513.31C100.902 1515.2 102.657 1518.11 103.415 1520.1C103.433 1520.15 102.931 1520.39 103.142 1520.67C103.158 1520.68 103.386 1520.58 103.478 1520.78C103.774 1521.43 105.178 1523.82 105.285 1524.11C105.662 1525.19 105.338 1525.51 105.526 1526.18C105.778 1527.06 106.173 1527.06 106.416 1527.9C106.531 1528.29 106.199 1528.81 106.487 1529.39C106.657 1529.73 107.03 1529.63 107.165 1529.9C107.648 1530.86 107.709 1531.69 108.525 1532.38C107.484 1533.07 108.488 1533.15 108.752 1533.55C109.821 1535.17 110.3 1537.55 111.094 1538.99C113.566 1543.47 116.352 1547.09 119.059 1551.21C119.501 1551.87 119.079 1552.36 119.565 1553.05C119.784 1553.37 120.367 1553.46 120.709 1553.97C120.984 1554.38 121.185 1555.1 121.534 1555.62C121.626 1555.75 121.98 1555.53 122.118 1555.73C123.169 1557.24 123.966 1558.87 124.92 1560.48C125.273 1561.08 125.972 1561.08 125.138 1561.57C125.487 1561.64 125.806 1561.71 126.141 1561.77C126.249 1562.89 127.221 1563.11 127.913 1564.19C127.985 1564.31 128.097 1565.49 128.819 1565.6C128.584 1565.85 128.307 1565.97 128.081 1566.18C128.336 1566.69 129.183 1567.06 129.459 1567.31C129.732 1567.56 129.565 1568.04 129.636 1568.13C129.91 1568.45 130.279 1567.99 130.308 1568.01C132.038 1569.09 131.663 1569.13 131.847 1570.6C131.893 1570.98 133.758 1571.97 133.565 1572.75C133.778 1572.56 133.873 1572.31 134.04 1572.09C134.521 1572.47 135.009 1572.85 135.496 1573.21C135.216 1573.32 134.916 1573.41 134.641 1573.52C135.698 1574.22 136.021 1575.39 136.799 1576.06C137.243 1576.45 137.589 1575.95 137.757 1576.28C137.79 1576.34 137.436 1576.57 137.564 1576.72C138.613 1578 139.445 1578.14 140.75 1579.1C141.366 1579.55 141.44 1580.55 142.607 1580.83C142.716 1580.86 143.955 1580.98 143.942 1582.12C144.287 1582.01 144.529 1581.99 144.802 1581.88C145.089 1583.79 145.572 1582.48 147.246 1583.22C148.103 1583.62 150.627 1585.48 151.441 1586.11C151.918 1586.49 151.641 1586.96 151.725 1587.03C152.231 1587.46 152.49 1587 152.973 1587.37C153.456 1587.73 153.845 1588.62 154.426 1588.85C154.87 1589.03 154.834 1588.28 155.355 1588.8C155.462 1588.9 154.841 1589.22 155.602 1589.35C155.723 1589.38 157.045 1589.34 157.316 1589.32C156.902 1588.75 155.516 1587.56 154.995 1587.12C145.585 1580.28 129.436 1564.62 122.873 1554.31C122.231 1553.39 121.351 1553.09 120.912 1552.49C120.476 1551.9 121.253 1552.14 120.861 1551.6C120.471 1551.06 119.901 1550.84 119.549 1550.33C117.179 1546.84 114.958 1543.18 113.063 1539.43C112.573 1538.46 112.598 1537.49 112.194 1536.58C112.036 1536.23 111.527 1536.44 111.42 1536.19C110.268 1533.47 109.738 1530.73 108.668 1528C108.223 1526.87 107.346 1525.77 106.92 1524.64C106.566 1523.71 106.549 1522.62 106.288 1521.76C106.148 1521.3 105.671 1521.18 105.588 1521.02C105.304 1520.46 105.858 1520.52 105.767 1520.22C105.518 1519.39 104.802 1519.15 104.626 1518.35C104.558 1518.04 104.948 1517.97 104.884 1517.51C104.802 1516.93 104.509 1517.23 104.385 1516.83C104.377 1516.81 104.671 1516.81 104.624 1516.59C104.319 1515.19 104.098 1513.42 103.763 1512.08C103.07 1509.32 101.974 1506.67 101.405 1504.06C101.263 1503.4 101.657 1503.52 101.638 1503.3C101.549 1502.28 101.055 1501.99 101.046 1500.9C101.044 1500.72 101.439 1499.93 101.214 1499.27C101.093 1498.91 100.721 1498.54 100.605 1498.23C100.489 1497.93 100.946 1497.82 100.897 1497.44C100.811 1496.76 100.513 1497 100.451 1496C100.446 1495.93 100.452 1495.83 100.462 1495.71C100.516 1495.17 100.709 1494.14 100.62 1493.3C100.442 1491.7 99.961 1489.64 99.9592 1487.69C99.9567 1487.01 100.446 1486.15 100.48 1485.13C100.517 1483.84 100.53 1481.51 100.627 1480.19C100.674 1479.51 100.178 1479.42 100.163 1479.33C100.064 1478.82 100.609 1479.07 100.615 1478.73C100.624 1478.26 100.251 1477.79 100.265 1477.35C100.273 1477.08 100.691 1477.07 100.7 1477.02C101.059 1474.79 101.252 1472.91 101.608 1470.73C103.524 1459.12 106.973 1447.67 110.499 1436.49C110.8 1435.54 110.318 1435.34 110.679 1434.55C111.04 1433.76 112.383 1433.35 111.452 1432.26C111.697 1432.32 111.865 1432.39 112.088 1432.44C112.368 1430.62 113.335 1429.09 114.014 1427.48C114.519 1426.27 114.906 1425.2 115.333 1424.09C115.712 1423.1 115.273 1423.01 116.156 1422.38C117.593 1418.04 119.598 1413.89 121.097 1409.57C122.41 1409.05 122.343 1407.87 122.904 1406.51C122.972 1406.34 123.185 1406.67 123.409 1406.18C123.692 1405.57 123.393 1405.01 123.961 1404.03C124.109 1403.76 125.694 1402.09 125.842 1401.23C125.988 1400.37 126.434 1399.24 126.625 1398.36C126.756 1398.58 126.864 1398.82 126.986 1399.05C127.235 1398.7 127.485 1398.35 127.736 1398C127.536 1397.81 127.336 1397.62 127.133 1397.43C127.481 1397.34 127.826 1397.26 128.178 1397.18C127.269 1396 127.37 1396.71 128.293 1395.86C128.755 1395.44 128.8 1394.9 129.246 1394.45C129.408 1394.29 129.829 1394.38 130.003 1394.2C130.429 1393.76 129.768 1393.76 129.969 1393.44C130.174 1393.13 130.982 1393.01 131.113 1392.3C129.808 1392.29 131.213 1390.78 131.981 1391.17C132.114 1390.97 132.195 1390.78 132.362 1390.57C130.428 1389.59 132.405 1389.37 132.929 1389.13C133.453 1388.88 132.963 1388.57 133.048 1388.49C133.29 1388.24 133.35 1388.58 133.49 1388.39C134.413 1387.13 134.972 1385.72 135.854 1384.44C135.981 1384.26 136.13 1384.61 136.256 1384.38C136.383 1384.16 136.266 1383.76 136.512 1383.47C136.578 1383.39 136.828 1383.53 136.924 1383.4C138.909 1380.7 140.691 1378.04 142.874 1375.39C143.072 1375.16 143.618 1375.3 143.993 1374.84C144.368 1374.37 144.617 1373.38 145.085 1372.8C145.208 1372.65 145.562 1372.89 145.727 1372.69C146.29 1372 146.548 1371.2 147.136 1370.49C148.131 1369.27 149.45 1368.28 150.389 1366.98C150.568 1366.73 150.283 1366.51 150.521 1366.14C150.934 1365.48 151.097 1366.05 151.253 1366C151.764 1365.81 151.395 1365.21 151.864 1365C151.936 1364.97 152.144 1365.33 152.196 1365.29C152.977 1364.64 152.359 1363.91 153.503 1363.54C153.835 1362.48 152.525 1363.44 152.204 1363.35C151.418 1363.11 151.632 1361.76 151.924 1361.13C152.175 1360.58 152.472 1360.91 152.635 1360.76C153.495 1359.97 154.851 1358.88 155.389 1358.15C155.715 1357.7 154.859 1358.19 154.972 1357.9C155.085 1357.62 155.435 1357.75 155.413 1357.29C155.39 1356.84 155.143 1355.65 154.731 1355.33ZM105.002 1439.22C107.186 1438.06 108.506 1433.55 109.225 1431.12C109.814 1429.08 109.204 1426.94 110.869 1428.03C110.083 1430.13 109.262 1431.81 108.537 1434.08C108.462 1434.31 108.149 1435.78 108.017 1436.28C107.941 1436.56 108.243 1436.67 108.116 1437.05C108.087 1437.13 107.539 1437.45 107.495 1437.62C107.341 1438.2 107.421 1440.07 107.328 1440.31C107.069 1440.95 106.672 1440.55 106.496 1440.8C105.913 1441.67 106.599 1442 106.082 1442.87C105.989 1443.02 105.195 1443.4 105.073 1444.12C105.024 1444.41 105.205 1445 105.126 1445.22C104.697 1446.39 103.897 1447.61 103.677 1448.72C103.496 1449.64 104.048 1449.53 103.988 1450.02C103.926 1450.52 103.211 1450.95 103.095 1451.27C102.91 1451.78 103.075 1452.49 103.03 1452.65C102.145 1455.83 101.133 1458.62 100.383 1461.72C100.569 1459.57 100.822 1457.38 101.073 1455.23C101.862 1454.15 101.245 1454.64 101.275 1453.81C101.301 1453.14 102.194 1453.21 102.299 1452.38C102.299 1452.38 102.298 1452.38 102.298 1452.38C102.351 1451.95 101.983 1450.9 102.465 1450.06C102.483 1450.03 102.947 1450.07 103.139 1449.4C103.567 1447.91 104.421 1445.71 104.823 1444C104.938 1443.5 104.445 1443.47 104.559 1442.87C104.644 1442.44 105.217 1442.08 105.324 1441.39C105.456 1440.52 104.85 1439.89 106.048 1439.64C105.7 1439.48 105.338 1439.39 105.002 1439.22ZM125.31 1395.9C125.334 1395.77 125.16 1393.76 125.997 1394.83C125.335 1396.99 123.91 1398.89 123.062 1401.05C122.347 1399.75 123.433 1398.83 124.326 1397.48C124.327 1397.48 124.327 1397.48 124.327 1397.48C124.37 1397.41 123.925 1397.52 124.195 1397.18C124.327 1397.01 125.169 1396.57 125.31 1395.9Z" fill="white"/>
<path d="M61 1485.5C61 1448.47 77.5 1369 153.5 1330V1680.5C112.5 1658.5 61 1586 61 1485.5Z" fill="#F1A198"/>
<path d="M154.731 1355.33C153.048 1356.19 151.535 1357.28 150.262 1358.7C149.972 1359.03 150.226 1359.24 150.132 1359.4C149.961 1359.69 149.319 1359.81 149.263 1359.86C148.913 1360.19 149.445 1360.48 149.414 1360.54C149.059 1361.2 148.755 1360.58 148.218 1361.01C147.52 1361.57 146.787 1362.45 146.058 1363.24C145.803 1363.51 146.232 1363.7 145.64 1364.25C145.221 1364.64 143.64 1365.57 143.479 1366.53C143.623 1366.67 143.856 1366.75 144.037 1366.86C142.635 1367.13 142.374 1367.46 141.43 1368.82C141.281 1369.04 140.859 1368.99 140.651 1369.42C140.444 1369.85 140.831 1370.21 140.225 1370.9C140.01 1371.14 139.596 1371.05 139.259 1371.42C138.295 1372.47 136.94 1374.85 136.235 1375.77C134.84 1377.59 133.575 1378.19 132.537 1379.96C132.457 1380.1 132.992 1380.06 132.828 1380.3C132.662 1380.54 132.045 1380.46 131.992 1380.51C131.421 1381.05 131.066 1382.79 130.75 1383.09C129.976 1383.81 130.367 1382.84 129.457 1383.96C128.59 1385.03 128.117 1387 127.493 1388.21C126.771 1389.61 125.629 1389.48 125.905 1391.06C123.641 1394.53 121.511 1398.11 119.484 1401.74C119.678 1401.83 119.874 1401.92 120.069 1402.01C119.783 1402.23 119.496 1402.44 119.212 1402.66C119.377 1402.7 119.54 1402.73 119.702 1402.76C118.435 1403.82 117.512 1404.9 116.848 1406.58C116.835 1406.62 117.258 1406.73 117.255 1406.76C117.144 1407.16 116.646 1407.41 116.557 1407.76C116.337 1408.62 116.537 1410.34 115.794 1409.26C115.12 1411.17 113.775 1413.13 113.187 1414.97C112.933 1415.76 113.45 1416.26 113.326 1416.64C113.202 1417.02 112.752 1416.6 112.675 1416.72C112.215 1417.44 111.688 1418.72 112.23 1419.1C111.925 1419.16 111.613 1419.22 111.305 1419.28C112.004 1419.46 110.72 1421.75 110.483 1422.39C110.439 1422.51 110.725 1422.64 110.687 1422.73C110.256 1423.68 109.705 1423.72 109.218 1424.51C109.048 1424.78 109.745 1424.53 109.224 1425.2C109.179 1425.25 108.726 1425.04 108.378 1425.94C107.821 1427.38 106.603 1430.09 106.225 1431.91C106.193 1432.06 106.86 1431.81 106.511 1432.42C106.386 1432.64 106.06 1432.4 105.858 1432.96C105.069 1435.18 104.713 1437.68 103.647 1439.87C104.091 1439.91 104.812 1439.24 104.169 1440.39C104.066 1440.57 103.738 1440.31 103.697 1440.39C103.369 1441.07 103.449 1441.77 103.076 1442.49C102.966 1442.71 102.655 1442.68 102.502 1442.94C102.275 1443.33 102.641 1443.63 102.32 1444.08C101.818 1444.77 101.383 1444.78 101.899 1445.95C100.347 1451.32 98.8339 1456.7 98.1409 1462.25C97.6061 1463.82 97.0933 1465.22 96.7344 1466.88C96.6285 1467.37 97.1603 1467.55 96.8569 1468.31C96.7887 1468.48 96.0129 1469.65 97.0982 1469.98C96.953 1470.31 96.9193 1470.53 96.8194 1470.82C96.6873 1470.57 96.555 1470.32 96.4213 1470.08C96.4216 1471.34 95.8888 1472.37 95.5689 1473.47C95.3351 1474.28 95.8816 1473.75 95.775 1474.24C95.6714 1474.74 95.5378 1474.96 96.0417 1475.67C95.3283 1476.11 95.7557 1476.49 95.6878 1477.42C95.6801 1477.51 95.3716 1478.06 95.3836 1478.54C95.3927 1478.88 95.7965 1479.02 95.6898 1479.57C95.672 1479.66 95.0766 1480.8 95.0085 1481.17C94.8973 1481.74 95.3811 1482.67 95.3829 1482.78C95.3989 1484.44 94.8612 1485.05 95.7023 1486.2C95.1852 1486.41 94.872 1487.42 94.9268 1488.2C94.9872 1489.18 96.0965 1491.14 95.0066 1491.46C95.5559 1492.6 95.2371 1492.43 95.3283 1493.84C95.3667 1494.4 95.529 1495.34 95.7246 1496.27C95.9742 1497.47 96.2578 1498.7 96.3001 1499.25C96.3776 1500.24 95.7011 1499.85 95.6751 1500.25C95.6327 1500.91 96.0323 1500.5 96.0907 1500.93C96.2565 1502.17 96.3436 1503.26 96.3511 1504.46C96.6767 1504.47 97.0046 1504.48 97.3306 1504.5C97.2363 1504.57 97.142 1504.65 97.0479 1504.73C97.0954 1504.98 97.1395 1505.27 97.1913 1505.5C95.4571 1503.77 97.6329 1507.39 97.9136 1508.52C98.1378 1509.49 97.836 1511.25 97.9428 1512.35C97.968 1512.62 98.2632 1512.36 98.2677 1512.42C98.3167 1513.06 98.1088 1513.21 98.342 1514.05C98.4666 1514.49 98.9974 1514.83 99.1131 1515.26C99.963 1518.4 100.411 1521.54 101.363 1524.65C101.525 1525.18 102.175 1525.46 102.332 1525.9C102.556 1526.52 102.282 1527.05 102.48 1527.64C102.677 1528.23 103.464 1528.9 103.532 1529.32C103.603 1529.74 102.887 1529.24 103.28 1529.91C103.46 1530.22 103.595 1529.51 103.756 1529.91C104.253 1531.17 104.521 1533.15 105.48 1534.32C105.353 1534.3 105.227 1534.26 105.099 1534.22C105.72 1535.64 106.5 1536.8 107.177 1538.23C107.415 1538.74 107.532 1539.79 107.764 1540.29C107.996 1540.79 108.423 1540.86 108.618 1541.25C108.699 1541.41 108.382 1541.49 108.439 1541.59C109.17 1542.93 110.043 1543.42 110.699 1544.85C113.123 1550.12 116.025 1555.38 119.263 1560.34C119.393 1560.54 119.147 1560.91 119.3 1561.23C119.537 1561.73 119.85 1561.53 119.902 1561.58C120.243 1561.92 119.856 1561.96 120.228 1562.47C121.044 1563.59 122.646 1565.18 123.49 1566.27C125.44 1568.78 126.957 1571.01 129 1573.4C129.147 1573.57 129.396 1573.12 129.671 1573.4C131.622 1575.33 131.704 1576.1 134.326 1578.34C136.932 1580.59 142.203 1584.42 145.627 1586.53C145.627 1586.53 145.628 1586.53 145.628 1586.53C146.183 1587.99 147.73 1588.69 149.25 1588.79C143.693 1582.89 137.435 1579.18 131.654 1573.22C125.605 1566.95 121.375 1558.65 116.778 1551.39C116.343 1550.71 115.73 1550.68 115.48 1550.04C115.438 1549.93 115.931 1549.99 115.789 1549.66C113.816 1545.18 110.678 1540.93 108.992 1536.41C108.542 1535.19 108.873 1534.83 108.544 1533.74C108.426 1534 108.274 1534.21 108.146 1534.45C105.541 1529.89 104.076 1524.84 102.517 1519.8C102.446 1519.57 102.02 1519.66 101.935 1519.42C101.765 1518.95 102.095 1518.36 101.995 1517.94C101.865 1517.38 101.506 1517.38 101.391 1516.86C101.336 1516.61 101.676 1516.6 101.48 1516.07C101.463 1516.03 101.118 1516.09 101.068 1515.71C100.931 1514.7 100.725 1512.61 100.625 1511.77C100.495 1510.7 99.8017 1509.97 99.6833 1509.58C99.3662 1508.52 99.8973 1508.43 99.7153 1507.52C98.9521 1503.66 98.1435 1499.91 97.5139 1496.06C97.0922 1493.5 96.8595 1490.71 96.8558 1488.01C96.8517 1487.58 97.4645 1485.98 97.4647 1485.22C97.4594 1484.96 97.3518 1483.57 97.3506 1483.35C97.3391 1482.49 97.0183 1481.78 96.9718 1481.31C96.8786 1480.4 97.5205 1479.41 97.6169 1478.94C97.7824 1478.11 97.8543 1476.59 97.8791 1476.22C97.9347 1475.34 97.2113 1475.55 97.4415 1474.94C97.5103 1474.77 98.0201 1475.02 98.0932 1474.38C98.1535 1473.85 97.7799 1473.58 97.7533 1473.2C97.727 1472.82 98.4332 1472.22 98.4487 1471.99C98.5271 1470.74 98.1915 1470.2 98.3684 1468.88C98.5005 1467.77 99.6517 1462.86 99.8968 1462.45C100.894 1460.74 100.015 1463.75 100.009 1463.94C99.963 1464.9 100.236 1464.81 99.5997 1465.66C100.916 1466.71 98.1641 1469.32 99.8056 1470.31C98.537 1470.91 99.0291 1471.66 99.1559 1472.51C99.3342 1473.69 98.7661 1472.74 98.6589 1473.57C98.6169 1473.9 99.0368 1474.89 98.9107 1475.36C98.7826 1475.85 98.3542 1476.02 98.2652 1476.68C98.1057 1477.87 98.2187 1478.78 98.6287 1479.83C98.3994 1480 98.1712 1480.16 97.9428 1480.32C98.1256 1481.03 98.3136 1481.72 98.5083 1482.4C98.3255 1482.29 98.1413 1482.17 97.9589 1482.05C97.9204 1482.25 97.884 1482.44 97.8482 1482.64C98.0982 1483.31 98.3327 1483.98 98.6042 1484.67C97.4608 1486.49 98.4235 1485.94 98.551 1486.99C98.6849 1488.03 98.0587 1488.62 98.0689 1489.41C98.0861 1490.46 98.0257 1491 98.1253 1492.06C98.182 1492.67 98.8669 1493.68 97.8428 1492.88C97.8673 1493.83 97.8838 1494.96 97.9754 1496C98.0803 1497.19 98.2577 1498.36 98.588 1499.24C98.7735 1499.73 98.9786 1499.01 99.0285 1499.09C99.2664 1499.5 98.8304 1499.93 98.9672 1500.37C99.1927 1501.1 99.8025 1502.49 99.9909 1503.05C100.258 1503.87 99.8681 1505.3 99.848 1505.45C99.7325 1506.25 100.294 1506.35 100.304 1506.6C100.361 1508.01 100.212 1508.36 101.396 1508.57C100.993 1509.02 100.519 1510.68 101.396 1510.86C100.679 1511.03 101.08 1512.23 101.084 1513.03C101.325 1513.13 101.565 1513.22 101.807 1513.31C100.902 1515.2 102.657 1518.11 103.415 1520.1C103.433 1520.15 102.931 1520.39 103.142 1520.67C103.158 1520.68 103.386 1520.58 103.478 1520.78C103.774 1521.43 105.178 1523.82 105.285 1524.11C105.662 1525.19 105.338 1525.51 105.526 1526.18C105.778 1527.06 106.173 1527.06 106.416 1527.9C106.531 1528.29 106.199 1528.81 106.487 1529.39C106.657 1529.73 107.03 1529.63 107.165 1529.9C107.648 1530.86 107.709 1531.69 108.525 1532.38C107.484 1533.07 108.488 1533.15 108.752 1533.55C109.821 1535.17 110.3 1537.55 111.094 1538.99C113.566 1543.47 116.352 1547.09 119.059 1551.21C119.501 1551.87 119.079 1552.36 119.565 1553.05C119.784 1553.37 120.367 1553.46 120.709 1553.97C120.984 1554.38 121.185 1555.1 121.534 1555.62C121.626 1555.75 121.98 1555.53 122.118 1555.73C123.169 1557.24 123.966 1558.87 124.92 1560.48C125.273 1561.08 125.972 1561.08 125.138 1561.57C125.487 1561.64 125.806 1561.71 126.141 1561.77C126.249 1562.89 127.221 1563.11 127.913 1564.19C127.985 1564.31 128.097 1565.49 128.819 1565.6C128.584 1565.85 128.307 1565.97 128.081 1566.18C128.336 1566.69 129.183 1567.06 129.459 1567.31C129.732 1567.56 129.565 1568.04 129.636 1568.13C129.91 1568.45 130.279 1567.99 130.308 1568.01C132.038 1569.09 131.663 1569.13 131.847 1570.6C131.893 1570.98 133.758 1571.97 133.565 1572.75C133.778 1572.56 133.873 1572.31 134.04 1572.09C134.521 1572.47 135.009 1572.85 135.496 1573.21C135.216 1573.32 134.916 1573.41 134.641 1573.52C135.698 1574.22 136.021 1575.39 136.799 1576.06C137.243 1576.45 137.589 1575.95 137.757 1576.28C137.79 1576.34 137.436 1576.57 137.564 1576.72C138.613 1578 139.445 1578.14 140.75 1579.1C141.366 1579.55 141.44 1580.55 142.607 1580.83C142.716 1580.86 143.955 1580.98 143.942 1582.12C144.287 1582.01 144.529 1581.99 144.802 1581.88C145.089 1583.79 145.572 1582.48 147.246 1583.22C148.103 1583.62 150.627 1585.48 151.441 1586.11C151.918 1586.49 151.641 1586.96 151.725 1587.03C152.231 1587.46 152.49 1587 152.973 1587.37C153.456 1587.73 153.845 1588.62 154.426 1588.85C154.87 1589.03 154.834 1588.28 155.355 1588.8C155.462 1588.9 154.841 1589.22 155.602 1589.35C155.723 1589.38 157.045 1589.34 157.316 1589.32C156.902 1588.75 155.516 1587.56 154.995 1587.12C145.585 1580.28 129.436 1564.62 122.873 1554.31C122.231 1553.39 121.351 1553.09 120.912 1552.49C120.476 1551.9 121.253 1552.14 120.861 1551.6C120.471 1551.06 119.901 1550.84 119.549 1550.33C117.179 1546.84 114.958 1543.18 113.063 1539.43C112.573 1538.46 112.598 1537.49 112.194 1536.58C112.036 1536.23 111.527 1536.44 111.42 1536.19C110.268 1533.47 109.738 1530.73 108.668 1528C108.223 1526.87 107.346 1525.77 106.92 1524.64C106.566 1523.71 106.549 1522.62 106.288 1521.76C106.148 1521.3 105.671 1521.18 105.588 1521.02C105.304 1520.46 105.858 1520.52 105.767 1520.22C105.518 1519.39 104.802 1519.15 104.626 1518.35C104.558 1518.04 104.948 1517.97 104.884 1517.51C104.802 1516.93 104.509 1517.23 104.385 1516.83C104.377 1516.81 104.671 1516.81 104.624 1516.59C104.319 1515.19 104.098 1513.42 103.763 1512.08C103.07 1509.32 101.974 1506.67 101.405 1504.06C101.263 1503.4 101.657 1503.52 101.638 1503.3C101.549 1502.28 101.055 1501.99 101.046 1500.9C101.044 1500.72 101.439 1499.93 101.214 1499.27C101.093 1498.91 100.721 1498.54 100.605 1498.23C100.489 1497.93 100.946 1497.82 100.897 1497.44C100.811 1496.76 100.513 1497 100.451 1496C100.446 1495.93 100.452 1495.83 100.462 1495.71C100.516 1495.17 100.709 1494.14 100.62 1493.3C100.442 1491.7 99.961 1489.64 99.9592 1487.69C99.9567 1487.01 100.446 1486.15 100.48 1485.13C100.517 1483.84 100.53 1481.51 100.627 1480.19C100.674 1479.51 100.178 1479.42 100.163 1479.33C100.064 1478.82 100.609 1479.07 100.615 1478.73C100.624 1478.26 100.251 1477.79 100.265 1477.35C100.273 1477.08 100.691 1477.07 100.7 1477.02C101.059 1474.79 101.252 1472.91 101.608 1470.73C103.524 1459.12 106.973 1447.67 110.499 1436.49C110.8 1435.54 110.318 1435.34 110.679 1434.55C111.04 1433.76 112.383 1433.35 111.452 1432.26C111.697 1432.32 111.865 1432.39 112.088 1432.44C112.368 1430.62 113.335 1429.09 114.014 1427.48C114.519 1426.27 114.906 1425.2 115.333 1424.09C115.712 1423.1 115.273 1423.01 116.156 1422.38C117.593 1418.04 119.598 1413.89 121.097 1409.57C122.41 1409.05 122.343 1407.87 122.904 1406.51C122.972 1406.34 123.185 1406.67 123.409 1406.18C123.692 1405.57 123.393 1405.01 123.961 1404.03C124.109 1403.76 125.694 1402.09 125.842 1401.23C125.988 1400.37 126.434 1399.24 126.625 1398.36C126.756 1398.58 126.864 1398.82 126.986 1399.05C127.235 1398.7 127.485 1398.35 127.736 1398C127.536 1397.81 127.336 1397.62 127.133 1397.43C127.481 1397.34 127.826 1397.26 128.178 1397.18C127.269 1396 127.37 1396.71 128.293 1395.86C128.755 1395.44 128.8 1394.9 129.246 1394.45C129.408 1394.29 129.829 1394.38 130.003 1394.2C130.429 1393.76 129.768 1393.76 129.969 1393.44C130.174 1393.13 130.982 1393.01 131.113 1392.3C129.808 1392.29 131.213 1390.78 131.981 1391.17C132.114 1390.97 132.195 1390.78 132.362 1390.57C130.428 1389.59 132.405 1389.37 132.929 1389.13C133.453 1388.88 132.963 1388.57 133.048 1388.49C133.29 1388.24 133.35 1388.58 133.49 1388.39C134.413 1387.13 134.972 1385.72 135.854 1384.44C135.981 1384.26 136.13 1384.61 136.256 1384.38C136.383 1384.16 136.266 1383.76 136.512 1383.47C136.578 1383.39 136.828 1383.53 136.924 1383.4C138.909 1380.7 140.691 1378.04 142.874 1375.39C143.072 1375.16 143.618 1375.3 143.993 1374.84C144.368 1374.37 144.617 1373.38 145.085 1372.8C145.208 1372.65 145.562 1372.89 145.727 1372.69C146.29 1372 146.548 1371.2 147.136 1370.49C148.131 1369.27 149.45 1368.28 150.389 1366.98C150.568 1366.73 150.283 1366.51 150.521 1366.14C150.934 1365.48 151.097 1366.05 151.253 1366C151.764 1365.81 151.395 1365.21 151.864 1365C151.936 1364.97 152.144 1365.33 152.196 1365.29C152.977 1364.64 152.359 1363.91 153.503 1363.54C153.835 1362.48 152.525 1363.44 152.204 1363.35C151.418 1363.11 151.632 1361.76 151.924 1361.13C152.175 1360.58 152.472 1360.91 152.635 1360.76C153.495 1359.97 154.851 1358.88 155.389 1358.15C155.715 1357.7 154.859 1358.19 154.972 1357.9C155.085 1357.62 155.435 1357.75 155.413 1357.29C155.39 1356.84 155.143 1355.65 154.731 1355.33ZM105.002 1439.22C107.186 1438.06 108.506 1433.55 109.225 1431.12C109.814 1429.08 109.204 1426.94 110.869 1428.03C110.083 1430.13 109.262 1431.81 108.537 1434.08C108.462 1434.31 108.149 1435.78 108.017 1436.28C107.941 1436.56 108.243 1436.67 108.116 1437.05C108.087 1437.13 107.539 1437.45 107.495 1437.62C107.341 1438.2 107.421 1440.07 107.328 1440.31C107.069 1440.95 106.672 1440.55 106.496 1440.8C105.913 1441.67 106.599 1442 106.082 1442.87C105.989 1443.02 105.195 1443.4 105.073 1444.12C105.024 1444.41 105.205 1445 105.126 1445.22C104.697 1446.39 103.897 1447.61 103.677 1448.72C103.496 1449.64 104.048 1449.53 103.988 1450.02C103.926 1450.52 103.211 1450.95 103.095 1451.27C102.91 1451.78 103.075 1452.49 103.03 1452.65C102.145 1455.83 101.133 1458.62 100.383 1461.72C100.569 1459.57 100.822 1457.38 101.073 1455.23C101.862 1454.15 101.245 1454.64 101.275 1453.81C101.301 1453.14 102.194 1453.21 102.299 1452.38C102.299 1452.38 102.298 1452.38 102.298 1452.38C102.351 1451.95 101.983 1450.9 102.465 1450.06C102.483 1450.03 102.947 1450.07 103.139 1449.4C103.567 1447.91 104.421 1445.71 104.823 1444C104.938 1443.5 104.445 1443.47 104.559 1442.87C104.644 1442.44 105.217 1442.08 105.324 1441.39C105.456 1440.52 104.85 1439.89 106.048 1439.64C105.7 1439.48 105.338 1439.39 105.002 1439.22ZM125.31 1395.9C125.334 1395.77 125.16 1393.76 125.997 1394.83C125.335 1396.99 123.91 1398.89 123.062 1401.05C122.347 1399.75 123.433 1398.83 124.326 1397.48C124.327 1397.48 124.327 1397.48 124.327 1397.48C124.37 1397.41 123.925 1397.52 124.195 1397.18C124.327 1397.01 125.169 1396.57 125.31 1395.9Z" fill="white"/>
<path d="M159.23 1383.33C157.879 1383.91 156.691 1384.72 155.747 1385.84C155.533 1386.1 155.78 1386.32 155.717 1386.45C155.601 1386.69 155.054 1386.72 155.011 1386.76C154.743 1387.01 155.243 1387.33 155.223 1387.38C154.99 1387.92 154.65 1387.34 154.23 1387.65C153.683 1388.07 153.143 1388.77 152.591 1389.37C152.399 1389.58 152.8 1389.8 152.342 1390.21C152.019 1390.51 150.725 1391.14 150.695 1391.96C150.841 1392.1 151.057 1392.19 151.231 1392.31C150.016 1392.38 149.822 1392.65 149.139 1393.72C149.031 1393.88 148.648 1393.8 148.512 1394.14C148.377 1394.49 148.767 1394.85 148.304 1395.37C148.14 1395.56 147.757 1395.43 147.497 1395.71C146.753 1396.5 145.807 1398.4 145.273 1399.1C144.218 1400.49 143.133 1400.86 142.385 1402.24C142.327 1402.34 142.813 1402.38 142.69 1402.56C142.566 1402.74 141.99 1402.6 141.948 1402.64C141.485 1403.03 141.357 1404.47 141.1 1404.68C140.468 1405.2 140.719 1404.42 140.005 1405.27C139.325 1406.07 139.107 1407.67 138.66 1408.61C138.144 1409.69 137.066 1409.47 137.495 1410.81C135.761 1413.45 134.135 1416.16 132.583 1418.92C132.776 1419.01 132.97 1419.11 133.164 1419.2C132.915 1419.35 132.666 1419.5 132.419 1419.65C132.578 1419.69 132.735 1419.73 132.892 1419.77C131.8 1420.51 131.029 1421.3 130.561 1422.6C130.552 1422.63 130.966 1422.76 130.965 1422.78C130.898 1423.09 130.45 1423.25 130.399 1423.53C130.272 1424.2 130.626 1425.6 129.815 1424.66C129.354 1426.14 128.249 1427.59 127.851 1429.02C127.678 1429.63 128.22 1430.08 128.134 1430.37C128.049 1430.66 127.579 1430.28 127.515 1430.37C127.138 1430.9 126.743 1431.88 127.299 1432.24C127.01 1432.25 126.715 1432.27 126.423 1432.29C127.113 1432.51 126.073 1434.22 125.897 1434.7C125.864 1434.79 126.152 1434.92 126.122 1434.99C125.787 1435.71 125.258 1435.7 124.851 1436.28C124.709 1436.48 125.363 1436.34 124.914 1436.83C124.875 1436.87 124.418 1436.66 124.155 1437.35C123.734 1438.45 122.763 1440.49 122.533 1441.9C122.513 1442.01 123.142 1441.86 122.849 1442.32C122.744 1442.48 122.408 1442.27 122.254 1442.7C121.651 1444.38 121.483 1446.32 120.589 1447.95C121.027 1448.02 121.687 1447.55 121.136 1448.4C121.047 1448.53 120.708 1448.31 120.674 1448.37C120.399 1448.88 120.524 1449.43 120.207 1449.97C120.112 1450.13 119.806 1450.08 119.672 1450.28C119.476 1450.57 119.854 1450.83 119.567 1451.15C119.119 1451.66 118.692 1451.64 119.273 1452.58C118.082 1456.67 116.879 1460.75 116.437 1464.99C115.976 1466.18 115.525 1467.24 115.231 1468.49C115.144 1468.87 115.68 1469.03 115.406 1469.6C115.345 1469.72 114.613 1470.59 115.705 1470.89C115.571 1471.14 115.545 1471.3 115.455 1471.52C115.315 1471.32 115.175 1471.12 115.034 1470.94C115.077 1471.91 114.578 1472.68 114.29 1473.51C114.079 1474.12 114.609 1473.73 114.517 1474.11C114.427 1474.49 114.299 1474.65 114.82 1475.21C114.119 1475.52 114.555 1475.83 114.508 1476.53C114.502 1476.61 114.206 1477.02 114.227 1477.39C114.243 1477.65 114.649 1477.76 114.553 1478.18C114.537 1478.25 113.961 1479.11 113.898 1479.39C113.796 1479.83 114.29 1480.54 114.293 1480.63C114.328 1481.89 113.793 1482.36 114.639 1483.24C114.123 1483.39 113.813 1484.17 113.867 1484.77C113.927 1485.52 115.022 1487 113.928 1487.26C114.464 1488.13 114.148 1488 114.216 1489.08C114.244 1489.51 114.388 1490.24 114.559 1490.96C114.774 1491.86 115.015 1492.79 115.039 1493.21C115.084 1493.96 114.423 1493.69 114.384 1494C114.319 1494.5 114.731 1494.17 114.774 1494.51C114.895 1495.45 114.941 1496.28 114.9 1497.21C115.223 1497.21 115.548 1497.2 115.871 1497.2C115.774 1497.26 115.677 1497.33 115.581 1497.39C115.618 1497.58 115.65 1497.8 115.691 1497.97C114.042 1496.72 116.052 1499.41 116.273 1500.27C116.45 1501.01 116.064 1502.38 116.112 1503.23C116.123 1503.43 116.428 1503.22 116.43 1503.26C116.444 1503.76 116.231 1503.89 116.416 1504.52C116.515 1504.86 117.019 1505.1 117.109 1505.42C117.768 1507.81 118.009 1510.23 118.722 1512.61C118.844 1513.01 119.458 1513.19 119.58 1513.52C119.755 1513.99 119.448 1514.43 119.597 1514.88C119.746 1515.34 120.461 1515.81 120.495 1516.13C120.531 1516.46 119.874 1516.11 120.204 1516.62C120.355 1516.85 120.542 1516.28 120.667 1516.58C121.052 1517.54 121.153 1519.08 121.982 1519.94C121.861 1519.93 121.743 1519.91 121.622 1519.89C122.104 1520.97 122.756 1521.83 123.279 1522.92C123.464 1523.3 123.481 1524.14 123.658 1524.52C123.835 1524.9 124.237 1524.92 124.387 1525.22C124.45 1525.34 124.14 1525.43 124.185 1525.51C124.759 1526.52 125.545 1526.84 126.029 1527.93C127.822 1531.97 129.988 1536.01 132.413 1539.83C132.511 1539.99 132.243 1540.32 132.347 1540.58C132.51 1540.97 132.82 1540.77 132.862 1540.81C133.137 1541.05 132.776 1541.13 133.06 1541.52C133.683 1542.38 134.962 1543.55 135.601 1544.38C137.077 1546.32 138.178 1548.07 139.713 1549.93C139.823 1550.07 140.097 1549.64 140.308 1549.86C141.807 1551.32 141.791 1551.99 143.819 1553.68C145.834 1555.39 149.909 1558.27 152.536 1559.88C152.537 1559.88 152.538 1559.88 152.538 1559.88C152.844 1561.17 154.065 1561.67 155.31 1561.61C151.342 1556.65 146.478 1554.03 142.085 1549.46C137.495 1544.66 134.61 1538.13 131.093 1532.66C130.76 1532.14 130.188 1532.18 130.021 1531.68C129.993 1531.6 130.451 1531.59 130.351 1531.34C128.977 1527.88 126.408 1524.76 125.187 1521.3C124.862 1520.38 125.212 1520.06 124.989 1519.22C124.853 1519.44 124.688 1519.62 124.544 1519.82C122.426 1516.42 121.382 1512.56 120.181 1508.74C120.126 1508.57 119.702 1508.67 119.634 1508.49C119.497 1508.13 119.859 1507.65 119.787 1507.33C119.693 1506.91 119.34 1506.93 119.259 1506.53C119.22 1506.34 119.555 1506.31 119.393 1505.92C119.38 1505.88 119.037 1505.95 119.01 1505.66C118.934 1504.88 118.848 1503.28 118.793 1502.64C118.721 1501.83 118.072 1501.3 117.974 1501C117.712 1500.2 118.242 1500.11 118.104 1499.42C117.528 1496.5 116.866 1493.66 116.348 1490.75C115.999 1488.8 115.798 1486.67 115.796 1484.62C115.793 1484.29 116.402 1483.08 116.397 1482.5C116.39 1482.31 116.27 1481.25 116.266 1481.08C116.246 1480.43 115.915 1479.89 115.862 1479.53C115.755 1478.84 116.378 1478.09 116.465 1477.73C116.614 1477.11 116.651 1475.95 116.666 1475.67C116.7 1475 115.983 1475.14 116.197 1474.69C116.261 1474.56 116.776 1474.76 116.831 1474.28C116.877 1473.87 116.497 1473.66 116.459 1473.37C116.422 1473.08 117.107 1472.64 117.115 1472.46C117.153 1471.52 116.801 1471.09 116.93 1470.09C117.026 1469.24 117.967 1465.52 118.187 1465.22C119.098 1463.96 118.363 1466.22 118.364 1466.37C118.36 1467.11 118.626 1467.04 118.03 1467.67C119.382 1468.52 116.745 1470.42 118.41 1471.23C117.168 1471.64 117.683 1472.23 117.836 1472.89C118.049 1473.79 117.454 1473.05 117.372 1473.67C117.34 1473.92 117.786 1474.69 117.673 1475.05C117.558 1475.41 117.135 1475.53 117.063 1476.03C116.932 1476.93 117.063 1477.63 117.492 1478.43C117.266 1478.56 117.041 1478.67 116.816 1478.79C117.01 1479.33 117.209 1479.86 117.412 1480.38C117.228 1480.29 117.042 1480.2 116.858 1480.1C116.823 1480.25 116.789 1480.4 116.755 1480.55C117.014 1481.06 117.255 1481.57 117.532 1482.09C116.401 1483.46 117.359 1483.05 117.49 1483.85C117.626 1484.64 116.998 1485.08 117.005 1485.68C117.017 1486.47 116.952 1486.88 117.038 1487.68C117.087 1488.15 117.753 1488.9 116.744 1488.31C116.753 1489.03 116.746 1489.9 116.808 1490.69C116.879 1491.59 117.019 1492.47 117.317 1493.13C117.485 1493.5 117.714 1492.94 117.761 1493C117.984 1493.3 117.535 1493.65 117.655 1493.98C117.854 1494.53 118.408 1495.56 118.572 1495.99C118.804 1496.6 118.356 1497.71 118.33 1497.82C118.18 1498.44 118.732 1498.5 118.73 1498.68C118.722 1499.76 118.556 1500.04 119.719 1500.14C119.298 1500.51 118.746 1501.81 119.603 1501.9C118.886 1502.07 119.218 1502.98 119.177 1503.59C119.41 1503.65 119.642 1503.71 119.876 1503.76C118.879 1505.27 120.434 1507.42 121.042 1508.92C121.057 1508.95 120.548 1509.18 120.737 1509.38C120.751 1509.39 120.981 1509.3 121.058 1509.44C121.307 1509.93 122.511 1511.7 122.593 1511.91C122.882 1512.73 122.542 1513 122.676 1513.51C122.853 1514.18 123.238 1514.16 123.409 1514.79C123.49 1515.09 123.126 1515.52 123.36 1515.96C123.498 1516.21 123.868 1516.11 123.977 1516.31C124.367 1517.03 124.358 1517.67 125.087 1518.15C124.023 1518.78 124.987 1518.76 125.206 1519.06C126.098 1520.25 126.343 1522.09 126.968 1523.17C128.912 1526.53 131.175 1529.18 133.246 1532.26C133.584 1532.76 133.137 1533.2 133.511 1533.72C133.68 1533.96 134.212 1533.97 134.47 1534.36C134.679 1534.67 134.783 1535.24 135.046 1535.62C135.115 1535.73 135.467 1535.51 135.572 1535.66C136.367 1536.79 136.906 1538.06 137.584 1539.3C137.835 1539.76 138.469 1539.68 137.652 1540.2C137.961 1540.21 138.242 1540.24 138.54 1540.25C138.502 1541.19 139.357 1541.25 139.847 1542.1C139.897 1542.19 139.856 1543.18 140.491 1543.19C140.249 1543.43 139.986 1543.57 139.757 1543.78C139.925 1544.18 140.638 1544.4 140.853 1544.59C141.067 1544.77 140.859 1545.2 140.912 1545.27C141.116 1545.52 141.502 1545.07 141.526 1545.08C142.933 1545.81 142.591 1545.89 142.574 1547.15C142.57 1547.47 144.091 1548.11 143.825 1548.82C144.034 1548.63 144.149 1548.4 144.322 1548.19C144.698 1548.46 145.079 1548.73 145.458 1549C145.2 1549.12 144.928 1549.24 144.673 1549.37C145.512 1549.86 145.648 1550.86 146.241 1551.37C146.579 1551.65 146.938 1551.17 147.044 1551.44C147.064 1551.49 146.731 1551.74 146.823 1551.86C147.574 1552.88 148.273 1552.91 149.271 1553.62C149.742 1553.95 149.688 1554.85 150.643 1554.97C150.733 1554.99 151.764 1554.95 151.619 1556C151.923 1555.86 152.128 1555.81 152.37 1555.68C152.389 1557.4 152.95 1556.14 154.256 1556.64C154.926 1556.9 156.796 1558.36 157.393 1558.86C157.742 1559.17 157.467 1559.64 157.527 1559.7C157.896 1560.06 158.155 1559.59 158.509 1559.89C158.864 1560.18 159.09 1560.98 159.538 1561.15C159.879 1561.28 159.924 1560.56 160.293 1561.01C160.369 1561.1 159.837 1561.46 160.438 1561.51C160.534 1561.52 161.599 1561.37 161.817 1561.32C161.54 1560.81 160.546 1559.81 160.171 1559.45C153.389 1553.76 141.434 1542.1 136.434 1534.39C135.948 1533.71 135.167 1533.55 134.827 1533.11C134.489 1532.67 135.183 1532.79 134.88 1532.39C134.579 1531.99 134.072 1531.87 133.801 1531.49C131.975 1528.89 130.255 1526.16 128.807 1523.34C128.434 1522.61 128.549 1521.84 128.245 1521.16C128.127 1520.89 127.619 1521.11 127.54 1520.92C126.683 1518.86 126.407 1516.74 125.589 1514.7C125.249 1513.85 124.48 1513.06 124.149 1512.21C123.874 1511.51 123.936 1510.66 123.742 1510.02C123.638 1509.67 123.18 1509.6 123.109 1509.49C122.869 1509.08 123.408 1509.08 123.34 1508.86C123.152 1508.23 122.466 1508.09 122.345 1507.49C122.298 1507.25 122.686 1507.17 122.652 1506.82C122.609 1506.38 122.302 1506.63 122.206 1506.33C122.199 1506.31 122.488 1506.3 122.455 1506.13C122.244 1505.07 122.131 1503.72 121.875 1502.71C121.345 1500.64 120.389 1498.67 119.934 1496.7C119.821 1496.2 120.207 1496.27 120.197 1496.11C120.151 1495.34 119.672 1495.13 119.703 1494.31C119.708 1494.17 120.13 1493.55 119.93 1493.06C119.822 1492.8 119.464 1492.53 119.358 1492.3C119.253 1492.07 119.712 1491.97 119.675 1491.69C119.61 1491.17 119.307 1491.36 119.274 1490.61C119.272 1490.56 119.279 1490.49 119.292 1490.4C119.36 1490 119.584 1489.21 119.51 1488.58C119.364 1487.39 118.902 1485.84 118.899 1484.38C118.897 1483.86 119.384 1483.22 119.411 1482.45C119.44 1481.49 119.423 1479.74 119.494 1478.74C119.529 1478.23 119.031 1478.15 119.015 1478.08C118.906 1477.69 119.454 1477.89 119.453 1477.64C119.453 1477.28 119.069 1476.92 119.073 1476.59C119.076 1476.38 119.492 1476.39 119.499 1476.34C119.803 1474.67 119.939 1473.25 120.218 1471.61C121.72 1462.86 124.443 1454.26 127.041 1445.8C127.263 1445.08 126.778 1444.89 127.069 1444.3C127.36 1443.71 128.634 1443.49 127.643 1442.57C127.886 1442.63 128.054 1442.7 128.275 1442.76C128.404 1441.36 129.217 1440.23 129.739 1439.02C130.127 1438.11 130.409 1437.3 130.724 1436.46C131.004 1435.71 130.573 1435.6 131.369 1435.18C132.369 1431.87 133.898 1428.74 134.895 1425.42C136.092 1425.13 135.91 1424.18 136.303 1423.13C136.35 1423 136.585 1423.29 136.748 1422.92C136.953 1422.45 136.614 1421.97 137.048 1421.23C137.162 1421.03 138.481 1419.83 138.528 1419.15C138.575 1418.47 138.873 1417.6 138.957 1416.89C139.103 1417.08 139.23 1417.29 139.37 1417.49C139.565 1417.23 139.761 1416.97 139.959 1416.72C139.751 1416.54 139.543 1416.36 139.333 1416.18C139.649 1416.15 139.963 1416.12 140.283 1416.09C139.305 1415.03 139.477 1415.62 140.247 1415.02C140.632 1414.72 140.614 1414.29 140.98 1413.97C141.113 1413.85 141.516 1413.97 141.658 1413.85C142.005 1413.53 141.39 1413.45 141.542 1413.22C141.697 1412.98 142.434 1412.97 142.476 1412.4C141.264 1412.25 142.398 1411.15 143.153 1411.56C143.253 1411.41 143.307 1411.26 143.438 1411.11C141.536 1410.08 143.342 1410.12 143.797 1409.97C144.252 1409.83 143.764 1409.51 143.832 1409.45C144.028 1409.28 144.122 1409.57 144.229 1409.42C144.934 1408.48 145.284 1407.36 145.942 1406.4C146.037 1406.26 146.215 1406.57 146.304 1406.39C146.392 1406.22 146.24 1405.87 146.429 1405.65C146.48 1405.59 146.726 1405.74 146.798 1405.65C148.291 1403.6 149.585 1401.56 151.223 1399.55C151.372 1399.37 151.88 1399.56 152.159 1399.21C152.438 1398.86 152.538 1398.04 152.884 1397.59C152.976 1397.48 153.321 1397.73 153.443 1397.58C153.86 1397.05 153.99 1396.39 154.423 1395.84C155.156 1394.91 156.196 1394.2 156.859 1393.17C156.986 1392.98 156.709 1392.76 156.871 1392.45C157.152 1391.93 157.365 1392.45 157.495 1392.42C157.918 1392.32 157.521 1391.74 157.906 1391.61C157.965 1391.6 158.192 1391.94 158.232 1391.91C158.832 1391.43 158.204 1390.71 159.153 1390.52C159.312 1389.62 158.292 1390.32 157.999 1390.2C157.285 1389.89 157.307 1388.72 157.486 1388.19C157.639 1387.74 157.937 1388.06 158.06 1387.95C158.714 1387.35 159.756 1386.54 160.131 1385.94C160.359 1385.58 159.679 1385.92 159.743 1385.68C159.806 1385.43 160.124 1385.59 160.05 1385.18C159.976 1384.76 159.623 1383.66 159.23 1383.33ZM121.871 1447.54C123.929 1446.78 124.883 1443.36 125.389 1441.5C125.803 1439.95 125.036 1438.2 126.738 1439.2C126.148 1440.79 125.482 1442.05 124.947 1443.77C124.892 1443.95 124.698 1445.07 124.605 1445.46C124.552 1445.67 124.855 1445.78 124.757 1446.06C124.735 1446.12 124.224 1446.33 124.194 1446.46C124.086 1446.91 124.296 1448.37 124.221 1448.55C124.013 1449.03 123.596 1448.69 123.443 1448.88C122.932 1449.51 123.625 1449.81 123.177 1450.46C123.098 1450.57 122.344 1450.81 122.272 1451.36C122.243 1451.59 122.459 1452.06 122.396 1452.22C122.051 1453.1 121.341 1454 121.192 1454.84C121.069 1455.54 121.606 1455.49 121.576 1455.87C121.545 1456.25 120.866 1456.54 120.77 1456.78C120.618 1457.16 120.821 1457.72 120.787 1457.85C120.094 1460.25 119.237 1462.34 118.636 1464.68C118.722 1463.04 118.863 1461.37 118.997 1459.73C119.718 1458.93 119.135 1459.28 119.119 1458.64C119.108 1458.13 119.994 1458.23 120.05 1457.59C120.049 1457.59 120.049 1457.59 120.049 1457.59C120.077 1457.27 119.654 1456.43 120.079 1455.81C120.095 1455.79 120.555 1455.84 120.704 1455.34C121.036 1454.21 121.738 1452.56 122.018 1451.25C122.098 1450.87 121.613 1450.81 121.686 1450.36C121.74 1450.03 122.278 1449.78 122.335 1449.25C122.406 1448.59 121.769 1448.05 122.923 1447.94C122.571 1447.79 122.211 1447.7 121.871 1447.54ZM137.461 1414.74C137.47 1414.63 137.09 1412.96 137.988 1413.93C137.602 1415.63 136.467 1417.04 135.891 1418.72C135.083 1417.59 136.011 1416.94 136.706 1415.93C136.707 1415.93 136.707 1415.93 136.707 1415.93C136.74 1415.88 136.334 1415.93 136.552 1415.67C136.657 1415.55 137.4 1415.27 137.461 1414.74Z" fill="white"/>
<path d="M0 852.998C0 864.872 12.6259 879.498 24.5 879.498C36.3741 879.498 43.5 867.872 43.5 855.998C43.5 844.124 30.8741 831.998 19 831.998C7.12588 831.998 0 841.124 0 852.998Z" fill="#79A363" fill-opacity="0.8"/>
<path d="M101.927 115.306C87.3869 111.41 73.62 91.1502 77.516 76.6103C81.412 62.0704 97.986 57.1592 112.526 61.0552C127.066 64.9511 137.771 84.3902 133.875 98.9301C129.98 113.47 116.467 119.201 101.927 115.306Z" fill="#79A363" fill-opacity="0.8"/>
<path d="M11.5 854.724C11.5 860.224 17.305 866.998 22.7644 866.998C28.2237 866.998 31.5 861.613 31.5 856.114C31.5 850.614 25.695 844.998 20.2356 844.998C14.7763 844.998 11.5 849.225 11.5 854.724Z" fill="#79A363" fill-opacity="0.8"/>
<path d="M103.587 100.656C96.8523 98.8519 90.462 89.521 92.2532 82.8359C94.0445 76.1509 101.713 73.9058 108.447 75.7103C115.182 77.5147 120.154 86.4657 118.363 93.1507C116.571 99.8357 110.321 102.461 103.587 100.656Z" fill="#79A363" fill-opacity="0.8"/>
<path d="M59.5 893.998C59.5 899.797 67.201 903.998 73 903.998C78.799 903.998 80.5 899.797 80.5 893.998C80.5 888.199 74.299 884.998 68.5 884.998C62.701 884.998 59.5 888.199 59.5 893.998Z" fill="#F1A198"/>
<path d="M71.2455 28.9941C64.1446 27.0914 61.5271 16.2831 63.4298 9.18222C65.3325 2.08131 71.0348 1.37679 78.1357 3.27947C85.2366 5.18215 87.1217 13.8256 85.219 20.9265C83.3163 28.0274 78.3464 30.8968 71.2455 28.9941Z" fill="#F1A198"/>
<path d="M137.56 189.998C141.418 172.998 135.63 126.998 153 126.998V396.998C137.325 388.998 117.792 336.998 116.104 285.998C114.416 234.998 133.701 206.998 137.56 189.998Z" fill="#FAAE37" fill-opacity="0.6"/>
<path d="M133.129 290.723C133.083 288.957 133.137 287.302 133.22 285.244C133.22 285.243 133.22 285.242 133.22 285.241C133.232 284.945 133.244 284.633 133.257 284.315C133.365 281.758 133.497 278.455 133.655 273.484C133.832 268.02 134.348 263.608 134.797 260.983C134.881 260.495 134.936 259.995 135.031 258.68C135.093 257.82 135.168 256.691 135.289 255.04C135.355 254.145 135.433 253.113 135.53 251.93C135.852 247.947 136.315 241.719 136.931 236.011C137.064 234.766 137.207 233.504 137.343 232.389C137.595 230.307 137.846 228.379 138.067 226.782C138.569 223.154 139.132 219.667 139.762 215.881C140.341 212.411 140.976 208.708 141.682 204.411C142.225 201.115 142.978 197.949 143.767 194.741C143.867 194.332 143.968 193.922 144.07 193.51C144.767 190.68 145.48 187.783 146.113 184.631C147.239 179.014 147.803 174.479 148.396 169.459C148.628 167.49 148.861 165.463 149.133 163.244C149.562 159.758 150.229 154.745 150.844 149.707C150.896 149.278 150.948 148.847 151 148.417C151 148.415 151 148.413 151.001 148.411C151.558 143.802 152.055 139.265 152.36 135.935C152.841 130.645 152.903 128.648 152.965 126.972C152.987 126.345 153.006 125.769 153.04 125.078C153.165 122.584 153.471 118.839 153.736 115.044C153.737 115.029 153.738 115.015 153.739 115C153.783 114.368 154.097 113.874 154.442 113.899C154.787 113.924 155.032 114.46 154.987 115.094C154.846 117.114 154.698 119.076 154.57 120.841C154.859 120.955 155.047 121.446 155.001 122.013C154.882 123.438 154.776 127.819 154.475 134.674C154.574 134.214 154.664 133.828 154.747 133.489C154.844 133.092 154.924 132.788 154.992 132.526C155.134 131.981 155.229 131.612 155.332 130.966C155.52 129.467 155.743 127.073 155.957 124.576C156.012 123.943 156.333 123.452 156.677 123.482C157.022 123.512 157.258 124.054 157.203 124.688C157.202 124.701 157.201 124.713 157.2 124.726C156.988 127.204 156.758 129.68 156.559 131.248C156.509 131.648 156.46 131.998 156.421 132.258C156.39 132.466 156.35 132.725 156.316 132.868C156.312 132.887 156.303 132.923 156.29 132.966C156.29 132.966 156.29 132.967 156.289 132.968C156.282 132.992 156.247 133.114 156.184 133.242C156.171 133.268 156.143 133.325 156.1 133.389C156.095 133.406 156.091 133.423 156.086 133.44C156.024 133.68 155.96 133.925 155.895 134.19C155.64 135.217 155.289 136.875 154.721 140.304C154.197 143.464 153.52 148.83 152.671 155.513C152.754 155.066 152.836 154.617 152.916 154.168C153.118 153.039 153.315 151.889 153.505 150.758C153.577 150.323 153.649 149.892 153.721 149.453C153.836 148.747 153.952 148.028 154.063 147.325C154.139 146.848 154.214 146.369 154.289 145.889C154.289 145.888 154.289 145.887 154.29 145.886C154.394 145.22 154.497 144.55 154.602 143.874C154.638 143.639 154.674 143.407 154.71 143.177C154.851 142.26 154.988 141.356 155.175 140.314C155.201 140.188 155.232 140.051 155.256 139.948C155.282 139.838 155.307 139.733 155.333 139.634C155.355 139.547 155.377 139.464 155.397 139.384C155.4 139.373 155.403 139.363 155.406 139.352C155.429 139.263 155.451 139.177 155.471 139.095C155.492 139.013 155.512 138.934 155.53 138.856C155.53 138.855 155.53 138.855 155.53 138.854C155.549 138.772 155.563 138.71 155.581 138.624C155.603 138.515 155.622 138.421 155.642 138.308C155.661 138.198 155.681 138.083 155.699 137.966C155.717 137.85 155.735 137.732 155.752 137.611C155.77 137.491 155.787 137.368 155.804 137.245C155.821 137.121 155.837 136.996 155.853 136.87C155.87 136.743 155.886 136.616 155.903 136.488C155.941 136.192 156.038 135.915 156.176 135.717C156.314 135.521 156.48 135.422 156.64 135.439C156.8 135.456 156.943 135.588 157.038 135.811C157.132 136.033 157.171 136.326 157.147 136.623C157.14 136.704 157.134 136.786 157.127 136.867C157.123 136.916 157.119 136.965 157.115 137.013C157.104 137.144 157.093 137.277 157.082 137.41C157.07 137.542 157.057 137.676 157.044 137.812C157.031 137.947 157.017 138.085 157.002 138.224C156.987 138.362 156.97 138.504 156.952 138.648C156.934 138.788 156.911 138.947 156.889 139.09C156.873 139.194 156.85 139.322 156.831 139.428C156.81 139.54 156.789 139.649 156.768 139.754C156.747 139.859 156.726 139.962 156.705 140.06C156.703 140.071 156.701 140.081 156.699 140.092C156.681 140.179 156.664 140.262 156.648 140.342C156.63 140.43 156.613 140.514 156.599 140.594C156.582 140.682 156.574 140.735 156.564 140.801C156.451 141.671 156.339 142.745 156.229 143.765C156.216 143.893 156.202 144.02 156.188 144.148C156.116 144.824 156.044 145.497 155.971 146.168C155.918 146.656 155.865 147.143 155.81 147.629C155.731 148.343 155.648 149.074 155.565 149.793C155.513 150.24 155.461 150.679 155.408 151.123C155.269 152.278 155.122 153.46 154.969 154.624C154.816 155.785 154.653 156.962 154.479 158.134C154.305 159.299 154.113 160.507 153.906 161.677C153.753 162.536 153.57 163.403 153.391 164.213C153.295 164.649 153.199 165.075 153.104 165.494C153.104 165.495 153.103 165.496 153.103 165.498C153.019 165.865 152.937 166.228 152.856 166.587C152.683 167.356 152.517 168.115 152.36 168.878C152.202 169.638 152.054 170.393 151.914 171.153C151.775 171.907 151.64 172.686 151.516 173.449C151.39 174.219 151.276 174.964 151.158 175.765C151.005 176.813 150.862 177.851 150.717 178.912C150.572 179.976 150.428 181.045 150.284 182.111C150.234 182.482 150.183 182.858 150.132 183.235C150.131 183.236 150.131 183.238 150.131 183.239C150.037 183.935 149.942 184.631 149.847 185.326C149.7 186.391 149.549 187.481 149.395 188.558C149.242 189.633 149.083 190.726 148.917 191.816C148.752 192.904 148.575 194.024 148.379 195.147C148.205 196.147 148.024 197.149 147.846 198.139C147.799 198.399 147.752 198.659 147.705 198.919C147.484 200.147 147.273 201.349 147.084 202.532C146.896 203.708 146.723 204.903 146.565 206.098C146.409 207.284 146.261 208.508 146.123 209.726C145.986 210.943 145.856 212.173 145.733 213.403C145.61 214.627 145.491 215.872 145.378 217.114C145.314 217.809 145.241 218.552 145.17 219.247C145.099 219.95 145.026 220.644 144.952 221.338C144.922 221.618 144.892 221.897 144.863 222.174C144.82 222.577 144.778 222.975 144.737 223.367C144.67 224.026 144.605 224.683 144.55 225.312C144.494 225.942 144.448 226.549 144.413 227.142C144.376 227.758 144.356 228.266 144.343 228.872C144.28 230.337 144.203 231.257 144.121 232.261C144.105 232.459 144.089 232.661 144.073 232.872C144.063 232.988 144.053 233.105 144.044 233.221C143.958 234.261 143.863 235.348 143.766 236.453C143.666 237.605 143.559 238.8 143.45 240.014C143.347 241.161 143.237 242.358 143.125 243.574C143.018 244.726 142.907 245.906 142.793 247.119C142.68 248.301 142.566 249.482 142.45 250.666C142.383 251.357 142.311 252.054 142.243 252.709C142.193 253.183 142.144 253.653 142.097 254.118C142.077 254.307 142.058 254.496 142.039 254.684C141.974 255.332 141.913 255.969 141.862 256.555C141.811 257.15 141.767 257.731 141.733 258.303C141.7 258.877 141.676 259.443 141.662 260.014C141.648 260.606 141.645 261.068 141.651 261.685C141.655 262.085 141.661 262.479 141.667 262.873C141.676 263.464 141.686 264.053 141.699 264.651C141.712 265.25 141.728 265.809 141.746 266.393C141.752 266.579 141.759 266.777 141.765 266.964C141.785 267.544 141.807 268.121 141.832 268.7C141.858 269.278 141.886 269.859 141.919 270.412C141.952 270.973 141.987 271.528 142.028 272.097C142.097 273.063 142.124 273.997 142.141 274.814C142.158 275.623 142.165 276.384 142.175 277.129C142.176 277.268 142.178 277.408 142.18 277.547C142.188 278.149 142.196 278.743 142.208 279.331C142.222 280.063 142.241 280.744 142.265 281.452C142.289 282.149 142.319 282.856 142.355 283.555C142.391 284.258 142.431 284.948 142.481 285.659C142.529 286.369 142.592 287.092 142.663 287.888C142.733 288.677 142.808 289.508 142.878 290.353C142.949 291.182 143.015 292.028 143.075 292.87C143.134 293.715 143.189 294.565 143.237 295.407C143.286 296.252 143.329 297.075 143.369 297.907C143.409 298.734 143.447 299.593 143.48 300.399C143.534 301.71 143.588 302.981 143.648 304.28C143.708 305.566 143.773 306.871 143.842 308.149C143.911 309.43 143.986 310.718 144.068 312.008C144.149 313.294 144.235 314.57 144.329 315.854C144.349 316.137 144.37 316.421 144.392 316.705C144.467 317.707 144.546 318.703 144.629 319.693C144.629 319.7 144.63 319.706 144.63 319.713C144.738 320.989 144.85 322.244 144.974 323.512C145.02 323.979 145.064 324.421 145.111 324.874C145.159 325.327 145.207 325.772 145.257 326.22C145.308 326.669 145.36 327.116 145.414 327.555C145.469 328 145.524 328.433 145.583 328.869C145.638 329.27 145.695 329.667 145.758 330.099C145.764 330.138 145.77 330.178 145.775 330.217C145.845 330.69 145.921 331.228 145.986 331.73C146.156 333.058 146.336 334.354 146.531 335.669C146.727 336.982 146.936 338.292 147.157 339.611C147.243 340.126 147.332 340.644 147.422 341.16C147.562 341.964 147.705 342.77 147.852 343.578C148.092 344.908 148.339 346.237 148.591 347.576C148.842 348.91 149.097 350.251 149.353 351.584C149.609 352.915 149.87 354.262 150.13 355.587C150.42 357.063 150.717 358.528 151.029 360C151.339 361.47 151.659 362.929 151.994 364.389C152.329 365.853 152.676 367.307 153.036 368.755C153.398 370.207 153.774 371.66 154.163 373.101C154.396 373.964 154.634 374.824 154.879 375.689C155.053 376.131 155.222 376.554 155.385 376.96C156.592 379.947 157.517 382.101 158.7 384.91C158.819 385.176 158.926 385.393 159.056 385.655C159.081 385.704 159.107 385.757 159.134 385.811C159.304 386.153 159.496 386.545 159.742 387.098C160.234 388.204 160.915 389.901 161.616 392.212C161.792 392.793 161.646 393.279 161.285 393.299C161.031 393.312 160.739 393.09 160.526 392.753C160.784 393.435 161.043 394.114 161.307 394.787C161.412 395.056 161.455 395.333 161.424 395.56C161.393 395.786 161.291 395.942 161.138 395.996C160.986 396.049 160.793 395.994 160.602 395.843C160.411 395.692 160.237 395.457 160.117 395.191C159.801 394.484 159.491 393.775 159.183 393.064C158.876 392.352 158.57 391.637 158.271 390.925C157.973 390.215 157.677 389.502 157.384 388.784C157.092 388.068 156.802 387.348 156.516 386.624C156.227 385.891 155.951 385.185 155.673 384.457C155.506 384.022 155.34 383.58 155.177 383.146C155.116 382.984 155.057 382.826 154.998 382.667C154.95 382.538 154.902 382.407 154.852 382.273C154.329 380.857 153.823 379.436 153.333 378.013C152.841 376.585 152.363 375.144 151.904 373.711C151.444 372.274 150.997 370.825 150.566 369.376C150.136 367.931 149.719 366.479 149.315 365.017C148.911 363.56 148.523 362.102 148.145 360.635C147.853 359.502 147.57 358.375 147.295 357.248C147.162 356.81 147.033 356.375 146.907 355.945C146.542 354.694 146.158 353.438 145.79 352.204C146.307 354.433 146.789 356.211 147.261 357.893C147.324 358.119 147.387 358.342 147.45 358.566C148.099 360.852 148.73 363.04 149.504 366.021C151.725 374.478 153.392 379.264 154.369 382.266C155.367 385.266 155.757 386.556 156.003 387.831C156.345 389.625 157.514 392.892 158.229 394.486C158.485 395.065 158.44 395.646 158.125 395.787C157.809 395.928 157.34 395.572 157.082 394.988C156.319 393.289 155.035 389.734 154.63 387.579C154.448 386.614 154.148 385.57 153.159 382.594C152.192 379.617 150.526 374.843 148.289 366.323C147.539 363.434 146.928 361.319 146.282 359.045C146.219 358.822 146.155 358.599 146.092 358.373C146.091 358.372 146.091 358.37 146.091 358.369C145.507 356.287 144.887 354.003 144.214 350.898C142.624 343.741 140.982 334.007 140.573 331.697C140.488 331.245 140.403 330.808 140.315 330.348C139.98 328.569 139.563 326.443 138.966 321.567C138.836 320.501 138.702 319.263 138.57 317.893C138.211 315.852 137.89 313.889 137.663 312.158C137.468 310.664 137.223 309.295 136.973 307.973C136.901 307.593 136.828 307.211 136.755 306.823C136.578 305.892 136.406 304.962 136.265 304.056C136.152 303.334 136.025 302.58 135.893 301.784C135.412 298.855 134.861 295.346 134.742 290.773C134.618 285.882 134.667 281.742 134.752 278.137C134.66 280.809 134.575 282.793 134.505 284.518C134.492 284.841 134.48 285.154 134.468 285.444C134.385 287.513 134.337 289.042 134.38 290.679C134.6 298.438 134.894 301.359 135.377 304.609C135.507 305.468 135.672 306.419 135.855 307.44C136.217 309.46 136.651 311.801 137.009 314.293C137.342 316.616 137.789 319.222 138.295 321.958C138.296 321.959 138.296 321.96 138.296 321.961C138.395 322.497 138.496 323.04 138.599 323.587C139.228 326.914 139.928 330.409 140.573 333.802C140.642 334.165 140.728 334.6 140.829 335.099C141.412 337.978 142.464 343.012 143.474 349.211C143.697 350.574 143.893 351.996 144.133 353.617C144.207 354.112 144.284 354.626 144.368 355.161C144.731 357.471 145.214 360.276 146.061 363.963C146.762 367.009 147.732 370.69 148.863 374.487C149.416 376.348 150.012 378.256 150.619 380.113C152.46 385.74 154.34 390.824 156.475 395.831C156.475 395.832 156.476 395.833 156.476 395.834C156.727 396.423 156.673 397 156.35 397.124C156.027 397.248 155.556 396.869 155.302 396.275C153.151 391.224 151.266 386.118 149.42 380.474C148.819 378.633 148.223 376.728 147.669 374.863C146.525 371.025 145.536 367.272 144.826 364.182C143.961 360.411 143.469 357.542 143.1 355.188C143.012 354.621 142.932 354.087 142.857 353.58C142.62 351.97 142.436 350.629 142.225 349.331C141.245 343.301 140.224 338.438 139.636 335.538C139.531 335.024 139.441 334.571 139.368 334.185C138.731 330.846 138.037 327.392 137.405 324.058C137.302 323.515 137.201 322.975 137.102 322.44C137.102 322.439 137.101 322.438 137.101 322.436C136.591 319.69 136.133 317.032 135.791 314.656C135.444 312.255 135.048 310.128 134.693 308.171C134.503 307.125 134.323 306.088 134.169 305.081C133.652 301.618 133.351 298.533 133.129 290.723ZM160.129 391.696C159.674 390.252 159.246 389.129 158.893 388.29C159.15 389.017 159.41 389.739 159.673 390.46C159.823 390.871 159.976 391.285 160.129 391.696ZM139.798 317.59C139.841 317.835 139.885 318.082 139.929 318.33C139.854 317.642 139.782 316.954 139.712 316.268C139.626 315.425 139.544 314.584 139.464 313.745C139.57 315.081 139.682 316.38 139.798 317.59ZM135.993 290.731C136.105 295.029 136.605 298.245 137.077 301.142C137.213 301.978 137.347 302.771 137.47 303.568C137.522 303.898 137.577 304.227 137.635 304.56C137.542 302.613 137.473 300.827 137.424 299.352C137.282 294.996 137.326 292.467 137.366 290.3C137.378 289.66 137.391 289.048 137.402 288.425C137.35 287.911 137.299 287.379 137.254 286.842C137.191 286.087 137.131 285.294 137.081 284.502C137.031 283.716 136.987 282.921 136.951 282.144C136.915 281.36 136.887 280.587 136.864 279.821C136.842 279.084 136.826 278.352 136.812 277.648C136.811 277.608 136.81 277.568 136.809 277.527C136.794 276.783 136.782 276.064 136.764 275.406C136.745 274.742 136.721 274.168 136.682 273.665C136.634 273.036 136.589 272.394 136.549 271.762C136.509 271.13 136.474 270.504 136.444 269.882C136.413 269.256 136.387 268.614 136.364 267.987C136.357 267.784 136.349 267.571 136.343 267.37C136.34 267.277 136.337 267.185 136.334 267.093C136.294 268.31 136.254 269.618 136.217 270.904C136.164 272.783 136.092 274.845 136.032 277.055C135.931 280.904 135.855 285.273 135.993 290.731ZM137.166 248.554C137.131 249.082 137.084 249.861 137.028 250.885C137.014 251.132 137.001 251.374 136.988 251.632C136.988 251.626 136.989 251.62 136.989 251.614C137.062 250.993 137.134 250.353 137.205 249.709C137.333 248.538 137.452 247.484 137.578 246.32C137.704 245.165 137.825 244.051 137.946 242.938C138.072 241.773 138.195 240.636 138.313 239.54C138.437 238.388 138.561 237.242 138.678 236.146C138.713 235.809 138.756 235.412 138.794 235.048C138.666 235.896 138.554 236.672 138.432 237.563C138.337 238.258 138.232 239.053 138.132 239.795C138.093 240.085 138.043 240.437 137.984 240.853C137.751 242.526 137.398 245.124 137.166 248.554ZM139.595 226.029C139.622 225.768 139.65 225.508 139.679 225.251C139.762 224.519 139.851 223.805 139.942 223.102C140.005 222.613 140.069 222.13 140.133 221.653C140.16 221.451 140.186 221.25 140.213 221.05C140.258 220.716 140.302 220.383 140.346 220.052C139.975 222.359 139.631 224.607 139.305 226.96C139.301 226.991 139.297 227.022 139.293 227.054C139.395 226.705 139.497 226.358 139.595 226.029Z" fill="#FFE1B2"/>
<path d="M152.795 1190.14C151.607 1189.87 143.459 1189.32 142.944 1189.68C142.795 1189.78 142.127 1191.37 142.022 1191.7C140.929 1195.2 141.592 1209.46 141.65 1213.99C141.789 1224.75 142.804 1235.53 142.658 1246.31C142.714 1244.91 143.191 1243.25 143.12 1241.79L144.316 1242.81C142.856 1228.57 142.882 1213.74 143.127 1199.44C143.506 1199.3 143.982 1200.66 144.047 1200.91C145.237 1205.54 144.291 1221.87 144.596 1227.98C145.018 1236.47 145.633 1245.79 146.525 1254.22C146.746 1256.31 146.504 1258.11 147.721 1260.58C150.481 1266.18 154.386 1265.3 158.862 1262.14C160.846 1259.4 158.152 1259.12 156.192 1260.58L157.39 1252.2C156.998 1235.67 156.891 1219.02 154.912 1202.57C154.613 1200.08 152.835 1196.01 153.901 1193.82C154.049 1193.51 153.959 1193.01 153.993 1192.99C154.653 1192.52 158.475 1193.87 158.228 1192.62C157.847 1190.69 154.355 1191.12 153.072 1190.78C152.525 1190.64 152.83 1190.14 152.795 1190.14L152.795 1190.14Z" fill="#F8CB83"/>
<path d="M152.795 1190.14C152.83 1190.14 152.525 1190.64 153.072 1190.78C154.355 1191.12 157.846 1190.7 158.228 1192.62C158.475 1193.87 154.653 1192.52 153.993 1192.99C153.959 1193.02 154.049 1193.51 153.901 1193.82C158.495 1213.5 159.087 1234.2 157.85 1254.32C157.241 1255.03 157.397 1252.48 157.39 1252.2L156.192 1260.58C158.152 1259.12 160.846 1259.4 158.862 1262.14C154.304 1268.45 148.708 1264.46 145.419 1259.38C147.724 1266.11 155.23 1268.26 159.691 1262.05C161.93 1258.94 161.604 1248.9 161.535 1244.92C161.236 1227.7 159.575 1210.38 158.781 1193.18C158.587 1190.2 154.954 1190.83 152.797 1190.14L152.795 1190.14Z" fill="#F8CB83"/>
<path d="M142.656 1246.31C142.502 1250.15 143.338 1256.17 145.417 1259.38C148.706 1264.46 154.303 1268.45 158.86 1262.14C154.384 1265.3 150.479 1266.18 147.719 1260.58C146.501 1258.11 146.743 1256.31 146.523 1254.23C144.763 1250.79 144.702 1246.58 144.315 1242.81L143.119 1241.8C143.191 1243.25 142.714 1244.91 142.657 1246.31L142.656 1246.31Z" fill="#F8CB83"/>
<path d="M154.732 1165.19C154.352 1164.8 145.225 1165.11 143.867 1164.45C143.576 1164.67 143.763 1167.81 143.867 1167.95C144.706 1169.1 153.583 1169.39 155.1 1168.32C155.253 1168.11 154.889 1165.35 154.732 1165.19Z" fill="#FFE1B2"/>
<path d="M153.898 1193.82C152.832 1196.01 154.61 1200.08 154.91 1202.57C156.888 1219.02 156.995 1235.67 157.388 1252.2C157.395 1252.48 157.238 1255.02 157.848 1254.31C159.085 1234.2 158.493 1213.5 153.898 1193.82Z" fill="#F8CB83"/>
<path d="M144.315 1242.81C144.702 1246.58 144.762 1250.79 146.524 1254.23C145.632 1245.8 145.016 1236.47 144.594 1227.99C144.29 1221.87 145.235 1205.54 144.046 1200.92C143.981 1200.66 143.504 1199.3 143.125 1199.44C142.881 1213.74 142.855 1228.57 144.315 1242.81L144.315 1242.81Z" fill="#F8CB83"/>
<path d="M154.362 1178.44L145.522 1178.26L143.679 1188.76L157.306 1190.41L154.362 1178.44Z" fill="#FFE1B2"/>
<path d="M152.334 1181.57C151.966 1181.19 150.896 1181.55 151.23 1182.31C151.719 1183.42 152.814 1182.06 152.334 1181.57Z" fill="#FFE1B2"/>
<path d="M149.02 1185.62C148.767 1185.07 147.294 1185.3 147.731 1186.18C148.084 1186.88 149.296 1186.23 149.02 1185.62Z" fill="#FFE1B2"/>
<path d="M150.493 1184.15C150.401 1183.32 148.701 1183.98 149.204 1184.7C149.383 1184.95 150.57 1184.83 150.493 1184.15Z" fill="#FFE1B2"/>
<path d="M152.888 1185.07C152.537 1184.52 151.632 1185.1 151.967 1185.62C152.319 1186.18 153.223 1185.6 152.888 1185.07Z" fill="#FFE1B2"/>
<path d="M146.627 1185.07C146.478 1184.25 145.231 1184.91 145.522 1185.44C145.765 1185.88 146.715 1185.56 146.627 1185.07Z" fill="#FFE1B2"/>
<path d="M146.811 1180.46C146.276 1179.67 145.784 1180.94 146.074 1181.2C146.364 1181.47 147.112 1180.91 146.811 1180.46Z" fill="#FFE1B2"/>
<path d="M148.561 1178.17L149.39 1177.52C148.5 1177.81 147.037 1176.92 146.443 1176.23C149.918 1176.35 153.063 1178.6 154.455 1174.48C154.69 1173.78 155.138 1169.56 154.731 1169.23L144.419 1169.05C144.576 1170.1 145.819 1177.17 146.074 1177.52C146.354 1177.9 148.02 1178.1 148.56 1178.16L148.561 1178.17Z" fill="#FFE1B2"/>
<path d="M148.561 1178.17C151.186 1178.5 154.976 1177.91 154.454 1174.48C153.063 1178.6 149.918 1176.35 146.443 1176.23C147.036 1176.92 148.499 1177.82 149.389 1177.52L148.561 1178.17Z" fill="#FFE1B2"/>
<path d="M152.522 1173.65C152.075 1173.21 151.382 1174.14 151.417 1174.39C151.507 1175.05 153.02 1174.15 152.522 1173.65Z" fill="#FFE1B2"/>
<path d="M149.021 1173.47C148.67 1172.92 147.765 1173.49 148.1 1174.02C148.452 1174.57 149.356 1174 149.021 1173.47Z" fill="#FFE1B2"/>
<path d="M147.547 1171.26C147.293 1170.11 146.002 1171.17 146.811 1171.63C146.847 1171.65 147.59 1171.45 147.547 1171.26Z" fill="#FFE1B2"/>
<path d="M151.232 1172C150.985 1171.87 150.39 1172.52 150.863 1172.73C151.252 1172.9 151.316 1172.04 151.232 1172Z" fill="#FFE1B2"/>
<path d="M173.803 1095.12C173.186 1095.55 173.927 1096.03 174.263 1096.31C197.672 1116.07 188.407 1152.88 159.981 1162.7C190.745 1154.94 198.249 1114.53 173.803 1095.12Z" fill="#BEC9D9"/>
<path d="M159.982 1162.7C188.408 1152.88 197.673 1116.07 174.264 1096.31C173.928 1096.03 173.187 1095.55 173.804 1095.12C147.964 1074.59 108.392 1095.32 111.461 1128.92C113.539 1151.66 137.843 1170.35 159.98 1162.7L159.982 1162.7Z" fill="#E0E5EC"/>
<path d="M174.448 1100.92C163.965 1090.28 144.796 1088.34 132.093 1095.95C100.929 1114.63 116.65 1163.43 153.629 1159.85C182.869 1157.02 194.177 1120.93 174.448 1100.92Z" fill="#D4DEEC"/>
<path d="M175.92 1104.23C146.831 1069.97 97.6508 1112.9 122.325 1144.94C152.246 1183.79 203.988 1137.29 175.92 1104.23Z" fill="#F9F9F9"/>
<path d="M146.274 1094.47C137.024 1096.94 126.5 1103.78 122.331 1112.71C119.529 1118.71 119.047 1131.1 122.143 1137.02C124.663 1141.84 127.637 1145.1 133.191 1142.54C127.219 1137.99 124.961 1130.4 124.539 1123.21C123.877 1111.91 130.877 1104.8 139.828 1098.9C141.928 1097.51 145.022 1097.46 146.274 1094.47Z" fill="#E2E8EC"/>
<path d="M176.656 1110.13C176.191 1109.61 173.431 1107.36 172.974 1108.1C180.057 1123.9 177.293 1147.06 157.682 1151.75C158.661 1154.65 161.373 1154.11 163.574 1153.22C176.942 1147.81 187.485 1122.1 176.656 1110.13Z" fill="white"/>
</svg>
