<svg xmlns="http://www.w3.org/2000/svg" width="1679" height="930" fill="none" viewBox="0 0 1679 930"><path fill="#c6d5c0" d="M61.28 785.66c17.05.48 38.18.85 55.04 1.75q.36 0 .71.03a2192 2192 0 0 1 25.74 1.53c10.1.65 22.41 1.45 39.28 2.6 56.56 3.87 101.16 6.83 115.02 7.75a2591 2591 0 0 1 109.14 9.81c3.1.34 5.7.9 5.73 1.23s-2.51.31-5.6-.03l-11.11-1.2h-.05a2573 2573 0 0 0-96.7-8.52c-14.17-.95-59.85-4-117.78-7.94a8324 8324 0 0 0-42.88-2.81h-.08c-8.6-.54-15.26-.94-21.89-1.29l-.41-.02c-17.06-.9-37.77-1.25-54.3-1.71-3.12-.1-5.68-.43-5.64-.75.05-.33 2.66-.52 5.78-.43m793.1-437.29c5.26-15.5 14.15-35.5 23.4-52.38a395 395 0 0 1 23.82-38.32 648 648 0 0 1 16.37-22.3q2.24-2.9 4.7-5.98a378 378 0 0 1 18.87-21.85c26.65-28.31 47.15-43.41 61.86-53.75q4.58-3.16 8.63-5.79h.02a265 265 0 0 1 31.22-17.56 779 779 0 0 1 32.77-14.74 2449 2449 0 0 1 63.14-25.96l2.98-1.17a690 690 0 0 1 52.82-18.27 644 644 0 0 1 53.84-13.7c4.46-.94 8.94-1.83 13.09-2.62 10.51-2.02 20.01-3.63 28.99-5.1 55.56-8.72 88.22-10.36 108.62-12.36 15.72-1.35 24.59-2.08 30.95-2.63l5.23-.48a471 471 0 0 0 53.97-8.47q6.42-1.4 11.77-2.82a291 291 0 0 1 25.03-5.37l.14-.02 1.08-.18.81-.13.27-.05.12-.02h.02c.5-.1.94-.16 1.03-.17l.36-.06 1.18-.16c.83-.1 2.21-.28 4.46-.52a307 307 0 0 1 6.54-.68c2.3-.2 4.93-.41 8.28-.58 3.07-.16 5.84.04 6.25.36.4.33-1.69.63-4.73.76-3.18.14-5.59.31-7.88.5l-.43.04a292 292 0 0 0-9.39.95 175 175 0 0 0-6 .84 279.92 279.92 0 0 0-26.83 5.63 305 305 0 0 1-13.31 3.17q-5.42 1.16-10.56 2.14a489 489 0 0 1-51.3 6.9c-6.37.53-13.87 1.12-28.46 2.36-19.42 1.9-51.31 3.5-106.49 12.13-9.4 1.53-19.55 3.26-30.2 5.31-4.08.79-8.36 1.65-12.55 2.53a639 639 0 0 0-52.26 13.25 682 682 0 0 0-53.07 18.28l-1.64.64c-18.72 7.2-47.24 19.03-67.92 27.92a767 767 0 0 0-30.19 13.62q-3.37 1.6-6.91 3.4a260 260 0 0 0-23.26 13.46q-4.2 2.69-9.22 6.16c-14.94 10.47-35.68 25.75-62.5 54.34a376 376 0 0 0-23.12 27.38 628 628 0 0 0-17.65 24.18 393 393 0 0 0-22.72 36.88c-9.07 16.63-17.2 35.1-21.9 48.66q-.75 2.1-1.46 4.24c-4.18 12.26-7.76 24.98-9.88 35.33-2.37 12.86-5.17 28.59-6.67 45.7-3.74 45.3-.85 102.87-2.09 144.85l-.05 2.28c-.52 67.13-14.24 116.1-21.49 131.61l-1.46 3.47a185 185 0 0 1-9.28 18.6 145 145 0 0 1-12.82 18.82c-20.27 25.1-44.3 38.18-65.09 45.94q-2.56.95-5.13 1.81l-6.23 2.09h-.03a976 976 0 0 1-43.19 13.45c-24.54 6.94-41.8 10.38-55.25 12.35-4.3.62-8.16 1.1-11.92 1.47-8.04.81-15.11 1.18-22.4 1.25-13.7.13-26.17-.72-38.36-1.89q-1.6-.15-3.21-.32a1118 1118 0 0 1-39.56-4.91c-3.06-.43-5.65-1.06-5.67-1.39s2.54-.24 5.6.18a1141 1141 0 0 0 42.03 5.17 366 366 0 0 0 38.66 1.99c7-.06 13.63-.38 21.5-1.13 3.75-.36 7.74-.82 12.24-1.46 13.63-1.95 31.04-5.4 55.8-12.38 13.3-3.75 27.13-8.1 42.8-13.3l6.8-2.29q2.3-.77 4.6-1.62c20.73-7.66 44.73-20.6 64.97-45.6a143 143 0 0 0 12.88-18.9 183 183 0 0 0 10.52-21.59c7.24-15.42 21.01-64.34 21.52-131.63l.01-.63c.74-44.99-.15-70.09-.29-88.96a585 585 0 0 1 .66-39.99c.38-6.65.82-12.06 1.29-17.2q0-.17.03-.32a429 429 0 0 1 5.93-40.6c2.2-11.66 6.08-25.7 10.11-37.8l.02-.06zm740.63-332.72c3.05.41 5.51 1.06 5.43 1.38s-2.65.19-5.69-.22c-7.3-.99-14.68-1.72-21.96-2.13-3.09-.17-5.51-.5-5.48-.83.05-.33 2.55-.52 5.65-.34 7.32.41 14.73 1.15 22.05 2.14M844.44 358.82c.92-2.94 2.15-5.8 2.69-6.35.54-.56.17 1.39-.77 4.32-.5 1.55-1.31 4.13-2.34 7.6-3.53 12.18-10.23 35.65-13.07 66.03-2.9 31.88-1.14 71.07-.6 111.44.08 6.6.14 12.59.16 18.24-.3 24.2 1.67 43.87-4.74 90.12-7.31 61.12-43.64 125.43-106.45 143.1-45.44 14.66-92.07 30.07-140.7 29.45-48.32-1.12-95.3-11.21-142.87-16.36a2783 2783 0 0 0-109.67-10.83 5665 5665 0 0 0-167.82-10.93c-46.74-2.6-132.41-5.44-152.65-5.24-3.16-.02-5.64-.3-5.61-.62.03-.33 2.56-.58 5.73-.56 20.11-.2 105.52 2.63 152.1 5.21 56 2.8 111.7 6.44 167.53 10.9 36.9 2.95 73.8 6.41 110.55 10.76 47.57 5.04 94.7 14.97 142.7 15.91 48.26.46 94.64-15.05 139.99-29.85 61.99-17.74 97.29-80.77 104.63-141.6 6.26-45.46 5.8-64.31 6.1-88.42-.02-5.66-.07-11.66-.16-18.34-.53-40.8-2.33-80.43.59-112.52 2.69-29 8.89-51.45 12.3-63.5a366 366 0 0 1 2.38-7.96m70.23-129.44c21.4-28.28 57.57-64.45 95.18-87.75a327 327 0 0 1 30.48-17.12c7.4-3.65 14.2-6.9 20.28-9.74a731 731 0 0 1 51.35-21.82l.46-.18c14.38-5.45 28.9-10.83 52.7-18.71 23.97-7.94 57.66-17.73 92.26-24.8l.08-.02a986 986 0 0 1 95.31-14.96c68.07-6.32 116.14-11.55 146.63-19.8a217 217 0 0 1 24.24-4.64c24.2-3.3 50.49-3.01 76.37.84 12.97 1.85 25.82 4.56 38.55 7.14 12.54 1.84 26.28 7.36 38.21-.77 1.16-.97 1.54-1.36 1.45-1.04-.09.3-.7 1.25-1.96 2.37-2.5 2.4-8.01 4.2-13.37 4.05h-1.15c-3.7-.11-6.72-.46-11.1-1.11-6.25-.95-10.81-1.88-14.97-2.68-10.72-3.5-87.1-14.72-114.07-7.3-5.99.86-13.15 2.2-21.84 4.48-29.51 8.41-77.55 14.68-146.97 21.08-25.09 2.6-59.86 6.19-94.37 13.35l-.28.06c-34.31 6.98-68.29 16.8-92.61 24.86a1170 1170 0 0 0-54.74 19.5c-14.45 5.61-27.89 11-49.65 21.15-6.11 2.87-12.91 6.12-20.29 9.75a326 326 0 0 0-30.94 17.42c-37.26 23.22-72.8 58.8-94 86.72-1.93 2.5-3.76 4.49-4.1 4.4-.35-.08.92-2.22 2.86-4.73m-5.36-5.1c33.58-44.3 76.78-82.52 127.27-107.32 40.73-20.03 82.28-37.17 124.96-50.67a801 801 0 0 1 95.8-25.12c34.92-6.92 70.09-11.08 95.24-13.67 67.83-6.29 115.03-11.8 144.93-20.05a215 215 0 0 1 25.73-5c26.73-3.03 34.26-2.08 45.24-1.98l.9.04h.06l1.55.02.49.02.82.04a248.34 248.34 0 0 1 26.15 2.77c3.32.52 6.89 1.11 12.06 2.06 3.09.57 5.33 1.29 4.87 1.53-.44.25-3.36-.05-6.45-.6a440 440 0 0 0-13.66-2.27c-3.55-.52-6.61-.93-10.97-1.38-6.34-.61-11.09-.87-15.37-1.03-11.32-.12-19.97-1.15-47.79 2.29-6.34.9-14.01 2.26-23.32 4.64-29.01 8.02-75.92 13.7-145.08 20.07-25.19 2.59-60.36 6.76-95.19 13.67l-1.23.24a800 800 0 0 0-94.38 24.82c-43.02 14.2-84.06 31.73-124.29 51.71-49.7 24.7-92.34 61.8-127.09 105.49a453 453 0 0 0-29.3 42.52c-24.07 39.95-37.49 73.52-46.47 106.46-1.82 7.23-7.51 26.1-10.74 54.48a353 353 0 0 0-1.88 27.12c-.94 23.97-.23 52.21.25 83.76.1 6.63.16 12.54.2 18.18-.22 24.04 1.01 43.32-4.87 88.59-3.7 25.21-11.3 58.52-29.6 86-17.83 27.9-47.04 45.7-71.58 53.37-4.97 1.64-9.33 3.06-13.58 4.41-24.36 7.77-37.97 11.38-47.84 13.87a489 489 0 0 1-23.44 5.23c-42.29 8.34-72.24 5.77-122.04-.86-3.1-.4-5.85-1.04-6.05-1.4s2.26-.3 5.37.11c49.89 6.64 80.05 9.42 122.76.93a449 449 0 0 0 23.78-5.33c9.68-2.45 23.14-6.02 47.36-13.75 4.14-1.33 8.44-2.72 13.3-4.33 24.34-7.6 53.24-25.2 70.94-52.84 18.14-27.22 25.75-60.35 29.43-85.45 5.83-44.68 4.64-63.58 4.88-87.5-.03-5.64-.1-11.6-.19-18.26-.47-31.6-1.2-59.89-.3-83.96.35-9.5.93-18.44 1.76-26.43l.07-.7c3.26-29.08 8.7-46.8 10.19-53.07 9.07-34.25 23.16-69.39 47.59-109.76a454 454 0 0 1 28.75-41.7M329 786.71c3.17.26 5.88.75 6.07 1.1.2.34-2.2.4-5.36.15a3862 3862 0 0 0-37.99-2.89c-17.33-1.22-25.7-1.76-38.25-2.65-32.39-2.26-63.66-4.1-91.84-5.52-46.8-2.38-85.04-3.55-105.22-4.08-3.2-.09-5.73-.42-5.7-.74.05-.33 2.64-.53 5.85-.44 20.04.53 58 1.69 104.64 4.06a4820 4820 0 0 1 92.2 5.53c12.17.86 20.08 1.37 37.03 2.56 9.34.67 21.49 1.55 38.57 2.92"/><path fill="#d4deec" d="M753.16 495.43c-8 57.9-11.2 116.6-23.06 173.89-.35.36-6.33-1.45-6.5-1.74-1.13-1.85 8.47-37.36 7.7-42.75 7.25-43.84 12.87-87.94 17.85-132.1 2.14-3.21 4.85-.79 4 2.7M710.45 507.5c4.57 47.12 5.08 95.72 7.98 143.08.16 2.6 2.55 17.01 2.16 17.8-.08.16-3.07 2.95-3.15 1.33.4-.84-.74-3.54-.9-4.69-2.34-17.88-2.98-37.3-4.01-55.4-2.15-37.33-3.33-75.2-5.08-112.3 3.15-2.24 2.82 8.36 3 10.17"/><path fill="#e3e5e7" d="M750.98 664.14c-.4 5.36-1.64 13.89-1.79 20.36-1.7 4.78-3.15-4.42-3.1-5.1.02-.3 1.26-1.1 1.29-1.4.62-7.41 1.72-14.82 2.2-22.24 2.6-1.17 1.48 7.09 1.4 8.39"/><path fill="#e0e5ec" d="M749.93 656.7c-.48 7.41-1.59 14.83-2.2 22.22-.03.32-1.27 1.1-1.3 1.42-.05.67 1.4 9.88 3.11 5.09-.03 1.34.23 3.21.21 4.72-.06 6.1-.28 8.52.67 14.84q.22 1.51.48 3.02c.18 1 .26 2.04.47 3.02.75 3.49 1.98 6.88 2.84 10.35-3.14-.06-10.39 1.98-13.02 3.63.3-6.14-5.7-11.34-11.08-13.36-2.74-1.03-4.23-1.94-6.74.3-1.52 1.36-4.6 6.62-3.33 8.6-2.09-1.25-9.11-3.43-11.65-3.52.46-.38-.08-1.29-.06-1.35.44-1.51 1.05-2.45 1.49-4.46.2-.95.43-1.74.55-2.73.7-5.68.65-10.66 1.61-16.63.83-5.13 3.94-12.44 3.96-17.08 1.52-1.01.97-1.73.88-3.08.25-.37.8-.7.96-1.06.09 1.62 3.08-1.17 3.15-1.32.4-.8-2-15.23-2.15-17.8-2.9-47.36-3.42-95.96-8-143.08 1.25.1 1.88 3.55 2.07 4.46 7.76 37.3 11.08 75.63 18.78 112.86.77 5.4-8.84 40.9-7.7 42.76.17.28 6.15 2.1 6.5 1.73 11.87-57.29 15.08-115.99 23.07-173.88l1.43-1.92c-1.9 53.97-1.5 108.32-5 162.25"/><path fill="#f9f9f9" d="M736.94 694.62c.34 3.99-6.07 7.07-9.52 6.18-3.99-1.04-1.85-2.65-2.17-3.28-.62-1.23-4.07-4.51-.57-5.04.52.2 8.2 6.82 7.58 3.37-3.7-3.46 2.26-.96 4.67-1.23zM732.18 686.4c1.16.78 5.2 5.85 3.7 6.92-.52.37-11.97-2.63-12.31-3.16-1.58-2.44 4.38-6.63 8.61-3.77"/><path fill="#9ebb8e" d="m698.35 874.34 13.98-8.23 4.86-4.61-1.89-.76c10.36-12.38 6.64-28.95 6.82-43.57.21-17.39.13-34.84.51-52.22.13-5.88 2.8-32.39 1.77-35.56-2-6.17-20.77-12.75-24.97-6.98-3.71 17.91-8.61 41.8-20.79 56.02-4.28 4.99-10.73 9.4-15.06 14.36-4.04 4.63-6.68 9.56-8.77 15.26-5.44-2.6 1.79-7.88 1.82-11.9 6.05-8.62 13.91-13.06 20.19-20.68 5.69-6.92 11.57-20.14 14.58-28.7 1.43-4.07 5.48-24.9 6.26-25.97 1.85-2.54 7.53-3.8 10.48-3.68 2.54.08 9.56 2.27 11.65 3.52 1.41.85 4.93 3.42 5.78 4.64 1.62 2.3-1.12 49.06-1.18 56.14-.23 30.18 11.51 83.16-26.04 92.92"/><path fill="#9ebb8e" d="M654.8 808.05c-16.24 44.17 33.47 84.98 60.5 52.68l1.9.76-4.87 4.62-13.98 8.23c-40.48 10.52-63.88-46.63-41.72-78.2-.04 4.02-7.27 9.3-1.83 11.9M722.12 817.17l-4.4-.14c-3.03-31.4-32.61-43.54-52.88-18.56-.48-2.87 3.48-2.48-1.27-5.69 4.34-4.97 10.79-9.37 15.06-14.36 12.18-14.2 17.08-38.1 20.79-56.02 4.2-5.77 22.97.82 24.98 6.98 1.03 3.18-1.65 29.69-1.77 35.56-.38 17.4-.3 34.84-.51 52.23"/><path fill="#9ebb8e" d="M715.3 860.73c-27.02 32.3-76.74-8.5-60.5-52.68 2.1-5.7 4.74-10.63 8.77-15.26 4.75 3.2.8 2.8 1.27 5.68-4.25 5.25-6.15 10.47-7.68 16.9-11.1 46.75 47.35 73.88 58.96 26.07a75 75 0 0 0 1.6-24.4l4.4.13c-.18 14.62 3.54 31.19-6.82 43.56"/><path fill="#9ebb8e" d="M717.72 817.04c.77 7.96.29 16.62-1.6 24.4l-1.86-.09c1.48-3.06.88-6.36.76-9.32-.65-17.43-1.15-39.98-23.7-42.35-16.04-1.69-27.35 12.77-30.72 26.9-1.07-1.74-1.52-1.3-3.44-1.2 1.53-6.43 3.43-11.65 7.69-16.9 20.26-24.98 49.84-12.85 52.88 18.56"/><path fill="#9ebb8e" d="M716.12 841.44c-11.6 47.81-70.06 20.69-58.96-26.06 1.92-.1 2.37-.55 3.43 1.2-10.84 45.4 49.48 68.72 54.43 15.44.11 2.98.72 6.27-.76 9.33zM800.12 793.38c2.45 5.66 6.1 10.67 7.68 16.71.78 2.93 2.43 7.1-1.16 8-1.43-10.17-6.56-19.64-13.07-27.47-14.3-17.19-19.05-20.32-27.08-42.2-1.29-3.5-5.38-20.62-6.4-22-3.06-4.2-10.53-1.86-14.53-.02-4.56 2.09-7.81 3.6-8.72 8.84-1.33 7.7 1.6 26.52 1.61 35.74.02 14.09-1.12 28.1-1.64 42.15l-1.76-1.61c1.4-26.28 1.79-52.6-.36-78.89.53-3.54 3.4-5.75 6.25-7.54 2.63-1.66 9.88-3.69 13.01-3.63 11.1.18 8.8 9.92 11.82 18.55 9.78 27.84 17.77 31.56 34.35 53.36"/><path fill="#9ebb8e" d="m735.05 811.52 1.76 1.61c-.03.76-.2 1.62-.23 2.38-.3 8.02-1.86 18.04-.7 25.88 7.32 48.84 78.55 31.9 70.76-23.3 3.58-.9 1.93-5.07 1.16-8-1.6-6.04-5.22-11.04-7.68-16.71 36.1 47.48-25 109.98-59.33 66.71-12.04-15.18-6.65-31.6-5.74-48.57"/><path fill="#9ebb8e" d="m793.58 790.63-3.1 2.67 2.38 3.78c-19.9-23.4-47.31-10.4-51.56 18.2l-4.72.22c.03-.75.2-1.62.23-2.37.53-14.06 1.67-28.06 1.64-42.15 0-9.21-2.94-28.04-1.61-35.74.9-5.24 4.16-6.75 8.72-8.84 4-1.83 11.48-4.17 14.53.02 1.02 1.38 5.11 18.5 6.4 22 8.03 21.88 12.79 25.01 27.08 42.2z"/><path fill="#9ebb8e" d="M806.64 818.09c7.8 55.21-63.44 72.13-70.75 23.3-1.17-7.84.38-17.85.7-25.88l4.71-.21c-.6 4.07-.23 8.74-.1 12.84.57 16.66 3.62 28.72 21.03 35.38 29.75 11.36 46.77-28.99 37.63-53.57-1.92-5.15-3.3-8.5-7-12.86l-2.37-3.78 3.09-2.67c6.5 7.82 11.63 17.3 13.06 27.46z"/><path fill="#9ebb8e" d="M792.85 797.08c3.7 4.36 5.09 7.72 7 12.86-1.14-.45-1.17 1.76-2.49.96-.5-.3-4.14-9.4-5.2-10.57-4.61-4.67-11.23-12.72-18.55-10.49-21.15-3.35-29.28 18.2-29.83 35.48-1.6-1.27.21 2.2-2.57 2.82-.14-4.1-.51-8.77.1-12.84 4.24-28.6 31.65-41.61 51.55-18.21"/><path fill="#9ebb8e" d="M799.85 809.94c9.15 24.58-7.87 64.94-37.62 53.57-17.42-6.65-20.46-18.71-21.03-35.37 2.79-.62.97-4.1 2.58-2.82-.52 16.57 6.07 34.9 25.46 36.18 36.17 2.42 40.26-65.96 4.36-71.66 7.33-2.23 13.94 5.82 18.55 10.48 1.07 1.17 4.7 10.27 5.21 10.58 1.32.8 1.35-1.42 2.49-.96"/></svg>