<svg width="456" height="458" viewBox="0 0 456 458" fill="none" xmlns="http://www.w3.org/2000/svg">
<path d="M248.657 23.5674C240.667 81.4622 237.463 140.159 225.595 197.451C225.255 197.814 219.272 196.006 219.101 195.717C217.967 193.866 227.569 158.358 226.803 152.963C234.052 109.123 239.67 65.0234 244.651 20.8738C246.788 17.6527 249.499 20.0761 248.657 23.5674Z" fill="#D4DEEC"/>
<path d="M205.946 35.6337C210.519 82.754 211.03 131.354 213.929 178.716C214.087 181.306 216.484 195.728 216.085 196.524C216.008 196.676 213.019 199.463 212.937 197.847C213.348 197.009 212.198 194.302 212.049 193.156C209.695 175.274 209.063 155.847 208.028 137.753C205.883 100.424 204.704 62.5519 202.954 25.4601C206.098 23.2119 205.771 33.8178 205.95 35.6289L205.946 35.6337Z" fill="#D4DEEC"/>
<path d="M246.477 192.276C246.089 197.635 244.836 206.163 244.693 212.631C242.983 217.412 241.54 208.21 241.588 207.536C241.611 207.23 242.848 206.438 242.876 206.127C243.5 198.724 244.6 191.315 245.08 183.896C247.679 182.727 246.561 190.981 246.472 192.281L246.477 192.276Z" fill="#E3E5E7"/>
<path d="M245.427 184.829C244.947 192.248 243.842 199.663 243.223 207.06C243.195 207.372 241.958 208.164 241.935 208.47C241.882 209.148 243.326 218.35 245.04 213.565C245.007 214.9 245.268 216.777 245.253 218.286C245.186 224.381 244.971 226.807 245.923 233.124C246.075 234.131 246.214 235.143 246.398 236.144C246.582 237.145 246.661 238.183 246.872 239.164C247.618 242.653 248.849 246.046 249.705 249.512C246.573 249.459 239.324 251.49 236.69 253.141C236.987 247.008 230.989 241.803 225.612 239.787C222.866 238.758 221.381 237.844 218.867 240.091C217.354 241.447 214.263 246.701 215.538 248.69C213.45 247.437 206.43 245.25 203.89 245.161C204.345 244.789 203.813 243.878 203.829 243.812C204.27 242.302 204.885 241.367 205.317 239.352C205.519 238.403 205.747 237.61 205.869 236.624C206.566 230.945 206.522 225.961 207.483 219.993C208.307 214.864 211.421 207.557 211.443 202.918C212.957 201.901 212.411 201.189 212.317 199.837C212.574 199.46 213.114 199.13 213.283 198.78C213.366 200.396 216.355 197.609 216.432 197.457C216.83 196.652 214.434 182.23 214.275 179.65C211.372 132.292 210.861 83.6921 206.289 36.5718C207.534 36.6822 208.157 40.1212 208.347 41.0384C216.109 78.3353 219.429 116.666 227.129 153.897C227.905 159.291 218.293 194.799 219.427 196.651C219.602 196.934 225.581 198.747 225.921 198.385C237.803 141.097 241.007 82.3996 248.997 24.5048L250.433 22.5837C248.539 76.5601 248.925 130.91 245.431 184.834L245.427 184.829Z" fill="#E0E5EC"/>
<path d="M232.442 222.759C232.78 226.743 226.374 229.828 222.922 228.934C218.935 227.896 221.066 226.282 220.746 225.653C220.126 224.422 216.682 221.142 220.18 220.609C220.704 220.822 228.385 227.432 227.762 223.984C224.069 220.522 230.019 223.026 232.433 222.759L232.442 222.759Z" fill="#F9F9F9"/>
<path d="M227.679 214.528C228.844 215.317 232.873 220.38 231.371 221.452C230.856 221.823 219.412 218.826 219.068 218.291C217.486 215.854 223.448 211.664 227.684 214.523L227.679 214.528Z" fill="#F9F9F9"/>
<path d="M193.846 402.477L207.834 394.244L212.694 389.631L210.803 388.87C221.164 376.491 217.444 359.921 217.621 345.308C217.831 327.917 217.755 310.469 218.132 293.079C218.264 287.204 220.937 260.698 219.904 257.523C217.895 251.355 199.128 244.778 194.926 250.541C191.217 268.456 186.316 292.35 174.14 306.561C169.862 311.554 163.413 315.956 159.078 320.924C155.043 325.555 152.405 330.489 150.306 336.189C144.865 333.583 152.098 328.304 152.134 324.279C158.183 315.66 166.042 311.227 172.317 303.602C178.008 296.684 183.887 283.461 186.902 274.896C188.33 270.832 192.379 250.013 193.163 248.931C195.007 246.399 200.69 245.143 203.639 245.25C206.18 245.339 213.199 247.526 215.288 248.779C216.701 249.627 220.215 252.199 221.07 253.415C222.693 255.712 219.945 302.478 219.89 309.558C219.661 339.731 231.4 392.716 193.846 402.477Z" fill="#9EBB8E"/>
<path d="M150.301 336.181C134.058 380.353 183.77 421.162 210.802 388.866L212.693 389.628L207.833 394.24L193.846 402.473C153.368 413 129.965 355.843 152.128 324.271C152.092 328.296 144.86 333.575 150.301 336.181Z" fill="#9EBB8E"/>
<path d="M217.62 345.308L213.221 345.169C210.186 313.769 180.609 301.621 160.343 326.607C159.861 323.731 163.818 324.122 159.072 320.92C163.412 315.947 169.856 311.55 174.134 306.556C186.31 292.346 191.211 268.452 194.919 250.537C199.126 244.769 217.893 251.355 219.898 257.518C220.935 260.698 218.254 287.204 218.125 293.075C217.745 310.469 217.824 327.912 217.615 345.304L217.62 345.308Z" fill="#9EBB8E"/>
<path d="M210.803 388.869C183.775 421.169 134.058 380.356 150.301 336.184C152.399 330.484 155.037 325.55 159.073 320.919C163.819 324.121 159.862 323.731 160.343 326.607C156.086 331.858 154.192 337.073 152.659 343.512C141.551 390.257 200.014 417.385 211.62 369.571C213.509 361.792 213.993 353.137 213.221 345.169L217.62 345.308C217.443 359.92 221.163 376.491 210.803 388.869Z" fill="#9EBB8E"/>
<path d="M213.221 345.17C213.993 353.139 213.509 361.794 211.62 369.572L209.76 369.485C211.238 366.423 210.635 363.127 210.519 360.16C209.871 342.738 209.366 320.186 186.813 317.811C170.785 316.128 159.468 330.582 156.097 344.714C155.033 342.971 154.581 343.417 152.664 343.518C154.193 337.084 156.091 331.864 160.348 326.612C180.61 301.631 210.187 313.77 213.226 345.174L213.221 345.17Z" fill="#9EBB8E"/>
<path d="M211.621 369.571C200.019 417.389 141.556 390.261 152.66 343.511C154.576 343.411 155.028 342.965 156.093 344.708C145.253 390.113 205.567 413.44 210.52 360.159C210.631 363.13 211.238 366.422 209.761 369.483L211.621 369.571Z" fill="#9EBB8E"/>
<path d="M295.619 321.509C298.074 327.18 301.712 332.186 303.3 338.225C304.075 341.157 305.726 345.322 302.138 346.216C300.707 336.06 295.575 326.58 289.07 318.759C274.777 301.565 270.016 298.438 261.991 276.563C260.703 273.057 256.606 255.938 255.59 254.549C252.535 250.359 245.059 252.697 241.063 254.53C236.496 256.62 233.246 258.133 232.339 263.372C231.006 271.065 233.94 289.893 233.954 299.118C233.975 313.203 232.835 327.211 232.312 341.261L230.55 339.651C231.95 313.373 232.339 287.049 230.194 260.765C230.719 257.224 233.582 255.011 236.44 253.22C239.073 251.569 246.323 249.538 249.455 249.591C260.559 249.779 258.245 259.517 261.273 268.147C271.048 295.979 279.044 299.706 295.615 321.505L295.619 321.509Z" fill="#9EBB8E"/>
<path d="M230.547 339.657L232.31 341.267C232.284 342.023 232.105 342.887 232.079 343.643C231.775 351.665 230.219 361.687 231.387 369.522C238.704 418.361 309.93 401.432 302.14 346.218C305.723 345.32 304.073 341.154 303.301 338.226C301.709 332.183 298.076 327.182 295.621 321.511C331.716 368.994 270.613 431.496 236.287 388.224C224.247 373.044 229.638 356.622 230.547 339.657Z" fill="#9EBB8E"/>
<path d="M289.075 318.765L285.988 321.436L288.357 325.213C268.455 301.815 241.047 314.82 236.803 343.424L232.082 343.638C232.108 342.882 232.286 342.017 232.312 341.262C232.839 327.207 233.975 313.204 233.954 299.119C233.941 289.903 231.011 271.071 232.339 263.373C233.246 258.134 236.497 256.621 241.063 254.531C245.064 252.702 252.536 250.36 255.59 254.55C256.606 255.94 260.703 273.058 261.991 276.564C270.016 298.439 274.777 301.566 289.07 318.76L289.075 318.765Z" fill="#9EBB8E"/>
<path d="M302.142 346.22C309.932 401.435 238.702 418.359 231.39 369.525C230.217 361.686 231.773 351.672 232.082 343.645L236.803 343.432C236.2 347.505 236.568 352.173 236.707 356.277C237.27 372.939 240.32 384.999 257.733 391.651C287.484 403.018 304.505 362.667 295.359 338.083C293.441 332.939 292.063 329.581 288.357 325.221L285.988 321.444L289.075 318.773C295.58 326.593 300.712 336.073 302.143 346.229L302.142 346.22Z" fill="#9EBB8E"/>
<path d="M288.352 325.216C292.058 329.575 293.437 332.934 295.354 338.078C294.213 337.621 294.179 339.839 292.865 339.038C292.361 338.727 288.723 329.629 287.656 328.46C283.048 323.798 276.435 315.746 269.107 317.98C247.958 314.621 239.826 336.175 239.283 353.457C237.675 352.182 239.494 355.66 236.707 356.277C236.568 352.172 236.2 347.504 236.803 343.431C241.047 314.827 268.455 301.822 288.357 325.22L288.352 325.216Z" fill="#9EBB8E"/>
<path d="M295.354 338.078C304.505 362.657 287.479 403.013 257.729 391.646C240.31 384.989 237.266 372.934 236.703 356.272C239.49 355.655 237.671 352.178 239.279 353.452C238.76 370.029 245.346 388.349 264.735 389.64C300.908 392.056 304.999 323.672 269.103 317.975C276.431 315.742 283.044 323.794 287.652 328.455C288.719 329.624 292.356 338.723 292.861 339.033C294.18 339.839 294.209 337.616 295.35 338.074L295.354 338.078Z" fill="#9EBB8E"/>
</svg>
