<svg width="1679" height="930" viewBox="0 0 1679 930" fill="none" xmlns="http://www.w3.org/2000/svg">
<path d="M61.2811 785.658C78.3282 786.135 99.4555 786.513 116.323 787.406C116.56 787.418 116.796 787.43 117.033 787.443C123.973 787.809 130.928 788.227 139.454 788.763C140.53 788.831 141.636 788.901 142.766 788.973C152.874 789.618 165.184 790.422 182.054 791.575C238.612 795.439 283.207 798.396 297.072 799.324C324.911 801.214 354.538 803.691 394.858 807.91C398.534 808.298 402.364 808.711 406.207 809.132C409.308 809.471 411.911 810.028 411.944 810.36C411.983 810.693 409.428 810.673 406.331 810.333C402.568 809.921 398.837 809.52 395.23 809.139C395.214 809.137 395.198 809.135 395.182 809.133C354.627 804.886 325.652 802.47 298.479 800.614C284.311 799.661 238.634 796.617 180.7 792.674C163.662 791.514 151.178 790.704 141.041 790.061C139.936 789.991 138.861 789.923 137.817 789.858C137.792 789.856 137.768 789.854 137.743 789.853C129.143 789.316 122.483 788.918 115.855 788.57C115.715 788.563 115.575 788.556 115.435 788.549C98.3807 787.65 77.6671 787.298 61.1363 786.835C58.0171 786.746 55.464 786.414 55.5022 786.089C55.5475 785.764 58.1603 785.569 61.2811 785.658ZM854.389 348.371C859.637 332.876 868.531 312.863 877.789 295.994C887.024 278.958 896.825 264.375 901.598 257.667C906.255 251.097 911.446 243.819 917.972 235.366C919.465 233.434 921.03 231.44 922.671 229.391C928.092 222.623 934.319 215.27 941.544 207.535C968.187 179.228 988.689 164.128 1003.4 153.785C1006.45 151.675 1009.33 149.751 1012.03 148C1012.04 147.997 1012.04 147.994 1012.05 147.991C1022.28 141.375 1030.23 136.916 1037.68 133.169C1039.58 132.219 1041.44 131.312 1043.27 130.44C1054.62 125.047 1064.23 120.692 1076.04 115.698C1094.83 107.685 1121.62 96.5629 1139.18 89.7411C1140.13 89.365 1141.16 88.9641 1142.16 88.5714C1154.99 83.6114 1170.75 77.6438 1194.98 70.2985C1215.1 64.2394 1232.89 59.9524 1248.82 56.6021C1253.28 55.6649 1257.76 54.7719 1261.91 53.9765C1272.42 51.9646 1281.92 50.3526 1290.9 48.883C1346.46 40.1597 1379.12 38.5177 1399.52 36.518C1415.24 35.1719 1424.11 34.4411 1430.47 33.8869C1432.39 33.7189 1434.1 33.565 1435.7 33.4051C1449.98 31.969 1463.09 30.1765 1478.79 27.1799C1482.27 26.51 1485.89 25.7717 1489.67 24.9445C1493.96 24.0051 1497.86 23.0563 1501.44 22.1185C1508.06 20.3907 1513.51 19.1986 1518.1 18.2791C1521.22 17.6588 1523.93 17.1712 1526.47 16.7503C1526.52 16.7422 1526.57 16.7341 1526.61 16.7261C1526.98 16.6666 1527.34 16.609 1527.69 16.5524C1527.96 16.5096 1528.23 16.4663 1528.5 16.4247C1528.6 16.4043 1528.7 16.3874 1528.77 16.3744C1528.82 16.3641 1528.87 16.3562 1528.89 16.3511C1528.9 16.3499 1528.9 16.3487 1528.91 16.3475C1529.41 16.2556 1529.85 16.1892 1529.94 16.1755C1530.1 16.1516 1530.23 16.1321 1530.3 16.1219C1530.68 16.0678 1531.16 16.0036 1531.48 15.9623C1532.31 15.8556 1533.69 15.6787 1535.94 15.4369C1537.89 15.2182 1539.74 15.0171 1542.04 14.803C1542.18 14.7892 1542.33 14.7756 1542.48 14.7621C1544.78 14.5552 1547.41 14.3474 1550.76 14.1776C1553.83 14.0211 1556.6 14.2232 1557.01 14.5428C1557.41 14.8652 1555.32 15.1658 1552.28 15.2987C1549.1 15.4399 1546.69 15.6121 1544.4 15.7985C1544.26 15.8105 1544.12 15.8227 1543.97 15.835C1541.57 16.038 1539.42 16.2536 1537 16.5148C1536.19 16.6021 1535.36 16.6954 1534.58 16.7861C1533.2 16.9543 1531.64 17.164 1529.75 17.4474C1529.37 17.5043 1528.98 17.5633 1528.58 17.6258C1525.97 18.0333 1523.1 18.5264 1519.72 19.1766C1514.67 20.153 1508.81 21.4154 1501.75 23.2602C1497.7 24.3234 1493.29 25.3868 1488.44 26.4308C1484.82 27.2088 1481.31 27.9148 1477.88 28.5659C1462.08 31.5485 1447.96 33.4565 1432.78 34.922C1430.71 35.1201 1428.71 35.2922 1426.58 35.4708C1420.21 35.9992 1412.71 36.5881 1398.12 37.8336C1378.7 39.7359 1346.81 41.3386 1291.63 49.9624C1282.23 51.4929 1272.08 53.2209 1261.43 55.2718C1257.35 56.0563 1253.07 56.9179 1248.88 57.7994C1233.21 61.0991 1216.03 65.2419 1196.62 71.05C1172.99 78.1665 1157.52 83.9634 1144.88 88.8179C1144.43 88.989 1143.99 89.1607 1143.55 89.333C1143 89.5466 1142.45 89.7597 1141.91 89.9716C1123.19 97.1782 1094.67 109.003 1073.99 117.887C1063.13 122.516 1054.39 126.479 1043.8 131.509C1041.55 132.577 1039.26 133.702 1036.89 134.901C1030.45 138.189 1023.66 141.953 1013.63 148.374C1010.83 150.178 1007.76 152.21 1004.41 154.526C989.469 164.999 968.728 180.281 941.915 208.874C934.956 216.355 929.014 223.368 923.637 230.076C921.967 232.161 920.35 234.219 918.786 236.246C912.245 244.721 906.471 252.805 901.141 260.426C896.769 266.647 887.347 280.772 878.423 297.31C869.35 313.943 861.227 332.411 856.519 345.97C856.025 347.377 855.535 348.795 855.056 350.208C850.878 362.471 847.303 375.185 845.175 385.543C842.809 398.397 840.009 414.128 838.513 431.236C834.768 476.531 837.659 534.106 836.423 576.086C836.407 576.848 836.39 577.61 836.372 578.372C835.852 645.496 822.128 694.469 814.885 709.981C814.582 710.718 814.305 711.382 814.049 711.986C813.819 712.527 813.61 713.016 813.424 713.445C810.626 719.877 807.879 725.434 804.665 731.125C804.489 731.435 804.313 731.744 804.135 732.053C800.688 738.027 796.717 744.152 791.318 750.874C771.055 775.975 747.018 789.051 726.23 796.806C724.522 797.439 722.81 798.045 721.095 798.623C718.96 799.343 716.888 800.037 714.874 800.708C714.864 800.712 714.853 800.715 714.843 800.719C699.16 805.942 685.136 810.358 671.654 814.165C647.107 821.098 629.85 824.544 616.396 826.507C612.099 827.132 608.235 827.602 604.482 827.983C596.44 828.793 589.37 829.161 582.085 829.235C568.372 829.356 555.908 828.509 543.721 827.344C542.637 827.24 541.585 827.135 540.508 827.025C527.387 825.683 514.469 823.978 500.95 822.109C497.888 821.684 495.297 821.055 495.276 820.722C495.256 820.39 497.816 820.48 500.88 820.905C513.972 822.716 526.586 824.387 539.68 825.748C540.761 825.86 541.84 825.968 542.914 826.073C555.003 827.248 567.688 828.156 581.574 828.058C588.573 827.997 595.204 827.681 603.07 826.932C606.824 826.569 610.812 826.105 615.313 825.466C628.944 823.522 646.348 820.075 671.108 813.09C684.406 809.34 698.24 804.995 713.906 799.785C716.102 799.054 718.37 798.293 720.719 797.501C722.251 796.984 723.781 796.446 725.308 795.884C746.042 788.219 770.04 775.281 790.282 750.274C795.35 743.979 799.132 738.255 802.583 732.364C802.776 732.034 802.968 731.704 803.158 731.372C806.354 725.796 809.283 719.979 812.226 713.234C812.619 712.332 813.117 711.172 813.685 709.792C820.922 694.372 834.692 645.449 835.195 578.157C835.2 577.949 835.205 577.741 835.21 577.532C835.954 532.545 835.058 507.442 834.921 488.566C834.705 473.689 834.932 462.502 835.335 453.534C835.412 451.803 835.496 450.135 835.583 448.58C835.958 441.93 836.401 436.516 836.87 431.372C836.879 431.268 836.889 431.164 836.898 431.061C838.422 415.416 840.278 404.093 842.829 390.458C845.035 378.797 848.907 364.755 852.943 352.656C852.95 352.638 852.956 352.62 852.962 352.601C853.442 351.152 853.919 349.74 854.389 348.371ZM1595.01 15.6531C1598.06 16.0643 1600.52 16.7116 1600.44 17.0281C1600.36 17.3472 1597.79 17.218 1594.75 16.8092C1587.45 15.8249 1580.07 15.0922 1572.79 14.6841C1569.7 14.5098 1567.28 14.1718 1567.31 13.8454C1567.36 13.5217 1569.86 13.3341 1572.96 13.5109C1580.28 13.9236 1587.69 14.6627 1595.01 15.6531ZM844.444 358.821C845.363 355.88 846.592 353.026 847.13 352.467C847.669 351.913 847.297 353.858 846.357 356.794C845.864 358.336 845.05 360.919 844.02 364.399C840.492 376.574 833.786 400.043 830.954 430.415C828.057 462.305 829.807 501.495 830.348 541.856C830.435 548.465 830.491 554.445 830.512 560.097C830.218 584.308 832.18 603.967 825.774 650.224C818.457 711.344 782.133 775.647 719.32 793.317C673.882 807.982 627.253 823.395 578.611 822.773C530.296 821.645 483.312 811.557 435.751 806.406C399.309 802.016 362.702 798.527 326.076 795.581C270.158 791.11 214.346 787.46 158.264 784.646C111.516 782.048 25.8482 779.208 5.61372 779.406C2.44549 779.386 -0.0299542 779.115 0.000298831 778.788C0.0342205 778.463 2.56259 778.205 5.73332 778.225C25.8409 778.03 111.251 780.857 157.836 783.44C213.827 786.245 269.527 789.881 325.363 794.335C362.26 797.295 399.158 800.754 435.911 805.098C483.475 810.145 530.617 820.072 578.612 821.013C626.868 821.467 673.251 805.964 718.6 791.163C780.587 773.425 815.889 710.388 823.231 649.568C829.495 604.102 829.024 585.247 829.33 561.144C829.313 555.48 829.26 549.477 829.174 542.804C828.639 502.003 826.839 462.372 829.756 430.284C832.45 401.283 838.65 378.833 842.055 366.785C843.088 363.201 843.924 360.483 844.444 358.821ZM914.669 229.384C936.062 201.104 972.24 164.931 1009.85 141.628C1020.26 135.031 1030.57 129.314 1040.33 124.512C1047.73 120.865 1054.53 117.613 1060.61 114.768C1083.2 104.222 1097.37 98.5745 1111.96 92.9468C1112.11 92.8877 1112.27 92.8288 1112.42 92.7699C1126.8 87.3215 1141.32 81.9379 1165.12 74.0597C1189.09 66.1235 1222.78 56.3256 1257.38 49.2522C1257.4 49.2467 1257.43 49.2413 1257.46 49.2358C1291.79 42.0637 1327.17 36.9092 1352.77 34.278C1420.84 27.9627 1468.91 22.7336 1499.4 14.4877C1509 12.0863 1517.05 10.7217 1523.64 9.84345C1547.84 6.54721 1574.13 6.82758 1600.01 10.6768C1612.98 12.5333 1625.83 15.2407 1638.56 17.8172C1651.1 19.6572 1664.84 25.1813 1676.77 17.0548C1677.93 16.076 1678.31 15.6916 1678.22 16.0073C1678.13 16.3034 1677.52 17.2629 1676.26 18.3753C1673.76 20.7724 1668.25 22.5778 1662.89 22.4337C1662.49 22.4345 1662.12 22.4295 1661.74 22.4207C1658.04 22.3158 1655.02 21.967 1650.64 21.3161C1644.39 20.3713 1639.83 19.4426 1635.67 18.6407C1624.95 15.132 1548.57 3.91515 1521.6 11.341C1515.61 12.2024 1508.45 13.5349 1499.76 15.8219C1470.25 24.2343 1422.21 30.5022 1352.79 36.9044C1327.7 39.495 1292.93 43.0858 1258.42 50.2469C1258.33 50.2664 1258.23 50.2858 1258.14 50.3053C1223.83 57.29 1189.85 67.1119 1165.53 75.1721C1140.92 83.3134 1125.69 88.9957 1111.22 94.513C1111.07 94.5671 1110.93 94.6213 1110.79 94.6756C1096.34 100.284 1082.9 105.667 1061.14 115.822C1055.03 118.685 1048.23 121.938 1040.85 125.571C1030.92 130.463 1020.44 136.284 1009.91 142.994C972.652 166.21 937.111 201.784 915.912 229.71C913.976 232.208 912.152 234.198 911.806 234.114C911.463 234.028 912.732 231.891 914.669 229.384ZM909.312 224.283C942.891 179.98 986.092 141.759 1036.58 116.962C1077.31 96.9276 1118.86 79.7889 1161.54 66.2891C1186.01 58.1461 1220.8 48.3139 1256.14 41.4084C1256.54 41.3295 1256.94 41.251 1257.34 41.1729C1292.26 34.2504 1327.43 30.0867 1352.58 27.4992C1420.41 21.2134 1467.61 15.7027 1497.51 7.45392C1507.71 4.83917 1516.31 3.36413 1523.24 2.45815C1549.97 -0.584848 1557.5 0.37011 1568.48 0.472113C1568.78 0.482796 1569.08 0.493976 1569.38 0.505643C1569.4 0.505413 1569.42 0.505182 1569.44 0.504955C1569.81 0.503909 1570.13 0.507938 1570.29 0.510781C1570.62 0.516571 1570.89 0.525338 1570.99 0.528613C1571.22 0.536182 1571.41 0.544797 1571.48 0.547717C1571.77 0.559714 1572.08 0.574893 1572.3 0.586002C1574.3 0.676993 1580.39 1.08357 1585.21 1.60482C1590.17 2.13014 1593.64 2.61984 1597.34 3.18264C1597.71 3.23968 1598.08 3.29718 1598.45 3.35515C1601.77 3.87706 1605.34 4.4731 1610.51 5.42367C1613.6 5.99345 1615.84 6.70893 1615.38 6.95295C1614.94 7.20251 1612.02 6.90318 1608.93 6.34316C1603.5 5.36347 1599.67 4.74774 1596.38 4.24757C1596.01 4.19177 1595.64 4.13646 1595.27 4.08164C1591.72 3.56324 1588.66 3.15298 1584.3 2.70299C1577.96 2.08758 1573.21 1.83207 1568.93 1.67243C1557.61 1.55172 1548.96 0.515453 1521.14 3.95694C1514.8 4.85179 1507.13 6.21722 1497.82 8.59826C1468.81 16.6178 1421.9 22.3032 1352.74 28.6702C1327.55 31.26 1292.38 35.4277 1257.55 42.3361C1257.14 42.4167 1256.73 42.4978 1256.32 42.5793C1221.01 49.4814 1186.32 59.2883 1161.94 67.3995C1118.92 81.596 1077.88 99.1342 1037.65 119.114C987.955 143.806 945.307 180.908 910.565 224.597C899.075 239.387 889.498 253.59 881.258 267.121C857.188 307.071 843.775 340.638 834.791 373.582C832.973 380.813 827.279 399.687 824.053 428.058C823.996 428.585 823.94 429.115 823.885 429.646C823.087 437.394 822.514 446.015 822.169 455.175C821.234 479.152 821.943 507.395 822.422 538.944C822.517 545.568 822.582 551.479 822.615 557.121C822.396 581.162 823.63 600.44 817.753 645.707C814.057 670.921 806.441 704.23 788.158 731.711C770.318 759.616 741.112 777.416 716.566 785.084C711.602 786.723 707.24 788.137 702.995 789.494C678.634 797.263 665.016 800.875 655.152 803.361C652.511 804.02 649.967 804.632 647.811 805.134C642.094 806.461 637.638 807.423 631.714 808.586C589.422 816.934 559.466 814.356 509.67 807.73C506.578 807.323 503.816 806.687 503.62 806.331C503.421 805.974 505.878 806.034 508.986 806.444C558.879 813.082 589.04 815.856 631.751 807.374C637.924 806.158 642.714 805.112 648.469 803.764C650.607 803.261 653.052 802.667 655.533 802.045C665.205 799.594 678.666 796.017 702.887 788.287C707.031 786.962 711.33 785.567 716.191 783.963C740.528 776.355 769.429 758.766 787.129 731.124C805.269 703.901 812.878 670.767 816.563 645.673C822.385 600.989 821.204 582.093 821.435 558.164C821.406 552.526 821.343 546.571 821.25 539.905C820.78 508.301 820.052 480.021 820.954 455.948C821.296 446.454 821.882 437.506 822.706 429.518C822.73 429.285 822.754 429.051 822.779 428.819C826.037 399.738 831.48 382.02 832.967 375.75C842.037 341.499 856.134 306.363 880.559 265.993C888.747 252.586 898.176 238.651 909.312 224.283ZM328.99 786.712C332.157 786.968 334.868 787.458 335.063 787.803C335.257 788.147 332.864 788.215 329.701 787.959C313.069 786.615 301.053 785.74 291.713 785.073C274.376 783.847 266.004 783.306 253.457 782.424C221.071 780.162 189.798 778.323 161.619 776.899C114.816 774.52 76.5823 773.349 56.4011 772.818C53.1959 772.732 50.667 772.405 50.7056 772.079C50.7485 771.754 53.3413 771.554 56.5464 771.64C76.5895 772.168 114.554 773.33 161.189 775.695C189.413 777.118 220.792 778.958 253.389 781.234C265.561 782.089 273.47 782.6 290.424 783.794C299.759 784.458 311.91 785.336 328.99 786.712Z" fill="#C6D5C0"/>
<path d="M753.157 495.433C745.167 553.327 741.963 612.024 730.095 669.317C729.755 669.679 723.772 667.871 723.601 667.583C722.467 665.731 732.069 630.224 731.303 624.828C738.552 580.988 744.17 536.889 749.151 492.739C751.288 489.518 753.999 491.941 753.157 495.433Z" fill="#D4DEEC"/>
<path d="M710.446 507.499C715.019 554.619 715.53 603.219 718.429 650.582C718.587 653.171 720.984 667.594 720.585 668.389C720.508 668.541 717.519 671.328 717.437 669.712C717.848 668.874 716.698 666.167 716.549 665.021C714.195 647.139 713.563 627.712 712.528 609.618C710.383 572.289 709.204 534.417 707.454 497.325C710.598 495.077 710.271 505.683 710.45 507.494L710.446 507.499Z" fill="#D4DEEC"/>
<path d="M750.977 664.141C750.589 669.5 749.336 678.028 749.193 684.497C747.483 689.277 746.04 680.075 746.088 679.402C746.111 679.095 747.348 678.303 747.376 677.992C748 670.59 749.1 663.18 749.58 655.761C752.179 654.593 751.061 662.846 750.972 664.146L750.977 664.141Z" fill="#E3E5E7"/>
<path d="M749.927 656.695C749.447 664.113 748.342 671.528 747.723 678.925C747.695 679.237 746.458 680.029 746.435 680.335C746.382 681.014 747.826 690.216 749.54 685.43C749.507 686.765 749.768 688.642 749.753 690.152C749.686 696.246 749.471 698.672 750.423 704.99C750.575 705.997 750.714 707.009 750.898 708.009C751.082 709.01 751.161 710.048 751.372 711.029C752.118 714.518 753.349 717.911 754.205 721.377C751.073 721.324 743.824 723.355 741.19 725.006C741.487 718.873 735.489 713.668 730.112 711.652C727.366 710.623 725.881 709.709 723.367 711.957C721.854 713.312 718.763 718.567 720.038 720.555C717.95 719.302 710.93 717.115 708.39 717.026C708.845 716.654 708.313 715.743 708.329 715.677C708.77 714.167 709.385 713.232 709.817 711.217C710.019 710.268 710.247 709.476 710.369 708.489C711.066 702.81 711.022 697.827 711.983 691.858C712.807 686.729 715.921 679.423 715.943 674.783C717.457 673.766 716.911 673.055 716.817 671.702C717.074 671.325 717.614 670.995 717.783 670.645C717.866 672.262 720.855 669.474 720.932 669.322C721.33 668.518 718.934 654.095 718.775 651.515C715.872 604.157 715.361 555.557 710.789 508.437C712.034 508.547 712.657 511.986 712.847 512.904C720.609 550.201 723.929 588.531 731.629 625.762C732.405 631.157 722.793 666.665 723.927 668.516C724.102 668.8 730.081 670.613 730.421 670.25C742.303 612.962 745.507 554.265 753.497 496.37L754.933 494.449C753.039 548.425 753.425 602.775 749.931 656.699L749.927 656.695Z" fill="#E0E5EC"/>
<path d="M736.942 694.624C737.28 698.608 730.873 701.694 727.421 700.799C723.435 699.761 725.566 698.147 725.246 697.518C724.625 696.287 721.181 693.008 724.68 692.475C725.203 692.687 732.885 699.297 732.262 695.849C728.569 692.387 734.519 694.891 736.933 694.624L736.942 694.624Z" fill="#F9F9F9"/>
<path d="M732.179 686.393C733.344 687.183 737.373 692.245 735.871 693.318C735.356 693.688 723.912 690.692 723.568 690.156C721.986 687.719 727.948 683.529 732.184 686.388L732.179 686.393Z" fill="#F9F9F9"/>
<path d="M698.346 874.342L712.334 866.109L717.194 861.497L715.303 860.735C725.664 848.356 721.944 831.786 722.121 817.174C722.331 799.782 722.255 782.334 722.632 764.945C722.764 759.069 725.437 732.563 724.404 729.388C722.395 723.22 703.628 716.643 699.426 722.406C695.717 740.322 690.816 764.216 678.64 778.426C674.362 783.419 667.913 787.821 663.578 792.79C659.543 797.42 656.905 802.354 654.806 808.054C649.365 805.449 656.598 800.169 656.634 796.145C662.683 787.525 670.542 783.092 676.817 775.467C682.508 768.549 688.387 755.327 691.402 746.761C692.83 742.697 696.879 721.878 697.663 720.796C699.507 718.264 705.19 717.008 708.139 717.115C710.68 717.204 717.699 719.391 719.788 720.644C721.201 721.492 724.715 724.064 725.57 725.28C727.193 727.577 724.445 774.343 724.39 781.423C724.161 811.596 735.9 864.582 698.346 874.342Z" fill="#9EBB8E"/>
<path d="M654.801 808.046C638.558 852.219 688.27 893.027 715.303 860.731L717.193 861.493L712.333 866.106L698.346 874.338C657.868 884.865 634.465 827.708 656.628 796.137C656.592 800.161 649.36 805.441 654.801 808.046Z" fill="#9EBB8E"/>
<path d="M722.12 817.173L717.721 817.034C714.686 785.634 685.109 773.486 664.843 798.472C664.361 795.596 668.318 795.987 663.572 792.785C667.912 787.812 674.356 783.415 678.634 778.421C690.81 764.211 695.711 740.317 699.419 722.402C703.626 716.634 722.393 723.22 724.398 729.383C725.435 732.563 722.754 759.069 722.625 764.94C722.245 782.335 722.324 799.778 722.115 817.169L722.12 817.173Z" fill="#9EBB8E"/>
<path d="M715.303 860.734C688.275 893.034 638.558 852.222 654.801 808.049C656.899 802.349 659.537 797.415 663.573 792.785C668.319 795.986 664.362 795.596 664.843 798.472C660.586 803.724 658.692 808.938 657.159 815.377C646.051 862.122 704.514 889.25 716.12 841.436C718.009 833.657 718.493 825.002 717.721 817.034L722.12 817.173C721.943 831.785 725.663 848.356 715.303 860.734Z" fill="#9EBB8E"/>
<path d="M717.721 817.035C718.493 825.004 718.009 833.659 716.12 841.438L714.26 841.35C715.738 838.289 715.135 834.992 715.019 832.026C714.371 814.604 713.866 792.051 691.313 789.677C675.285 787.994 663.968 802.448 660.597 816.579C659.533 814.836 659.081 815.282 657.164 815.383C658.693 808.949 660.591 803.73 664.848 798.478C685.11 773.496 714.687 785.635 717.726 817.04L717.721 817.035Z" fill="#9EBB8E"/>
<path d="M716.121 841.436C704.519 889.254 646.056 862.127 657.16 815.377C659.076 815.276 659.528 814.83 660.593 816.573C649.753 861.978 710.067 885.305 715.02 832.024C715.131 834.995 715.738 838.287 714.261 841.349L716.121 841.436Z" fill="#9EBB8E"/>
<path d="M800.119 793.375C802.574 799.045 806.212 804.051 807.8 810.09C808.575 813.022 810.226 817.188 806.638 818.081C805.207 807.925 800.075 798.445 793.57 790.625C779.277 773.43 774.516 770.303 766.491 748.428C765.203 744.922 761.106 727.804 760.09 726.415C757.035 722.224 749.559 724.562 745.563 726.395C740.996 728.485 737.746 729.998 736.839 735.237C735.506 742.931 738.44 761.758 738.454 770.983C738.475 785.068 737.335 799.076 736.812 813.126L735.05 811.516C736.45 785.239 736.839 758.914 734.694 732.631C735.219 729.089 738.082 726.877 740.94 725.086C743.573 723.434 750.823 721.403 753.955 721.456C765.059 721.644 762.745 731.382 765.773 740.012C775.548 767.845 783.544 771.571 800.115 793.37L800.119 793.375Z" fill="#9EBB8E"/>
<path d="M735.047 811.522L736.81 813.132C736.784 813.888 736.605 814.752 736.579 815.508C736.275 823.53 734.719 833.553 735.887 841.388C743.204 890.226 814.43 873.297 806.64 818.083C810.223 817.185 808.573 813.019 807.801 810.092C806.209 804.049 802.576 799.047 800.121 793.376C836.216 840.859 775.113 903.361 740.787 860.09C728.747 844.909 734.138 828.487 735.047 811.522Z" fill="#9EBB8E"/>
<path d="M793.575 790.63L790.488 793.302L792.857 797.078C772.955 773.68 745.547 786.685 741.303 815.289L736.582 815.503C736.608 814.747 736.786 813.883 736.812 813.127C737.339 799.073 738.475 785.07 738.454 770.984C738.441 761.769 735.511 742.936 736.839 735.238C737.746 729.999 740.997 728.486 745.563 726.396C749.564 724.567 757.036 722.226 760.09 726.416C761.106 727.805 765.203 744.923 766.491 748.429C774.516 770.304 779.277 773.431 793.57 790.626L793.575 790.63Z" fill="#9EBB8E"/>
<path d="M806.642 818.085C814.432 873.3 743.202 890.224 735.89 841.39C734.717 833.551 736.273 823.537 736.582 815.511L741.303 815.297C740.7 819.37 741.068 824.038 741.207 828.142C741.77 844.805 744.82 856.864 762.233 863.516C791.984 874.883 809.005 834.532 799.859 809.949C797.941 804.804 796.563 801.446 792.857 797.086L790.488 793.309L793.575 790.638C800.08 798.459 805.212 807.938 806.643 818.095L806.642 818.085Z" fill="#9EBB8E"/>
<path d="M792.852 797.081C796.558 801.441 797.937 804.799 799.854 809.943C798.713 809.486 798.679 811.705 797.365 810.903C796.861 810.592 793.223 801.494 792.156 800.325C787.548 795.663 780.935 787.611 773.607 789.845C752.458 786.486 744.326 808.041 743.783 825.322C742.175 824.048 743.994 827.525 741.207 828.142C741.068 824.038 740.7 819.37 741.303 815.297C745.547 786.692 772.955 773.687 792.857 797.085L792.852 797.081Z" fill="#9EBB8E"/>
<path d="M799.854 809.943C809.005 834.522 791.979 874.878 762.229 863.511C744.81 856.855 741.766 844.799 741.203 828.137C743.99 827.521 742.171 824.043 743.779 825.317C743.26 841.894 749.846 860.215 769.235 861.505C805.408 863.921 809.499 795.537 773.603 789.841C780.931 787.607 787.544 795.659 792.152 800.32C793.219 801.49 796.856 810.588 797.361 810.898C798.68 811.704 798.709 809.481 799.85 809.939L799.854 809.943Z" fill="#9EBB8E"/>
</svg>
