<svg xmlns="http://www.w3.org/2000/svg" width="54" height="73" fill="none" viewBox="0 0 54 73"><path fill="#c8d7e9" d="M25.64 18.15a5 5 0 0 0-.91-.81 4.8 4.8 0 0 0-2.87-.9.76.76 0 1 0 .05 1.52c.66-.02 1.35.2 1.94.61 1 .7 1.63 1.9 1.77 3.34h.02v8.42l-.02.19c0 2.17-1.18 3.13-2.37 3.3-1.49.2-3.28-.77-3.94-2.97a.76.76 0 1 0-1.46.43c.9 3.01 3.46 4.33 5.61 4.03a4 4 0 0 0 2.18-1.01v6.45c-.12 1.21-.6 2.16-1.34 2.6q-.82.5-2.02.17a.76.76 0 1 0-.41 1.46c1.5.4 2.56.07 3.22-.33q.3-.18.54-.41v8.93q0 .7-.2 1.4c-.58 2-2.4 3.4-4.42 3.4a4.75 4.75 0 0 1-4.46-3.53q2.94-.28 4.24-1.98 1.28-1.68.86-4.63a.76.76 0 0 0-.9-.63.76.76 0 0 0-.6.85q.33 2.3-.57 3.49-.91 1.2-3.2 1.4l-.68-.05a7.8 7.8 0 0 1-7.16-7.7c.33-.75.89-1.3 1.42-1.4.27-.06.49-.28.55-.55a.76.76 0 0 0-.9-.93c-.86.2-1.67.84-2.22 1.8q-.46-.27-.87-.63a6 6 0 0 1-1.9-5.32 7 7 0 0 0 5.56.45c.54-.2 1.23-.53 1.92-1.12 2-.71 3.69-.33 4.65 1.06a4.8 4.8 0 0 1-.07 5.21c-.2.32-.16.75.13 1 .34.3.88.23 1.13-.15A6.3 6.3 0 0 0 18 37.7a4.8 4.8 0 0 0-4.4-2.05q.6-1.04.93-2.55a.76.76 0 1 0-1.49-.31c-.47 2.23-1.66 3.79-3.38 4.4a5.4 5.4 0 0 1-4.61-.51l-.42-.32a8.1 8.1 0 0 1-.76-12.08 7 7 0 0 0 1.52 2.28c.31.3.81.27 1.1-.05a.77.77 0 0 0-.06-1.05 6 6 0 0 1-1.35-2.19l.01-.01-.16-.51a6.3 6.3 0 0 1 .82-5.27q.94-1.36 2.32-1.92l.47-.18a4.6 4.6 0 0 1 4.03.2c.33.19.75.11.98-.19a.76.76 0 0 0-.22-1.13 6 6 0 0 0-4.7-.5c.5-3.31 3-5.98 6.2-6.58q.62 3.7 2.66 4.82.86.48 1.94.48.86 0 1.85-.3a.76.76 0 1 0-.45-1.45q-1.6.5-2.6-.05-1.37-.78-1.9-3.65h.06l.01-.7a4.7 4.7 0 0 1 4.62-4.76 4.67 4.67 0 0 1 4.62 4.8z"/><path fill="#231f20" d="M7.45 69.47a2.5 2.5 0 0 1-.66-1.75q0-1.04.66-1.76.67-.72 1.66-.72.93 0 1.54.59v-.45h1.6v4.67h-1.59v-.53h-.02q-.6.67-1.53.67-1 0-1.66-.71m1.37-2.54q-.32.3-.32.79 0 .48.3.79.3.3.8.3.48 0 .77-.3.3-.33.3-.79 0-.48-.31-.8-.31-.3-.77-.3t-.77.3M14.52 70.05v-7.82h1.61v7.82zM18.56 62.78a1 1 0 0 1 .67-.28q.39 0 .67.28a1 1 0 0 1 .28.67q0 .4-.28.68a1 1 0 0 1-.67.28 1 1 0 0 1-.67-.28 1 1 0 0 1-.28-.68q0-.39.28-.67m-.15 2.6v4.67H20v-4.67zM22.13 71.2l1.31-.65q.37.6 1.27.6.42 0 .78-.27t.35-.83v-.34q-.43.47-1.53.47-1 0-1.66-.71a2.5 2.5 0 0 1-.66-1.76q0-1.03.66-1.75.65-.72 1.66-.72.9 0 1.5.55h.03v-.42h1.61v4.8q0 1.13-.75 1.75t-2 .62q-2 0-2.58-1.35m1.9-4.27q-.32.3-.32.79 0 .48.3.79.3.3.79.3.48 0 .78-.3.3-.33.3-.79 0-.48-.31-.8-.32-.3-.77-.3-.46 0-.78.3M29.73 70.05v-4.67h1.6v.5h.03q.63-.64 1.33-.64a2.6 2.6 0 0 1 1.34.37q.31.2.52.55.19.34.2.81v3.08h-1.62V67.4a1 1 0 0 0-.23-.63.8.8 0 0 0-.6-.28q-.37 0-.66.28t-.3.63v2.63zM40.73 62.54l3.03 7.5h-1.84l-.55-1.5H38.5l-.56 1.5h-1.84l3.03-7.5zm.06 4.5-.84-2.17h-.02l-.83 2.18zM46.94 62.54v7.5h-1.7v-7.5zM27.05 5.2A6.2 6.2 0 0 0 21.01.04a6 6 0 0 0-4.32 1.83 6.3 6.3 0 0 0-1.77 3.74 9 9 0 0 0-5.38 2.85 9.5 9.5 0 0 0-2.5 5.89 7 7 0 0 0-2.54 2.27 7.9 7.9 0 0 0-1.16 6.06 9.6 9.6 0 0 0-.06 14.53 7.4 7.4 0 0 0 2.24 7.42q.7.61 1.52 1a9.5 9.5 0 0 0 2.51 5.87 9 9 0 0 0 5.43 2.84 6.3 6.3 0 0 0 1.86 3.47 6 6 0 0 0 7.88.4 6.4 6.4 0 0 0 2.43-5.03V6.35q0-.59-.1-1.16m-1.41 12.95a5 5 0 0 0-.91-.81 4.8 4.8 0 0 0-2.87-.9.76.76 0 1 0 .05 1.52c.66-.02 1.35.2 1.94.62 1 .7 1.63 1.88 1.77 3.33h.02v8.42l-.02.19c0 2.17-1.18 3.13-2.37 3.3-1.49.2-3.28-.77-3.94-2.97a.76.76 0 1 0-1.46.43c.9 3.01 3.46 4.33 5.61 4.03a4 4 0 0 0 2.18-1.01v6.45c-.12 1.21-.6 2.16-1.34 2.6q-.82.51-2.02.17a.76.76 0 1 0-.41 1.46c1.5.4 2.56.07 3.22-.33q.3-.18.54-.41v8.93q0 .72-.2 1.4c-.58 2-2.4 3.4-4.42 3.4a4.75 4.75 0 0 1-4.46-3.53q2.94-.27 4.24-1.98 1.28-1.69.86-4.63a.76.76 0 0 0-.9-.63.76.76 0 0 0-.6.85q.33 2.3-.57 3.49-.91 1.2-3.2 1.4l-.68-.05a7.8 7.8 0 0 1-7.16-7.7c.33-.75.89-1.29 1.42-1.4.27-.06.49-.28.55-.55a.76.76 0 0 0-.9-.93c-.86.2-1.67.84-2.22 1.8q-.46-.27-.87-.63a6 6 0 0 1-1.9-5.31 7 7 0 0 0 5.56.44c.54-.2 1.23-.53 1.92-1.12 2-.71 3.69-.33 4.65 1.06a4.8 4.8 0 0 1-.07 5.22.76.76 0 1 0 1.26.85 6.3 6.3 0 0 0 .06-6.93 4.8 4.8 0 0 0-4.4-2.05q.6-1.04.93-2.55a.76.76 0 1 0-1.49-.31c-.47 2.23-1.66 3.79-3.38 4.41a5.4 5.4 0 0 1-4.61-.52l-.42-.32a8.1 8.1 0 0 1-.76-12.08 7 7 0 0 0 1.52 2.28c.31.3.81.27 1.1-.05a.77.77 0 0 0-.06-1.05 6 6 0 0 1-1.35-2.19l.01-.01-.16-.51a6.3 6.3 0 0 1 .82-5.27q.94-1.36 2.32-1.92l.47-.18a4.6 4.6 0 0 1 4.03.2c.33.2.75.11.98-.18a.76.76 0 0 0-.22-1.13 6 6 0 0 0-4.7-.52c.5-3.3 3-5.97 6.2-6.57.42 2.48 1.29 4.06 2.66 4.82q.86.48 1.94.48.87 0 1.85-.3a.76.76 0 1 0-.45-1.45q-1.6.5-2.6-.05-1.37-.77-1.9-3.65h.06l.01-.7a4.7 4.7 0 0 1 4.62-4.76 4.67 4.67 0 0 1 4.62 4.8zm-8.43 2.39a6.4 6.4 0 0 1-.28 3.88 5.7 5.7 0 0 1-2.33 2.78.75.75 0 0 1-1.08-.34v-.03a.74.74 0 0 1 .3-.93 4.2 4.2 0 0 0 1.7-2.05c.38-.93.45-2.01.22-2.95a.76.76 0 0 1 1.47-.36M48.36 8.93C44.66 3.17 39.68 0 34.36 0a5.55 5.55 0 0 0-5.52 5.57c.05 7.88.07 15.3.04 22.01-.03 6.51-.04 12.93-.05 19.14l-.02 7.22a5.6 5.6 0 0 0 5.55 5.56c5.33 0 10.3-3.1 14-8.75C52 45.21 54 37.82 54 29.93c0-7.88-2-15.36-5.64-21M44.63 31l-.53-.18-.58-.06-.57.06-.54.18-.47.27-.41.35-.34.42-.24.48-.16.53-.05.55.05.57.16.52.24.48.34.42.4.36.48.27.54.17.57.06.58-.06.53-.17.48-.27.41-.36.33-.42.25-.48.1-.32h6.05a36 36 0 0 1-4.56 14.58l-3.38-3.59V44.2l.32-.1.48-.27.41-.36.33-.42.25-.48.16-.52.05-.57-.05-.55-.16-.53-.25-.48-.33-.42-.41-.36-.48-.27-.53-.17-.58-.06-.57.06-.54.17-.47.27-.41.36-.34.42-.24.48-.16.53-.05.55.05.57.16.52.24.48.34.42.4.36.48.27.38.12v1.75l.02.01 4.04 4.29a18.6 18.6 0 0 1-6.78 6.3l-3.46-3.43v-1.05l.35-.11.48-.27.4-.36.34-.42.25-.48.15-.53.06-.56-.06-.56-.15-.52-.25-.48-.34-.42-.4-.36-.48-.27-.54-.17-.57-.06-.58.06-.53.17-.48.27-.4.36-.34.42-.25.48-.16.52-.05.56.05.56.16.53.25.48.34.42.4.36.48.27.35.11v1.67h.01l-.01.01 3.49 3.45q-2.06.76-4.22.76a4.05 4.05 0 0 1-4.04-4.04l.02-7.22.01-4.48h2.82l.1.33.25.48.33.42.41.36.48.27.53.17.57.06.58-.06.54-.17.47-.27.41-.36.33-.42.26-.48.15-.52.05-.57-.05-.55-.15-.53-.26-.48-.33-.42-.4-.36-.48-.27-.54-.17-.58-.06-.57.06-.53.17-.48.27-.4.36-.34.42-.25.48-.1.32h-2.82l.05-13.14v-1.1h2.77l.1.33.25.48.33.42.41.36.48.27.53.17.57.06.58-.06.54-.17.47-.27.41-.36.33-.42.26-.48.15-.53.05-.56-.05-.56-.15-.52-.26-.48-.33-.42-.4-.36-.48-.27-.54-.17-.58-.06-.57.06-.53.17-.48.27-.4.36-.34.42-.25.48-.1.32H30.4v-9.15l2.55 2.93h6.62l.08.28.25.48.34.43.4.35.48.27.54.18.57.06.58-.06.53-.18.48-.27.4-.35.34-.43.25-.48.16-.52.05-.56-.05-.56-.16-.52-.25-.49-.33-.42-.41-.35-.48-.27-.53-.17-.58-.06-.57.06-.54.17-.47.27-.41.35-.34.42-.25.49-.1.36h-5.9l-3.26-3.73q0-3.88-.04-7.93A4 4 0 0 1 31.5 2.7a4 4 0 0 1 2.84-1.19c2.3 0 4.54.68 6.63 1.98l-3.86 3.95-.17-.1-.53-.16-.58-.06-.57.06-.54.17-.47.27-.41.35-.34.42-.25.48-.15.53-.06.56.06.56.15.53.25.47.34.43.4.35.48.27.54.17.57.06.58-.06.53-.17.48-.27.4-.35.34-.43.25-.47.16-.53.05-.56-.05-.56-.16-.53-.2-.38 4.03-4.13a21 21 0 0 1 4.83 5.4c3.16 4.9 5.03 11.25 5.34 18.07H39.05v.01h-.01l-2.18 3.12-.44-.15-.58-.06-.57.06-.53.18-.48.27-.4.35-.34.42-.25.48-.16.53-.05.56.05.56.16.52.25.48.33.43.41.35.48.27.53.17.57.06.58-.06.54-.17.47-.27.41-.35.33-.43.26-.48.15-.52.05-.56-.05-.56-.15-.53-.26-.48-.1-.14 1.76-2.55h12.64v.58q0 1.47-.1 2.91H46.2l-.1-.32-.24-.48-.34-.42-.4-.36-.48-.27zm.16 2.6a1.3 1.3 0 0 1-1.27 1.34c-.7 0-1.27-.6-1.27-1.33s.57-1.33 1.27-1.33 1.27.6 1.27 1.33m-1.27 9.22c-.7 0-1.27-.6-1.27-1.33s.57-1.33 1.27-1.33 1.27.6 1.27 1.33a1.3 1.3 0 0 1-1.27 1.33m-7.67 7.88c-.7 0-1.27-.6-1.27-1.33s.57-1.33 1.27-1.33 1.27.6 1.27 1.33a1.3 1.3 0 0 1-1.27 1.33m-1.27-9.21c0-.73.57-1.33 1.27-1.33s1.27.6 1.27 1.33a1.3 1.3 0 0 1-1.27 1.33c-.7 0-1.27-.6-1.27-1.33m0-15.76c0-.74.57-1.33 1.27-1.33s1.27.6 1.27 1.33a1.3 1.3 0 0 1-1.27 1.32c-.7 0-1.27-.59-1.27-1.32m6.39-7.79c0-.73.56-1.33 1.26-1.33s1.28.6 1.28 1.33a1.3 1.3 0 0 1-1.28 1.33c-.7 0-1.26-.6-1.26-1.33m-3.85-7.98a1.3 1.3 0 0 1-1.27 1.33c-.7 0-1.27-.59-1.27-1.33 0-.73.57-1.32 1.27-1.32s1.27.59 1.27 1.32m0 23.65a1.3 1.3 0 0 1-1.27 1.33c-.7 0-1.27-.6-1.27-1.33s.57-1.33 1.27-1.33 1.27.6 1.27 1.33"/><path fill="#9cdbed" d="m44.63 31-.53-.18-.58-.06-.57.06-.54.18-.47.27-.41.35-.34.42-.24.48-.16.53-.05.56.05.56.16.52.24.48.34.43.41.35.47.27.54.17.57.06.58-.06.53-.17.48-.27.41-.35.33-.43.25-.48.1-.32h6.05a36 36 0 0 1-4.56 14.58l-3.38-3.59V44.2l.32-.1.48-.27.41-.36.33-.42.25-.48.16-.52.05-.57-.05-.55-.16-.53-.25-.48-.33-.42-.41-.36-.48-.26-.53-.18-.58-.06-.57.06-.54.18-.47.26-.41.36-.34.42-.24.48-.16.53-.05.55.05.57.16.52.24.48.34.42.41.36.47.27.38.12v1.75l.02.01 4.04 4.29a18.6 18.6 0 0 1-6.78 6.3l-3.46-3.43v-1.05l.35-.11.48-.27.4-.36.34-.42.25-.48.15-.53.06-.56-.06-.55-.15-.53-.25-.48-.34-.42-.4-.36-.48-.27-.54-.17-.57-.06-.58.06-.53.17-.48.27-.4.36-.34.42-.25.48-.16.52-.05.56.05.56.16.53.25.48.34.42.4.36.48.27.35.11v1.67h.01l-.01.01 3.49 3.45q-2.06.76-4.22.76a4.05 4.05 0 0 1-4.03-4.04l.01-7.21.01-4.48h2.82l.1.32.25.48.33.42.41.36.48.27.53.17.57.06.58-.06.54-.17.47-.27.41-.36.33-.42.26-.48.15-.52.05-.57-.05-.55-.15-.53-.26-.48-.33-.42-.4-.36-.48-.26-.54-.18-.58-.06-.57.06-.53.18-.48.26-.4.36-.34.42-.25.48-.1.32h-2.82l.05-13.14v-1.1h2.77l.1.33.25.48.33.42.41.36.48.27.53.17.57.06.58-.06.54-.17.47-.27.41-.36.33-.42.26-.48.15-.52.05-.57-.05-.55-.15-.53-.26-.48-.33-.42-.4-.36-.48-.27-.54-.17-.58-.06-.57.06-.53.17-.48.27-.4.36-.34.42-.25.48-.1.32H30.4v-9.15l2.55 2.93h6.62l.08.29.25.47.34.43.4.35.48.27.54.18.57.06.58-.06.53-.18.48-.27.4-.35.34-.43.25-.47.16-.53.05-.56-.05-.56-.16-.52-.25-.49-.33-.42-.41-.35-.48-.27-.53-.17-.58-.06-.57.06-.54.17-.47.27-.41.35-.34.42-.25.49-.1.36h-5.9l-3.26-3.73q0-3.88-.04-7.93A4 4 0 0 1 31.5 2.7a4 4 0 0 1 2.84-1.18c2.3 0 4.54.67 6.63 1.97l-3.86 3.95-.17-.09-.53-.17-.58-.06-.57.06-.54.17-.47.27-.41.35-.34.42-.25.48-.15.53-.06.56.06.56.15.53.26.48.33.42.4.35.48.27.54.17.57.06.58-.06.53-.17.48-.27.4-.35.34-.42.25-.48.16-.53.05-.56-.05-.56-.16-.53-.2-.38 4.03-4.13a21 21 0 0 1 4.83 5.4c3.16 4.9 5.03 11.25 5.34 18.07H39.05v.01h-.01l-2.18 3.12-.44-.15-.58-.06-.57.06-.53.18-.48.27-.4.35-.34.42-.25.48-.16.53-.05.56.05.56.16.52.25.48.33.43.41.35.48.27.53.17.57.06.58-.06.54-.17.47-.27.41-.35.33-.43.26-.48.15-.52.05-.56-.05-.56-.15-.53-.26-.48-.1-.14 1.76-2.55h12.64v.58q0 1.47-.1 2.91H46.2l-.1-.32-.24-.48-.34-.42-.4-.36-.48-.27zm.16 2.6a1.3 1.3 0 0 1-1.27 1.34c-.7 0-1.27-.6-1.27-1.33s.57-1.33 1.27-1.33 1.27.6 1.27 1.33m-1.27 9.22c-.7 0-1.27-.6-1.27-1.33s.57-1.33 1.27-1.33 1.27.6 1.27 1.33a1.3 1.3 0 0 1-1.27 1.33m-7.67 7.88c-.7 0-1.27-.6-1.27-1.33s.57-1.33 1.27-1.33 1.27.6 1.27 1.33a1.3 1.3 0 0 1-1.27 1.33m-1.27-9.2c0-.74.57-1.34 1.27-1.34s1.27.6 1.27 1.33a1.3 1.3 0 0 1-1.27 1.33c-.7 0-1.27-.6-1.27-1.33m0-15.77c0-.73.57-1.33 1.27-1.33s1.27.6 1.27 1.33a1.3 1.3 0 0 1-1.27 1.33c-.7 0-1.27-.6-1.27-1.33m6.39-7.79c0-.73.57-1.32 1.26-1.32s1.28.59 1.28 1.32a1.3 1.3 0 0 1-1.28 1.33c-.7 0-1.26-.6-1.26-1.33m-3.85-7.97a1.3 1.3 0 0 1-1.27 1.32c-.7 0-1.27-.59-1.27-1.32s.57-1.33 1.27-1.33 1.27.6 1.27 1.33m0 23.64a1.3 1.3 0 0 1-1.27 1.33c-.7 0-1.27-.6-1.27-1.33s.57-1.33 1.27-1.33 1.27.6 1.27 1.33"/></svg>